<?xml version="1.0" encoding="UTF-8" standalone="no"?>
<!DOCTYPE svg PUBLIC "-//W3C//DTD SVG 1.1//EN"
 "http://www.w3.org/Graphics/SVG/1.1/DTD/svg11.dtd">
<!-- Generated by graphviz version 2.38.0 (20140413.2041)
 -->
<!-- Title: gAn Pages: 1 -->
<svg width="1655pt" height="415pt"
 viewBox="0.00 0.00 1655.31 415.00" xmlns="http://www.w3.org/2000/svg" xmlns:xlink="http://www.w3.org/1999/xlink">
<g id="graph0" class="graph" transform="scale(1 1) rotate(0) translate(4 411)">
<title>gAn</title>
<polygon fill="white" stroke="none" points="-4,4 -4,-411 1651.31,-411 1651.31,4 -4,4"/>
<text text-anchor="middle" x="85.5" y="-391.8" font-family="Times New Roman,serif" font-size="14.00">Graph of Ontology File: An</text>
<!-- n1 -->
<g id="node1" class="node"><title>n1</title>
<ellipse fill="blue" stroke="black" cx="78.643" cy="-105" rx="78.7863" ry="18"/>
<text text-anchor="middle" x="78.643" y="-101.3" font-family="Times New Roman,serif" font-size="14.00" fill="white">PRECONDITION</text>
</g>
<!-- n2 -->
<g id="node2" class="node"><title>n2</title>
<polygon fill="none" stroke="black" points="122.643,-36 34.643,-36 34.643,-0 122.643,-0 122.643,-36"/>
<text text-anchor="middle" x="78.643" y="-14.3" font-family="Times New Roman,serif" font-size="14.00">Precondition</text>
</g>
<!-- n1&#45;&gt;n2 -->
<g id="edge1" class="edge"><title>n1&#45;&gt;n2</title>
<path fill="none" stroke="#00cd00" d="M78.643,-86.799C78.643,-75.1626 78.643,-59.5479 78.643,-46.2368"/>
<polygon fill="#00cd00" stroke="#00cd00" points="82.1431,-46.1754 78.643,-36.1754 75.1431,-46.1755 82.1431,-46.1754"/>
<text text-anchor="middle" x="103.143" y="-57.8" font-family="Times New Roman,serif" font-size="14.00">identifier</text>
</g>
<!-- n3 -->
<g id="node3" class="node"><title>n3</title>
<polygon fill="#00008b" stroke="black" points="716.143,-36 489.143,-36 489.143,-0 716.143,-0 716.143,-36"/>
<text text-anchor="middle" x="602.643" y="-14.3" font-family="Times New Roman,serif" font-size="14.00" fill="white">ANALYSIS_ANNOTATION_TYPE</text>
</g>
<!-- n1&#45;&gt;n3 -->
<g id="edge2" class="edge"><title>n1&#45;&gt;n3</title>
<path fill="none" stroke="black" d="M102.64,-87.5757C123.7,-73.1936 151.207,-54.5015 152.643,-54 210.722,-33.7216 366.834,-25.1518 478.879,-21.5564"/>
<polygon fill="black" stroke="black" points="479.014,-25.054 488.9,-21.2442 478.796,-18.0574 479.014,-25.054"/>
<text text-anchor="middle" x="162.143" y="-57.8" font-family="Times New Roman,serif" font-size="14.00">is a</text>
</g>
<!-- n4 -->
<g id="node4" class="node"><title>n4</title>
<ellipse fill="blue" stroke="black" cx="1076.64" cy="-366" rx="40.8928" ry="18"/>
<text text-anchor="middle" x="1076.64" y="-362.3" font-family="Times New Roman,serif" font-size="14.00" fill="white">analyzes</text>
</g>
<!-- n5 -->
<g id="node5" class="node"><title>n5</title>
<g id="a_node5"><a xlink:href="file:///C:/Users/200001866/Documents/GitHub/RACK/RACK-Ontology/Graphs/PROV-S.owl.svg" xlink:title="provs:wasImpactedBy">
<polygon fill="none" stroke="#00cd00" points="1176.44,-271.544 1176.44,-286.456 1117.98,-297 1035.31,-297 976.851,-286.456 976.851,-271.544 1035.31,-261 1117.98,-261 1176.44,-271.544"/>
<text text-anchor="middle" x="1076.64" y="-275.3" font-family="Times New Roman,serif" font-size="14.00">provs:wasImpactedBy</text>
</a>
</g>
</g>
<!-- n4&#45;&gt;n5 -->
<g id="edge3" class="edge"><title>n4&#45;&gt;n5</title>
<path fill="none" stroke="#00cd00" d="M1076.64,-347.799C1076.64,-336.163 1076.64,-320.548 1076.64,-307.237"/>
<polygon fill="#00cd00" stroke="#00cd00" points="1080.14,-307.175 1076.64,-297.175 1073.14,-307.175 1080.14,-307.175"/>
<text text-anchor="middle" x="1119.14" y="-318.8" font-family="Times New Roman,serif" font-size="14.00">subPropertyOf</text>
</g>
<!-- n6 -->
<g id="node6" class="node"><title>n6</title>
<g id="a_node6"><a xlink:href="file:///C:/Users/200001866/Documents/GitHub/RACK/RACK-Ontology/Graphs/PROV-S.owl.svg" xlink:title="provs:THING">
<polygon fill="#00008b" stroke="black" points="216.143,-297 121.143,-297 121.143,-261 216.143,-261 216.143,-297"/>
<text text-anchor="middle" x="168.643" y="-275.3" font-family="Times New Roman,serif" font-size="14.00" fill="white">provs:THING</text>
</a>
</g>
</g>
<!-- n6&#45;&gt;n3 -->
<g id="edge4" class="edge"><title>n6&#45;&gt;n3</title>
<path fill="none" stroke="blue" stroke-dasharray="5,2" d="M167.008,-260.728C164.49,-223.13 164.328,-133.52 213.643,-87 251.251,-51.5238 379.563,-34.2467 478.651,-26.0383"/>
<polygon fill="blue" stroke="blue" points="479.066,-29.5163 488.752,-25.2243 478.503,-22.5389 479.066,-29.5163"/>
<text text-anchor="middle" x="206.643" y="-144.8" font-family="Times New Roman,serif" font-size="14.00">subClass</text>
</g>
<!-- n11 -->
<g id="node11" class="node"><title>n11</title>
<polygon fill="#00008b" stroke="black" points="408.643,-210 262.643,-210 262.643,-174 408.643,-174 408.643,-210"/>
<text text-anchor="middle" x="335.643" y="-188.3" font-family="Times New Roman,serif" font-size="14.00" fill="white">ANALYSIS_RESULT</text>
</g>
<!-- n6&#45;&gt;n11 -->
<g id="edge8" class="edge"><title>n6&#45;&gt;n11</title>
<path fill="none" stroke="blue" stroke-dasharray="5,2" d="M188.091,-260.98C200.92,-250.405 218.473,-237.134 235.643,-228 245.691,-222.655 256.724,-217.849 267.678,-213.634"/>
<polygon fill="blue" stroke="blue" points="269.097,-216.84 277.258,-210.083 266.664,-210.277 269.097,-216.84"/>
<text text-anchor="middle" x="261.643" y="-231.8" font-family="Times New Roman,serif" font-size="14.00">subClass</text>
</g>
<!-- n7 -->
<g id="node7" class="node"><title>n7</title>
<g id="a_node7"><a xlink:href="file:///C:/Users/200001866/Documents/GitHub/RACK/RACK-Ontology/Graphs/PROV-S.owl.svg" xlink:title="provs:ENTITY">
<polygon fill="#00008b" stroke="black" points="1164.64,-210 1062.64,-210 1062.64,-174 1164.64,-174 1164.64,-210"/>
<text text-anchor="middle" x="1113.64" y="-188.3" font-family="Times New Roman,serif" font-size="14.00" fill="white">provs:ENTITY</text>
</a>
</g>
</g>
<!-- n8 -->
<g id="node8" class="node"><title>n8</title>
<polygon fill="#00008b" stroke="black" points="695.143,-123 510.143,-123 510.143,-87 695.143,-87 695.143,-123"/>
<text text-anchor="middle" x="602.643" y="-101.3" font-family="Times New Roman,serif" font-size="14.00" fill="white">ANALYSIS_ANNOTATION</text>
</g>
<!-- n7&#45;&gt;n8 -->
<g id="edge5" class="edge"><title>n7&#45;&gt;n8</title>
<path fill="none" stroke="blue" stroke-dasharray="5,2" d="M1062.36,-176.024C1059.42,-175.304 1056.5,-174.623 1053.64,-174 903.631,-141.256 861.4,-145.959 705.154,-123.04"/>
<polygon fill="blue" stroke="blue" points="705.593,-119.567 695.188,-121.563 704.567,-126.491 705.593,-119.567"/>
<text text-anchor="middle" x="986.643" y="-144.8" font-family="Times New Roman,serif" font-size="14.00">subClass</text>
</g>
<!-- n23 -->
<g id="node23" class="node"><title>n23</title>
<polygon fill="#00008b" stroke="black" points="959.143,-297 810.143,-297 810.143,-261 959.143,-261 959.143,-297"/>
<text text-anchor="middle" x="884.643" y="-275.3" font-family="Times New Roman,serif" font-size="14.00" fill="white">ANALYSIS_OUTPUT</text>
</g>
<!-- n7&#45;&gt;n23 -->
<g id="edge19" class="edge"><title>n7&#45;&gt;n23</title>
<path fill="none" stroke="blue" stroke-dasharray="5,2" d="M1062.58,-207.475C1059.56,-208.33 1056.56,-209.176 1053.64,-210 1025.21,-218.027 1017.3,-217.611 989.643,-228 968.202,-236.053 945.146,-246.787 926.116,-256.244"/>
<polygon fill="blue" stroke="blue" points="924.483,-253.148 917.122,-260.767 927.628,-259.401 924.483,-253.148"/>
<text text-anchor="middle" x="1015.64" y="-231.8" font-family="Times New Roman,serif" font-size="14.00">subClass</text>
</g>
<!-- n8&#45;&gt;n3 -->
<g id="edge29" class="edge"><title>n8&#45;&gt;n3</title>
<path fill="none" stroke="#00cd00" d="M602.643,-86.799C602.643,-75.1626 602.643,-59.5479 602.643,-46.2368"/>
<polygon fill="#00cd00" stroke="#00cd00" points="606.143,-46.1754 602.643,-36.1754 599.143,-46.1755 606.143,-46.1754"/>
<text text-anchor="middle" x="646.643" y="-57.8" font-family="Times New Roman,serif" font-size="14.00">annotationType</text>
</g>
<!-- n8&#45;&gt;n23 -->
<g id="edge30" class="edge"><title>n8&#45;&gt;n23</title>
<path fill="none" stroke="#00cd00" d="M546.429,-123.073C495.274,-141.445 432.186,-173.054 463.643,-210 474.486,-222.735 679.852,-251.381 799.676,-267.125"/>
<polygon fill="#00cd00" stroke="#00cd00" points="799.558,-270.639 809.928,-268.468 800.468,-263.698 799.558,-270.639"/>
<text text-anchor="middle" x="497.143" y="-188.3" font-family="Times New Roman,serif" font-size="14.00">fromReport</text>
</g>
<!-- n9 -->
<g id="node9" class="node"><title>n9</title>
<polygon fill="none" stroke="red" points="731.143,-210 540.143,-210 540.143,-174 731.143,-174 731.143,-210"/>
<text text-anchor="middle" x="635.643" y="-188.3" font-family="Times New Roman,serif" font-size="14.00">fromReport has exactly 1 value</text>
</g>
<!-- n9&#45;&gt;n8 -->
<g id="edge6" class="edge"><title>n9&#45;&gt;n8</title>
<path fill="none" stroke="red" d="M628.965,-173.799C624.403,-162.047 618.265,-146.238 613.064,-132.842"/>
<polygon fill="red" stroke="red" points="616.193,-131.231 609.311,-123.175 609.668,-133.764 616.193,-131.231"/>
<text text-anchor="middle" x="644.143" y="-144.8" font-family="Times New Roman,serif" font-size="14.00">restricts</text>
</g>
<!-- n10 -->
<g id="node10" class="node"><title>n10</title>
<polygon fill="none" stroke="red" points="1044.64,-210 832.643,-210 832.643,-174 1044.64,-174 1044.64,-210"/>
<text text-anchor="middle" x="938.643" y="-188.3" font-family="Times New Roman,serif" font-size="14.00">annotationType has exactly 1 value</text>
</g>
<!-- n10&#45;&gt;n8 -->
<g id="edge7" class="edge"><title>n10&#45;&gt;n8</title>
<path fill="none" stroke="red" d="M871.053,-173.901C815.8,-159.924 737.66,-140.156 679.931,-125.552"/>
<polygon fill="red" stroke="red" points="680.678,-122.131 670.125,-123.071 678.962,-128.917 680.678,-122.131"/>
<text text-anchor="middle" x="814.143" y="-144.8" font-family="Times New Roman,serif" font-size="14.00">restricts</text>
</g>
<!-- n12 -->
<g id="node12" class="node"><title>n12</title>
<polygon fill="none" stroke="red" points="448.643,-123 222.643,-123 222.643,-87 448.643,-87 448.643,-123"/>
<text text-anchor="middle" x="335.643" y="-101.3" font-family="Times New Roman,serif" font-size="14.00">one of {Passed,Failed,Indeterminate}</text>
</g>
<!-- n11&#45;&gt;n12 -->
<g id="edge9" class="edge"><title>n11&#45;&gt;n12</title>
<path fill="none" stroke="red" d="M335.643,-173.799C335.643,-162.163 335.643,-146.548 335.643,-133.237"/>
<polygon fill="red" stroke="red" points="339.143,-133.175 335.643,-123.175 332.143,-133.175 339.143,-133.175"/>
<text text-anchor="middle" x="358.143" y="-144.8" font-family="Times New Roman,serif" font-size="14.00">same as</text>
</g>
<!-- n13 -->
<g id="node13" class="node"><title>n13</title>
<ellipse fill="blue" stroke="black" cx="1297.64" cy="-366" rx="55.7903" ry="18"/>
<text text-anchor="middle" x="1297.64" y="-362.3" font-family="Times New Roman,serif" font-size="14.00" fill="white">producedBy</text>
</g>
<!-- n14 -->
<g id="node14" class="node"><title>n14</title>
<g id="a_node14"><a xlink:href="file:///C:/Users/200001866/Documents/GitHub/RACK/RACK-Ontology/Graphs/PROV-S.owl.svg" xlink:title="provs:wasGeneratedBy">
<polygon fill="none" stroke="#00cd00" points="1400.56,-271.544 1400.56,-286.456 1340.27,-297 1255.01,-297 1194.72,-286.456 1194.72,-271.544 1255.01,-261 1340.27,-261 1400.56,-271.544"/>
<text text-anchor="middle" x="1297.64" y="-275.3" font-family="Times New Roman,serif" font-size="14.00">provs:wasGeneratedBy</text>
</a>
</g>
</g>
<!-- n13&#45;&gt;n14 -->
<g id="edge10" class="edge"><title>n13&#45;&gt;n14</title>
<path fill="none" stroke="#00cd00" d="M1297.64,-347.799C1297.64,-336.163 1297.64,-320.548 1297.64,-307.237"/>
<polygon fill="#00cd00" stroke="#00cd00" points="1301.14,-307.175 1297.64,-297.175 1294.14,-307.175 1301.14,-307.175"/>
<text text-anchor="middle" x="1340.14" y="-318.8" font-family="Times New Roman,serif" font-size="14.00">subPropertyOf</text>
</g>
<!-- n15 -->
<g id="node15" class="node"><title>n15</title>
<ellipse fill="blue" stroke="black" cx="628.643" cy="-279" rx="32.4942" ry="18"/>
<text text-anchor="middle" x="628.643" y="-275.3" font-family="Times New Roman,serif" font-size="14.00" fill="white">Failed</text>
</g>
<!-- n15&#45;&gt;n11 -->
<g id="edge12" class="edge"><title>n15&#45;&gt;n11</title>
<path fill="none" stroke="black" d="M604.618,-266.849C598.839,-264.569 592.609,-262.431 586.643,-261 541.528,-250.176 419.935,-264.153 378.643,-243 367.877,-237.485 358.673,-228.005 351.576,-218.773"/>
<polygon fill="black" stroke="black" points="354.321,-216.595 345.666,-210.485 348.622,-220.659 354.321,-216.595"/>
<text text-anchor="middle" x="388.143" y="-231.8" font-family="Times New Roman,serif" font-size="14.00">is a</text>
</g>
<!-- n15&#45;&gt;n15 -->
<g id="edge11" class="edge"><title>n15&#45;&gt;n15</title>
<path fill="none" stroke="#00cd00" d="M657.956,-286.836C669.499,-287.231 679.14,-284.619 679.14,-279 679.14,-275.137 674.583,-272.695 667.984,-271.675"/>
<polygon fill="#00cd00" stroke="#00cd00" points="668.121,-268.177 657.956,-271.164 667.765,-275.168 668.121,-268.177"/>
<text text-anchor="middle" x="703.64" y="-275.3" font-family="Times New Roman,serif" font-size="14.00">identifier</text>
</g>
<!-- n16 -->
<g id="node16" class="node"><title>n16</title>
<g id="a_node16"><a xlink:href="file:///C:/Users/200001866/Documents/GitHub/RACK/RACK-Ontology/Graphs/PROV-S.owl.svg" xlink:title="provs:ACTIVITY">
<polygon fill="#00008b" stroke="black" points="1300.64,-210 1182.64,-210 1182.64,-174 1300.64,-174 1300.64,-210"/>
<text text-anchor="middle" x="1241.64" y="-188.3" font-family="Times New Roman,serif" font-size="14.00" fill="white">provs:ACTIVITY</text>
</a>
</g>
</g>
<!-- n17 -->
<g id="node17" class="node"><title>n17</title>
<polygon fill="#00008b" stroke="black" points="1284.14,-123 1199.14,-123 1199.14,-87 1284.14,-87 1284.14,-123"/>
<text text-anchor="middle" x="1241.64" y="-101.3" font-family="Times New Roman,serif" font-size="14.00" fill="white">ANALYSIS</text>
</g>
<!-- n16&#45;&gt;n17 -->
<g id="edge13" class="edge"><title>n16&#45;&gt;n17</title>
<path fill="none" stroke="blue" stroke-dasharray="5,2" d="M1241.64,-173.799C1241.64,-162.163 1241.64,-146.548 1241.64,-133.237"/>
<polygon fill="blue" stroke="blue" points="1245.14,-133.175 1241.64,-123.175 1238.14,-133.175 1245.14,-133.175"/>
<text text-anchor="middle" x="1267.64" y="-144.8" font-family="Times New Roman,serif" font-size="14.00">subClass</text>
</g>
<!-- n29 -->
<g id="node29" class="node"><title>n29</title>
<g id="a_node29"><a xlink:href="file:///C:/Users/200001866/Documents/GitHub/RACK/RACK-Ontology/Graphs/PROV-S.owl.svg" xlink:title="provs:AGENT">
<polygon fill="#00008b" stroke="black" points="1291.14,-36 1192.14,-36 1192.14,-0 1291.14,-0 1291.14,-36"/>
<text text-anchor="middle" x="1241.64" y="-14.3" font-family="Times New Roman,serif" font-size="14.00" fill="white">provs:AGENT</text>
</a>
</g>
</g>
<!-- n17&#45;&gt;n29 -->
<g id="edge27" class="edge"><title>n17&#45;&gt;n29</title>
<path fill="none" stroke="#00cd00" d="M1241.64,-86.799C1241.64,-75.1626 1241.64,-59.5479 1241.64,-46.2368"/>
<polygon fill="#00cd00" stroke="#00cd00" points="1245.14,-46.1754 1241.64,-36.1754 1238.14,-46.1755 1245.14,-46.1754"/>
<text text-anchor="middle" x="1279.14" y="-57.8" font-family="Times New Roman,serif" font-size="14.00">performedBy</text>
</g>
<!-- n18 -->
<g id="node18" class="node"><title>n18</title>
<ellipse fill="blue" stroke="black" cx="293.643" cy="-279" rx="59.5901" ry="18"/>
<text text-anchor="middle" x="293.643" y="-275.3" font-family="Times New Roman,serif" font-size="14.00" fill="white">Indeterminate</text>
</g>
<!-- n18&#45;&gt;n11 -->
<g id="edge15" class="edge"><title>n18&#45;&gt;n11</title>
<path fill="none" stroke="black" d="M290.622,-261C289.632,-250.936 289.814,-238.202 294.643,-228 296.395,-224.299 298.745,-220.841 301.439,-217.651"/>
<polygon fill="black" stroke="black" points="304.169,-219.866 308.694,-210.286 299.183,-214.953 304.169,-219.866"/>
<text text-anchor="middle" x="304.143" y="-231.8" font-family="Times New Roman,serif" font-size="14.00">is a</text>
</g>
<!-- n18&#45;&gt;n18 -->
<g id="edge14" class="edge"><title>n18&#45;&gt;n18</title>
<path fill="none" stroke="#00cd00" d="M347.813,-286.767C361.333,-286.224 371.438,-283.635 371.438,-279 371.438,-275.633 366.103,-273.345 358.001,-272.138"/>
<polygon fill="#00cd00" stroke="#00cd00" points="358.084,-268.631 347.813,-271.233 357.465,-275.604 358.084,-268.631"/>
<text text-anchor="middle" x="395.938" y="-275.3" font-family="Times New Roman,serif" font-size="14.00">identifier</text>
</g>
<!-- n19 -->
<g id="node19" class="node"><title>n19</title>
<ellipse fill="blue" stroke="black" cx="798.643" cy="-105" rx="85.2851" ry="18"/>
<text text-anchor="middle" x="798.643" y="-101.3" font-family="Times New Roman,serif" font-size="14.00" fill="white">POSTCONDITION</text>
</g>
<!-- n19&#45;&gt;n3 -->
<g id="edge17" class="edge"><title>n19&#45;&gt;n3</title>
<path fill="none" stroke="black" d="M759.127,-89.0251C745.138,-83.2849 729.453,-76.3389 715.643,-69 704.866,-63.2728 703.499,-59.5748 692.643,-54 682.823,-48.9575 672.101,-44.1936 661.59,-39.8984"/>
<polygon fill="black" stroke="black" points="662.614,-36.5389 652.029,-36.0912 660.025,-43.0423 662.614,-36.5389"/>
<text text-anchor="middle" x="725.143" y="-57.8" font-family="Times New Roman,serif" font-size="14.00">is a</text>
</g>
<!-- n20 -->
<g id="node20" class="node"><title>n20</title>
<polygon fill="none" stroke="black" points="846.143,-36 751.143,-36 751.143,-0 846.143,-0 846.143,-36"/>
<text text-anchor="middle" x="798.643" y="-14.3" font-family="Times New Roman,serif" font-size="14.00">Postcondition</text>
</g>
<!-- n19&#45;&gt;n20 -->
<g id="edge16" class="edge"><title>n19&#45;&gt;n20</title>
<path fill="none" stroke="#00cd00" d="M798.643,-86.799C798.643,-75.1626 798.643,-59.5479 798.643,-46.2368"/>
<polygon fill="#00cd00" stroke="#00cd00" points="802.143,-46.1754 798.643,-36.1754 795.143,-46.1755 802.143,-46.1754"/>
<text text-anchor="middle" x="823.143" y="-57.8" font-family="Times New Roman,serif" font-size="14.00">identifier</text>
</g>
<!-- n21 -->
<g id="node21" class="node"><title>n21</title>
<ellipse fill="blue" stroke="black" cx="1532.64" cy="-366" rx="59.2899" ry="18"/>
<text text-anchor="middle" x="1532.64" y="-362.3" font-family="Times New Roman,serif" font-size="14.00" fill="white">performedBy</text>
</g>
<!-- n22 -->
<g id="node22" class="node"><title>n22</title>
<g id="a_node22"><a xlink:href="file:///C:/Users/200001866/Documents/GitHub/RACK/RACK-Ontology/Graphs/PROV-S.owl.svg" xlink:title="provs:wasAssociatedWith">
<polygon fill="none" stroke="#00cd00" points="1647.48,-271.544 1647.48,-286.456 1580.21,-297 1485.08,-297 1417.8,-286.456 1417.8,-271.544 1485.08,-261 1580.21,-261 1647.48,-271.544"/>
<text text-anchor="middle" x="1532.64" y="-275.3" font-family="Times New Roman,serif" font-size="14.00">provs:wasAssociatedWith</text>
</a>
</g>
</g>
<!-- n21&#45;&gt;n22 -->
<g id="edge18" class="edge"><title>n21&#45;&gt;n22</title>
<path fill="none" stroke="#00cd00" d="M1532.64,-347.799C1532.64,-336.163 1532.64,-320.548 1532.64,-307.237"/>
<polygon fill="#00cd00" stroke="#00cd00" points="1536.14,-307.175 1532.64,-297.175 1529.14,-307.175 1536.14,-307.175"/>
<text text-anchor="middle" x="1575.14" y="-318.8" font-family="Times New Roman,serif" font-size="14.00">subPropertyOf</text>
</g>
<!-- n23&#45;&gt;n7 -->
<g id="edge28" class="edge"><title>n23&#45;&gt;n7</title>
<path fill="none" stroke="#00cd00" d="M959.187,-262.73C995.73,-254.998 1033.62,-246.518 1041.64,-243 1057.04,-236.248 1072.56,-226.009 1085.23,-216.552"/>
<polygon fill="#00cd00" stroke="#00cd00" points="1087.72,-219.054 1093.51,-210.181 1083.45,-213.507 1087.72,-219.054"/>
<text text-anchor="middle" x="1090.14" y="-231.8" font-family="Times New Roman,serif" font-size="14.00">analyzes</text>
</g>
<!-- n23&#45;&gt;n11 -->
<g id="edge31" class="edge"><title>n23&#45;&gt;n11</title>
<path fill="none" stroke="#00cd00" d="M809.815,-268.558C786.412,-265.833 760.479,-263.046 736.643,-261 666.565,-254.984 487.466,-264.952 420.643,-243 409.049,-239.191 408.073,-234.336 397.643,-228 390.661,-223.758 383.151,-219.374 375.852,-215.203"/>
<polygon fill="#00cd00" stroke="#00cd00" points="377.201,-211.945 366.774,-210.061 373.751,-218.035 377.201,-211.945"/>
<text text-anchor="middle" x="436.143" y="-231.8" font-family="Times New Roman,serif" font-size="14.00">result</text>
</g>
<!-- n23&#45;&gt;n16 -->
<g id="edge25" class="edge"><title>n23&#45;&gt;n16</title>
<path fill="none" stroke="#00cd00" d="M959.246,-262.417C962.078,-261.922 964.884,-261.447 967.643,-261 1033.92,-250.254 1052.61,-259.7 1117.64,-243 1144.81,-236.023 1173.96,-224.491 1197.17,-214.259"/>
<polygon fill="#00cd00" stroke="#00cd00" points="1198.71,-217.404 1206.4,-210.119 1195.85,-211.017 1198.71,-217.404"/>
<text text-anchor="middle" x="1197.64" y="-231.8" font-family="Times New Roman,serif" font-size="14.00">producedBy</text>
</g>
<!-- n28 -->
<g id="node28" class="node"><title>n28</title>
<g id="a_node28"><a xlink:href="file:///C:/Users/200001866/Documents/GitHub/RACK/RACK-Ontology/Graphs/XMLSchema.svg" xlink:title="xsd:float">
<polygon fill="#00008b" stroke="black" points="814.143,-210 749.143,-210 749.143,-174 814.143,-174 814.143,-210"/>
<text text-anchor="middle" x="781.643" y="-188.3" font-family="Times New Roman,serif" font-size="14.00" fill="white">xsd:float</text>
</a>
</g>
</g>
<!-- n23&#45;&gt;n28 -->
<g id="edge26" class="edge"><title>n23&#45;&gt;n28</title>
<path fill="none" stroke="#00cd00" d="M863.799,-260.799C848.442,-248.126 827.367,-230.734 810.408,-216.738"/>
<polygon fill="#00cd00" stroke="#00cd00" points="812.396,-213.841 802.456,-210.175 807.941,-219.24 812.396,-213.841"/>
<text text-anchor="middle" x="857.143" y="-231.8" font-family="Times New Roman,serif" font-size="14.00">metric</text>
</g>
<!-- n24 -->
<g id="node24" class="node"><title>n24</title>
<polygon fill="none" stroke="red" points="963.143,-384 806.143,-384 806.143,-348 963.143,-348 963.143,-384"/>
<text text-anchor="middle" x="884.643" y="-362.3" font-family="Times New Roman,serif" font-size="14.00">result has at most 1 value</text>
</g>
<!-- n24&#45;&gt;n23 -->
<g id="edge20" class="edge"><title>n24&#45;&gt;n23</title>
<path fill="none" stroke="red" d="M884.643,-347.799C884.643,-336.163 884.643,-320.548 884.643,-307.237"/>
<polygon fill="red" stroke="red" points="888.143,-307.175 884.643,-297.175 881.143,-307.175 888.143,-307.175"/>
<text text-anchor="middle" x="907.143" y="-318.8" font-family="Times New Roman,serif" font-size="14.00">restricts</text>
</g>
<!-- n25 -->
<g id="node25" class="node"><title>n25</title>
<ellipse fill="blue" stroke="black" cx="474.643" cy="-279" rx="36.2938" ry="18"/>
<text text-anchor="middle" x="474.643" y="-275.3" font-family="Times New Roman,serif" font-size="14.00" fill="white">Passed</text>
</g>
<!-- n25&#45;&gt;n11 -->
<g id="edge22" class="edge"><title>n25&#45;&gt;n11</title>
<path fill="none" stroke="black" d="M447.285,-266.819C441.519,-264.702 435.428,-262.64 429.643,-261 389.138,-249.519 363.759,-275.205 336.643,-243 331.374,-236.742 329.848,-228.318 330.024,-220.17"/>
<polygon fill="black" stroke="black" points="333.511,-220.473 331.002,-210.18 326.544,-219.791 333.511,-220.473"/>
<text text-anchor="middle" x="346.143" y="-231.8" font-family="Times New Roman,serif" font-size="14.00">is a</text>
</g>
<!-- n25&#45;&gt;n25 -->
<g id="edge21" class="edge"><title>n25&#45;&gt;n25</title>
<path fill="none" stroke="#00cd00" d="M507.572,-286.867C519.398,-287.036 529.04,-284.414 529.04,-279 529.04,-275.278 524.483,-272.875 517.792,-271.792"/>
<polygon fill="#00cd00" stroke="#00cd00" points="517.777,-268.284 507.572,-271.133 517.326,-275.269 517.777,-268.284"/>
<text text-anchor="middle" x="553.54" y="-275.3" font-family="Times New Roman,serif" font-size="14.00">identifier</text>
</g>
<!-- n26 -->
<g id="node26" class="node"><title>n26</title>
<ellipse fill="blue" stroke="black" cx="962.643" cy="-105" rx="60.3893" ry="18"/>
<text text-anchor="middle" x="962.643" y="-101.3" font-family="Times New Roman,serif" font-size="14.00" fill="white">INVARIANT</text>
</g>
<!-- n26&#45;&gt;n3 -->
<g id="edge24" class="edge"><title>n26&#45;&gt;n3</title>
<path fill="none" stroke="black" d="M918.333,-92.6332C909.835,-90.6252 900.985,-88.6515 892.643,-87 841.033,-76.7825 826.597,-82.1024 775.643,-69 756.851,-64.1678 753.151,-59.8259 734.643,-54 717.724,-48.6741 699.419,-43.4719 681.985,-38.7759"/>
<polygon fill="black" stroke="black" points="682.401,-35.2648 671.837,-36.0723 680.599,-42.0288 682.401,-35.2648"/>
<text text-anchor="middle" x="785.143" y="-57.8" font-family="Times New Roman,serif" font-size="14.00">is a</text>
</g>
<!-- n27 -->
<g id="node27" class="node"><title>n27</title>
<polygon fill="none" stroke="black" points="995.143,-36 930.143,-36 930.143,-0 995.143,-0 995.143,-36"/>
<text text-anchor="middle" x="962.643" y="-14.3" font-family="Times New Roman,serif" font-size="14.00">Invariant</text>
</g>
<!-- n26&#45;&gt;n27 -->
<g id="edge23" class="edge"><title>n26&#45;&gt;n27</title>
<path fill="none" stroke="#00cd00" d="M962.643,-86.799C962.643,-75.1626 962.643,-59.5479 962.643,-46.2368"/>
<polygon fill="#00cd00" stroke="#00cd00" points="966.143,-46.1754 962.643,-36.1754 959.143,-46.1755 966.143,-46.1754"/>
<text text-anchor="middle" x="987.143" y="-57.8" font-family="Times New Roman,serif" font-size="14.00">identifier</text>
</g>
</g>
</svg>
