<?xml version="1.0" encoding="UTF-8" standalone="no"?>
<!DOCTYPE svg PUBLIC "-//W3C//DTD SVG 1.1//EN"
 "http://www.w3.org/Graphics/SVG/1.1/DTD/svg11.dtd">
<!-- Generated by graphviz version 2.38.0 (20140413.2041)
 -->
<!-- Title: gA Pages: 1 -->
<svg width="1436pt" height="502pt"
 viewBox="0.00 0.00 1436.17 502.00" xmlns="http://www.w3.org/2000/svg" xmlns:xlink="http://www.w3.org/1999/xlink">
<g id="graph0" class="graph" transform="scale(1 1) rotate(0) translate(4 498)">
<title>gA</title>
<polygon fill="white" stroke="none" points="-4,4 -4,-498 1432.17,-498 1432.17,4 -4,4"/>
<text text-anchor="middle" x="82" y="-478.8" font-family="Times New Roman,serif" font-size="14.00">Graph of Ontology File: A</text>
<!-- n1 -->
<g id="node1" class="node"><title>n1</title>
<ellipse fill="blue" stroke="black" cx="527.5" cy="-453" rx="78.7863" ry="18"/>
<text text-anchor="middle" x="527.5" y="-449.3" font-family="Times New Roman,serif" font-size="14.00" fill="white">PRECONDITION</text>
</g>
<!-- n2 -->
<g id="node2" class="node"><title>n2</title>
<polygon fill="#00008b" stroke="black" points="576,-384 349,-384 349,-348 576,-348 576,-384"/>
<text text-anchor="middle" x="462.5" y="-362.3" font-family="Times New Roman,serif" font-size="14.00" fill="white">ANALYSIS_ANNOTATION_TYPE</text>
</g>
<!-- n1&#45;&gt;n2 -->
<g id="edge1" class="edge"><title>n1&#45;&gt;n2</title>
<path fill="none" stroke="black" d="M514.658,-435.207C505.283,-422.946 492.411,-406.114 481.801,-392.239"/>
<polygon fill="black" stroke="black" points="484.393,-389.867 475.538,-384.049 478.832,-394.119 484.393,-389.867"/>
<text text-anchor="middle" x="509" y="-405.8" font-family="Times New Roman,serif" font-size="14.00">is a</text>
</g>
<!-- n3 -->
<g id="node3" class="node"><title>n3</title>
<ellipse fill="blue" stroke="black" cx="853.5" cy="-453" rx="40.8928" ry="18"/>
<text text-anchor="middle" x="853.5" y="-449.3" font-family="Times New Roman,serif" font-size="14.00" fill="white">analyzes</text>
</g>
<!-- n4 -->
<g id="node4" class="node"><title>n4</title>
<g id="a_node4"><a xlink:href="file:///C:/Sadl3Workspace4/RACK-Ontology-7-29/Graphs/PROV-S.owl.svg" xlink:title="provs:wasDerivedFrom">
<polygon fill="none" stroke="#00cd00" points="957.734,-358.544 957.734,-373.456 896.675,-384 810.325,-384 749.266,-373.456 749.266,-358.544 810.325,-348 896.675,-348 957.734,-358.544"/>
<text text-anchor="middle" x="853.5" y="-362.3" font-family="Times New Roman,serif" font-size="14.00">provs:wasDerivedFrom</text>
</a>
</g>
</g>
<!-- n3&#45;&gt;n4 -->
<g id="edge2" class="edge"><title>n3&#45;&gt;n4</title>
<path fill="none" stroke="#00cd00" d="M853.5,-434.799C853.5,-423.163 853.5,-407.548 853.5,-394.237"/>
<polygon fill="#00cd00" stroke="#00cd00" points="857,-394.175 853.5,-384.175 850,-394.175 857,-394.175"/>
<text text-anchor="middle" x="896" y="-405.8" font-family="Times New Roman,serif" font-size="14.00">subPropertyOf</text>
</g>
<!-- n5 -->
<g id="node5" class="node"><title>n5</title>
<g id="a_node5"><a xlink:href="file:///C:/Sadl3Workspace4/RACK-Ontology-7-29/Graphs/PROV-S.owl.svg" xlink:title="provs:ENTITY">
<polygon fill="#00008b" stroke="black" points="227.5,-384 125.5,-384 125.5,-348 227.5,-348 227.5,-384"/>
<text text-anchor="middle" x="176.5" y="-362.3" font-family="Times New Roman,serif" font-size="14.00" fill="white">provs:ENTITY</text>
</a>
</g>
</g>
<!-- n6 -->
<g id="node6" class="node"><title>n6</title>
<polygon fill="#00008b" stroke="black" points="240,-471 55,-471 55,-435 240,-435 240,-471"/>
<text text-anchor="middle" x="147.5" y="-449.3" font-family="Times New Roman,serif" font-size="14.00" fill="white">ANALYSIS_ANNOTATION</text>
</g>
<!-- n5&#45;&gt;n6 -->
<g id="edge3" class="edge"><title>n5&#45;&gt;n6</title>
<path fill="none" stroke="blue" stroke-dasharray="5,2" d="M186.652,-384.203C191.12,-394.103 194.37,-406.603 189.5,-417 187.688,-420.868 185.216,-424.458 182.371,-427.747"/>
<polygon fill="blue" stroke="blue" points="179.827,-425.341 175.192,-434.868 184.756,-430.311 179.827,-425.341"/>
<text text-anchor="middle" x="218.5" y="-405.8" font-family="Times New Roman,serif" font-size="14.00">subClass</text>
</g>
<!-- n11 -->
<g id="node11" class="node"><title>n11</title>
<polygon fill="#00008b" stroke="black" points="250.5,-297 102.5,-297 102.5,-261 250.5,-261 250.5,-297"/>
<text text-anchor="middle" x="176.5" y="-275.3" font-family="Times New Roman,serif" font-size="14.00" fill="white">ANALYSIS_REPORT</text>
</g>
<!-- n5&#45;&gt;n11 -->
<g id="edge6" class="edge"><title>n5&#45;&gt;n11</title>
<path fill="none" stroke="blue" stroke-dasharray="5,2" d="M153.443,-347.966C148.205,-342.832 143.35,-336.745 140.5,-330 136.831,-321.317 139.955,-312.687 145.628,-305.102"/>
<polygon fill="blue" stroke="blue" points="148.524,-307.115 152.585,-297.33 143.308,-302.447 148.524,-307.115"/>
<text text-anchor="middle" x="166.5" y="-318.8" font-family="Times New Roman,serif" font-size="14.00">subClass</text>
</g>
<!-- n6&#45;&gt;n2 -->
<g id="edge18" class="edge"><title>n6&#45;&gt;n2</title>
<path fill="none" stroke="#00cd00" d="M203.881,-434.949C237.376,-424.985 280.748,-412.37 319.5,-402 339.233,-396.72 360.583,-391.325 380.616,-386.402"/>
<polygon fill="#00cd00" stroke="#00cd00" points="381.45,-389.801 390.332,-384.026 379.787,-383.002 381.45,-389.801"/>
<text text-anchor="middle" x="363.5" y="-405.8" font-family="Times New Roman,serif" font-size="14.00">annotationType</text>
</g>
<!-- n6&#45;&gt;n5 -->
<g id="edge19" class="edge"><title>n6&#45;&gt;n5</title>
<path fill="none" stroke="#00cd00" d="M127.852,-434.932C119.212,-425.295 112.284,-413.011 118.5,-402 120.937,-397.683 124.145,-393.838 127.802,-390.427"/>
<polygon fill="#00cd00" stroke="#00cd00" points="130.199,-392.993 135.841,-384.025 125.838,-387.518 130.199,-392.993"/>
<text text-anchor="middle" x="152" y="-405.8" font-family="Times New Roman,serif" font-size="14.00">fromReport</text>
</g>
<!-- n21 -->
<g id="node21" class="node"><title>n21</title>
<g id="a_node21"><a xlink:href="file:///C:/Sadl3Workspace4/RACK-Ontology-7-29/Graphs/XMLSchema.svg" xlink:title="xsd:string">
<polygon fill="#00008b" stroke="black" points="71,-384 0,-384 0,-348 71,-348 71,-384"/>
<text text-anchor="middle" x="35.5" y="-362.3" font-family="Times New Roman,serif" font-size="14.00" fill="white">xsd:string</text>
</a>
</g>
</g>
<!-- n6&#45;&gt;n21 -->
<g id="edge14" class="edge"><title>n6&#45;&gt;n21</title>
<path fill="none" stroke="#00cd00" d="M74.1495,-434.841C64.9694,-430.237 56.3992,-424.4 49.5,-417 43.7082,-410.788 40.2833,-402.376 38.2676,-394.224"/>
<polygon fill="#00cd00" stroke="#00cd00" points="41.6759,-393.409 36.3959,-384.224 34.7954,-394.697 41.6759,-393.409"/>
<text text-anchor="middle" x="81" y="-405.8" font-family="Times New Roman,serif" font-size="14.00">description</text>
</g>
<!-- n7 -->
<g id="node7" class="node"><title>n7</title>
<polygon fill="#00008b" stroke="black" points="455.5,-210 309.5,-210 309.5,-174 455.5,-174 455.5,-210"/>
<text text-anchor="middle" x="382.5" y="-188.3" font-family="Times New Roman,serif" font-size="14.00" fill="white">ANALYSIS_RESULT</text>
</g>
<!-- n8 -->
<g id="node8" class="node"><title>n8</title>
<polygon fill="none" stroke="red" points="495.5,-123 269.5,-123 269.5,-87 495.5,-87 495.5,-123"/>
<text text-anchor="middle" x="382.5" y="-101.3" font-family="Times New Roman,serif" font-size="14.00">one of {Passed,Failed,Indeterminate}</text>
</g>
<!-- n7&#45;&gt;n8 -->
<g id="edge4" class="edge"><title>n7&#45;&gt;n8</title>
<path fill="none" stroke="red" d="M382.5,-173.799C382.5,-162.163 382.5,-146.548 382.5,-133.237"/>
<polygon fill="red" stroke="red" points="386,-133.175 382.5,-123.175 379,-133.175 386,-133.175"/>
<text text-anchor="middle" x="405" y="-144.8" font-family="Times New Roman,serif" font-size="14.00">same as</text>
</g>
<!-- n9 -->
<g id="node9" class="node"><title>n9</title>
<ellipse fill="blue" stroke="black" cx="1078.5" cy="-453" rx="55.7903" ry="18"/>
<text text-anchor="middle" x="1078.5" y="-449.3" font-family="Times New Roman,serif" font-size="14.00" fill="white">producedBy</text>
</g>
<!-- n10 -->
<g id="node10" class="node"><title>n10</title>
<g id="a_node10"><a xlink:href="file:///C:/Sadl3Workspace4/RACK-Ontology-7-29/Graphs/PROV-S.owl.svg" xlink:title="provs:wasGeneratedBy">
<polygon fill="none" stroke="#00cd00" points="1181.42,-358.544 1181.42,-373.456 1121.13,-384 1035.87,-384 975.58,-373.456 975.58,-358.544 1035.87,-348 1121.13,-348 1181.42,-358.544"/>
<text text-anchor="middle" x="1078.5" y="-362.3" font-family="Times New Roman,serif" font-size="14.00">provs:wasGeneratedBy</text>
</a>
</g>
</g>
<!-- n9&#45;&gt;n10 -->
<g id="edge5" class="edge"><title>n9&#45;&gt;n10</title>
<path fill="none" stroke="#00cd00" d="M1078.5,-434.799C1078.5,-423.163 1078.5,-407.548 1078.5,-394.237"/>
<polygon fill="#00cd00" stroke="#00cd00" points="1082,-394.175 1078.5,-384.175 1075,-394.175 1082,-394.175"/>
<text text-anchor="middle" x="1121" y="-405.8" font-family="Times New Roman,serif" font-size="14.00">subPropertyOf</text>
</g>
<!-- n11&#45;&gt;n5 -->
<g id="edge17" class="edge"><title>n11&#45;&gt;n5</title>
<path fill="none" stroke="#00cd00" d="M186.793,-297.364C191.226,-306.881 194.904,-318.957 192.5,-330 191.907,-332.721 191.084,-335.485 190.119,-338.204"/>
<polygon fill="#00cd00" stroke="#00cd00" points="186.776,-337.129 186.176,-347.706 193.242,-339.812 186.776,-337.129"/>
<text text-anchor="middle" x="217" y="-318.8" font-family="Times New Roman,serif" font-size="14.00">analyzes</text>
</g>
<!-- n11&#45;&gt;n7 -->
<g id="edge20" class="edge"><title>n11&#45;&gt;n7</title>
<path fill="none" stroke="#00cd00" d="M218.187,-260.799C250.963,-247.275 296.763,-228.377 331.685,-213.967"/>
<polygon fill="#00cd00" stroke="#00cd00" points="333.318,-217.08 341.227,-210.03 330.648,-210.609 333.318,-217.08"/>
<text text-anchor="middle" x="308" y="-231.8" font-family="Times New Roman,serif" font-size="14.00">result</text>
</g>
<!-- n13 -->
<g id="node13" class="node"><title>n13</title>
<g id="a_node13"><a xlink:href="file:///C:/Sadl3Workspace4/RACK-Ontology-7-29/Graphs/PROV-S.owl.svg" xlink:title="provs:ACTIVITY">
<polygon fill="#00008b" stroke="black" points="229.5,-210 111.5,-210 111.5,-174 229.5,-174 229.5,-210"/>
<text text-anchor="middle" x="170.5" y="-188.3" font-family="Times New Roman,serif" font-size="14.00" fill="white">provs:ACTIVITY</text>
</a>
</g>
</g>
<!-- n11&#45;&gt;n13 -->
<g id="edge15" class="edge"><title>n11&#45;&gt;n13</title>
<path fill="none" stroke="#00cd00" d="M173.64,-260.957C172.799,-255.263 171.976,-248.873 171.5,-243 170.906,-235.674 170.595,-227.725 170.446,-220.367"/>
<polygon fill="#00cd00" stroke="#00cd00" points="173.943,-220.109 170.327,-210.15 166.943,-220.19 173.943,-220.109"/>
<text text-anchor="middle" x="206.5" y="-231.8" font-family="Times New Roman,serif" font-size="14.00">producedBy</text>
</g>
<!-- n12 -->
<g id="node12" class="node"><title>n12</title>
<ellipse fill="blue" stroke="black" cx="311.5" cy="-279" rx="32.4942" ry="18"/>
<text text-anchor="middle" x="311.5" y="-275.3" font-family="Times New Roman,serif" font-size="14.00" fill="white">Failed</text>
</g>
<!-- n12&#45;&gt;n7 -->
<g id="edge7" class="edge"><title>n12&#45;&gt;n7</title>
<path fill="none" stroke="black" d="M324.522,-262.41C334.83,-250.07 349.432,-232.589 361.403,-218.257"/>
<polygon fill="black" stroke="black" points="364.37,-220.164 368.095,-210.246 358.998,-215.677 364.37,-220.164"/>
<text text-anchor="middle" x="361" y="-231.8" font-family="Times New Roman,serif" font-size="14.00">is a</text>
</g>
<!-- n14 -->
<g id="node14" class="node"><title>n14</title>
<polygon fill="#00008b" stroke="black" points="213,-123 128,-123 128,-87 213,-87 213,-123"/>
<text text-anchor="middle" x="170.5" y="-101.3" font-family="Times New Roman,serif" font-size="14.00" fill="white">ANALYSIS</text>
</g>
<!-- n13&#45;&gt;n14 -->
<g id="edge8" class="edge"><title>n13&#45;&gt;n14</title>
<path fill="none" stroke="blue" stroke-dasharray="5,2" d="M170.5,-173.799C170.5,-162.163 170.5,-146.548 170.5,-133.237"/>
<polygon fill="blue" stroke="blue" points="174,-133.175 170.5,-123.175 167,-133.175 174,-133.175"/>
<text text-anchor="middle" x="196.5" y="-144.8" font-family="Times New Roman,serif" font-size="14.00">subClass</text>
</g>
<!-- n22 -->
<g id="node22" class="node"><title>n22</title>
<g id="a_node22"><a xlink:href="file:///C:/Sadl3Workspace4/RACK-Ontology-7-29/Graphs/PROV-S.owl.svg" xlink:title="provs:AGENT">
<polygon fill="#00008b" stroke="black" points="220,-36 121,-36 121,-0 220,-0 220,-36"/>
<text text-anchor="middle" x="170.5" y="-14.3" font-family="Times New Roman,serif" font-size="14.00" fill="white">provs:AGENT</text>
</a>
</g>
</g>
<!-- n14&#45;&gt;n22 -->
<g id="edge16" class="edge"><title>n14&#45;&gt;n22</title>
<path fill="none" stroke="#00cd00" d="M170.5,-86.799C170.5,-75.1626 170.5,-59.5479 170.5,-46.2368"/>
<polygon fill="#00cd00" stroke="#00cd00" points="174,-46.1754 170.5,-36.1754 167,-46.1755 174,-46.1754"/>
<text text-anchor="middle" x="208" y="-57.8" font-family="Times New Roman,serif" font-size="14.00">performedBy</text>
</g>
<!-- n15 -->
<g id="node15" class="node"><title>n15</title>
<ellipse fill="blue" stroke="black" cx="421.5" cy="-279" rx="59.5901" ry="18"/>
<text text-anchor="middle" x="421.5" y="-275.3" font-family="Times New Roman,serif" font-size="14.00" fill="white">Indeterminate</text>
</g>
<!-- n15&#45;&gt;n7 -->
<g id="edge9" class="edge"><title>n15&#45;&gt;n7</title>
<path fill="none" stroke="black" d="M413.608,-260.799C408.163,-248.932 400.82,-232.928 394.635,-219.449"/>
<polygon fill="black" stroke="black" points="397.732,-217.805 390.38,-210.175 391.37,-220.724 397.732,-217.805"/>
<text text-anchor="middle" x="414" y="-231.8" font-family="Times New Roman,serif" font-size="14.00">is a</text>
</g>
<!-- n16 -->
<g id="node16" class="node"><title>n16</title>
<ellipse fill="blue" stroke="black" cx="709.5" cy="-453" rx="85.2851" ry="18"/>
<text text-anchor="middle" x="709.5" y="-449.3" font-family="Times New Roman,serif" font-size="14.00" fill="white">POSTCONDITION</text>
</g>
<!-- n16&#45;&gt;n2 -->
<g id="edge10" class="edge"><title>n16&#45;&gt;n2</title>
<path fill="none" stroke="black" d="M667.039,-437.388C626.946,-423.591 566.453,-402.773 521.644,-387.353"/>
<polygon fill="black" stroke="black" points="522.643,-383.995 512.048,-384.051 520.365,-390.615 522.643,-383.995"/>
<text text-anchor="middle" x="611" y="-405.8" font-family="Times New Roman,serif" font-size="14.00">is a</text>
</g>
<!-- n17 -->
<g id="node17" class="node"><title>n17</title>
<ellipse fill="blue" stroke="black" cx="1313.5" cy="-453" rx="59.2899" ry="18"/>
<text text-anchor="middle" x="1313.5" y="-449.3" font-family="Times New Roman,serif" font-size="14.00" fill="white">performedBy</text>
</g>
<!-- n18 -->
<g id="node18" class="node"><title>n18</title>
<g id="a_node18"><a xlink:href="file:///C:/Sadl3Workspace4/RACK-Ontology-7-29/Graphs/PROV-S.owl.svg" xlink:title="provs:wasAssociatedWith">
<polygon fill="none" stroke="#00cd00" points="1428.34,-358.544 1428.34,-373.456 1361.07,-384 1265.93,-384 1198.66,-373.456 1198.66,-358.544 1265.93,-348 1361.07,-348 1428.34,-358.544"/>
<text text-anchor="middle" x="1313.5" y="-362.3" font-family="Times New Roman,serif" font-size="14.00">provs:wasAssociatedWith</text>
</a>
</g>
</g>
<!-- n17&#45;&gt;n18 -->
<g id="edge11" class="edge"><title>n17&#45;&gt;n18</title>
<path fill="none" stroke="#00cd00" d="M1313.5,-434.799C1313.5,-423.163 1313.5,-407.548 1313.5,-394.237"/>
<polygon fill="#00cd00" stroke="#00cd00" points="1317,-394.175 1313.5,-384.175 1310,-394.175 1317,-394.175"/>
<text text-anchor="middle" x="1356" y="-405.8" font-family="Times New Roman,serif" font-size="14.00">subPropertyOf</text>
</g>
<!-- n19 -->
<g id="node19" class="node"><title>n19</title>
<ellipse fill="blue" stroke="black" cx="535.5" cy="-279" rx="36.2938" ry="18"/>
<text text-anchor="middle" x="535.5" y="-275.3" font-family="Times New Roman,serif" font-size="14.00" fill="white">Passed</text>
</g>
<!-- n19&#45;&gt;n7 -->
<g id="edge12" class="edge"><title>n19&#45;&gt;n7</title>
<path fill="none" stroke="black" d="M512.263,-265.09C488.426,-251.848 450.893,-230.996 422.312,-215.118"/>
<polygon fill="black" stroke="black" points="423.817,-211.95 413.376,-210.153 420.417,-218.069 423.817,-211.95"/>
<text text-anchor="middle" x="478" y="-231.8" font-family="Times New Roman,serif" font-size="14.00">is a</text>
</g>
<!-- n20 -->
<g id="node20" class="node"><title>n20</title>
<ellipse fill="blue" stroke="black" cx="370.5" cy="-453" rx="60.3893" ry="18"/>
<text text-anchor="middle" x="370.5" y="-449.3" font-family="Times New Roman,serif" font-size="14.00" fill="white">INVARIANT</text>
</g>
<!-- n20&#45;&gt;n2 -->
<g id="edge13" class="edge"><title>n20&#45;&gt;n2</title>
<path fill="none" stroke="black" d="M388.239,-435.611C401.845,-423.04 420.837,-405.493 436.208,-391.291"/>
<polygon fill="black" stroke="black" points="438.899,-393.571 443.869,-384.214 434.148,-388.429 438.899,-393.571"/>
<text text-anchor="middle" x="432" y="-405.8" font-family="Times New Roman,serif" font-size="14.00">is a</text>
</g>
</g>
</svg>
