<?xml version="1.0" encoding="UTF-8" standalone="no"?>
<!DOCTYPE svg PUBLIC "-//W3C//DTD SVG 1.1//EN"
 "http://www.w3.org/Graphics/SVG/1.1/DTD/svg11.dtd">
<!-- Generated by graphviz version 2.38.0 (20140413.2041)
 -->
<!-- Title: gA Pages: 1 -->
<svg width="1253pt" height="241pt"
 viewBox="0.00 0.00 1252.79 241.00" xmlns="http://www.w3.org/2000/svg" xmlns:xlink="http://www.w3.org/1999/xlink">
<g id="graph0" class="graph" transform="scale(1 1) rotate(0) translate(4 237)">
<title>gA</title>
<polygon fill="white" stroke="none" points="-4,4 -4,-237 1248.79,-237 1248.79,4 -4,4"/>
<text text-anchor="middle" x="82" y="-217.8" font-family="Times New Roman,serif" font-size="14.00">Graph of Ontology File: A</text>
<!-- n1 -->
<g id="node1" class="node"><title>n1</title>
<ellipse fill="blue" stroke="black" cx="104.117" cy="-192" rx="40.8928" ry="18"/>
<text text-anchor="middle" x="104.117" y="-188.3" font-family="Times New Roman,serif" font-size="14.00" fill="white">analyzes</text>
</g>
<!-- n2 -->
<g id="node2" class="node"><title>n2</title>
<g id="a_node2"><a xlink:href="file:///C:/sadl/git/RACK/RACK-Ontology/Graphs/PROV-S.owl.svg" xlink:title="provs:wasDerivedFrom">
<polygon fill="none" stroke="#00cd00" points="208.351,-97.5442 208.351,-112.456 147.292,-123 60.9418,-123 -0.117023,-112.456 -0.117023,-97.5442 60.9418,-87 147.292,-87 208.351,-97.5442"/>
<text text-anchor="middle" x="104.117" y="-101.3" font-family="Times New Roman,serif" font-size="14.00">provs:wasDerivedFrom</text>
</a>
</g>
</g>
<!-- n1&#45;&gt;n2 -->
<g id="edge1" class="edge"><title>n1&#45;&gt;n2</title>
<path fill="none" stroke="#00cd00" d="M104.117,-173.799C104.117,-162.163 104.117,-146.548 104.117,-133.237"/>
<polygon fill="#00cd00" stroke="#00cd00" points="107.617,-133.175 104.117,-123.175 100.617,-133.175 107.617,-133.175"/>
<text text-anchor="middle" x="146.617" y="-144.8" font-family="Times New Roman,serif" font-size="14.00">subPropertyOf</text>
</g>
<!-- n3 -->
<g id="node3" class="node"><title>n3</title>
<ellipse fill="blue" stroke="black" cx="329.117" cy="-192" rx="55.7903" ry="18"/>
<text text-anchor="middle" x="329.117" y="-188.3" font-family="Times New Roman,serif" font-size="14.00" fill="white">producedBy</text>
</g>
<!-- n4 -->
<g id="node4" class="node"><title>n4</title>
<g id="a_node4"><a xlink:href="file:///C:/sadl/git/RACK/RACK-Ontology/Graphs/PROV-S.owl.svg" xlink:title="provs:wasGeneratedBy">
<polygon fill="none" stroke="#00cd00" points="432.037,-97.5442 432.037,-112.456 371.748,-123 286.486,-123 226.197,-112.456 226.197,-97.5442 286.486,-87 371.748,-87 432.037,-97.5442"/>
<text text-anchor="middle" x="329.117" y="-101.3" font-family="Times New Roman,serif" font-size="14.00">provs:wasGeneratedBy</text>
</a>
</g>
</g>
<!-- n3&#45;&gt;n4 -->
<g id="edge2" class="edge"><title>n3&#45;&gt;n4</title>
<path fill="none" stroke="#00cd00" d="M329.117,-173.799C329.117,-162.163 329.117,-146.548 329.117,-133.237"/>
<polygon fill="#00cd00" stroke="#00cd00" points="332.617,-133.175 329.117,-123.175 325.617,-133.175 332.617,-133.175"/>
<text text-anchor="middle" x="371.617" y="-144.8" font-family="Times New Roman,serif" font-size="14.00">subPropertyOf</text>
</g>
<!-- n5 -->
<g id="node5" class="node"><title>n5</title>
<g id="a_node5"><a xlink:href="file:///C:/sadl/git/RACK/RACK-Ontology/Graphs/PROV-S.owl.svg" xlink:title="provs:ACTIVITY">
<polygon fill="#00008b" stroke="black" points="521.117,-210 403.117,-210 403.117,-174 521.117,-174 521.117,-210"/>
<text text-anchor="middle" x="462.117" y="-188.3" font-family="Times New Roman,serif" font-size="14.00" fill="white">provs:ACTIVITY</text>
</a>
</g>
</g>
<!-- n6 -->
<g id="node6" class="node"><title>n6</title>
<polygon fill="#00008b" stroke="black" points="557.617,-123 472.617,-123 472.617,-87 557.617,-87 557.617,-123"/>
<text text-anchor="middle" x="515.117" y="-101.3" font-family="Times New Roman,serif" font-size="14.00" fill="white">ANALYSIS</text>
</g>
<!-- n5&#45;&gt;n6 -->
<g id="edge3" class="edge"><title>n5&#45;&gt;n6</title>
<path fill="none" stroke="blue" stroke-dasharray="5,2" d="M458.678,-173.788C457.54,-163.649 457.714,-150.91 463.117,-141 465.437,-136.745 468.523,-132.912 472.039,-129.482"/>
<polygon fill="blue" stroke="blue" points="474.346,-132.114 479.751,-123.002 469.843,-126.755 474.346,-132.114"/>
<text text-anchor="middle" x="489.117" y="-144.8" font-family="Times New Roman,serif" font-size="14.00">subClass</text>
</g>
<!-- n16 -->
<g id="node16" class="node"><title>n16</title>
<g id="a_node16"><a xlink:href="file:///C:/sadl/git/RACK/RACK-Ontology/Graphs/PROV-S.owl.svg" xlink:title="provs:AGENT">
<polygon fill="#00008b" stroke="black" points="564.617,-36 465.617,-36 465.617,-0 564.617,-0 564.617,-36"/>
<text text-anchor="middle" x="515.117" y="-14.3" font-family="Times New Roman,serif" font-size="14.00" fill="white">provs:AGENT</text>
</a>
</g>
</g>
<!-- n6&#45;&gt;n16 -->
<g id="edge11" class="edge"><title>n6&#45;&gt;n16</title>
<path fill="none" stroke="#00cd00" d="M515.117,-86.799C515.117,-75.1626 515.117,-59.5479 515.117,-46.2368"/>
<polygon fill="#00cd00" stroke="#00cd00" points="518.617,-46.1754 515.117,-36.1754 511.617,-46.1755 518.617,-46.1754"/>
<text text-anchor="middle" x="552.617" y="-57.8" font-family="Times New Roman,serif" font-size="14.00">performedBy</text>
</g>
<!-- n7 -->
<g id="node7" class="node"><title>n7</title>
<ellipse fill="blue" stroke="black" cx="792.117" cy="-192" rx="32.4942" ry="18"/>
<text text-anchor="middle" x="792.117" y="-188.3" font-family="Times New Roman,serif" font-size="14.00" fill="white">Failed</text>
</g>
<!-- n8 -->
<g id="node8" class="node"><title>n8</title>
<polygon fill="#00008b" stroke="black" points="918.117,-123 772.117,-123 772.117,-87 918.117,-87 918.117,-123"/>
<text text-anchor="middle" x="845.117" y="-101.3" font-family="Times New Roman,serif" font-size="14.00" fill="white">ANALYSIS_RESULT</text>
</g>
<!-- n7&#45;&gt;n8 -->
<g id="edge4" class="edge"><title>n7&#45;&gt;n8</title>
<path fill="none" stroke="black" d="M802.336,-174.611C809.886,-162.502 820.316,-145.774 828.987,-131.868"/>
<polygon fill="black" stroke="black" points="832.062,-133.551 834.384,-123.214 826.123,-129.848 832.062,-133.551"/>
<text text-anchor="middle" x="831.617" y="-144.8" font-family="Times New Roman,serif" font-size="14.00">is a</text>
</g>
<!-- n9 -->
<g id="node9" class="node"><title>n9</title>
<polygon fill="none" stroke="red" points="880.117,-36 810.117,-36 810.117,-0 880.117,-0 880.117,-36"/>
<text text-anchor="middle" x="845.117" y="-14.3" font-family="Times New Roman,serif" font-size="14.00">one of {}</text>
</g>
<!-- n8&#45;&gt;n9 -->
<g id="edge5" class="edge"><title>n8&#45;&gt;n9</title>
<path fill="none" stroke="red" d="M845.117,-86.799C845.117,-75.1626 845.117,-59.5479 845.117,-46.2368"/>
<polygon fill="red" stroke="red" points="848.617,-46.1754 845.117,-36.1754 841.617,-46.1755 848.617,-46.1754"/>
<text text-anchor="middle" x="867.617" y="-57.8" font-family="Times New Roman,serif" font-size="14.00">same as</text>
</g>
<!-- n10 -->
<g id="node10" class="node"><title>n10</title>
<ellipse fill="blue" stroke="black" cx="902.117" cy="-192" rx="59.5901" ry="18"/>
<text text-anchor="middle" x="902.117" y="-188.3" font-family="Times New Roman,serif" font-size="14.00" fill="white">Indeterminate</text>
</g>
<!-- n10&#45;&gt;n8 -->
<g id="edge6" class="edge"><title>n10&#45;&gt;n8</title>
<path fill="none" stroke="black" d="M890.856,-174.207C882.711,-162.062 871.559,-145.431 862.306,-131.633"/>
<polygon fill="black" stroke="black" points="865.026,-129.405 856.55,-123.049 859.213,-133.304 865.026,-129.405"/>
<text text-anchor="middle" x="886.617" y="-144.8" font-family="Times New Roman,serif" font-size="14.00">is a</text>
</g>
<!-- n11 -->
<g id="node11" class="node"><title>n11</title>
<ellipse fill="blue" stroke="black" cx="1016.12" cy="-192" rx="36.2938" ry="18"/>
<text text-anchor="middle" x="1016.12" y="-188.3" font-family="Times New Roman,serif" font-size="14.00" fill="white">Passed</text>
</g>
<!-- n11&#45;&gt;n8 -->
<g id="edge7" class="edge"><title>n11&#45;&gt;n8</title>
<path fill="none" stroke="black" d="M991.252,-178.64C964.442,-165.314 921.245,-143.841 888.755,-127.691"/>
<polygon fill="black" stroke="black" points="889.985,-124.394 879.472,-123.077 886.869,-130.663 889.985,-124.394"/>
<text text-anchor="middle" x="950.617" y="-144.8" font-family="Times New Roman,serif" font-size="14.00">is a</text>
</g>
<!-- n12 -->
<g id="node12" class="node"><title>n12</title>
<ellipse fill="blue" stroke="black" cx="1130.12" cy="-192" rx="59.2899" ry="18"/>
<text text-anchor="middle" x="1130.12" y="-188.3" font-family="Times New Roman,serif" font-size="14.00" fill="white">performedBy</text>
</g>
<!-- n13 -->
<g id="node13" class="node"><title>n13</title>
<g id="a_node13"><a xlink:href="file:///C:/sadl/git/RACK/RACK-Ontology/Graphs/PROV-S.owl.svg" xlink:title="provs:wasAssociatedWith">
<polygon fill="none" stroke="#00cd00" points="1244.96,-97.5442 1244.96,-112.456 1177.68,-123 1082.55,-123 1015.28,-112.456 1015.28,-97.5442 1082.55,-87 1177.68,-87 1244.96,-97.5442"/>
<text text-anchor="middle" x="1130.12" y="-101.3" font-family="Times New Roman,serif" font-size="14.00">provs:wasAssociatedWith</text>
</a>
</g>
</g>
<!-- n12&#45;&gt;n13 -->
<g id="edge8" class="edge"><title>n12&#45;&gt;n13</title>
<path fill="none" stroke="#00cd00" d="M1130.12,-173.799C1130.12,-162.163 1130.12,-146.548 1130.12,-133.237"/>
<polygon fill="#00cd00" stroke="#00cd00" points="1133.62,-133.175 1130.12,-123.175 1126.62,-133.175 1133.62,-133.175"/>
<text text-anchor="middle" x="1172.62" y="-144.8" font-family="Times New Roman,serif" font-size="14.00">subPropertyOf</text>
</g>
<!-- n14 -->
<g id="node14" class="node"><title>n14</title>
<g id="a_node14"><a xlink:href="file:///C:/sadl/git/RACK/RACK-Ontology/Graphs/PROV-S.owl.svg" xlink:title="provs:ENTITY">
<polygon fill="#00008b" stroke="black" points="735.117,-123 633.117,-123 633.117,-87 735.117,-87 735.117,-123"/>
<text text-anchor="middle" x="684.117" y="-101.3" font-family="Times New Roman,serif" font-size="14.00" fill="white">provs:ENTITY</text>
</a>
</g>
</g>
<!-- n15 -->
<g id="node15" class="node"><title>n15</title>
<polygon fill="#00008b" stroke="black" points="723.117,-210 575.117,-210 575.117,-174 723.117,-174 723.117,-210"/>
<text text-anchor="middle" x="649.117" y="-188.3" font-family="Times New Roman,serif" font-size="14.00" fill="white">ANALYSIS_REPORT</text>
</g>
<!-- n14&#45;&gt;n15 -->
<g id="edge9" class="edge"><title>n14&#45;&gt;n15</title>
<path fill="none" stroke="blue" stroke-dasharray="5,2" d="M684.429,-123.288C684.033,-133.217 682.533,-145.717 678.117,-156 676.704,-159.29 674.881,-162.513 672.837,-165.59"/>
<polygon fill="blue" stroke="blue" points="669.869,-163.713 666.652,-173.808 675.462,-167.923 669.869,-163.713"/>
<text text-anchor="middle" x="709.117" y="-144.8" font-family="Times New Roman,serif" font-size="14.00">subClass</text>
</g>
<!-- n15&#45;&gt;n6 -->
<g id="edge10" class="edge"><title>n15&#45;&gt;n6</title>
<path fill="none" stroke="#00cd00" d="M583.815,-173.94C572.282,-169.229 560.863,-163.331 551.117,-156 542.615,-149.605 535.286,-140.633 529.501,-132.051"/>
<polygon fill="#00cd00" stroke="#00cd00" points="532.332,-129.978 524.048,-123.373 526.405,-133.702 532.332,-129.978"/>
<text text-anchor="middle" x="586.117" y="-144.8" font-family="Times New Roman,serif" font-size="14.00">producedBy</text>
</g>
<!-- n15&#45;&gt;n8 -->
<g id="edge13" class="edge"><title>n15&#45;&gt;n8</title>
<path fill="none" stroke="#00cd00" d="M694.691,-173.987C708.997,-168.457 724.792,-162.155 739.117,-156 759.842,-147.095 782.495,-136.526 801.52,-127.405"/>
<polygon fill="#00cd00" stroke="#00cd00" points="803.054,-130.55 810.544,-123.056 800.016,-124.244 803.054,-130.55"/>
<text text-anchor="middle" x="787.617" y="-144.8" font-family="Times New Roman,serif" font-size="14.00">result</text>
</g>
<!-- n15&#45;&gt;n14 -->
<g id="edge12" class="edge"><title>n15&#45;&gt;n14</title>
<path fill="none" stroke="#00cd00" d="M633.672,-173.945C626.69,-164.094 621.19,-151.594 627.117,-141 629.507,-136.728 632.656,-132.913 636.248,-129.522"/>
<polygon fill="#00cd00" stroke="#00cd00" points="638.565,-132.15 644.145,-123.144 634.166,-126.705 638.565,-132.15"/>
<text text-anchor="middle" x="650.617" y="-144.8" font-family="Times New Roman,serif" font-size="14.00">analyzes</text>
</g>
</g>
</svg>
