<?xml version="1.0" encoding="UTF-8" standalone="no"?>
<!DOCTYPE svg PUBLIC "-//W3C//DTD SVG 1.1//EN"
 "http://www.w3.org/Graphics/SVG/1.1/DTD/svg11.dtd">
<!-- Generated by graphviz version 2.38.0 (20140413.2041)
 -->
<!-- Title: gA Pages: 1 -->
<svg width="1363pt" height="241pt"
 viewBox="0.00 0.00 1362.79 241.00" xmlns="http://www.w3.org/2000/svg" xmlns:xlink="http://www.w3.org/1999/xlink">
<g id="graph0" class="graph" transform="scale(1 1) rotate(0) translate(4 237)">
<title>gA</title>
<polygon fill="white" stroke="none" points="-4,4 -4,-237 1358.79,-237 1358.79,4 -4,4"/>
<text text-anchor="middle" x="82" y="-217.8" font-family="Times New Roman,serif" font-size="14.00">Graph of Ontology File: A</text>
<!-- n1 -->
<g id="node1" class="node"><title>n1</title>
<ellipse fill="blue" stroke="black" cx="104.117" cy="-192" rx="40.8928" ry="18"/>
<text text-anchor="middle" x="104.117" y="-188.3" font-family="Times New Roman,serif" font-size="14.00" fill="white">analyzes</text>
</g>
<!-- n2 -->
<g id="node2" class="node"><title>n2</title>
<g id="a_node2"><a xlink:href="file:///C:/sadl/git/RACK/RACK-Ontology/Graphs/PROV-S.owl.svg" xlink:title="provs:wasDerivedFrom">
<polygon fill="none" stroke="#00cd00" points="208.351,-97.5442 208.351,-112.456 147.292,-123 60.9418,-123 -0.117023,-112.456 -0.117023,-97.5442 60.9418,-87 147.292,-87 208.351,-97.5442"/>
<text text-anchor="middle" x="104.117" y="-101.3" font-family="Times New Roman,serif" font-size="14.00">provs:wasDerivedFrom</text>
</a>
</g>
</g>
<!-- n1&#45;&gt;n2 -->
<g id="edge1" class="edge"><title>n1&#45;&gt;n2</title>
<path fill="none" stroke="#00cd00" d="M104.117,-173.799C104.117,-162.163 104.117,-146.548 104.117,-133.237"/>
<polygon fill="#00cd00" stroke="#00cd00" points="107.617,-133.175 104.117,-123.175 100.617,-133.175 107.617,-133.175"/>
<text text-anchor="middle" x="146.617" y="-144.8" font-family="Times New Roman,serif" font-size="14.00">subPropertyOf</text>
</g>
<!-- n3 -->
<g id="node3" class="node"><title>n3</title>
<ellipse fill="blue" stroke="black" cx="329.117" cy="-192" rx="55.7903" ry="18"/>
<text text-anchor="middle" x="329.117" y="-188.3" font-family="Times New Roman,serif" font-size="14.00" fill="white">producedBy</text>
</g>
<!-- n4 -->
<g id="node4" class="node"><title>n4</title>
<g id="a_node4"><a xlink:href="file:///C:/sadl/git/RACK/RACK-Ontology/Graphs/PROV-S.owl.svg" xlink:title="provs:wasGeneratedBy">
<polygon fill="none" stroke="#00cd00" points="432.037,-97.5442 432.037,-112.456 371.748,-123 286.486,-123 226.197,-112.456 226.197,-97.5442 286.486,-87 371.748,-87 432.037,-97.5442"/>
<text text-anchor="middle" x="329.117" y="-101.3" font-family="Times New Roman,serif" font-size="14.00">provs:wasGeneratedBy</text>
</a>
</g>
</g>
<!-- n3&#45;&gt;n4 -->
<g id="edge2" class="edge"><title>n3&#45;&gt;n4</title>
<path fill="none" stroke="#00cd00" d="M329.117,-173.799C329.117,-162.163 329.117,-146.548 329.117,-133.237"/>
<polygon fill="#00cd00" stroke="#00cd00" points="332.617,-133.175 329.117,-123.175 325.617,-133.175 332.617,-133.175"/>
<text text-anchor="middle" x="371.617" y="-144.8" font-family="Times New Roman,serif" font-size="14.00">subPropertyOf</text>
</g>
<!-- n5 -->
<g id="node5" class="node"><title>n5</title>
<g id="a_node5"><a xlink:href="file:///C:/sadl/git/RACK/RACK-Ontology/Graphs/PROV-S.owl.svg" xlink:title="provs:ACTIVITY">
<polygon fill="#00008b" stroke="black" points="521.117,-210 403.117,-210 403.117,-174 521.117,-174 521.117,-210"/>
<text text-anchor="middle" x="462.117" y="-188.3" font-family="Times New Roman,serif" font-size="14.00" fill="white">provs:ACTIVITY</text>
</a>
</g>
</g>
<!-- n6 -->
<g id="node6" class="node"><title>n6</title>
<polygon fill="#00008b" stroke="black" points="557.617,-123 472.617,-123 472.617,-87 557.617,-87 557.617,-123"/>
<text text-anchor="middle" x="515.117" y="-101.3" font-family="Times New Roman,serif" font-size="14.00" fill="white">ANALYSIS</text>
</g>
<!-- n5&#45;&gt;n6 -->
<g id="edge3" class="edge"><title>n5&#45;&gt;n6</title>
<path fill="none" stroke="blue" stroke-dasharray="5,2" d="M458.678,-173.788C457.54,-163.649 457.714,-150.91 463.117,-141 465.437,-136.745 468.523,-132.912 472.039,-129.482"/>
<polygon fill="blue" stroke="blue" points="474.346,-132.114 479.751,-123.002 469.843,-126.755 474.346,-132.114"/>
<text text-anchor="middle" x="489.117" y="-144.8" font-family="Times New Roman,serif" font-size="14.00">subClass</text>
</g>
<!-- n17 -->
<g id="node17" class="node"><title>n17</title>
<g id="a_node17"><a xlink:href="file:///C:/sadl/git/RACK/RACK-Ontology/Graphs/PROV-S.owl.svg" xlink:title="provs:AGENT">
<polygon fill="#00008b" stroke="black" points="564.617,-36 465.617,-36 465.617,-0 564.617,-0 564.617,-36"/>
<text text-anchor="middle" x="515.117" y="-14.3" font-family="Times New Roman,serif" font-size="14.00" fill="white">provs:AGENT</text>
</a>
</g>
</g>
<!-- n6&#45;&gt;n17 -->
<g id="edge12" class="edge"><title>n6&#45;&gt;n17</title>
<path fill="none" stroke="#00cd00" d="M515.117,-86.799C515.117,-75.1626 515.117,-59.5479 515.117,-46.2368"/>
<polygon fill="#00cd00" stroke="#00cd00" points="518.617,-46.1754 515.117,-36.1754 511.617,-46.1755 518.617,-46.1754"/>
<text text-anchor="middle" x="552.617" y="-57.8" font-family="Times New Roman,serif" font-size="14.00">performedBy</text>
</g>
<!-- n7 -->
<g id="node7" class="node"><title>n7</title>
<ellipse fill="blue" stroke="black" cx="902.117" cy="-192" rx="32.4942" ry="18"/>
<text text-anchor="middle" x="902.117" y="-188.3" font-family="Times New Roman,serif" font-size="14.00" fill="white">Failed</text>
</g>
<!-- n8 -->
<g id="node8" class="node"><title>n8</title>
<polygon fill="#00008b" stroke="black" points="1047.12,-123 901.117,-123 901.117,-87 1047.12,-87 1047.12,-123"/>
<text text-anchor="middle" x="974.117" y="-101.3" font-family="Times New Roman,serif" font-size="14.00" fill="white">ANALYSIS_RESULT</text>
</g>
<!-- n7&#45;&gt;n8 -->
<g id="edge4" class="edge"><title>n7&#45;&gt;n8</title>
<path fill="none" stroke="black" d="M915.323,-175.41C925.775,-163.07 940.583,-145.589 952.723,-131.257"/>
<polygon fill="black" stroke="black" points="955.716,-133.139 959.509,-123.246 950.375,-128.614 955.716,-133.139"/>
<text text-anchor="middle" x="952.617" y="-144.8" font-family="Times New Roman,serif" font-size="14.00">is a</text>
</g>
<!-- n9 -->
<g id="node9" class="node"><title>n9</title>
<polygon fill="none" stroke="red" points="1009.12,-36 939.117,-36 939.117,-0 1009.12,-0 1009.12,-36"/>
<text text-anchor="middle" x="974.117" y="-14.3" font-family="Times New Roman,serif" font-size="14.00">one of {}</text>
</g>
<!-- n8&#45;&gt;n9 -->
<g id="edge5" class="edge"><title>n8&#45;&gt;n9</title>
<path fill="none" stroke="red" d="M974.117,-86.799C974.117,-75.1626 974.117,-59.5479 974.117,-46.2368"/>
<polygon fill="red" stroke="red" points="977.617,-46.1754 974.117,-36.1754 970.617,-46.1755 977.617,-46.1754"/>
<text text-anchor="middle" x="996.617" y="-57.8" font-family="Times New Roman,serif" font-size="14.00">same as</text>
</g>
<!-- n10 -->
<g id="node10" class="node"><title>n10</title>
<ellipse fill="blue" stroke="black" cx="1012.12" cy="-192" rx="59.5901" ry="18"/>
<text text-anchor="middle" x="1012.12" y="-188.3" font-family="Times New Roman,serif" font-size="14.00" fill="white">Indeterminate</text>
</g>
<!-- n10&#45;&gt;n8 -->
<g id="edge6" class="edge"><title>n10&#45;&gt;n8</title>
<path fill="none" stroke="black" d="M1004.43,-173.799C999.122,-161.932 991.967,-145.928 985.941,-132.449"/>
<polygon fill="black" stroke="black" points="989.072,-130.876 981.795,-123.175 982.681,-133.733 989.072,-130.876"/>
<text text-anchor="middle" x="1005.62" y="-144.8" font-family="Times New Roman,serif" font-size="14.00">is a</text>
</g>
<!-- n11 -->
<g id="node11" class="node"><title>n11</title>
<ellipse fill="blue" stroke="black" cx="1126.12" cy="-192" rx="36.2938" ry="18"/>
<text text-anchor="middle" x="1126.12" y="-188.3" font-family="Times New Roman,serif" font-size="14.00" fill="white">Passed</text>
</g>
<!-- n11&#45;&gt;n8 -->
<g id="edge7" class="edge"><title>n11&#45;&gt;n8</title>
<path fill="none" stroke="black" d="M1102.7,-177.905C1078.95,-164.626 1041.78,-143.836 1013.49,-128.02"/>
<polygon fill="black" stroke="black" points="1015.09,-124.901 1004.65,-123.075 1011.67,-131.01 1015.09,-124.901"/>
<text text-anchor="middle" x="1069.62" y="-144.8" font-family="Times New Roman,serif" font-size="14.00">is a</text>
</g>
<!-- n12 -->
<g id="node12" class="node"><title>n12</title>
<ellipse fill="blue" stroke="black" cx="1240.12" cy="-192" rx="59.2899" ry="18"/>
<text text-anchor="middle" x="1240.12" y="-188.3" font-family="Times New Roman,serif" font-size="14.00" fill="white">performedBy</text>
</g>
<!-- n13 -->
<g id="node13" class="node"><title>n13</title>
<g id="a_node13"><a xlink:href="file:///C:/sadl/git/RACK/RACK-Ontology/Graphs/PROV-S.owl.svg" xlink:title="provs:wasAssociatedWith">
<polygon fill="none" stroke="#00cd00" points="1354.96,-97.5442 1354.96,-112.456 1287.68,-123 1192.55,-123 1125.28,-112.456 1125.28,-97.5442 1192.55,-87 1287.68,-87 1354.96,-97.5442"/>
<text text-anchor="middle" x="1240.12" y="-101.3" font-family="Times New Roman,serif" font-size="14.00">provs:wasAssociatedWith</text>
</a>
</g>
</g>
<!-- n12&#45;&gt;n13 -->
<g id="edge8" class="edge"><title>n12&#45;&gt;n13</title>
<path fill="none" stroke="#00cd00" d="M1240.12,-173.799C1240.12,-162.163 1240.12,-146.548 1240.12,-133.237"/>
<polygon fill="#00cd00" stroke="#00cd00" points="1243.62,-133.175 1240.12,-123.175 1236.62,-133.175 1243.62,-133.175"/>
<text text-anchor="middle" x="1282.62" y="-144.8" font-family="Times New Roman,serif" font-size="14.00">subPropertyOf</text>
</g>
<!-- n14 -->
<g id="node14" class="node"><title>n14</title>
<g id="a_node14"><a xlink:href="file:///C:/sadl/git/RACK/RACK-Ontology/Graphs/PROV-S.owl.svg" xlink:title="provs:ENTITY">
<polygon fill="#00008b" stroke="black" points="711.117,-123 609.117,-123 609.117,-87 711.117,-87 711.117,-123"/>
<text text-anchor="middle" x="660.117" y="-101.3" font-family="Times New Roman,serif" font-size="14.00" fill="white">provs:ENTITY</text>
</a>
</g>
</g>
<!-- n15 -->
<g id="node15" class="node"><title>n15</title>
<polygon fill="#00008b" stroke="black" points="774.117,-210 626.117,-210 626.117,-174 774.117,-174 774.117,-210"/>
<text text-anchor="middle" x="700.117" y="-188.3" font-family="Times New Roman,serif" font-size="14.00" fill="white">ANALYSIS_REPORT</text>
</g>
<!-- n14&#45;&gt;n15 -->
<g id="edge9" class="edge"><title>n14&#45;&gt;n15</title>
<path fill="none" stroke="blue" stroke-dasharray="5,2" d="M669.299,-123.343C672.193,-128.943 675.354,-135.202 678.117,-141 681.732,-148.585 685.479,-156.908 688.835,-164.55"/>
<polygon fill="blue" stroke="blue" points="685.641,-165.982 692.836,-173.759 692.061,-163.193 685.641,-165.982"/>
<text text-anchor="middle" x="711.117" y="-144.8" font-family="Times New Roman,serif" font-size="14.00">subClass</text>
</g>
<!-- n15&#45;&gt;n6 -->
<g id="edge10" class="edge"><title>n15&#45;&gt;n6</title>
<path fill="none" stroke="#00cd00" d="M625.798,-184.213C600.509,-179.239 573.105,-170.682 551.117,-156 542.043,-149.941 534.485,-140.773 528.675,-131.935"/>
<polygon fill="#00cd00" stroke="#00cd00" points="531.637,-130.068 523.457,-123.334 525.652,-133.699 531.637,-130.068"/>
<text text-anchor="middle" x="586.117" y="-144.8" font-family="Times New Roman,serif" font-size="14.00">producedBy</text>
</g>
<!-- n15&#45;&gt;n8 -->
<g id="edge14" class="edge"><title>n15&#45;&gt;n8</title>
<path fill="none" stroke="#00cd00" d="M774.475,-174.258C796.108,-168.926 819.682,-162.665 841.117,-156 868.567,-147.465 898.585,-136.34 923.145,-126.751"/>
<polygon fill="#00cd00" stroke="#00cd00" points="924.594,-129.942 932.618,-123.024 922.031,-123.428 924.594,-129.942"/>
<text text-anchor="middle" x="897.617" y="-144.8" font-family="Times New Roman,serif" font-size="14.00">result</text>
</g>
<!-- n15&#45;&gt;n14 -->
<g id="edge13" class="edge"><title>n15&#45;&gt;n14</title>
<path fill="none" stroke="#00cd00" d="M645.887,-173.869C638.435,-169.23 631.759,-163.374 627.117,-156 621.881,-147.682 625.007,-138.692 631.035,-130.659"/>
<polygon fill="#00cd00" stroke="#00cd00" points="633.808,-132.808 637.829,-123.006 628.573,-128.161 633.808,-132.808"/>
<text text-anchor="middle" x="650.617" y="-144.8" font-family="Times New Roman,serif" font-size="14.00">analyzes</text>
</g>
<!-- n16 -->
<g id="node16" class="node"><title>n16</title>
<g id="a_node16"><a xlink:href="file:///C:/sadl/git/RACK/RACK-Ontology/Graphs/XMLSchema.svg" xlink:title="xsd:string">
<polygon fill="#00008b" stroke="black" points="810.617,-123 739.617,-123 739.617,-87 810.617,-87 810.617,-123"/>
<text text-anchor="middle" x="775.117" y="-101.3" font-family="Times New Roman,serif" font-size="14.00" fill="white">xsd:string</text>
</a>
</g>
</g>
<!-- n15&#45;&gt;n16 -->
<g id="edge11" class="edge"><title>n15&#45;&gt;n16</title>
<path fill="none" stroke="#00cd00" d="M722.387,-173.849C728.759,-168.461 735.496,-162.273 741.117,-156 747.805,-148.537 754.233,-139.686 759.666,-131.521"/>
<polygon fill="#00cd00" stroke="#00cd00" points="762.663,-133.331 765.134,-123.028 756.778,-129.541 762.663,-133.331"/>
<text text-anchor="middle" x="795.117" y="-144.8" font-family="Times New Roman,serif" font-size="14.00">uniqueIdentifer</text>
</g>
</g>
</svg>
