<?xml version="1.0" encoding="UTF-8" standalone="no"?>
<!DOCTYPE svg PUBLIC "-//W3C//DTD SVG 1.1//EN"
 "http://www.w3.org/Graphics/SVG/1.1/DTD/svg11.dtd">
<!-- Generated by graphviz version 2.38.0 (20140413.2041)
 -->
<!-- Title: gCONFIDENCE Pages: 1 -->
<svg width="1432pt" height="415pt"
 viewBox="0.00 0.00 1431.57 415.00" xmlns="http://www.w3.org/2000/svg" xmlns:xlink="http://www.w3.org/1999/xlink">
<g id="graph0" class="graph" transform="scale(1 1) rotate(0) translate(4 411)">
<title>gCONFIDENCE</title>
<polygon fill="white" stroke="none" points="-4,4 -4,-411 1427.57,-411 1427.57,4 -4,4"/>
<text text-anchor="middle" x="121.5" y="-391.8" font-family="Times New Roman,serif" font-size="14.00">Graph of Ontology File: CONFIDENCE</text>
<!-- n1 -->
<g id="node1" class="node"><title>n1</title>
<ellipse fill="blue" stroke="black" cx="99.8959" cy="-366" rx="42.4939" ry="18"/>
<text text-anchor="middle" x="99.8959" y="-362.3" font-family="Times New Roman,serif" font-size="14.00" fill="white">assesses</text>
</g>
<!-- n2 -->
<g id="node2" class="node"><title>n2</title>
<g id="a_node2"><a xlink:href="file:///C:/Users/200001866/Documents/GitHub/RACK/RACK-Ontology/Graphs/PROV-S.owl.svg" xlink:title="provs:wasImpactedBy">
<polygon fill="none" stroke="#00cd00" points="199.688,-271.544 199.688,-286.456 141.231,-297 58.5607,-297 0.103955,-286.456 0.103955,-271.544 58.5607,-261 141.231,-261 199.688,-271.544"/>
<text text-anchor="middle" x="99.8959" y="-275.3" font-family="Times New Roman,serif" font-size="14.00">provs:wasImpactedBy</text>
</a>
</g>
</g>
<!-- n1&#45;&gt;n2 -->
<g id="edge1" class="edge"><title>n1&#45;&gt;n2</title>
<path fill="none" stroke="#00cd00" d="M99.8959,-347.799C99.8959,-336.163 99.8959,-320.548 99.8959,-307.237"/>
<polygon fill="#00cd00" stroke="#00cd00" points="103.396,-307.175 99.8959,-297.175 96.396,-307.175 103.396,-307.175"/>
<text text-anchor="middle" x="142.396" y="-318.8" font-family="Times New Roman,serif" font-size="14.00">subPropertyOf</text>
</g>
<!-- n3 -->
<g id="node3" class="node"><title>n3</title>
<g id="a_node3"><a xlink:href="file:///C:/Users/200001866/Documents/GitHub/RACK/RACK-Ontology/Graphs/PROV-S.owl.svg" xlink:title="provs:ACTIVITY">
<polygon fill="#00008b" stroke="black" points="303.896,-210 185.896,-210 185.896,-174 303.896,-174 303.896,-210"/>
<text text-anchor="middle" x="244.896" y="-188.3" font-family="Times New Roman,serif" font-size="14.00" fill="white">provs:ACTIVITY</text>
</a>
</g>
</g>
<!-- n4 -->
<g id="node4" class="node"><title>n4</title>
<polygon fill="#00008b" stroke="black" points="338.896,-123 150.896,-123 150.896,-87 338.896,-87 338.896,-123"/>
<text text-anchor="middle" x="244.896" y="-101.3" font-family="Times New Roman,serif" font-size="14.00" fill="white">ASSESSING_CONFIDENCE</text>
</g>
<!-- n3&#45;&gt;n4 -->
<g id="edge2" class="edge"><title>n3&#45;&gt;n4</title>
<path fill="none" stroke="blue" stroke-dasharray="5,2" d="M244.896,-173.799C244.896,-162.163 244.896,-146.548 244.896,-133.237"/>
<polygon fill="blue" stroke="blue" points="248.396,-133.175 244.896,-123.175 241.396,-133.175 248.396,-133.175"/>
<text text-anchor="middle" x="270.896" y="-144.8" font-family="Times New Roman,serif" font-size="14.00">subClass</text>
</g>
<!-- n18 -->
<g id="node18" class="node"><title>n18</title>
<g id="a_node18"><a xlink:href="file:///C:/Users/200001866/Documents/GitHub/RACK/RACK-Ontology/Graphs/PROV-S.owl.svg" xlink:title="provs:AGENT">
<polygon fill="#00008b" stroke="black" points="294.396,-36 195.396,-36 195.396,-0 294.396,-0 294.396,-36"/>
<text text-anchor="middle" x="244.896" y="-14.3" font-family="Times New Roman,serif" font-size="14.00" fill="white">provs:AGENT</text>
</a>
</g>
</g>
<!-- n4&#45;&gt;n18 -->
<g id="edge15" class="edge"><title>n4&#45;&gt;n18</title>
<path fill="none" stroke="#00cd00" d="M244.896,-86.799C244.896,-75.1626 244.896,-59.5479 244.896,-46.2368"/>
<polygon fill="#00cd00" stroke="#00cd00" points="248.396,-46.1754 244.896,-36.1754 241.396,-46.1755 248.396,-46.1754"/>
<text text-anchor="middle" x="282.396" y="-57.8" font-family="Times New Roman,serif" font-size="14.00">performedBy</text>
</g>
<!-- n5 -->
<g id="node5" class="node"><title>n5</title>
<polygon fill="#00008b" stroke="black" points="645.396,-297 442.396,-297 442.396,-261 645.396,-261 645.396,-297"/>
<text text-anchor="middle" x="543.896" y="-275.3" font-family="Times New Roman,serif" font-size="14.00" fill="white">CONFIDENCE_ASSESSMENT</text>
</g>
<!-- n5&#45;&gt;n3 -->
<g id="edge13" class="edge"><title>n5&#45;&gt;n3</title>
<path fill="none" stroke="#00cd00" d="M466.905,-260.956C444.251,-255.594 419.488,-249.393 396.896,-243 365.572,-234.136 331.076,-222.91 302.876,-213.342"/>
<polygon fill="#00cd00" stroke="#00cd00" points="303.773,-209.951 293.179,-210.034 301.513,-216.576 303.773,-209.951"/>
<text text-anchor="middle" x="421.396" y="-231.8" font-family="Times New Roman,serif" font-size="14.00">createBy</text>
</g>
<!-- n6 -->
<g id="node6" class="node"><title>n6</title>
<polygon fill="#00008b" stroke="black" points="561.396,-210 322.396,-210 322.396,-174 561.396,-174 561.396,-210"/>
<text text-anchor="middle" x="441.896" y="-188.3" font-family="Times New Roman,serif" font-size="14.00" fill="white">BDU_CONFIDENCE_ASSESSMENT</text>
</g>
<!-- n5&#45;&gt;n6 -->
<g id="edge3" class="edge"><title>n5&#45;&gt;n6</title>
<path fill="none" stroke="blue" stroke-dasharray="5,2" d="M483.541,-260.813C474.421,-256.171 465.778,-250.329 458.896,-243 452.917,-236.633 449.034,-228.08 446.514,-219.851"/>
<polygon fill="blue" stroke="blue" points="449.905,-218.983 444.069,-210.141 443.117,-220.693 449.905,-218.983"/>
<text text-anchor="middle" x="484.896" y="-231.8" font-family="Times New Roman,serif" font-size="14.00">subClass</text>
</g>
<!-- n16 -->
<g id="node16" class="node"><title>n16</title>
<g id="a_node16"><a xlink:href="file:///C:/Users/200001866/Documents/GitHub/RACK/RACK-Ontology/Graphs/XMLSchema.svg" xlink:title="xsd:float">
<polygon fill="#00008b" stroke="black" points="644.396,-210 579.396,-210 579.396,-174 644.396,-174 644.396,-210"/>
<text text-anchor="middle" x="611.896" y="-188.3" font-family="Times New Roman,serif" font-size="14.00" fill="white">xsd:float</text>
</a>
</g>
</g>
<!-- n5&#45;&gt;n16 -->
<g id="edge11" class="edge"><title>n5&#45;&gt;n16</title>
<path fill="none" stroke="#00cd00" d="M525.448,-260.651C517.132,-250.702 510.632,-238.202 517.896,-228 530.586,-210.179 543.86,-216.712 569.385,-209.651"/>
<polygon fill="#00cd00" stroke="#00cd00" points="570.527,-212.96 578.944,-206.524 568.351,-206.306 570.527,-212.96"/>
<text text-anchor="middle" x="533.396" y="-231.8" font-family="Times New Roman,serif" font-size="14.00">belief</text>
</g>
<!-- n5&#45;&gt;n16 -->
<g id="edge14" class="edge"><title>n5&#45;&gt;n16</title>
<path fill="none" stroke="#00cd00" d="M551.649,-260.887C556.658,-250.784 563.751,-238.047 571.896,-228 574.932,-224.255 578.395,-220.58 581.985,-217.104"/>
<polygon fill="#00cd00" stroke="#00cd00" points="584.419,-219.62 589.433,-210.286 579.693,-214.456 584.419,-219.62"/>
<text text-anchor="middle" x="595.396" y="-231.8" font-family="Times New Roman,serif" font-size="14.00">disbelief</text>
</g>
<!-- n5&#45;&gt;n16 -->
<g id="edge16" class="edge"><title>n5&#45;&gt;n16</title>
<path fill="none" stroke="#00cd00" d="M599.955,-260.883C607.465,-256.25 614.188,-250.393 618.896,-243 623.152,-236.317 623.53,-228.12 622.237,-220.311"/>
<polygon fill="#00cd00" stroke="#00cd00" points="625.587,-219.279 619.762,-210.429 618.797,-220.98 625.587,-219.279"/>
<text text-anchor="middle" x="653.396" y="-231.8" font-family="Times New Roman,serif" font-size="14.00">uncertainty</text>
</g>
<!-- n17 -->
<g id="node17" class="node"><title>n17</title>
<g id="a_node17"><a xlink:href="file:///C:/Users/200001866/Documents/GitHub/RACK/RACK-Ontology/Graphs/PROV-S.owl.svg" xlink:title="provs:ENTITY">
<polygon fill="#00008b" stroke="black" points="775.896,-210 673.896,-210 673.896,-174 775.896,-174 775.896,-210"/>
<text text-anchor="middle" x="724.896" y="-188.3" font-family="Times New Roman,serif" font-size="14.00" fill="white">provs:ENTITY</text>
</a>
</g>
</g>
<!-- n5&#45;&gt;n17 -->
<g id="edge12" class="edge"><title>n5&#45;&gt;n17</title>
<path fill="none" stroke="#00cd00" d="M645.633,-262.759C660.539,-257.889 675.143,-251.467 687.896,-243 697.073,-236.908 704.81,-227.733 710.799,-218.898"/>
<polygon fill="#00cd00" stroke="#00cd00" points="713.841,-220.635 716.193,-210.305 707.913,-216.914 713.841,-220.635"/>
<text text-anchor="middle" x="729.396" y="-231.8" font-family="Times New Roman,serif" font-size="14.00">assesses</text>
</g>
<!-- n7 -->
<g id="node7" class="node"><title>n7</title>
<ellipse fill="blue" stroke="black" cx="1073.9" cy="-366" rx="42.4939" ry="18"/>
<text text-anchor="middle" x="1073.9" y="-362.3" font-family="Times New Roman,serif" font-size="14.00" fill="white">createBy</text>
</g>
<!-- n8 -->
<g id="node8" class="node"><title>n8</title>
<g id="a_node8"><a xlink:href="file:///C:/Users/200001866/Documents/GitHub/RACK/RACK-Ontology/Graphs/PROV-S.owl.svg" xlink:title="provs:wasGeneratedBy">
<polygon fill="none" stroke="#00cd00" points="1176.82,-271.544 1176.82,-286.456 1116.53,-297 1031.26,-297 970.976,-286.456 970.976,-271.544 1031.26,-261 1116.53,-261 1176.82,-271.544"/>
<text text-anchor="middle" x="1073.9" y="-275.3" font-family="Times New Roman,serif" font-size="14.00">provs:wasGeneratedBy</text>
</a>
</g>
</g>
<!-- n7&#45;&gt;n8 -->
<g id="edge4" class="edge"><title>n7&#45;&gt;n8</title>
<path fill="none" stroke="#00cd00" d="M1073.9,-347.799C1073.9,-336.163 1073.9,-320.548 1073.9,-307.237"/>
<polygon fill="#00cd00" stroke="#00cd00" points="1077.4,-307.175 1073.9,-297.175 1070.4,-307.175 1077.4,-307.175"/>
<text text-anchor="middle" x="1116.4" y="-318.8" font-family="Times New Roman,serif" font-size="14.00">subPropertyOf</text>
</g>
<!-- n9 -->
<g id="node9" class="node"><title>n9</title>
<g id="a_node9"><a xlink:href="file:///C:/Users/200001866/Documents/GitHub/RACK/RACK-Ontology/Graphs/PROV-S.owl.svg" xlink:title="provs:THING">
<polygon fill="#00008b" stroke="black" points="255.396,-384 160.396,-384 160.396,-348 255.396,-348 255.396,-384"/>
<text text-anchor="middle" x="207.896" y="-362.3" font-family="Times New Roman,serif" font-size="14.00" fill="white">provs:THING</text>
</a>
</g>
</g>
<!-- n9&#45;&gt;n5 -->
<g id="edge5" class="edge"><title>n9&#45;&gt;n5</title>
<path fill="none" stroke="blue" stroke-dasharray="5,2" d="M255.526,-350.433C258.355,-349.601 261.161,-348.785 263.896,-348 317.888,-332.507 331.35,-328.411 385.896,-315 407.88,-309.595 431.677,-304.125 453.969,-299.167"/>
<polygon fill="blue" stroke="blue" points="454.748,-302.579 463.756,-297.001 453.236,-295.744 454.748,-302.579"/>
<text text-anchor="middle" x="411.896" y="-318.8" font-family="Times New Roman,serif" font-size="14.00">subClass</text>
</g>
<!-- n10 -->
<g id="node10" class="node"><title>n10</title>
<polygon fill="none" stroke="red" points="448.396,-384 273.396,-384 273.396,-348 448.396,-348 448.396,-384"/>
<text text-anchor="middle" x="360.896" y="-362.3" font-family="Times New Roman,serif" font-size="14.00">assesses has at most 1 value</text>
</g>
<!-- n10&#45;&gt;n5 -->
<g id="edge6" class="edge"><title>n10&#45;&gt;n5</title>
<path fill="none" stroke="red" d="M397.929,-347.799C426.797,-334.39 467.037,-315.7 497.957,-301.338"/>
<polygon fill="red" stroke="red" points="499.636,-304.417 507.231,-297.03 496.687,-298.069 499.636,-304.417"/>
<text text-anchor="middle" x="486.396" y="-318.8" font-family="Times New Roman,serif" font-size="14.00">restricts</text>
</g>
<!-- n11 -->
<g id="node11" class="node"><title>n11</title>
<polygon fill="none" stroke="red" points="621.396,-384 466.396,-384 466.396,-348 621.396,-348 621.396,-384"/>
<text text-anchor="middle" x="543.896" y="-362.3" font-family="Times New Roman,serif" font-size="14.00">belief has exactly 1 value</text>
</g>
<!-- n11&#45;&gt;n5 -->
<g id="edge7" class="edge"><title>n11&#45;&gt;n5</title>
<path fill="none" stroke="red" d="M543.896,-347.799C543.896,-336.163 543.896,-320.548 543.896,-307.237"/>
<polygon fill="red" stroke="red" points="547.396,-307.175 543.896,-297.175 540.396,-307.175 547.396,-307.175"/>
<text text-anchor="middle" x="566.396" y="-318.8" font-family="Times New Roman,serif" font-size="14.00">restricts</text>
</g>
<!-- n12 -->
<g id="node12" class="node"><title>n12</title>
<polygon fill="none" stroke="red" points="810.396,-384 639.396,-384 639.396,-348 810.396,-348 810.396,-384"/>
<text text-anchor="middle" x="724.896" y="-362.3" font-family="Times New Roman,serif" font-size="14.00">disbelief has exactly 1 value</text>
</g>
<!-- n12&#45;&gt;n5 -->
<g id="edge8" class="edge"><title>n12&#45;&gt;n5</title>
<path fill="none" stroke="red" d="M688.268,-347.799C659.716,-334.39 619.915,-315.7 589.333,-301.338"/>
<polygon fill="red" stroke="red" points="590.7,-298.113 580.16,-297.03 587.724,-304.449 590.7,-298.113"/>
<text text-anchor="middle" x="668.396" y="-318.8" font-family="Times New Roman,serif" font-size="14.00">restricts</text>
</g>
<!-- n13 -->
<g id="node13" class="node"><title>n13</title>
<polygon fill="none" stroke="red" points="1013.4,-384 828.396,-384 828.396,-348 1013.4,-348 1013.4,-384"/>
<text text-anchor="middle" x="920.896" y="-362.3" font-family="Times New Roman,serif" font-size="14.00">uncertainty has exactly 1 value</text>
</g>
<!-- n13&#45;&gt;n5 -->
<g id="edge9" class="edge"><title>n13&#45;&gt;n5</title>
<path fill="none" stroke="red" d="M845.058,-347.901C782.679,-333.837 694.301,-313.911 629.413,-299.281"/>
<polygon fill="red" stroke="red" points="630.138,-295.857 619.613,-297.071 628.598,-302.685 630.138,-295.857"/>
<text text-anchor="middle" x="778.396" y="-318.8" font-family="Times New Roman,serif" font-size="14.00">restricts</text>
</g>
<!-- n14 -->
<g id="node14" class="node"><title>n14</title>
<ellipse fill="blue" stroke="black" cx="1308.9" cy="-366" rx="59.2899" ry="18"/>
<text text-anchor="middle" x="1308.9" y="-362.3" font-family="Times New Roman,serif" font-size="14.00" fill="white">performedBy</text>
</g>
<!-- n15 -->
<g id="node15" class="node"><title>n15</title>
<g id="a_node15"><a xlink:href="file:///C:/Users/200001866/Documents/GitHub/RACK/RACK-Ontology/Graphs/PROV-S.owl.svg" xlink:title="provs:wasAssociatedWith">
<polygon fill="none" stroke="#00cd00" points="1423.73,-271.544 1423.73,-286.456 1356.46,-297 1261.33,-297 1194.06,-286.456 1194.06,-271.544 1261.33,-261 1356.46,-261 1423.73,-271.544"/>
<text text-anchor="middle" x="1308.9" y="-275.3" font-family="Times New Roman,serif" font-size="14.00">provs:wasAssociatedWith</text>
</a>
</g>
</g>
<!-- n14&#45;&gt;n15 -->
<g id="edge10" class="edge"><title>n14&#45;&gt;n15</title>
<path fill="none" stroke="#00cd00" d="M1308.9,-347.799C1308.9,-336.163 1308.9,-320.548 1308.9,-307.237"/>
<polygon fill="#00cd00" stroke="#00cd00" points="1312.4,-307.175 1308.9,-297.175 1305.4,-307.175 1312.4,-307.175"/>
<text text-anchor="middle" x="1351.4" y="-318.8" font-family="Times New Roman,serif" font-size="14.00">subPropertyOf</text>
</g>
</g>
</svg>
