<?xml version="1.0" encoding="UTF-8" standalone="no"?>
<!DOCTYPE svg PUBLIC "-//W3C//DTD SVG 1.1//EN"
 "http://www.w3.org/Graphics/SVG/1.1/DTD/svg11.dtd">
<!-- Generated by graphviz version 2.38.0 (20140413.2041)
 -->
<!-- Title: gtrnstlsys Pages: 1 -->
<svg width="737pt" height="154pt"
 viewBox="0.00 0.00 737.24 154.00" xmlns="http://www.w3.org/2000/svg" xmlns:xlink="http://www.w3.org/1999/xlink">
<g id="graph0" class="graph" transform="scale(1 1) rotate(0) translate(4 150)">
<title>gtrnstlsys</title>
<polygon fill="white" stroke="none" points="-4,4 -4,-150 733.238,-150 733.238,4 -4,4"/>
<text text-anchor="middle" x="100.5" y="-130.8" font-family="Times New Roman,serif" font-size="14.00">Graph of Ontology File: trnstlsys</text>
<!-- n1 -->
<g id="node1" class="node"><title>n1</title>
<ellipse fill="blue" stroke="black" cx="61.7445" cy="-105" rx="61.99" ry="18"/>
<text text-anchor="middle" x="61.7445" y="-101.3" font-family="Times New Roman,serif" font-size="14.00" fill="white">OutputThread</text>
</g>
<!-- n1&#45;&gt;n1 -->
<g id="edge1" class="edge"><title>n1&#45;&gt;n1</title>
<path fill="none" stroke="#00cd00" d="M117.64,-112.752C131.313,-112.178 141.489,-109.594 141.489,-105 141.489,-101.626 136.001,-99.3368 127.67,-98.131"/>
<polygon fill="#00cd00" stroke="#00cd00" points="127.908,-94.6385 117.64,-97.248 127.294,-101.612 127.908,-94.6385"/>
<text text-anchor="middle" x="184.989" y="-101.3" font-family="Times New Roman,serif" font-size="14.00">uniqueIdentifier</text>
</g>
<!-- n2 -->
<g id="node2" class="node"><title>n2</title>
<g id="a_node2"><a xlink:href="file:///C:/sadl/git/RACK/RACK-Ontology/Graphs/Turnstiles.owl.svg" xlink:title="null:CounterApplication">
<ellipse fill="blue" stroke="black" cx="329.745" cy="-18" rx="96.6831" ry="18"/>
<text text-anchor="middle" x="329.745" y="-14.3" font-family="Times New Roman,serif" font-size="14.00" fill="white">null:CounterApplication</text>
</a>
</g>
</g>
<!-- n1&#45;&gt;n2 -->
<g id="edge2" class="edge"><title>n1&#45;&gt;n2</title>
<path fill="none" stroke="#00cd00" d="M112.692,-94.6655C142.509,-88.6113 180.677,-79.8351 213.745,-69 238.796,-60.7913 265.899,-49.2668 287.602,-39.3505"/>
<polygon fill="#00cd00" stroke="#00cd00" points="289.251,-42.4442 296.858,-35.0699 286.313,-36.0907 289.251,-42.4442"/>
<text text-anchor="middle" x="272.245" y="-57.8" font-family="Times New Roman,serif" font-size="14.00">partOf</text>
</g>
<!-- n3 -->
<g id="node3" class="node"><title>n3</title>
<g id="a_node3"><a xlink:href="file:///C:/sadl/git/RACK/RACK-Ontology/Graphs/SYSTEM.owl.svg" xlink:title="sys:SYSTEM">
<polygon fill="#00008b" stroke="black" points="214.745,-36 120.745,-36 120.745,-0 214.745,-0 214.745,-36"/>
<text text-anchor="middle" x="167.745" y="-14.3" font-family="Times New Roman,serif" font-size="14.00" fill="white">sys:SYSTEM</text>
</a>
</g>
</g>
<!-- n1&#45;&gt;n3 -->
<g id="edge3" class="edge"><title>n1&#45;&gt;n3</title>
<path fill="none" stroke="black" d="M82.1824,-87.6111C98.1466,-74.8096 120.546,-56.8477 138.422,-42.5132"/>
<polygon fill="black" stroke="black" points="140.666,-45.2003 146.278,-36.2138 136.287,-39.7392 140.666,-45.2003"/>
<text text-anchor="middle" x="131.245" y="-57.8" font-family="Times New Roman,serif" font-size="14.00">is a</text>
</g>
<!-- n4 -->
<g id="node4" class="node"><title>n4</title>
<ellipse fill="blue" stroke="black" cx="552.745" cy="-105" rx="71.4873" ry="18"/>
<text text-anchor="middle" x="552.745" y="-101.3" font-family="Times New Roman,serif" font-size="14.00" fill="white">ExecutiveThread</text>
</g>
<!-- n4&#45;&gt;n2 -->
<g id="edge5" class="edge"><title>n4&#45;&gt;n2</title>
<path fill="none" stroke="#00cd00" d="M532.567,-87.6494C518.09,-76.6683 497.693,-62.6729 477.745,-54 456.547,-44.7839 432.539,-37.7781 410.122,-32.5485"/>
<polygon fill="#00cd00" stroke="#00cd00" points="410.813,-29.1166 400.289,-30.3422 409.281,-35.9467 410.813,-29.1166"/>
<text text-anchor="middle" x="522.245" y="-57.8" font-family="Times New Roman,serif" font-size="14.00">partOf</text>
</g>
<!-- n4&#45;&gt;n3 -->
<g id="edge6" class="edge"><title>n4&#45;&gt;n3</title>
<path fill="none" stroke="black" d="M508.25,-90.8235C469.358,-79.7033 411.214,-64.0344 359.745,-54 302.939,-42.9253 285.13,-48.2786 224.987,-36.0444"/>
<polygon fill="black" stroke="black" points="225.466,-32.5684 214.959,-33.9247 224.019,-39.4171 225.466,-32.5684"/>
<text text-anchor="middle" x="433.245" y="-57.8" font-family="Times New Roman,serif" font-size="14.00">is a</text>
</g>
<!-- n4&#45;&gt;n4 -->
<g id="edge4" class="edge"><title>n4&#45;&gt;n4</title>
<path fill="none" stroke="#00cd00" d="M617.504,-112.663C631.815,-111.943 642.238,-109.389 642.238,-105 642.238,-101.743 636.497,-99.496 627.686,-98.2596"/>
<polygon fill="#00cd00" stroke="#00cd00" points="627.779,-94.7539 617.504,-97.337 627.147,-101.725 627.779,-94.7539"/>
<text text-anchor="middle" x="685.738" y="-101.3" font-family="Times New Roman,serif" font-size="14.00">uniqueIdentifier</text>
</g>
<!-- n5 -->
<g id="node5" class="node"><title>n5</title>
<ellipse fill="blue" stroke="black" cx="302.745" cy="-105" rx="55.7903" ry="18"/>
<text text-anchor="middle" x="302.745" y="-101.3" font-family="Times New Roman,serif" font-size="14.00" fill="white">InputThread</text>
</g>
<!-- n5&#45;&gt;n2 -->
<g id="edge8" class="edge"><title>n5&#45;&gt;n2</title>
<path fill="none" stroke="#00cd00" d="M308.208,-86.799C311.941,-75.0474 316.963,-59.2383 321.218,-45.8421"/>
<polygon fill="#00cd00" stroke="#00cd00" points="324.597,-46.7658 324.289,-36.1754 317.926,-44.6466 324.597,-46.7658"/>
<text text-anchor="middle" x="337.245" y="-57.8" font-family="Times New Roman,serif" font-size="14.00">partOf</text>
</g>
<!-- n5&#45;&gt;n3 -->
<g id="edge9" class="edge"><title>n5&#45;&gt;n3</title>
<path fill="none" stroke="black" d="M262.242,-92.4585C233.92,-84.1209 200.215,-73.5571 194.745,-69 187.365,-62.8527 181.693,-54.1494 177.497,-45.7233"/>
<polygon fill="black" stroke="black" points="180.644,-44.1868 173.375,-36.4788 174.251,-47.0374 180.644,-44.1868"/>
<text text-anchor="middle" x="204.245" y="-57.8" font-family="Times New Roman,serif" font-size="14.00">is a</text>
</g>
<!-- n5&#45;&gt;n5 -->
<g id="edge7" class="edge"><title>n5&#45;&gt;n5</title>
<path fill="none" stroke="#00cd00" d="M353.17,-112.806C366.525,-112.36 376.64,-109.758 376.64,-105 376.64,-101.543 371.3,-99.2244 363.258,-98.0437"/>
<polygon fill="#00cd00" stroke="#00cd00" points="363.428,-94.5458 353.17,-97.1942 362.841,-101.521 363.428,-94.5458"/>
<text text-anchor="middle" x="420.14" y="-101.3" font-family="Times New Roman,serif" font-size="14.00">uniqueIdentifier</text>
</g>
</g>
</svg>
