<?xml version="1.0" encoding="UTF-8" standalone="no"?>
<!DOCTYPE svg PUBLIC "-//W3C//DTD SVG 1.1//EN"
 "http://www.w3.org/Graphics/SVG/1.1/DTD/svg11.dtd">
<!-- Generated by graphviz version 2.38.0 (20140413.2041)
 -->
<!-- Title: gcntrapprq Pages: 1 -->
<svg width="2564pt" height="328pt"
 viewBox="0.00 0.00 2564.00 328.00" xmlns="http://www.w3.org/2000/svg" xmlns:xlink="http://www.w3.org/1999/xlink">
<g id="graph0" class="graph" transform="scale(1 1) rotate(0) translate(4 324)">
<title>gcntrapprq</title>
<polygon fill="white" stroke="none" points="-4,4 -4,-324 2560,-324 2560,4 -4,4"/>
<text text-anchor="middle" x="104.5" y="-304.8" font-family="Times New Roman,serif" font-size="14.00">Graph of Ontology File: cntrapprq</text>
<!-- n1 -->
<g id="node1" class="node"><title>n1</title>
<ellipse fill="blue" stroke="black" cx="1305" cy="-192" rx="38.1938" ry="18"/>
<text text-anchor="middle" x="1305" y="-188.3" font-family="Times New Roman,serif" font-size="14.00" fill="white">counter</text>
</g>
<!-- n1&#45;&gt;n1 -->
<g id="edge1" class="edge"><title>n1&#45;&gt;n1</title>
<path fill="none" stroke="#00cd00" d="M1339.66,-199.873C1351.66,-199.956 1361.34,-197.332 1361.34,-192 1361.34,-188.334 1356.76,-185.948 1350,-184.842"/>
<polygon fill="#00cd00" stroke="#00cd00" points="1349.88,-181.325 1339.66,-184.127 1349.39,-188.308 1349.88,-181.325"/>
<text text-anchor="middle" x="1404.84" y="-188.3" font-family="Times New Roman,serif" font-size="14.00">identifier</text>
</g>
<!-- n2 -->
<g id="node2" class="node"><title>n2</title>
<ellipse fill="blue" stroke="black" cx="1667" cy="-105" rx="36.2938" ry="18"/>
<text text-anchor="middle" x="1667" y="-101.3" font-family="Times New Roman,serif" font-size="14.00" fill="white">HLR&#45;1</text>
</g>
<!-- n1&#45;&gt;n2 -->
<g id="edge2" class="edge"><title>n1&#45;&gt;n2</title>
<path fill="none" stroke="#00cd00" d="M1322.31,-175.875C1338.8,-161.532 1361.49,-142.018 1364,-141 1417.02,-119.421 1565.03,-135.044 1621,-123 1624.16,-122.319 1627.4,-121.466 1630.62,-120.507"/>
<polygon fill="#00cd00" stroke="#00cd00" points="1631.73,-123.826 1640.13,-117.376 1629.54,-117.176 1631.73,-123.826"/>
<text text-anchor="middle" x="1397.5" y="-144.8" font-family="Times New Roman,serif" font-size="14.00">providedBy</text>
</g>
<!-- n3 -->
<g id="node3" class="node"><title>n3</title>
<ellipse fill="blue" stroke="black" cx="1336" cy="-105" rx="36.2938" ry="18"/>
<text text-anchor="middle" x="1336" y="-101.3" font-family="Times New Roman,serif" font-size="14.00" fill="white">HLR&#45;2</text>
</g>
<!-- n1&#45;&gt;n3 -->
<g id="edge3" class="edge"><title>n1&#45;&gt;n3</title>
<path fill="none" stroke="#00cd00" d="M1288.02,-175.6C1279.2,-165.672 1271.5,-152.512 1278,-141 1282.67,-132.727 1290.16,-126.19 1298.24,-121.117"/>
<polygon fill="#00cd00" stroke="#00cd00" points="1300.09,-124.095 1307.12,-116.174 1296.68,-117.978 1300.09,-124.095"/>
<text text-anchor="middle" x="1311.5" y="-144.8" font-family="Times New Roman,serif" font-size="14.00">providedBy</text>
</g>
<!-- n4 -->
<g id="node4" class="node"><title>n4</title>
<ellipse fill="blue" stroke="black" cx="1140" cy="-105" rx="36.2938" ry="18"/>
<text text-anchor="middle" x="1140" y="-101.3" font-family="Times New Roman,serif" font-size="14.00" fill="white">HLR&#45;3</text>
</g>
<!-- n1&#45;&gt;n4 -->
<g id="edge4" class="edge"><title>n1&#45;&gt;n4</title>
<path fill="none" stroke="#00cd00" d="M1270.79,-183.5C1249.05,-177.858 1220.8,-168.872 1198,-156 1185.08,-148.71 1172.4,-138.279 1162.22,-128.828"/>
<polygon fill="#00cd00" stroke="#00cd00" points="1164.59,-126.252 1154.94,-121.86 1159.74,-131.306 1164.59,-126.252"/>
<text text-anchor="middle" x="1235" y="-144.8" font-family="Times New Roman,serif" font-size="14.00">consumedBy</text>
</g>
<!-- n5 -->
<g id="node5" class="node"><title>n5</title>
<g id="a_node5"><a xlink:href="file:///C:/Sadl3Workspace4/RACK-Ontology-7-29/Graphs/REQUIREMENTS.owl.svg" xlink:title="Rq:DATA_DICTIONARY_TERM">
<polygon fill="#00008b" stroke="black" points="2042,-123 1826,-123 1826,-87 2042,-87 2042,-123"/>
<text text-anchor="middle" x="1934" y="-101.3" font-family="Times New Roman,serif" font-size="14.00" fill="white">Rq:DATA_DICTIONARY_TERM</text>
</a>
</g>
</g>
<!-- n1&#45;&gt;n5 -->
<g id="edge5" class="edge"><title>n1&#45;&gt;n5</title>
<path fill="none" stroke="black" d="M1342.03,-186.851C1420.98,-177.998 1599.75,-157.907 1613,-156 1651.4,-150.474 1660.69,-147.192 1699,-141 1721.76,-137.32 1769.46,-130.18 1815.97,-123.302"/>
<polygon fill="black" stroke="black" points="1816.49,-126.764 1825.87,-121.84 1815.47,-119.839 1816.49,-126.764"/>
<text text-anchor="middle" x="1708.5" y="-144.8" font-family="Times New Roman,serif" font-size="14.00">is a</text>
</g>
<!-- n2&#45;&gt;n2 -->
<g id="edge11" class="edge"><title>n2&#45;&gt;n2</title>
<path fill="none" stroke="#00cd00" d="M1699.92,-112.867C1711.75,-113.036 1721.39,-110.414 1721.39,-105 1721.39,-101.278 1716.83,-98.8751 1710.14,-97.7919"/>
<polygon fill="#00cd00" stroke="#00cd00" points="1710.13,-94.2838 1699.92,-97.1327 1709.68,-101.269 1710.13,-94.2838"/>
<text text-anchor="middle" x="1764.89" y="-101.3" font-family="Times New Roman,serif" font-size="14.00">identifier</text>
</g>
<!-- n8 -->
<g id="node8" class="node"><title>n8</title>
<g id="a_node8"><a xlink:href="file:///C:/Sadl3Workspace4/RACK-Ontology-7-29/Graphs/Turnstiles.owl.svg" xlink:title="trnstl:CounterApplication">
<ellipse fill="blue" stroke="black" cx="1427" cy="-18" rx="102.082" ry="18"/>
<text text-anchor="middle" x="1427" y="-14.3" font-family="Times New Roman,serif" font-size="14.00" fill="white">trnstl:CounterApplication</text>
</a>
</g>
</g>
<!-- n2&#45;&gt;n8 -->
<g id="edge15" class="edge"><title>n2&#45;&gt;n8</title>
<path fill="none" stroke="#00cd00" d="M1638.8,-93.4959C1632.93,-91.3296 1626.76,-89.0764 1621,-87 1573.79,-70.0044 1519.92,-51.168 1480.95,-37.6382"/>
<polygon fill="#00cd00" stroke="#00cd00" points="1481.97,-34.2876 1471.37,-34.3171 1479.68,-40.9011 1481.97,-34.2876"/>
<text text-anchor="middle" x="1590.5" y="-57.8" font-family="Times New Roman,serif" font-size="14.00">governs</text>
</g>
<!-- n9 -->
<g id="node9" class="node"><title>n9</title>
<g id="a_node9"><a xlink:href="file:///C:/Sadl3Workspace4/RACK-Ontology-7-29/Graphs/REQUIREMENTS.owl.svg" xlink:title="Rq:REQUIREMENT">
<polygon fill="#00008b" stroke="black" points="1684.5,-36 1547.5,-36 1547.5,-0 1684.5,-0 1684.5,-36"/>
<text text-anchor="middle" x="1616" y="-14.3" font-family="Times New Roman,serif" font-size="14.00" fill="white">Rq:REQUIREMENT</text>
</a>
</g>
</g>
<!-- n2&#45;&gt;n9 -->
<g id="edge16" class="edge"><title>n2&#45;&gt;n9</title>
<path fill="none" stroke="black" d="M1657.16,-87.6111C1649.9,-75.5016 1639.86,-58.7745 1631.52,-44.8681"/>
<polygon fill="black" stroke="black" points="1634.47,-42.988 1626.32,-36.2138 1628.47,-46.5895 1634.47,-42.988"/>
<text text-anchor="middle" x="1654.5" y="-57.8" font-family="Times New Roman,serif" font-size="14.00">is a</text>
</g>
<!-- n10 -->
<g id="node10" class="node"><title>n10</title>
<polygon fill="none" stroke="black" points="2556,-36 1926,-36 1926,-0 2556,-0 2556,-36"/>
<text text-anchor="middle" x="2241" y="-14.3" font-family="Times New Roman,serif" font-size="14.00">The Computer shall increment the counter when a inflow event is received and the counter is less than max int.</text>
</g>
<!-- n2&#45;&gt;n10 -->
<g id="edge12" class="edge"><title>n2&#45;&gt;n10</title>
<path fill="none" stroke="#00cd00" d="M1701.61,-98.8743C1781.69,-87.0156 1983.02,-57.2013 2115.78,-37.5429"/>
<polygon fill="#00cd00" stroke="#00cd00" points="2116.63,-40.9548 2126.01,-36.0276 2115.6,-34.0303 2116.63,-40.9548"/>
<text text-anchor="middle" x="1998.5" y="-57.8" font-family="Times New Roman,serif" font-size="14.00">text</text>
</g>
<!-- n11 -->
<g id="node11" class="node"><title>n11</title>
<g id="a_node11"><a xlink:href="file:///C:/Sadl3Workspace4/RACK-Ontology-7-29/Graphs/Turnstiles.owl.svg" xlink:title="trnstl:Sys&#45;1">
<ellipse fill="blue" stroke="black" cx="1754" cy="-18" rx="51.9908" ry="18"/>
<text text-anchor="middle" x="1754" y="-14.3" font-family="Times New Roman,serif" font-size="14.00" fill="white">trnstl:Sys&#45;1</text>
</a>
</g>
</g>
<!-- n2&#45;&gt;n11 -->
<g id="edge13" class="edge"><title>n2&#45;&gt;n11</title>
<path fill="none" stroke="#00cd00" d="M1682.95,-88.4097C1696.07,-75.5944 1714.86,-57.2336 1729.82,-42.6149"/>
<polygon fill="#00cd00" stroke="#00cd00" points="1732.54,-44.8524 1737.25,-35.3605 1727.65,-39.8455 1732.54,-44.8524"/>
<text text-anchor="middle" x="1738.5" y="-57.8" font-family="Times New Roman,serif" font-size="14.00">satisfies</text>
</g>
<!-- n12 -->
<g id="node12" class="node"><title>n12</title>
<g id="a_node12"><a xlink:href="file:///C:/Sadl3Workspace4/RACK-Ontology-7-29/Graphs/HazardAssesment.owl.svg" xlink:title="ha:H&#45;1.2">
<ellipse fill="blue" stroke="black" cx="1866" cy="-18" rx="41.6928" ry="18"/>
<text text-anchor="middle" x="1866" y="-14.3" font-family="Times New Roman,serif" font-size="14.00" fill="white">ha:H&#45;1.2</text>
</a>
</g>
</g>
<!-- n2&#45;&gt;n12 -->
<g id="edge14" class="edge"><title>n2&#45;&gt;n12</title>
<path fill="none" stroke="#00cd00" d="M1696.93,-94.32C1716.52,-87.7403 1742.54,-78.5281 1765,-69 1787.59,-59.4097 1812.3,-47.2095 1831.62,-37.2614"/>
<polygon fill="#00cd00" stroke="#00cd00" points="1833.38,-40.2933 1840.64,-32.58 1830.15,-34.0803 1833.38,-40.2933"/>
<text text-anchor="middle" x="1821.5" y="-57.8" font-family="Times New Roman,serif" font-size="14.00">mitigates</text>
</g>
<!-- n3&#45;&gt;n3 -->
<g id="edge25" class="edge"><title>n3&#45;&gt;n3</title>
<path fill="none" stroke="#00cd00" d="M1368.92,-112.867C1380.75,-113.036 1390.39,-110.414 1390.39,-105 1390.39,-101.278 1385.83,-98.8751 1379.14,-97.7919"/>
<polygon fill="#00cd00" stroke="#00cd00" points="1379.13,-94.2838 1368.92,-97.1327 1378.68,-101.269 1379.13,-94.2838"/>
<text text-anchor="middle" x="1433.89" y="-101.3" font-family="Times New Roman,serif" font-size="14.00">identifier</text>
</g>
<!-- n3&#45;&gt;n8 -->
<g id="edge29" class="edge"><title>n3&#45;&gt;n8</title>
<path fill="none" stroke="#00cd00" d="M1341.43,-87.0966C1345.49,-76.5685 1351.91,-63.3053 1361,-54 1366.17,-48.7045 1372.31,-44.0308 1378.74,-39.9647"/>
<polygon fill="#00cd00" stroke="#00cd00" points="1380.73,-42.8528 1387.61,-34.7955 1377.21,-36.8039 1380.73,-42.8528"/>
<text text-anchor="middle" x="1383.5" y="-57.8" font-family="Times New Roman,serif" font-size="14.00">governs</text>
</g>
<!-- n3&#45;&gt;n9 -->
<g id="edge30" class="edge"><title>n3&#45;&gt;n9</title>
<path fill="none" stroke="black" d="M1366.23,-94.8228C1409.94,-81.553 1491.91,-56.6683 1550.01,-39.0306"/>
<polygon fill="black" stroke="black" points="1551.29,-42.2999 1559.84,-36.0459 1549.26,-35.6017 1551.29,-42.2999"/>
<text text-anchor="middle" x="1502.5" y="-57.8" font-family="Times New Roman,serif" font-size="14.00">is a</text>
</g>
<!-- n17 -->
<g id="node17" class="node"><title>n17</title>
<polygon fill="none" stroke="black" points="1083.5,-36 458.495,-36 458.495,-0 1083.5,-0 1083.5,-36"/>
<text text-anchor="middle" x="770.995" y="-14.3" font-family="Times New Roman,serif" font-size="14.00">The Computer shall decrement the counter when a outflow event is received and the counter is greater than 0.</text>
</g>
<!-- n3&#45;&gt;n17 -->
<g id="edge26" class="edge"><title>n3&#45;&gt;n17</title>
<path fill="none" stroke="#00cd00" d="M1309.1,-92.7714C1302.91,-90.5521 1296.3,-88.4605 1290,-87 1212.96,-69.1526 1191.47,-78.7217 1113,-69 1038.37,-59.7547 954.851,-47.5794 889.03,-37.5582"/>
<polygon fill="#00cd00" stroke="#00cd00" points="889.45,-34.0819 879.036,-36.0326 888.394,-41.0018 889.45,-34.0819"/>
<text text-anchor="middle" x="1123.5" y="-57.8" font-family="Times New Roman,serif" font-size="14.00">text</text>
</g>
<!-- n18 -->
<g id="node18" class="node"><title>n18</title>
<g id="a_node18"><a xlink:href="file:///C:/Sadl3Workspace4/RACK-Ontology-7-29/Graphs/Turnstiles.owl.svg" xlink:title="trnstl:Sys&#45;2">
<ellipse fill="blue" stroke="black" cx="1255" cy="-18" rx="51.9908" ry="18"/>
<text text-anchor="middle" x="1255" y="-14.3" font-family="Times New Roman,serif" font-size="14.00" fill="white">trnstl:Sys&#45;2</text>
</a>
</g>
</g>
<!-- n3&#45;&gt;n18 -->
<g id="edge27" class="edge"><title>n3&#45;&gt;n18</title>
<path fill="none" stroke="#00cd00" d="M1313.6,-90.6381C1304.71,-84.6924 1294.77,-77.1843 1287,-69 1280.11,-61.758 1273.85,-52.8313 1268.73,-44.5342"/>
<polygon fill="#00cd00" stroke="#00cd00" points="1271.74,-42.7332 1263.65,-35.8875 1265.7,-46.2817 1271.74,-42.7332"/>
<text text-anchor="middle" x="1309.5" y="-57.8" font-family="Times New Roman,serif" font-size="14.00">satisfies</text>
</g>
<!-- n19 -->
<g id="node19" class="node"><title>n19</title>
<g id="a_node19"><a xlink:href="file:///C:/Sadl3Workspace4/RACK-Ontology-7-29/Graphs/HazardAssesment.owl.svg" xlink:title="ha:H&#45;1.1">
<ellipse fill="blue" stroke="black" cx="1143" cy="-18" rx="41.6928" ry="18"/>
<text text-anchor="middle" x="1143" y="-14.3" font-family="Times New Roman,serif" font-size="14.00" fill="white">ha:H&#45;1.1</text>
</a>
</g>
</g>
<!-- n3&#45;&gt;n19 -->
<g id="edge28" class="edge"><title>n3&#45;&gt;n19</title>
<path fill="none" stroke="#00cd00" d="M1309.08,-92.8709C1302.89,-90.6465 1296.28,-88.5276 1290,-87 1258.23,-79.2824 1165.89,-93.2711 1144,-69 1138.52,-62.9264 1136.93,-54.5508 1137.12,-46.3902"/>
<polygon fill="#00cd00" stroke="#00cd00" points="1140.61,-46.6626 1138.15,-36.3581 1133.65,-45.9497 1140.61,-46.6626"/>
<text text-anchor="middle" x="1168.5" y="-57.8" font-family="Times New Roman,serif" font-size="14.00">mitigates</text>
</g>
<!-- n4&#45;&gt;n4 -->
<g id="edge6" class="edge"><title>n4&#45;&gt;n4</title>
<path fill="none" stroke="#00cd00" d="M1172.92,-112.867C1184.75,-113.036 1194.39,-110.414 1194.39,-105 1194.39,-101.278 1189.83,-98.8751 1183.14,-97.7919"/>
<polygon fill="#00cd00" stroke="#00cd00" points="1183.13,-94.2838 1172.92,-97.1327 1182.68,-101.269 1183.13,-94.2838"/>
<text text-anchor="middle" x="1237.89" y="-101.3" font-family="Times New Roman,serif" font-size="14.00">identifier</text>
</g>
<!-- n6 -->
<g id="node6" class="node"><title>n6</title>
<polygon fill="none" stroke="black" points="440.495,-36 121.495,-36 121.495,-0 440.495,-0 440.495,-36"/>
<text text-anchor="middle" x="280.995" y="-14.3" font-family="Times New Roman,serif" font-size="14.00">The Computer shall publish the counter at a 1 htz rate.</text>
</g>
<!-- n4&#45;&gt;n6 -->
<g id="edge7" class="edge"><title>n4&#45;&gt;n6</title>
<path fill="none" stroke="#00cd00" d="M1104.39,-100.531C1003.68,-90.7117 707.926,-61.8241 450.891,-36.1879"/>
<polygon fill="#00cd00" stroke="#00cd00" points="450.909,-32.6724 440.61,-35.1622 450.214,-39.6378 450.909,-32.6724"/>
<text text-anchor="middle" x="781.495" y="-57.8" font-family="Times New Roman,serif" font-size="14.00">text</text>
</g>
<!-- n7 -->
<g id="node7" class="node"><title>n7</title>
<g id="a_node7"><a xlink:href="file:///C:/Sadl3Workspace4/RACK-Ontology-7-29/Graphs/Turnstiles.owl.svg" xlink:title="trnstl:Sys&#45;3">
<ellipse fill="blue" stroke="black" cx="51.9954" cy="-18" rx="51.9908" ry="18"/>
<text text-anchor="middle" x="51.9954" y="-14.3" font-family="Times New Roman,serif" font-size="14.00" fill="white">trnstl:Sys&#45;3</text>
</a>
</g>
</g>
<!-- n4&#45;&gt;n7 -->
<g id="edge8" class="edge"><title>n4&#45;&gt;n7</title>
<path fill="none" stroke="#00cd00" d="M1103.24,-104.38C969.318,-105.171 495.246,-102.779 111.995,-36 107.617,-35.2371 103.101,-34.2819 98.6025,-33.2155"/>
<polygon fill="#00cd00" stroke="#00cd00" points="99.3996,-29.8069 88.8455,-30.7351 97.6749,-36.5911 99.3996,-29.8069"/>
<text text-anchor="middle" x="358.495" y="-57.8" font-family="Times New Roman,serif" font-size="14.00">satisfies</text>
</g>
<!-- n4&#45;&gt;n8 -->
<g id="edge9" class="edge"><title>n4&#45;&gt;n8</title>
<path fill="none" stroke="#00cd00" d="M1160.1,-89.7291C1177.12,-78.326 1202.59,-62.838 1227,-54 1238.24,-49.9297 1293.72,-40.3453 1343.41,-32.2336"/>
<polygon fill="#00cd00" stroke="#00cd00" points="1344.27,-35.6396 1353.58,-30.5803 1343.14,-28.7303 1344.27,-35.6396"/>
<text text-anchor="middle" x="1249.5" y="-57.8" font-family="Times New Roman,serif" font-size="14.00">governs</text>
</g>
<!-- n4&#45;&gt;n9 -->
<g id="edge10" class="edge"><title>n4&#45;&gt;n9</title>
<path fill="none" stroke="black" d="M1175.18,-100.005C1242.39,-92.2798 1384.32,-75.4843 1406,-69 1420.66,-64.6123 1422.44,-58.7204 1437,-54 1477.57,-40.8443 1491.48,-44.3013 1537.2,-36.0433"/>
<polygon fill="black" stroke="black" points="1537.95,-39.4635 1547.12,-34.1604 1536.64,-32.5863 1537.95,-39.4635"/>
<text text-anchor="middle" x="1446.5" y="-57.8" font-family="Times New Roman,serif" font-size="14.00">is a</text>
</g>
<!-- n13 -->
<g id="node13" class="node"><title>n13</title>
<ellipse fill="blue" stroke="black" cx="1621" cy="-279" rx="36.2938" ry="18"/>
<text text-anchor="middle" x="1621" y="-275.3" font-family="Times New Roman,serif" font-size="14.00" fill="white">display</text>
</g>
<!-- n13&#45;&gt;n1 -->
<g id="edge17" class="edge"><title>n13&#45;&gt;n1</title>
<path fill="none" stroke="#00cd00" d="M1589.83,-269.617C1532.78,-254.271 1411.51,-221.652 1347.16,-204.341"/>
<polygon fill="#00cd00" stroke="#00cd00" points="1347.9,-200.917 1337.34,-201.699 1346.08,-207.677 1347.9,-200.917"/>
<text text-anchor="middle" x="1525.5" y="-231.8" font-family="Times New Roman,serif" font-size="14.00">identifier</text>
</g>
<!-- n13&#45;&gt;n4 -->
<g id="edge18" class="edge"><title>n13&#45;&gt;n4</title>
<path fill="none" stroke="#00cd00" d="M1584.69,-276.49C1492.73,-272.013 1253.48,-256.119 1191,-210 1165.91,-191.483 1152.5,-157.244 1145.83,-133.121"/>
<polygon fill="#00cd00" stroke="#00cd00" points="1149.15,-131.988 1143.29,-123.161 1142.37,-133.715 1149.15,-131.988"/>
<text text-anchor="middle" x="1224.5" y="-188.3" font-family="Times New Roman,serif" font-size="14.00">providedBy</text>
</g>
<!-- n13&#45;&gt;n5 -->
<g id="edge20" class="edge"><title>n13&#45;&gt;n5</title>
<path fill="none" stroke="black" d="M1656.05,-274.062C1688.86,-269.5 1738.72,-260.283 1779,-243 1803.12,-232.646 1809.96,-229.083 1828,-210 1852.5,-184.073 1843.24,-165.686 1869,-141 1873.91,-136.292 1879.57,-132.032 1885.48,-128.236"/>
<polygon fill="black" stroke="black" points="1887.44,-131.142 1894.23,-123.009 1883.85,-125.132 1887.44,-131.142"/>
<text text-anchor="middle" x="1858.5" y="-188.3" font-family="Times New Roman,serif" font-size="14.00">is a</text>
</g>
<!-- n14 -->
<g id="node14" class="node"><title>n14</title>
<g id="a_node14"><a xlink:href="file:///C:/Sadl3Workspace4/RACK-Ontology-7-29/Graphs/Turnstiles.owl.svg" xlink:title="trnstl:census">
<ellipse fill="blue" stroke="black" cx="1763" cy="-192" rx="55.7903" ry="18"/>
<text text-anchor="middle" x="1763" y="-188.3" font-family="Times New Roman,serif" font-size="14.00" fill="white">trnstl:census</text>
</a>
</g>
</g>
<!-- n13&#45;&gt;n14 -->
<g id="edge19" class="edge"><title>n13&#45;&gt;n14</title>
<path fill="none" stroke="#00cd00" d="M1643.18,-264.719C1666.17,-250.959 1702.39,-229.28 1728.99,-213.356"/>
<polygon fill="#00cd00" stroke="#00cd00" points="1730.83,-216.336 1737.61,-208.196 1727.23,-210.329 1730.83,-216.336"/>
<text text-anchor="middle" x="1738" y="-231.8" font-family="Times New Roman,serif" font-size="14.00">consumedBy</text>
</g>
<!-- n15 -->
<g id="node15" class="node"><title>n15</title>
<ellipse fill="blue" stroke="black" cx="1985" cy="-192" rx="53.8905" ry="18"/>
<text text-anchor="middle" x="1985" y="-188.3" font-family="Times New Roman,serif" font-size="14.00" fill="white">inflowEvent</text>
</g>
<!-- n15&#45;&gt;n2 -->
<g id="edge23" class="edge"><title>n15&#45;&gt;n2</title>
<path fill="none" stroke="#00cd00" d="M1947.15,-179.028C1913.22,-168.464 1862,-152.936 1817,-141 1780.88,-131.423 1739.51,-121.875 1709.38,-115.177"/>
<polygon fill="#00cd00" stroke="#00cd00" points="1710.13,-111.759 1699.61,-113.018 1708.62,-118.594 1710.13,-111.759"/>
<text text-anchor="middle" x="1906" y="-144.8" font-family="Times New Roman,serif" font-size="14.00">consumedBy</text>
</g>
<!-- n15&#45;&gt;n5 -->
<g id="edge24" class="edge"><title>n15&#45;&gt;n5</title>
<path fill="none" stroke="black" d="M1978.78,-173.746C1974.87,-163.828 1969.37,-151.328 1963,-141 1960.91,-137.622 1958.52,-134.22 1956.04,-130.934"/>
<polygon fill="black" stroke="black" points="1958.73,-128.705 1949.75,-123.083 1953.27,-133.078 1958.73,-128.705"/>
<text text-anchor="middle" x="1979.5" y="-144.8" font-family="Times New Roman,serif" font-size="14.00">is a</text>
</g>
<!-- n15&#45;&gt;n15 -->
<g id="edge21" class="edge"><title>n15&#45;&gt;n15</title>
<path fill="none" stroke="#00cd00" d="M2033.75,-199.817C2046.92,-199.404 2056.94,-196.799 2056.94,-192 2056.94,-188.551 2051.77,-186.235 2043.96,-185.052"/>
<polygon fill="#00cd00" stroke="#00cd00" points="2044.01,-181.543 2033.75,-184.183 2043.42,-188.518 2044.01,-181.543"/>
<text text-anchor="middle" x="2100.44" y="-188.3" font-family="Times New Roman,serif" font-size="14.00">identifier</text>
</g>
<!-- n16 -->
<g id="node16" class="node"><title>n16</title>
<g id="a_node16"><a xlink:href="file:///C:/Sadl3Workspace4/RACK-Ontology-7-29/Graphs/Turnstiles.owl.svg" xlink:title="trnstl:inflow">
<ellipse fill="blue" stroke="black" cx="2113" cy="-105" rx="53.0913" ry="18"/>
<text text-anchor="middle" x="2113" y="-101.3" font-family="Times New Roman,serif" font-size="14.00" fill="white">trnstl:inflow</text>
</a>
</g>
</g>
<!-- n15&#45;&gt;n16 -->
<g id="edge22" class="edge"><title>n15&#45;&gt;n16</title>
<path fill="none" stroke="#00cd00" d="M2008.18,-175.607C2028.65,-162.008 2058.7,-142.052 2081.39,-126.991"/>
<polygon fill="#00cd00" stroke="#00cd00" points="2083.59,-129.726 2089.99,-121.278 2079.72,-123.895 2083.59,-129.726"/>
<text text-anchor="middle" x="2089.5" y="-144.8" font-family="Times New Roman,serif" font-size="14.00">providedBy</text>
</g>
<!-- n20 -->
<g id="node20" class="node"><title>n20</title>
<ellipse fill="blue" stroke="black" cx="1525" cy="-192" rx="59.2899" ry="18"/>
<text text-anchor="middle" x="1525" y="-188.3" font-family="Times New Roman,serif" font-size="14.00" fill="white">outflowEvent</text>
</g>
<!-- n20&#45;&gt;n3 -->
<g id="edge33" class="edge"><title>n20&#45;&gt;n3</title>
<path fill="none" stroke="#00cd00" d="M1496.68,-176.123C1485.23,-170.007 1471.92,-162.781 1460,-156 1448.73,-149.593 1446.72,-146.521 1435,-141 1416.21,-132.153 1394.54,-124.25 1376.27,-118.202"/>
<polygon fill="#00cd00" stroke="#00cd00" points="1377.11,-114.793 1366.52,-115.039 1374.95,-121.452 1377.11,-114.793"/>
<text text-anchor="middle" x="1497" y="-144.8" font-family="Times New Roman,serif" font-size="14.00">consumedBy</text>
</g>
<!-- n20&#45;&gt;n5 -->
<g id="edge34" class="edge"><title>n20&#45;&gt;n5</title>
<path fill="none" stroke="black" d="M1576.17,-182.713C1616.02,-176.066 1672.67,-166.19 1722,-156 1766.55,-146.796 1816.05,-135.2 1856,-125.494"/>
<polygon fill="black" stroke="black" points="1857.06,-128.838 1865.94,-123.069 1855.4,-122.038 1857.06,-128.838"/>
<text text-anchor="middle" x="1796.5" y="-144.8" font-family="Times New Roman,serif" font-size="14.00">is a</text>
</g>
<!-- n20&#45;&gt;n20 -->
<g id="edge31" class="edge"><title>n20&#45;&gt;n20</title>
<path fill="none" stroke="#00cd00" d="M1578.36,-199.781C1591.94,-199.269 1602.14,-196.676 1602.14,-192 1602.14,-188.566 1596.64,-186.255 1588.34,-185.067"/>
<polygon fill="#00cd00" stroke="#00cd00" points="1588.62,-181.579 1578.36,-184.219 1588.02,-188.554 1588.62,-181.579"/>
<text text-anchor="middle" x="1645.64" y="-188.3" font-family="Times New Roman,serif" font-size="14.00">identifier</text>
</g>
<!-- n21 -->
<g id="node21" class="node"><title>n21</title>
<g id="a_node21"><a xlink:href="file:///C:/Sadl3Workspace4/RACK-Ontology-7-29/Graphs/Turnstiles.owl.svg" xlink:title="trnstl:outflow">
<ellipse fill="blue" stroke="black" cx="1554" cy="-105" rx="58.4896" ry="18"/>
<text text-anchor="middle" x="1554" y="-101.3" font-family="Times New Roman,serif" font-size="14.00" fill="white">trnstl:outflow</text>
</a>
</g>
</g>
<!-- n20&#45;&gt;n21 -->
<g id="edge32" class="edge"><title>n20&#45;&gt;n21</title>
<path fill="none" stroke="#00cd00" d="M1530.86,-173.799C1534.87,-162.047 1540.27,-146.238 1544.84,-132.842"/>
<polygon fill="#00cd00" stroke="#00cd00" points="1548.22,-133.77 1548.14,-123.175 1541.59,-131.51 1548.22,-133.77"/>
<text text-anchor="middle" x="1575.5" y="-144.8" font-family="Times New Roman,serif" font-size="14.00">providedBy</text>
</g>
</g>
</svg>
