<?xml version="1.0" encoding="UTF-8" standalone="no"?>
<!DOCTYPE svg PUBLIC "-//W3C//DTD SVG 1.1//EN"
 "http://www.w3.org/Graphics/SVG/1.1/DTD/svg11.dtd">
<!-- Generated by graphviz version 2.38.0 (20140413.2041)
 -->
<!-- Title: gtrnstlsys Pages: 1 -->
<svg width="737pt" height="154pt"
 viewBox="0.00 0.00 737.24 154.00" xmlns="http://www.w3.org/2000/svg" xmlns:xlink="http://www.w3.org/1999/xlink">
<g id="graph0" class="graph" transform="scale(1 1) rotate(0) translate(4 150)">
<title>gtrnstlsys</title>
<polygon fill="white" stroke="none" points="-4,4 -4,-150 733.238,-150 733.238,4 -4,4"/>
<text text-anchor="middle" x="100.5" y="-130.8" font-family="Times New Roman,serif" font-size="14.00">Graph of Ontology File: trnstlsys</text>
<!-- n1 -->
<g id="node1" class="node"><title>n1</title>
<ellipse fill="blue" stroke="black" cx="61.7445" cy="-105" rx="61.99" ry="18"/>
<text text-anchor="middle" x="61.7445" y="-101.3" font-family="Times New Roman,serif" font-size="14.00" fill="white">OutputThread</text>
</g>
<!-- n1&#45;&gt;n1 -->
<g id="edge1" class="edge"><title>n1&#45;&gt;n1</title>
<path fill="none" stroke="#00cd00" d="M117.64,-112.752C131.313,-112.178 141.489,-109.594 141.489,-105 141.489,-101.626 136.001,-99.3368 127.67,-98.131"/>
<polygon fill="#00cd00" stroke="#00cd00" points="127.908,-94.6385 117.64,-97.248 127.294,-101.612 127.908,-94.6385"/>
<text text-anchor="middle" x="184.989" y="-101.3" font-family="Times New Roman,serif" font-size="14.00">uniqueIdentifier</text>
</g>
<!-- n2 -->
<g id="node2" class="node"><title>n2</title>
<g id="a_node2"><a xlink:href="file:///C:/sadl/git/RACK/RACK-Ontology/Graphs/Turnstiles.owl.svg" xlink:title="trnstl:CounterApplication">
<ellipse fill="blue" stroke="black" cx="331.745" cy="-18" rx="102.082" ry="18"/>
<text text-anchor="middle" x="331.745" y="-14.3" font-family="Times New Roman,serif" font-size="14.00" fill="white">trnstl:CounterApplication</text>
</a>
</g>
</g>
<!-- n1&#45;&gt;n2 -->
<g id="edge2" class="edge"><title>n1&#45;&gt;n2</title>
<path fill="none" stroke="#00cd00" d="M112.32,-94.6603C142.179,-88.5778 180.515,-79.7747 213.745,-69 239.301,-60.7133 267.001,-49.1199 289.137,-39.1828"/>
<polygon fill="#00cd00" stroke="#00cd00" points="290.603,-42.3613 298.261,-35.0399 287.708,-35.9876 290.603,-42.3613"/>
<text text-anchor="middle" x="272.245" y="-57.8" font-family="Times New Roman,serif" font-size="14.00">partOf</text>
</g>
<!-- n3 -->
<g id="node3" class="node"><title>n3</title>
<g id="a_node3"><a xlink:href="file:///C:/sadl/git/RACK/RACK-Ontology/Graphs/SYSTEM.owl.svg" xlink:title="sys:SYSTEM">
<polygon fill="#00008b" stroke="black" points="211.745,-36 117.745,-36 117.745,-0 211.745,-0 211.745,-36"/>
<text text-anchor="middle" x="164.745" y="-14.3" font-family="Times New Roman,serif" font-size="14.00" fill="white">sys:SYSTEM</text>
</a>
</g>
</g>
<!-- n1&#45;&gt;n3 -->
<g id="edge3" class="edge"><title>n1&#45;&gt;n3</title>
<path fill="none" stroke="black" d="M81.604,-87.6111C96.9766,-74.925 118.49,-57.1709 135.782,-42.9014"/>
<polygon fill="black" stroke="black" points="138.4,-45.2783 143.885,-36.2138 133.945,-39.8793 138.4,-45.2783"/>
<text text-anchor="middle" x="129.245" y="-57.8" font-family="Times New Roman,serif" font-size="14.00">is a</text>
</g>
<!-- n4 -->
<g id="node4" class="node"><title>n4</title>
<ellipse fill="blue" stroke="black" cx="552.745" cy="-105" rx="71.4873" ry="18"/>
<text text-anchor="middle" x="552.745" y="-101.3" font-family="Times New Roman,serif" font-size="14.00" fill="white">ExecutiveThread</text>
</g>
<!-- n4&#45;&gt;n2 -->
<g id="edge5" class="edge"><title>n4&#45;&gt;n2</title>
<path fill="none" stroke="#00cd00" d="M532.559,-87.6686C518.078,-76.6962 497.68,-62.7034 477.745,-54 457.443,-45.1368 434.531,-38.3011 412.979,-33.1235"/>
<polygon fill="#00cd00" stroke="#00cd00" points="413.718,-29.7021 403.186,-30.86 412.141,-36.5223 413.718,-29.7021"/>
<text text-anchor="middle" x="522.245" y="-57.8" font-family="Times New Roman,serif" font-size="14.00">partOf</text>
</g>
<!-- n4&#45;&gt;n3 -->
<g id="edge6" class="edge"><title>n4&#45;&gt;n3</title>
<path fill="none" stroke="black" d="M508.495,-90.7677C469.814,-79.6122 411.977,-63.9228 360.745,-54 302.162,-42.6536 283.857,-48.5107 221.86,-36.012"/>
<polygon fill="black" stroke="black" points="222.461,-32.562 211.956,-33.9373 221.026,-39.4133 222.461,-32.562"/>
<text text-anchor="middle" x="433.245" y="-57.8" font-family="Times New Roman,serif" font-size="14.00">is a</text>
</g>
<!-- n4&#45;&gt;n4 -->
<g id="edge4" class="edge"><title>n4&#45;&gt;n4</title>
<path fill="none" stroke="#00cd00" d="M617.504,-112.663C631.815,-111.943 642.238,-109.389 642.238,-105 642.238,-101.743 636.497,-99.496 627.686,-98.2596"/>
<polygon fill="#00cd00" stroke="#00cd00" points="627.779,-94.7539 617.504,-97.337 627.147,-101.725 627.779,-94.7539"/>
<text text-anchor="middle" x="685.738" y="-101.3" font-family="Times New Roman,serif" font-size="14.00">uniqueIdentifier</text>
</g>
<!-- n5 -->
<g id="node5" class="node"><title>n5</title>
<ellipse fill="blue" stroke="black" cx="302.745" cy="-105" rx="55.7903" ry="18"/>
<text text-anchor="middle" x="302.745" y="-101.3" font-family="Times New Roman,serif" font-size="14.00" fill="white">InputThread</text>
</g>
<!-- n5&#45;&gt;n2 -->
<g id="edge8" class="edge"><title>n5&#45;&gt;n2</title>
<path fill="none" stroke="#00cd00" d="M308.613,-86.799C312.622,-75.0474 318.016,-59.2383 322.587,-45.8421"/>
<polygon fill="#00cd00" stroke="#00cd00" points="325.968,-46.7699 325.885,-36.1754 319.343,-44.5096 325.968,-46.7699"/>
<text text-anchor="middle" x="338.245" y="-57.8" font-family="Times New Roman,serif" font-size="14.00">partOf</text>
</g>
<!-- n5&#45;&gt;n3 -->
<g id="edge9" class="edge"><title>n5&#45;&gt;n3</title>
<path fill="none" stroke="black" d="M262.593,-92.4742C234.242,-84.0853 200.336,-73.4474 194.745,-69 186.832,-62.7066 180.527,-53.7134 175.779,-45.0849"/>
<polygon fill="black" stroke="black" points="178.843,-43.3861 171.237,-36.0103 172.583,-46.5193 178.843,-43.3861"/>
<text text-anchor="middle" x="204.245" y="-57.8" font-family="Times New Roman,serif" font-size="14.00">is a</text>
</g>
<!-- n5&#45;&gt;n5 -->
<g id="edge7" class="edge"><title>n5&#45;&gt;n5</title>
<path fill="none" stroke="#00cd00" d="M353.17,-112.806C366.525,-112.36 376.64,-109.758 376.64,-105 376.64,-101.543 371.3,-99.2244 363.258,-98.0437"/>
<polygon fill="#00cd00" stroke="#00cd00" points="363.428,-94.5458 353.17,-97.1942 362.841,-101.521 363.428,-94.5458"/>
<text text-anchor="middle" x="420.14" y="-101.3" font-family="Times New Roman,serif" font-size="14.00">uniqueIdentifier</text>
</g>
</g>
</svg>
