<?xml version="1.0" encoding="UTF-8" standalone="no"?>
<!DOCTYPE svg PUBLIC "-//W3C//DTD SVG 1.1//EN"
 "http://www.w3.org/Graphics/SVG/1.1/DTD/svg11.dtd">
<!-- Generated by graphviz version 2.38.0 (20140413.2041)
 -->
<!-- Title: gcntrapptst Pages: 1 -->
<svg width="2076pt" height="241pt"
 viewBox="0.00 0.00 2076.40 241.00" xmlns="http://www.w3.org/2000/svg" xmlns:xlink="http://www.w3.org/1999/xlink">
<g id="graph0" class="graph" transform="scale(1 1) rotate(0) translate(4 237)">
<title>gcntrapptst</title>
<polygon fill="white" stroke="none" points="-4,4 -4,-237 2072.4,-237 2072.4,4 -4,4"/>
<text text-anchor="middle" x="105.5" y="-217.8" font-family="Times New Roman,serif" font-size="14.00">Graph of Ontology File: cntrapptst</text>
<!-- n1 -->
<g id="node1" class="node"><title>n1</title>
<ellipse fill="blue" stroke="black" cx="610.554" cy="-192" rx="44.6926" ry="18"/>
<text text-anchor="middle" x="610.554" y="-188.3" font-family="Times New Roman,serif" font-size="14.00" fill="white">TR&#45;1&#45;3&#45;2</text>
</g>
<!-- n1&#45;&gt;n1 -->
<g id="edge1" class="edge"><title>n1&#45;&gt;n1</title>
<path fill="none" stroke="#00cd00" d="M651.052,-199.867C663.57,-199.708 673.4,-197.086 673.4,-192 673.4,-188.424 668.54,-186.066 661.304,-184.926"/>
<polygon fill="#00cd00" stroke="#00cd00" points="661.293,-181.414 651.052,-184.133 660.753,-188.394 661.293,-181.414"/>
<text text-anchor="middle" x="716.9" y="-188.3" font-family="Times New Roman,serif" font-size="14.00">identifier</text>
</g>
<!-- n2 -->
<g id="node2" class="node"><title>n2</title>
<ellipse fill="blue" stroke="black" cx="738.554" cy="-105" rx="37.8943" ry="18"/>
<text text-anchor="middle" x="738.554" y="-101.3" font-family="Times New Roman,serif" font-size="14.00" fill="white">TC&#45;1&#45;3</text>
</g>
<!-- n1&#45;&gt;n2 -->
<g id="edge2" class="edge"><title>n1&#45;&gt;n2</title>
<path fill="none" stroke="#00cd00" d="M588.982,-175.952C577.096,-165.817 566.43,-152.291 575.554,-141 582.996,-131.791 647.514,-120.056 693.107,-112.786"/>
<polygon fill="#00cd00" stroke="#00cd00" points="693.759,-116.226 703.094,-111.216 692.672,-109.311 693.759,-116.226"/>
<text text-anchor="middle" x="600.554" y="-144.8" font-family="Times New Roman,serif" font-size="14.00">confirms</text>
</g>
<!-- n3 -->
<g id="node3" class="node"><title>n3</title>
<g id="a_node3"><a xlink:href="file:///C:/Sadl3Workspace4/RACK-Ontology-7-29/Graphs/TESTING.owl.svg" xlink:title="tst:Passed">
<ellipse fill="blue" stroke="black" cx="577.554" cy="-105" rx="47.3916" ry="18"/>
<text text-anchor="middle" x="577.554" y="-101.3" font-family="Times New Roman,serif" font-size="14.00" fill="white">tst:Passed</text>
</a>
</g>
</g>
<!-- n1&#45;&gt;n3 -->
<g id="edge3" class="edge"><title>n1&#45;&gt;n3</title>
<path fill="none" stroke="#00cd00" d="M568.619,-185.079C551.026,-180.294 532.211,-171.642 521.554,-156 513.168,-143.69 523.429,-132.407 537.36,-123.687"/>
<polygon fill="#00cd00" stroke="#00cd00" points="539.384,-126.563 546.374,-118.602 535.944,-120.466 539.384,-126.563"/>
<text text-anchor="middle" x="537.054" y="-144.8" font-family="Times New Roman,serif" font-size="14.00">result</text>
</g>
<!-- n4 -->
<g id="node4" class="node"><title>n4</title>
<ellipse fill="blue" stroke="black" cx="945.554" cy="-105" rx="46.2923" ry="18"/>
<text text-anchor="middle" x="945.554" y="-101.3" font-family="Times New Roman,serif" font-size="14.00" fill="white">TestRun2</text>
</g>
<!-- n1&#45;&gt;n4 -->
<g id="edge4" class="edge"><title>n1&#45;&gt;n4</title>
<path fill="none" stroke="#00cd00" d="M618.628,-173.993C625.034,-162.556 635.141,-148.286 648.554,-141 695.941,-115.261 837.568,-133.026 890.554,-123 894.474,-122.258 898.51,-121.334 902.528,-120.303"/>
<polygon fill="#00cd00" stroke="#00cd00" points="903.71,-123.608 912.41,-117.562 901.838,-116.863 903.71,-123.608"/>
<text text-anchor="middle" x="681.554" y="-144.8" font-family="Times New Roman,serif" font-size="14.00">executedBy</text>
</g>
<!-- n5 -->
<g id="node5" class="node"><title>n5</title>
<g id="a_node5"><a xlink:href="file:///C:/Sadl3Workspace4/RACK-Ontology-7-29/Graphs/TESTING.owl.svg" xlink:title="tst:TEST_RESULT">
<polygon fill="#00008b" stroke="black" points="1137.55,-123 1009.55,-123 1009.55,-87 1137.55,-87 1137.55,-123"/>
<text text-anchor="middle" x="1073.55" y="-101.3" font-family="Times New Roman,serif" font-size="14.00" fill="white">tst:TEST_RESULT</text>
</a>
</g>
</g>
<!-- n1&#45;&gt;n5 -->
<g id="edge5" class="edge"><title>n1&#45;&gt;n5</title>
<path fill="none" stroke="black" d="M647.933,-181.795C668.329,-175.953 693.616,-167.343 714.554,-156 724.014,-150.875 723.515,-144.869 733.554,-141 786.444,-120.62 927.635,-130.707 999.149,-122.877"/>
<polygon fill="black" stroke="black" points="999.705,-126.335 1009.18,-121.586 998.811,-119.392 999.705,-126.335"/>
<text text-anchor="middle" x="743.054" y="-144.8" font-family="Times New Roman,serif" font-size="14.00">is a</text>
</g>
<!-- n2&#45;&gt;n2 -->
<g id="edge44" class="edge"><title>n2&#45;&gt;n2</title>
<path fill="none" stroke="#00cd00" d="M772.545,-112.871C784.528,-112.997 794.251,-110.373 794.251,-105 794.251,-101.306 789.655,-98.9116 782.889,-97.8168"/>
<polygon fill="#00cd00" stroke="#00cd00" points="782.755,-94.3002 772.545,-97.1293 782.291,-101.285 782.755,-94.3002"/>
<text text-anchor="middle" x="837.751" y="-101.3" font-family="Times New Roman,serif" font-size="14.00">identifier</text>
</g>
<!-- n10 -->
<g id="node10" class="node"><title>n10</title>
<g id="a_node10"><a xlink:href="file:///C:/Sadl3Workspace4/RACK-Ontology-7-29/Graphs/CounterApplicationRequirements.owl.svg" xlink:title="cntrapprq:HLR&#45;1">
<ellipse fill="blue" stroke="black" cx="792.554" cy="-18" rx="73.387" ry="18"/>
<text text-anchor="middle" x="792.554" y="-14.3" font-family="Times New Roman,serif" font-size="14.00" fill="white">cntrapprq:HLR&#45;1</text>
</a>
</g>
</g>
<!-- n2&#45;&gt;n10 -->
<g id="edge45" class="edge"><title>n2&#45;&gt;n10</title>
<path fill="none" stroke="#00cd00" d="M748.966,-87.6111C756.709,-75.4224 767.425,-58.5556 776.293,-44.5958"/>
<polygon fill="#00cd00" stroke="#00cd00" points="779.397,-46.2379 781.805,-35.9203 773.488,-42.4842 779.397,-46.2379"/>
<text text-anchor="middle" x="789.554" y="-57.8" font-family="Times New Roman,serif" font-size="14.00">verifies</text>
</g>
<!-- n11 -->
<g id="node11" class="node"><title>n11</title>
<g id="a_node11"><a xlink:href="file:///C:/Sadl3Workspace4/RACK-Ontology-7-29/Graphs/TESTING.owl.svg" xlink:title="tst:TEST">
<polygon fill="#00008b" stroke="black" points="1250.55,-36 1182.55,-36 1182.55,-0 1250.55,-0 1250.55,-36"/>
<text text-anchor="middle" x="1216.55" y="-14.3" font-family="Times New Roman,serif" font-size="14.00" fill="white">tst:TEST</text>
</a>
</g>
</g>
<!-- n2&#45;&gt;n11 -->
<g id="edge46" class="edge"><title>n2&#45;&gt;n11</title>
<path fill="none" stroke="black" d="M770.302,-94.977C810.049,-83.9602 880.357,-65.3919 941.554,-54 963.68,-49.8812 1100.29,-33.0957 1172.27,-24.3528"/>
<polygon fill="black" stroke="black" points="1172.89,-27.8028 1182.4,-23.1236 1172.05,-20.8537 1172.89,-27.8028"/>
<text text-anchor="middle" x="951.054" y="-57.8" font-family="Times New Roman,serif" font-size="14.00">is a</text>
</g>
<!-- n12 -->
<g id="node12" class="node"><title>n12</title>
<g id="a_node12"><a xlink:href="file:///C:/Sadl3Workspace4/RACK-Ontology-7-29/Graphs/TESTING.owl.svg" xlink:title="tst:TEST_EXECUTION">
<polygon fill="#00008b" stroke="black" points="1064.05,-36 909.054,-36 909.054,-0 1064.05,-0 1064.05,-36"/>
<text text-anchor="middle" x="986.554" y="-14.3" font-family="Times New Roman,serif" font-size="14.00" fill="white">tst:TEST_EXECUTION</text>
</a>
</g>
</g>
<!-- n4&#45;&gt;n12 -->
<g id="edge33" class="edge"><title>n4&#45;&gt;n12</title>
<path fill="none" stroke="black" d="M953.654,-87.2067C959.401,-75.2934 967.229,-59.0634 973.808,-45.4242"/>
<polygon fill="black" stroke="black" points="977.138,-46.5769 978.33,-36.0493 970.833,-43.5357 977.138,-46.5769"/>
<text text-anchor="middle" x="978.054" y="-57.8" font-family="Times New Roman,serif" font-size="14.00">is a</text>
</g>
<!-- n6 -->
<g id="node6" class="node"><title>n6</title>
<ellipse fill="blue" stroke="black" cx="362.554" cy="-192" rx="44.6926" ry="18"/>
<text text-anchor="middle" x="362.554" y="-188.3" font-family="Times New Roman,serif" font-size="14.00" fill="white">TR&#45;1&#45;2&#45;1</text>
</g>
<!-- n6&#45;&gt;n3 -->
<g id="edge8" class="edge"><title>n6&#45;&gt;n3</title>
<path fill="none" stroke="#00cd00" d="M345.339,-175.34C335.815,-164.81 327.556,-151.067 336.554,-141 360.398,-114.323 461.228,-128.681 496.554,-123 506.875,-121.34 517.871,-119.251 528.325,-117.11"/>
<polygon fill="#00cd00" stroke="#00cd00" points="529.073,-120.53 538.143,-115.054 527.638,-113.678 529.073,-120.53"/>
<text text-anchor="middle" x="352.054" y="-144.8" font-family="Times New Roman,serif" font-size="14.00">result</text>
</g>
<!-- n6&#45;&gt;n5 -->
<g id="edge10" class="edge"><title>n6&#45;&gt;n5</title>
<path fill="none" stroke="black" d="M367.254,-173.952C371.385,-162.496 378.643,-148.22 390.554,-141 418.075,-124.319 912.676,-127.022 998.983,-122.511"/>
<polygon fill="black" stroke="black" points="999.495,-125.982 1009.19,-121.721 998.955,-119.003 999.495,-125.982"/>
<text text-anchor="middle" x="400.054" y="-144.8" font-family="Times New Roman,serif" font-size="14.00">is a</text>
</g>
<!-- n6&#45;&gt;n6 -->
<g id="edge6" class="edge"><title>n6&#45;&gt;n6</title>
<path fill="none" stroke="#00cd00" d="M403.052,-199.867C415.57,-199.708 425.4,-197.086 425.4,-192 425.4,-188.424 420.54,-186.066 413.304,-184.926"/>
<polygon fill="#00cd00" stroke="#00cd00" points="413.293,-181.414 403.052,-184.133 412.753,-188.394 413.293,-181.414"/>
<text text-anchor="middle" x="468.9" y="-188.3" font-family="Times New Roman,serif" font-size="14.00">identifier</text>
</g>
<!-- n7 -->
<g id="node7" class="node"><title>n7</title>
<ellipse fill="blue" stroke="black" cx="344.554" cy="-105" rx="37.8943" ry="18"/>
<text text-anchor="middle" x="344.554" y="-101.3" font-family="Times New Roman,serif" font-size="14.00" fill="white">TC&#45;1&#45;2</text>
</g>
<!-- n6&#45;&gt;n7 -->
<g id="edge7" class="edge"><title>n6&#45;&gt;n7</title>
<path fill="none" stroke="#00cd00" d="M319.368,-187.038C298.915,-182.742 276.237,-173.936 263.554,-156 250.271,-137.215 275.389,-124.075 301.07,-115.995"/>
<polygon fill="#00cd00" stroke="#00cd00" points="302.238,-119.3 310.861,-113.145 300.282,-112.579 302.238,-119.3"/>
<text text-anchor="middle" x="288.554" y="-144.8" font-family="Times New Roman,serif" font-size="14.00">confirms</text>
</g>
<!-- n8 -->
<g id="node8" class="node"><title>n8</title>
<ellipse fill="blue" stroke="black" cx="1201.55" cy="-105" rx="46.2923" ry="18"/>
<text text-anchor="middle" x="1201.55" y="-101.3" font-family="Times New Roman,serif" font-size="14.00" fill="white">TestRun1</text>
</g>
<!-- n6&#45;&gt;n8 -->
<g id="edge9" class="edge"><title>n6&#45;&gt;n8</title>
<path fill="none" stroke="#00cd00" d="M382.092,-175.775C398.725,-163.804 423.796,-148.018 448.554,-141 597.836,-98.6862 993.443,-148.146 1146.55,-123 1150.66,-122.326 1154.88,-121.421 1159.08,-120.379"/>
<polygon fill="#00cd00" stroke="#00cd00" points="1160.02,-123.75 1168.75,-117.742 1158.18,-116.997 1160.02,-123.75"/>
<text text-anchor="middle" x="481.554" y="-144.8" font-family="Times New Roman,serif" font-size="14.00">executedBy</text>
</g>
<!-- n7&#45;&gt;n7 -->
<g id="edge20" class="edge"><title>n7&#45;&gt;n7</title>
<path fill="none" stroke="#00cd00" d="M378.545,-112.871C390.528,-112.997 400.251,-110.373 400.251,-105 400.251,-101.306 395.655,-98.9116 388.889,-97.8168"/>
<polygon fill="#00cd00" stroke="#00cd00" points="388.755,-94.3002 378.545,-97.1293 388.291,-101.285 388.755,-94.3002"/>
<text text-anchor="middle" x="443.751" y="-101.3" font-family="Times New Roman,serif" font-size="14.00">identifier</text>
</g>
<!-- n7&#45;&gt;n10 -->
<g id="edge21" class="edge"><title>n7&#45;&gt;n10</title>
<path fill="none" stroke="#00cd00" d="M377.923,-96.386C423.39,-86.1293 507.411,-67.5944 579.554,-54 626.844,-45.0888 680.286,-36.3111 721.808,-29.7751"/>
<polygon fill="#00cd00" stroke="#00cd00" points="722.488,-33.2113 731.826,-28.2052 721.405,-26.2957 722.488,-33.2113"/>
<text text-anchor="middle" x="599.554" y="-57.8" font-family="Times New Roman,serif" font-size="14.00">verifies</text>
</g>
<!-- n7&#45;&gt;n11 -->
<g id="edge22" class="edge"><title>n7&#45;&gt;n11</title>
<path fill="none" stroke="black" d="M380.407,-99.4269C476.049,-87.2325 730.615,-54.8063 739.554,-54 887.171,-40.6849 924.883,-48.6949 1072.55,-36 1106.06,-33.1195 1143.81,-28.6158 1172.25,-24.9675"/>
<polygon fill="black" stroke="black" points="1172.82,-28.4236 1182.28,-23.6667 1171.92,-21.4817 1172.82,-28.4236"/>
<text text-anchor="middle" x="749.054" y="-57.8" font-family="Times New Roman,serif" font-size="14.00">is a</text>
</g>
<!-- n8&#45;&gt;n12 -->
<g id="edge14" class="edge"><title>n8&#45;&gt;n12</title>
<path fill="none" stroke="black" d="M1170.29,-91.6403C1135.93,-78.0564 1080.17,-56.009 1039.07,-39.7616"/>
<polygon fill="black" stroke="black" points="1040.34,-36.499 1029.75,-36.0772 1037.76,-43.0087 1040.34,-36.499"/>
<text text-anchor="middle" x="1117.05" y="-57.8" font-family="Times New Roman,serif" font-size="14.00">is a</text>
</g>
<!-- n9 -->
<g id="node9" class="node"><title>n9</title>
<ellipse fill="blue" stroke="black" cx="1584.55" cy="-105" rx="37.8943" ry="18"/>
<text text-anchor="middle" x="1584.55" y="-101.3" font-family="Times New Roman,serif" font-size="14.00" fill="white">TC&#45;1&#45;4</text>
</g>
<!-- n9&#45;&gt;n9 -->
<g id="edge11" class="edge"><title>n9&#45;&gt;n9</title>
<path fill="none" stroke="#00cd00" d="M1618.54,-112.871C1630.53,-112.997 1640.25,-110.373 1640.25,-105 1640.25,-101.306 1635.66,-98.9116 1628.89,-97.8168"/>
<polygon fill="#00cd00" stroke="#00cd00" points="1628.76,-94.3002 1618.54,-97.1293 1628.29,-101.285 1628.76,-94.3002"/>
<text text-anchor="middle" x="1683.75" y="-101.3" font-family="Times New Roman,serif" font-size="14.00">identifier</text>
</g>
<!-- n9&#45;&gt;n10 -->
<g id="edge12" class="edge"><title>n9&#45;&gt;n10</title>
<path fill="none" stroke="#00cd00" d="M1550.56,-96.8761C1495.71,-85.6956 1384.16,-64.2489 1288.55,-54 1116.47,-35.5527 1071.73,-53.6058 899.554,-36 886.656,-34.6811 872.946,-32.84 859.797,-30.8535"/>
<polygon fill="#00cd00" stroke="#00cd00" points="860.293,-27.3885 849.874,-29.3123 859.218,-34.3056 860.293,-27.3885"/>
<text text-anchor="middle" x="1415.55" y="-57.8" font-family="Times New Roman,serif" font-size="14.00">verifies</text>
</g>
<!-- n9&#45;&gt;n11 -->
<g id="edge13" class="edge"><title>n9&#45;&gt;n11</title>
<path fill="none" stroke="black" d="M1561.33,-90.7542C1539.98,-79.1912 1507.1,-62.9064 1476.55,-54 1402.92,-32.5315 1313.66,-24.1624 1261.19,-20.9486"/>
<polygon fill="black" stroke="black" points="1261.07,-17.4361 1250.88,-20.3552 1260.67,-24.4245 1261.07,-17.4361"/>
<text text-anchor="middle" x="1526.05" y="-57.8" font-family="Times New Roman,serif" font-size="14.00">is a</text>
</g>
<!-- n13 -->
<g id="node13" class="node"><title>n13</title>
<ellipse fill="blue" stroke="black" cx="1918.55" cy="-192" rx="44.6926" ry="18"/>
<text text-anchor="middle" x="1918.55" y="-188.3" font-family="Times New Roman,serif" font-size="14.00" fill="white">TR&#45;1&#45;4&#45;1</text>
</g>
<!-- n13&#45;&gt;n5 -->
<g id="edge19" class="edge"><title>n13&#45;&gt;n5</title>
<path fill="none" stroke="black" d="M1880.2,-182.576C1858.16,-176.851 1830.41,-168.101 1807.55,-156 1798.05,-150.966 1798.67,-144.671 1788.55,-141 1723.9,-117.533 1253.19,-131.072 1148.14,-122.756"/>
<polygon fill="black" stroke="black" points="1148.21,-119.246 1137.91,-121.726 1147.51,-126.21 1148.21,-119.246"/>
<text text-anchor="middle" x="1817.05" y="-144.8" font-family="Times New Roman,serif" font-size="14.00">is a</text>
</g>
<!-- n13&#45;&gt;n8 -->
<g id="edge18" class="edge"><title>n13&#45;&gt;n8</title>
<path fill="none" stroke="#00cd00" d="M1889.99,-178.091C1877.28,-171.954 1862.34,-164.176 1849.55,-156 1840.49,-150.205 1840.66,-144.687 1830.55,-141 1770.61,-119.131 1319.49,-133.516 1256.55,-123 1252.45,-122.314 1248.23,-121.402 1244.03,-120.355"/>
<polygon fill="#00cd00" stroke="#00cd00" points="1244.93,-116.973 1234.36,-117.712 1243.09,-123.725 1244.93,-116.973"/>
<text text-anchor="middle" x="1882.55" y="-144.8" font-family="Times New Roman,serif" font-size="14.00">executedBy</text>
</g>
<!-- n13&#45;&gt;n9 -->
<g id="edge16" class="edge"><title>n13&#45;&gt;n9</title>
<path fill="none" stroke="#00cd00" d="M1924.22,-174.123C1926.68,-163.336 1927.46,-149.773 1919.55,-141 1910.05,-130.448 1721.98,-115.751 1631.89,-109.28"/>
<polygon fill="#00cd00" stroke="#00cd00" points="1631.89,-105.771 1621.66,-108.551 1631.39,-112.753 1631.89,-105.771"/>
<text text-anchor="middle" x="1950.55" y="-144.8" font-family="Times New Roman,serif" font-size="14.00">confirms</text>
</g>
<!-- n13&#45;&gt;n13 -->
<g id="edge15" class="edge"><title>n13&#45;&gt;n13</title>
<path fill="none" stroke="#00cd00" d="M1959.05,-199.867C1971.57,-199.708 1981.4,-197.086 1981.4,-192 1981.4,-188.424 1976.54,-186.066 1969.3,-184.926"/>
<polygon fill="#00cd00" stroke="#00cd00" points="1969.29,-181.414 1959.05,-184.133 1968.75,-188.394 1969.29,-181.414"/>
<text text-anchor="middle" x="2024.9" y="-188.3" font-family="Times New Roman,serif" font-size="14.00">identifier</text>
</g>
<!-- n14 -->
<g id="node14" class="node"><title>n14</title>
<g id="a_node14"><a xlink:href="file:///C:/Sadl3Workspace4/RACK-Ontology-7-29/Graphs/TESTING.owl.svg" xlink:title="tst:Failed">
<ellipse fill="blue" stroke="black" cx="1854.55" cy="-105" rx="43.5923" ry="18"/>
<text text-anchor="middle" x="1854.55" y="-101.3" font-family="Times New Roman,serif" font-size="14.00" fill="white">tst:Failed</text>
</a>
</g>
</g>
<!-- n13&#45;&gt;n14 -->
<g id="edge17" class="edge"><title>n13&#45;&gt;n14</title>
<path fill="none" stroke="#00cd00" d="M1954.99,-181.309C1980.07,-172.805 2006.55,-158.989 1992.55,-141 1981.78,-127.151 1940.51,-117.898 1905.88,-112.402"/>
<polygon fill="#00cd00" stroke="#00cd00" points="1906.27,-108.921 1895.86,-110.884 1905.22,-115.842 1906.27,-108.921"/>
<text text-anchor="middle" x="2011.05" y="-144.8" font-family="Times New Roman,serif" font-size="14.00">result</text>
</g>
<!-- n15 -->
<g id="node15" class="node"><title>n15</title>
<ellipse fill="blue" stroke="black" cx="104.554" cy="-192" rx="44.6926" ry="18"/>
<text text-anchor="middle" x="104.554" y="-188.3" font-family="Times New Roman,serif" font-size="14.00" fill="white">TR&#45;1&#45;2&#45;2</text>
</g>
<!-- n15&#45;&gt;n3 -->
<g id="edge25" class="edge"><title>n15&#45;&gt;n3</title>
<path fill="none" stroke="#00cd00" d="M87.1214,-175.139C77.4994,-164.518 69.2144,-150.751 78.5541,-141 94.6325,-124.214 473.492,-125.897 496.554,-123 507.034,-121.684 518.174,-119.722 528.731,-117.593"/>
<polygon fill="#00cd00" stroke="#00cd00" points="529.564,-120.995 538.633,-115.517 528.128,-114.144 529.564,-120.995"/>
<text text-anchor="middle" x="94.0541" y="-144.8" font-family="Times New Roman,serif" font-size="14.00">result</text>
</g>
<!-- n15&#45;&gt;n4 -->
<g id="edge26" class="edge"><title>n15&#45;&gt;n4</title>
<path fill="none" stroke="#00cd00" d="M109.241,-173.931C113.367,-162.465 120.622,-148.185 132.554,-141 168.639,-119.27 848.981,-129.784 890.554,-123 894.66,-122.33 898.885,-121.428 903.081,-120.388"/>
<polygon fill="#00cd00" stroke="#00cd00" points="904.024,-123.759 912.752,-117.754 902.184,-117.005 904.024,-123.759"/>
<text text-anchor="middle" x="165.554" y="-144.8" font-family="Times New Roman,serif" font-size="14.00">executedBy</text>
</g>
<!-- n15&#45;&gt;n5 -->
<g id="edge27" class="edge"><title>n15&#45;&gt;n5</title>
<path fill="none" stroke="black" d="M136.349,-179.258C154.574,-172.503 177.87,-163.828 198.554,-156 215.923,-149.426 219.336,-144.605 237.554,-141 400.843,-108.684 816.494,-143.024 999.094,-122.94"/>
<polygon fill="black" stroke="black" points="999.679,-126.395 1009.2,-121.742 998.855,-119.444 999.679,-126.395"/>
<text text-anchor="middle" x="247.054" y="-144.8" font-family="Times New Roman,serif" font-size="14.00">is a</text>
</g>
<!-- n15&#45;&gt;n7 -->
<g id="edge24" class="edge"><title>n15&#45;&gt;n7</title>
<path fill="none" stroke="#00cd00" d="M63.5159,-184.628C27.933,-177.429 -14.8883,-163.662 5.55411,-141 24.7102,-119.764 208.299,-110.641 297.017,-107.447"/>
<polygon fill="#00cd00" stroke="#00cd00" points="297.221,-110.942 307.093,-107.095 296.977,-103.947 297.221,-110.942"/>
<text text-anchor="middle" x="30.5541" y="-144.8" font-family="Times New Roman,serif" font-size="14.00">confirms</text>
</g>
<!-- n15&#45;&gt;n15 -->
<g id="edge23" class="edge"><title>n15&#45;&gt;n15</title>
<path fill="none" stroke="#00cd00" d="M145.052,-199.867C157.57,-199.708 167.4,-197.086 167.4,-192 167.4,-188.424 162.54,-186.066 155.304,-184.926"/>
<polygon fill="#00cd00" stroke="#00cd00" points="155.293,-181.414 145.052,-184.133 154.753,-188.394 155.293,-181.414"/>
<text text-anchor="middle" x="210.9" y="-188.3" font-family="Times New Roman,serif" font-size="14.00">identifier</text>
</g>
<!-- n16 -->
<g id="node16" class="node"><title>n16</title>
<ellipse fill="blue" stroke="black" cx="1369.55" cy="-192" rx="44.6926" ry="18"/>
<text text-anchor="middle" x="1369.55" y="-188.3" font-family="Times New Roman,serif" font-size="14.00" fill="white">TR&#45;1&#45;1&#45;1</text>
</g>
<!-- n16&#45;&gt;n3 -->
<g id="edge30" class="edge"><title>n16&#45;&gt;n3</title>
<path fill="none" stroke="#00cd00" d="M1338.3,-179.055C1323.67,-172.949 1306.28,-164.926 1291.55,-156 1282.35,-150.422 1282.66,-144.685 1272.55,-141 1211.88,-118.876 755.882,-128.773 691.554,-123 671.281,-121.181 649.121,-118.123 629.773,-115.099"/>
<polygon fill="#00cd00" stroke="#00cd00" points="630.069,-111.602 619.641,-113.479 628.963,-118.514 630.069,-111.602"/>
<text text-anchor="middle" x="1307.05" y="-144.8" font-family="Times New Roman,serif" font-size="14.00">result</text>
</g>
<!-- n16&#45;&gt;n5 -->
<g id="edge32" class="edge"><title>n16&#45;&gt;n5</title>
<path fill="none" stroke="black" d="M1357.46,-174.422C1347.62,-161.45 1334.17,-144.966 1326.55,-141 1293.2,-123.63 1199.42,-128.759 1147.63,-122.798"/>
<polygon fill="black" stroke="black" points="1147.94,-119.308 1137.55,-121.397 1146.98,-126.241 1147.94,-119.308"/>
<text text-anchor="middle" x="1352.05" y="-144.8" font-family="Times New Roman,serif" font-size="14.00">is a</text>
</g>
<!-- n16&#45;&gt;n8 -->
<g id="edge31" class="edge"><title>n16&#45;&gt;n8</title>
<path fill="none" stroke="#00cd00" d="M1374.29,-173.738C1376.1,-163.067 1376.19,-149.779 1368.55,-141 1352.01,-121.977 1281.1,-128.736 1256.55,-123 1252.88,-122.142 1249.1,-121.168 1245.32,-120.131"/>
<polygon fill="#00cd00" stroke="#00cd00" points="1245.96,-116.674 1235.38,-117.273 1244.03,-123.401 1245.96,-116.674"/>
<text text-anchor="middle" x="1408.55" y="-144.8" font-family="Times New Roman,serif" font-size="14.00">executedBy</text>
</g>
<!-- n16&#45;&gt;n16 -->
<g id="edge28" class="edge"><title>n16&#45;&gt;n16</title>
<path fill="none" stroke="#00cd00" d="M1410.05,-199.867C1422.57,-199.708 1432.4,-197.086 1432.4,-192 1432.4,-188.424 1427.54,-186.066 1420.3,-184.926"/>
<polygon fill="#00cd00" stroke="#00cd00" points="1420.29,-181.414 1410.05,-184.133 1419.75,-188.394 1420.29,-181.414"/>
<text text-anchor="middle" x="1475.9" y="-188.3" font-family="Times New Roman,serif" font-size="14.00">identifier</text>
</g>
<!-- n17 -->
<g id="node17" class="node"><title>n17</title>
<ellipse fill="blue" stroke="black" cx="1303.55" cy="-105" rx="37.8943" ry="18"/>
<text text-anchor="middle" x="1303.55" y="-101.3" font-family="Times New Roman,serif" font-size="14.00" fill="white">TC&#45;1&#45;1</text>
</g>
<!-- n16&#45;&gt;n17 -->
<g id="edge29" class="edge"><title>n16&#45;&gt;n17</title>
<path fill="none" stroke="#00cd00" d="M1409.27,-183.36C1439.84,-175.677 1474.27,-161.943 1457.55,-141 1444.34,-124.442 1390.95,-115.12 1350.72,-110.332"/>
<polygon fill="#00cd00" stroke="#00cd00" points="1350.87,-106.828 1340.54,-109.183 1350.09,-113.783 1350.87,-106.828"/>
<text text-anchor="middle" x="1487.55" y="-144.8" font-family="Times New Roman,serif" font-size="14.00">confirms</text>
</g>
<!-- n17&#45;&gt;n10 -->
<g id="edge48" class="edge"><title>n17&#45;&gt;n10</title>
<path fill="none" stroke="#00cd00" d="M1274.86,-93.154C1268.85,-91.0125 1262.52,-88.8558 1256.55,-87 1201.28,-69.8039 1187.64,-63.6202 1130.55,-54 1029.01,-36.8868 1001.82,-48.0888 899.554,-36 887.026,-34.519 873.718,-32.6472 860.898,-30.6909"/>
<polygon fill="#00cd00" stroke="#00cd00" points="861.166,-27.1905 850.746,-29.1098 860.089,-34.1071 861.166,-27.1905"/>
<text text-anchor="middle" x="1218.55" y="-57.8" font-family="Times New Roman,serif" font-size="14.00">verifies</text>
</g>
<!-- n17&#45;&gt;n11 -->
<g id="edge49" class="edge"><title>n17&#45;&gt;n11</title>
<path fill="none" stroke="black" d="M1287.6,-88.4097C1274.73,-75.8393 1256.4,-57.9333 1241.59,-43.457"/>
<polygon fill="black" stroke="black" points="1243.8,-40.7307 1234.21,-36.2458 1238.91,-45.7377 1243.8,-40.7307"/>
<text text-anchor="middle" x="1275.05" y="-57.8" font-family="Times New Roman,serif" font-size="14.00">is a</text>
</g>
<!-- n17&#45;&gt;n17 -->
<g id="edge47" class="edge"><title>n17&#45;&gt;n17</title>
<path fill="none" stroke="#00cd00" d="M1337.54,-112.871C1349.53,-112.997 1359.25,-110.373 1359.25,-105 1359.25,-101.306 1354.66,-98.9116 1347.89,-97.8168"/>
<polygon fill="#00cd00" stroke="#00cd00" points="1347.76,-94.3002 1337.54,-97.1293 1347.29,-101.285 1347.76,-94.3002"/>
<text text-anchor="middle" x="1402.75" y="-101.3" font-family="Times New Roman,serif" font-size="14.00">identifier</text>
</g>
<!-- n18 -->
<g id="node18" class="node"><title>n18</title>
<ellipse fill="blue" stroke="black" cx="1662.55" cy="-192" rx="44.6926" ry="18"/>
<text text-anchor="middle" x="1662.55" y="-188.3" font-family="Times New Roman,serif" font-size="14.00" fill="white">TR&#45;1&#45;4&#45;2</text>
</g>
<!-- n18&#45;&gt;n4 -->
<g id="edge37" class="edge"><title>n18&#45;&gt;n4</title>
<path fill="none" stroke="#00cd00" d="M1626.54,-181.104C1604.14,-174.643 1574.89,-165.639 1549.55,-156 1534.5,-150.272 1532.24,-144.685 1516.55,-141 1404.86,-114.759 1113.69,-142.109 1000.55,-123 996.452,-122.307 992.23,-121.39 988.035,-120.34"/>
<polygon fill="#00cd00" stroke="#00cd00" points="988.936,-116.958 978.366,-117.692 987.087,-123.709 988.936,-116.958"/>
<text text-anchor="middle" x="1582.55" y="-144.8" font-family="Times New Roman,serif" font-size="14.00">executedBy</text>
</g>
<!-- n18&#45;&gt;n5 -->
<g id="edge38" class="edge"><title>n18&#45;&gt;n5</title>
<path fill="none" stroke="black" d="M1650.72,-174.56C1640.9,-161.475 1627.34,-144.754 1619.55,-141 1574.31,-119.184 1231.58,-129.002 1147.94,-122.693"/>
<polygon fill="black" stroke="black" points="1148.22,-119.203 1137.92,-121.69 1147.52,-126.168 1148.22,-119.203"/>
<text text-anchor="middle" x="1646.05" y="-144.8" font-family="Times New Roman,serif" font-size="14.00">is a</text>
</g>
<!-- n18&#45;&gt;n9 -->
<g id="edge35" class="edge"><title>n18&#45;&gt;n9</title>
<path fill="none" stroke="#00cd00" d="M1666.51,-173.91C1667.92,-163.568 1667.85,-150.573 1661.55,-141 1653.9,-129.368 1641.35,-121.551 1628.58,-116.319"/>
<polygon fill="#00cd00" stroke="#00cd00" points="1629.45,-112.911 1618.85,-112.802 1627.07,-119.494 1629.45,-112.911"/>
<text text-anchor="middle" x="1692.55" y="-144.8" font-family="Times New Roman,serif" font-size="14.00">confirms</text>
</g>
<!-- n18&#45;&gt;n14 -->
<g id="edge36" class="edge"><title>n18&#45;&gt;n14</title>
<path fill="none" stroke="#00cd00" d="M1687.09,-176.882C1706.01,-166.297 1733,-151.83 1757.55,-141 1774.94,-133.33 1794.59,-126.002 1811.64,-120.052"/>
<polygon fill="#00cd00" stroke="#00cd00" points="1813.02,-123.279 1821.33,-116.716 1810.74,-116.66 1813.02,-123.279"/>
<text text-anchor="middle" x="1773.05" y="-144.8" font-family="Times New Roman,serif" font-size="14.00">result</text>
</g>
<!-- n18&#45;&gt;n18 -->
<g id="edge34" class="edge"><title>n18&#45;&gt;n18</title>
<path fill="none" stroke="#00cd00" d="M1703.05,-199.867C1715.57,-199.708 1725.4,-197.086 1725.4,-192 1725.4,-188.424 1720.54,-186.066 1713.3,-184.926"/>
<polygon fill="#00cd00" stroke="#00cd00" points="1713.29,-181.414 1703.05,-184.133 1712.75,-188.394 1713.29,-181.414"/>
<text text-anchor="middle" x="1768.9" y="-188.3" font-family="Times New Roman,serif" font-size="14.00">identifier</text>
</g>
<!-- n19 -->
<g id="node19" class="node"><title>n19</title>
<ellipse fill="blue" stroke="black" cx="868.554" cy="-192" rx="44.6926" ry="18"/>
<text text-anchor="middle" x="868.554" y="-188.3" font-family="Times New Roman,serif" font-size="14.00" fill="white">TR&#45;1&#45;3&#45;1</text>
</g>
<!-- n19&#45;&gt;n2 -->
<g id="edge40" class="edge"><title>n19&#45;&gt;n2</title>
<path fill="none" stroke="#00cd00" d="M852.226,-174.892C841.083,-164.429 825.658,-150.938 810.554,-141 799.669,-133.838 787.101,-127.228 775.541,-121.725"/>
<polygon fill="#00cd00" stroke="#00cd00" points="776.674,-118.393 766.128,-117.376 773.738,-124.748 776.674,-118.393"/>
<text text-anchor="middle" x="854.554" y="-144.8" font-family="Times New Roman,serif" font-size="14.00">confirms</text>
</g>
<!-- n19&#45;&gt;n3 -->
<g id="edge41" class="edge"><title>n19&#45;&gt;n3</title>
<path fill="none" stroke="#00cd00" d="M833.407,-180.63C815.5,-174.646 793.73,-166.265 775.554,-156 766.186,-150.709 766.33,-145.492 756.554,-141 734.665,-130.943 675.567,-120.477 631.22,-113.641"/>
<polygon fill="#00cd00" stroke="#00cd00" points="631.563,-110.153 621.15,-112.112 630.511,-117.074 631.563,-110.153"/>
<text text-anchor="middle" x="791.054" y="-144.8" font-family="Times New Roman,serif" font-size="14.00">result</text>
</g>
<!-- n19&#45;&gt;n5 -->
<g id="edge43" class="edge"><title>n19&#45;&gt;n5</title>
<path fill="none" stroke="black" d="M877.182,-173.978C883.724,-162.839 893.767,-148.929 906.554,-141 940.234,-120.116 956.63,-130.182 999.589,-122.958"/>
<polygon fill="black" stroke="black" points="1000.32,-126.381 1009.49,-121.07 999.013,-119.505 1000.32,-126.381"/>
<text text-anchor="middle" x="916.054" y="-144.8" font-family="Times New Roman,serif" font-size="14.00">is a</text>
</g>
<!-- n19&#45;&gt;n8 -->
<g id="edge42" class="edge"><title>n19&#45;&gt;n8</title>
<path fill="none" stroke="#00cd00" d="M892.216,-176.669C902.5,-170.389 914.663,-162.894 925.554,-156 935.866,-149.473 937.026,-145.004 948.554,-141 1032.03,-112.009 1059.87,-140.141 1146.55,-123 1150.41,-122.237 1154.39,-121.306 1158.35,-120.277"/>
<polygon fill="#00cd00" stroke="#00cd00" points="1159.41,-123.616 1168.1,-117.559 1157.53,-116.874 1159.41,-123.616"/>
<text text-anchor="middle" x="981.554" y="-144.8" font-family="Times New Roman,serif" font-size="14.00">executedBy</text>
</g>
<!-- n19&#45;&gt;n19 -->
<g id="edge39" class="edge"><title>n19&#45;&gt;n19</title>
<path fill="none" stroke="#00cd00" d="M909.052,-199.867C921.57,-199.708 931.4,-197.086 931.4,-192 931.4,-188.424 926.54,-186.066 919.304,-184.926"/>
<polygon fill="#00cd00" stroke="#00cd00" points="919.293,-181.414 909.052,-184.133 918.753,-188.394 919.293,-181.414"/>
<text text-anchor="middle" x="974.9" y="-188.3" font-family="Times New Roman,serif" font-size="14.00">identifier</text>
</g>
<!-- n20 -->
<g id="node20" class="node"><title>n20</title>
<ellipse fill="blue" stroke="black" cx="1123.55" cy="-192" rx="44.6926" ry="18"/>
<text text-anchor="middle" x="1123.55" y="-188.3" font-family="Times New Roman,serif" font-size="14.00" fill="white">TR&#45;1&#45;1&#45;2</text>
</g>
<!-- n20&#45;&gt;n3 -->
<g id="edge52" class="edge"><title>n20&#45;&gt;n3</title>
<path fill="none" stroke="#00cd00" d="M1089.13,-180.319C1071.88,-174.304 1051.02,-165.989 1033.55,-156 1024.22,-150.658 1024.62,-144.81 1014.55,-141 947.324,-115.542 763.071,-130.309 691.554,-123 671.39,-120.939 649.334,-117.848 630.041,-114.864"/>
<polygon fill="#00cd00" stroke="#00cd00" points="630.357,-111.37 619.934,-113.272 629.267,-118.285 630.357,-111.37"/>
<text text-anchor="middle" x="1049.05" y="-144.8" font-family="Times New Roman,serif" font-size="14.00">result</text>
</g>
<!-- n20&#45;&gt;n4 -->
<g id="edge53" class="edge"><title>n20&#45;&gt;n4</title>
<path fill="none" stroke="#00cd00" d="M1106.96,-175.173C1092.43,-161.446 1072.97,-143.405 1068.55,-141 1041.09,-126.059 1030.61,-131.618 1000.55,-123 997.186,-122.034 993.708,-121.014 990.215,-119.972"/>
<polygon fill="#00cd00" stroke="#00cd00" points="990.989,-116.55 980.404,-117.008 988.964,-123.251 990.989,-116.55"/>
<text text-anchor="middle" x="1118.55" y="-144.8" font-family="Times New Roman,serif" font-size="14.00">executedBy</text>
</g>
<!-- n20&#45;&gt;n5 -->
<g id="edge54" class="edge"><title>n20&#45;&gt;n5</title>
<path fill="none" stroke="black" d="M1144.68,-175.731C1155.68,-165.855 1165.36,-152.704 1157.55,-141 1154.43,-136.317 1150.55,-132.26 1146.19,-128.744"/>
<polygon fill="black" stroke="black" points="1148.08,-125.795 1137.86,-122.984 1144.09,-131.552 1148.08,-125.795"/>
<text text-anchor="middle" x="1170.05" y="-144.8" font-family="Times New Roman,serif" font-size="14.00">is a</text>
</g>
<!-- n20&#45;&gt;n17 -->
<g id="edge51" class="edge"><title>n20&#45;&gt;n17</title>
<path fill="none" stroke="#00cd00" d="M1149.82,-177.197C1169.65,-166.906 1197.62,-152.673 1222.55,-141 1236.87,-134.299 1252.81,-127.313 1266.73,-121.362"/>
<polygon fill="#00cd00" stroke="#00cd00" points="1268.17,-124.554 1276,-117.422 1265.43,-118.111 1268.17,-124.554"/>
<text text-anchor="middle" x="1247.55" y="-144.8" font-family="Times New Roman,serif" font-size="14.00">confirms</text>
</g>
<!-- n20&#45;&gt;n20 -->
<g id="edge50" class="edge"><title>n20&#45;&gt;n20</title>
<path fill="none" stroke="#00cd00" d="M1164.05,-199.867C1176.57,-199.708 1186.4,-197.086 1186.4,-192 1186.4,-188.424 1181.54,-186.066 1174.3,-184.926"/>
<polygon fill="#00cd00" stroke="#00cd00" points="1174.29,-181.414 1164.05,-184.133 1173.75,-188.394 1174.29,-181.414"/>
<text text-anchor="middle" x="1229.9" y="-188.3" font-family="Times New Roman,serif" font-size="14.00">identifier</text>
</g>
</g>
</svg>
