<?xml version="1.0" encoding="UTF-8" standalone="no"?>
<!DOCTYPE svg PUBLIC "-//W3C//DTD SVG 1.1//EN"
 "http://www.w3.org/Graphics/SVG/1.1/DTD/svg11.dtd">
<!-- Generated by graphviz version 2.38.0 (20140413.2041)
 -->
<!-- Title: gcntrapputst Pages: 1 -->
<svg width="2087pt" height="241pt"
 viewBox="0.00 0.00 2086.65 241.00" xmlns="http://www.w3.org/2000/svg" xmlns:xlink="http://www.w3.org/1999/xlink">
<g id="graph0" class="graph" transform="scale(1 1) rotate(0) translate(4 237)">
<title>gcntrapputst</title>
<polygon fill="white" stroke="none" points="-4,4 -4,-237 2082.65,-237 2082.65,4 -4,4"/>
<text text-anchor="middle" x="109" y="-217.8" font-family="Times New Roman,serif" font-size="14.00">Graph of Ontology File: cntrapputst</text>
<!-- n1 -->
<g id="node1" class="node"><title>n1</title>
<ellipse fill="blue" stroke="black" cx="356.307" cy="-192" rx="51.1914" ry="18"/>
<text text-anchor="middle" x="356.307" y="-188.3" font-family="Times New Roman,serif" font-size="14.00" fill="white">UTR&#45;1&#45;3&#45;1</text>
</g>
<!-- n1&#45;&gt;n1 -->
<g id="edge1" class="edge"><title>n1&#45;&gt;n1</title>
<path fill="none" stroke="#00cd00" d="M402.649,-199.836C415.663,-199.493 425.652,-196.881 425.652,-192 425.652,-188.492 420.492,-186.156 412.757,-184.992"/>
<polygon fill="#00cd00" stroke="#00cd00" points="412.902,-181.492 402.649,-184.164 412.33,-188.469 412.902,-181.492"/>
<text text-anchor="middle" x="469.152" y="-188.3" font-family="Times New Roman,serif" font-size="14.00">identifier</text>
</g>
<!-- n2 -->
<g id="node2" class="node"><title>n2</title>
<ellipse fill="blue" stroke="black" cx="262.307" cy="-105" rx="44.393" ry="18"/>
<text text-anchor="middle" x="262.307" y="-101.3" font-family="Times New Roman,serif" font-size="14.00" fill="white">UTC&#45;1&#45;3</text>
</g>
<!-- n1&#45;&gt;n2 -->
<g id="edge2" class="edge"><title>n1&#45;&gt;n2</title>
<path fill="none" stroke="#00cd00" d="M309.296,-184.55C291.958,-179.66 273.963,-171.072 263.307,-156 258.706,-149.493 257.276,-141.225 257.334,-133.295"/>
<polygon fill="#00cd00" stroke="#00cd00" points="260.83,-133.486 258.126,-123.242 253.851,-132.936 260.83,-133.486"/>
<text text-anchor="middle" x="288.307" y="-144.8" font-family="Times New Roman,serif" font-size="14.00">confirms</text>
</g>
<!-- n3 -->
<g id="node3" class="node"><title>n3</title>
<g id="a_node3"><a xlink:href="file:///C:/Sadl3Workspace4/RACK-Ontology-7-29/Graphs/TESTING.owl.svg" xlink:title="tst:Passed">
<ellipse fill="blue" stroke="black" cx="569.307" cy="-105" rx="47.3916" ry="18"/>
<text text-anchor="middle" x="569.307" y="-101.3" font-family="Times New Roman,serif" font-size="14.00" fill="white">tst:Passed</text>
</a>
</g>
</g>
<!-- n1&#45;&gt;n3 -->
<g id="edge3" class="edge"><title>n1&#45;&gt;n3</title>
<path fill="none" stroke="#00cd00" d="M341.774,-174.692C334.173,-164.145 328.01,-150.636 336.307,-141 342.106,-134.265 447.455,-120.539 514.49,-112.422"/>
<polygon fill="#00cd00" stroke="#00cd00" points="514.982,-115.888 524.492,-111.217 514.146,-108.938 514.982,-115.888"/>
<text text-anchor="middle" x="351.807" y="-144.8" font-family="Times New Roman,serif" font-size="14.00">result</text>
</g>
<!-- n4 -->
<g id="node4" class="node"><title>n4</title>
<ellipse fill="blue" stroke="black" cx="957.307" cy="-105" rx="61.99" ry="18"/>
<text text-anchor="middle" x="957.307" y="-101.3" font-family="Times New Roman,serif" font-size="14.00" fill="white">UnitTestRun1</text>
</g>
<!-- n1&#45;&gt;n4 -->
<g id="edge4" class="edge"><title>n1&#45;&gt;n4</title>
<path fill="none" stroke="#00cd00" d="M363,-173.885C368.482,-162.397 377.444,-148.11 390.307,-141 438.572,-114.322 831.666,-130.457 886.307,-123 892.019,-122.22 897.942,-121.181 903.822,-119.999"/>
<polygon fill="#00cd00" stroke="#00cd00" points="904.587,-123.415 913.631,-117.896 903.119,-116.57 904.587,-123.415"/>
<text text-anchor="middle" x="423.307" y="-144.8" font-family="Times New Roman,serif" font-size="14.00">executedBy</text>
</g>
<!-- n5 -->
<g id="node5" class="node"><title>n5</title>
<g id="a_node5"><a xlink:href="file:///C:/Sadl3Workspace4/RACK-Ontology-7-29/Graphs/TESTING.owl.svg" xlink:title="tst:TEST_RESULT">
<polygon fill="#00008b" stroke="black" points="1165.31,-123 1037.31,-123 1037.31,-87 1165.31,-87 1165.31,-123"/>
<text text-anchor="middle" x="1101.31" y="-101.3" font-family="Times New Roman,serif" font-size="14.00" fill="white">tst:TEST_RESULT</text>
</a>
</g>
</g>
<!-- n1&#45;&gt;n5 -->
<g id="edge5" class="edge"><title>n1&#45;&gt;n5</title>
<path fill="none" stroke="black" d="M391.546,-178.879C410.731,-172.227 434.863,-163.772 456.307,-156 474.157,-149.53 477.685,-144.703 496.307,-141 609.266,-118.537 895.41,-137.434 1026.63,-122.957"/>
<polygon fill="black" stroke="black" points="1027.44,-126.384 1036.95,-121.705 1026.6,-119.435 1027.44,-126.384"/>
<text text-anchor="middle" x="505.807" y="-144.8" font-family="Times New Roman,serif" font-size="14.00">is a</text>
</g>
<!-- n2&#45;&gt;n2 -->
<g id="edge7" class="edge"><title>n2&#45;&gt;n2</title>
<path fill="none" stroke="#00cd00" d="M302.086,-112.871C314.617,-112.751 324.503,-110.127 324.503,-105 324.503,-101.395 319.615,-99.0279 312.358,-97.8983"/>
<polygon fill="#00cd00" stroke="#00cd00" points="312.319,-94.3857 302.086,-97.1293 311.797,-101.366 312.319,-94.3857"/>
<text text-anchor="middle" x="368.003" y="-101.3" font-family="Times New Roman,serif" font-size="14.00">identifier</text>
</g>
<!-- n7 -->
<g id="node7" class="node"><title>n7</title>
<g id="a_node7"><a xlink:href="file:///C:/Sadl3Workspace4/RACK-Ontology-7-29/Graphs/TESTING.owl.svg" xlink:title="tst:TEST">
<polygon fill="#00008b" stroke="black" points="861.307,-36 793.307,-36 793.307,-0 861.307,-0 861.307,-36"/>
<text text-anchor="middle" x="827.307" y="-14.3" font-family="Times New Roman,serif" font-size="14.00" fill="white">tst:TEST</text>
</a>
</g>
</g>
<!-- n2&#45;&gt;n7 -->
<g id="edge8" class="edge"><title>n2&#45;&gt;n7</title>
<path fill="none" stroke="black" d="M302.94,-97.887C405.909,-82.3961 676.458,-41.694 783.145,-25.6438"/>
<polygon fill="black" stroke="black" points="783.878,-29.073 793.246,-24.1242 782.836,-22.1509 783.878,-29.073"/>
<text text-anchor="middle" x="588.807" y="-57.8" font-family="Times New Roman,serif" font-size="14.00">is a</text>
</g>
<!-- n6 -->
<g id="node6" class="node"><title>n6</title>
<g id="a_node6"><a xlink:href="file:///C:/Sadl3Workspace4/RACK-Ontology-7-29/Graphs/TESTING.owl.svg" xlink:title="tst:TEST_EXECUTION">
<polygon fill="#00008b" stroke="black" points="1133.81,-36 978.807,-36 978.807,-0 1133.81,-0 1133.81,-36"/>
<text text-anchor="middle" x="1056.31" y="-14.3" font-family="Times New Roman,serif" font-size="14.00" fill="white">tst:TEST_EXECUTION</text>
</a>
</g>
</g>
<!-- n4&#45;&gt;n6 -->
<g id="edge6" class="edge"><title>n4&#45;&gt;n6</title>
<path fill="none" stroke="black" d="M976.395,-87.6111C991.171,-74.925 1011.85,-57.1709 1028.47,-42.9014"/>
<polygon fill="black" stroke="black" points="1030.95,-45.3836 1036.26,-36.2138 1026.39,-40.0726 1030.95,-45.3836"/>
<text text-anchor="middle" x="1022.81" y="-57.8" font-family="Times New Roman,serif" font-size="14.00">is a</text>
</g>
<!-- n8 -->
<g id="node8" class="node"><title>n8</title>
<ellipse fill="blue" stroke="black" cx="861.307" cy="-192" rx="51.1914" ry="18"/>
<text text-anchor="middle" x="861.307" y="-188.3" font-family="Times New Roman,serif" font-size="14.00" fill="white">UTR&#45;1&#45;1&#45;2</text>
</g>
<!-- n8&#45;&gt;n3 -->
<g id="edge11" class="edge"><title>n8&#45;&gt;n3</title>
<path fill="none" stroke="#00cd00" d="M825.517,-179.019C809.648,-173.061 791.047,-165.167 775.307,-156 766.01,-150.585 766.101,-145.452 756.307,-141 744.185,-135.49 673.141,-123.035 622.213,-114.57"/>
<polygon fill="#00cd00" stroke="#00cd00" points="622.756,-111.112 612.319,-112.934 621.613,-118.019 622.756,-111.112"/>
<text text-anchor="middle" x="790.807" y="-144.8" font-family="Times New Roman,serif" font-size="14.00">result</text>
</g>
<!-- n8&#45;&gt;n5 -->
<g id="edge13" class="edge"><title>n8&#45;&gt;n5</title>
<path fill="none" stroke="black" d="M871.777,-174.265C879.79,-162.956 891.898,-148.727 906.307,-141 951.967,-116.514 972.203,-131.373 1027.34,-122.936"/>
<polygon fill="black" stroke="black" points="1028.01,-126.372 1037.28,-121.226 1026.83,-119.473 1028.01,-126.372"/>
<text text-anchor="middle" x="915.807" y="-144.8" font-family="Times New Roman,serif" font-size="14.00">is a</text>
</g>
<!-- n8&#45;&gt;n8 -->
<g id="edge9" class="edge"><title>n8&#45;&gt;n8</title>
<path fill="none" stroke="#00cd00" d="M907.649,-199.836C920.663,-199.493 930.652,-196.881 930.652,-192 930.652,-188.492 925.492,-186.156 917.757,-184.992"/>
<polygon fill="#00cd00" stroke="#00cd00" points="917.902,-181.492 907.649,-184.164 917.33,-188.469 917.902,-181.492"/>
<text text-anchor="middle" x="974.152" y="-188.3" font-family="Times New Roman,serif" font-size="14.00">identifier</text>
</g>
<!-- n9 -->
<g id="node9" class="node"><title>n9</title>
<ellipse fill="blue" stroke="black" cx="728.307" cy="-105" rx="44.393" ry="18"/>
<text text-anchor="middle" x="728.307" y="-101.3" font-family="Times New Roman,serif" font-size="14.00" fill="white">UTC&#45;1&#45;1</text>
</g>
<!-- n8&#45;&gt;n9 -->
<g id="edge10" class="edge"><title>n8&#45;&gt;n9</title>
<path fill="none" stroke="#00cd00" d="M847.434,-174.52C837.842,-163.9 824.324,-150.375 810.307,-141 798.297,-132.968 784.143,-126.14 771.006,-120.706"/>
<polygon fill="#00cd00" stroke="#00cd00" points="772.25,-117.434 761.664,-116.998 769.668,-123.941 772.25,-117.434"/>
<text text-anchor="middle" x="854.307" y="-144.8" font-family="Times New Roman,serif" font-size="14.00">confirms</text>
</g>
<!-- n10 -->
<g id="node10" class="node"><title>n10</title>
<ellipse fill="blue" stroke="black" cx="1456.31" cy="-105" rx="61.99" ry="18"/>
<text text-anchor="middle" x="1456.31" y="-101.3" font-family="Times New Roman,serif" font-size="14.00" fill="white">UnitTestRun2</text>
</g>
<!-- n8&#45;&gt;n10 -->
<g id="edge12" class="edge"><title>n8&#45;&gt;n10</title>
<path fill="none" stroke="#00cd00" d="M889.625,-176.829C900.97,-170.816 914.005,-163.475 925.307,-156 934.28,-150.065 934.217,-144.735 944.307,-141 1036.29,-106.95 1288.16,-136.483 1385.31,-123 1391.02,-122.207 1396.94,-121.16 1402.82,-119.973"/>
<polygon fill="#00cd00" stroke="#00cd00" points="1403.59,-123.388 1412.63,-117.864 1402.11,-116.545 1403.59,-123.388"/>
<text text-anchor="middle" x="977.307" y="-144.8" font-family="Times New Roman,serif" font-size="14.00">executedBy</text>
</g>
<!-- n9&#45;&gt;n7 -->
<g id="edge25" class="edge"><title>n9&#45;&gt;n7</title>
<path fill="none" stroke="black" d="M746.465,-88.4097C761.24,-75.7239 782.344,-57.6043 799.285,-43.0594"/>
<polygon fill="black" stroke="black" points="801.913,-45.4156 807.22,-36.2458 797.353,-40.1046 801.913,-45.4156"/>
<text text-anchor="middle" x="793.807" y="-57.8" font-family="Times New Roman,serif" font-size="14.00">is a</text>
</g>
<!-- n9&#45;&gt;n9 -->
<g id="edge24" class="edge"><title>n9&#45;&gt;n9</title>
<path fill="none" stroke="#00cd00" d="M768.086,-112.871C780.617,-112.751 790.503,-110.127 790.503,-105 790.503,-101.395 785.615,-99.0279 778.358,-97.8983"/>
<polygon fill="#00cd00" stroke="#00cd00" points="778.319,-94.3857 768.086,-97.1293 777.797,-101.366 778.319,-94.3857"/>
<text text-anchor="middle" x="834.003" y="-101.3" font-family="Times New Roman,serif" font-size="14.00">identifier</text>
</g>
<!-- n10&#45;&gt;n6 -->
<g id="edge26" class="edge"><title>n10&#45;&gt;n6</title>
<path fill="none" stroke="black" d="M1410.52,-92.8161C1402.15,-90.8327 1393.47,-88.8208 1385.31,-87 1303.68,-68.7968 1210.28,-49.6518 1143.9,-36.331"/>
<polygon fill="black" stroke="black" points="1144.39,-32.8595 1133.9,-34.3264 1143.01,-39.723 1144.39,-32.8595"/>
<text text-anchor="middle" x="1304.81" y="-57.8" font-family="Times New Roman,serif" font-size="14.00">is a</text>
</g>
<!-- n11 -->
<g id="node11" class="node"><title>n11</title>
<ellipse fill="blue" stroke="black" cx="103.307" cy="-192" rx="51.1914" ry="18"/>
<text text-anchor="middle" x="103.307" y="-188.3" font-family="Times New Roman,serif" font-size="14.00" fill="white">UTR&#45;1&#45;3&#45;2</text>
</g>
<!-- n11&#45;&gt;n2 -->
<g id="edge15" class="edge"><title>n11&#45;&gt;n2</title>
<path fill="none" stroke="#00cd00" d="M57.7986,-183.631C23.8425,-176.218 -13.6616,-162.727 5.30667,-141 31.0459,-111.518 140.322,-105.936 207.823,-105.39"/>
<polygon fill="#00cd00" stroke="#00cd00" points="207.887,-108.89 217.871,-105.344 207.855,-101.89 207.887,-108.89"/>
<text text-anchor="middle" x="30.3067" y="-144.8" font-family="Times New Roman,serif" font-size="14.00">confirms</text>
</g>
<!-- n11&#45;&gt;n3 -->
<g id="edge16" class="edge"><title>n11&#45;&gt;n3</title>
<path fill="none" stroke="#00cd00" d="M85.9887,-174.653C76.8456,-164.088 69.2221,-150.575 78.3067,-141 91.402,-127.197 401.346,-124.579 420.307,-123 451.734,-120.383 486.778,-116.436 514.981,-113.005"/>
<polygon fill="#00cd00" stroke="#00cd00" points="515.544,-116.462 525.042,-111.767 514.69,-109.514 515.544,-116.462"/>
<text text-anchor="middle" x="93.8067" y="-144.8" font-family="Times New Roman,serif" font-size="14.00">result</text>
</g>
<!-- n11&#45;&gt;n5 -->
<g id="edge18" class="edge"><title>n11&#45;&gt;n5</title>
<path fill="none" stroke="black" d="M108.319,-173.9C112.666,-162.419 120.204,-148.134 132.307,-141 173.522,-116.704 917.275,-128.187 1026.83,-122.532"/>
<polygon fill="black" stroke="black" points="1027.25,-126.01 1036.95,-121.754 1026.71,-119.031 1027.25,-126.01"/>
<text text-anchor="middle" x="141.807" y="-144.8" font-family="Times New Roman,serif" font-size="14.00">is a</text>
</g>
<!-- n11&#45;&gt;n10 -->
<g id="edge17" class="edge"><title>n11&#45;&gt;n10</title>
<path fill="none" stroke="#00cd00" d="M123.234,-175.221C139.644,-163.273 164.074,-147.795 188.307,-141 316.382,-105.088 1253.33,-139.587 1385.31,-123 1391.11,-122.271 1397.12,-121.253 1403.09,-120.073"/>
<polygon fill="#00cd00" stroke="#00cd00" points="1403.98,-123.463 1413.03,-117.959 1402.52,-116.616 1403.98,-123.463"/>
<text text-anchor="middle" x="221.307" y="-144.8" font-family="Times New Roman,serif" font-size="14.00">executedBy</text>
</g>
<!-- n11&#45;&gt;n11 -->
<g id="edge14" class="edge"><title>n11&#45;&gt;n11</title>
<path fill="none" stroke="#00cd00" d="M149.649,-199.836C162.663,-199.493 172.652,-196.881 172.652,-192 172.652,-188.492 167.492,-186.156 159.757,-184.992"/>
<polygon fill="#00cd00" stroke="#00cd00" points="159.902,-181.492 149.649,-184.164 159.33,-188.469 159.902,-181.492"/>
<text text-anchor="middle" x="216.152" y="-188.3" font-family="Times New Roman,serif" font-size="14.00">identifier</text>
</g>
<!-- n12 -->
<g id="node12" class="node"><title>n12</title>
<ellipse fill="blue" stroke="black" cx="1116.31" cy="-192" rx="51.1914" ry="18"/>
<text text-anchor="middle" x="1116.31" y="-188.3" font-family="Times New Roman,serif" font-size="14.00" fill="white">UTR&#45;1&#45;2&#45;1</text>
</g>
<!-- n12&#45;&gt;n3 -->
<g id="edge21" class="edge"><title>n12&#45;&gt;n3</title>
<path fill="none" stroke="#00cd00" d="M1081.38,-178.693C1066.16,-172.723 1048.39,-164.91 1033.31,-156 1024.04,-150.527 1024.37,-144.797 1014.31,-141 943.721,-114.377 750.322,-130.984 675.307,-123 657.49,-121.104 638.107,-118.234 620.846,-115.39"/>
<polygon fill="#00cd00" stroke="#00cd00" points="621.399,-111.934 610.956,-113.726 620.237,-118.837 621.399,-111.934"/>
<text text-anchor="middle" x="1048.81" y="-144.8" font-family="Times New Roman,serif" font-size="14.00">result</text>
</g>
<!-- n12&#45;&gt;n4 -->
<g id="edge22" class="edge"><title>n12&#45;&gt;n4</title>
<path fill="none" stroke="#00cd00" d="M1104.11,-174.507C1095.26,-163.604 1082.41,-149.759 1068.31,-141 1058.32,-134.798 1034.47,-127.002 1011.43,-120.343"/>
<polygon fill="#00cd00" stroke="#00cd00" points="1012.23,-116.93 1001.65,-117.567 1010.31,-123.664 1012.23,-116.93"/>
<text text-anchor="middle" x="1119.31" y="-144.8" font-family="Times New Roman,serif" font-size="14.00">executedBy</text>
</g>
<!-- n12&#45;&gt;n5 -->
<g id="edge23" class="edge"><title>n12&#45;&gt;n5</title>
<path fill="none" stroke="black" d="M1141.19,-176.079C1153.53,-166.654 1164.44,-153.862 1157.31,-141 1154.93,-136.713 1151.79,-132.882 1148.2,-129.474"/>
<polygon fill="black" stroke="black" points="1150.28,-126.653 1140.31,-123.062 1145.86,-132.085 1150.28,-126.653"/>
<text text-anchor="middle" x="1169.81" y="-144.8" font-family="Times New Roman,serif" font-size="14.00">is a</text>
</g>
<!-- n12&#45;&gt;n12 -->
<g id="edge19" class="edge"><title>n12&#45;&gt;n12</title>
<path fill="none" stroke="#00cd00" d="M1162.65,-199.836C1175.66,-199.493 1185.65,-196.881 1185.65,-192 1185.65,-188.492 1180.49,-186.156 1172.76,-184.992"/>
<polygon fill="#00cd00" stroke="#00cd00" points="1172.9,-181.492 1162.65,-184.164 1172.33,-188.469 1172.9,-181.492"/>
<text text-anchor="middle" x="1229.15" y="-188.3" font-family="Times New Roman,serif" font-size="14.00">identifier</text>
</g>
<!-- n13 -->
<g id="node13" class="node"><title>n13</title>
<ellipse fill="blue" stroke="black" cx="1227.31" cy="-105" rx="44.393" ry="18"/>
<text text-anchor="middle" x="1227.31" y="-101.3" font-family="Times New Roman,serif" font-size="14.00" fill="white">UTC&#45;1&#45;2</text>
</g>
<!-- n12&#45;&gt;n13 -->
<g id="edge20" class="edge"><title>n12&#45;&gt;n13</title>
<path fill="none" stroke="#00cd00" d="M1147.76,-177.546C1159.5,-171.781 1172.57,-164.425 1183.31,-156 1192.54,-148.752 1201.38,-139.387 1208.67,-130.725"/>
<polygon fill="#00cd00" stroke="#00cd00" points="1211.58,-132.698 1215.16,-122.727 1206.14,-128.289 1211.58,-132.698"/>
<text text-anchor="middle" x="1225.31" y="-144.8" font-family="Times New Roman,serif" font-size="14.00">confirms</text>
</g>
<!-- n13&#45;&gt;n7 -->
<g id="edge40" class="edge"><title>n13&#45;&gt;n7</title>
<path fill="none" stroke="black" d="M1194.34,-93.0017C1187.74,-90.917 1180.82,-88.8209 1174.31,-87 1113.57,-70.024 1098.11,-66.5486 1036.31,-54 979.683,-42.5028 913.876,-31.9397 871.463,-25.4916"/>
<polygon fill="black" stroke="black" points="871.878,-22.0147 861.468,-23.9824 870.833,-28.9362 871.878,-22.0147"/>
<text text-anchor="middle" x="1115.81" y="-57.8" font-family="Times New Roman,serif" font-size="14.00">is a</text>
</g>
<!-- n13&#45;&gt;n13 -->
<g id="edge39" class="edge"><title>n13&#45;&gt;n13</title>
<path fill="none" stroke="#00cd00" d="M1267.09,-112.871C1279.62,-112.751 1289.5,-110.127 1289.5,-105 1289.5,-101.395 1284.62,-99.0279 1277.36,-97.8983"/>
<polygon fill="#00cd00" stroke="#00cd00" points="1277.32,-94.3857 1267.09,-97.1293 1276.8,-101.366 1277.32,-94.3857"/>
<text text-anchor="middle" x="1333" y="-101.3" font-family="Times New Roman,serif" font-size="14.00">identifier</text>
</g>
<!-- n14 -->
<g id="node14" class="node"><title>n14</title>
<ellipse fill="blue" stroke="black" cx="1659.31" cy="-192" rx="51.1914" ry="18"/>
<text text-anchor="middle" x="1659.31" y="-188.3" font-family="Times New Roman,serif" font-size="14.00" fill="white">UTR&#45;1&#45;4&#45;1</text>
</g>
<!-- n14&#45;&gt;n4 -->
<g id="edge30" class="edge"><title>n14&#45;&gt;n4</title>
<path fill="none" stroke="#00cd00" d="M1620.04,-180.265C1598.79,-174.019 1572.27,-165.51 1549.31,-156 1535.9,-150.447 1534.34,-144.688 1520.31,-141 1414.49,-113.196 1136.71,-137.811 1028.31,-123 1022.59,-122.22 1016.67,-121.18 1010.79,-119.997"/>
<polygon fill="#00cd00" stroke="#00cd00" points="1011.49,-116.569 1000.98,-117.894 1010.03,-123.413 1011.49,-116.569"/>
<text text-anchor="middle" x="1582.31" y="-144.8" font-family="Times New Roman,serif" font-size="14.00">executedBy</text>
</g>
<!-- n14&#45;&gt;n5 -->
<g id="edge31" class="edge"><title>n14&#45;&gt;n5</title>
<path fill="none" stroke="black" d="M1650.67,-173.832C1643.86,-162.319 1633.19,-148.024 1619.31,-141 1577.22,-119.713 1255.65,-128.686 1175.66,-122.682"/>
<polygon fill="black" stroke="black" points="1175.97,-119.196 1165.67,-121.682 1175.27,-126.161 1175.97,-119.196"/>
<text text-anchor="middle" x="1646.81" y="-144.8" font-family="Times New Roman,serif" font-size="14.00">is a</text>
</g>
<!-- n14&#45;&gt;n14 -->
<g id="edge27" class="edge"><title>n14&#45;&gt;n14</title>
<path fill="none" stroke="#00cd00" d="M1705.65,-199.836C1718.66,-199.493 1728.65,-196.881 1728.65,-192 1728.65,-188.492 1723.49,-186.156 1715.76,-184.992"/>
<polygon fill="#00cd00" stroke="#00cd00" points="1715.9,-181.492 1705.65,-184.164 1715.33,-188.469 1715.9,-181.492"/>
<text text-anchor="middle" x="1772.15" y="-188.3" font-family="Times New Roman,serif" font-size="14.00">identifier</text>
</g>
<!-- n15 -->
<g id="node15" class="node"><title>n15</title>
<ellipse fill="blue" stroke="black" cx="1683.31" cy="-105" rx="44.393" ry="18"/>
<text text-anchor="middle" x="1683.31" y="-101.3" font-family="Times New Roman,serif" font-size="14.00" fill="white">UTC&#45;1&#45;4</text>
</g>
<!-- n14&#45;&gt;n15 -->
<g id="edge28" class="edge"><title>n14&#45;&gt;n15</title>
<path fill="none" stroke="#00cd00" d="M1664.16,-173.799C1667.48,-162.047 1671.95,-146.238 1675.73,-132.842"/>
<polygon fill="#00cd00" stroke="#00cd00" points="1679.11,-133.75 1678.46,-123.175 1672.37,-131.848 1679.11,-133.75"/>
<text text-anchor="middle" x="1698.31" y="-144.8" font-family="Times New Roman,serif" font-size="14.00">confirms</text>
</g>
<!-- n16 -->
<g id="node16" class="node"><title>n16</title>
<g id="a_node16"><a xlink:href="file:///C:/Sadl3Workspace4/RACK-Ontology-7-29/Graphs/TESTING.owl.svg" xlink:title="tst:Failed">
<ellipse fill="blue" stroke="black" cx="1954.31" cy="-105" rx="43.5923" ry="18"/>
<text text-anchor="middle" x="1954.31" y="-101.3" font-family="Times New Roman,serif" font-size="14.00" fill="white">tst:Failed</text>
</a>
</g>
</g>
<!-- n14&#45;&gt;n16 -->
<g id="edge29" class="edge"><title>n14&#45;&gt;n16</title>
<path fill="none" stroke="#00cd00" d="M1686.94,-176.776C1715.27,-162.217 1755.44,-141.627 1757.31,-141 1783.75,-132.126 1854.53,-120.614 1903.62,-113.264"/>
<polygon fill="#00cd00" stroke="#00cd00" points="1904.37,-116.692 1913.74,-111.762 1903.34,-109.768 1904.37,-116.692"/>
<text text-anchor="middle" x="1772.81" y="-144.8" font-family="Times New Roman,serif" font-size="14.00">result</text>
</g>
<!-- n15&#45;&gt;n7 -->
<g id="edge33" class="edge"><title>n15&#45;&gt;n7</title>
<path fill="none" stroke="black" d="M1643.2,-97.3731C1576.13,-86.5479 1436.91,-65.1617 1318.31,-54 1163.67,-39.4472 1124.06,-49.2388 969.307,-36 936.512,-33.1945 899.605,-28.736 871.638,-25.0888"/>
<polygon fill="black" stroke="black" points="871.756,-21.5741 861.384,-23.7358 870.84,-28.514 871.756,-21.5741"/>
<text text-anchor="middle" x="1458.81" y="-57.8" font-family="Times New Roman,serif" font-size="14.00">is a</text>
</g>
<!-- n15&#45;&gt;n15 -->
<g id="edge32" class="edge"><title>n15&#45;&gt;n15</title>
<path fill="none" stroke="#00cd00" d="M1723.09,-112.871C1735.62,-112.751 1745.5,-110.127 1745.5,-105 1745.5,-101.395 1740.62,-99.0279 1733.36,-97.8983"/>
<polygon fill="#00cd00" stroke="#00cd00" points="1733.32,-94.3857 1723.09,-97.1293 1732.8,-101.366 1733.32,-94.3857"/>
<text text-anchor="middle" x="1789" y="-101.3" font-family="Times New Roman,serif" font-size="14.00">identifier</text>
</g>
<!-- n17 -->
<g id="node17" class="node"><title>n17</title>
<ellipse fill="blue" stroke="black" cx="1369.31" cy="-192" rx="51.1914" ry="18"/>
<text text-anchor="middle" x="1369.31" y="-188.3" font-family="Times New Roman,serif" font-size="14.00" fill="white">UTR&#45;1&#45;2&#45;2</text>
</g>
<!-- n17&#45;&gt;n3 -->
<g id="edge36" class="edge"><title>n17&#45;&gt;n3</title>
<path fill="none" stroke="#00cd00" d="M1338.88,-177.433C1306.33,-162.969 1258.74,-141.994 1254.31,-141 1128.7,-112.832 803.454,-135.217 675.307,-123 657.393,-121.292 637.914,-118.454 620.598,-115.582"/>
<polygon fill="#00cd00" stroke="#00cd00" points="621.126,-112.122 610.681,-113.895 619.952,-119.022 621.126,-112.122"/>
<text text-anchor="middle" x="1303.81" y="-144.8" font-family="Times New Roman,serif" font-size="14.00">result</text>
</g>
<!-- n17&#45;&gt;n5 -->
<g id="edge38" class="edge"><title>n17&#45;&gt;n5</title>
<path fill="none" stroke="black" d="M1359.54,-174.145C1351.99,-162.78 1340.46,-148.532 1326.31,-141 1268.96,-110.469 1243.63,-132.54 1175.26,-122.908"/>
<polygon fill="black" stroke="black" points="1175.74,-119.442 1165.32,-121.33 1174.65,-126.355 1175.74,-119.442"/>
<text text-anchor="middle" x="1354.81" y="-144.8" font-family="Times New Roman,serif" font-size="14.00">is a</text>
</g>
<!-- n17&#45;&gt;n10 -->
<g id="edge37" class="edge"><title>n17&#45;&gt;n10</title>
<path fill="none" stroke="#00cd00" d="M1406.9,-179.643C1419.34,-174.243 1432.3,-166.586 1441.31,-156 1446.76,-149.593 1450.23,-141.26 1452.44,-133.239"/>
<polygon fill="#00cd00" stroke="#00cd00" points="1455.87,-133.936 1454.61,-123.415 1449.03,-132.42 1455.87,-133.936"/>
<text text-anchor="middle" x="1483.31" y="-144.8" font-family="Times New Roman,serif" font-size="14.00">executedBy</text>
</g>
<!-- n17&#45;&gt;n13 -->
<g id="edge35" class="edge"><title>n17&#45;&gt;n13</title>
<path fill="none" stroke="#00cd00" d="M1373.79,-173.951C1375.5,-163.365 1375.57,-150.092 1368.31,-141 1357.14,-127.007 1314.98,-117.769 1279.65,-112.317"/>
<polygon fill="#00cd00" stroke="#00cd00" points="1279.83,-108.805 1269.42,-110.812 1278.81,-115.73 1279.83,-108.805"/>
<text text-anchor="middle" x="1399.31" y="-144.8" font-family="Times New Roman,serif" font-size="14.00">confirms</text>
</g>
<!-- n17&#45;&gt;n17 -->
<g id="edge34" class="edge"><title>n17&#45;&gt;n17</title>
<path fill="none" stroke="#00cd00" d="M1415.65,-199.836C1428.66,-199.493 1438.65,-196.881 1438.65,-192 1438.65,-188.492 1433.49,-186.156 1425.76,-184.992"/>
<polygon fill="#00cd00" stroke="#00cd00" points="1425.9,-181.492 1415.65,-184.164 1425.33,-188.469 1425.9,-181.492"/>
<text text-anchor="middle" x="1482.15" y="-188.3" font-family="Times New Roman,serif" font-size="14.00">identifier</text>
</g>
<!-- n18 -->
<g id="node18" class="node"><title>n18</title>
<ellipse fill="blue" stroke="black" cx="604.307" cy="-192" rx="51.1914" ry="18"/>
<text text-anchor="middle" x="604.307" y="-188.3" font-family="Times New Roman,serif" font-size="14.00" fill="white">UTR&#45;1&#45;1&#45;1</text>
</g>
<!-- n18&#45;&gt;n3 -->
<g id="edge43" class="edge"><title>n18&#45;&gt;n3</title>
<path fill="none" stroke="#00cd00" d="M559.911,-182.671C545.094,-177.547 530.126,-169.291 521.307,-156 513.955,-144.921 521.893,-134.09 533.291,-125.358"/>
<polygon fill="#00cd00" stroke="#00cd00" points="535.319,-128.211 541.589,-119.671 531.362,-122.437 535.319,-128.211"/>
<text text-anchor="middle" x="536.807" y="-144.8" font-family="Times New Roman,serif" font-size="14.00">result</text>
</g>
<!-- n18&#45;&gt;n4 -->
<g id="edge44" class="edge"><title>n18&#45;&gt;n4</title>
<path fill="none" stroke="#00cd00" d="M614.297,-173.953C622.017,-162.497 633.818,-148.22 648.307,-141 695.779,-117.343 833.905,-131.201 886.307,-123 891.785,-122.143 897.465,-121.082 903.117,-119.912"/>
<polygon fill="#00cd00" stroke="#00cd00" points="904.187,-123.261 913.211,-117.709 902.695,-116.422 904.187,-123.261"/>
<text text-anchor="middle" x="681.307" y="-144.8" font-family="Times New Roman,serif" font-size="14.00">executedBy</text>
</g>
<!-- n18&#45;&gt;n5 -->
<g id="edge45" class="edge"><title>n18&#45;&gt;n5</title>
<path fill="none" stroke="black" d="M646.21,-181.483C667.357,-175.744 692.979,-167.326 714.307,-156 723.809,-150.954 723.255,-144.837 733.307,-141 792.03,-118.586 949.022,-131.272 1026.93,-122.873"/>
<polygon fill="black" stroke="black" points="1027.45,-126.335 1036.93,-121.609 1026.57,-119.391 1027.45,-126.335"/>
<text text-anchor="middle" x="742.807" y="-144.8" font-family="Times New Roman,serif" font-size="14.00">is a</text>
</g>
<!-- n18&#45;&gt;n9 -->
<g id="edge42" class="edge"><title>n18&#45;&gt;n9</title>
<path fill="none" stroke="#00cd00" d="M585.115,-174.921C575.264,-164.722 566.925,-151.515 575.307,-141 581.838,-132.806 635.756,-121.823 677.759,-114.361"/>
<polygon fill="#00cd00" stroke="#00cd00" points="678.626,-117.762 687.873,-112.59 677.419,-110.867 678.626,-117.762"/>
<text text-anchor="middle" x="600.307" y="-144.8" font-family="Times New Roman,serif" font-size="14.00">confirms</text>
</g>
<!-- n18&#45;&gt;n18 -->
<g id="edge41" class="edge"><title>n18&#45;&gt;n18</title>
<path fill="none" stroke="#00cd00" d="M650.649,-199.836C663.663,-199.493 673.652,-196.881 673.652,-192 673.652,-188.492 668.492,-186.156 660.757,-184.992"/>
<polygon fill="#00cd00" stroke="#00cd00" points="660.902,-181.492 650.649,-184.164 660.33,-188.469 660.902,-181.492"/>
<text text-anchor="middle" x="717.152" y="-188.3" font-family="Times New Roman,serif" font-size="14.00">identifier</text>
</g>
<!-- n19 -->
<g id="node19" class="node"><title>n19</title>
<ellipse fill="blue" stroke="black" cx="1922.31" cy="-192" rx="51.1914" ry="18"/>
<text text-anchor="middle" x="1922.31" y="-188.3" font-family="Times New Roman,serif" font-size="14.00" fill="white">UTR&#45;1&#45;4&#45;2</text>
</g>
<!-- n19&#45;&gt;n5 -->
<g id="edge50" class="edge"><title>n19&#45;&gt;n5</title>
<path fill="none" stroke="black" d="M1879.31,-181.969C1857.04,-176.301 1829.87,-167.799 1807.31,-156 1797.77,-151.014 1798.42,-144.677 1788.31,-141 1726.55,-118.539 1277.2,-130.788 1175.8,-122.745"/>
<polygon fill="black" stroke="black" points="1175.97,-119.244 1165.67,-121.721 1175.26,-126.209 1175.97,-119.244"/>
<text text-anchor="middle" x="1816.81" y="-144.8" font-family="Times New Roman,serif" font-size="14.00">is a</text>
</g>
<!-- n19&#45;&gt;n10 -->
<g id="edge49" class="edge"><title>n19&#45;&gt;n10</title>
<path fill="none" stroke="#00cd00" d="M1890.6,-177.652C1877.47,-171.656 1862.31,-164.108 1849.31,-156 1840.18,-150.306 1840.3,-144.981 1830.31,-141 1788.85,-124.488 1674.74,-127.17 1630.31,-123 1595.27,-119.712 1556.27,-115.914 1524.09,-112.744"/>
<polygon fill="#00cd00" stroke="#00cd00" points="1524.2,-109.237 1513.9,-111.738 1523.51,-116.203 1524.2,-109.237"/>
<text text-anchor="middle" x="1882.31" y="-144.8" font-family="Times New Roman,serif" font-size="14.00">executedBy</text>
</g>
<!-- n19&#45;&gt;n15 -->
<g id="edge47" class="edge"><title>n19&#45;&gt;n15</title>
<path fill="none" stroke="#00cd00" d="M1926.28,-173.61C1927.63,-162.888 1927.18,-149.592 1919.31,-141 1895.55,-115.073 1799.48,-108.142 1737.48,-106.414"/>
<polygon fill="#00cd00" stroke="#00cd00" points="1737.54,-102.914 1727.46,-106.171 1737.37,-109.912 1737.54,-102.914"/>
<text text-anchor="middle" x="1950.31" y="-144.8" font-family="Times New Roman,serif" font-size="14.00">confirms</text>
</g>
<!-- n19&#45;&gt;n16 -->
<g id="edge48" class="edge"><title>n19&#45;&gt;n16</title>
<path fill="none" stroke="#00cd00" d="M1961.75,-180.241C1973.65,-174.951 1985.38,-167.211 1992.31,-156 1998.35,-146.218 1992.97,-136.01 1984.54,-127.386"/>
<polygon fill="#00cd00" stroke="#00cd00" points="1986.72,-124.634 1976.94,-120.56 1982.04,-129.844 1986.72,-124.634"/>
<text text-anchor="middle" x="2009.81" y="-144.8" font-family="Times New Roman,serif" font-size="14.00">result</text>
</g>
<!-- n19&#45;&gt;n19 -->
<g id="edge46" class="edge"><title>n19&#45;&gt;n19</title>
<path fill="none" stroke="#00cd00" d="M1968.65,-199.836C1981.66,-199.493 1991.65,-196.881 1991.65,-192 1991.65,-188.492 1986.49,-186.156 1978.76,-184.992"/>
<polygon fill="#00cd00" stroke="#00cd00" points="1978.9,-181.492 1968.65,-184.164 1978.33,-188.469 1978.9,-181.492"/>
<text text-anchor="middle" x="2035.15" y="-188.3" font-family="Times New Roman,serif" font-size="14.00">identifier</text>
</g>
</g>
</svg>
