<?xml version="1.0" encoding="UTF-8" standalone="no"?>
<!DOCTYPE svg PUBLIC "-//W3C//DTD SVG 1.1//EN"
 "http://www.w3.org/Graphics/SVG/1.1/DTD/svg11.dtd">
<!-- Generated by graphviz version 2.38.0 (20140413.2041)
 -->
<!-- Title: gcntrapprq Pages: 1 -->
<svg width="2519pt" height="328pt"
 viewBox="0.00 0.00 2519.15 328.00" xmlns="http://www.w3.org/2000/svg" xmlns:xlink="http://www.w3.org/1999/xlink">
<g id="graph0" class="graph" transform="scale(1 1) rotate(0) translate(4 324)">
<title>gcntrapprq</title>
<polygon fill="white" stroke="none" points="-4,4 -4,-324 2515.15,-324 2515.15,4 -4,4"/>
<text text-anchor="middle" x="104.5" y="-304.8" font-family="Times New Roman,serif" font-size="14.00">Graph of Ontology File: cntrapprq</text>
<!-- n1 -->
<g id="node1" class="node"><title>n1</title>
<ellipse fill="blue" stroke="black" cx="1271.15" cy="-192" rx="38.1938" ry="18"/>
<text text-anchor="middle" x="1271.15" y="-188.3" font-family="Times New Roman,serif" font-size="14.00" fill="white">counter</text>
</g>
<!-- n1&#45;&gt;n1 -->
<g id="edge1" class="edge"><title>n1&#45;&gt;n1</title>
<path fill="none" stroke="#00cd00" d="M1305.81,-199.873C1317.81,-199.956 1327.49,-197.332 1327.49,-192 1327.49,-188.334 1322.91,-185.948 1316.15,-184.842"/>
<polygon fill="#00cd00" stroke="#00cd00" points="1316.03,-181.325 1305.81,-184.127 1315.55,-188.308 1316.03,-181.325"/>
<text text-anchor="middle" x="1370.99" y="-188.3" font-family="Times New Roman,serif" font-size="14.00">uniqueIdentifier</text>
</g>
<!-- n2 -->
<g id="node2" class="node"><title>n2</title>
<ellipse fill="blue" stroke="black" cx="1628.15" cy="-105" rx="36.2938" ry="18"/>
<text text-anchor="middle" x="1628.15" y="-101.3" font-family="Times New Roman,serif" font-size="14.00" fill="white">HLR&#45;1</text>
</g>
<!-- n1&#45;&gt;n2 -->
<g id="edge2" class="edge"><title>n1&#45;&gt;n2</title>
<path fill="none" stroke="#00cd00" d="M1288.46,-175.875C1304.95,-161.533 1327.64,-142.02 1330.15,-141 1382.13,-119.803 1527.27,-134.849 1582.15,-123 1585.31,-122.317 1588.55,-121.462 1591.77,-120.502"/>
<polygon fill="#00cd00" stroke="#00cd00" points="1592.88,-123.821 1601.28,-117.369 1590.69,-117.172 1592.88,-123.821"/>
<text text-anchor="middle" x="1363.65" y="-144.8" font-family="Times New Roman,serif" font-size="14.00">providedBy</text>
</g>
<!-- n3 -->
<g id="node3" class="node"><title>n3</title>
<ellipse fill="blue" stroke="black" cx="1307.15" cy="-105" rx="36.2938" ry="18"/>
<text text-anchor="middle" x="1307.15" y="-101.3" font-family="Times New Roman,serif" font-size="14.00" fill="white">HLR&#45;2</text>
</g>
<!-- n1&#45;&gt;n3 -->
<g id="edge3" class="edge"><title>n1&#45;&gt;n3</title>
<path fill="none" stroke="#00cd00" d="M1254.03,-175.519C1245.15,-165.559 1237.44,-152.394 1244.15,-141 1249.58,-131.766 1258.43,-124.793 1267.8,-119.602"/>
<polygon fill="#00cd00" stroke="#00cd00" points="1269.41,-122.707 1276.85,-115.155 1266.33,-116.424 1269.41,-122.707"/>
<text text-anchor="middle" x="1277.65" y="-144.8" font-family="Times New Roman,serif" font-size="14.00">providedBy</text>
</g>
<!-- n4 -->
<g id="node4" class="node"><title>n4</title>
<ellipse fill="blue" stroke="black" cx="1111.15" cy="-105" rx="36.2938" ry="18"/>
<text text-anchor="middle" x="1111.15" y="-101.3" font-family="Times New Roman,serif" font-size="14.00" fill="white">HLR&#45;3</text>
</g>
<!-- n1&#45;&gt;n4 -->
<g id="edge4" class="edge"><title>n1&#45;&gt;n4</title>
<path fill="none" stroke="#00cd00" d="M1236.74,-183.846C1214.92,-178.342 1186.66,-169.38 1164.15,-156 1152.25,-148.932 1140.85,-138.776 1131.68,-129.462"/>
<polygon fill="#00cd00" stroke="#00cd00" points="1133.97,-126.782 1124.55,-121.922 1128.88,-131.592 1133.97,-126.782"/>
<text text-anchor="middle" x="1201.15" y="-144.8" font-family="Times New Roman,serif" font-size="14.00">consumedBy</text>
</g>
<!-- n5 -->
<g id="node5" class="node"><title>n5</title>
<g id="a_node5"><a xlink:href="file:///C:/sadl/git/RACK/RACK-Ontology/Graphs/REQUIREMENTS.owl.svg" xlink:title="Rq:DATA_DICTIONARY_TERM">
<polygon fill="#00008b" stroke="black" points="2003.15,-123 1787.15,-123 1787.15,-87 2003.15,-87 2003.15,-123"/>
<text text-anchor="middle" x="1895.15" y="-101.3" font-family="Times New Roman,serif" font-size="14.00" fill="white">Rq:DATA_DICTIONARY_TERM</text>
</a>
</g>
</g>
<!-- n1&#45;&gt;n5 -->
<g id="edge5" class="edge"><title>n1&#45;&gt;n5</title>
<path fill="none" stroke="black" d="M1308.18,-186.855C1387.13,-178.01 1565.9,-157.933 1579.15,-156 1616.67,-150.523 1625.73,-147.163 1663.15,-141 1700.07,-134.919 1740.37,-128.696 1776.86,-123.215"/>
<polygon fill="black" stroke="black" points="1777.68,-126.632 1787.05,-121.69 1776.64,-119.709 1777.68,-126.632"/>
<text text-anchor="middle" x="1672.65" y="-144.8" font-family="Times New Roman,serif" font-size="14.00">is a</text>
</g>
<!-- n2&#45;&gt;n2 -->
<g id="edge11" class="edge"><title>n2&#45;&gt;n2</title>
<path fill="none" stroke="#00cd00" d="M1661.08,-112.867C1672.9,-113.036 1682.54,-110.414 1682.54,-105 1682.54,-101.278 1677.99,-98.8751 1671.29,-97.7919"/>
<polygon fill="#00cd00" stroke="#00cd00" points="1671.28,-94.2838 1661.08,-97.1327 1670.83,-101.269 1671.28,-94.2838"/>
<text text-anchor="middle" x="1726.04" y="-101.3" font-family="Times New Roman,serif" font-size="14.00">uniqueIdentifier</text>
</g>
<!-- n8 -->
<g id="node8" class="node"><title>n8</title>
<g id="a_node8"><a xlink:href="file:///C:/sadl/git/RACK/RACK-Ontology/Graphs/Turnstiles.owl.svg" xlink:title="null:CounterApplication">
<ellipse fill="blue" stroke="black" cx="1399.15" cy="-18" rx="96.6831" ry="18"/>
<text text-anchor="middle" x="1399.15" y="-14.3" font-family="Times New Roman,serif" font-size="14.00" fill="white">null:CounterApplication</text>
</a>
</g>
</g>
<!-- n2&#45;&gt;n8 -->
<g id="edge15" class="edge"><title>n2&#45;&gt;n8</title>
<path fill="none" stroke="#00cd00" d="M1599.61,-93.4066C1562.22,-79.5295 1496.02,-54.9572 1449.97,-37.8641"/>
<polygon fill="#00cd00" stroke="#00cd00" points="1451.06,-34.5353 1440.46,-34.3367 1448.62,-41.0978 1451.06,-34.5353"/>
<text text-anchor="middle" x="1550.65" y="-57.8" font-family="Times New Roman,serif" font-size="14.00">governs</text>
</g>
<!-- n9 -->
<g id="node9" class="node"><title>n9</title>
<g id="a_node9"><a xlink:href="file:///C:/sadl/git/RACK/RACK-Ontology/Graphs/REQUIREMENTS.owl.svg" xlink:title="Rq:REQUIREMENT">
<polygon fill="#00008b" stroke="black" points="1650.65,-36 1513.65,-36 1513.65,-0 1650.65,-0 1650.65,-36"/>
<text text-anchor="middle" x="1582.15" y="-14.3" font-family="Times New Roman,serif" font-size="14.00" fill="white">Rq:REQUIREMENT</text>
</a>
</g>
</g>
<!-- n2&#45;&gt;n9 -->
<g id="edge16" class="edge"><title>n2&#45;&gt;n9</title>
<path fill="none" stroke="black" d="M1619.06,-87.2067C1612.55,-75.1778 1603.66,-58.7478 1596.23,-45.0276"/>
<polygon fill="black" stroke="black" points="1599.21,-43.1782 1591.37,-36.0493 1593.05,-46.5099 1599.21,-43.1782"/>
<text text-anchor="middle" x="1617.65" y="-57.8" font-family="Times New Roman,serif" font-size="14.00">is a</text>
</g>
<!-- n10 -->
<g id="node10" class="node"><title>n10</title>
<polygon fill="none" stroke="black" points="2511.15,-36 1881.15,-36 1881.15,-0 2511.15,-0 2511.15,-36"/>
<text text-anchor="middle" x="2196.15" y="-14.3" font-family="Times New Roman,serif" font-size="14.00">The Computer shall increment the counter when a inflow event is received and the counter is less than max int.</text>
</g>
<!-- n2&#45;&gt;n10 -->
<g id="edge12" class="edge"><title>n2&#45;&gt;n10</title>
<path fill="none" stroke="#00cd00" d="M1662.4,-98.8743C1741.64,-87.0156 1940.87,-57.2013 2072.24,-37.5429"/>
<polygon fill="#00cd00" stroke="#00cd00" points="2072.99,-40.9691 2082.36,-36.0276 2071.95,-34.0462 2072.99,-40.9691"/>
<text text-anchor="middle" x="1956.65" y="-57.8" font-family="Times New Roman,serif" font-size="14.00">text</text>
</g>
<!-- n11 -->
<g id="node11" class="node"><title>n11</title>
<g id="a_node11"><a xlink:href="file:///C:/sadl/git/RACK/RACK-Ontology/Graphs/Turnstiles.owl.svg" xlink:title="null:Sys&#45;1">
<ellipse fill="blue" stroke="black" cx="1715.15" cy="-18" rx="46.2923" ry="18"/>
<text text-anchor="middle" x="1715.15" y="-14.3" font-family="Times New Roman,serif" font-size="14.00" fill="white">null:Sys&#45;1</text>
</a>
</g>
</g>
<!-- n2&#45;&gt;n11 -->
<g id="edge13" class="edge"><title>n2&#45;&gt;n11</title>
<path fill="none" stroke="#00cd00" d="M1644.1,-88.4097C1657.3,-75.5128 1676.25,-56.9995 1691.26,-42.336"/>
<polygon fill="#00cd00" stroke="#00cd00" points="1693.99,-44.5609 1698.7,-35.069 1689.1,-39.5539 1693.99,-44.5609"/>
<text text-anchor="middle" x="1699.65" y="-57.8" font-family="Times New Roman,serif" font-size="14.00">satisfies</text>
</g>
<!-- n12 -->
<g id="node12" class="node"><title>n12</title>
<g id="a_node12"><a xlink:href="file:///C:/sadl/git/RACK/RACK-Ontology/Graphs/HazardAssesment.owl.svg" xlink:title="ha:H&#45;1.2">
<ellipse fill="blue" stroke="black" cx="1821.15" cy="-18" rx="41.6928" ry="18"/>
<text text-anchor="middle" x="1821.15" y="-14.3" font-family="Times New Roman,serif" font-size="14.00" fill="white">ha:H&#45;1.2</text>
</a>
</g>
</g>
<!-- n2&#45;&gt;n12 -->
<g id="edge14" class="edge"><title>n2&#45;&gt;n12</title>
<path fill="none" stroke="#00cd00" d="M1658.16,-94.5061C1677.78,-88.0027 1703.81,-78.8058 1726.15,-69 1747.22,-59.7475 1770.06,-47.7884 1788.07,-37.8862"/>
<polygon fill="#00cd00" stroke="#00cd00" points="1789.97,-40.836 1797.01,-32.9207 1786.57,-34.7166 1789.97,-40.836"/>
<text text-anchor="middle" x="1780.65" y="-57.8" font-family="Times New Roman,serif" font-size="14.00">mitigates</text>
</g>
<!-- n3&#45;&gt;n3 -->
<g id="edge25" class="edge"><title>n3&#45;&gt;n3</title>
<path fill="none" stroke="#00cd00" d="M1340.08,-112.867C1351.9,-113.036 1361.54,-110.414 1361.54,-105 1361.54,-101.278 1356.99,-98.8751 1350.29,-97.7919"/>
<polygon fill="#00cd00" stroke="#00cd00" points="1350.28,-94.2838 1340.08,-97.1327 1349.83,-101.269 1350.28,-94.2838"/>
<text text-anchor="middle" x="1405.04" y="-101.3" font-family="Times New Roman,serif" font-size="14.00">uniqueIdentifier</text>
</g>
<!-- n3&#45;&gt;n8 -->
<g id="edge29" class="edge"><title>n3&#45;&gt;n8</title>
<path fill="none" stroke="#00cd00" d="M1318.27,-87.6318C1325.74,-77.3172 1336.19,-64.0909 1347.15,-54 1351.98,-49.5493 1357.42,-45.2512 1362.93,-41.2812"/>
<polygon fill="#00cd00" stroke="#00cd00" points="1365.29,-43.8997 1371.53,-35.3381 1361.32,-38.1392 1365.29,-43.8997"/>
<text text-anchor="middle" x="1369.65" y="-57.8" font-family="Times New Roman,serif" font-size="14.00">governs</text>
</g>
<!-- n3&#45;&gt;n9 -->
<g id="edge30" class="edge"><title>n3&#45;&gt;n9</title>
<path fill="none" stroke="black" d="M1339.18,-96.2848C1365.65,-89.6942 1404.1,-79.6175 1437.15,-69 1455.22,-63.192 1459.25,-60.3365 1477.15,-54 1490.98,-49.1023 1505.91,-44.0117 1520.04,-39.2792"/>
<polygon fill="black" stroke="black" points="1521.3,-42.55 1529.68,-36.0669 1519.08,-35.9093 1521.3,-42.55"/>
<text text-anchor="middle" x="1486.65" y="-57.8" font-family="Times New Roman,serif" font-size="14.00">is a</text>
</g>
<!-- n17 -->
<g id="node17" class="node"><title>n17</title>
<polygon fill="none" stroke="black" points="1072.65,-36 447.646,-36 447.646,-0 1072.65,-0 1072.65,-36"/>
<text text-anchor="middle" x="760.146" y="-14.3" font-family="Times New Roman,serif" font-size="14.00">The Computer shall decrement the counter when a outflow event is received and the counter is greater than 0.</text>
</g>
<!-- n3&#45;&gt;n17 -->
<g id="edge26" class="edge"><title>n3&#45;&gt;n17</title>
<path fill="none" stroke="#00cd00" d="M1280.24,-92.8246C1274.05,-90.6025 1267.44,-88.4963 1261.15,-87 1191.96,-70.5539 1172.67,-78.1452 1102.15,-69 1028.28,-59.4219 945.64,-47.377 880.101,-37.5093"/>
<polygon fill="#00cd00" stroke="#00cd00" points="880.557,-34.0385 870.146,-36.0075 879.512,-40.9602 880.557,-34.0385"/>
<text text-anchor="middle" x="1112.65" y="-57.8" font-family="Times New Roman,serif" font-size="14.00">text</text>
</g>
<!-- n18 -->
<g id="node18" class="node"><title>n18</title>
<g id="a_node18"><a xlink:href="file:///C:/sadl/git/RACK/RACK-Ontology/Graphs/Turnstiles.owl.svg" xlink:title="null:Sys&#45;2">
<ellipse fill="blue" stroke="black" cx="1238.15" cy="-18" rx="46.2923" ry="18"/>
<text text-anchor="middle" x="1238.15" y="-14.3" font-family="Times New Roman,serif" font-size="14.00" fill="white">null:Sys&#45;2</text>
</a>
</g>
</g>
<!-- n3&#45;&gt;n18 -->
<g id="edge27" class="edge"><title>n3&#45;&gt;n18</title>
<path fill="none" stroke="#00cd00" d="M1292.13,-88.2794C1286.65,-82.3561 1280.48,-75.483 1275.15,-69 1268.52,-60.9567 1261.64,-51.8739 1255.63,-43.6778"/>
<polygon fill="#00cd00" stroke="#00cd00" points="1258.43,-41.5816 1249.73,-35.5382 1252.76,-45.6893 1258.43,-41.5816"/>
<text text-anchor="middle" x="1297.65" y="-57.8" font-family="Times New Roman,serif" font-size="14.00">satisfies</text>
</g>
<!-- n19 -->
<g id="node19" class="node"><title>n19</title>
<g id="a_node19"><a xlink:href="file:///C:/sadl/git/RACK/RACK-Ontology/Graphs/HazardAssesment.owl.svg" xlink:title="ha:H&#45;1.1">
<ellipse fill="blue" stroke="black" cx="1132.15" cy="-18" rx="41.6928" ry="18"/>
<text text-anchor="middle" x="1132.15" y="-14.3" font-family="Times New Roman,serif" font-size="14.00" fill="white">ha:H&#45;1.1</text>
</a>
</g>
</g>
<!-- n3&#45;&gt;n19 -->
<g id="edge28" class="edge"><title>n3&#45;&gt;n19</title>
<path fill="none" stroke="#00cd00" d="M1279.72,-92.7746C1273.68,-90.6095 1267.26,-88.5395 1261.15,-87 1233.29,-79.9811 1152.21,-90.4898 1133.15,-69 1127.72,-62.88 1126.15,-54.492 1126.34,-46.3346"/>
<polygon fill="#00cd00" stroke="#00cd00" points="1129.83,-46.6149 1127.35,-36.3131 1122.86,-45.9094 1129.83,-46.6149"/>
<text text-anchor="middle" x="1157.65" y="-57.8" font-family="Times New Roman,serif" font-size="14.00">mitigates</text>
</g>
<!-- n4&#45;&gt;n4 -->
<g id="edge6" class="edge"><title>n4&#45;&gt;n4</title>
<path fill="none" stroke="#00cd00" d="M1144.08,-112.867C1155.9,-113.036 1165.54,-110.414 1165.54,-105 1165.54,-101.278 1160.99,-98.8751 1154.29,-97.7919"/>
<polygon fill="#00cd00" stroke="#00cd00" points="1154.28,-94.2838 1144.08,-97.1327 1153.83,-101.269 1154.28,-94.2838"/>
<text text-anchor="middle" x="1209.04" y="-101.3" font-family="Times New Roman,serif" font-size="14.00">uniqueIdentifier</text>
</g>
<!-- n6 -->
<g id="node6" class="node"><title>n6</title>
<polygon fill="none" stroke="black" points="429.646,-36 110.646,-36 110.646,-0 429.646,-0 429.646,-36"/>
<text text-anchor="middle" x="270.146" y="-14.3" font-family="Times New Roman,serif" font-size="14.00">The Computer shall publish the counter at a 1 htz rate.</text>
</g>
<!-- n4&#45;&gt;n6 -->
<g id="edge7" class="edge"><title>n4&#45;&gt;n6</title>
<path fill="none" stroke="#00cd00" d="M1075.76,-100.426C976.994,-90.452 689.757,-61.4408 439.761,-36.1633"/>
<polygon fill="#00cd00" stroke="#00cd00" points="440.063,-32.6761 429.762,-35.1522 439.359,-39.6405 440.063,-32.6761"/>
<text text-anchor="middle" x="762.646" y="-57.8" font-family="Times New Roman,serif" font-size="14.00">text</text>
</g>
<!-- n7 -->
<g id="node7" class="node"><title>n7</title>
<g id="a_node7"><a xlink:href="file:///C:/sadl/git/RACK/RACK-Ontology/Graphs/Turnstiles.owl.svg" xlink:title="null:Sys&#45;3">
<ellipse fill="blue" stroke="black" cx="46.1459" cy="-18" rx="46.2923" ry="18"/>
<text text-anchor="middle" x="46.1459" y="-14.3" font-family="Times New Roman,serif" font-size="14.00" fill="white">null:Sys&#45;3</text>
</a>
</g>
</g>
<!-- n4&#45;&gt;n7 -->
<g id="edge8" class="edge"><title>n4&#45;&gt;n7</title>
<path fill="none" stroke="#00cd00" d="M1074.99,-102.705C917.897,-96.9054 293.875,-72.0105 101.146,-36 97.2239,-35.2672 93.1875,-34.3495 89.1679,-33.3224"/>
<polygon fill="#00cd00" stroke="#00cd00" points="89.8567,-29.8815 79.2853,-30.5871 87.9893,-36.6279 89.8567,-29.8815"/>
<text text-anchor="middle" x="439.646" y="-57.8" font-family="Times New Roman,serif" font-size="14.00">satisfies</text>
</g>
<!-- n4&#45;&gt;n8 -->
<g id="edge9" class="edge"><title>n4&#45;&gt;n8</title>
<path fill="none" stroke="#00cd00" d="M1136.23,-91.518C1164.36,-77.5894 1207.11,-56.647 1215.15,-54 1234.41,-47.6588 1278.57,-39.1893 1318.8,-32.1702"/>
<polygon fill="#00cd00" stroke="#00cd00" points="1319.4,-35.6188 1328.66,-30.4656 1318.21,-28.7212 1319.4,-35.6188"/>
<text text-anchor="middle" x="1237.65" y="-57.8" font-family="Times New Roman,serif" font-size="14.00">governs</text>
</g>
<!-- n4&#45;&gt;n9 -->
<g id="edge10" class="edge"><title>n4&#45;&gt;n9</title>
<path fill="none" stroke="black" d="M1146.4,-100.055C1219.3,-91.8385 1380.78,-73.2942 1392.15,-69 1403.22,-64.8182 1403.23,-58.5741 1414.15,-54 1449.42,-39.2163 1462.84,-43.6391 1503.33,-36.2352"/>
<polygon fill="black" stroke="black" points="1504.18,-39.6367 1513.32,-34.2751 1502.83,-32.7679 1504.18,-39.6367"/>
<text text-anchor="middle" x="1423.65" y="-57.8" font-family="Times New Roman,serif" font-size="14.00">is a</text>
</g>
<!-- n13 -->
<g id="node13" class="node"><title>n13</title>
<ellipse fill="blue" stroke="black" cx="1581.15" cy="-279" rx="36.2938" ry="18"/>
<text text-anchor="middle" x="1581.15" y="-275.3" font-family="Times New Roman,serif" font-size="14.00" fill="white">display</text>
</g>
<!-- n13&#45;&gt;n1 -->
<g id="edge17" class="edge"><title>n13&#45;&gt;n1</title>
<path fill="none" stroke="#00cd00" d="M1550,-269.461C1494.04,-254.116 1376.43,-221.867 1313.31,-204.56"/>
<polygon fill="#00cd00" stroke="#00cd00" points="1314.23,-201.185 1303.66,-201.916 1312.38,-207.936 1314.23,-201.185"/>
<text text-anchor="middle" x="1488.65" y="-231.8" font-family="Times New Roman,serif" font-size="14.00">uniqueIdentifier</text>
</g>
<!-- n13&#45;&gt;n4 -->
<g id="edge18" class="edge"><title>n13&#45;&gt;n4</title>
<path fill="none" stroke="#00cd00" d="M1544.91,-276.549C1453.73,-272.231 1217.74,-256.709 1157.15,-210 1132.9,-191.311 1121.15,-157.109 1115.65,-133.042"/>
<polygon fill="#00cd00" stroke="#00cd00" points="1119.05,-132.192 1113.6,-123.106 1112.2,-133.607 1119.05,-132.192"/>
<text text-anchor="middle" x="1190.65" y="-188.3" font-family="Times New Roman,serif" font-size="14.00">providedBy</text>
</g>
<!-- n13&#45;&gt;n5 -->
<g id="edge20" class="edge"><title>n13&#45;&gt;n5</title>
<path fill="none" stroke="black" d="M1616.45,-274.629C1649.44,-270.466 1699.42,-261.521 1739.15,-243 1760.98,-232.82 1766.05,-227.927 1782.15,-210 1806.13,-183.284 1797.66,-165.234 1824.15,-141 1829.44,-136.153 1835.54,-131.826 1841.88,-128.01"/>
<polygon fill="black" stroke="black" points="1843.61,-131.053 1850.63,-123.121 1840.19,-124.942 1843.61,-131.053"/>
<text text-anchor="middle" x="1812.65" y="-188.3" font-family="Times New Roman,serif" font-size="14.00">is a</text>
</g>
<!-- n14 -->
<g id="node14" class="node"><title>n14</title>
<g id="a_node14"><a xlink:href="file:///C:/sadl/git/RACK/RACK-Ontology/Graphs/Turnstiles.owl.svg" xlink:title="null:census">
<ellipse fill="blue" stroke="black" cx="1723.15" cy="-192" rx="50.0912" ry="18"/>
<text text-anchor="middle" x="1723.15" y="-188.3" font-family="Times New Roman,serif" font-size="14.00" fill="white">null:census</text>
</a>
</g>
</g>
<!-- n13&#45;&gt;n14 -->
<g id="edge19" class="edge"><title>n13&#45;&gt;n14</title>
<path fill="none" stroke="#00cd00" d="M1603.33,-264.719C1626.46,-250.875 1662.98,-229.016 1689.62,-213.066"/>
<polygon fill="#00cd00" stroke="#00cd00" points="1691.47,-216.042 1698.25,-207.903 1687.87,-210.036 1691.47,-216.042"/>
<text text-anchor="middle" x="1698.15" y="-231.8" font-family="Times New Roman,serif" font-size="14.00">consumedBy</text>
</g>
<!-- n15 -->
<g id="node15" class="node"><title>n15</title>
<ellipse fill="blue" stroke="black" cx="1940.15" cy="-192" rx="53.8905" ry="18"/>
<text text-anchor="middle" x="1940.15" y="-188.3" font-family="Times New Roman,serif" font-size="14.00" fill="white">inflowEvent</text>
</g>
<!-- n15&#45;&gt;n2 -->
<g id="edge23" class="edge"><title>n15&#45;&gt;n2</title>
<path fill="none" stroke="#00cd00" d="M1902.65,-178.931C1869.33,-168.374 1819.21,-152.911 1775.15,-141 1740.14,-131.539 1700.09,-122.093 1670.64,-115.402"/>
<polygon fill="#00cd00" stroke="#00cd00" points="1671.22,-111.945 1660.69,-113.155 1669.68,-118.773 1671.22,-111.945"/>
<text text-anchor="middle" x="1863.15" y="-144.8" font-family="Times New Roman,serif" font-size="14.00">consumedBy</text>
</g>
<!-- n15&#45;&gt;n5 -->
<g id="edge24" class="edge"><title>n15&#45;&gt;n5</title>
<path fill="none" stroke="black" d="M1933.49,-173.999C1929.44,-164.165 1923.94,-151.665 1918.15,-141 1916.46,-137.904 1914.59,-134.725 1912.67,-131.607"/>
<polygon fill="black" stroke="black" points="1915.55,-129.617 1907.2,-123.095 1909.66,-133.4 1915.55,-129.617"/>
<text text-anchor="middle" x="1934.65" y="-144.8" font-family="Times New Roman,serif" font-size="14.00">is a</text>
</g>
<!-- n15&#45;&gt;n15 -->
<g id="edge21" class="edge"><title>n15&#45;&gt;n15</title>
<path fill="none" stroke="#00cd00" d="M1988.9,-199.817C2002.07,-199.404 2012.09,-196.799 2012.09,-192 2012.09,-188.551 2006.92,-186.235 1999.11,-185.052"/>
<polygon fill="#00cd00" stroke="#00cd00" points="1999.16,-181.543 1988.9,-184.183 1998.57,-188.518 1999.16,-181.543"/>
<text text-anchor="middle" x="2055.59" y="-188.3" font-family="Times New Roman,serif" font-size="14.00">uniqueIdentifier</text>
</g>
<!-- n16 -->
<g id="node16" class="node"><title>n16</title>
<g id="a_node16"><a xlink:href="file:///C:/sadl/git/RACK/RACK-Ontology/Graphs/Turnstiles.owl.svg" xlink:title="null:inflow">
<ellipse fill="blue" stroke="black" cx="2069.15" cy="-105" rx="48.1917" ry="18"/>
<text text-anchor="middle" x="2069.15" y="-101.3" font-family="Times New Roman,serif" font-size="14.00" fill="white">null:inflow</text>
</a>
</g>
</g>
<!-- n15&#45;&gt;n16 -->
<g id="edge22" class="edge"><title>n15&#45;&gt;n16</title>
<path fill="none" stroke="#00cd00" d="M1963.51,-175.607C1984.37,-161.863 2015.08,-141.626 2038.02,-126.511"/>
<polygon fill="#00cd00" stroke="#00cd00" points="2039.97,-129.418 2046.39,-120.993 2036.12,-123.573 2039.97,-129.418"/>
<text text-anchor="middle" x="2045.65" y="-144.8" font-family="Times New Roman,serif" font-size="14.00">providedBy</text>
</g>
<!-- n20 -->
<g id="node20" class="node"><title>n20</title>
<ellipse fill="blue" stroke="black" cx="1491.15" cy="-192" rx="59.2899" ry="18"/>
<text text-anchor="middle" x="1491.15" y="-188.3" font-family="Times New Roman,serif" font-size="14.00" fill="white">outflowEvent</text>
</g>
<!-- n20&#45;&gt;n3 -->
<g id="edge33" class="edge"><title>n20&#45;&gt;n3</title>
<path fill="none" stroke="#00cd00" d="M1462.83,-176.123C1451.38,-170.007 1438.07,-162.781 1426.15,-156 1414.88,-149.593 1412.82,-146.618 1401.15,-141 1383.7,-132.606 1363.68,-124.902 1346.61,-118.871"/>
<polygon fill="#00cd00" stroke="#00cd00" points="1347.53,-115.488 1336.94,-115.521 1345.24,-122.102 1347.53,-115.488"/>
<text text-anchor="middle" x="1463.15" y="-144.8" font-family="Times New Roman,serif" font-size="14.00">consumedBy</text>
</g>
<!-- n20&#45;&gt;n5 -->
<g id="edge34" class="edge"><title>n20&#45;&gt;n5</title>
<path fill="none" stroke="black" d="M1542.21,-182.656C1581.64,-176.016 1637.5,-166.176 1686.15,-156 1730.08,-146.81 1778.88,-135.215 1818.26,-125.506"/>
<polygon fill="black" stroke="black" points="1819.2,-128.88 1828.07,-123.08 1817.52,-122.085 1819.2,-128.88"/>
<text text-anchor="middle" x="1759.65" y="-144.8" font-family="Times New Roman,serif" font-size="14.00">is a</text>
</g>
<!-- n20&#45;&gt;n20 -->
<g id="edge31" class="edge"><title>n20&#45;&gt;n20</title>
<path fill="none" stroke="#00cd00" d="M1544.51,-199.781C1558.09,-199.269 1568.29,-196.676 1568.29,-192 1568.29,-188.566 1562.79,-186.255 1554.49,-185.067"/>
<polygon fill="#00cd00" stroke="#00cd00" points="1554.77,-181.579 1544.51,-184.219 1554.17,-188.554 1554.77,-181.579"/>
<text text-anchor="middle" x="1611.79" y="-188.3" font-family="Times New Roman,serif" font-size="14.00">uniqueIdentifier</text>
</g>
<!-- n21 -->
<g id="node21" class="node"><title>n21</title>
<g id="a_node21"><a xlink:href="file:///C:/sadl/git/RACK/RACK-Ontology/Graphs/Turnstiles.owl.svg" xlink:title="null:outflow">
<ellipse fill="blue" stroke="black" cx="1520.15" cy="-105" rx="53.0913" ry="18"/>
<text text-anchor="middle" x="1520.15" y="-101.3" font-family="Times New Roman,serif" font-size="14.00" fill="white">null:outflow</text>
</a>
</g>
</g>
<!-- n20&#45;&gt;n21 -->
<g id="edge32" class="edge"><title>n20&#45;&gt;n21</title>
<path fill="none" stroke="#00cd00" d="M1497.01,-173.799C1501.02,-162.047 1506.42,-146.238 1510.99,-132.842"/>
<polygon fill="#00cd00" stroke="#00cd00" points="1514.37,-133.77 1514.29,-123.175 1507.74,-131.51 1514.37,-133.77"/>
<text text-anchor="middle" x="1541.65" y="-144.8" font-family="Times New Roman,serif" font-size="14.00">providedBy</text>
</g>
</g>
</svg>
