<?xml version="1.0" encoding="UTF-8" standalone="no"?>
<!DOCTYPE svg PUBLIC "-//W3C//DTD SVG 1.1//EN"
 "http://www.w3.org/Graphics/SVG/1.1/DTD/svg11.dtd">
<!-- Generated by graphviz version 2.38.0 (20140413.2041)
 -->
<!-- Title: gcpp Pages: 1 -->
<svg width="3687pt" height="676pt"
 viewBox="0.00 0.00 3686.64 676.00" xmlns="http://www.w3.org/2000/svg" xmlns:xlink="http://www.w3.org/1999/xlink">
<g id="graph0" class="graph" transform="scale(1 1) rotate(0) translate(4 672)">
<title>gcpp</title>
<polygon fill="white" stroke="none" points="-4,4 -4,-672 3682.64,-672 3682.64,4 -4,4"/>
<text text-anchor="middle" x="88" y="-652.8" font-family="Times New Roman,serif" font-size="14.00">Graph of Ontology File: cpp</text>
<!-- n1 -->
<g id="node1" class="node"><title>n1</title>
<ellipse fill="blue" stroke="black" cx="581" cy="-540" rx="90.9839" ry="18"/>
<text text-anchor="middle" x="581" y="-536.3" font-family="Times New Roman,serif" font-size="14.00" fill="white">GENERATOR_CON</text>
</g>
<!-- n2 -->
<g id="node2" class="node"><title>n2</title>
<g id="a_node2"><a xlink:href="file:///C:/Sadl3Workspace4/RACK-Ontology-7-29/Graphs/SOFTWARE.owl.svg" xlink:title="sw:CLASS_CONSTRUCTOR">
<ellipse fill="blue" stroke="black" cx="221" cy="-453" rx="125.378" ry="18"/>
<text text-anchor="middle" x="221" y="-449.3" font-family="Times New Roman,serif" font-size="14.00" fill="white">sw:CLASS_CONSTRUCTOR</text>
</a>
</g>
</g>
<!-- n1&#45;&gt;n2 -->
<g id="edge1" class="edge"><title>n1&#45;&gt;n2</title>
<path fill="none" stroke="#00cd00" d="M495.022,-533.981C421.478,-528.75 321.846,-519.165 285,-504 270.311,-497.954 256.156,-487.547 244.91,-477.787"/>
<polygon fill="#00cd00" stroke="#00cd00" points="247.031,-474.986 237.269,-470.867 242.332,-480.174 247.031,-474.986"/>
<text text-anchor="middle" x="331.5" y="-492.8" font-family="Times New Roman,serif" font-size="14.00">componentType</text>
</g>
<!-- n3 -->
<g id="node3" class="node"><title>n3</title>
<ellipse fill="blue" stroke="black" cx="454" cy="-366" rx="66.0889" ry="18"/>
<text text-anchor="middle" x="454" y="-362.3" font-family="Times New Roman,serif" font-size="14.00" fill="white">GENERATOR</text>
</g>
<!-- n1&#45;&gt;n3 -->
<g id="edge2" class="edge"><title>n1&#45;&gt;n3</title>
<path fill="none" stroke="#00cd00" d="M537.987,-523.999C513.455,-513.152 484.411,-495.97 468,-471 453.038,-448.234 450.778,-416.581 451.486,-394.19"/>
<polygon fill="#00cd00" stroke="#00cd00" points="454.991,-394.194 452.03,-384.022 448.001,-393.821 454.991,-394.194"/>
<text text-anchor="middle" x="517.5" y="-449.3" font-family="Times New Roman,serif" font-size="14.00">subcomponentOf</text>
</g>
<!-- n4 -->
<g id="node4" class="node"><title>n4</title>
<polygon fill="none" stroke="black" points="418,-471 364,-471 364,-435 418,-435 418,-471"/>
<text text-anchor="middle" x="391" y="-449.3" font-family="Times New Roman,serif" font-size="14.00">()</text>
</g>
<!-- n1&#45;&gt;n4 -->
<g id="edge3" class="edge"><title>n1&#45;&gt;n4</title>
<path fill="none" stroke="#00cd00" d="M494.798,-534.132C449.736,-529.591 401.074,-520.84 387,-504 381.738,-497.704 380.892,-489.27 381.923,-481.124"/>
<polygon fill="#00cd00" stroke="#00cd00" points="385.389,-481.652 384.042,-471.143 378.541,-480.198 385.389,-481.652"/>
<text text-anchor="middle" x="416" y="-492.8" font-family="Times New Roman,serif" font-size="14.00">valueType</text>
</g>
<!-- n5 -->
<g id="node5" class="node"><title>n5</title>
<ellipse fill="blue" stroke="black" cx="575" cy="-192" rx="74.9875" ry="18"/>
<text text-anchor="middle" x="575" y="-188.3" font-family="Times New Roman,serif" font-size="14.00" fill="white">EXAMPLE_CPP</text>
</g>
<!-- n1&#45;&gt;n5 -->
<g id="edge4" class="edge"><title>n1&#45;&gt;n5</title>
<path fill="none" stroke="#00cd00" d="M578.793,-521.837C575.244,-493.292 568.425,-434.227 566,-384 563.181,-325.604 568.5,-257.159 572.094,-220.13"/>
<polygon fill="#00cd00" stroke="#00cd00" points="575.583,-220.421 573.099,-210.122 568.618,-219.722 575.583,-220.421"/>
<text text-anchor="middle" x="592.5" y="-362.3" font-family="Times New Roman,serif" font-size="14.00">definedIn</text>
</g>
<!-- n6 -->
<g id="node6" class="node"><title>n6</title>
<ellipse fill="blue" stroke="black" cx="1011" cy="-453" rx="100.182" ry="18"/>
<text text-anchor="middle" x="1011" y="-449.3" font-family="Times New Roman,serif" font-size="14.00" fill="white">GENERATOR_STATE</text>
</g>
<!-- n1&#45;&gt;n6 -->
<g id="edge5" class="edge"><title>n1&#45;&gt;n6</title>
<path fill="none" stroke="#00cd00" d="M643.066,-526.731C720.619,-511.401 853.213,-485.19 936.263,-468.774"/>
<polygon fill="#00cd00" stroke="#00cd00" points="937.007,-472.194 946.138,-466.822 935.649,-465.327 937.007,-472.194"/>
<text text-anchor="middle" x="847.5" y="-492.8" font-family="Times New Roman,serif" font-size="14.00">mentions</text>
</g>
<!-- n7 -->
<g id="node7" class="node"><title>n7</title>
<g id="a_node7"><a xlink:href="file:///C:/Sadl3Workspace4/RACK-Ontology-7-29/Graphs/SOFTWARE.owl.svg" xlink:title="sw:COMPONENT">
<polygon fill="#00008b" stroke="black" points="1669.5,-297 1546.5,-297 1546.5,-261 1669.5,-261 1669.5,-297"/>
<text text-anchor="middle" x="1608" y="-275.3" font-family="Times New Roman,serif" font-size="14.00" fill="white">sw:COMPONENT</text>
</a>
</g>
</g>
<!-- n1&#45;&gt;n7 -->
<g id="edge6" class="edge"><title>n1&#45;&gt;n7</title>
<path fill="none" stroke="black" d="M670.596,-536.619C814.381,-532.294 1084.67,-521.899 1125,-504 1165.22,-486.151 1156.63,-454.66 1196,-435 1242.28,-411.885 1260.01,-425.716 1311,-417 1390.31,-403.444 1416.58,-419.053 1489,-384 1528.5,-364.884 1565.08,-329.066 1586.99,-304.873"/>
<polygon fill="black" stroke="black" points="1589.81,-306.958 1593.83,-297.155 1584.58,-302.313 1589.81,-306.958"/>
<text text-anchor="middle" x="1451.5" y="-405.8" font-family="Times New Roman,serif" font-size="14.00">is a</text>
</g>
<!-- n3&#45;&gt;n5 -->
<g id="edge53" class="edge"><title>n3&#45;&gt;n5</title>
<path fill="none" stroke="#00cd00" d="M399.205,-355.698C331.081,-341.771 228.423,-311.584 269,-261 296.839,-226.295 413.945,-208.183 494.932,-199.625"/>
<polygon fill="#00cd00" stroke="#00cd00" points="495.525,-203.082 505.115,-198.578 494.81,-196.119 495.525,-203.082"/>
<text text-anchor="middle" x="295.5" y="-275.3" font-family="Times New Roman,serif" font-size="14.00">definedIn</text>
</g>
<!-- n3&#45;&gt;n7 -->
<g id="edge54" class="edge"><title>n3&#45;&gt;n7</title>
<path fill="none" stroke="black" d="M502.468,-353.63C512.828,-351.5 523.741,-349.481 534,-348 636.359,-333.219 664.443,-349.548 766,-330 787.948,-325.775 791.952,-318.666 814,-315 962.021,-290.387 1339.48,-309.631 1489,-297 1504.35,-295.703 1520.75,-293.74 1536.31,-291.604"/>
<polygon fill="black" stroke="black" points="1536.98,-295.043 1546.39,-290.18 1536,-288.112 1536.98,-295.043"/>
<text text-anchor="middle" x="823.5" y="-318.8" font-family="Times New Roman,serif" font-size="14.00">is a</text>
</g>
<!-- n37 -->
<g id="node37" class="node"><title>n37</title>
<g id="a_node37"><a xlink:href="file:///C:/Sadl3Workspace4/RACK-Ontology-7-29/Graphs/SOFTWARE.owl.svg" xlink:title="sw:CLASS">
<ellipse fill="blue" stroke="black" cx="383" cy="-279" rx="51.9908" ry="18"/>
<text text-anchor="middle" x="383" y="-275.3" font-family="Times New Roman,serif" font-size="14.00" fill="white">sw:CLASS</text>
</a>
</g>
</g>
<!-- n3&#45;&gt;n37 -->
<g id="edge51" class="edge"><title>n3&#45;&gt;n37</title>
<path fill="none" stroke="#00cd00" d="M406.881,-353.113C395.525,-347.922 384.737,-340.52 378,-330 373.682,-323.257 373.103,-314.923 374.137,-307.004"/>
<polygon fill="#00cd00" stroke="#00cd00" points="377.607,-307.51 376.246,-297.003 370.757,-306.065 377.607,-307.51"/>
<text text-anchor="middle" x="424.5" y="-318.8" font-family="Times New Roman,serif" font-size="14.00">componentType</text>
</g>
<!-- n38 -->
<g id="node38" class="node"><title>n38</title>
<polygon fill="none" stroke="black" points="528,-297 456,-297 456,-261 528,-261 528,-297"/>
<text text-anchor="middle" x="492" y="-275.3" font-family="Times New Roman,serif" font-size="14.00">Generator</text>
</g>
<!-- n3&#45;&gt;n38 -->
<g id="edge52" class="edge"><title>n3&#45;&gt;n38</title>
<path fill="none" stroke="#00cd00" d="M465.22,-347.951C468.623,-342.367 472.199,-336.043 475,-330 478.432,-322.597 481.532,-314.298 484.117,-306.621"/>
<polygon fill="#00cd00" stroke="#00cd00" points="487.477,-307.606 487.202,-297.014 480.812,-305.465 487.477,-307.606"/>
<text text-anchor="middle" x="497" y="-318.8" font-family="Times New Roman,serif" font-size="14.00">name</text>
</g>
<!-- n8 -->
<g id="node8" class="node"><title>n8</title>
<ellipse fill="blue" stroke="black" cx="511" cy="-105" rx="27.8951" ry="18"/>
<text text-anchor="middle" x="511" y="-101.3" font-family="Times New Roman,serif" font-size="14.00" fill="white">CPP</text>
</g>
<!-- n5&#45;&gt;n8 -->
<g id="edge7" class="edge"><title>n5&#45;&gt;n8</title>
<path fill="none" stroke="#00cd00" d="M555.993,-174.498C550.171,-168.943 543.991,-162.498 539,-156 533.25,-148.514 527.916,-139.71 523.48,-131.592"/>
<polygon fill="#00cd00" stroke="#00cd00" points="526.456,-129.73 518.713,-122.498 520.256,-132.98 526.456,-129.73"/>
<text text-anchor="middle" x="563.5" y="-144.8" font-family="Times New Roman,serif" font-size="14.00">language</text>
</g>
<!-- n9 -->
<g id="node9" class="node"><title>n9</title>
<g id="a_node9"><a xlink:href="file:///C:/Sadl3Workspace4/RACK-Ontology-7-29/Graphs/SOFTWARE.owl.svg" xlink:title="sw:CODE_FILE">
<polygon fill="#00008b" stroke="black" points="667,-123 557,-123 557,-87 667,-87 667,-123"/>
<text text-anchor="middle" x="612" y="-101.3" font-family="Times New Roman,serif" font-size="14.00" fill="white">sw:CODE_FILE</text>
</a>
</g>
</g>
<!-- n5&#45;&gt;n9 -->
<g id="edge8" class="edge"><title>n5&#45;&gt;n9</title>
<path fill="none" stroke="black" d="M582.488,-173.799C587.653,-161.932 594.62,-145.928 600.487,-132.449"/>
<polygon fill="black" stroke="black" points="603.742,-133.741 604.524,-123.175 597.323,-130.947 603.742,-133.741"/>
<text text-anchor="middle" x="605.5" y="-144.8" font-family="Times New Roman,serif" font-size="14.00">is a</text>
</g>
<!-- n6&#45;&gt;n3 -->
<g id="edge25" class="edge"><title>n6&#45;&gt;n3</title>
<path fill="none" stroke="#00cd00" d="M915.173,-447.616C827.211,-442.667 703.821,-433.124 658,-417 646.488,-412.949 646.346,-406.494 635,-402 592.608,-385.209 578.751,-392.74 534,-384 527.446,-382.72 520.6,-381.336 513.79,-379.931"/>
<polygon fill="#00cd00" stroke="#00cd00" points="514.382,-376.479 503.878,-377.865 512.953,-383.332 514.382,-376.479"/>
<text text-anchor="middle" x="707.5" y="-405.8" font-family="Times New Roman,serif" font-size="14.00">subcomponentOf</text>
</g>
<!-- n6&#45;&gt;n5 -->
<g id="edge27" class="edge"><title>n6&#45;&gt;n5</title>
<path fill="none" stroke="#00cd00" d="M947.124,-439.095C895.795,-428.806 821.825,-414.156 757,-402 712.185,-393.596 692.462,-411.378 656,-384 602.895,-344.125 584.269,-262.614 578.003,-220.124"/>
<polygon fill="#00cd00" stroke="#00cd00" points="581.471,-219.652 576.663,-210.211 574.534,-220.59 581.471,-219.652"/>
<text text-anchor="middle" x="638.5" y="-318.8" font-family="Times New Roman,serif" font-size="14.00">definedIn</text>
</g>
<!-- n6&#45;&gt;n7 -->
<g id="edge28" class="edge"><title>n6&#45;&gt;n7</title>
<path fill="none" stroke="black" d="M1084.55,-440.743C1098,-438.767 1111.91,-436.777 1125,-435 1190.22,-426.145 1207.62,-430.686 1272,-417 1294.28,-412.264 1298.82,-407.184 1321,-402 1369.24,-390.724 1387.26,-407.258 1431,-384 1468.2,-364.22 1460.28,-337.346 1496,-315 1508.35,-307.274 1522.54,-301.134 1536.57,-296.296"/>
<polygon fill="black" stroke="black" points="1537.81,-299.573 1546.24,-293.151 1535.65,-292.916 1537.81,-299.573"/>
<text text-anchor="middle" x="1475.5" y="-362.3" font-family="Times New Roman,serif" font-size="14.00">is a</text>
</g>
<!-- n21 -->
<g id="node21" class="node"><title>n21</title>
<g id="a_node21"><a xlink:href="file:///C:/Sadl3Workspace4/RACK-Ontology-7-29/Graphs/SOFTWARE.owl.svg" xlink:title="sw:CLASS_MEMBER_VARIABLE">
<ellipse fill="blue" stroke="black" cx="1016" cy="-366" rx="144.874" ry="18"/>
<text text-anchor="middle" x="1016" y="-362.3" font-family="Times New Roman,serif" font-size="14.00" fill="white">sw:CLASS_MEMBER_VARIABLE</text>
</a>
</g>
</g>
<!-- n6&#45;&gt;n21 -->
<g id="edge22" class="edge"><title>n6&#45;&gt;n21</title>
<path fill="none" stroke="#00cd00" d="M1012.01,-434.799C1012.7,-423.163 1013.61,-407.548 1014.4,-394.237"/>
<polygon fill="#00cd00" stroke="#00cd00" points="1017.9,-394.364 1014.99,-384.175 1010.91,-393.953 1017.9,-394.364"/>
<text text-anchor="middle" x="1060.5" y="-405.8" font-family="Times New Roman,serif" font-size="14.00">componentType</text>
</g>
<!-- n22 -->
<g id="node22" class="node"><title>n22</title>
<polygon fill="none" stroke="black" points="1233,-384 1179,-384 1179,-348 1233,-348 1233,-384"/>
<text text-anchor="middle" x="1206" y="-362.3" font-family="Times New Roman,serif" font-size="14.00">state</text>
</g>
<!-- n6&#45;&gt;n22 -->
<g id="edge23" class="edge"><title>n6&#45;&gt;n22</title>
<path fill="none" stroke="#00cd00" d="M1058.1,-437.114C1075,-431.358 1094.05,-424.378 1111,-417 1130.94,-408.321 1152.43,-397.169 1169.92,-387.599"/>
<polygon fill="#00cd00" stroke="#00cd00" points="1171.62,-390.662 1178.68,-382.761 1168.23,-384.535 1171.62,-390.662"/>
<text text-anchor="middle" x="1156" y="-405.8" font-family="Times New Roman,serif" font-size="14.00">name</text>
</g>
<!-- n23 -->
<g id="node23" class="node"><title>n23</title>
<polygon fill="none" stroke="black" points="1305,-384 1251,-384 1251,-348 1305,-348 1305,-384"/>
<text text-anchor="middle" x="1278" y="-362.3" font-family="Times New Roman,serif" font-size="14.00">int</text>
</g>
<!-- n6&#45;&gt;n23 -->
<g id="edge24" class="edge"><title>n6&#45;&gt;n23</title>
<path fill="none" stroke="#00cd00" d="M1083.47,-440.445C1112.37,-434.83 1145.68,-427.079 1175,-417 1197.94,-409.115 1222.41,-397.386 1241.75,-387.269"/>
<polygon fill="#00cd00" stroke="#00cd00" points="1243.61,-390.242 1250.8,-382.456 1240.32,-384.062 1243.61,-390.242"/>
<text text-anchor="middle" x="1239" y="-405.8" font-family="Times New Roman,serif" font-size="14.00">valueType</text>
</g>
<!-- n24 -->
<g id="node24" class="node"><title>n24</title>
<ellipse fill="blue" stroke="black" cx="759" cy="-366" rx="94.4839" ry="18"/>
<text text-anchor="middle" x="759" y="-362.3" font-family="Times New Roman,serif" font-size="14.00" fill="white">STATE_INVARIANT</text>
</g>
<!-- n6&#45;&gt;n24 -->
<g id="edge26" class="edge"><title>n6&#45;&gt;n24</title>
<path fill="none" stroke="#00cd00" d="M965.947,-436.804C923.082,-422.345 858.542,-400.576 812.953,-385.198"/>
<polygon fill="#00cd00" stroke="#00cd00" points="813.834,-381.802 803.24,-381.922 811.597,-388.435 813.834,-381.802"/>
<text text-anchor="middle" x="933" y="-405.8" font-family="Times New Roman,serif" font-size="14.00">annotations</text>
</g>
<!-- n41 -->
<g id="node41" class="node"><title>n41</title>
<g id="a_node41"><a xlink:href="file:///C:/Sadl3Workspace4/RACK-Ontology-7-29/Graphs/SOFTWARE.owl.svg" xlink:title="sw:LANGUAGE">
<polygon fill="#00008b" stroke="black" points="567,-36 455,-36 455,-0 567,-0 567,-36"/>
<text text-anchor="middle" x="511" y="-14.3" font-family="Times New Roman,serif" font-size="14.00" fill="white">sw:LANGUAGE</text>
</a>
</g>
</g>
<!-- n8&#45;&gt;n41 -->
<g id="edge60" class="edge"><title>n8&#45;&gt;n41</title>
<path fill="none" stroke="black" d="M511,-86.799C511,-75.1626 511,-59.5479 511,-46.2368"/>
<polygon fill="black" stroke="black" points="514.5,-46.1754 511,-36.1754 507.5,-46.1755 514.5,-46.1754"/>
<text text-anchor="middle" x="520.5" y="-57.8" font-family="Times New Roman,serif" font-size="14.00">is a</text>
</g>
<!-- n10 -->
<g id="node10" class="node"><title>n10</title>
<ellipse fill="blue" stroke="black" cx="3574" cy="-627" rx="104.782" ry="18"/>
<text text-anchor="middle" x="3574" y="-623.3" font-family="Times New Roman,serif" font-size="14.00" fill="white">INTERVAL_ANALYSIS</text>
</g>
<!-- n11 -->
<g id="node11" class="node"><title>n11</title>
<g id="a_node11"><a xlink:href="file:///C:/Sadl3Workspace4/RACK-Ontology-7-29/Graphs/ANALYSIS.owl.svg" xlink:title="A:ANALYSIS">
<polygon fill="#00008b" stroke="black" points="3623,-558 3525,-558 3525,-522 3623,-522 3623,-558"/>
<text text-anchor="middle" x="3574" y="-536.3" font-family="Times New Roman,serif" font-size="14.00" fill="white">A:ANALYSIS</text>
</a>
</g>
</g>
<!-- n10&#45;&gt;n11 -->
<g id="edge9" class="edge"><title>n10&#45;&gt;n11</title>
<path fill="none" stroke="black" d="M3574,-608.799C3574,-597.163 3574,-581.548 3574,-568.237"/>
<polygon fill="black" stroke="black" points="3577.5,-568.175 3574,-558.175 3570.5,-568.175 3577.5,-568.175"/>
<text text-anchor="middle" x="3583.5" y="-579.8" font-family="Times New Roman,serif" font-size="14.00">is a</text>
</g>
<!-- n12 -->
<g id="node12" class="node"><title>n12</title>
<ellipse fill="blue" stroke="black" cx="2370" cy="-540" rx="34.394" ry="18"/>
<text text-anchor="middle" x="2370" y="-536.3" font-family="Times New Roman,serif" font-size="14.00" fill="white">ENDL</text>
</g>
<!-- n12&#45;&gt;n7 -->
<g id="edge14" class="edge"><title>n12&#45;&gt;n7</title>
<path fill="none" stroke="black" d="M2335.47,-537.781C2202.82,-532.805 1730.76,-512.309 1679,-471 1621.88,-425.412 1656.1,-382.04 1627,-315 1625.75,-312.112 1624.34,-309.145 1622.87,-306.217"/>
<polygon fill="black" stroke="black" points="1625.85,-304.36 1618.09,-297.147 1619.65,-307.625 1625.85,-304.36"/>
<text text-anchor="middle" x="1654.5" y="-405.8" font-family="Times New Roman,serif" font-size="14.00">is a</text>
</g>
<!-- n13 -->
<g id="node13" class="node"><title>n13</title>
<g id="a_node13"><a xlink:href="file:///C:/Sadl3Workspace4/RACK-Ontology-7-29/Graphs/SOFTWARE.owl.svg" xlink:title="sw:SOURCE_GLOBAL_VARIABLE">
<ellipse fill="blue" stroke="black" cx="2519" cy="-453" rx="150.574" ry="18"/>
<text text-anchor="middle" x="2519" y="-449.3" font-family="Times New Roman,serif" font-size="14.00" fill="white">sw:SOURCE_GLOBAL_VARIABLE</text>
</a>
</g>
</g>
<!-- n12&#45;&gt;n13 -->
<g id="edge10" class="edge"><title>n12&#45;&gt;n13</title>
<path fill="none" stroke="#00cd00" d="M2365.48,-521.924C2363.76,-511.327 2363.69,-498.052 2371,-489 2377.56,-480.879 2394.18,-474.436 2414.03,-469.409"/>
<polygon fill="#00cd00" stroke="#00cd00" points="2415.07,-472.759 2424,-467.054 2413.46,-465.946 2415.07,-472.759"/>
<text text-anchor="middle" x="2417.5" y="-492.8" font-family="Times New Roman,serif" font-size="14.00">componentType</text>
</g>
<!-- n14 -->
<g id="node14" class="node"><title>n14</title>
<polygon fill="none" stroke="black" points="2752.5,-471 2687.5,-471 2687.5,-435 2752.5,-435 2752.5,-471"/>
<text text-anchor="middle" x="2720" y="-449.3" font-family="Times New Roman,serif" font-size="14.00">std::cout</text>
</g>
<!-- n12&#45;&gt;n14 -->
<g id="edge11" class="edge"><title>n12&#45;&gt;n14</title>
<path fill="none" stroke="#00cd00" d="M2399.08,-530.03C2418.02,-523.742 2443.01,-514.587 2464,-504 2474.9,-498.504 2475.48,-493.02 2487,-489 2564.92,-461.814 2593.67,-489.434 2677.26,-470.954"/>
<polygon fill="#00cd00" stroke="#00cd00" points="2678.25,-474.316 2687.17,-468.606 2676.63,-467.504 2678.25,-474.316"/>
<text text-anchor="middle" x="2502" y="-492.8" font-family="Times New Roman,serif" font-size="14.00">name</text>
</g>
<!-- n15 -->
<g id="node15" class="node"><title>n15</title>
<polygon fill="none" stroke="black" points="2350,-471 1688,-471 1688,-435 2350,-435 2350,-471"/>
<text text-anchor="middle" x="2019" y="-449.3" font-family="Times New Roman,serif" font-size="14.00">template&lt; class CharT, class Traits &gt; std::basic_ostream&lt;CharT, Traits&gt;&amp; ( std::basic_ostream&lt;CharT, Traits&gt;&amp;)</text>
</g>
<!-- n12&#45;&gt;n15 -->
<g id="edge12" class="edge"><title>n12&#45;&gt;n15</title>
<path fill="none" stroke="#00cd00" d="M2339.47,-531.606C2286.47,-518.772 2175.83,-491.98 2099.51,-473.496"/>
<polygon fill="#00cd00" stroke="#00cd00" points="2099.99,-470.011 2089.44,-471.059 2098.34,-476.814 2099.99,-470.011"/>
<text text-anchor="middle" x="2245" y="-492.8" font-family="Times New Roman,serif" font-size="14.00">valueType</text>
</g>
<!-- n16 -->
<g id="node16" class="node"><title>n16</title>
<ellipse fill="blue" stroke="black" cx="2953" cy="-453" rx="42.4939" ry="18"/>
<text text-anchor="middle" x="2953" y="-449.3" font-family="Times New Roman,serif" font-size="14.00" fill="white">LIBCPP</text>
</g>
<!-- n12&#45;&gt;n16 -->
<g id="edge13" class="edge"><title>n12&#45;&gt;n16</title>
<path fill="none" stroke="#00cd00" d="M2402.85,-534.499C2433.33,-529.558 2479.52,-520.105 2517,-504 2528.21,-499.182 2528.39,-492.767 2540,-489 2616.61,-464.139 2822.84,-485.872 2902,-471 2905.61,-470.323 2909.31,-469.452 2912.99,-468.464"/>
<polygon fill="#00cd00" stroke="#00cd00" points="2914.01,-471.812 2922.61,-465.626 2912.03,-465.098 2914.01,-471.812"/>
<text text-anchor="middle" x="2566.5" y="-492.8" font-family="Times New Roman,serif" font-size="14.00">definedIn</text>
</g>
<!-- n39 -->
<g id="node39" class="node"><title>n39</title>
<g id="a_node39"><a xlink:href="file:///C:/Sadl3Workspace4/RACK-Ontology-7-29/Graphs/SOFTWARE.owl.svg" xlink:title="sw:LIBRARY">
<polygon fill="#00008b" stroke="black" points="2998,-384 2902,-384 2902,-348 2998,-348 2998,-384"/>
<text text-anchor="middle" x="2950" y="-362.3" font-family="Times New Roman,serif" font-size="14.00" fill="white">sw:LIBRARY</text>
</a>
</g>
</g>
<!-- n16&#45;&gt;n39 -->
<g id="edge55" class="edge"><title>n16&#45;&gt;n39</title>
<path fill="none" stroke="black" d="M2952.39,-434.799C2951.98,-423.163 2951.43,-407.548 2950.96,-394.237"/>
<polygon fill="black" stroke="black" points="2954.46,-394.046 2950.61,-384.175 2947.46,-394.293 2954.46,-394.046"/>
<text text-anchor="middle" x="2961.5" y="-405.8" font-family="Times New Roman,serif" font-size="14.00">is a</text>
</g>
<!-- n17 -->
<g id="node17" class="node"><title>n17</title>
<ellipse fill="blue" stroke="black" cx="1370" cy="-540" rx="34.394" ry="18"/>
<text text-anchor="middle" x="1370" y="-536.3" font-family="Times New Roman,serif" font-size="14.00" fill="white">NEXT</text>
</g>
<!-- n17&#45;&gt;n3 -->
<g id="edge18" class="edge"><title>n17&#45;&gt;n3</title>
<path fill="none" stroke="#00cd00" d="M1336.81,-535.18C1281.62,-528.815 1167.52,-515.591 1071,-504 951.845,-489.69 920.472,-495.556 803,-471 693.66,-448.144 569.009,-407.3 502.262,-384.183"/>
<polygon fill="#00cd00" stroke="#00cd00" points="503.045,-380.75 492.45,-380.768 500.744,-387.361 503.045,-380.75"/>
<text text-anchor="middle" x="852.5" y="-449.3" font-family="Times New Roman,serif" font-size="14.00">subcomponentOf</text>
</g>
<!-- n17&#45;&gt;n5 -->
<g id="edge19" class="edge"><title>n17&#45;&gt;n5</title>
<path fill="none" stroke="#00cd00" d="M1338.22,-533.004C1276.42,-520.041 1149.96,-486.367 1196,-435 1220.47,-407.698 1332.92,-441.721 1360,-417 1383.11,-395.901 1354.4,-372.395 1374,-348 1409.02,-304.412 1458.51,-343.869 1489,-297 1497.72,-283.588 1499.89,-272.726 1489,-261 1433.28,-200.986 876.158,-193.519 660.047,-192.897"/>
<polygon fill="#00cd00" stroke="#00cd00" points="660.026,-189.397 650.018,-192.872 660.009,-196.397 660.026,-189.397"/>
<text text-anchor="middle" x="1400.5" y="-362.3" font-family="Times New Roman,serif" font-size="14.00">definedIn</text>
</g>
<!-- n17&#45;&gt;n6 -->
<g id="edge20" class="edge"><title>n17&#45;&gt;n6</title>
<path fill="none" stroke="#00cd00" d="M1335.44,-537.858C1285.21,-535.411 1189.58,-527.765 1112,-504 1089.49,-497.105 1065.83,-485.647 1047.07,-475.439"/>
<polygon fill="#00cd00" stroke="#00cd00" points="1048.73,-472.353 1038.29,-470.553 1045.33,-478.471 1048.73,-472.353"/>
<text text-anchor="middle" x="1137.5" y="-492.8" font-family="Times New Roman,serif" font-size="14.00">mentions</text>
</g>
<!-- n17&#45;&gt;n7 -->
<g id="edge21" class="edge"><title>n17&#45;&gt;n7</title>
<path fill="none" stroke="black" d="M1403.73,-536.231C1447.93,-531.93 1522.19,-522.183 1542,-504 1549.43,-497.178 1585.23,-365.466 1600.77,-307.261"/>
<polygon fill="black" stroke="black" points="1604.23,-307.859 1603.43,-297.295 1597.47,-306.057 1604.23,-307.859"/>
<text text-anchor="middle" x="1584.5" y="-405.8" font-family="Times New Roman,serif" font-size="14.00">is a</text>
</g>
<!-- n18 -->
<g id="node18" class="node"><title>n18</title>
<g id="a_node18"><a xlink:href="file:///C:/Sadl3Workspace4/RACK-Ontology-7-29/Graphs/SOFTWARE.owl.svg" xlink:title="sw:CLASS_METHOD">
<ellipse fill="blue" stroke="black" cx="1300" cy="-453" rx="94.7833" ry="18"/>
<text text-anchor="middle" x="1300" y="-449.3" font-family="Times New Roman,serif" font-size="14.00" fill="white">sw:CLASS_METHOD</text>
</a>
</g>
</g>
<!-- n17&#45;&gt;n18 -->
<g id="edge15" class="edge"><title>n17&#45;&gt;n18</title>
<path fill="none" stroke="#00cd00" d="M1348.61,-525.389C1340.51,-519.508 1331.65,-512.113 1325,-504 1319.31,-497.063 1314.47,-488.618 1310.61,-480.658"/>
<polygon fill="#00cd00" stroke="#00cd00" points="1313.7,-478.995 1306.39,-471.323 1307.32,-481.877 1313.7,-478.995"/>
<text text-anchor="middle" x="1371.5" y="-492.8" font-family="Times New Roman,serif" font-size="14.00">componentType</text>
</g>
<!-- n19 -->
<g id="node19" class="node"><title>n19</title>
<polygon fill="none" stroke="black" points="1467,-471 1413,-471 1413,-435 1467,-435 1467,-471"/>
<text text-anchor="middle" x="1440" y="-449.3" font-family="Times New Roman,serif" font-size="14.00">next</text>
</g>
<!-- n17&#45;&gt;n19 -->
<g id="edge16" class="edge"><title>n17&#45;&gt;n19</title>
<path fill="none" stroke="#00cd00" d="M1392.58,-526.133C1401.38,-520.263 1411.02,-512.678 1418,-504 1423.5,-497.172 1427.89,-488.757 1431.26,-480.791"/>
<polygon fill="#00cd00" stroke="#00cd00" points="1434.54,-482.023 1434.88,-471.434 1428.01,-479.502 1434.54,-482.023"/>
<text text-anchor="middle" x="1442" y="-492.8" font-family="Times New Roman,serif" font-size="14.00">name</text>
</g>
<!-- n20 -->
<g id="node20" class="node"><title>n20</title>
<polygon fill="none" stroke="black" points="1539,-471 1485,-471 1485,-435 1539,-435 1539,-471"/>
<text text-anchor="middle" x="1512" y="-449.3" font-family="Times New Roman,serif" font-size="14.00">int()</text>
</g>
<!-- n17&#45;&gt;n20 -->
<g id="edge17" class="edge"><title>n17&#45;&gt;n20</title>
<path fill="none" stroke="#00cd00" d="M1400.14,-530.824C1418.6,-525.01 1442.21,-516.082 1461,-504 1471.81,-497.051 1482.23,-487.533 1490.8,-478.666"/>
<polygon fill="#00cd00" stroke="#00cd00" points="1493.57,-480.827 1497.81,-471.122 1488.44,-476.059 1493.57,-480.827"/>
<text text-anchor="middle" x="1509" y="-492.8" font-family="Times New Roman,serif" font-size="14.00">valueType</text>
</g>
<!-- n32 -->
<g id="node32" class="node"><title>n32</title>
<ellipse fill="blue" stroke="black" cx="1138" cy="-279" rx="145.674" ry="18"/>
<text text-anchor="middle" x="1138" y="-275.3" font-family="Times New Roman,serif" font-size="14.00" fill="white">INTERVAL_ANALYSIS_REPORT</text>
</g>
<!-- n24&#45;&gt;n32 -->
<g id="edge47" class="edge"><title>n24&#45;&gt;n32</title>
<path fill="none" stroke="#00cd00" d="M828.593,-353.711C865.171,-347.426 910.667,-339.053 951,-330 992.212,-320.75 1038.03,-308.531 1074,-298.488"/>
<polygon fill="#00cd00" stroke="#00cd00" points="1075.19,-301.789 1083.87,-295.717 1073.3,-295.05 1075.19,-301.789"/>
<text text-anchor="middle" x="1041.5" y="-318.8" font-family="Times New Roman,serif" font-size="14.00">fromReport</text>
</g>
<!-- n34 -->
<g id="node34" class="node"><title>n34</title>
<g id="a_node34"><a xlink:href="file:///C:/Sadl3Workspace4/RACK-Ontology-7-29/Graphs/ANALYSIS.owl.svg" xlink:title="A:INVARIANT">
<ellipse fill="blue" stroke="black" cx="906" cy="-279" rx="68.7879" ry="18"/>
<text text-anchor="middle" x="906" y="-275.3" font-family="Times New Roman,serif" font-size="14.00" fill="white">A:INVARIANT</text>
</a>
</g>
</g>
<!-- n24&#45;&gt;n34 -->
<g id="edge48" class="edge"><title>n24&#45;&gt;n34</title>
<path fill="none" stroke="#00cd00" d="M797.867,-349.435C810.614,-343.84 824.666,-337.135 837,-330 851.046,-321.875 865.723,-311.533 877.911,-302.366"/>
<polygon fill="#00cd00" stroke="#00cd00" points="880.094,-305.103 885.914,-296.249 875.843,-299.542 880.094,-305.103"/>
<text text-anchor="middle" x="903" y="-318.8" font-family="Times New Roman,serif" font-size="14.00">annotationType</text>
</g>
<!-- n35 -->
<g id="node35" class="node"><title>n35</title>
<polygon fill="none" stroke="black" points="1480.5,-297 1301.5,-297 1301.5,-261 1480.5,-261 1480.5,-297"/>
<text text-anchor="middle" x="1391" y="-275.3" font-family="Times New Roman,serif" font-size="14.00">This variable is non&#45;negative.</text>
</g>
<!-- n24&#45;&gt;n35 -->
<g id="edge49" class="edge"><title>n24&#45;&gt;n35</title>
<path fill="none" stroke="#00cd00" d="M825.651,-353.192C837.723,-351.283 850.219,-349.458 862,-348 958.043,-336.111 982.896,-341.382 1079,-330 1171.39,-319.058 1196.39,-312.971 1291.26,-297.282"/>
<polygon fill="#00cd00" stroke="#00cd00" points="1291.99,-300.71 1301.29,-295.631 1290.85,-293.802 1291.99,-300.71"/>
<text text-anchor="middle" x="1218.5" y="-318.8" font-family="Times New Roman,serif" font-size="14.00">description</text>
</g>
<!-- n36 -->
<g id="node36" class="node"><title>n36</title>
<g id="a_node36"><a xlink:href="file:///C:/Sadl3Workspace4/RACK-Ontology-7-29/Graphs/ANALYSIS.owl.svg" xlink:title="A:ANALYSIS_ANNOTATION">
<polygon fill="#00008b" stroke="black" points="819.5,-297 622.5,-297 622.5,-261 819.5,-261 819.5,-297"/>
<text text-anchor="middle" x="721" y="-275.3" font-family="Times New Roman,serif" font-size="14.00" fill="white">A:ANALYSIS_ANNOTATION</text>
</a>
</g>
</g>
<!-- n24&#45;&gt;n36 -->
<g id="edge50" class="edge"><title>n24&#45;&gt;n36</title>
<path fill="none" stroke="black" d="M751.31,-347.799C746.005,-335.932 738.85,-319.928 732.824,-306.449"/>
<polygon fill="black" stroke="black" points="735.955,-304.876 728.678,-297.175 729.565,-307.733 735.955,-304.876"/>
<text text-anchor="middle" x="752.5" y="-318.8" font-family="Times New Roman,serif" font-size="14.00">is a</text>
</g>
<!-- n25 -->
<g id="node25" class="node"><title>n25</title>
<ellipse fill="blue" stroke="black" cx="2370" cy="-627" rx="34.394" ry="18"/>
<text text-anchor="middle" x="2370" y="-623.3" font-family="Times New Roman,serif" font-size="14.00" fill="white">MAIN</text>
</g>
<!-- n25&#45;&gt;n1 -->
<g id="edge29" class="edge"><title>n25&#45;&gt;n1</title>
<path fill="none" stroke="#00cd00" d="M2335.38,-624.984C2212.1,-621.308 1782.94,-608.015 1429,-591 1155.49,-577.852 832.643,-557.474 675.904,-547.27"/>
<polygon fill="#00cd00" stroke="#00cd00" points="676.029,-543.771 665.823,-546.613 675.574,-550.756 676.029,-543.771"/>
<text text-anchor="middle" x="1454.5" y="-579.8" font-family="Times New Roman,serif" font-size="14.00">mentions</text>
</g>
<!-- n25&#45;&gt;n3 -->
<g id="edge32" class="edge"><title>n25&#45;&gt;n3</title>
<path fill="none" stroke="#00cd00" d="M2335.47,-625.567C2111.32,-622.633 860.074,-604.378 481,-558 302.998,-536.222 195.548,-613.746 87,-471 77.3152,-458.264 76.7687,-447.301 87,-435 123.369,-391.274 282.417,-375.541 378.803,-369.971"/>
<polygon fill="#00cd00" stroke="#00cd00" points="379.002,-373.466 388.793,-369.417 378.614,-366.476 379.002,-373.466"/>
<text text-anchor="middle" x="140.5" y="-492.8" font-family="Times New Roman,serif" font-size="14.00">mentions</text>
</g>
<!-- n25&#45;&gt;n5 -->
<g id="edge37" class="edge"><title>n25&#45;&gt;n5</title>
<path fill="none" stroke="#00cd00" d="M2335.58,-625.698C2044.13,-623.036 0,-602.179 0,-541 0,-541 0,-541 0,-278 0,-228.875 332.682,-205.304 491.942,-196.835"/>
<polygon fill="#00cd00" stroke="#00cd00" points="492.373,-200.317 502.176,-196.299 492.006,-193.327 492.373,-200.317"/>
<text text-anchor="middle" x="26.5" y="-405.8" font-family="Times New Roman,serif" font-size="14.00">definedIn</text>
</g>
<!-- n25&#45;&gt;n7 -->
<g id="edge30" class="edge"><title>n25&#45;&gt;n7</title>
<path fill="none" stroke="black" d="M2335.51,-625.802C2187.41,-624.507 1613,-614.729 1613,-541 1613,-541 1613,-541 1613,-365 1613,-345.719 1611.7,-324.021 1610.43,-307.373"/>
<polygon fill="black" stroke="black" points="1613.9,-306.924 1609.61,-297.239 1606.93,-307.489 1613.9,-306.924"/>
<text text-anchor="middle" x="1622.5" y="-449.3" font-family="Times New Roman,serif" font-size="14.00">is a</text>
</g>
<!-- n25&#45;&gt;n12 -->
<g id="edge35" class="edge"><title>n25&#45;&gt;n12</title>
<path fill="none" stroke="#00cd00" d="M2370,-608.799C2370,-597.163 2370,-581.548 2370,-568.237"/>
<polygon fill="#00cd00" stroke="#00cd00" points="2373.5,-568.175 2370,-558.175 2366.5,-568.175 2373.5,-568.175"/>
<text text-anchor="middle" x="2395.5" y="-579.8" font-family="Times New Roman,serif" font-size="14.00">mentions</text>
</g>
<!-- n25&#45;&gt;n17 -->
<g id="edge31" class="edge"><title>n25&#45;&gt;n17</title>
<path fill="none" stroke="#00cd00" d="M2335.47,-625.593C2199.83,-623.828 1703.34,-615.781 1548,-591 1498.31,-583.073 1442.73,-566.105 1407.11,-554.142"/>
<polygon fill="#00cd00" stroke="#00cd00" points="1408.2,-550.818 1397.61,-550.912 1405.95,-557.445 1408.2,-550.818"/>
<text text-anchor="middle" x="1573.5" y="-579.8" font-family="Times New Roman,serif" font-size="14.00">mentions</text>
</g>
<!-- n26 -->
<g id="node26" class="node"><title>n26</title>
<ellipse fill="blue" stroke="black" cx="3034" cy="-540" rx="87.1846" ry="18"/>
<text text-anchor="middle" x="3034" y="-536.3" font-family="Times New Roman,serif" font-size="14.00" fill="white">OPERATOR_LTLT</text>
</g>
<!-- n25&#45;&gt;n26 -->
<g id="edge33" class="edge"><title>n25&#45;&gt;n26</title>
<path fill="none" stroke="#00cd00" d="M2403.38,-621.727C2503.74,-608.88 2804.79,-570.342 2951.64,-551.543"/>
<polygon fill="#00cd00" stroke="#00cd00" points="2952.47,-554.966 2961.94,-550.224 2951.58,-548.023 2952.47,-554.966"/>
<text text-anchor="middle" x="2767.5" y="-579.8" font-family="Times New Roman,serif" font-size="14.00">mentions</text>
</g>
<!-- n27 -->
<g id="node27" class="node"><title>n27</title>
<g id="a_node27"><a xlink:href="file:///C:/Sadl3Workspace4/RACK-Ontology-7-29/Graphs/SOFTWARE.owl.svg" xlink:title="sw:SOURCE_FUNCTION">
<ellipse fill="blue" stroke="black" cx="3262" cy="-453" rx="110.48" ry="18"/>
<text text-anchor="middle" x="3262" y="-449.3" font-family="Times New Roman,serif" font-size="14.00" fill="white">sw:SOURCE_FUNCTION</text>
</a>
</g>
</g>
<!-- n25&#45;&gt;n27 -->
<g id="edge34" class="edge"><title>n25&#45;&gt;n27</title>
<path fill="none" stroke="#00cd00" d="M2404.45,-625.138C2534.21,-621.552 2993.01,-605.698 3130,-558 3175.19,-542.264 3216.67,-503.996 3240.63,-478.531"/>
<polygon fill="#00cd00" stroke="#00cd00" points="3243.29,-480.806 3247.49,-471.078 3238.14,-476.065 3243.29,-480.806"/>
<text text-anchor="middle" x="3238.5" y="-536.3" font-family="Times New Roman,serif" font-size="14.00">componentType</text>
</g>
<!-- n28 -->
<g id="node28" class="node"><title>n28</title>
<polygon fill="none" stroke="black" points="3393,-558 3339,-558 3339,-522 3393,-522 3393,-558"/>
<text text-anchor="middle" x="3366" y="-536.3" font-family="Times New Roman,serif" font-size="14.00">main</text>
</g>
<!-- n25&#45;&gt;n28 -->
<g id="edge36" class="edge"><title>n25&#45;&gt;n28</title>
<path fill="none" stroke="#00cd00" d="M2404.78,-626.165C2546.16,-626.596 3078.05,-625.82 3242,-591 3272.67,-584.487 3305.49,-570.927 3329.66,-559.57"/>
<polygon fill="#00cd00" stroke="#00cd00" points="3331.3,-562.666 3338.8,-555.186 3328.27,-556.355 3331.3,-562.666"/>
<text text-anchor="middle" x="3307" y="-579.8" font-family="Times New Roman,serif" font-size="14.00">name</text>
</g>
<!-- n29 -->
<g id="node29" class="node"><title>n29</title>
<ellipse fill="blue" stroke="black" cx="2753" cy="-540" rx="36.2938" ry="18"/>
<text text-anchor="middle" x="2753" y="-536.3" font-family="Times New Roman,serif" font-size="14.00" fill="white">COUT</text>
</g>
<!-- n25&#45;&gt;n29 -->
<g id="edge38" class="edge"><title>n25&#45;&gt;n29</title>
<path fill="none" stroke="#00cd00" d="M2401.02,-619.116C2469.28,-603.967 2632.6,-567.722 2710.39,-550.456"/>
<polygon fill="#00cd00" stroke="#00cd00" points="2711.34,-553.832 2720.34,-548.248 2709.82,-546.998 2711.34,-553.832"/>
<text text-anchor="middle" x="2610.5" y="-579.8" font-family="Times New Roman,serif" font-size="14.00">mentions</text>
</g>
<!-- n30 -->
<g id="node30" class="node"><title>n30</title>
<polygon fill="none" stroke="black" points="3507,-558 3411,-558 3411,-522 3507,-522 3507,-558"/>
<text text-anchor="middle" x="3459" y="-536.3" font-family="Times New Roman,serif" font-size="14.00">int(int,char*[])</text>
</g>
<!-- n25&#45;&gt;n30 -->
<g id="edge39" class="edge"><title>n25&#45;&gt;n30</title>
<path fill="none" stroke="#00cd00" d="M2404.51,-626.222C2553.77,-626.954 3144.44,-627.444 3326,-591 3356.24,-584.93 3388.66,-572.863 3413.93,-562.105"/>
<polygon fill="#00cd00" stroke="#00cd00" points="3415.46,-565.254 3423.24,-558.061 3412.67,-558.833 3415.46,-565.254"/>
<text text-anchor="middle" x="3408" y="-579.8" font-family="Times New Roman,serif" font-size="14.00">valueType</text>
</g>
<!-- n26&#45;&gt;n7 -->
<g id="edge59" class="edge"><title>n26&#45;&gt;n7</title>
<path fill="none" stroke="black" d="M3037.85,-521.775C3045.19,-483.869 3056.36,-393.024 3007,-348 2957.56,-302.904 1958.51,-285.081 1679.7,-280.974"/>
<polygon fill="black" stroke="black" points="1679.74,-277.474 1669.69,-280.828 1679.64,-284.473 1679.74,-277.474"/>
<text text-anchor="middle" x="3051.5" y="-405.8" font-family="Times New Roman,serif" font-size="14.00">is a</text>
</g>
<!-- n26&#45;&gt;n16 -->
<g id="edge58" class="edge"><title>n26&#45;&gt;n16</title>
<path fill="none" stroke="#00cd00" d="M2992.61,-524.058C2983.09,-518.955 2973.78,-512.359 2967,-504 2961.73,-497.501 2958.44,-489.142 2956.39,-481.126"/>
<polygon fill="#00cd00" stroke="#00cd00" points="2959.82,-480.425 2954.4,-471.323 2952.96,-481.819 2959.82,-480.425"/>
<text text-anchor="middle" x="2993.5" y="-492.8" font-family="Times New Roman,serif" font-size="14.00">definedIn</text>
</g>
<!-- n26&#45;&gt;n27 -->
<g id="edge56" class="edge"><title>n26&#45;&gt;n27</title>
<path fill="none" stroke="#00cd00" d="M3064.23,-523.093C3074.99,-517.265 3087.13,-510.502 3098,-504 3108.47,-497.734 3109.81,-493.871 3121,-489 3139.78,-480.824 3160.84,-474.313 3180.83,-469.234"/>
<polygon fill="#00cd00" stroke="#00cd00" points="3181.67,-472.632 3190.55,-466.854 3180,-465.833 3181.67,-472.632"/>
<text text-anchor="middle" x="3167.5" y="-492.8" font-family="Times New Roman,serif" font-size="14.00">componentType</text>
</g>
<!-- n40 -->
<g id="node40" class="node"><title>n40</title>
<polygon fill="none" stroke="black" points="3134,-471 3054,-471 3054,-435 3134,-435 3134,-471"/>
<text text-anchor="middle" x="3094" y="-449.3" font-family="Times New Roman,serif" font-size="14.00">operator&lt;&lt;</text>
</g>
<!-- n26&#45;&gt;n40 -->
<g id="edge57" class="edge"><title>n26&#45;&gt;n40</title>
<path fill="none" stroke="#00cd00" d="M3045.47,-521.754C3051.98,-512.061 3060.34,-499.78 3068,-489 3070.19,-485.919 3072.52,-482.709 3074.84,-479.536"/>
<polygon fill="#00cd00" stroke="#00cd00" points="3077.77,-481.464 3080.9,-471.342 3072.14,-477.304 3077.77,-481.464"/>
<text text-anchor="middle" x="3083" y="-492.8" font-family="Times New Roman,serif" font-size="14.00">name</text>
</g>
<!-- n29&#45;&gt;n7 -->
<g id="edge44" class="edge"><title>n29&#45;&gt;n7</title>
<path fill="none" stroke="black" d="M2760.91,-522.238C2770.34,-499.486 2782.32,-458.931 2761,-435 2688.6,-353.747 1920.85,-299.444 1679.91,-284.305"/>
<polygon fill="black" stroke="black" points="1680.05,-280.807 1669.86,-283.676 1679.62,-287.793 1680.05,-280.807"/>
<text text-anchor="middle" x="2739.5" y="-405.8" font-family="Times New Roman,serif" font-size="14.00">is a</text>
</g>
<!-- n29&#45;&gt;n13 -->
<g id="edge40" class="edge"><title>n29&#45;&gt;n13</title>
<path fill="none" stroke="#00cd00" d="M2721.01,-531.139C2696.17,-524.72 2661.02,-514.945 2631,-504 2607.75,-495.524 2582.53,-484.44 2561.92,-474.863"/>
<polygon fill="#00cd00" stroke="#00cd00" points="2563.34,-471.663 2552.8,-470.584 2560.37,-478 2563.34,-471.663"/>
<text text-anchor="middle" x="2677.5" y="-492.8" font-family="Times New Roman,serif" font-size="14.00">componentType</text>
</g>
<!-- n29&#45;&gt;n14 -->
<g id="edge41" class="edge"><title>n29&#45;&gt;n14</title>
<path fill="none" stroke="#00cd00" d="M2741.88,-522.806C2738.32,-517.064 2734.63,-510.428 2732,-504 2729.03,-496.728 2726.68,-488.547 2724.88,-480.942"/>
<polygon fill="#00cd00" stroke="#00cd00" points="2728.28,-480.108 2722.76,-471.067 2721.44,-481.579 2728.28,-480.108"/>
<text text-anchor="middle" x="2747" y="-492.8" font-family="Times New Roman,serif" font-size="14.00">name</text>
</g>
<!-- n29&#45;&gt;n16 -->
<g id="edge43" class="edge"><title>n29&#45;&gt;n16</title>
<path fill="none" stroke="#00cd00" d="M2785.46,-531.316C2808.91,-525.243 2841.06,-515.826 2868,-504 2886.87,-495.717 2906.79,-484.169 2922.6,-474.257"/>
<polygon fill="#00cd00" stroke="#00cd00" points="2924.84,-476.976 2931.39,-468.647 2921.08,-471.075 2924.84,-476.976"/>
<text text-anchor="middle" x="2924.5" y="-492.8" font-family="Times New Roman,serif" font-size="14.00">definedIn</text>
</g>
<!-- n31 -->
<g id="node31" class="node"><title>n31</title>
<polygon fill="none" stroke="black" points="2893,-471 2809,-471 2809,-435 2893,-435 2893,-471"/>
<text text-anchor="middle" x="2851" y="-449.3" font-family="Times New Roman,serif" font-size="14.00">std::ostream</text>
</g>
<!-- n29&#45;&gt;n31 -->
<g id="edge42" class="edge"><title>n29&#45;&gt;n31</title>
<path fill="none" stroke="#00cd00" d="M2770.16,-523.842C2781.45,-513.897 2796.56,-500.629 2810,-489 2814.25,-485.326 2818.75,-481.451 2823.17,-477.672"/>
<polygon fill="#00cd00" stroke="#00cd00" points="2825.6,-480.193 2830.93,-471.036 2821.06,-474.871 2825.6,-480.193"/>
<text text-anchor="middle" x="2839" y="-492.8" font-family="Times New Roman,serif" font-size="14.00">valueType</text>
</g>
<!-- n32&#45;&gt;n5 -->
<g id="edge45" class="edge"><title>n32&#45;&gt;n5</title>
<path fill="none" stroke="#00cd00" d="M1049.72,-264.672C938.46,-247.874 749.375,-219.327 646.624,-203.814"/>
<polygon fill="#00cd00" stroke="#00cd00" points="647.063,-200.34 636.653,-202.308 646.018,-207.262 647.063,-200.34"/>
<text text-anchor="middle" x="914.5" y="-231.8" font-family="Times New Roman,serif" font-size="14.00">analyzes</text>
</g>
<!-- n33 -->
<g id="node33" class="node"><title>n33</title>
<g id="a_node33"><a xlink:href="file:///C:/Sadl3Workspace4/RACK-Ontology-7-29/Graphs/ANALYSIS.owl.svg" xlink:title="A:ANALYSIS_REPORT">
<polygon fill="#00008b" stroke="black" points="1622.5,-210 1461.5,-210 1461.5,-174 1622.5,-174 1622.5,-210"/>
<text text-anchor="middle" x="1542" y="-188.3" font-family="Times New Roman,serif" font-size="14.00" fill="white">A:ANALYSIS_REPORT</text>
</a>
</g>
</g>
<!-- n32&#45;&gt;n33 -->
<g id="edge46" class="edge"><title>n32&#45;&gt;n33</title>
<path fill="none" stroke="black" d="M1208.37,-263.194C1275.74,-249.021 1377.7,-227.569 1451.17,-212.111"/>
<polygon fill="black" stroke="black" points="1452.27,-215.455 1461.34,-209.971 1450.83,-208.605 1452.27,-215.455"/>
<text text-anchor="middle" x="1374.5" y="-231.8" font-family="Times New Roman,serif" font-size="14.00">is a</text>
</g>
</g>
</svg>
