<?xml version="1.0" encoding="UTF-8" standalone="no"?>
<!DOCTYPE svg PUBLIC "-//W3C//DTD SVG 1.1//EN"
 "http://www.w3.org/Graphics/SVG/1.1/DTD/svg11.dtd">
<!-- Generated by graphviz version 2.38.0 (20140413.2041)
 -->
<!-- Title: gD Pages: 1 -->
<svg width="2935pt" height="328pt"
 viewBox="0.00 0.00 2934.62 328.00" xmlns="http://www.w3.org/2000/svg" xmlns:xlink="http://www.w3.org/1999/xlink">
<g id="graph0" class="graph" transform="scale(1 1) rotate(0) translate(4 324)">
<title>gD</title>
<polygon fill="white" stroke="none" points="-4,4 -4,-324 2930.62,-324 2930.62,4 -4,4"/>
<text text-anchor="middle" x="82" y="-304.8" font-family="Times New Roman,serif" font-size="14.00">Graph of Ontology File: D</text>
<!-- n1 -->
<g id="node1" class="node"><title>n1</title>
<ellipse fill="blue" stroke="black" cx="104.117" cy="-279" rx="48.1917" ry="18"/>
<text text-anchor="middle" x="104.117" y="-275.3" font-family="Times New Roman,serif" font-size="14.00" fill="white">references</text>
</g>
<!-- n2 -->
<g id="node2" class="node"><title>n2</title>
<g id="a_node2"><a xlink:href="file:///C:/Sadl3Workspace4/RACK-Ontology-7-29/Graphs/PROV-S.owl.svg" xlink:title="provs:wasDerivedFrom">
<polygon fill="none" stroke="#00cd00" points="208.351,-184.544 208.351,-199.456 147.292,-210 60.9418,-210 -0.117023,-199.456 -0.117023,-184.544 60.9418,-174 147.292,-174 208.351,-184.544"/>
<text text-anchor="middle" x="104.117" y="-188.3" font-family="Times New Roman,serif" font-size="14.00">provs:wasDerivedFrom</text>
</a>
</g>
</g>
<!-- n1&#45;&gt;n2 -->
<g id="edge1" class="edge"><title>n1&#45;&gt;n2</title>
<path fill="none" stroke="#00cd00" d="M104.117,-260.799C104.117,-249.163 104.117,-233.548 104.117,-220.237"/>
<polygon fill="#00cd00" stroke="#00cd00" points="107.617,-220.175 104.117,-210.175 100.617,-220.175 107.617,-220.175"/>
<text text-anchor="middle" x="146.617" y="-231.8" font-family="Times New Roman,serif" font-size="14.00">subPropertyOf</text>
</g>
<!-- n3 -->
<g id="node3" class="node"><title>n3</title>
<ellipse fill="blue" stroke="black" cx="214.117" cy="-279" rx="43.5923" ry="18"/>
<text text-anchor="middle" x="214.117" y="-275.3" font-family="Times New Roman,serif" font-size="14.00" fill="white">Released</text>
</g>
<!-- n4 -->
<g id="node4" class="node"><title>n4</title>
<polygon fill="#00008b" stroke="black" points="470.117,-210 362.117,-210 362.117,-174 470.117,-174 470.117,-210"/>
<text text-anchor="middle" x="416.117" y="-188.3" font-family="Times New Roman,serif" font-size="14.00" fill="white">DOC_STATUS</text>
</g>
<!-- n3&#45;&gt;n4 -->
<g id="edge2" class="edge"><title>n3&#45;&gt;n4</title>
<path fill="none" stroke="black" d="M243.489,-265.64C275.567,-252.142 327.505,-230.287 366.044,-214.07"/>
<polygon fill="black" stroke="black" points="367.674,-217.182 375.533,-210.077 364.959,-210.73 367.674,-217.182"/>
<text text-anchor="middle" x="337.617" y="-231.8" font-family="Times New Roman,serif" font-size="14.00">is a</text>
</g>
<!-- n11 -->
<g id="node11" class="node"><title>n11</title>
<polygon fill="none" stroke="red" points="556.617,-123 275.617,-123 275.617,-87 556.617,-87 556.617,-123"/>
<text text-anchor="middle" x="416.117" y="-101.3" font-family="Times New Roman,serif" font-size="14.00">one of {In_Development,Released,Withdrawn}</text>
</g>
<!-- n4&#45;&gt;n11 -->
<g id="edge7" class="edge"><title>n4&#45;&gt;n11</title>
<path fill="none" stroke="red" d="M416.117,-173.799C416.117,-162.163 416.117,-146.548 416.117,-133.237"/>
<polygon fill="red" stroke="red" points="419.617,-133.175 416.117,-123.175 412.617,-133.175 419.617,-133.175"/>
<text text-anchor="middle" x="438.617" y="-144.8" font-family="Times New Roman,serif" font-size="14.00">same as</text>
</g>
<!-- n5 -->
<g id="node5" class="node"><title>n5</title>
<ellipse fill="blue" stroke="black" cx="1161.12" cy="-279" rx="37.8943" ry="18"/>
<text text-anchor="middle" x="1161.12" y="-275.3" font-family="Times New Roman,serif" font-size="14.00" fill="white">content</text>
</g>
<!-- n6 -->
<g id="node6" class="node"><title>n6</title>
<g id="a_node6"><a xlink:href="file:///C:/Sadl3Workspace4/RACK-Ontology-7-29/Graphs/PROV-S.owl.svg" xlink:title="provs:hadMember">
<polygon fill="none" stroke="#00cd00" points="1245.05,-184.544 1245.05,-199.456 1195.88,-210 1126.35,-210 1077.19,-199.456 1077.19,-184.544 1126.35,-174 1195.88,-174 1245.05,-184.544"/>
<text text-anchor="middle" x="1161.12" y="-188.3" font-family="Times New Roman,serif" font-size="14.00">provs:hadMember</text>
</a>
</g>
</g>
<!-- n5&#45;&gt;n6 -->
<g id="edge3" class="edge"><title>n5&#45;&gt;n6</title>
<path fill="none" stroke="#00cd00" d="M1161.12,-260.799C1161.12,-249.163 1161.12,-233.548 1161.12,-220.237"/>
<polygon fill="#00cd00" stroke="#00cd00" points="1164.62,-220.175 1161.12,-210.175 1157.62,-220.175 1164.62,-220.175"/>
<text text-anchor="middle" x="1203.62" y="-231.8" font-family="Times New Roman,serif" font-size="14.00">subPropertyOf</text>
</g>
<!-- n7 -->
<g id="node7" class="node"><title>n7</title>
<ellipse fill="blue" stroke="black" cx="346.117" cy="-279" rx="70.6878" ry="18"/>
<text text-anchor="middle" x="346.117" y="-275.3" font-family="Times New Roman,serif" font-size="14.00" fill="white">In_Development</text>
</g>
<!-- n7&#45;&gt;n4 -->
<g id="edge4" class="edge"><title>n7&#45;&gt;n4</title>
<path fill="none" stroke="black" d="M359.947,-261.207C370.139,-248.831 384.167,-231.796 395.654,-217.847"/>
<polygon fill="black" stroke="black" points="398.421,-219.994 402.076,-210.049 393.017,-215.544 398.421,-219.994"/>
<text text-anchor="middle" x="395.617" y="-231.8" font-family="Times New Roman,serif" font-size="14.00">is a</text>
</g>
<!-- n8 -->
<g id="node8" class="node"><title>n8</title>
<ellipse fill="blue" stroke="black" cx="486.117" cy="-279" rx="50.8918" ry="18"/>
<text text-anchor="middle" x="486.117" y="-275.3" font-family="Times New Roman,serif" font-size="14.00" fill="white">Withdrawn</text>
</g>
<!-- n8&#45;&gt;n4 -->
<g id="edge5" class="edge"><title>n8&#45;&gt;n4</title>
<path fill="none" stroke="black" d="M472.62,-261.611C462.458,-249.271 448.346,-232.136 436.768,-218.077"/>
<polygon fill="black" stroke="black" points="439.352,-215.708 430.293,-210.214 433.948,-220.158 439.352,-215.708"/>
<text text-anchor="middle" x="465.617" y="-231.8" font-family="Times New Roman,serif" font-size="14.00">is a</text>
</g>
<!-- n9 -->
<g id="node9" class="node"><title>n9</title>
<g id="a_node9"><a xlink:href="file:///C:/Sadl3Workspace4/RACK-Ontology-7-29/Graphs/PROV-S.owl.svg" xlink:title="provs:ENTITY">
<polygon fill="#00008b" stroke="black" points="1822.12,-210 1720.12,-210 1720.12,-174 1822.12,-174 1822.12,-210"/>
<text text-anchor="middle" x="1771.12" y="-188.3" font-family="Times New Roman,serif" font-size="14.00" fill="white">provs:ENTITY</text>
</a>
</g>
</g>
<!-- n10 -->
<g id="node10" class="node"><title>n10</title>
<polygon fill="#00008b" stroke="black" points="1490.12,-123 1418.12,-123 1418.12,-87 1490.12,-87 1490.12,-123"/>
<text text-anchor="middle" x="1454.12" y="-101.3" font-family="Times New Roman,serif" font-size="14.00" fill="white">REPORT</text>
</g>
<!-- n9&#45;&gt;n10 -->
<g id="edge6" class="edge"><title>n9&#45;&gt;n10</title>
<path fill="none" stroke="blue" stroke-dasharray="5,2" d="M1720.07,-186.099C1677.65,-181.145 1616.05,-171.896 1564.12,-156 1540.46,-148.758 1515.25,-137.577 1494.95,-127.623"/>
<polygon fill="blue" stroke="blue" points="1496.5,-124.484 1485.99,-123.155 1493.37,-130.749 1496.5,-124.484"/>
<text text-anchor="middle" x="1590.12" y="-144.8" font-family="Times New Roman,serif" font-size="14.00">subClass</text>
</g>
<!-- n12 -->
<g id="node12" class="node"><title>n12</title>
<polygon fill="#00008b" stroke="black" points="1630.12,-123 1508.12,-123 1508.12,-87 1630.12,-87 1630.12,-123"/>
<text text-anchor="middle" x="1569.12" y="-101.3" font-family="Times New Roman,serif" font-size="14.00" fill="white">SPECIFICATION</text>
</g>
<!-- n9&#45;&gt;n12 -->
<g id="edge8" class="edge"><title>n9&#45;&gt;n12</title>
<path fill="none" stroke="blue" stroke-dasharray="5,2" d="M1720.01,-180.406C1696.88,-174.678 1669.53,-166.58 1646.12,-156 1630.03,-148.731 1613.45,-138.394 1599.82,-129.004"/>
<polygon fill="blue" stroke="blue" points="1601.51,-125.913 1591.32,-123.012 1597.48,-131.634 1601.51,-125.913"/>
<text text-anchor="middle" x="1672.12" y="-144.8" font-family="Times New Roman,serif" font-size="14.00">subClass</text>
</g>
<!-- n15 -->
<g id="node15" class="node"><title>n15</title>
<polygon fill="#00008b" stroke="black" points="1702.12,-123 1648.12,-123 1648.12,-87 1702.12,-87 1702.12,-123"/>
<text text-anchor="middle" x="1675.12" y="-101.3" font-family="Times New Roman,serif" font-size="14.00" fill="white">PLAN</text>
</g>
<!-- n9&#45;&gt;n15 -->
<g id="edge10" class="edge"><title>n9&#45;&gt;n15</title>
<path fill="none" stroke="blue" stroke-dasharray="5,2" d="M1739.57,-173.868C1731.22,-168.656 1722.48,-162.556 1715.12,-156 1707.02,-148.794 1699.29,-139.824 1692.82,-131.479"/>
<polygon fill="blue" stroke="blue" points="1695.59,-129.345 1686.8,-123.431 1689.99,-133.536 1695.59,-129.345"/>
<text text-anchor="middle" x="1741.12" y="-144.8" font-family="Times New Roman,serif" font-size="14.00">subClass</text>
</g>
<!-- n17 -->
<g id="node17" class="node"><title>n17</title>
<polygon fill="#00008b" stroke="black" points="1821.62,-123 1720.62,-123 1720.62,-87 1821.62,-87 1821.62,-123"/>
<text text-anchor="middle" x="1771.12" y="-101.3" font-family="Times New Roman,serif" font-size="14.00" fill="white">PROCEDURE</text>
</g>
<!-- n9&#45;&gt;n17 -->
<g id="edge12" class="edge"><title>n9&#45;&gt;n17</title>
<path fill="none" stroke="blue" stroke-dasharray="5,2" d="M1771.12,-173.799C1771.12,-162.163 1771.12,-146.548 1771.12,-133.237"/>
<polygon fill="blue" stroke="blue" points="1774.62,-133.175 1771.12,-123.175 1767.62,-133.175 1774.62,-133.175"/>
<text text-anchor="middle" x="1797.12" y="-144.8" font-family="Times New Roman,serif" font-size="14.00">subClass</text>
</g>
<!-- n18 -->
<g id="node18" class="node"><title>n18</title>
<polygon fill="#00008b" stroke="black" points="2405.12,-123 2325.12,-123 2325.12,-87 2405.12,-87 2405.12,-123"/>
<text text-anchor="middle" x="2365.12" y="-101.3" font-family="Times New Roman,serif" font-size="14.00" fill="white">REQUEST</text>
</g>
<!-- n9&#45;&gt;n18 -->
<g id="edge13" class="edge"><title>n9&#45;&gt;n18</title>
<path fill="none" stroke="blue" stroke-dasharray="5,2" d="M1822.34,-188.079C1919.5,-181.775 2136.79,-164.011 2315.12,-123 2315.22,-122.977 2315.32,-122.954 2315.42,-122.93"/>
<polygon fill="blue" stroke="blue" points="2316.14,-126.359 2324.93,-120.447 2314.37,-119.586 2316.14,-126.359"/>
<text text-anchor="middle" x="2239.12" y="-144.8" font-family="Times New Roman,serif" font-size="14.00">subClass</text>
</g>
<!-- n19 -->
<g id="node19" class="node"><title>n19</title>
<polygon fill="#00008b" stroke="black" points="2799.62,-123 2722.62,-123 2722.62,-87 2799.62,-87 2799.62,-123"/>
<text text-anchor="middle" x="2761.12" y="-101.3" font-family="Times New Roman,serif" font-size="14.00" fill="white">SECTION</text>
</g>
<!-- n9&#45;&gt;n19 -->
<g id="edge14" class="edge"><title>n9&#45;&gt;n19</title>
<path fill="none" stroke="blue" stroke-dasharray="5,2" d="M1822.36,-189.175C1990.07,-182.914 2522.3,-160.698 2712.5,-122.976"/>
<polygon fill="blue" stroke="blue" points="2713.29,-126.387 2722.37,-120.937 2711.87,-119.532 2713.29,-126.387"/>
<text text-anchor="middle" x="2606.12" y="-144.8" font-family="Times New Roman,serif" font-size="14.00">subClass</text>
</g>
<!-- n21 -->
<g id="node21" class="node"><title>n21</title>
<polygon fill="#00008b" stroke="black" points="2926.62,-123 2817.62,-123 2817.62,-87 2926.62,-87 2926.62,-123"/>
<text text-anchor="middle" x="2872.12" y="-101.3" font-family="Times New Roman,serif" font-size="14.00" fill="white">DESCRIPTION</text>
</g>
<!-- n9&#45;&gt;n21 -->
<g id="edge16" class="edge"><title>n9&#45;&gt;n21</title>
<path fill="none" stroke="blue" stroke-dasharray="5,2" d="M1822.27,-189.373C1995.76,-183.792 2555.53,-165.264 2636.12,-156 2710.69,-147.427 2731.18,-141.081 2807.44,-123.335"/>
<polygon fill="blue" stroke="blue" points="2808.59,-126.662 2817.54,-120.995 2807.01,-119.843 2808.59,-126.662"/>
<text text-anchor="middle" x="2754.12" y="-144.8" font-family="Times New Roman,serif" font-size="14.00">subClass</text>
</g>
<!-- n13 -->
<g id="node13" class="node"><title>n13</title>
<ellipse fill="blue" stroke="black" cx="2258.12" cy="-279" rx="85.2851" ry="18"/>
<text text-anchor="middle" x="2258.12" y="-275.3" font-family="Times New Roman,serif" font-size="14.00" fill="white">originatorOfRequest</text>
</g>
<!-- n14 -->
<g id="node14" class="node"><title>n14</title>
<g id="a_node14"><a xlink:href="file:///C:/Sadl3Workspace4/RACK-Ontology-7-29/Graphs/PROV-S.owl.svg" xlink:title="provs:wasGeneratedBy">
<polygon fill="none" stroke="#00cd00" points="2541.04,-184.544 2541.04,-199.456 2480.75,-210 2395.49,-210 2335.2,-199.456 2335.2,-184.544 2395.49,-174 2480.75,-174 2541.04,-184.544"/>
<text text-anchor="middle" x="2438.12" y="-188.3" font-family="Times New Roman,serif" font-size="14.00">provs:wasGeneratedBy</text>
</a>
</g>
</g>
<!-- n13&#45;&gt;n14 -->
<g id="edge9" class="edge"><title>n13&#45;&gt;n14</title>
<path fill="none" stroke="#00cd00" d="M2285.52,-261.745C2303.34,-251.476 2327.25,-238.257 2349.12,-228 2359.92,-222.933 2371.67,-217.952 2382.99,-213.408"/>
<polygon fill="#00cd00" stroke="#00cd00" points="2384.35,-216.634 2392.37,-209.702 2381.78,-210.124 2384.35,-216.634"/>
<text text-anchor="middle" x="2391.62" y="-231.8" font-family="Times New Roman,serif" font-size="14.00">subPropertyOf</text>
</g>
<!-- n16 -->
<g id="node16" class="node"><title>n16</title>
<ellipse fill="blue" stroke="black" cx="2438.12" cy="-279" rx="76.8869" ry="18"/>
<text text-anchor="middle" x="2438.12" y="-275.3" font-family="Times New Roman,serif" font-size="14.00" fill="white">approvalAuthority</text>
</g>
<!-- n16&#45;&gt;n14 -->
<g id="edge11" class="edge"><title>n16&#45;&gt;n14</title>
<path fill="none" stroke="#00cd00" d="M2438.12,-260.799C2438.12,-249.163 2438.12,-233.548 2438.12,-220.237"/>
<polygon fill="#00cd00" stroke="#00cd00" points="2441.62,-220.175 2438.12,-210.175 2434.62,-220.175 2441.62,-220.175"/>
<text text-anchor="middle" x="2480.62" y="-231.8" font-family="Times New Roman,serif" font-size="14.00">subPropertyOf</text>
</g>
<!-- n22 -->
<g id="node22" class="node"><title>n22</title>
<g id="a_node22"><a xlink:href="file:///C:/Sadl3Workspace4/RACK-Ontology-7-29/Graphs/XMLSchema.svg" xlink:title="xsd:date">
<polygon fill="#00008b" stroke="black" points="2216.62,-36 2153.62,-36 2153.62,-0 2216.62,-0 2216.62,-36"/>
<text text-anchor="middle" x="2185.12" y="-14.3" font-family="Times New Roman,serif" font-size="14.00" fill="white">xsd:date</text>
</a>
</g>
</g>
<!-- n18&#45;&gt;n22 -->
<g id="edge17" class="edge"><title>n18&#45;&gt;n22</title>
<path fill="none" stroke="#00cd00" d="M2326.18,-86.9629C2315.22,-81.668 2303.48,-75.5008 2293.12,-69 2284,-63.2816 2283.45,-59.3597 2274.12,-54 2259.24,-45.4509 2241.86,-38.0998 2226.44,-32.3728"/>
<polygon fill="#00cd00" stroke="#00cd00" points="2227.22,-28.9353 2216.63,-28.8477 2224.85,-35.523 2227.22,-28.9353"/>
<text text-anchor="middle" x="2336.62" y="-57.8" font-family="Times New Roman,serif" font-size="14.00">dateOfInitiation</text>
</g>
<!-- n24 -->
<g id="node24" class="node"><title>n24</title>
<g id="a_node24"><a xlink:href="file:///C:/Sadl3Workspace4/RACK-Ontology-7-29/Graphs/PROV-S.owl.svg" xlink:title="provs:AGENT">
<polygon fill="#00008b" stroke="black" points="2455.62,-36 2356.62,-36 2356.62,-0 2455.62,-0 2455.62,-36"/>
<text text-anchor="middle" x="2406.12" y="-14.3" font-family="Times New Roman,serif" font-size="14.00" fill="white">provs:AGENT</text>
</a>
</g>
</g>
<!-- n18&#45;&gt;n24 -->
<g id="edge19" class="edge"><title>n18&#45;&gt;n24</title>
<path fill="none" stroke="#00cd00" d="M2374.88,-86.7016C2377.93,-81.1042 2381.26,-74.8353 2384.12,-69 2387.82,-61.4563 2391.59,-53.1457 2394.94,-45.5024"/>
<polygon fill="#00cd00" stroke="#00cd00" points="2398.17,-46.8536 2398.93,-36.2858 2391.75,-44.075 2398.17,-46.8536"/>
<text text-anchor="middle" x="2449.62" y="-57.8" font-family="Times New Roman,serif" font-size="14.00">originatorOfRequest</text>
</g>
<!-- n26 -->
<g id="node26" class="node"><title>n26</title>
<g id="a_node26"><a xlink:href="file:///C:/Sadl3Workspace4/RACK-Ontology-7-29/Graphs/XMLSchema.svg" xlink:title="xsd:string">
<polygon fill="#00008b" stroke="black" points="2796.62,-36 2725.62,-36 2725.62,-0 2796.62,-0 2796.62,-36"/>
<text text-anchor="middle" x="2761.12" y="-14.3" font-family="Times New Roman,serif" font-size="14.00" fill="white">xsd:string</text>
</a>
</g>
</g>
<!-- n19&#45;&gt;n26 -->
<g id="edge21" class="edge"><title>n19&#45;&gt;n26</title>
<path fill="none" stroke="#00cd00" d="M2761.12,-86.799C2761.12,-75.1626 2761.12,-59.5479 2761.12,-46.2368"/>
<polygon fill="#00cd00" stroke="#00cd00" points="2764.62,-46.1754 2761.12,-36.1754 2757.62,-46.1755 2764.62,-46.1754"/>
<text text-anchor="middle" x="2771.12" y="-57.8" font-family="Times New Roman,serif" font-size="14.00">title</text>
</g>
<!-- n20 -->
<g id="node20" class="node"><title>n20</title>
<ellipse fill="blue" stroke="black" cx="2614.12" cy="-279" rx="81.4863" ry="18"/>
<text text-anchor="middle" x="2614.12" y="-275.3" font-family="Times New Roman,serif" font-size="14.00" fill="white">issuingOrganization</text>
</g>
<!-- n20&#45;&gt;n14 -->
<g id="edge15" class="edge"><title>n20&#45;&gt;n14</title>
<path fill="none" stroke="#00cd00" d="M2588.39,-261.878C2571.35,-251.538 2548.31,-238.19 2527.12,-228 2516.36,-222.829 2504.63,-217.803 2493.32,-213.248"/>
<polygon fill="#00cd00" stroke="#00cd00" points="2494.53,-209.964 2483.95,-209.539 2491.96,-216.473 2494.53,-209.964"/>
<text text-anchor="middle" x="2596.62" y="-231.8" font-family="Times New Roman,serif" font-size="14.00">subPropertyOf</text>
</g>
<!-- n23 -->
<g id="node23" class="node"><title>n23</title>
<polygon fill="#00008b" stroke="black" points="2704.62,-123 2423.62,-123 2423.62,-87 2704.62,-87 2704.62,-123"/>
<text text-anchor="middle" x="2564.12" y="-101.3" font-family="Times New Roman,serif" font-size="14.00" fill="white">PLAN or PROCEDURE or SPECIFICATION</text>
</g>
<!-- n23&#45;&gt;n24 -->
<g id="edge18" class="edge"><title>n23&#45;&gt;n24</title>
<path fill="none" stroke="#00cd00" d="M2549.39,-86.6846C2539.5,-75.9922 2525.66,-62.7007 2511.12,-54 2497.25,-45.707 2481.17,-39.0859 2465.82,-33.9331"/>
<polygon fill="#00cd00" stroke="#00cd00" points="2466.46,-30.4636 2455.87,-30.7562 2464.33,-37.1319 2466.46,-30.4636"/>
<text text-anchor="middle" x="2582.12" y="-57.8" font-family="Times New Roman,serif" font-size="14.00">approvalAuthority</text>
</g>
<!-- n25 -->
<g id="node25" class="node"><title>n25</title>
<polygon fill="#00008b" stroke="black" points="2306.62,-123 1839.62,-123 1839.62,-87 2306.62,-87 2306.62,-123"/>
<text text-anchor="middle" x="2073.12" y="-101.3" font-family="Times New Roman,serif" font-size="14.00" fill="white">DESCRIPTION or PLAN or PROCEDURE or REPORT or SPECIFICATION</text>
</g>
<!-- n25&#45;&gt;n22 -->
<g id="edge20" class="edge"><title>n25&#45;&gt;n22</title>
<path fill="none" stroke="#00cd00" d="M2068.76,-86.6288C2067.2,-76.181 2067.25,-63.1742 2074.12,-54 2090.06,-32.6996 2118.98,-24.0519 2143.3,-20.6759"/>
<polygon fill="#00cd00" stroke="#00cd00" points="2143.84,-24.1362 2153.39,-19.5303 2143.06,-17.1809 2143.84,-24.1362"/>
<text text-anchor="middle" x="2108.12" y="-57.8" font-family="Times New Roman,serif" font-size="14.00">dateOfIssue</text>
</g>
<!-- n25&#45;&gt;n24 -->
<g id="edge24" class="edge"><title>n25&#45;&gt;n24</title>
<path fill="none" stroke="#00cd00" d="M2110.04,-86.9706C2120.64,-81.6319 2132.04,-75.4396 2142.12,-69 2151.18,-63.2045 2151.23,-58.2401 2161.12,-54 2193.52,-40.1051 2285.07,-29.6414 2346.61,-23.9201"/>
<polygon fill="#00cd00" stroke="#00cd00" points="2346.95,-27.4034 2356.59,-23.0089 2346.32,-20.4323 2346.95,-27.4034"/>
<text text-anchor="middle" x="2215.62" y="-57.8" font-family="Times New Roman,serif" font-size="14.00">issuingOrganization</text>
</g>
<!-- n27 -->
<g id="node27" class="node"><title>n27</title>
<polygon fill="#00008b" stroke="black" points="1847.12,-297 1217.12,-297 1217.12,-261 1847.12,-261 1847.12,-297"/>
<text text-anchor="middle" x="1532.12" y="-275.3" font-family="Times New Roman,serif" font-size="14.00" fill="white">DESCRIPTION or PLAN or PROCEDURE or REPORT or REQUEST or SPECIFICATION or SECTION</text>
</g>
<!-- n27&#45;&gt;n9 -->
<g id="edge22" class="edge"><title>n27&#45;&gt;n9</title>
<path fill="none" stroke="#00cd00" d="M1580.19,-260.901C1618.68,-247.212 1672.79,-227.971 1713.58,-213.464"/>
<polygon fill="#00cd00" stroke="#00cd00" points="1714.87,-216.72 1723.12,-210.071 1712.52,-210.125 1714.87,-216.72"/>
<text text-anchor="middle" x="1687.12" y="-231.8" font-family="Times New Roman,serif" font-size="14.00">content</text>
</g>
<!-- n28 -->
<g id="node28" class="node"><title>n28</title>
<polygon fill="#00008b" stroke="black" points="2154.62,-297 1865.62,-297 1865.62,-261 2154.62,-261 2154.62,-297"/>
<text text-anchor="middle" x="2010.12" y="-275.3" font-family="Times New Roman,serif" font-size="14.00" fill="white">DESCRIPTION or PLAN or SPECIFICATION</text>
</g>
<!-- n28&#45;&gt;n9 -->
<g id="edge23" class="edge"><title>n28&#45;&gt;n9</title>
<path fill="none" stroke="#00cd00" d="M1962.04,-260.901C1923.55,-247.212 1869.45,-227.971 1828.66,-213.464"/>
<polygon fill="#00cd00" stroke="#00cd00" points="1829.71,-210.125 1819.12,-210.071 1827.37,-216.72 1829.71,-210.125"/>
<text text-anchor="middle" x="1934.12" y="-231.8" font-family="Times New Roman,serif" font-size="14.00">references</text>
</g>
<!-- n29 -->
<g id="node29" class="node"><title>n29</title>
<polygon fill="#00008b" stroke="black" points="1105.62,-297 554.617,-297 554.617,-261 1105.62,-261 1105.62,-297"/>
<text text-anchor="middle" x="830.117" y="-275.3" font-family="Times New Roman,serif" font-size="14.00" fill="white">DESCRIPTION or PLAN or PROCEDURE or REPORT or REQUEST or SPECIFICATION</text>
</g>
<!-- n29&#45;&gt;n4 -->
<g id="edge25" class="edge"><title>n29&#45;&gt;n4</title>
<path fill="none" stroke="#00cd00" d="M746.836,-260.901C668.131,-244.742 551.735,-220.844 480.081,-206.133"/>
<polygon fill="#00cd00" stroke="#00cd00" points="480.775,-202.702 470.276,-204.12 479.368,-209.559 480.775,-202.702"/>
<text text-anchor="middle" x="664.617" y="-231.8" font-family="Times New Roman,serif" font-size="14.00">status</text>
</g>
</g>
</svg>
