<?xml version="1.0" encoding="UTF-8" standalone="no"?>
<!DOCTYPE svg PUBLIC "-//W3C//DTD SVG 1.1//EN"
 "http://www.w3.org/Graphics/SVG/1.1/DTD/svg11.dtd">
<!-- Generated by graphviz version 2.38.0 (20140413.2041)
 -->
<!-- Title: gD Pages: 1 -->
<svg width="2023pt" height="328pt"
 viewBox="0.00 0.00 2022.61 328.00" xmlns="http://www.w3.org/2000/svg" xmlns:xlink="http://www.w3.org/1999/xlink">
<g id="graph0" class="graph" transform="scale(1 1) rotate(0) translate(4 324)">
<title>gD</title>
<polygon fill="white" stroke="none" points="-4,4 -4,-324 2018.61,-324 2018.61,4 -4,4"/>
<text text-anchor="middle" x="82" y="-304.8" font-family="Times New Roman,serif" font-size="14.00">Graph of Ontology File: D</text>
<!-- n1 -->
<g id="node1" class="node"><title>n1</title>
<ellipse fill="blue" stroke="black" cx="102.71" cy="-279" rx="81.4863" ry="18"/>
<text text-anchor="middle" x="102.71" y="-275.3" font-family="Times New Roman,serif" font-size="14.00" fill="white">issuingOrganization</text>
</g>
<!-- n2 -->
<g id="node2" class="node"><title>n2</title>
<g id="a_node2"><a xlink:href="file:///C:/Users/200001866/Documents/GitHub/RACK/RACK-Ontology/Graphs/PROV-S.owl.svg" xlink:title="provs:wasAttributedTo">
<polygon fill="none" stroke="#00cd00" points="205.63,-184.544 205.63,-199.456 145.341,-210 60.0789,-210 -0.210336,-199.456 -0.210336,-184.544 60.0789,-174 145.341,-174 205.63,-184.544"/>
<text text-anchor="middle" x="102.71" y="-188.3" font-family="Times New Roman,serif" font-size="14.00">provs:wasAttributedTo</text>
</a>
</g>
</g>
<!-- n1&#45;&gt;n2 -->
<g id="edge1" class="edge"><title>n1&#45;&gt;n2</title>
<path fill="none" stroke="#00cd00" d="M102.71,-260.799C102.71,-249.163 102.71,-233.548 102.71,-220.237"/>
<polygon fill="#00cd00" stroke="#00cd00" points="106.21,-220.175 102.71,-210.175 99.21,-220.175 106.21,-220.175"/>
<text text-anchor="middle" x="145.21" y="-231.8" font-family="Times New Roman,serif" font-size="14.00">subPropertyOf</text>
</g>
<!-- n3 -->
<g id="node3" class="node"><title>n3</title>
<ellipse fill="blue" stroke="black" cx="294.71" cy="-192" rx="70.6878" ry="18"/>
<text text-anchor="middle" x="294.71" y="-188.3" font-family="Times New Roman,serif" font-size="14.00" fill="white">In_Development</text>
</g>
<!-- n4 -->
<g id="node4" class="node"><title>n4</title>
<polygon fill="none" stroke="black" points="347.21,-123 242.21,-123 242.21,-87 347.21,-87 347.21,-123"/>
<text text-anchor="middle" x="294.71" y="-101.3" font-family="Times New Roman,serif" font-size="14.00">In Development</text>
</g>
<!-- n3&#45;&gt;n4 -->
<g id="edge2" class="edge"><title>n3&#45;&gt;n4</title>
<path fill="none" stroke="#00cd00" d="M294.71,-173.799C294.71,-162.163 294.71,-146.548 294.71,-133.237"/>
<polygon fill="#00cd00" stroke="#00cd00" points="298.21,-133.175 294.71,-123.175 291.21,-133.175 298.21,-133.175"/>
<text text-anchor="middle" x="319.21" y="-144.8" font-family="Times New Roman,serif" font-size="14.00">identifier</text>
</g>
<!-- n5 -->
<g id="node5" class="node"><title>n5</title>
<polygon fill="#00008b" stroke="black" points="656.71,-123 548.71,-123 548.71,-87 656.71,-87 656.71,-123"/>
<text text-anchor="middle" x="602.71" y="-101.3" font-family="Times New Roman,serif" font-size="14.00" fill="white">DOC_STATUS</text>
</g>
<!-- n3&#45;&gt;n5 -->
<g id="edge3" class="edge"><title>n3&#45;&gt;n5</title>
<path fill="none" stroke="black" d="M340.821,-178.275C393.33,-163.783 479.47,-140.011 538.523,-123.714"/>
<polygon fill="black" stroke="black" points="539.78,-126.998 548.489,-120.964 537.918,-120.25 539.78,-126.998"/>
<text text-anchor="middle" x="477.21" y="-144.8" font-family="Times New Roman,serif" font-size="14.00">is a</text>
</g>
<!-- n15 -->
<g id="node15" class="node"><title>n15</title>
<polygon fill="none" stroke="red" points="743.21,-36 462.21,-36 462.21,-0 743.21,-0 743.21,-36"/>
<text text-anchor="middle" x="602.71" y="-14.3" font-family="Times New Roman,serif" font-size="14.00">one of {In_Development,Released,Withdrawn}</text>
</g>
<!-- n5&#45;&gt;n15 -->
<g id="edge12" class="edge"><title>n5&#45;&gt;n15</title>
<path fill="none" stroke="red" d="M602.71,-86.799C602.71,-75.1626 602.71,-59.5479 602.71,-46.2368"/>
<polygon fill="red" stroke="red" points="606.21,-46.1754 602.71,-36.1754 599.21,-46.1755 606.21,-46.1754"/>
<text text-anchor="middle" x="625.21" y="-57.8" font-family="Times New Roman,serif" font-size="14.00">same as</text>
</g>
<!-- n6 -->
<g id="node6" class="node"><title>n6</title>
<g id="a_node6"><a xlink:href="file:///C:/Users/200001866/Documents/GitHub/RACK/RACK-Ontology/Graphs/PROV-S.owl.svg" xlink:title="provs:COLLECTION">
<polygon fill="#00008b" stroke="black" points="974.71,-297 834.71,-297 834.71,-261 974.71,-261 974.71,-297"/>
<text text-anchor="middle" x="904.71" y="-275.3" font-family="Times New Roman,serif" font-size="14.00" fill="white">provs:COLLECTION</text>
</a>
</g>
</g>
<!-- n7 -->
<g id="node7" class="node"><title>n7</title>
<polygon fill="#00008b" stroke="black" points="943.21,-210 866.21,-210 866.21,-174 943.21,-174 943.21,-210"/>
<text text-anchor="middle" x="904.71" y="-188.3" font-family="Times New Roman,serif" font-size="14.00" fill="white">SECTION</text>
</g>
<!-- n6&#45;&gt;n7 -->
<g id="edge4" class="edge"><title>n6&#45;&gt;n7</title>
<path fill="none" stroke="blue" stroke-dasharray="5,2" d="M904.71,-260.799C904.71,-249.163 904.71,-233.548 904.71,-220.237"/>
<polygon fill="blue" stroke="blue" points="908.21,-220.175 904.71,-210.175 901.21,-220.175 908.21,-220.175"/>
<text text-anchor="middle" x="930.71" y="-231.8" font-family="Times New Roman,serif" font-size="14.00">subClass</text>
</g>
<!-- n9 -->
<g id="node9" class="node"><title>n9</title>
<polygon fill="#00008b" stroke="black" points="1367.21,-210 1272.21,-210 1272.21,-174 1367.21,-174 1367.21,-210"/>
<text text-anchor="middle" x="1319.71" y="-188.3" font-family="Times New Roman,serif" font-size="14.00" fill="white">DOCUMENT</text>
</g>
<!-- n6&#45;&gt;n9 -->
<g id="edge18" class="edge"><title>n6&#45;&gt;n9</title>
<path fill="none" stroke="blue" stroke-dasharray="5,2" d="M974.917,-262.874C977.888,-262.24 980.828,-261.613 983.71,-261 1053.45,-246.167 1070.83,-242.175 1140.71,-228 1181.24,-219.778 1227.01,-210.836 1262.12,-204.048"/>
<polygon fill="blue" stroke="blue" points="1263.03,-207.436 1272.19,-202.103 1261.71,-200.563 1263.03,-207.436"/>
<text text-anchor="middle" x="1166.71" y="-231.8" font-family="Times New Roman,serif" font-size="14.00">subClass</text>
</g>
<!-- n8 -->
<g id="node8" class="node"><title>n8</title>
<ellipse fill="blue" stroke="black" cx="426.71" cy="-192" rx="43.5923" ry="18"/>
<text text-anchor="middle" x="426.71" y="-188.3" font-family="Times New Roman,serif" font-size="14.00" fill="white">Released</text>
</g>
<!-- n8&#45;&gt;n5 -->
<g id="edge6" class="edge"><title>n8&#45;&gt;n5</title>
<path fill="none" stroke="black" d="M453.824,-177.905C481.557,-164.511 525.113,-143.476 557.965,-127.61"/>
<polygon fill="black" stroke="black" points="559.872,-130.576 567.355,-123.075 556.828,-124.272 559.872,-130.576"/>
<text text-anchor="middle" x="535.21" y="-144.8" font-family="Times New Roman,serif" font-size="14.00">is a</text>
</g>
<!-- n8&#45;&gt;n8 -->
<g id="edge5" class="edge"><title>n8&#45;&gt;n8</title>
<path fill="none" stroke="#00cd00" d="M466.073,-199.871C478.474,-199.751 488.256,-197.127 488.256,-192 488.256,-188.395 483.42,-186.028 476.238,-184.898"/>
<polygon fill="#00cd00" stroke="#00cd00" points="476.309,-181.394 466.073,-184.129 475.781,-188.374 476.309,-181.394"/>
<text text-anchor="middle" x="512.756" y="-188.3" font-family="Times New Roman,serif" font-size="14.00">identifier</text>
</g>
<!-- n9&#45;&gt;n5 -->
<g id="edge28" class="edge"><title>n9&#45;&gt;n5</title>
<path fill="none" stroke="#00cd00" d="M1271.88,-189.131C1158.7,-184.505 876.925,-171.748 783.71,-156 742.868,-149.1 697.982,-136.733 663.127,-126.025"/>
<polygon fill="#00cd00" stroke="#00cd00" points="664.162,-122.682 653.574,-123.055 662.084,-129.366 664.162,-122.682"/>
<text text-anchor="middle" x="800.21" y="-144.8" font-family="Times New Roman,serif" font-size="14.00">status</text>
</g>
<!-- n10 -->
<g id="node10" class="node"><title>n10</title>
<polygon fill="#00008b" stroke="black" points="1535.71,-123 1481.71,-123 1481.71,-87 1535.71,-87 1535.71,-123"/>
<text text-anchor="middle" x="1508.71" y="-101.3" font-family="Times New Roman,serif" font-size="14.00" fill="white">PLAN</text>
</g>
<!-- n9&#45;&gt;n10 -->
<g id="edge7" class="edge"><title>n9&#45;&gt;n10</title>
<path fill="none" stroke="blue" stroke-dasharray="5,2" d="M1367.55,-186.019C1410.56,-180.668 1469.66,-170.874 1487.71,-156 1494.81,-150.147 1499.55,-141.474 1502.7,-132.987"/>
<polygon fill="blue" stroke="blue" points="1506.09,-133.879 1505.71,-123.291 1499.4,-131.805 1506.09,-133.879"/>
<text text-anchor="middle" x="1525.71" y="-144.8" font-family="Times New Roman,serif" font-size="14.00">subClass</text>
</g>
<!-- n11 -->
<g id="node11" class="node"><title>n11</title>
<polygon fill="#00008b" stroke="black" points="1633.71,-123 1553.71,-123 1553.71,-87 1633.71,-87 1633.71,-123"/>
<text text-anchor="middle" x="1593.71" y="-101.3" font-family="Times New Roman,serif" font-size="14.00" fill="white">REQUEST</text>
</g>
<!-- n9&#45;&gt;n11 -->
<g id="edge8" class="edge"><title>n9&#45;&gt;n11</title>
<path fill="none" stroke="blue" stroke-dasharray="5,2" d="M1367.29,-188.174C1426.81,-183.921 1524.69,-174.344 1555.71,-156 1565.52,-150.196 1573.66,-140.79 1579.85,-131.693"/>
<polygon fill="blue" stroke="blue" points="1582.84,-133.525 1585.19,-123.194 1576.91,-129.805 1582.84,-133.525"/>
<text text-anchor="middle" x="1598.71" y="-144.8" font-family="Times New Roman,serif" font-size="14.00">subClass</text>
</g>
<!-- n12 -->
<g id="node12" class="node"><title>n12</title>
<polygon fill="#00008b" stroke="black" points="1723.71,-123 1651.71,-123 1651.71,-87 1723.71,-87 1723.71,-123"/>
<text text-anchor="middle" x="1687.71" y="-101.3" font-family="Times New Roman,serif" font-size="14.00" fill="white">REPORT</text>
</g>
<!-- n9&#45;&gt;n12 -->
<g id="edge9" class="edge"><title>n9&#45;&gt;n12</title>
<path fill="none" stroke="blue" stroke-dasharray="5,2" d="M1367.25,-188.988C1441.91,-185.267 1582.87,-175.81 1628.71,-156 1642.26,-150.143 1655.06,-140.092 1665.25,-130.53"/>
<polygon fill="blue" stroke="blue" points="1667.83,-132.901 1672.5,-123.391 1662.92,-127.912 1667.83,-132.901"/>
<text text-anchor="middle" x="1678.71" y="-144.8" font-family="Times New Roman,serif" font-size="14.00">subClass</text>
</g>
<!-- n13 -->
<g id="node13" class="node"><title>n13</title>
<polygon fill="#00008b" stroke="black" points="1843.21,-123 1742.21,-123 1742.21,-87 1843.21,-87 1843.21,-123"/>
<text text-anchor="middle" x="1792.71" y="-101.3" font-family="Times New Roman,serif" font-size="14.00" fill="white">PROCEDURE</text>
</g>
<!-- n9&#45;&gt;n13 -->
<g id="edge10" class="edge"><title>n9&#45;&gt;n13</title>
<path fill="none" stroke="blue" stroke-dasharray="5,2" d="M1367.48,-189.349C1456.97,-185.82 1646.46,-176.168 1708.71,-156 1727.47,-149.922 1746.51,-139.061 1761.7,-129.01"/>
<polygon fill="blue" stroke="blue" points="1763.89,-131.757 1770.17,-123.229 1759.94,-125.975 1763.89,-131.757"/>
<text text-anchor="middle" x="1766.71" y="-144.8" font-family="Times New Roman,serif" font-size="14.00">subClass</text>
</g>
<!-- n16 -->
<g id="node16" class="node"><title>n16</title>
<polygon fill="#00008b" stroke="black" points="830.71,-123 708.71,-123 708.71,-87 830.71,-87 830.71,-123"/>
<text text-anchor="middle" x="769.71" y="-101.3" font-family="Times New Roman,serif" font-size="14.00" fill="white">SPECIFICATION</text>
</g>
<!-- n9&#45;&gt;n16 -->
<g id="edge13" class="edge"><title>n9&#45;&gt;n16</title>
<path fill="none" stroke="blue" stroke-dasharray="5,2" d="M1272.19,-190.304C1169.13,-188.333 928.083,-181.106 850.71,-156 832.314,-150.031 813.809,-139.07 799.14,-128.929"/>
<polygon fill="blue" stroke="blue" points="801.147,-126.061 790.976,-123.096 797.078,-131.757 801.147,-126.061"/>
<text text-anchor="middle" x="876.71" y="-144.8" font-family="Times New Roman,serif" font-size="14.00">subClass</text>
</g>
<!-- n17 -->
<g id="node17" class="node"><title>n17</title>
<polygon fill="#00008b" stroke="black" points="958.21,-123 849.21,-123 849.21,-87 958.21,-87 958.21,-123"/>
<text text-anchor="middle" x="903.71" y="-101.3" font-family="Times New Roman,serif" font-size="14.00" fill="white">DESCRIPTION</text>
</g>
<!-- n9&#45;&gt;n17 -->
<g id="edge14" class="edge"><title>n9&#45;&gt;n17</title>
<path fill="none" stroke="blue" stroke-dasharray="5,2" d="M1272.11,-189.956C1171.08,-187.304 942.219,-178.824 915.71,-156 909.169,-150.368 905.857,-141.858 904.268,-133.448"/>
<polygon fill="blue" stroke="blue" points="907.735,-132.957 903.083,-123.438 900.783,-133.78 907.735,-132.957"/>
<text text-anchor="middle" x="941.71" y="-144.8" font-family="Times New Roman,serif" font-size="14.00">subClass</text>
</g>
<!-- n25 -->
<g id="node25" class="node"><title>n25</title>
<g id="a_node25"><a xlink:href="file:///C:/Users/200001866/Documents/GitHub/RACK/RACK-Ontology/Graphs/PROV-S.owl.svg" xlink:title="provs:AGENT">
<polygon fill="#00008b" stroke="black" points="1114.21,-123 1015.21,-123 1015.21,-87 1114.21,-87 1114.21,-123"/>
<text text-anchor="middle" x="1064.71" y="-101.3" font-family="Times New Roman,serif" font-size="14.00" fill="white">provs:AGENT</text>
</a>
</g>
</g>
<!-- n9&#45;&gt;n25 -->
<g id="edge23" class="edge"><title>n9&#45;&gt;n25</title>
<path fill="none" stroke="#00cd00" d="M1272.04,-189.625C1182.23,-186.541 995.202,-177.576 975.71,-156 961.172,-139.908 980.867,-127.775 1005.39,-119.494"/>
<polygon fill="#00cd00" stroke="#00cd00" points="1006.46,-122.827 1014.96,-116.509 1004.38,-116.145 1006.46,-122.827"/>
<text text-anchor="middle" x="1026.71" y="-144.8" font-family="Times New Roman,serif" font-size="14.00">approvalAuthority</text>
</g>
<!-- n9&#45;&gt;n25 -->
<g id="edge26" class="edge"><title>n9&#45;&gt;n25</title>
<path fill="none" stroke="#00cd00" d="M1271.85,-189.068C1231.3,-185.893 1172.47,-177.592 1125.71,-156 1112.04,-149.688 1098.86,-139.572 1088.27,-130.086"/>
<polygon fill="#00cd00" stroke="#00cd00" points="1090.41,-127.294 1080.71,-123.027 1085.63,-132.41 1090.41,-127.294"/>
<text text-anchor="middle" x="1180.21" y="-144.8" font-family="Times New Roman,serif" font-size="14.00">issuingOrganization</text>
</g>
<!-- n26 -->
<g id="node26" class="node"><title>n26</title>
<g id="a_node26"><a xlink:href="file:///C:/Users/200001866/Documents/GitHub/RACK/RACK-Ontology/Graphs/XMLSchema.svg" xlink:title="xsd:date">
<polygon fill="#00008b" stroke="black" points="1253.21,-123 1190.21,-123 1190.21,-87 1253.21,-87 1253.21,-123"/>
<text text-anchor="middle" x="1221.71" y="-101.3" font-family="Times New Roman,serif" font-size="14.00" fill="white">xsd:date</text>
</a>
</g>
</g>
<!-- n9&#45;&gt;n26 -->
<g id="edge24" class="edge"><title>n9&#45;&gt;n26</title>
<path fill="none" stroke="#00cd00" d="M1275.64,-173.996C1266.39,-169.11 1257.18,-163.129 1249.71,-156 1242.81,-149.413 1237.15,-140.744 1232.77,-132.477"/>
<polygon fill="#00cd00" stroke="#00cd00" points="1235.89,-130.904 1228.37,-123.447 1229.6,-133.97 1235.89,-130.904"/>
<text text-anchor="middle" x="1283.71" y="-144.8" font-family="Times New Roman,serif" font-size="14.00">dateOfIssue</text>
</g>
<!-- n27 -->
<g id="node27" class="node"><title>n27</title>
<g id="a_node27"><a xlink:href="file:///C:/Users/200001866/Documents/GitHub/RACK/RACK-Ontology/Graphs/PROV-S.owl.svg" xlink:title="provs:ENTITY">
<polygon fill="#00008b" stroke="black" points="1373.71,-123 1271.71,-123 1271.71,-87 1373.71,-87 1373.71,-123"/>
<text text-anchor="middle" x="1322.71" y="-101.3" font-family="Times New Roman,serif" font-size="14.00" fill="white">provs:ENTITY</text>
</a>
</g>
</g>
<!-- n9&#45;&gt;n27 -->
<g id="edge25" class="edge"><title>n9&#45;&gt;n27</title>
<path fill="none" stroke="#00cd00" d="M1320.32,-173.799C1320.73,-162.163 1321.28,-146.548 1321.75,-133.237"/>
<polygon fill="#00cd00" stroke="#00cd00" points="1325.25,-133.293 1322.1,-123.175 1318.25,-133.046 1325.25,-133.293"/>
<text text-anchor="middle" x="1350.71" y="-144.8" font-family="Times New Roman,serif" font-size="14.00">references</text>
</g>
<!-- n28 -->
<g id="node28" class="node"><title>n28</title>
<g id="a_node28"><a xlink:href="file:///C:/Users/200001866/Documents/GitHub/RACK/RACK-Ontology/Graphs/XMLSchema.svg" xlink:title="xsd:string">
<polygon fill="#00008b" stroke="black" points="1463.21,-123 1392.21,-123 1392.21,-87 1463.21,-87 1463.21,-123"/>
<text text-anchor="middle" x="1427.71" y="-101.3" font-family="Times New Roman,serif" font-size="14.00" fill="white">xsd:string</text>
</a>
</g>
</g>
<!-- n9&#45;&gt;n28 -->
<g id="edge27" class="edge"><title>n9&#45;&gt;n28</title>
<path fill="none" stroke="#00cd00" d="M1354.4,-173.934C1363.65,-168.722 1373.38,-162.605 1381.71,-156 1391.05,-148.593 1400.18,-139.242 1407.82,-130.636"/>
<polygon fill="#00cd00" stroke="#00cd00" points="1410.5,-132.882 1414.37,-123.019 1405.2,-128.316 1410.5,-132.882"/>
<text text-anchor="middle" x="1440.71" y="-144.8" font-family="Times New Roman,serif" font-size="14.00">versionNumber</text>
</g>
<!-- n14 -->
<g id="node14" class="node"><title>n14</title>
<g id="a_node14"><a xlink:href="file:///C:/Users/200001866/Documents/GitHub/RACK/RACK-Ontology/Graphs/PROV-S.owl.svg" xlink:title="provs:THING">
<polygon fill="#00008b" stroke="black" points="650.21,-210 555.21,-210 555.21,-174 650.21,-174 650.21,-210"/>
<text text-anchor="middle" x="602.71" y="-188.3" font-family="Times New Roman,serif" font-size="14.00" fill="white">provs:THING</text>
</a>
</g>
</g>
<!-- n14&#45;&gt;n5 -->
<g id="edge11" class="edge"><title>n14&#45;&gt;n5</title>
<path fill="none" stroke="blue" stroke-dasharray="5,2" d="M602.71,-173.799C602.71,-162.163 602.71,-146.548 602.71,-133.237"/>
<polygon fill="blue" stroke="blue" points="606.21,-133.175 602.71,-123.175 599.21,-133.175 606.21,-133.175"/>
<text text-anchor="middle" x="628.71" y="-144.8" font-family="Times New Roman,serif" font-size="14.00">subClass</text>
</g>
<!-- n18 -->
<g id="node18" class="node"><title>n18</title>
<ellipse fill="blue" stroke="black" cx="718.71" cy="-192" rx="50.8918" ry="18"/>
<text text-anchor="middle" x="718.71" y="-188.3" font-family="Times New Roman,serif" font-size="14.00" fill="white">Withdrawn</text>
</g>
<!-- n18&#45;&gt;n5 -->
<g id="edge16" class="edge"><title>n18&#45;&gt;n5</title>
<path fill="none" stroke="black" d="M699.745,-175.239C687.41,-165.166 670.859,-151.982 655.71,-141 650.071,-136.913 643.989,-132.712 638.026,-128.702"/>
<polygon fill="black" stroke="black" points="639.705,-125.616 629.438,-123 635.833,-131.448 639.705,-125.616"/>
<text text-anchor="middle" x="685.21" y="-144.8" font-family="Times New Roman,serif" font-size="14.00">is a</text>
</g>
<!-- n18&#45;&gt;n18 -->
<g id="edge15" class="edge"><title>n18&#45;&gt;n18</title>
<path fill="none" stroke="#00cd00" d="M764.618,-199.836C777.51,-199.493 787.405,-196.881 787.405,-192 787.405,-188.492 782.293,-186.156 774.631,-184.992"/>
<polygon fill="#00cd00" stroke="#00cd00" points="774.872,-181.5 764.618,-184.164 774.296,-188.476 774.872,-181.5"/>
<text text-anchor="middle" x="811.905" y="-188.3" font-family="Times New Roman,serif" font-size="14.00">identifier</text>
</g>
<!-- n19 -->
<g id="node19" class="node"><title>n19</title>
<ellipse fill="blue" stroke="black" cx="1914.71" cy="-279" rx="48.1917" ry="18"/>
<text text-anchor="middle" x="1914.71" y="-275.3" font-family="Times New Roman,serif" font-size="14.00" fill="white">references</text>
</g>
<!-- n20 -->
<g id="node20" class="node"><title>n20</title>
<g id="a_node20"><a xlink:href="file:///C:/Users/200001866/Documents/GitHub/RACK/RACK-Ontology/Graphs/PROV-S.owl.svg" xlink:title="provs:wasImpactedBy">
<polygon fill="none" stroke="#00cd00" points="2014.5,-184.544 2014.5,-199.456 1956.05,-210 1873.37,-210 1814.92,-199.456 1814.92,-184.544 1873.37,-174 1956.05,-174 2014.5,-184.544"/>
<text text-anchor="middle" x="1914.71" y="-188.3" font-family="Times New Roman,serif" font-size="14.00">provs:wasImpactedBy</text>
</a>
</g>
</g>
<!-- n19&#45;&gt;n20 -->
<g id="edge17" class="edge"><title>n19&#45;&gt;n20</title>
<path fill="none" stroke="#00cd00" d="M1914.71,-260.799C1914.71,-249.163 1914.71,-233.548 1914.71,-220.237"/>
<polygon fill="#00cd00" stroke="#00cd00" points="1918.21,-220.175 1914.71,-210.175 1911.21,-220.175 1918.21,-220.175"/>
<text text-anchor="middle" x="1957.21" y="-231.8" font-family="Times New Roman,serif" font-size="14.00">subPropertyOf</text>
</g>
<!-- n21 -->
<g id="node21" class="node"><title>n21</title>
<polygon fill="none" stroke="red" points="1204.71,-297 992.71,-297 992.71,-261 1204.71,-261 1204.71,-297"/>
<text text-anchor="middle" x="1098.71" y="-275.3" font-family="Times New Roman,serif" font-size="14.00">versionNumber has at most 1 value</text>
</g>
<!-- n21&#45;&gt;n9 -->
<g id="edge19" class="edge"><title>n21&#45;&gt;n9</title>
<path fill="none" stroke="red" d="M1143.17,-260.901C1178.46,-247.328 1227.94,-228.295 1265.55,-213.832"/>
<polygon fill="red" stroke="red" points="1267.25,-216.928 1275.32,-210.071 1264.73,-210.395 1267.25,-216.928"/>
<text text-anchor="middle" x="1245.21" y="-231.8" font-family="Times New Roman,serif" font-size="14.00">restricts</text>
</g>
<!-- n22 -->
<g id="node22" class="node"><title>n22</title>
<polygon fill="none" stroke="red" points="1416.71,-297 1222.71,-297 1222.71,-261 1416.71,-261 1416.71,-297"/>
<text text-anchor="middle" x="1319.71" y="-275.3" font-family="Times New Roman,serif" font-size="14.00">dateOfIssue has at most 1 value</text>
</g>
<!-- n22&#45;&gt;n9 -->
<g id="edge20" class="edge"><title>n22&#45;&gt;n9</title>
<path fill="none" stroke="red" d="M1319.71,-260.799C1319.71,-249.163 1319.71,-233.548 1319.71,-220.237"/>
<polygon fill="red" stroke="red" points="1323.21,-220.175 1319.71,-210.175 1316.21,-220.175 1323.21,-220.175"/>
<text text-anchor="middle" x="1342.21" y="-231.8" font-family="Times New Roman,serif" font-size="14.00">restricts</text>
</g>
<!-- n23 -->
<g id="node23" class="node"><title>n23</title>
<polygon fill="none" stroke="red" points="1594.21,-297 1435.21,-297 1435.21,-261 1594.21,-261 1594.21,-297"/>
<text text-anchor="middle" x="1514.71" y="-275.3" font-family="Times New Roman,serif" font-size="14.00">status has at most 1 value</text>
</g>
<!-- n23&#45;&gt;n9 -->
<g id="edge21" class="edge"><title>n23&#45;&gt;n9</title>
<path fill="none" stroke="red" d="M1475.25,-260.799C1444.36,-247.333 1401.24,-228.538 1368.24,-214.152"/>
<polygon fill="red" stroke="red" points="1369.34,-210.818 1358.78,-210.03 1366.55,-217.235 1369.34,-210.818"/>
<text text-anchor="middle" x="1452.21" y="-231.8" font-family="Times New Roman,serif" font-size="14.00">restricts</text>
</g>
<!-- n24 -->
<g id="node24" class="node"><title>n24</title>
<polygon fill="none" stroke="red" points="1848.71,-297 1612.71,-297 1612.71,-261 1848.71,-261 1848.71,-297"/>
<text text-anchor="middle" x="1730.71" y="-275.3" font-family="Times New Roman,serif" font-size="14.00">issuingOrganization has at most 1 value</text>
</g>
<!-- n24&#45;&gt;n9 -->
<g id="edge22" class="edge"><title>n24&#45;&gt;n9</title>
<path fill="none" stroke="red" d="M1648.03,-260.901C1567.71,-244.29 1447.85,-219.501 1377.35,-204.92"/>
<polygon fill="red" stroke="red" points="1377.81,-201.443 1367.31,-202.845 1376.4,-208.298 1377.81,-201.443"/>
<text text-anchor="middle" x="1573.21" y="-231.8" font-family="Times New Roman,serif" font-size="14.00">restricts</text>
</g>
</g>
</svg>
