<?xml version="1.0" encoding="UTF-8" standalone="no"?>
<!DOCTYPE svg PUBLIC "-//W3C//DTD SVG 1.1//EN"
 "http://www.w3.org/Graphics/SVG/1.1/DTD/svg11.dtd">
<!-- Generated by graphviz version 2.38.0 (20140413.2041)
 -->
<!-- Title: gfile Pages: 1 -->
<svg width="1982pt" height="415pt"
 viewBox="0.00 0.00 1982.06 415.00" xmlns="http://www.w3.org/2000/svg" xmlns:xlink="http://www.w3.org/1999/xlink">
<g id="graph0" class="graph" transform="scale(1 1) rotate(0) translate(4 411)">
<title>gfile</title>
<polygon fill="white" stroke="none" points="-4,4 -4,-411 1978.06,-411 1978.06,4 -4,4"/>
<text text-anchor="middle" x="85.5" y="-391.8" font-family="Times New Roman,serif" font-size="14.00">Graph of Ontology File: file</text>
<!-- n1 -->
<g id="node1" class="node"><title>n1</title>
<ellipse fill="blue" stroke="black" cx="51.3454" cy="-192" rx="51.1914" ry="18"/>
<text text-anchor="middle" x="51.3454" y="-188.3" font-family="Times New Roman,serif" font-size="14.00" fill="white">SHA2_256</text>
</g>
<!-- n1&#45;&gt;n1 -->
<g id="edge1" class="edge"><title>n1&#45;&gt;n1</title>
<path fill="none" stroke="#00cd00" d="M97.6879,-199.836C110.701,-199.493 120.691,-196.881 120.691,-192 120.691,-188.492 115.53,-186.156 107.795,-184.992"/>
<polygon fill="#00cd00" stroke="#00cd00" points="107.94,-181.492 97.6879,-184.164 107.369,-188.469 107.94,-181.492"/>
<text text-anchor="middle" x="145.191" y="-188.3" font-family="Times New Roman,serif" font-size="14.00">identifier</text>
</g>
<!-- n2 -->
<g id="node2" class="node"><title>n2</title>
<polygon fill="#00008b" stroke="black" points="532.845,-123 435.845,-123 435.845,-87 532.845,-87 532.845,-123"/>
<text text-anchor="middle" x="484.345" y="-101.3" font-family="Times New Roman,serif" font-size="14.00" fill="white">HASH_TYPE</text>
</g>
<!-- n1&#45;&gt;n2 -->
<g id="edge2" class="edge"><title>n1&#45;&gt;n2</title>
<path fill="none" stroke="black" d="M95.2467,-182.382C173.709,-166.98 337.996,-134.729 425.901,-117.473"/>
<polygon fill="black" stroke="black" points="426.576,-120.907 435.715,-115.546 425.228,-114.038 426.576,-120.907"/>
<text text-anchor="middle" x="303.845" y="-144.8" font-family="Times New Roman,serif" font-size="14.00">is a</text>
</g>
<!-- n20 -->
<g id="node20" class="node"><title>n20</title>
<polygon fill="none" stroke="red" points="618.845,-36 349.845,-36 349.845,-0 618.845,-0 618.845,-36"/>
<text text-anchor="middle" x="484.345" y="-14.3" font-family="Times New Roman,serif" font-size="14.00">one of {MD5,SHA1,SHA2_256,SHA2_512}</text>
</g>
<!-- n2&#45;&gt;n20 -->
<g id="edge19" class="edge"><title>n2&#45;&gt;n20</title>
<path fill="none" stroke="red" d="M484.345,-86.799C484.345,-75.1626 484.345,-59.5479 484.345,-46.2368"/>
<polygon fill="red" stroke="red" points="487.846,-46.1754 484.345,-36.1754 480.846,-46.1755 487.846,-46.1754"/>
<text text-anchor="middle" x="506.845" y="-57.8" font-family="Times New Roman,serif" font-size="14.00">same as</text>
</g>
<!-- n3 -->
<g id="node3" class="node"><title>n3</title>
<ellipse fill="blue" stroke="black" cx="1650.35" cy="-366" rx="39.7935" ry="18"/>
<text text-anchor="middle" x="1650.35" y="-362.3" font-family="Times New Roman,serif" font-size="14.00" fill="white">satisfies</text>
</g>
<!-- n4 -->
<g id="node4" class="node"><title>n4</title>
<g id="a_node4"><a xlink:href="file:///C:/Users/200001866/Documents/GitHub/RACK/RACK-Ontology/Graphs/PROV-S.owl.svg" xlink:title="provs:wasImpactedBy">
<polygon fill="none" stroke="#00cd00" points="1750.14,-271.544 1750.14,-286.456 1691.68,-297 1609.01,-297 1550.55,-286.456 1550.55,-271.544 1609.01,-261 1691.68,-261 1750.14,-271.544"/>
<text text-anchor="middle" x="1650.35" y="-275.3" font-family="Times New Roman,serif" font-size="14.00">provs:wasImpactedBy</text>
</a>
</g>
</g>
<!-- n3&#45;&gt;n4 -->
<g id="edge3" class="edge"><title>n3&#45;&gt;n4</title>
<path fill="none" stroke="#00cd00" d="M1650.35,-347.799C1650.35,-336.163 1650.35,-320.548 1650.35,-307.237"/>
<polygon fill="#00cd00" stroke="#00cd00" points="1653.85,-307.175 1650.35,-297.175 1646.85,-307.175 1653.85,-307.175"/>
<text text-anchor="middle" x="1692.85" y="-318.8" font-family="Times New Roman,serif" font-size="14.00">subPropertyOf</text>
</g>
<!-- n5 -->
<g id="node5" class="node"><title>n5</title>
<ellipse fill="blue" stroke="black" cx="217.345" cy="-192" rx="29.4969" ry="18"/>
<text text-anchor="middle" x="217.345" y="-188.3" font-family="Times New Roman,serif" font-size="14.00" fill="white">MD5</text>
</g>
<!-- n5&#45;&gt;n2 -->
<g id="edge5" class="edge"><title>n5&#45;&gt;n2</title>
<path fill="none" stroke="black" d="M242.947,-182.85C284.836,-169.514 369.058,-142.702 426.084,-124.548"/>
<polygon fill="black" stroke="black" points="427.228,-127.857 435.695,-121.488 425.104,-121.187 427.228,-127.857"/>
<text text-anchor="middle" x="376.845" y="-144.8" font-family="Times New Roman,serif" font-size="14.00">is a</text>
</g>
<!-- n5&#45;&gt;n5 -->
<g id="edge4" class="edge"><title>n5&#45;&gt;n5</title>
<path fill="none" stroke="#00cd00" d="M244.06,-199.806C255.173,-200.344 264.593,-197.742 264.593,-192 264.593,-188.142 260.34,-185.701 254.179,-184.679"/>
<polygon fill="#00cd00" stroke="#00cd00" points="254.216,-181.176 244.06,-184.194 253.881,-188.168 254.216,-181.176"/>
<text text-anchor="middle" x="289.093" y="-188.3" font-family="Times New Roman,serif" font-size="14.00">identifier</text>
</g>
<!-- n6 -->
<g id="node6" class="node"><title>n6</title>
<g id="a_node6"><a xlink:href="file:///C:/Users/200001866/Documents/GitHub/RACK/RACK-Ontology/Graphs/PROV-S.owl.svg" xlink:title="provs:ACTIVITY">
<polygon fill="#00008b" stroke="black" points="1532.35,-297 1414.35,-297 1414.35,-261 1532.35,-261 1532.35,-297"/>
<text text-anchor="middle" x="1473.35" y="-275.3" font-family="Times New Roman,serif" font-size="14.00" fill="white">provs:ACTIVITY</text>
</a>
</g>
</g>
<!-- n7 -->
<g id="node7" class="node"><title>n7</title>
<polygon fill="#00008b" stroke="black" points="1499.85,-210 1374.85,-210 1374.85,-174 1499.85,-174 1499.85,-210"/>
<text text-anchor="middle" x="1437.35" y="-188.3" font-family="Times New Roman,serif" font-size="14.00" fill="white">FILE_CREATION</text>
</g>
<!-- n6&#45;&gt;n7 -->
<g id="edge6" class="edge"><title>n6&#45;&gt;n7</title>
<path fill="none" stroke="blue" stroke-dasharray="5,2" d="M1466.06,-260.799C1461.03,-248.932 1454.26,-232.928 1448.55,-219.449"/>
<polygon fill="blue" stroke="blue" points="1451.74,-218.019 1444.62,-210.175 1445.3,-220.749 1451.74,-218.019"/>
<text text-anchor="middle" x="1483.35" y="-231.8" font-family="Times New Roman,serif" font-size="14.00">subClass</text>
</g>
<!-- n8 -->
<g id="node8" class="node"><title>n8</title>
<g id="a_node8"><a xlink:href="file:///C:/Users/200001866/Documents/GitHub/RACK/RACK-Ontology/Graphs/PROV-S.owl.svg" xlink:title="provs:ENTITY">
<polygon fill="#00008b" stroke="black" points="1315.35,-210 1213.35,-210 1213.35,-174 1315.35,-174 1315.35,-210"/>
<text text-anchor="middle" x="1264.35" y="-188.3" font-family="Times New Roman,serif" font-size="14.00" fill="white">provs:ENTITY</text>
</a>
</g>
</g>
<!-- n9 -->
<g id="node9" class="node"><title>n9</title>
<polygon fill="#00008b" stroke="black" points="1221.35,-297 1167.35,-297 1167.35,-261 1221.35,-261 1221.35,-297"/>
<text text-anchor="middle" x="1194.35" y="-275.3" font-family="Times New Roman,serif" font-size="14.00" fill="white">FILE</text>
</g>
<!-- n8&#45;&gt;n9 -->
<g id="edge7" class="edge"><title>n8&#45;&gt;n9</title>
<path fill="none" stroke="blue" stroke-dasharray="5,2" d="M1252.94,-210.129C1246.14,-220.006 1237.14,-232.506 1228.35,-243 1225.45,-246.454 1222.29,-249.983 1219.1,-253.407"/>
<polygon fill="blue" stroke="blue" points="1216.54,-251.019 1212.17,-260.667 1221.6,-255.856 1216.54,-251.019"/>
<text text-anchor="middle" x="1265.35" y="-231.8" font-family="Times New Roman,serif" font-size="14.00">subClass</text>
</g>
<!-- n8&#45;&gt;n9 -->
<g id="edge23" class="edge"><title>n8&#45;&gt;n9</title>
<path fill="none" stroke="#00cd00" d="M1285.53,-210.012C1295.18,-219.849 1302.93,-232.349 1295.35,-243 1280.97,-263.191 1254.11,-271.84 1231.7,-275.496"/>
<polygon fill="#00cd00" stroke="#00cd00" points="1231.21,-272.03 1221.78,-276.847 1232.16,-278.966 1231.21,-272.03"/>
<text text-anchor="middle" x="1324.85" y="-231.8" font-family="Times New Roman,serif" font-size="14.00">definedIn</text>
</g>
<!-- n9&#45;&gt;n7 -->
<g id="edge24" class="edge"><title>n9&#45;&gt;n7</title>
<path fill="none" stroke="#00cd00" d="M1221.36,-274.923C1254.02,-270.577 1310.2,-261.073 1355.35,-243 1372.78,-236.02 1390.74,-225.505 1405.4,-215.915"/>
<polygon fill="#00cd00" stroke="#00cd00" points="1407.71,-218.581 1414.06,-210.104 1403.81,-212.768 1407.71,-218.581"/>
<text text-anchor="middle" x="1407.85" y="-231.8" font-family="Times New Roman,serif" font-size="14.00">createBy</text>
</g>
<!-- n9&#45;&gt;n8 -->
<g id="edge27" class="edge"><title>n9&#45;&gt;n8</title>
<path fill="none" stroke="#00cd00" d="M1182.26,-260.7C1176.76,-250.53 1172.79,-237.789 1179.35,-228 1182.85,-222.768 1192.27,-217.437 1203.62,-212.564"/>
<polygon fill="#00cd00" stroke="#00cd00" points="1205.1,-215.743 1213.07,-208.765 1202.49,-209.249 1205.1,-215.743"/>
<text text-anchor="middle" x="1201.85" y="-231.8" font-family="Times New Roman,serif" font-size="14.00">satisfies</text>
</g>
<!-- n17 -->
<g id="node17" class="node"><title>n17</title>
<polygon fill="#00008b" stroke="black" points="973.845,-210 882.845,-210 882.845,-174 973.845,-174 973.845,-210"/>
<text text-anchor="middle" x="928.345" y="-188.3" font-family="Times New Roman,serif" font-size="14.00" fill="white">FILE_HASH</text>
</g>
<!-- n9&#45;&gt;n17 -->
<g id="edge28" class="edge"><title>n9&#45;&gt;n17</title>
<path fill="none" stroke="#00cd00" d="M1167.05,-264.469C1164.14,-263.221 1161.2,-262.038 1158.35,-261 1128.55,-250.187 1118.33,-255.823 1089.35,-243 1078.18,-238.062 1077.52,-232.9 1066.35,-228 1040.27,-216.567 1009.71,-208.336 983.99,-202.741"/>
<polygon fill="#00cd00" stroke="#00cd00" points="984.531,-199.278 974.025,-200.65 983.093,-206.129 984.531,-199.278"/>
<text text-anchor="middle" x="1112.35" y="-231.8" font-family="Times New Roman,serif" font-size="14.00">fileHash</text>
</g>
<!-- n21 -->
<g id="node21" class="node"><title>n21</title>
<polygon fill="#00008b" stroke="black" points="844.345,-210 768.345,-210 768.345,-174 844.345,-174 844.345,-210"/>
<text text-anchor="middle" x="806.345" y="-188.3" font-family="Times New Roman,serif" font-size="14.00" fill="white">FORMAT</text>
</g>
<!-- n9&#45;&gt;n21 -->
<g id="edge26" class="edge"><title>n9&#45;&gt;n21</title>
<path fill="none" stroke="#00cd00" d="M1167.19,-264.056C1164.25,-262.888 1161.27,-261.837 1158.35,-261 1092.1,-242.038 1068.02,-269.347 1004.35,-243 994.404,-238.887 995.196,-232.326 985.345,-228 939.185,-207.727 922.717,-220.21 873.345,-210 867.176,-208.724 860.719,-207.257 854.352,-205.73"/>
<polygon fill="#00cd00" stroke="#00cd00" points="855.021,-202.29 844.475,-203.3 853.349,-209.088 855.021,-202.29"/>
<text text-anchor="middle" x="1033.35" y="-231.8" font-family="Times New Roman,serif" font-size="14.00">fileFormat</text>
</g>
<!-- n22 -->
<g id="node22" class="node"><title>n22</title>
<g id="a_node22"><a xlink:href="file:///C:/Users/200001866/Documents/GitHub/RACK/RACK-Ontology/Graphs/XMLSchema.svg" xlink:title="xsd:string">
<polygon fill="#00008b" stroke="black" points="1109.85,-123 1038.85,-123 1038.85,-87 1109.85,-87 1109.85,-123"/>
<text text-anchor="middle" x="1074.35" y="-101.3" font-family="Times New Roman,serif" font-size="14.00" fill="white">xsd:string</text>
</a>
</g>
</g>
<!-- n9&#45;&gt;n22 -->
<g id="edge25" class="edge"><title>n9&#45;&gt;n22</title>
<path fill="none" stroke="#00cd00" d="M1182.4,-260.879C1161.2,-230.486 1116.88,-166.969 1092.1,-131.443"/>
<polygon fill="#00cd00" stroke="#00cd00" points="1094.83,-129.25 1086.24,-123.052 1089.09,-133.256 1094.83,-129.25"/>
<text text-anchor="middle" x="1169.35" y="-188.3" font-family="Times New Roman,serif" font-size="14.00">filename</text>
</g>
<!-- n10 -->
<g id="node10" class="node"><title>n10</title>
<polygon fill="none" stroke="red" points="1183.35,-384 1013.35,-384 1013.35,-348 1183.35,-348 1183.35,-384"/>
<text text-anchor="middle" x="1098.35" y="-362.3" font-family="Times New Roman,serif" font-size="14.00">filename has exactly 1 value</text>
</g>
<!-- n10&#45;&gt;n9 -->
<g id="edge8" class="edge"><title>n10&#45;&gt;n9</title>
<path fill="none" stroke="red" d="M1117.77,-347.799C1131.96,-335.241 1151.37,-318.049 1167.1,-304.12"/>
<polygon fill="red" stroke="red" points="1169.78,-306.425 1174.95,-297.175 1165.14,-301.184 1169.78,-306.425"/>
<text text-anchor="middle" x="1174.85" y="-318.8" font-family="Times New Roman,serif" font-size="14.00">restricts</text>
</g>
<!-- n11 -->
<g id="node11" class="node"><title>n11</title>
<polygon fill="none" stroke="red" points="1377.35,-384 1201.35,-384 1201.35,-348 1377.35,-348 1377.35,-384"/>
<text text-anchor="middle" x="1289.35" y="-362.3" font-family="Times New Roman,serif" font-size="14.00">createBy has at most 1 value</text>
</g>
<!-- n11&#45;&gt;n9 -->
<g id="edge9" class="edge"><title>n11&#45;&gt;n9</title>
<path fill="none" stroke="red" d="M1270.12,-347.799C1256.09,-335.241 1236.87,-318.049 1221.3,-304.12"/>
<polygon fill="red" stroke="red" points="1223.33,-301.235 1213.54,-297.175 1218.66,-306.452 1223.33,-301.235"/>
<text text-anchor="middle" x="1269.85" y="-318.8" font-family="Times New Roman,serif" font-size="14.00">restricts</text>
</g>
<!-- n12 -->
<g id="node12" class="node"><title>n12</title>
<ellipse fill="blue" stroke="black" cx="383.345" cy="-192" rx="51.1914" ry="18"/>
<text text-anchor="middle" x="383.345" y="-188.3" font-family="Times New Roman,serif" font-size="14.00" fill="white">SHA2_512</text>
</g>
<!-- n12&#45;&gt;n2 -->
<g id="edge11" class="edge"><title>n12&#45;&gt;n2</title>
<path fill="none" stroke="black" d="M402.343,-175.012C417.468,-162.283 438.87,-144.271 456.017,-129.84"/>
<polygon fill="black" stroke="black" points="458.65,-132.2 464.047,-123.083 454.142,-126.844 458.65,-132.2"/>
<text text-anchor="middle" x="449.845" y="-144.8" font-family="Times New Roman,serif" font-size="14.00">is a</text>
</g>
<!-- n12&#45;&gt;n12 -->
<g id="edge10" class="edge"><title>n12&#45;&gt;n12</title>
<path fill="none" stroke="#00cd00" d="M429.688,-199.836C442.701,-199.493 452.691,-196.881 452.691,-192 452.691,-188.492 447.53,-186.156 439.795,-184.992"/>
<polygon fill="#00cd00" stroke="#00cd00" points="439.94,-181.492 429.688,-184.164 439.369,-188.469 439.94,-181.492"/>
<text text-anchor="middle" x="477.191" y="-188.3" font-family="Times New Roman,serif" font-size="14.00">identifier</text>
</g>
<!-- n13 -->
<g id="node13" class="node"><title>n13</title>
<ellipse fill="blue" stroke="black" cx="1871.35" cy="-366" rx="42.4939" ry="18"/>
<text text-anchor="middle" x="1871.35" y="-362.3" font-family="Times New Roman,serif" font-size="14.00" fill="white">createBy</text>
</g>
<!-- n14 -->
<g id="node14" class="node"><title>n14</title>
<g id="a_node14"><a xlink:href="file:///C:/Users/200001866/Documents/GitHub/RACK/RACK-Ontology/Graphs/PROV-S.owl.svg" xlink:title="provs:wasGeneratedBy">
<polygon fill="none" stroke="#00cd00" points="1974.27,-271.544 1974.27,-286.456 1913.98,-297 1828.71,-297 1768.43,-286.456 1768.43,-271.544 1828.71,-261 1913.98,-261 1974.27,-271.544"/>
<text text-anchor="middle" x="1871.35" y="-275.3" font-family="Times New Roman,serif" font-size="14.00">provs:wasGeneratedBy</text>
</a>
</g>
</g>
<!-- n13&#45;&gt;n14 -->
<g id="edge12" class="edge"><title>n13&#45;&gt;n14</title>
<path fill="none" stroke="#00cd00" d="M1871.35,-347.799C1871.35,-336.163 1871.35,-320.548 1871.35,-307.237"/>
<polygon fill="#00cd00" stroke="#00cd00" points="1874.85,-307.175 1871.35,-297.175 1867.85,-307.175 1874.85,-307.175"/>
<text text-anchor="middle" x="1913.85" y="-318.8" font-family="Times New Roman,serif" font-size="14.00">subPropertyOf</text>
</g>
<!-- n15 -->
<g id="node15" class="node"><title>n15</title>
<ellipse fill="blue" stroke="black" cx="552.345" cy="-192" rx="33.2948" ry="18"/>
<text text-anchor="middle" x="552.345" y="-188.3" font-family="Times New Roman,serif" font-size="14.00" fill="white">SHA1</text>
</g>
<!-- n15&#45;&gt;n2 -->
<g id="edge14" class="edge"><title>n15&#45;&gt;n2</title>
<path fill="none" stroke="black" d="M539.555,-175.012C529.65,-162.63 515.745,-145.25 504.369,-131.029"/>
<polygon fill="black" stroke="black" points="506.992,-128.705 498.012,-123.083 501.526,-133.078 506.992,-128.705"/>
<text text-anchor="middle" x="532.845" y="-144.8" font-family="Times New Roman,serif" font-size="14.00">is a</text>
</g>
<!-- n15&#45;&gt;n15 -->
<g id="edge13" class="edge"><title>n15&#45;&gt;n15</title>
<path fill="none" stroke="#00cd00" d="M582.291,-199.844C593.869,-200.193 603.493,-197.578 603.493,-192 603.493,-188.165 598.944,-185.731 592.339,-184.697"/>
<polygon fill="#00cd00" stroke="#00cd00" points="592.465,-181.199 582.291,-184.156 592.088,-188.189 592.465,-181.199"/>
<text text-anchor="middle" x="627.993" y="-188.3" font-family="Times New Roman,serif" font-size="14.00">identifier</text>
</g>
<!-- n16 -->
<g id="node16" class="node"><title>n16</title>
<g id="a_node16"><a xlink:href="file:///C:/Users/200001866/Documents/GitHub/RACK/RACK-Ontology/Graphs/PROV-S.owl.svg" xlink:title="provs:THING">
<polygon fill="#00008b" stroke="black" points="751.845,-297 656.845,-297 656.845,-261 751.845,-261 751.845,-297"/>
<text text-anchor="middle" x="704.345" y="-275.3" font-family="Times New Roman,serif" font-size="14.00" fill="white">provs:THING</text>
</a>
</g>
</g>
<!-- n16&#45;&gt;n2 -->
<g id="edge18" class="edge"><title>n16&#45;&gt;n2</title>
<path fill="none" stroke="blue" stroke-dasharray="5,2" d="M701.585,-260.912C697.057,-238.16 685.966,-198.006 661.345,-174 629.108,-142.567 580.792,-125.311 542.781,-116.056"/>
<polygon fill="blue" stroke="blue" points="543.388,-112.604 532.856,-113.762 541.811,-119.424 543.388,-112.604"/>
<text text-anchor="middle" x="711.345" y="-188.3" font-family="Times New Roman,serif" font-size="14.00">subClass</text>
</g>
<!-- n16&#45;&gt;n17 -->
<g id="edge15" class="edge"><title>n16&#45;&gt;n17</title>
<path fill="none" stroke="blue" stroke-dasharray="5,2" d="M738.736,-260.9C763.803,-248.575 795.673,-233.228 809.345,-228 829.743,-220.2 852.653,-213.088 872.884,-207.342"/>
<polygon fill="blue" stroke="blue" points="873.889,-210.696 882.578,-204.634 872.005,-203.954 873.889,-210.696"/>
<text text-anchor="middle" x="835.345" y="-231.8" font-family="Times New Roman,serif" font-size="14.00">subClass</text>
</g>
<!-- n16&#45;&gt;n21 -->
<g id="edge20" class="edge"><title>n16&#45;&gt;n21</title>
<path fill="none" stroke="blue" stroke-dasharray="5,2" d="M706.905,-260.857C709.289,-250.234 713.821,-236.954 722.345,-228 732.163,-217.687 745.479,-210.298 758.613,-205.051"/>
<polygon fill="blue" stroke="blue" points="759.894,-208.31 768.092,-201.599 757.498,-201.733 759.894,-208.31"/>
<text text-anchor="middle" x="748.345" y="-231.8" font-family="Times New Roman,serif" font-size="14.00">subClass</text>
</g>
<!-- n17&#45;&gt;n2 -->
<g id="edge21" class="edge"><title>n17&#45;&gt;n2</title>
<path fill="none" stroke="#00cd00" d="M882.747,-180.605C873.045,-178.41 862.859,-176.118 853.345,-174 786.292,-159.074 769.841,-153.783 702.345,-141 648.537,-130.809 586.889,-121.092 542.911,-114.494"/>
<polygon fill="#00cd00" stroke="#00cd00" points="543.375,-111.024 532.968,-113.01 542.342,-117.947 543.375,-111.024"/>
<text text-anchor="middle" x="800.845" y="-144.8" font-family="Times New Roman,serif" font-size="14.00">hashType</text>
</g>
<!-- n17&#45;&gt;n22 -->
<g id="edge22" class="edge"><title>n17&#45;&gt;n22</title>
<path fill="none" stroke="#00cd00" d="M957.891,-173.799C980.451,-160.665 1011.72,-142.462 1036.17,-128.225"/>
<polygon fill="#00cd00" stroke="#00cd00" points="1037.96,-131.232 1044.84,-123.175 1034.44,-125.182 1037.96,-131.232"/>
<text text-anchor="middle" x="1039.35" y="-144.8" font-family="Times New Roman,serif" font-size="14.00">hashValue</text>
</g>
<!-- n18 -->
<g id="node18" class="node"><title>n18</title>
<polygon fill="none" stroke="red" points="948.845,-297 769.845,-297 769.845,-261 948.845,-261 948.845,-297"/>
<text text-anchor="middle" x="859.345" y="-275.3" font-family="Times New Roman,serif" font-size="14.00">hashType has exactly 1 value</text>
</g>
<!-- n18&#45;&gt;n17 -->
<g id="edge16" class="edge"><title>n18&#45;&gt;n17</title>
<path fill="none" stroke="red" d="M860.609,-260.889C862.102,-250.539 865.339,-237.544 872.345,-228 875.488,-223.72 879.326,-219.843 883.505,-216.363"/>
<polygon fill="red" stroke="red" points="885.922,-218.928 891.869,-210.16 881.752,-213.306 885.922,-218.928"/>
<text text-anchor="middle" x="894.845" y="-231.8" font-family="Times New Roman,serif" font-size="14.00">restricts</text>
</g>
<!-- n19 -->
<g id="node19" class="node"><title>n19</title>
<polygon fill="none" stroke="red" points="1149.35,-297 967.345,-297 967.345,-261 1149.35,-261 1149.35,-297"/>
<text text-anchor="middle" x="1058.35" y="-275.3" font-family="Times New Roman,serif" font-size="14.00">hashValue has exactly 1 value</text>
</g>
<!-- n19&#45;&gt;n17 -->
<g id="edge17" class="edge"><title>n19&#45;&gt;n17</title>
<path fill="none" stroke="red" d="M967.249,-261.964C957.221,-257.172 947.919,-250.984 940.345,-243 934.557,-236.898 931.404,-228.514 929.73,-220.356"/>
<polygon fill="red" stroke="red" points="933.179,-219.743 928.315,-210.33 926.247,-220.721 933.179,-219.743"/>
<text text-anchor="middle" x="962.845" y="-231.8" font-family="Times New Roman,serif" font-size="14.00">restricts</text>
</g>
</g>
</svg>
