<?xml version="1.0" encoding="UTF-8" standalone="no"?>
<!DOCTYPE svg PUBLIC "-//W3C//DTD SVG 1.1//EN"
 "http://www.w3.org/Graphics/SVG/1.1/DTD/svg11.dtd">
<!-- Generated by graphviz version 2.38.0 (20140413.2041)
 -->
<!-- Title: gha Pages: 1 -->
<svg width="766pt" height="241pt"
 viewBox="0.00 0.00 766.00 241.00" xmlns="http://www.w3.org/2000/svg" xmlns:xlink="http://www.w3.org/1999/xlink">
<g id="graph0" class="graph" transform="scale(1 1) rotate(0) translate(4 237)">
<title>gha</title>
<polygon fill="white" stroke="none" points="-4,4 -4,-237 762,-237 762,4 -4,4"/>
<text text-anchor="middle" x="83.5" y="-217.8" font-family="Times New Roman,serif" font-size="14.00">Graph of Ontology File: ha</text>
<!-- n1 -->
<g id="node1" class="node"><title>n1</title>
<ellipse fill="blue" stroke="black" cx="170.5" cy="-192" rx="31.3957" ry="18"/>
<text text-anchor="middle" x="170.5" y="-188.3" font-family="Times New Roman,serif" font-size="14.00" fill="white">H&#45;1.1</text>
</g>
<!-- n1&#45;&gt;n1 -->
<g id="edge1" class="edge"><title>n1&#45;&gt;n1</title>
<path fill="none" stroke="#00cd00" d="M198.811,-199.827C210.166,-200.269 219.697,-197.66 219.697,-192 219.697,-188.197 215.395,-185.772 209.128,-184.723"/>
<polygon fill="#00cd00" stroke="#00cd00" points="208.984,-181.211 198.811,-184.173 208.611,-188.201 208.984,-181.211"/>
<text text-anchor="middle" x="263.197" y="-188.3" font-family="Times New Roman,serif" font-size="14.00">uniqueIdentifier</text>
</g>
<!-- n2 -->
<g id="node2" class="node"><title>n2</title>
<polygon fill="none" stroke="black" points="125,-123 0,-123 0,-87 125,-87 125,-123"/>
<text text-anchor="middle" x="62.5" y="-101.3" font-family="Times New Roman,serif" font-size="14.00">Integer Under Flow</text>
</g>
<!-- n1&#45;&gt;n2 -->
<g id="edge2" class="edge"><title>n1&#45;&gt;n2</title>
<path fill="none" stroke="#00cd00" d="M148.796,-178.865C138.117,-172.541 125.26,-164.389 114.5,-156 104.569,-148.257 94.4174,-138.884 85.7505,-130.355"/>
<polygon fill="#00cd00" stroke="#00cd00" points="88.0973,-127.751 78.5591,-123.139 83.1392,-132.693 88.0973,-127.751"/>
<text text-anchor="middle" x="140.5" y="-144.8" font-family="Times New Roman,serif" font-size="14.00">definition</text>
</g>
<!-- n3 -->
<g id="node3" class="node"><title>n3</title>
<ellipse fill="blue" stroke="black" cx="170.5" cy="-105" rx="27" ry="18"/>
<text text-anchor="middle" x="170.5" y="-101.3" font-family="Times New Roman,serif" font-size="14.00" fill="white">H&#45;1</text>
</g>
<!-- n1&#45;&gt;n3 -->
<g id="edge3" class="edge"><title>n1&#45;&gt;n3</title>
<path fill="none" stroke="#00cd00" d="M170.5,-173.799C170.5,-162.163 170.5,-146.548 170.5,-133.237"/>
<polygon fill="#00cd00" stroke="#00cd00" points="174,-133.175 170.5,-123.175 167,-133.175 174,-133.175"/>
<text text-anchor="middle" x="189.5" y="-144.8" font-family="Times New Roman,serif" font-size="14.00">source</text>
</g>
<!-- n4 -->
<g id="node4" class="node"><title>n4</title>
<g id="a_node4"><a xlink:href="file:///C:/Sadl3Workspace4/RACK-Ontology-7-29/Graphs/HAZARD.owl.svg" xlink:title="H:HAZARD">
<polygon fill="#00008b" stroke="black" points="552.5,-36 466.5,-36 466.5,-0 552.5,-0 552.5,-36"/>
<text text-anchor="middle" x="509.5" y="-14.3" font-family="Times New Roman,serif" font-size="14.00" fill="white">H:HAZARD</text>
</a>
</g>
</g>
<!-- n1&#45;&gt;n4 -->
<g id="edge4" class="edge"><title>n1&#45;&gt;n4</title>
<path fill="none" stroke="black" d="M201.361,-188.635C273.161,-182.492 448.361,-163.6 488.5,-123 508.265,-103.008 511.927,-69.8876 511.662,-46.3993"/>
<polygon fill="black" stroke="black" points="515.158,-46.237 511.307,-36.3669 508.162,-46.4843 515.158,-46.237"/>
<text text-anchor="middle" x="516" y="-101.3" font-family="Times New Roman,serif" font-size="14.00">is a</text>
</g>
<!-- n3&#45;&gt;n3 -->
<g id="edge13" class="edge"><title>n3&#45;&gt;n3</title>
<path fill="none" stroke="#00cd00" d="M195.032,-112.752C206.008,-113.49 215.5,-110.906 215.5,-105 215.5,-101.032 211.215,-98.5632 205.074,-97.5944"/>
<polygon fill="#00cd00" stroke="#00cd00" points="205.147,-94.0949 195.032,-97.248 204.906,-101.091 205.147,-94.0949"/>
<text text-anchor="middle" x="259" y="-101.3" font-family="Times New Roman,serif" font-size="14.00">uniqueIdentifier</text>
</g>
<!-- n3&#45;&gt;n4 -->
<g id="edge16" class="edge"><title>n3&#45;&gt;n4</title>
<path fill="none" stroke="black" d="M196.259,-99.4188C224.422,-93.9647 270.594,-83.7067 308.5,-69 321.662,-63.8935 323.101,-58.4456 336.5,-54 387.686,-37.0175 403.986,-48.2759 456.5,-36 456.6,-35.9766 456.7,-35.9532 456.8,-35.9296"/>
<polygon fill="black" stroke="black" points="457.461,-39.3736 466.274,-33.4929 455.717,-32.5943 457.461,-39.3736"/>
<text text-anchor="middle" x="346" y="-57.8" font-family="Times New Roman,serif" font-size="14.00">is a</text>
</g>
<!-- n7 -->
<g id="node7" class="node"><title>n7</title>
<g id="a_node7"><a xlink:href="file:///C:/Sadl3Workspace4/RACK-Ontology-7-29/Graphs/Turnstiles.owl.svg" xlink:title="trnstl:Turnstiles">
<ellipse fill="blue" stroke="black" cx="217.5" cy="-18" rx="66.0889" ry="18"/>
<text text-anchor="middle" x="217.5" y="-14.3" font-family="Times New Roman,serif" font-size="14.00" fill="white">trnstl:Turnstiles</text>
</a>
</g>
</g>
<!-- n3&#45;&gt;n7 -->
<g id="edge15" class="edge"><title>n3&#45;&gt;n7</title>
<path fill="none" stroke="#00cd00" d="M179.157,-87.7333C184.406,-77.9293 191.271,-65.2107 197.5,-54 199.132,-51.0635 200.854,-47.9978 202.577,-44.9544"/>
<polygon fill="#00cd00" stroke="#00cd00" points="205.744,-46.4651 207.652,-36.0434 199.662,-43.0008 205.744,-46.4651"/>
<text text-anchor="middle" x="216.5" y="-57.8" font-family="Times New Roman,serif" font-size="14.00">source</text>
</g>
<!-- n10 -->
<g id="node10" class="node"><title>n10</title>
<polygon fill="none" stroke="black" points="133,-36 38,-36 38,-0 133,-0 133,-36"/>
<text text-anchor="middle" x="85.5" y="-14.3" font-family="Times New Roman,serif" font-size="14.00">System Crash</text>
</g>
<!-- n3&#45;&gt;n10 -->
<g id="edge14" class="edge"><title>n3&#45;&gt;n10</title>
<path fill="none" stroke="#00cd00" d="M155.709,-89.7757C149.172,-83.4501 141.417,-75.8897 134.5,-69 126.193,-60.7258 117.188,-51.5875 109.192,-43.4112"/>
<polygon fill="#00cd00" stroke="#00cd00" points="111.669,-40.9384 102.18,-36.2253 106.659,-45.827 111.669,-40.9384"/>
<text text-anchor="middle" x="160.5" y="-57.8" font-family="Times New Roman,serif" font-size="14.00">definition</text>
</g>
<!-- n5 -->
<g id="node5" class="node"><title>n5</title>
<ellipse fill="blue" stroke="black" cx="347.5" cy="-105" rx="27" ry="18"/>
<text text-anchor="middle" x="347.5" y="-101.3" font-family="Times New Roman,serif" font-size="14.00" fill="white">H&#45;2</text>
</g>
<!-- n5&#45;&gt;n4 -->
<g id="edge8" class="edge"><title>n5&#45;&gt;n4</title>
<path fill="none" stroke="black" d="M369.076,-93.8899C383.46,-87.0577 402.732,-77.725 419.5,-69 436.466,-60.1718 454.972,-49.9886 470.768,-41.1252"/>
<polygon fill="black" stroke="black" points="472.728,-44.0379 479.722,-36.0794 469.292,-37.9395 472.728,-44.0379"/>
<text text-anchor="middle" x="456" y="-57.8" font-family="Times New Roman,serif" font-size="14.00">is a</text>
</g>
<!-- n5&#45;&gt;n5 -->
<g id="edge5" class="edge"><title>n5&#45;&gt;n5</title>
<path fill="none" stroke="#00cd00" d="M372.032,-112.752C383.008,-113.49 392.5,-110.906 392.5,-105 392.5,-101.032 388.215,-98.5632 382.074,-97.5944"/>
<polygon fill="#00cd00" stroke="#00cd00" points="382.147,-94.0949 372.032,-97.248 381.906,-101.091 382.147,-94.0949"/>
<text text-anchor="middle" x="436" y="-101.3" font-family="Times New Roman,serif" font-size="14.00">uniqueIdentifier</text>
</g>
<!-- n6 -->
<g id="node6" class="node"><title>n6</title>
<polygon fill="none" stroke="black" points="447.5,-36 301.5,-36 301.5,-0 447.5,-0 447.5,-36"/>
<text text-anchor="middle" x="374.5" y="-14.3" font-family="Times New Roman,serif" font-size="14.00">Park Exceeds Capacity</text>
</g>
<!-- n5&#45;&gt;n6 -->
<g id="edge6" class="edge"><title>n5&#45;&gt;n6</title>
<path fill="none" stroke="#00cd00" d="M352.834,-87.2067C356.582,-75.4091 361.674,-59.3781 365.98,-45.8221"/>
<polygon fill="#00cd00" stroke="#00cd00" points="369.393,-46.6397 369.084,-36.0493 362.721,-44.5204 369.393,-46.6397"/>
<text text-anchor="middle" x="389.5" y="-57.8" font-family="Times New Roman,serif" font-size="14.00">definition</text>
</g>
<!-- n5&#45;&gt;n7 -->
<g id="edge7" class="edge"><title>n5&#45;&gt;n7</title>
<path fill="none" stroke="#00cd00" d="M326.225,-93.8349C321.395,-91.5605 316.28,-89.1776 311.5,-87 293.389,-78.7503 287.092,-79.9891 270.5,-69 259.459,-61.6875 248.585,-51.9943 239.588,-43.0903"/>
<polygon fill="#00cd00" stroke="#00cd00" points="242.008,-40.5592 232.509,-35.8662 237.008,-45.4584 242.008,-40.5592"/>
<text text-anchor="middle" x="289.5" y="-57.8" font-family="Times New Roman,serif" font-size="14.00">source</text>
</g>
<!-- n8 -->
<g id="node8" class="node"><title>n8</title>
<ellipse fill="blue" stroke="black" cx="601.5" cy="-192" rx="31.3957" ry="18"/>
<text text-anchor="middle" x="601.5" y="-188.3" font-family="Times New Roman,serif" font-size="14.00" fill="white">H&#45;1.2</text>
</g>
<!-- n8&#45;&gt;n3 -->
<g id="edge11" class="edge"><title>n8&#45;&gt;n3</title>
<path fill="none" stroke="#00cd00" d="M572.214,-185.224C495.539,-170.103 289.102,-129.39 205.937,-112.989"/>
<polygon fill="#00cd00" stroke="#00cd00" points="206.451,-109.523 195.962,-111.022 205.096,-116.39 206.451,-109.523"/>
<text text-anchor="middle" x="431.5" y="-144.8" font-family="Times New Roman,serif" font-size="14.00">source</text>
</g>
<!-- n8&#45;&gt;n4 -->
<g id="edge12" class="edge"><title>n8&#45;&gt;n4</title>
<path fill="none" stroke="black" d="M593.042,-174.451C579.774,-148.597 553.139,-97.1159 529.5,-54 527.885,-51.0544 526.173,-47.9829 524.456,-44.9363"/>
<polygon fill="black" stroke="black" points="527.372,-42.9847 519.387,-36.022 521.287,-46.445 527.372,-42.9847"/>
<text text-anchor="middle" x="575" y="-101.3" font-family="Times New Roman,serif" font-size="14.00">is a</text>
</g>
<!-- n8&#45;&gt;n8 -->
<g id="edge9" class="edge"><title>n8&#45;&gt;n8</title>
<path fill="none" stroke="#00cd00" d="M629.811,-199.827C641.166,-200.269 650.697,-197.66 650.697,-192 650.697,-188.197 646.395,-185.772 640.128,-184.723"/>
<polygon fill="#00cd00" stroke="#00cd00" points="639.984,-181.211 629.811,-184.173 639.611,-188.201 639.984,-181.211"/>
<text text-anchor="middle" x="694.197" y="-188.3" font-family="Times New Roman,serif" font-size="14.00">uniqueIdentifier</text>
</g>
<!-- n9 -->
<g id="node9" class="node"><title>n9</title>
<polygon fill="none" stroke="black" points="758,-123 639,-123 639,-87 758,-87 758,-123"/>
<text text-anchor="middle" x="698.5" y="-101.3" font-family="Times New Roman,serif" font-size="14.00">Integer Over Flow</text>
</g>
<!-- n8&#45;&gt;n9 -->
<g id="edge10" class="edge"><title>n8&#45;&gt;n9</title>
<path fill="none" stroke="#00cd00" d="M617.955,-176.581C632.579,-163.766 654.24,-144.785 671.416,-129.733"/>
<polygon fill="#00cd00" stroke="#00cd00" points="673.737,-132.354 678.951,-123.131 669.123,-127.089 673.737,-132.354"/>
<text text-anchor="middle" x="681.5" y="-144.8" font-family="Times New Roman,serif" font-size="14.00">definition</text>
</g>
</g>
</svg>
