<?xml version="1.0" encoding="UTF-8" standalone="no"?>
<!DOCTYPE svg PUBLIC "-//W3C//DTD SVG 1.1//EN"
 "http://www.w3.org/Graphics/SVG/1.1/DTD/svg11.dtd">
<!-- Generated by graphviz version 2.38.0 (20140413.2041)
 -->
<!-- Title: gha Pages: 1 -->
<svg width="766pt" height="241pt"
 viewBox="0.00 0.00 766.00 241.00" xmlns="http://www.w3.org/2000/svg" xmlns:xlink="http://www.w3.org/1999/xlink">
<g id="graph0" class="graph" transform="scale(1 1) rotate(0) translate(4 237)">
<title>gha</title>
<polygon fill="white" stroke="none" points="-4,4 -4,-237 762,-237 762,4 -4,4"/>
<text text-anchor="middle" x="83.5" y="-217.8" font-family="Times New Roman,serif" font-size="14.00">Graph of Ontology File: ha</text>
<!-- n1 -->
<g id="node1" class="node"><title>n1</title>
<ellipse fill="blue" stroke="black" cx="170.5" cy="-192" rx="31.3957" ry="18"/>
<text text-anchor="middle" x="170.5" y="-188.3" font-family="Times New Roman,serif" font-size="14.00" fill="white">H&#45;1.1</text>
</g>
<!-- n1&#45;&gt;n1 -->
<g id="edge1" class="edge"><title>n1&#45;&gt;n1</title>
<path fill="none" stroke="#00cd00" d="M198.811,-199.827C210.166,-200.269 219.697,-197.66 219.697,-192 219.697,-188.197 215.395,-185.772 209.128,-184.723"/>
<polygon fill="#00cd00" stroke="#00cd00" points="208.984,-181.211 198.811,-184.173 208.611,-188.201 208.984,-181.211"/>
<text text-anchor="middle" x="263.197" y="-188.3" font-family="Times New Roman,serif" font-size="14.00">uniqueIdentifier</text>
</g>
<!-- n2 -->
<g id="node2" class="node"><title>n2</title>
<polygon fill="none" stroke="black" points="125,-123 0,-123 0,-87 125,-87 125,-123"/>
<text text-anchor="middle" x="62.5" y="-101.3" font-family="Times New Roman,serif" font-size="14.00">Integer Under Flow</text>
</g>
<!-- n1&#45;&gt;n2 -->
<g id="edge2" class="edge"><title>n1&#45;&gt;n2</title>
<path fill="none" stroke="#00cd00" d="M148.796,-178.865C138.117,-172.541 125.26,-164.389 114.5,-156 104.569,-148.257 94.4174,-138.884 85.7505,-130.355"/>
<polygon fill="#00cd00" stroke="#00cd00" points="88.0973,-127.751 78.5591,-123.139 83.1392,-132.693 88.0973,-127.751"/>
<text text-anchor="middle" x="140.5" y="-144.8" font-family="Times New Roman,serif" font-size="14.00">definition</text>
</g>
<!-- n3 -->
<g id="node3" class="node"><title>n3</title>
<ellipse fill="blue" stroke="black" cx="170.5" cy="-105" rx="27" ry="18"/>
<text text-anchor="middle" x="170.5" y="-101.3" font-family="Times New Roman,serif" font-size="14.00" fill="white">H&#45;1</text>
</g>
<!-- n1&#45;&gt;n3 -->
<g id="edge3" class="edge"><title>n1&#45;&gt;n3</title>
<path fill="none" stroke="#00cd00" d="M170.5,-173.799C170.5,-162.163 170.5,-146.548 170.5,-133.237"/>
<polygon fill="#00cd00" stroke="#00cd00" points="174,-133.175 170.5,-123.175 167,-133.175 174,-133.175"/>
<text text-anchor="middle" x="189.5" y="-144.8" font-family="Times New Roman,serif" font-size="14.00">source</text>
</g>
<!-- n4 -->
<g id="node4" class="node"><title>n4</title>
<g id="a_node4"><a xlink:href="file:///C:/sadl/git/RACK/RACK-Ontology/Graphs/HAZARD.owl.svg" xlink:title="H:HAZARD">
<polygon fill="#00008b" stroke="black" points="553.5,-36 467.5,-36 467.5,-0 553.5,-0 553.5,-36"/>
<text text-anchor="middle" x="510.5" y="-14.3" font-family="Times New Roman,serif" font-size="14.00" fill="white">H:HAZARD</text>
</a>
</g>
</g>
<!-- n1&#45;&gt;n4 -->
<g id="edge4" class="edge"><title>n1&#45;&gt;n4</title>
<path fill="none" stroke="black" d="M201.336,-188.611C273.083,-182.414 448.175,-163.414 488.5,-123 508.395,-103.061 512.388,-69.9307 512.368,-46.4254"/>
<polygon fill="black" stroke="black" points="515.866,-46.2951 512.119,-36.3849 508.868,-46.4686 515.866,-46.2951"/>
<text text-anchor="middle" x="517" y="-101.3" font-family="Times New Roman,serif" font-size="14.00">is a</text>
</g>
<!-- n3&#45;&gt;n3 -->
<g id="edge13" class="edge"><title>n3&#45;&gt;n3</title>
<path fill="none" stroke="#00cd00" d="M195.032,-112.752C206.008,-113.49 215.5,-110.906 215.5,-105 215.5,-101.032 211.215,-98.5632 205.074,-97.5944"/>
<polygon fill="#00cd00" stroke="#00cd00" points="205.147,-94.0949 195.032,-97.248 204.906,-101.091 205.147,-94.0949"/>
<text text-anchor="middle" x="259" y="-101.3" font-family="Times New Roman,serif" font-size="14.00">uniqueIdentifier</text>
</g>
<!-- n3&#45;&gt;n4 -->
<g id="edge16" class="edge"><title>n3&#45;&gt;n4</title>
<path fill="none" stroke="black" d="M195.741,-98.3286C222.171,-92.13 264.727,-81.4109 300.5,-69 316.489,-63.4528 319.226,-58.6467 335.5,-54 386.512,-39.4342 401.735,-47.609 453.5,-36 454.775,-35.714 456.064,-35.4147 457.361,-35.1042"/>
<polygon fill="black" stroke="black" points="458.584,-38.4042 467.406,-32.5364 456.85,-31.6223 458.584,-38.4042"/>
<text text-anchor="middle" x="345" y="-57.8" font-family="Times New Roman,serif" font-size="14.00">is a</text>
</g>
<!-- n7 -->
<g id="node7" class="node"><title>n7</title>
<g id="a_node7"><a xlink:href="file:///C:/sadl/git/RACK/RACK-Ontology/Graphs/Turnstiles.owl.svg" xlink:title="null:Turnstiles">
<ellipse fill="blue" stroke="black" cx="219.5" cy="-18" rx="61.1893" ry="18"/>
<text text-anchor="middle" x="219.5" y="-14.3" font-family="Times New Roman,serif" font-size="14.00" fill="white">null:Turnstiles</text>
</a>
</g>
</g>
<!-- n3&#45;&gt;n7 -->
<g id="edge15" class="edge"><title>n3&#45;&gt;n7</title>
<path fill="none" stroke="#00cd00" d="M177.589,-87.4169C182.041,-77.5007 188.13,-64.7754 194.5,-54 196.438,-50.7217 198.596,-47.3604 200.809,-44.0795"/>
<polygon fill="#00cd00" stroke="#00cd00" points="203.813,-45.8923 206.685,-35.6941 198.08,-41.8753 203.813,-45.8923"/>
<text text-anchor="middle" x="213.5" y="-57.8" font-family="Times New Roman,serif" font-size="14.00">source</text>
</g>
<!-- n10 -->
<g id="node10" class="node"><title>n10</title>
<polygon fill="none" stroke="black" points="140,-36 45,-36 45,-0 140,-0 140,-36"/>
<text text-anchor="middle" x="92.5" y="-14.3" font-family="Times New Roman,serif" font-size="14.00">System Crash</text>
</g>
<!-- n3&#45;&gt;n10 -->
<g id="edge14" class="edge"><title>n3&#45;&gt;n10</title>
<path fill="none" stroke="#00cd00" d="M153.857,-90.7388C146.395,-84.4721 137.678,-76.6904 130.5,-69 123.433,-61.4278 116.378,-52.59 110.299,-44.4688"/>
<polygon fill="#00cd00" stroke="#00cd00" points="113.087,-42.3525 104.358,-36.3481 107.438,-46.4855 113.087,-42.3525"/>
<text text-anchor="middle" x="156.5" y="-57.8" font-family="Times New Roman,serif" font-size="14.00">definition</text>
</g>
<!-- n5 -->
<g id="node5" class="node"><title>n5</title>
<ellipse fill="blue" stroke="black" cx="347.5" cy="-105" rx="27" ry="18"/>
<text text-anchor="middle" x="347.5" y="-101.3" font-family="Times New Roman,serif" font-size="14.00" fill="white">H&#45;2</text>
</g>
<!-- n5&#45;&gt;n4 -->
<g id="edge8" class="edge"><title>n5&#45;&gt;n4</title>
<path fill="none" stroke="black" d="M368.719,-93.5944C382.641,-86.7168 401.217,-77.4455 417.5,-69 434.776,-60.0395 453.717,-49.912 469.971,-41.1263"/>
<polygon fill="black" stroke="black" points="472.073,-43.9685 479.198,-36.1275 468.738,-37.8137 472.073,-43.9685"/>
<text text-anchor="middle" x="455" y="-57.8" font-family="Times New Roman,serif" font-size="14.00">is a</text>
</g>
<!-- n5&#45;&gt;n5 -->
<g id="edge5" class="edge"><title>n5&#45;&gt;n5</title>
<path fill="none" stroke="#00cd00" d="M372.032,-112.752C383.008,-113.49 392.5,-110.906 392.5,-105 392.5,-101.032 388.215,-98.5632 382.074,-97.5944"/>
<polygon fill="#00cd00" stroke="#00cd00" points="382.147,-94.0949 372.032,-97.248 381.906,-101.091 382.147,-94.0949"/>
<text text-anchor="middle" x="436" y="-101.3" font-family="Times New Roman,serif" font-size="14.00">uniqueIdentifier</text>
</g>
<!-- n6 -->
<g id="node6" class="node"><title>n6</title>
<polygon fill="none" stroke="black" points="444.5,-36 298.5,-36 298.5,-0 444.5,-0 444.5,-36"/>
<text text-anchor="middle" x="371.5" y="-14.3" font-family="Times New Roman,serif" font-size="14.00">Park Exceeds Capacity</text>
</g>
<!-- n5&#45;&gt;n6 -->
<g id="edge6" class="edge"><title>n5&#45;&gt;n6</title>
<path fill="none" stroke="#00cd00" d="M352.242,-87.2067C355.573,-75.4091 360.099,-59.3781 363.927,-45.8221"/>
<polygon fill="#00cd00" stroke="#00cd00" points="367.337,-46.6241 366.686,-36.0493 360.6,-44.722 367.337,-46.6241"/>
<text text-anchor="middle" x="387.5" y="-57.8" font-family="Times New Roman,serif" font-size="14.00">definition</text>
</g>
<!-- n5&#45;&gt;n7 -->
<g id="edge7" class="edge"><title>n5&#45;&gt;n7</title>
<path fill="none" stroke="#00cd00" d="M326.321,-93.6149C321.486,-91.3519 316.345,-89.0292 311.5,-87 290.1,-78.0377 281.566,-82.2202 262.5,-69 252.803,-62.2763 243.945,-52.8625 236.821,-44.0144"/>
<polygon fill="#00cd00" stroke="#00cd00" points="239.405,-41.6313 230.552,-35.8107 233.843,-45.8815 239.405,-41.6313"/>
<text text-anchor="middle" x="281.5" y="-57.8" font-family="Times New Roman,serif" font-size="14.00">source</text>
</g>
<!-- n8 -->
<g id="node8" class="node"><title>n8</title>
<ellipse fill="blue" stroke="black" cx="601.5" cy="-192" rx="31.3957" ry="18"/>
<text text-anchor="middle" x="601.5" y="-188.3" font-family="Times New Roman,serif" font-size="14.00" fill="white">H&#45;1.2</text>
</g>
<!-- n8&#45;&gt;n3 -->
<g id="edge11" class="edge"><title>n8&#45;&gt;n3</title>
<path fill="none" stroke="#00cd00" d="M572.214,-185.224C495.539,-170.103 289.102,-129.39 205.937,-112.989"/>
<polygon fill="#00cd00" stroke="#00cd00" points="206.451,-109.523 195.962,-111.022 205.096,-116.39 206.451,-109.523"/>
<text text-anchor="middle" x="431.5" y="-144.8" font-family="Times New Roman,serif" font-size="14.00">source</text>
</g>
<!-- n8&#45;&gt;n4 -->
<g id="edge12" class="edge"><title>n8&#45;&gt;n4</title>
<path fill="none" stroke="black" d="M592.927,-174.513C579.505,-148.742 552.668,-97.371 529.5,-54 527.936,-51.0727 526.291,-48.0127 524.65,-44.9727"/>
<polygon fill="black" stroke="black" points="527.665,-43.19 519.823,-36.065 521.51,-46.5248 527.665,-43.19"/>
<text text-anchor="middle" x="575" y="-101.3" font-family="Times New Roman,serif" font-size="14.00">is a</text>
</g>
<!-- n8&#45;&gt;n8 -->
<g id="edge9" class="edge"><title>n8&#45;&gt;n8</title>
<path fill="none" stroke="#00cd00" d="M629.811,-199.827C641.166,-200.269 650.697,-197.66 650.697,-192 650.697,-188.197 646.395,-185.772 640.128,-184.723"/>
<polygon fill="#00cd00" stroke="#00cd00" points="639.984,-181.211 629.811,-184.173 639.611,-188.201 639.984,-181.211"/>
<text text-anchor="middle" x="694.197" y="-188.3" font-family="Times New Roman,serif" font-size="14.00">uniqueIdentifier</text>
</g>
<!-- n9 -->
<g id="node9" class="node"><title>n9</title>
<polygon fill="none" stroke="black" points="758,-123 639,-123 639,-87 758,-87 758,-123"/>
<text text-anchor="middle" x="698.5" y="-101.3" font-family="Times New Roman,serif" font-size="14.00">Integer Over Flow</text>
</g>
<!-- n8&#45;&gt;n9 -->
<g id="edge10" class="edge"><title>n8&#45;&gt;n9</title>
<path fill="none" stroke="#00cd00" d="M617.955,-176.581C632.579,-163.766 654.24,-144.785 671.416,-129.733"/>
<polygon fill="#00cd00" stroke="#00cd00" points="673.737,-132.354 678.951,-123.131 669.123,-127.089 673.737,-132.354"/>
<text text-anchor="middle" x="681.5" y="-144.8" font-family="Times New Roman,serif" font-size="14.00">definition</text>
</g>
</g>
</svg>
