<?xml version="1.0" encoding="UTF-8" standalone="no"?>
<!DOCTYPE svg PUBLIC "-//W3C//DTD SVG 1.1//EN"
 "http://www.w3.org/Graphics/SVG/1.1/DTD/svg11.dtd">
<!-- Generated by graphviz version 2.38.0 (20140413.2041)
 -->
<!-- Title: gH Pages: 1 -->
<svg width="807pt" height="241pt"
 viewBox="0.00 0.00 806.79 241.00" xmlns="http://www.w3.org/2000/svg" xmlns:xlink="http://www.w3.org/1999/xlink">
<g id="graph0" class="graph" transform="scale(1 1) rotate(0) translate(4 237)">
<title>gH</title>
<polygon fill="white" stroke="none" points="-4,4 -4,-237 802.786,-237 802.786,4 -4,4"/>
<text text-anchor="middle" x="82" y="-217.8" font-family="Times New Roman,serif" font-size="14.00">Graph of Ontology File: H</text>
<!-- n1 -->
<g id="node1" class="node"><title>n1</title>
<ellipse fill="blue" stroke="black" cx="104.117" cy="-192" rx="35.194" ry="18"/>
<text text-anchor="middle" x="104.117" y="-188.3" font-family="Times New Roman,serif" font-size="14.00" fill="white">source</text>
</g>
<!-- n2 -->
<g id="node2" class="node"><title>n2</title>
<g id="a_node2"><a xlink:href="file:///C:/sadl/git/RACK/RACK-Ontology/Graphs/PROV-S.owl.svg" xlink:title="provs:wasDerivedFrom">
<polygon fill="none" stroke="#00cd00" points="208.351,-97.5442 208.351,-112.456 147.292,-123 60.9418,-123 -0.117023,-112.456 -0.117023,-97.5442 60.9418,-87 147.292,-87 208.351,-97.5442"/>
<text text-anchor="middle" x="104.117" y="-101.3" font-family="Times New Roman,serif" font-size="14.00">provs:wasDerivedFrom</text>
</a>
</g>
</g>
<!-- n1&#45;&gt;n2 -->
<g id="edge1" class="edge"><title>n1&#45;&gt;n2</title>
<path fill="none" stroke="#00cd00" d="M104.117,-173.799C104.117,-162.163 104.117,-146.548 104.117,-133.237"/>
<polygon fill="#00cd00" stroke="#00cd00" points="107.617,-133.175 104.117,-123.175 100.617,-133.175 107.617,-133.175"/>
<text text-anchor="middle" x="146.617" y="-144.8" font-family="Times New Roman,serif" font-size="14.00">subPropertyOf</text>
</g>
<!-- n3 -->
<g id="node3" class="node"><title>n3</title>
<g id="a_node3"><a xlink:href="file:///C:/sadl/git/RACK/RACK-Ontology/Graphs/PROV-S.owl.svg" xlink:title="provs:ENTITY">
<polygon fill="#00008b" stroke="black" points="313.117,-210 211.117,-210 211.117,-174 313.117,-174 313.117,-210"/>
<text text-anchor="middle" x="262.117" y="-188.3" font-family="Times New Roman,serif" font-size="14.00" fill="white">provs:ENTITY</text>
</a>
</g>
</g>
<!-- n4 -->
<g id="node4" class="node"><title>n4</title>
<polygon fill="#00008b" stroke="black" points="324.117,-123 250.117,-123 250.117,-87 324.117,-87 324.117,-123"/>
<text text-anchor="middle" x="287.117" y="-101.3" font-family="Times New Roman,serif" font-size="14.00" fill="white">HAZARD</text>
</g>
<!-- n3&#45;&gt;n4 -->
<g id="edge2" class="edge"><title>n3&#45;&gt;n4</title>
<path fill="none" stroke="blue" stroke-dasharray="5,2" d="M245.541,-173.76C238.293,-164.069 232.565,-151.788 238.117,-141 240.219,-136.916 243.042,-133.202 246.278,-129.853"/>
<polygon fill="blue" stroke="blue" points="248.737,-132.351 253.901,-123.099 244.095,-127.112 248.737,-132.351"/>
<text text-anchor="middle" x="264.117" y="-144.8" font-family="Times New Roman,serif" font-size="14.00">subClass</text>
</g>
<!-- n4&#45;&gt;n3 -->
<g id="edge6" class="edge"><title>n4&#45;&gt;n3</title>
<path fill="none" stroke="#00cd00" d="M291.38,-123.122C293.051,-132.996 293.801,-145.496 290.117,-156 288.948,-159.332 287.314,-162.582 285.416,-165.675"/>
<polygon fill="#00cd00" stroke="#00cd00" points="282.498,-163.74 279.537,-173.912 288.195,-167.806 282.498,-163.74"/>
<text text-anchor="middle" x="312.117" y="-144.8" font-family="Times New Roman,serif" font-size="14.00">source</text>
</g>
<!-- n10 -->
<g id="node10" class="node"><title>n10</title>
<g id="a_node10"><a xlink:href="file:///C:/sadl/git/RACK/RACK-Ontology/Graphs/XMLSchema.svg" xlink:title="xsd:string">
<polygon fill="#00008b" stroke="black" points="314.617,-36 243.617,-36 243.617,-0 314.617,-0 314.617,-36"/>
<text text-anchor="middle" x="279.117" y="-14.3" font-family="Times New Roman,serif" font-size="14.00" fill="white">xsd:string</text>
</a>
</g>
</g>
<!-- n4&#45;&gt;n10 -->
<g id="edge7" class="edge"><title>n4&#45;&gt;n10</title>
<path fill="none" stroke="#00cd00" d="M257.023,-86.8259C251.011,-81.8931 245.509,-75.9349 242.117,-69 237.776,-60.1238 241.265,-51.2052 247.541,-43.4084"/>
<polygon fill="#00cd00" stroke="#00cd00" points="250.204,-45.6869 254.559,-36.0287 245.132,-40.8628 250.204,-45.6869"/>
<text text-anchor="middle" x="268.117" y="-57.8" font-family="Times New Roman,serif" font-size="14.00">definition</text>
</g>
<!-- n4&#45;&gt;n10 -->
<g id="edge8" class="edge"><title>n4&#45;&gt;n10</title>
<path fill="none" stroke="#00cd00" d="M292.417,-86.7836C294.676,-77.1001 296.337,-64.8186 294.117,-54 293.563,-51.3004 292.791,-48.5518 291.888,-45.8419"/>
<polygon fill="#00cd00" stroke="#00cd00" points="295.083,-44.4005 288.192,-36.3529 288.56,-46.9413 295.083,-44.4005"/>
<text text-anchor="middle" x="339.617" y="-57.8" font-family="Times New Roman,serif" font-size="14.00">uniqueIdentifier</text>
</g>
<!-- n5 -->
<g id="node5" class="node"><title>n5</title>
<g id="a_node5"><a xlink:href="file:///C:/sadl/git/RACK/RACK-Ontology/Graphs/PROV-S.owl.svg" xlink:title="provs:ACTIVITY">
<polygon fill="#00008b" stroke="black" points="514.117,-210 396.117,-210 396.117,-174 514.117,-174 514.117,-210"/>
<text text-anchor="middle" x="455.117" y="-188.3" font-family="Times New Roman,serif" font-size="14.00" fill="white">provs:ACTIVITY</text>
</a>
</g>
</g>
<!-- n6 -->
<g id="node6" class="node"><title>n6</title>
<polygon fill="#00008b" stroke="black" points="551.617,-123 358.617,-123 358.617,-87 551.617,-87 551.617,-123"/>
<text text-anchor="middle" x="455.117" y="-101.3" font-family="Times New Roman,serif" font-size="14.00" fill="white">HAZARD_IDENTIFICATION</text>
</g>
<!-- n5&#45;&gt;n6 -->
<g id="edge3" class="edge"><title>n5&#45;&gt;n6</title>
<path fill="none" stroke="blue" stroke-dasharray="5,2" d="M455.117,-173.799C455.117,-162.163 455.117,-146.548 455.117,-133.237"/>
<polygon fill="blue" stroke="blue" points="458.617,-133.175 455.117,-123.175 451.617,-133.175 458.617,-133.175"/>
<text text-anchor="middle" x="481.117" y="-144.8" font-family="Times New Roman,serif" font-size="14.00">subClass</text>
</g>
<!-- n9 -->
<g id="node9" class="node"><title>n9</title>
<g id="a_node9"><a xlink:href="file:///C:/sadl/git/RACK/RACK-Ontology/Graphs/PROV-S.owl.svg" xlink:title="provs:AGENT">
<polygon fill="#00008b" stroke="black" points="504.617,-36 405.617,-36 405.617,-0 504.617,-0 504.617,-36"/>
<text text-anchor="middle" x="455.117" y="-14.3" font-family="Times New Roman,serif" font-size="14.00" fill="white">provs:AGENT</text>
</a>
</g>
</g>
<!-- n6&#45;&gt;n9 -->
<g id="edge5" class="edge"><title>n6&#45;&gt;n9</title>
<path fill="none" stroke="#00cd00" d="M455.117,-86.799C455.117,-75.1626 455.117,-59.5479 455.117,-46.2368"/>
<polygon fill="#00cd00" stroke="#00cd00" points="458.617,-46.1754 455.117,-36.1754 451.617,-46.1755 458.617,-46.1754"/>
<text text-anchor="middle" x="473.117" y="-57.8" font-family="Times New Roman,serif" font-size="14.00">author</text>
</g>
<!-- n7 -->
<g id="node7" class="node"><title>n7</title>
<ellipse fill="blue" stroke="black" cx="684.117" cy="-192" rx="33.5952" ry="18"/>
<text text-anchor="middle" x="684.117" y="-188.3" font-family="Times New Roman,serif" font-size="14.00" fill="white">author</text>
</g>
<!-- n8 -->
<g id="node8" class="node"><title>n8</title>
<g id="a_node8"><a xlink:href="file:///C:/sadl/git/RACK/RACK-Ontology/Graphs/PROV-S.owl.svg" xlink:title="provs:wasAssociatedWith">
<polygon fill="none" stroke="#00cd00" points="798.956,-97.5442 798.956,-112.456 731.685,-123 636.549,-123 569.278,-112.456 569.278,-97.5442 636.549,-87 731.685,-87 798.956,-97.5442"/>
<text text-anchor="middle" x="684.117" y="-101.3" font-family="Times New Roman,serif" font-size="14.00">provs:wasAssociatedWith</text>
</a>
</g>
</g>
<!-- n7&#45;&gt;n8 -->
<g id="edge4" class="edge"><title>n7&#45;&gt;n8</title>
<path fill="none" stroke="#00cd00" d="M684.117,-173.799C684.117,-162.163 684.117,-146.548 684.117,-133.237"/>
<polygon fill="#00cd00" stroke="#00cd00" points="687.617,-133.175 684.117,-123.175 680.617,-133.175 687.617,-133.175"/>
<text text-anchor="middle" x="726.617" y="-144.8" font-family="Times New Roman,serif" font-size="14.00">subPropertyOf</text>
</g>
</g>
</svg>
