<?xml version="1.0" encoding="UTF-8" standalone="no"?>
<!DOCTYPE svg PUBLIC "-//W3C//DTD SVG 1.1//EN"
 "http://www.w3.org/Graphics/SVG/1.1/DTD/svg11.dtd">
<!-- Generated by graphviz version 2.38.0 (20140413.2041)
 -->
<!-- Title: gH Pages: 1 -->
<svg width="1351pt" height="328pt"
 viewBox="0.00 0.00 1350.57 328.00" xmlns="http://www.w3.org/2000/svg" xmlns:xlink="http://www.w3.org/1999/xlink">
<g id="graph0" class="graph" transform="scale(1 1) rotate(0) translate(4 324)">
<title>gH</title>
<polygon fill="white" stroke="none" points="-4,4 -4,-324 1346.57,-324 1346.57,4 -4,4"/>
<text text-anchor="middle" x="82" y="-304.8" font-family="Times New Roman,serif" font-size="14.00">Graph of Ontology File: H</text>
<!-- n1 -->
<g id="node1" class="node"><title>n1</title>
<ellipse fill="blue" stroke="black" cx="99.8959" cy="-279" rx="35.194" ry="18"/>
<text text-anchor="middle" x="99.8959" y="-275.3" font-family="Times New Roman,serif" font-size="14.00" fill="white">source</text>
</g>
<!-- n2 -->
<g id="node2" class="node"><title>n2</title>
<g id="a_node2"><a xlink:href="file:///C:/Users/200001866/Documents/GitHub/RACK/RACK-Ontology/Graphs/PROV-S.owl.svg" xlink:title="provs:wasImpactedBy">
<polygon fill="none" stroke="#00cd00" points="199.688,-184.544 199.688,-199.456 141.231,-210 58.5607,-210 0.103955,-199.456 0.103955,-184.544 58.5607,-174 141.231,-174 199.688,-184.544"/>
<text text-anchor="middle" x="99.8959" y="-188.3" font-family="Times New Roman,serif" font-size="14.00">provs:wasImpactedBy</text>
</a>
</g>
</g>
<!-- n1&#45;&gt;n2 -->
<g id="edge1" class="edge"><title>n1&#45;&gt;n2</title>
<path fill="none" stroke="#00cd00" d="M99.8959,-260.799C99.8959,-249.163 99.8959,-233.548 99.8959,-220.237"/>
<polygon fill="#00cd00" stroke="#00cd00" points="103.396,-220.175 99.8959,-210.175 96.396,-220.175 103.396,-220.175"/>
<text text-anchor="middle" x="142.396" y="-231.8" font-family="Times New Roman,serif" font-size="14.00">subPropertyOf</text>
</g>
<!-- n3 -->
<g id="node3" class="node"><title>n3</title>
<g id="a_node3"><a xlink:href="file:///C:/Users/200001866/Documents/GitHub/RACK/RACK-Ontology/Graphs/PROV-S.owl.svg" xlink:title="provs:ENTITY">
<polygon fill="#00008b" stroke="black" points="254.896,-297 152.896,-297 152.896,-261 254.896,-261 254.896,-297"/>
<text text-anchor="middle" x="203.896" y="-275.3" font-family="Times New Roman,serif" font-size="14.00" fill="white">provs:ENTITY</text>
</a>
</g>
</g>
<!-- n4 -->
<g id="node4" class="node"><title>n4</title>
<polygon fill="#00008b" stroke="black" points="585.896,-210 511.896,-210 511.896,-174 585.896,-174 585.896,-210"/>
<text text-anchor="middle" x="548.896" y="-188.3" font-family="Times New Roman,serif" font-size="14.00" fill="white">HAZARD</text>
</g>
<!-- n3&#45;&gt;n4 -->
<g id="edge2" class="edge"><title>n3&#45;&gt;n4</title>
<path fill="none" stroke="blue" stroke-dasharray="5,2" d="M254.942,-263.47C257.97,-262.629 260.972,-261.8 263.896,-261 319.317,-245.834 333.04,-241.476 388.896,-228 426.683,-218.883 469.739,-209.523 501.661,-202.779"/>
<polygon fill="blue" stroke="blue" points="502.549,-206.169 511.613,-200.684 501.107,-199.319 502.549,-206.169"/>
<text text-anchor="middle" x="414.896" y="-231.8" font-family="Times New Roman,serif" font-size="14.00">subClass</text>
</g>
<!-- n4&#45;&gt;n3 -->
<g id="edge13" class="edge"><title>n4&#45;&gt;n3</title>
<path fill="none" stroke="#00cd00" d="M511.666,-193.419C460.213,-195.015 365.09,-201.666 288.896,-228 270.229,-234.452 251.125,-245.242 235.769,-255.15"/>
<polygon fill="#00cd00" stroke="#00cd00" points="233.589,-252.397 227.192,-260.843 237.46,-258.229 233.589,-252.397"/>
<text text-anchor="middle" x="307.896" y="-231.8" font-family="Times New Roman,serif" font-size="14.00">source</text>
</g>
<!-- n10 -->
<g id="node10" class="node"><title>n10</title>
<polygon fill="#00008b" stroke="black" points="844.396,-123 651.396,-123 651.396,-87 844.396,-87 844.396,-123"/>
<text text-anchor="middle" x="747.896" y="-101.3" font-family="Times New Roman,serif" font-size="14.00" fill="white">HAZARD_IDENTIFICATION</text>
</g>
<!-- n4&#45;&gt;n10 -->
<g id="edge10" class="edge"><title>n4&#45;&gt;n10</title>
<path fill="none" stroke="#00cd00" d="M586.276,-180.403C606.847,-174.139 632.641,-165.57 654.896,-156 673.652,-147.935 693.691,-137.423 710.346,-128.121"/>
<polygon fill="#00cd00" stroke="#00cd00" points="712.241,-131.07 719.221,-123.1 708.794,-124.978 712.241,-131.07"/>
<text text-anchor="middle" x="712.896" y="-144.8" font-family="Times New Roman,serif" font-size="14.00">identified</text>
</g>
<!-- n13 -->
<g id="node13" class="node"><title>n13</title>
<g id="a_node13"><a xlink:href="file:///C:/Users/200001866/Documents/GitHub/RACK/RACK-Ontology/Graphs/XMLSchema.svg" xlink:title="xsd:string">
<polygon fill="#00008b" stroke="black" points="492.396,-123 421.396,-123 421.396,-87 492.396,-87 492.396,-123"/>
<text text-anchor="middle" x="456.896" y="-101.3" font-family="Times New Roman,serif" font-size="14.00" fill="white">xsd:string</text>
</a>
</g>
</g>
<!-- n4&#45;&gt;n13 -->
<g id="edge9" class="edge"><title>n4&#45;&gt;n13</title>
<path fill="none" stroke="#00cd00" d="M511.875,-185.993C477.856,-180.544 431.068,-170.608 419.896,-156 413.567,-147.725 417.262,-138.587 424.325,-130.411"/>
<polygon fill="#00cd00" stroke="#00cd00" points="426.934,-132.753 431.567,-123.225 422.004,-127.784 426.934,-132.753"/>
<text text-anchor="middle" x="435.896" y="-144.8" font-family="Times New Roman,serif" font-size="14.00">effect</text>
</g>
<!-- n4&#45;&gt;n13 -->
<g id="edge14" class="edge"><title>n4&#45;&gt;n13</title>
<path fill="none" stroke="#00cd00" d="M515.897,-173.888C507.575,-168.754 498.997,-162.687 491.896,-156 484.339,-148.883 477.44,-139.891 471.802,-131.501"/>
<polygon fill="#00cd00" stroke="#00cd00" points="474.749,-129.613 466.409,-123.079 468.854,-133.388 474.749,-129.613"/>
<text text-anchor="middle" x="517.896" y="-144.8" font-family="Times New Roman,serif" font-size="14.00">definition</text>
</g>
<!-- n14 -->
<g id="node14" class="node"><title>n14</title>
<g id="a_node14"><a xlink:href="file:///C:/Users/200001866/Documents/GitHub/RACK/RACK-Ontology/Graphs/XMLSchema.svg" xlink:title="xsd:float">
<polygon fill="#00008b" stroke="black" points="597.396,-123 532.396,-123 532.396,-87 597.396,-87 597.396,-123"/>
<text text-anchor="middle" x="564.896" y="-101.3" font-family="Times New Roman,serif" font-size="14.00" fill="white">xsd:float</text>
</a>
</g>
</g>
<!-- n4&#45;&gt;n14 -->
<g id="edge11" class="edge"><title>n4&#45;&gt;n14</title>
<path fill="none" stroke="#00cd00" d="M547.623,-173.687C547.311,-163.973 547.589,-151.694 549.896,-141 550.51,-138.153 551.357,-135.248 552.339,-132.392"/>
<polygon fill="#00cd00" stroke="#00cd00" points="555.626,-133.597 556.052,-123.011 549.117,-131.021 555.626,-133.597"/>
<text text-anchor="middle" x="577.396" y="-144.8" font-family="Times New Roman,serif" font-size="14.00">likelihood</text>
</g>
<!-- n4&#45;&gt;n14 -->
<g id="edge16" class="edge"><title>n4&#45;&gt;n14</title>
<path fill="none" stroke="#00cd00" d="M586.18,-175.112C593.669,-170.126 600.561,-163.822 604.896,-156 609.827,-147.103 606.123,-138.179 599.327,-130.383"/>
<polygon fill="#00cd00" stroke="#00cd00" points="601.325,-127.446 591.705,-123.006 596.457,-132.476 601.325,-127.446"/>
<text text-anchor="middle" x="629.396" y="-144.8" font-family="Times New Roman,serif" font-size="14.00">severity</text>
</g>
<!-- n5 -->
<g id="node5" class="node"><title>n5</title>
<polygon fill="none" stroke="red" points="452.396,-297 273.396,-297 273.396,-261 452.396,-261 452.396,-297"/>
<text text-anchor="middle" x="362.896" y="-275.3" font-family="Times New Roman,serif" font-size="14.00">definition has at most 1 value</text>
</g>
<!-- n5&#45;&gt;n4 -->
<g id="edge3" class="edge"><title>n5&#45;&gt;n4</title>
<path fill="none" stroke="red" d="M400.536,-260.799C429.877,-247.39 470.777,-228.7 502.204,-214.338"/>
<polygon fill="red" stroke="red" points="503.989,-217.37 511.63,-210.03 501.08,-211.003 503.989,-217.37"/>
<text text-anchor="middle" x="490.396" y="-231.8" font-family="Times New Roman,serif" font-size="14.00">restricts</text>
</g>
<!-- n6 -->
<g id="node6" class="node"><title>n6</title>
<polygon fill="none" stroke="red" points="626.896,-297 470.896,-297 470.896,-261 626.896,-261 626.896,-297"/>
<text text-anchor="middle" x="548.896" y="-275.3" font-family="Times New Roman,serif" font-size="14.00">effect has exactly 1 value</text>
</g>
<!-- n6&#45;&gt;n4 -->
<g id="edge4" class="edge"><title>n6&#45;&gt;n4</title>
<path fill="none" stroke="red" d="M548.896,-260.799C548.896,-249.163 548.896,-233.548 548.896,-220.237"/>
<polygon fill="red" stroke="red" points="552.396,-220.175 548.896,-210.175 545.396,-220.175 552.396,-220.175"/>
<text text-anchor="middle" x="571.396" y="-231.8" font-family="Times New Roman,serif" font-size="14.00">restricts</text>
</g>
<!-- n7 -->
<g id="node7" class="node"><title>n7</title>
<polygon fill="none" stroke="red" points="812.396,-297 645.396,-297 645.396,-261 812.396,-261 812.396,-297"/>
<text text-anchor="middle" x="728.896" y="-275.3" font-family="Times New Roman,serif" font-size="14.00">severity has exactly 1 value</text>
</g>
<!-- n7&#45;&gt;n4 -->
<g id="edge5" class="edge"><title>n7&#45;&gt;n4</title>
<path fill="none" stroke="red" d="M692.47,-260.799C664.076,-247.39 624.495,-228.7 594.082,-214.338"/>
<polygon fill="red" stroke="red" points="595.497,-211.135 584.96,-210.03 592.508,-217.465 595.497,-211.135"/>
<text text-anchor="middle" x="672.396" y="-231.8" font-family="Times New Roman,serif" font-size="14.00">restricts</text>
</g>
<!-- n8 -->
<g id="node8" class="node"><title>n8</title>
<polygon fill="none" stroke="red" points="1009.4,-297 830.396,-297 830.396,-261 1009.4,-261 1009.4,-297"/>
<text text-anchor="middle" x="919.896" y="-275.3" font-family="Times New Roman,serif" font-size="14.00">likelihood has exactly 1 value</text>
</g>
<!-- n8&#45;&gt;n4 -->
<g id="edge6" class="edge"><title>n8&#45;&gt;n4</title>
<path fill="none" stroke="red" d="M845.265,-260.901C770.902,-243.864 658.992,-218.224 596.115,-203.818"/>
<polygon fill="red" stroke="red" points="596.614,-200.342 586.085,-201.52 595.051,-207.165 596.614,-200.342"/>
<text text-anchor="middle" x="779.396" y="-231.8" font-family="Times New Roman,serif" font-size="14.00">restricts</text>
</g>
<!-- n9 -->
<g id="node9" class="node"><title>n9</title>
<g id="a_node9"><a xlink:href="file:///C:/Users/200001866/Documents/GitHub/RACK/RACK-Ontology/Graphs/PROV-S.owl.svg" xlink:title="provs:ACTIVITY">
<polygon fill="#00008b" stroke="black" points="826.896,-210 708.896,-210 708.896,-174 826.896,-174 826.896,-210"/>
<text text-anchor="middle" x="767.896" y="-188.3" font-family="Times New Roman,serif" font-size="14.00" fill="white">provs:ACTIVITY</text>
</a>
</g>
</g>
<!-- n9&#45;&gt;n10 -->
<g id="edge7" class="edge"><title>n9&#45;&gt;n10</title>
<path fill="none" stroke="blue" stroke-dasharray="5,2" d="M763.849,-173.799C761.111,-162.163 757.437,-146.548 754.305,-133.237"/>
<polygon fill="blue" stroke="blue" points="757.635,-132.108 751.937,-123.175 750.821,-133.711 757.635,-132.108"/>
<text text-anchor="middle" x="785.896" y="-144.8" font-family="Times New Roman,serif" font-size="14.00">subClass</text>
</g>
<!-- n15 -->
<g id="node15" class="node"><title>n15</title>
<g id="a_node15"><a xlink:href="file:///C:/Users/200001866/Documents/GitHub/RACK/RACK-Ontology/Graphs/PROV-S.owl.svg" xlink:title="provs:AGENT">
<polygon fill="#00008b" stroke="black" points="797.396,-36 698.396,-36 698.396,-0 797.396,-0 797.396,-36"/>
<text text-anchor="middle" x="747.896" y="-14.3" font-family="Times New Roman,serif" font-size="14.00" fill="white">provs:AGENT</text>
</a>
</g>
</g>
<!-- n10&#45;&gt;n15 -->
<g id="edge12" class="edge"><title>n10&#45;&gt;n15</title>
<path fill="none" stroke="#00cd00" d="M747.896,-86.799C747.896,-75.1626 747.896,-59.5479 747.896,-46.2368"/>
<polygon fill="#00cd00" stroke="#00cd00" points="751.396,-46.1754 747.896,-36.1754 744.396,-46.1755 751.396,-46.1754"/>
<text text-anchor="middle" x="765.896" y="-57.8" font-family="Times New Roman,serif" font-size="14.00">author</text>
</g>
<!-- n11 -->
<g id="node11" class="node"><title>n11</title>
<ellipse fill="blue" stroke="black" cx="1227.9" cy="-279" rx="33.5952" ry="18"/>
<text text-anchor="middle" x="1227.9" y="-275.3" font-family="Times New Roman,serif" font-size="14.00" fill="white">author</text>
</g>
<!-- n12 -->
<g id="node12" class="node"><title>n12</title>
<g id="a_node12"><a xlink:href="file:///C:/Users/200001866/Documents/GitHub/RACK/RACK-Ontology/Graphs/PROV-S.owl.svg" xlink:title="provs:wasAssociatedWith">
<polygon fill="none" stroke="#00cd00" points="1342.73,-184.544 1342.73,-199.456 1275.46,-210 1180.33,-210 1113.06,-199.456 1113.06,-184.544 1180.33,-174 1275.46,-174 1342.73,-184.544"/>
<text text-anchor="middle" x="1227.9" y="-188.3" font-family="Times New Roman,serif" font-size="14.00">provs:wasAssociatedWith</text>
</a>
</g>
</g>
<!-- n11&#45;&gt;n12 -->
<g id="edge8" class="edge"><title>n11&#45;&gt;n12</title>
<path fill="none" stroke="#00cd00" d="M1227.9,-260.799C1227.9,-249.163 1227.9,-233.548 1227.9,-220.237"/>
<polygon fill="#00cd00" stroke="#00cd00" points="1231.4,-220.175 1227.9,-210.175 1224.4,-220.175 1231.4,-220.175"/>
<text text-anchor="middle" x="1270.4" y="-231.8" font-family="Times New Roman,serif" font-size="14.00">subPropertyOf</text>
</g>
<!-- n16 -->
<g id="node16" class="node"><title>n16</title>
<g id="a_node16"><a xlink:href="file:///C:/Users/200001866/Documents/GitHub/RACK/RACK-Ontology/Graphs/SYSTEM.owl.svg" xlink:title="sys:OP_PROCEDURE">
<polygon fill="#00008b" stroke="black" points="1176.4,-297 1027.4,-297 1027.4,-261 1176.4,-261 1176.4,-297"/>
<text text-anchor="middle" x="1101.9" y="-275.3" font-family="Times New Roman,serif" font-size="14.00" fill="white">sys:OP_PROCEDURE</text>
</a>
</g>
</g>
<!-- n16&#45;&gt;n4 -->
<g id="edge15" class="edge"><title>n16&#45;&gt;n4</title>
<path fill="none" stroke="#00cd00" d="M1027.27,-262.716C1024.11,-262.125 1020.97,-261.55 1017.9,-261 864.347,-233.526 680.996,-209.45 596.204,-198.807"/>
<polygon fill="#00cd00" stroke="#00cd00" points="596.475,-195.314 586.118,-197.546 595.606,-202.26 596.475,-195.314"/>
<text text-anchor="middle" x="927.396" y="-231.8" font-family="Times New Roman,serif" font-size="14.00">mitigates</text>
</g>
</g>
</svg>
