<?xml version="1.0" encoding="UTF-8" standalone="no"?>
<!DOCTYPE svg PUBLIC "-//W3C//DTD SVG 1.1//EN"
 "http://www.w3.org/Graphics/SVG/1.1/DTD/svg11.dtd">
<!-- Generated by graphviz version 2.38.0 (20140413.2041)
 -->
<!-- Title: gingaterq Pages: 1 -->
<svg width="1462pt" height="154pt"
 viewBox="0.00 0.00 1462.00 154.00" xmlns="http://www.w3.org/2000/svg" xmlns:xlink="http://www.w3.org/1999/xlink">
<g id="graph0" class="graph" transform="scale(1 1) rotate(0) translate(4 150)">
<title>gingaterq</title>
<polygon fill="white" stroke="none" points="-4,4 -4,-150 1458,-150 1458,4 -4,4"/>
<text text-anchor="middle" x="99.5" y="-130.8" font-family="Times New Roman,serif" font-size="14.00">Graph of Ontology File: ingaterq</text>
<!-- n1 -->
<g id="node1" class="node"><title>n1</title>
<ellipse fill="blue" stroke="black" cx="509.5" cy="-105" rx="54.6905" ry="18"/>
<text text-anchor="middle" x="509.5" y="-101.3" font-family="Times New Roman,serif" font-size="14.00" fill="white">IN&#45;GATE&#45;2</text>
</g>
<!-- n1&#45;&gt;n1 -->
<g id="edge1" class="edge"><title>n1&#45;&gt;n1</title>
<path fill="none" stroke="#00cd00" d="M558.698,-112.817C571.986,-112.404 582.095,-109.799 582.095,-105 582.095,-101.513 576.759,-99.1845 568.744,-98.0134"/>
<polygon fill="#00cd00" stroke="#00cd00" points="568.953,-94.5188 558.698,-97.1832 568.376,-101.495 568.953,-94.5188"/>
<text text-anchor="middle" x="625.595" y="-101.3" font-family="Times New Roman,serif" font-size="14.00">uniqueIdentifier</text>
</g>
<!-- n2 -->
<g id="node2" class="node"><title>n2</title>
<polygon fill="none" stroke="black" points="381,-36 0,-36 0,-0 381,-0 381,-36"/>
<text text-anchor="middle" x="190.5" y="-14.3" font-family="Times New Roman,serif" font-size="14.00">The Gate shall be disabled when the maximum census is reached.</text>
</g>
<!-- n1&#45;&gt;n2 -->
<g id="edge2" class="edge"><title>n1&#45;&gt;n2</title>
<path fill="none" stroke="#00cd00" d="M468.449,-93.0617C417.016,-79.357 327.938,-55.6213 264.489,-38.715"/>
<polygon fill="#00cd00" stroke="#00cd00" points="265.1,-35.2557 254.536,-36.0629 263.298,-42.0197 265.1,-35.2557"/>
<text text-anchor="middle" x="380" y="-57.8" font-family="Times New Roman,serif" font-size="14.00">text</text>
</g>
<!-- n3 -->
<g id="node3" class="node"><title>n3</title>
<g id="a_node3"><a xlink:href="file:///C:/sadl/git/RACK/RACK-Ontology/Graphs/Turnstiles.owl.svg" xlink:title="null:Sys&#45;1">
<ellipse fill="blue" stroke="black" cx="645.5" cy="-18" rx="46.2923" ry="18"/>
<text text-anchor="middle" x="645.5" y="-14.3" font-family="Times New Roman,serif" font-size="14.00" fill="white">null:Sys&#45;1</text>
</a>
</g>
</g>
<!-- n1&#45;&gt;n3 -->
<g id="edge3" class="edge"><title>n1&#45;&gt;n3</title>
<path fill="none" stroke="#00cd00" d="M560.112,-97.9944C581.761,-93.1922 606.021,-84.5505 623.5,-69 630.426,-62.8381 635.27,-54.0919 638.613,-45.6334"/>
<polygon fill="#00cd00" stroke="#00cd00" points="641.98,-46.6025 641.882,-36.0081 635.352,-44.3514 641.98,-46.6025"/>
<text text-anchor="middle" x="657" y="-57.8" font-family="Times New Roman,serif" font-size="14.00">satisfies</text>
</g>
<!-- n4 -->
<g id="node4" class="node"><title>n4</title>
<g id="a_node4"><a xlink:href="file:///C:/sadl/git/RACK/RACK-Ontology/Graphs/HazardAssesment.owl.svg" xlink:title="ha:H&#45;2">
<ellipse fill="blue" stroke="black" cx="433.5" cy="-18" rx="34.394" ry="18"/>
<text text-anchor="middle" x="433.5" y="-14.3" font-family="Times New Roman,serif" font-size="14.00" fill="white">ha:H&#45;2</text>
</a>
</g>
</g>
<!-- n1&#45;&gt;n4 -->
<g id="edge4" class="edge"><title>n1&#45;&gt;n4</title>
<path fill="none" stroke="#00cd00" d="M480.732,-89.6456C471.783,-84.1313 462.451,-77.1676 455.5,-69 449.732,-62.2224 445.236,-53.6949 441.855,-45.6112"/>
<polygon fill="#00cd00" stroke="#00cd00" points="445.079,-44.2391 438.274,-36.1184 438.529,-46.7102 445.079,-44.2391"/>
<text text-anchor="middle" x="480" y="-57.8" font-family="Times New Roman,serif" font-size="14.00">mitigates</text>
</g>
<!-- n5 -->
<g id="node5" class="node"><title>n5</title>
<g id="a_node5"><a xlink:href="file:///C:/sadl/git/RACK/RACK-Ontology/Graphs/Turnstiles.owl.svg" xlink:title="null:Ingate">
<ellipse fill="blue" stroke="black" cx="533.5" cy="-18" rx="47.3916" ry="18"/>
<text text-anchor="middle" x="533.5" y="-14.3" font-family="Times New Roman,serif" font-size="14.00" fill="white">null:Ingate</text>
</a>
</g>
</g>
<!-- n1&#45;&gt;n5 -->
<g id="edge5" class="edge"><title>n1&#45;&gt;n5</title>
<path fill="none" stroke="#00cd00" d="M507.531,-86.961C506.958,-77.1147 507.208,-64.6147 510.5,-54 511.544,-50.634 513.017,-47.2879 514.719,-44.0749"/>
<polygon fill="#00cd00" stroke="#00cd00" points="517.749,-45.8283 519.958,-35.4662 511.769,-42.1894 517.749,-45.8283"/>
<text text-anchor="middle" x="533" y="-57.8" font-family="Times New Roman,serif" font-size="14.00">governs</text>
</g>
<!-- n6 -->
<g id="node6" class="node"><title>n6</title>
<g id="a_node6"><a xlink:href="file:///C:/sadl/git/RACK/RACK-Ontology/Graphs/REQUIREMENTS.owl.svg" xlink:title="Rq:REQUIREMENT">
<polygon fill="#00008b" stroke="black" points="1149,-36 1012,-36 1012,-0 1149,-0 1149,-36"/>
<text text-anchor="middle" x="1080.5" y="-14.3" font-family="Times New Roman,serif" font-size="14.00" fill="white">Rq:REQUIREMENT</text>
</a>
</g>
</g>
<!-- n1&#45;&gt;n6 -->
<g id="edge6" class="edge"><title>n1&#45;&gt;n6</title>
<path fill="none" stroke="black" d="M561.93,-99.7075C653.375,-92.0883 835.052,-76.3161 863.5,-69 879.891,-64.7847 882.274,-58.8092 898.5,-54 940.665,-41.5031 954.713,-44.5249 1001.76,-36.038"/>
<polygon fill="black" stroke="black" points="1002.45,-39.4699 1011.63,-34.1791 1001.15,-32.5909 1002.45,-39.4699"/>
<text text-anchor="middle" x="908" y="-57.8" font-family="Times New Roman,serif" font-size="14.00">is a</text>
</g>
<!-- n7 -->
<g id="node7" class="node"><title>n7</title>
<ellipse fill="blue" stroke="black" cx="787.5" cy="-105" rx="54.6905" ry="18"/>
<text text-anchor="middle" x="787.5" y="-101.3" font-family="Times New Roman,serif" font-size="14.00" fill="white">IN&#45;GATE&#45;1</text>
</g>
<!-- n7&#45;&gt;n3 -->
<g id="edge9" class="edge"><title>n7&#45;&gt;n3</title>
<path fill="none" stroke="#00cd00" d="M756.544,-90.0292C743.893,-83.9902 729.262,-76.5771 716.5,-69 701.965,-60.3703 686.542,-49.7083 673.797,-40.4497"/>
<polygon fill="#00cd00" stroke="#00cd00" points="675.575,-37.4126 665.446,-34.3064 671.427,-43.0513 675.575,-37.4126"/>
<text text-anchor="middle" x="739" y="-57.8" font-family="Times New Roman,serif" font-size="14.00">satisfies</text>
</g>
<!-- n7&#45;&gt;n5 -->
<g id="edge10" class="edge"><title>n7&#45;&gt;n5</title>
<path fill="none" stroke="#00cd00" d="M739.144,-96.486C677.407,-86.8308 578.07,-71.0605 574.5,-69 564.078,-62.9855 555.196,-53.242 548.391,-43.9466"/>
<polygon fill="#00cd00" stroke="#00cd00" points="551.265,-41.9484 542.741,-35.6559 545.48,-45.8905 551.265,-41.9484"/>
<text text-anchor="middle" x="597" y="-57.8" font-family="Times New Roman,serif" font-size="14.00">governs</text>
</g>
<!-- n7&#45;&gt;n6 -->
<g id="edge11" class="edge"><title>n7&#45;&gt;n6</title>
<path fill="none" stroke="black" d="M832.178,-94.4912C858.533,-88.3506 892.331,-79.5457 921.5,-69 936.271,-63.6596 938.765,-59.4394 953.5,-54 968.958,-48.2938 985.774,-43.0273 1001.96,-38.4049"/>
<polygon fill="black" stroke="black" points="1003.25,-41.6778 1011.94,-35.6119 1001.36,-34.9369 1003.25,-41.6778"/>
<text text-anchor="middle" x="963" y="-57.8" font-family="Times New Roman,serif" font-size="14.00">is a</text>
</g>
<!-- n7&#45;&gt;n7 -->
<g id="edge7" class="edge"><title>n7&#45;&gt;n7</title>
<path fill="none" stroke="#00cd00" d="M836.698,-112.817C849.986,-112.404 860.095,-109.799 860.095,-105 860.095,-101.513 854.759,-99.1845 846.744,-98.0134"/>
<polygon fill="#00cd00" stroke="#00cd00" points="846.953,-94.5188 836.698,-97.1832 846.376,-101.495 846.953,-94.5188"/>
<text text-anchor="middle" x="903.595" y="-101.3" font-family="Times New Roman,serif" font-size="14.00">uniqueIdentifier</text>
</g>
<!-- n8 -->
<g id="node8" class="node"><title>n8</title>
<polygon fill="none" stroke="black" points="993.5,-36 709.5,-36 709.5,-0 993.5,-0 993.5,-36"/>
<text text-anchor="middle" x="851.5" y="-14.3" font-family="Times New Roman,serif" font-size="14.00">The Gate shall permit only one person at a time.</text>
</g>
<!-- n7&#45;&gt;n8 -->
<g id="edge8" class="edge"><title>n7&#45;&gt;n8</title>
<path fill="none" stroke="#00cd00" d="M810.224,-88.2548C817.046,-82.7405 824.134,-76.1282 829.5,-69 834.771,-61.9974 839.104,-53.5341 842.489,-45.5775"/>
<polygon fill="#00cd00" stroke="#00cd00" points="845.752,-46.8433 846.146,-36.2558 839.236,-44.2863 845.752,-46.8433"/>
<text text-anchor="middle" x="849" y="-57.8" font-family="Times New Roman,serif" font-size="14.00">text</text>
</g>
<!-- n9 -->
<g id="node9" class="node"><title>n9</title>
<ellipse fill="blue" stroke="black" cx="1029.5" cy="-105" rx="54.6905" ry="18"/>
<text text-anchor="middle" x="1029.5" y="-101.3" font-family="Times New Roman,serif" font-size="14.00" fill="white">IN&#45;GATE&#45;3</text>
</g>
<!-- n9&#45;&gt;n3 -->
<g id="edge14" class="edge"><title>n9&#45;&gt;n3</title>
<path fill="none" stroke="#00cd00" d="M1015.93,-87.3446C1005.42,-75.7605 989.767,-61.1597 972.5,-54 916.543,-30.7973 760.066,-47.0195 700.5,-36 696.577,-35.2742 692.539,-34.3613 688.519,-33.3374"/>
<polygon fill="#00cd00" stroke="#00cd00" points="689.207,-29.8963 678.636,-30.6068 687.343,-36.6435 689.207,-29.8963"/>
<text text-anchor="middle" x="1018" y="-57.8" font-family="Times New Roman,serif" font-size="14.00">satisfies</text>
</g>
<!-- n9&#45;&gt;n5 -->
<g id="edge15" class="edge"><title>n9&#45;&gt;n5</title>
<path fill="none" stroke="#00cd00" d="M987.607,-93.2843C977.473,-90.9589 966.64,-88.6922 956.5,-87 878.942,-74.057 853.371,-98.5379 780.5,-69 770.529,-64.9584 771.465,-58.0564 761.5,-54 690.72,-25.1877 665.436,-50.9846 590.5,-36 586.399,-35.1799 582.169,-34.1939 577.953,-33.1148"/>
<polygon fill="#00cd00" stroke="#00cd00" points="578.779,-29.7122 568.211,-30.4628 576.94,-36.4665 578.779,-29.7122"/>
<text text-anchor="middle" x="803" y="-57.8" font-family="Times New Roman,serif" font-size="14.00">governs</text>
</g>
<!-- n9&#45;&gt;n6 -->
<g id="edge16" class="edge"><title>n9&#45;&gt;n6</title>
<path fill="none" stroke="black" d="M1039.58,-87.2067C1046.86,-75.0621 1056.84,-58.4315 1065.12,-44.6326"/>
<polygon fill="black" stroke="black" points="1068.13,-46.425 1070.27,-36.0493 1062.12,-42.8235 1068.13,-46.425"/>
<text text-anchor="middle" x="1068" y="-57.8" font-family="Times New Roman,serif" font-size="14.00">is a</text>
</g>
<!-- n9&#45;&gt;n9 -->
<g id="edge12" class="edge"><title>n9&#45;&gt;n9</title>
<path fill="none" stroke="#00cd00" d="M1078.7,-112.817C1091.99,-112.404 1102.1,-109.799 1102.1,-105 1102.1,-101.513 1096.76,-99.1845 1088.74,-98.0134"/>
<polygon fill="#00cd00" stroke="#00cd00" points="1088.95,-94.5188 1078.7,-97.1832 1088.38,-101.495 1088.95,-94.5188"/>
<text text-anchor="middle" x="1145.6" y="-101.3" font-family="Times New Roman,serif" font-size="14.00">uniqueIdentifier</text>
</g>
<!-- n10 -->
<g id="node10" class="node"><title>n10</title>
<polygon fill="none" stroke="black" points="1454,-36 1167,-36 1167,-0 1454,-0 1454,-36"/>
<text text-anchor="middle" x="1310.5" y="-14.3" font-family="Times New Roman,serif" font-size="14.00">The Gate shall report when a person is admitted.</text>
</g>
<!-- n9&#45;&gt;n10 -->
<g id="edge13" class="edge"><title>n9&#45;&gt;n10</title>
<path fill="none" stroke="#00cd00" d="M1068.28,-92.2704C1113.73,-78.5222 1189.79,-55.5151 1244.56,-38.9464"/>
<polygon fill="#00cd00" stroke="#00cd00" points="1245.63,-42.2805 1254.18,-36.035 1243.6,-35.5803 1245.63,-42.2805"/>
<text text-anchor="middle" x="1197" y="-57.8" font-family="Times New Roman,serif" font-size="14.00">text</text>
</g>
</g>
</svg>
