<?xml version="1.0" encoding="UTF-8" standalone="no"?>
<!DOCTYPE svg PUBLIC "-//W3C//DTD SVG 1.1//EN"
 "http://www.w3.org/Graphics/SVG/1.1/DTD/svg11.dtd">
<!-- Generated by graphviz version 2.38.0 (20140413.2041)
 -->
<!-- Title: gingaterq Pages: 1 -->
<svg width="1484pt" height="154pt"
 viewBox="0.00 0.00 1484.00 154.00" xmlns="http://www.w3.org/2000/svg" xmlns:xlink="http://www.w3.org/1999/xlink">
<g id="graph0" class="graph" transform="scale(1 1) rotate(0) translate(4 150)">
<title>gingaterq</title>
<polygon fill="white" stroke="none" points="-4,4 -4,-150 1480,-150 1480,4 -4,4"/>
<text text-anchor="middle" x="99.5" y="-130.8" font-family="Times New Roman,serif" font-size="14.00">Graph of Ontology File: ingaterq</text>
<!-- n1 -->
<g id="node1" class="node"><title>n1</title>
<ellipse fill="blue" stroke="black" cx="525.5" cy="-105" rx="54.6905" ry="18"/>
<text text-anchor="middle" x="525.5" y="-101.3" font-family="Times New Roman,serif" font-size="14.00" fill="white">IN&#45;GATE&#45;2</text>
</g>
<!-- n1&#45;&gt;n1 -->
<g id="edge1" class="edge"><title>n1&#45;&gt;n1</title>
<path fill="none" stroke="#00cd00" d="M574.698,-112.817C587.986,-112.404 598.095,-109.799 598.095,-105 598.095,-101.513 592.759,-99.1845 584.744,-98.0134"/>
<polygon fill="#00cd00" stroke="#00cd00" points="584.953,-94.5188 574.698,-97.1832 584.376,-101.495 584.953,-94.5188"/>
<text text-anchor="middle" x="641.595" y="-101.3" font-family="Times New Roman,serif" font-size="14.00">identifier</text>
</g>
<!-- n2 -->
<g id="node2" class="node"><title>n2</title>
<polygon fill="none" stroke="black" points="381,-36 0,-36 0,-0 381,-0 381,-36"/>
<text text-anchor="middle" x="190.5" y="-14.3" font-family="Times New Roman,serif" font-size="14.00">The Gate shall be disabled when the maximum census is reached.</text>
</g>
<!-- n1&#45;&gt;n2 -->
<g id="edge2" class="edge"><title>n1&#45;&gt;n2</title>
<path fill="none" stroke="#00cd00" d="M483.411,-93.3208C429.422,-79.6219 334.758,-55.6028 267.674,-38.5813"/>
<polygon fill="#00cd00" stroke="#00cd00" points="268.123,-35.0846 257.57,-36.0176 266.402,-41.8696 268.123,-35.0846"/>
<text text-anchor="middle" x="389" y="-57.8" font-family="Times New Roman,serif" font-size="14.00">text</text>
</g>
<!-- n3 -->
<g id="node3" class="node"><title>n3</title>
<g id="a_node3"><a xlink:href="file:///C:/Sadl3Workspace4/RACK-Ontology-7-29/Graphs/Turnstiles.owl.svg" xlink:title="trnstl:Sys&#45;1">
<ellipse fill="blue" stroke="black" cx="661.5" cy="-18" rx="51.9908" ry="18"/>
<text text-anchor="middle" x="661.5" y="-14.3" font-family="Times New Roman,serif" font-size="14.00" fill="white">trnstl:Sys&#45;1</text>
</a>
</g>
</g>
<!-- n1&#45;&gt;n3 -->
<g id="edge3" class="edge"><title>n1&#45;&gt;n3</title>
<path fill="none" stroke="#00cd00" d="M576.112,-97.9944C597.761,-93.1922 622.021,-84.5505 639.5,-69 646.426,-62.8381 651.27,-54.0919 654.613,-45.6334"/>
<polygon fill="#00cd00" stroke="#00cd00" points="657.98,-46.6025 657.882,-36.0081 651.352,-44.3514 657.98,-46.6025"/>
<text text-anchor="middle" x="673" y="-57.8" font-family="Times New Roman,serif" font-size="14.00">satisfies</text>
</g>
<!-- n4 -->
<g id="node4" class="node"><title>n4</title>
<g id="a_node4"><a xlink:href="file:///C:/Sadl3Workspace4/RACK-Ontology-7-29/Graphs/HazardAssesment.owl.svg" xlink:title="ha:H&#45;2">
<ellipse fill="blue" stroke="black" cx="433.5" cy="-18" rx="34.394" ry="18"/>
<text text-anchor="middle" x="433.5" y="-14.3" font-family="Times New Roman,serif" font-size="14.00" fill="white">ha:H&#45;2</text>
</a>
</g>
</g>
<!-- n1&#45;&gt;n4 -->
<g id="edge4" class="edge"><title>n1&#45;&gt;n4</title>
<path fill="none" stroke="#00cd00" d="M499.194,-89.0145C490.26,-83.322 480.517,-76.4091 472.5,-69 464.375,-61.4908 456.618,-52.1716 450.194,-43.6209"/>
<polygon fill="#00cd00" stroke="#00cd00" points="452.952,-41.4629 444.248,-35.4218 447.285,-45.5721 452.952,-41.4629"/>
<text text-anchor="middle" x="497" y="-57.8" font-family="Times New Roman,serif" font-size="14.00">mitigates</text>
</g>
<!-- n5 -->
<g id="node5" class="node"><title>n5</title>
<g id="a_node5"><a xlink:href="file:///C:/Sadl3Workspace4/RACK-Ontology-7-29/Graphs/Turnstiles.owl.svg" xlink:title="trnstl:Ingate">
<ellipse fill="blue" stroke="black" cx="538.5" cy="-18" rx="52.7911" ry="18"/>
<text text-anchor="middle" x="538.5" y="-14.3" font-family="Times New Roman,serif" font-size="14.00" fill="white">trnstl:Ingate</text>
</a>
</g>
</g>
<!-- n1&#45;&gt;n5 -->
<g id="edge5" class="edge"><title>n1&#45;&gt;n5</title>
<path fill="none" stroke="#00cd00" d="M524.537,-86.7478C524.322,-77.0531 524.594,-64.7723 526.5,-54 526.977,-51.3058 527.627,-48.5392 528.38,-45.799"/>
<polygon fill="#00cd00" stroke="#00cd00" points="531.748,-46.7557 531.43,-36.1656 525.075,-44.643 531.748,-46.7557"/>
<text text-anchor="middle" x="549" y="-57.8" font-family="Times New Roman,serif" font-size="14.00">governs</text>
</g>
<!-- n6 -->
<g id="node6" class="node"><title>n6</title>
<g id="a_node6"><a xlink:href="file:///C:/Sadl3Workspace4/RACK-Ontology-7-29/Graphs/REQUIREMENTS.owl.svg" xlink:title="Rq:REQUIREMENT">
<polygon fill="#00008b" stroke="black" points="1171,-36 1034,-36 1034,-0 1171,-0 1171,-36"/>
<text text-anchor="middle" x="1102.5" y="-14.3" font-family="Times New Roman,serif" font-size="14.00" fill="white">Rq:REQUIREMENT</text>
</a>
</g>
</g>
<!-- n1&#45;&gt;n6 -->
<g id="edge6" class="edge"><title>n1&#45;&gt;n6</title>
<path fill="none" stroke="black" d="M578.087,-99.7868C670.841,-92.222 856.492,-76.4348 885.5,-69 901.894,-64.7981 904.274,-58.8092 920.5,-54 962.665,-41.5031 976.713,-44.5249 1023.76,-36.038"/>
<polygon fill="black" stroke="black" points="1024.45,-39.4699 1033.63,-34.1791 1023.15,-32.5909 1024.45,-39.4699"/>
<text text-anchor="middle" x="930" y="-57.8" font-family="Times New Roman,serif" font-size="14.00">is a</text>
</g>
<!-- n7 -->
<g id="node7" class="node"><title>n7</title>
<ellipse fill="blue" stroke="black" cx="806.5" cy="-105" rx="54.6905" ry="18"/>
<text text-anchor="middle" x="806.5" y="-101.3" font-family="Times New Roman,serif" font-size="14.00" fill="white">IN&#45;GATE&#45;1</text>
</g>
<!-- n7&#45;&gt;n3 -->
<g id="edge9" class="edge"><title>n7&#45;&gt;n3</title>
<path fill="none" stroke="#00cd00" d="M776.09,-89.817C763.633,-83.7455 749.192,-76.3654 736.5,-69 721.289,-60.1727 704.979,-49.4598 691.467,-40.2181"/>
<polygon fill="#00cd00" stroke="#00cd00" points="693.248,-37.1949 683.031,-34.392 689.271,-42.9547 693.248,-37.1949"/>
<text text-anchor="middle" x="759" y="-57.8" font-family="Times New Roman,serif" font-size="14.00">satisfies</text>
</g>
<!-- n7&#45;&gt;n5 -->
<g id="edge10" class="edge"><title>n7&#45;&gt;n5</title>
<path fill="none" stroke="#00cd00" d="M758.03,-96.512C695.503,-86.8001 594.249,-70.8725 590.5,-69 583.672,-65.5899 571.56,-54.0944 560.742,-42.9848"/>
<polygon fill="#00cd00" stroke="#00cd00" points="562.983,-40.2644 553.541,-35.4594 557.926,-45.1041 562.983,-40.2644"/>
<text text-anchor="middle" x="613" y="-57.8" font-family="Times New Roman,serif" font-size="14.00">governs</text>
</g>
<!-- n7&#45;&gt;n6 -->
<g id="edge11" class="edge"><title>n7&#45;&gt;n6</title>
<path fill="none" stroke="black" d="M851.562,-94.7371C878.6,-88.6271 913.459,-79.7698 943.5,-69 958.286,-63.6993 960.765,-59.4394 975.5,-54 990.958,-48.2938 1007.77,-43.0273 1023.96,-38.4049"/>
<polygon fill="black" stroke="black" points="1025.25,-41.6778 1033.94,-35.6119 1023.36,-34.9369 1025.25,-41.6778"/>
<text text-anchor="middle" x="985" y="-57.8" font-family="Times New Roman,serif" font-size="14.00">is a</text>
</g>
<!-- n7&#45;&gt;n7 -->
<g id="edge7" class="edge"><title>n7&#45;&gt;n7</title>
<path fill="none" stroke="#00cd00" d="M855.698,-112.817C868.986,-112.404 879.095,-109.799 879.095,-105 879.095,-101.513 873.759,-99.1845 865.744,-98.0134"/>
<polygon fill="#00cd00" stroke="#00cd00" points="865.953,-94.5188 855.698,-97.1832 865.376,-101.495 865.953,-94.5188"/>
<text text-anchor="middle" x="922.595" y="-101.3" font-family="Times New Roman,serif" font-size="14.00">identifier</text>
</g>
<!-- n8 -->
<g id="node8" class="node"><title>n8</title>
<polygon fill="none" stroke="black" points="1015.5,-36 731.5,-36 731.5,-0 1015.5,-0 1015.5,-36"/>
<text text-anchor="middle" x="873.5" y="-14.3" font-family="Times New Roman,serif" font-size="14.00">The Gate shall permit only one person at a time.</text>
</g>
<!-- n7&#45;&gt;n8 -->
<g id="edge8" class="edge"><title>n7&#45;&gt;n8</title>
<path fill="none" stroke="#00cd00" d="M830.883,-88.5063C838.194,-83.0055 845.78,-76.3375 851.5,-69 856.889,-62.0872 861.254,-53.6489 864.632,-45.6875"/>
<polygon fill="#00cd00" stroke="#00cd00" points="867.902,-46.9362 868.266,-36.3476 861.378,-44.3979 867.902,-46.9362"/>
<text text-anchor="middle" x="871" y="-57.8" font-family="Times New Roman,serif" font-size="14.00">text</text>
</g>
<!-- n9 -->
<g id="node9" class="node"><title>n9</title>
<ellipse fill="blue" stroke="black" cx="1051.5" cy="-105" rx="54.6905" ry="18"/>
<text text-anchor="middle" x="1051.5" y="-101.3" font-family="Times New Roman,serif" font-size="14.00" fill="white">IN&#45;GATE&#45;3</text>
</g>
<!-- n9&#45;&gt;n3 -->
<g id="edge14" class="edge"><title>n9&#45;&gt;n3</title>
<path fill="none" stroke="#00cd00" d="M1037.93,-87.3446C1027.42,-75.7605 1011.77,-61.1597 994.5,-54 938.543,-30.7973 782.214,-46.185 722.5,-36 717.989,-35.2306 713.332,-34.2619 708.696,-33.1792"/>
<polygon fill="#00cd00" stroke="#00cd00" points="709.197,-29.6964 698.646,-30.6596 707.494,-36.4863 709.197,-29.6964"/>
<text text-anchor="middle" x="1040" y="-57.8" font-family="Times New Roman,serif" font-size="14.00">satisfies</text>
</g>
<!-- n9&#45;&gt;n5 -->
<g id="edge15" class="edge"><title>n9&#45;&gt;n5</title>
<path fill="none" stroke="#00cd00" d="M1009.06,-93.5916C998.172,-91.1731 986.442,-88.7868 975.5,-87 899.207,-74.5416 874.795,-96.374 802.5,-69 791.773,-64.9385 792.236,-58.0371 781.5,-54 705.832,-25.5455 679.986,-50.7408 600.5,-36 595.995,-35.1646 591.342,-34.1601 586.702,-33.0621"/>
<polygon fill="#00cd00" stroke="#00cd00" points="587.182,-29.5743 576.631,-30.5386 585.481,-36.3644 587.182,-29.5743"/>
<text text-anchor="middle" x="825" y="-57.8" font-family="Times New Roman,serif" font-size="14.00">governs</text>
</g>
<!-- n9&#45;&gt;n6 -->
<g id="edge16" class="edge"><title>n9&#45;&gt;n6</title>
<path fill="none" stroke="black" d="M1061.58,-87.2067C1068.86,-75.0621 1078.84,-58.4315 1087.12,-44.6326"/>
<polygon fill="black" stroke="black" points="1090.13,-46.425 1092.27,-36.0493 1084.12,-42.8235 1090.13,-46.425"/>
<text text-anchor="middle" x="1090" y="-57.8" font-family="Times New Roman,serif" font-size="14.00">is a</text>
</g>
<!-- n9&#45;&gt;n9 -->
<g id="edge12" class="edge"><title>n9&#45;&gt;n9</title>
<path fill="none" stroke="#00cd00" d="M1100.7,-112.817C1113.99,-112.404 1124.1,-109.799 1124.1,-105 1124.1,-101.513 1118.76,-99.1845 1110.74,-98.0134"/>
<polygon fill="#00cd00" stroke="#00cd00" points="1110.95,-94.5188 1100.7,-97.1832 1110.38,-101.495 1110.95,-94.5188"/>
<text text-anchor="middle" x="1167.6" y="-101.3" font-family="Times New Roman,serif" font-size="14.00">identifier</text>
</g>
<!-- n10 -->
<g id="node10" class="node"><title>n10</title>
<polygon fill="none" stroke="black" points="1476,-36 1189,-36 1189,-0 1476,-0 1476,-36"/>
<text text-anchor="middle" x="1332.5" y="-14.3" font-family="Times New Roman,serif" font-size="14.00">The Gate shall report when a person is admitted.</text>
</g>
<!-- n9&#45;&gt;n10 -->
<g id="edge13" class="edge"><title>n9&#45;&gt;n10</title>
<path fill="none" stroke="#00cd00" d="M1090.28,-92.2704C1135.73,-78.5222 1211.79,-55.5151 1266.56,-38.9464"/>
<polygon fill="#00cd00" stroke="#00cd00" points="1267.63,-42.2805 1276.18,-36.035 1265.6,-35.5803 1267.63,-42.2805"/>
<text text-anchor="middle" x="1219" y="-57.8" font-family="Times New Roman,serif" font-size="14.00">text</text>
</g>
</g>
</svg>
