<?xml version="1.0" encoding="UTF-8" standalone="no"?>
<!DOCTYPE svg PUBLIC "-//W3C//DTD SVG 1.1//EN"
 "http://www.w3.org/Graphics/SVG/1.1/DTD/svg11.dtd">
<!-- Generated by graphviz version 2.38.0 (20140413.2041)
 -->
<!-- Title: gm881D Pages: 1 -->
<svg width="3078pt" height="241pt"
 viewBox="0.00 0.00 3078.44 241.00" xmlns="http://www.w3.org/2000/svg" xmlns:xlink="http://www.w3.org/1999/xlink">
<g id="graph0" class="graph" transform="scale(1 1) rotate(0) translate(4 237)">
<title>gm881D</title>
<polygon fill="white" stroke="none" points="-4,4 -4,-237 3074.44,-237 3074.44,4 -4,4"/>
<text text-anchor="middle" x="97.5" y="-217.8" font-family="Times New Roman,serif" font-size="14.00">Graph of Ontology File: m881D</text>
<!-- n1 -->
<g id="node1" class="node"><title>n1</title>
<ellipse fill="blue" stroke="black" cx="99.4412" cy="-105" rx="99.3824" ry="18"/>
<text text-anchor="middle" x="99.4412" y="-101.3" font-family="Times New Roman,serif" font-size="14.00" fill="white">MIL&#45;STD&#45;881D&#45;AppxD</text>
</g>
<!-- n2 -->
<g id="node2" class="node"><title>n2</title>
<g id="a_node2"><a xlink:href="file:///C:/Sadl3Workspace4/RACK-Ontology-7-29/Graphs/DOCUMENT.owl.svg" xlink:title="D:SECTION">
<polygon fill="#00008b" stroke="black" points="1305.94,-36 1216.94,-36 1216.94,-0 1305.94,-0 1305.94,-36"/>
<text text-anchor="middle" x="1261.44" y="-14.3" font-family="Times New Roman,serif" font-size="14.00" fill="white">D:SECTION</text>
</a>
</g>
</g>
<!-- n1&#45;&gt;n2 -->
<g id="edge1" class="edge"><title>n1&#45;&gt;n2</title>
<path fill="none" stroke="black" d="M170.3,-92.3157C182.982,-90.4052 196.089,-88.5475 208.441,-87 588.475,-39.3893 1050.1,-24.1902 1206.57,-20.2177"/>
<polygon fill="black" stroke="black" points="1206.96,-23.7093 1216.87,-19.9614 1206.78,-16.7114 1206.96,-23.7093"/>
<text text-anchor="middle" x="535.941" y="-57.8" font-family="Times New Roman,serif" font-size="14.00">is a</text>
</g>
<!-- n3 -->
<g id="node3" class="node"><title>n3</title>
<ellipse fill="blue" stroke="black" cx="313.441" cy="-105" rx="96.3833" ry="18"/>
<text text-anchor="middle" x="313.441" y="-101.3" font-family="Times New Roman,serif" font-size="14.00" fill="white">MIL&#45;STD&#45;881D&#45;AppxI</text>
</g>
<!-- n3&#45;&gt;n2 -->
<g id="edge2" class="edge"><title>n3&#45;&gt;n2</title>
<path fill="none" stroke="black" d="M381.689,-92.2807C393.906,-90.374 406.535,-88.5266 418.441,-87 714.385,-49.0529 1071.66,-28.5034 1206.43,-21.6416"/>
<polygon fill="black" stroke="black" points="1206.7,-25.1328 1216.51,-21.1331 1206.34,-18.1417 1206.7,-25.1328"/>
<text text-anchor="middle" x="728.941" y="-57.8" font-family="Times New Roman,serif" font-size="14.00">is a</text>
</g>
<!-- n4 -->
<g id="node4" class="node"><title>n4</title>
<ellipse fill="blue" stroke="black" cx="526.441" cy="-105" rx="98.5829" ry="18"/>
<text text-anchor="middle" x="526.441" y="-101.3" font-family="Times New Roman,serif" font-size="14.00" fill="white">MIL&#45;STD&#45;881D&#45;AppxB</text>
</g>
<!-- n4&#45;&gt;n2 -->
<g id="edge3" class="edge"><title>n4&#45;&gt;n2</title>
<path fill="none" stroke="black" d="M597.245,-92.3559C609.628,-90.4622 622.399,-88.5998 634.441,-87 845.524,-58.9573 1097.74,-34.2781 1206.78,-24.0356"/>
<polygon fill="black" stroke="black" points="1207.25,-27.5071 1216.88,-23.0899 1206.6,-20.5376 1207.25,-27.5071"/>
<text text-anchor="middle" x="918.941" y="-57.8" font-family="Times New Roman,serif" font-size="14.00">is a</text>
</g>
<!-- n5 -->
<g id="node5" class="node"><title>n5</title>
<ellipse fill="blue" stroke="black" cx="743.441" cy="-105" rx="100.182" ry="18"/>
<text text-anchor="middle" x="743.441" y="-101.3" font-family="Times New Roman,serif" font-size="14.00" fill="white">MIL&#45;STD&#45;881D&#45;AppxG</text>
</g>
<!-- n5&#45;&gt;n2 -->
<g id="edge4" class="edge"><title>n5&#45;&gt;n2</title>
<path fill="none" stroke="black" d="M814.652,-92.3149C919.403,-75.126 1112.78,-43.3946 1206.99,-27.9346"/>
<polygon fill="black" stroke="black" points="1207.59,-31.3841 1216.89,-26.3109 1206.45,-24.4765 1207.59,-31.3841"/>
<text text-anchor="middle" x="1043.94" y="-57.8" font-family="Times New Roman,serif" font-size="14.00">is a</text>
</g>
<!-- n6 -->
<g id="node6" class="node"><title>n6</title>
<ellipse fill="blue" stroke="black" cx="960.441" cy="-105" rx="98.5829" ry="18"/>
<text text-anchor="middle" x="960.441" y="-101.3" font-family="Times New Roman,serif" font-size="14.00" fill="white">MIL&#45;STD&#45;881D&#45;AppxL</text>
</g>
<!-- n6&#45;&gt;n2 -->
<g id="edge5" class="edge"><title>n6&#45;&gt;n2</title>
<path fill="none" stroke="black" d="M1011.5,-89.5809C1065.77,-74.2549 1151.27,-50.1106 1206.85,-34.4151"/>
<polygon fill="black" stroke="black" points="1207.86,-37.769 1216.53,-31.683 1205.95,-31.0325 1207.86,-37.769"/>
<text text-anchor="middle" x="1138.94" y="-57.8" font-family="Times New Roman,serif" font-size="14.00">is a</text>
</g>
<!-- n7 -->
<g id="node7" class="node"><title>n7</title>
<ellipse fill="blue" stroke="black" cx="1176.44" cy="-105" rx="98.5829" ry="18"/>
<text text-anchor="middle" x="1176.44" y="-101.3" font-family="Times New Roman,serif" font-size="14.00" fill="white">MIL&#45;STD&#45;881D&#45;AppxE</text>
</g>
<!-- n7&#45;&gt;n2 -->
<g id="edge6" class="edge"><title>n7&#45;&gt;n2</title>
<path fill="none" stroke="black" d="M1193.23,-87.2067C1205.73,-74.7151 1222.96,-57.4775 1236.98,-43.457"/>
<polygon fill="black" stroke="black" points="1239.8,-45.5953 1244.39,-36.0493 1234.85,-40.6455 1239.8,-45.5953"/>
<text text-anchor="middle" x="1233.94" y="-57.8" font-family="Times New Roman,serif" font-size="14.00">is a</text>
</g>
<!-- n8 -->
<g id="node8" class="node"><title>n8</title>
<ellipse fill="blue" stroke="black" cx="1390.44" cy="-105" rx="96.6831" ry="18"/>
<text text-anchor="middle" x="1390.44" y="-101.3" font-family="Times New Roman,serif" font-size="14.00" fill="white">MIL&#45;STD&#45;881D&#45;AppxJ</text>
</g>
<!-- n8&#45;&gt;n2 -->
<g id="edge7" class="edge"><title>n8&#45;&gt;n2</title>
<path fill="none" stroke="black" d="M1365.26,-87.4094C1345.45,-74.3579 1317.65,-56.0349 1295.8,-41.6364"/>
<polygon fill="black" stroke="black" points="1297.72,-38.7111 1287.44,-36.1315 1293.87,-44.5562 1297.72,-38.7111"/>
<text text-anchor="middle" x="1343.94" y="-57.8" font-family="Times New Roman,serif" font-size="14.00">is a</text>
</g>
<!-- n9 -->
<g id="node9" class="node"><title>n9</title>
<polygon fill="none" stroke="red" points="3070.44,-210 2922.44,-210 2922.44,-174 3070.44,-174 3070.44,-210"/>
<text text-anchor="middle" x="2996.44" y="-188.3" font-family="Times New Roman,serif" font-size="14.00">wbs has exactly 1 value</text>
</g>
<!-- n10 -->
<g id="node10" class="node"><title>n10</title>
<g id="a_node10"><a xlink:href="file:///C:/Sadl3Workspace4/RACK-Ontology-7-29/Graphs/SYSTEM.owl.svg" xlink:title="SYSTEM">
<polygon fill="#00008b" stroke="black" points="3032.44,-123 2960.44,-123 2960.44,-87 3032.44,-87 3032.44,-123"/>
<text text-anchor="middle" x="2996.44" y="-101.3" font-family="Times New Roman,serif" font-size="14.00" fill="white">SYSTEM</text>
</a>
</g>
</g>
<!-- n9&#45;&gt;n10 -->
<g id="edge8" class="edge"><title>n9&#45;&gt;n10</title>
<path fill="none" stroke="red" d="M2996.44,-173.799C2996.44,-162.163 2996.44,-146.548 2996.44,-133.237"/>
<polygon fill="red" stroke="red" points="2999.94,-133.175 2996.44,-123.175 2992.94,-133.175 2999.94,-133.175"/>
<text text-anchor="middle" x="3018.94" y="-144.8" font-family="Times New Roman,serif" font-size="14.00">restricts</text>
</g>
<!-- n20 -->
<g id="node20" class="node"><title>n20</title>
<g id="a_node20"><a xlink:href="file:///C:/Sadl3Workspace4/RACK-Ontology-7-29/Graphs/XMLSchema.svg" xlink:title="xsd:string">
<polygon fill="#00008b" stroke="black" points="3031.94,-36 2960.94,-36 2960.94,-0 3031.94,-0 3031.94,-36"/>
<text text-anchor="middle" x="2996.44" y="-14.3" font-family="Times New Roman,serif" font-size="14.00" fill="white">xsd:string</text>
</a>
</g>
</g>
<!-- n10&#45;&gt;n20 -->
<g id="edge29" class="edge"><title>n10&#45;&gt;n20</title>
<path fill="none" stroke="#00cd00" d="M2996.44,-86.799C2996.44,-75.1626 2996.44,-59.5479 2996.44,-46.2368"/>
<polygon fill="#00cd00" stroke="#00cd00" points="2999.94,-46.1754 2996.44,-36.1754 2992.94,-46.1755 2999.94,-46.1754"/>
<text text-anchor="middle" x="3008.44" y="-57.8" font-family="Times New Roman,serif" font-size="14.00">wbs</text>
</g>
<!-- n11 -->
<g id="node11" class="node"><title>n11</title>
<ellipse fill="blue" stroke="black" cx="1604.44" cy="-105" rx="99.3824" ry="18"/>
<text text-anchor="middle" x="1604.44" y="-101.3" font-family="Times New Roman,serif" font-size="14.00" fill="white">MIL&#45;STD&#45;881D&#45;AppxC</text>
</g>
<!-- n11&#45;&gt;n2 -->
<g id="edge9" class="edge"><title>n11&#45;&gt;n2</title>
<path fill="none" stroke="black" d="M1548.19,-90.0592C1483.87,-74.1213 1379.31,-48.2104 1315.8,-32.4715"/>
<polygon fill="black" stroke="black" points="1316.52,-29.0441 1305.97,-30.0359 1314.84,-35.8386 1316.52,-29.0441"/>
<text text-anchor="middle" x="1463.94" y="-57.8" font-family="Times New Roman,serif" font-size="14.00">is a</text>
</g>
<!-- n12 -->
<g id="node12" class="node"><title>n12</title>
<ellipse fill="blue" stroke="black" cx="1821.44" cy="-105" rx="99.3824" ry="18"/>
<text text-anchor="middle" x="1821.44" y="-101.3" font-family="Times New Roman,serif" font-size="14.00" fill="white">MIL&#45;STD&#45;881D&#45;AppxH</text>
</g>
<!-- n12&#45;&gt;n2 -->
<g id="edge10" class="edge"><title>n12&#45;&gt;n2</title>
<path fill="none" stroke="black" d="M1749.04,-92.6553C1736.82,-90.7565 1724.27,-88.8146 1712.44,-87 1569.35,-65.0546 1400.63,-39.774 1315.86,-27.1136"/>
<polygon fill="black" stroke="black" points="1316.35,-23.6484 1305.94,-25.6333 1315.32,-30.5717 1316.35,-23.6484"/>
<text text-anchor="middle" x="1598.94" y="-57.8" font-family="Times New Roman,serif" font-size="14.00">is a</text>
</g>
<!-- n13 -->
<g id="node13" class="node"><title>n13</title>
<ellipse fill="blue" stroke="black" cx="2038.44" cy="-105" rx="99.3824" ry="18"/>
<text text-anchor="middle" x="2038.44" y="-101.3" font-family="Times New Roman,serif" font-size="14.00" fill="white">MIL&#45;STD&#45;881D&#45;AppxA</text>
</g>
<!-- n13&#45;&gt;n2 -->
<g id="edge11" class="edge"><title>n13&#45;&gt;n2</title>
<path fill="none" stroke="black" d="M1967.28,-92.366C1954.69,-90.4608 1941.69,-88.5919 1929.44,-87 1702.44,-57.5019 1430.64,-33.2471 1316.34,-23.5482"/>
<polygon fill="black" stroke="black" points="1316.36,-20.0376 1306.1,-22.6827 1315.77,-27.0127 1316.36,-20.0376"/>
<text text-anchor="middle" x="1774.94" y="-57.8" font-family="Times New Roman,serif" font-size="14.00">is a</text>
</g>
<!-- n14 -->
<g id="node14" class="node"><title>n14</title>
<ellipse fill="blue" stroke="black" cx="2255.44" cy="-105" rx="99.3824" ry="18"/>
<text text-anchor="middle" x="2255.44" y="-101.3" font-family="Times New Roman,serif" font-size="14.00" fill="white">MIL&#45;STD&#45;881D&#45;AppxK</text>
</g>
<!-- n14&#45;&gt;n2 -->
<g id="edge12" class="edge"><title>n14&#45;&gt;n2</title>
<path fill="none" stroke="black" d="M2184.59,-92.2886C2171.9,-90.381 2158.8,-88.5313 2146.44,-87 1833.5,-48.2125 1455.39,-27.9858 1316.25,-21.43"/>
<polygon fill="black" stroke="black" points="1316.41,-17.9337 1306.25,-20.9634 1316.08,-24.9261 1316.41,-17.9337"/>
<text text-anchor="middle" x="1987.94" y="-57.8" font-family="Times New Roman,serif" font-size="14.00">is a</text>
</g>
<!-- n15 -->
<g id="node15" class="node"><title>n15</title>
<ellipse fill="blue" stroke="black" cx="2471.44" cy="-105" rx="98.5829" ry="18"/>
<text text-anchor="middle" x="2471.44" y="-101.3" font-family="Times New Roman,serif" font-size="14.00" fill="white">MIL&#45;STD&#45;881D&#45;AppxF</text>
</g>
<!-- n15&#45;&gt;n2 -->
<g id="edge13" class="edge"><title>n15&#45;&gt;n2</title>
<path fill="none" stroke="black" d="M2401.24,-92.2698C2388.67,-90.3641 2375.68,-88.52 2363.44,-87 1963.48,-37.3451 1477.14,-23.3848 1316.11,-19.9812"/>
<polygon fill="black" stroke="black" points="1316.05,-16.4793 1305.98,-19.7721 1315.9,-23.4778 1316.05,-16.4793"/>
<text text-anchor="middle" x="2193.94" y="-57.8" font-family="Times New Roman,serif" font-size="14.00">is a</text>
</g>
<!-- n16 -->
<g id="node16" class="node"><title>n16</title>
<ellipse fill="blue" stroke="black" cx="1604.44" cy="-192" rx="69.5877" ry="18"/>
<text text-anchor="middle" x="1604.44" y="-188.3" font-family="Times New Roman,serif" font-size="14.00" fill="white">MIL&#45;STD&#45;881D</text>
</g>
<!-- n16&#45;&gt;n1 -->
<g id="edge22" class="edge"><title>n16&#45;&gt;n1</title>
<path fill="none" stroke="#00cd00" d="M1535.07,-190.389C1364.35,-188.524 910.295,-181.381 532.441,-156 388.022,-146.299 352,-141.493 208.441,-123 199.444,-121.841 190.044,-120.529 180.699,-119.16"/>
<polygon fill="#00cd00" stroke="#00cd00" points="181.008,-115.668 170.602,-117.657 179.978,-122.591 181.008,-115.668"/>
<text text-anchor="middle" x="553.441" y="-144.8" font-family="Times New Roman,serif" font-size="14.00">content</text>
</g>
<!-- n16&#45;&gt;n3 -->
<g id="edge24" class="edge"><title>n16&#45;&gt;n3</title>
<path fill="none" stroke="#00cd00" d="M1535.43,-189.274C1392.92,-185.45 1055.82,-175.059 773.441,-156 615.343,-145.329 575.631,-143.007 418.441,-123 409.79,-121.899 400.757,-120.625 391.778,-119.281"/>
<polygon fill="#00cd00" stroke="#00cd00" points="392.101,-115.789 381.686,-117.738 391.043,-122.709 392.101,-115.789"/>
<text text-anchor="middle" x="794.441" y="-144.8" font-family="Times New Roman,serif" font-size="14.00">content</text>
</g>
<!-- n16&#45;&gt;n4 -->
<g id="edge28" class="edge"><title>n16&#45;&gt;n4</title>
<path fill="none" stroke="#00cd00" d="M1536.01,-188.565C1377.17,-182.398 971.315,-163.676 634.441,-123 625.377,-121.906 615.906,-120.622 606.501,-119.26"/>
<polygon fill="#00cd00" stroke="#00cd00" points="606.749,-115.758 596.344,-117.755 605.724,-122.683 606.749,-115.758"/>
<text text-anchor="middle" x="975.441" y="-144.8" font-family="Times New Roman,serif" font-size="14.00">content</text>
</g>
<!-- n16&#45;&gt;n5 -->
<g id="edge27" class="edge"><title>n16&#45;&gt;n5</title>
<path fill="none" stroke="#00cd00" d="M1539.71,-185.254C1463.54,-178.454 1333.27,-166.701 1221.44,-156 1154.75,-149.618 1138.16,-147.078 1071.44,-141 974.182,-132.141 949.419,-134.532 852.441,-123 843.196,-121.901 833.531,-120.606 823.94,-119.229"/>
<polygon fill="#00cd00" stroke="#00cd00" points="824.394,-115.758 813.992,-117.77 823.378,-122.684 824.394,-115.758"/>
<text text-anchor="middle" x="1242.44" y="-144.8" font-family="Times New Roman,serif" font-size="14.00">content</text>
</g>
<!-- n16&#45;&gt;n6 -->
<g id="edge25" class="edge"><title>n16&#45;&gt;n6</title>
<path fill="none" stroke="#00cd00" d="M1543.76,-183.206C1492.66,-176.491 1417.67,-166.282 1352.44,-156 1314.55,-150.027 1305.47,-146.066 1267.44,-141 1179.41,-129.273 1156.57,-133.91 1068.44,-123 1059.45,-121.887 1050.06,-120.598 1040.72,-119.237"/>
<polygon fill="#00cd00" stroke="#00cd00" points="1041.05,-115.747 1030.64,-117.737 1040.02,-122.671 1041.05,-115.747"/>
<text text-anchor="middle" x="1373.44" y="-144.8" font-family="Times New Roman,serif" font-size="14.00">content</text>
</g>
<!-- n16&#45;&gt;n7 -->
<g id="edge15" class="edge"><title>n16&#45;&gt;n7</title>
<path fill="none" stroke="#00cd00" d="M1552.58,-179.99C1522.63,-173.438 1484.29,-164.722 1450.44,-156 1427.15,-149.999 1421.92,-146.216 1398.44,-141 1397.99,-140.901 1321.64,-128.867 1258.61,-118.939"/>
<polygon fill="#00cd00" stroke="#00cd00" points="1259.04,-115.465 1248.62,-117.366 1257.95,-122.379 1259.04,-115.465"/>
<text text-anchor="middle" x="1471.44" y="-144.8" font-family="Times New Roman,serif" font-size="14.00">content</text>
</g>
<!-- n16&#45;&gt;n8 -->
<g id="edge14" class="edge"><title>n16&#45;&gt;n8</title>
<path fill="none" stroke="#00cd00" d="M1573.66,-175.602C1552.27,-165.188 1522.96,-151.477 1496.44,-141 1480.99,-134.897 1464.01,-128.957 1448.24,-123.755"/>
<polygon fill="#00cd00" stroke="#00cd00" points="1449.2,-120.387 1438.61,-120.617 1447.04,-127.043 1449.2,-120.387"/>
<text text-anchor="middle" x="1551.44" y="-144.8" font-family="Times New Roman,serif" font-size="14.00">content</text>
</g>
<!-- n16&#45;&gt;n11 -->
<g id="edge17" class="edge"><title>n16&#45;&gt;n11</title>
<path fill="none" stroke="#00cd00" d="M1604.44,-173.799C1604.44,-162.163 1604.44,-146.548 1604.44,-133.237"/>
<polygon fill="#00cd00" stroke="#00cd00" points="1607.94,-133.175 1604.44,-123.175 1600.94,-133.175 1607.94,-133.175"/>
<text text-anchor="middle" x="1625.44" y="-144.8" font-family="Times New Roman,serif" font-size="14.00">content</text>
</g>
<!-- n16&#45;&gt;n12 -->
<g id="edge16" class="edge"><title>n16&#45;&gt;n12</title>
<path fill="none" stroke="#00cd00" d="M1641.25,-176.581C1677.22,-162.491 1732.22,-140.948 1771.99,-125.369"/>
<polygon fill="#00cd00" stroke="#00cd00" points="1773.47,-128.551 1781.5,-121.644 1770.91,-122.033 1773.47,-128.551"/>
<text text-anchor="middle" x="1747.44" y="-144.8" font-family="Times New Roman,serif" font-size="14.00">content</text>
</g>
<!-- n16&#45;&gt;n13 -->
<g id="edge21" class="edge"><title>n16&#45;&gt;n13</title>
<path fill="none" stroke="#00cd00" d="M1658.09,-180.492C1734.96,-165.437 1876.74,-137.67 1963.8,-120.619"/>
<polygon fill="#00cd00" stroke="#00cd00" points="1964.47,-124.053 1973.61,-118.697 1963.13,-117.184 1964.47,-124.053"/>
<text text-anchor="middle" x="1868.44" y="-144.8" font-family="Times New Roman,serif" font-size="14.00">content</text>
</g>
<!-- n16&#45;&gt;n14 -->
<g id="edge19" class="edge"><title>n16&#45;&gt;n14</title>
<path fill="none" stroke="#00cd00" d="M1666.72,-183.9C1767.61,-172.239 1973,-147.832 2146.44,-123 2155.28,-121.734 2164.52,-120.365 2173.71,-118.973"/>
<polygon fill="#00cd00" stroke="#00cd00" points="2174.3,-122.425 2183.66,-117.457 2173.24,-115.505 2174.3,-122.425"/>
<text text-anchor="middle" x="2034.44" y="-144.8" font-family="Times New Roman,serif" font-size="14.00">content</text>
</g>
<!-- n16&#45;&gt;n15 -->
<g id="edge18" class="edge"><title>n16&#45;&gt;n15</title>
<path fill="none" stroke="#00cd00" d="M1671.41,-186.933C1803.93,-178.457 2108.86,-156.835 2363.44,-123 2372.28,-121.825 2381.52,-120.508 2390.71,-119.141"/>
<polygon fill="#00cd00" stroke="#00cd00" points="2391.27,-122.596 2400.64,-117.643 2390.23,-115.674 2391.27,-122.596"/>
<text text-anchor="middle" x="2219.44" y="-144.8" font-family="Times New Roman,serif" font-size="14.00">content</text>
</g>
<!-- n17 -->
<g id="node17" class="node"><title>n17</title>
<g id="a_node17"><a xlink:href="file:///C:/Sadl3Workspace4/RACK-Ontology-7-29/Graphs/DOCUMENT.owl.svg" xlink:title="D:SPECIFICATION">
<polygon fill="#00008b" stroke="black" points="2722.44,-123 2588.44,-123 2588.44,-87 2722.44,-87 2722.44,-123"/>
<text text-anchor="middle" x="2655.44" y="-101.3" font-family="Times New Roman,serif" font-size="14.00" fill="white">D:SPECIFICATION</text>
</a>
</g>
</g>
<!-- n16&#45;&gt;n17 -->
<g id="edge20" class="edge"><title>n16&#45;&gt;n17</title>
<path fill="none" stroke="black" d="M1673.78,-190.412C1832.67,-188.149 2235.14,-177.22 2578.5,-123.038"/>
<polygon fill="black" stroke="black" points="2579.07,-126.493 2588.39,-121.464 2577.96,-119.58 2579.07,-126.493"/>
<text text-anchor="middle" x="2457.94" y="-144.8" font-family="Times New Roman,serif" font-size="14.00">is a</text>
</g>
<!-- n18 -->
<g id="node18" class="node"><title>n18</title>
<polygon fill="none" stroke="black" points="2820.44,-123 2740.44,-123 2740.44,-87 2820.44,-87 2820.44,-123"/>
<text text-anchor="middle" x="2780.44" y="-101.3" font-family="Times New Roman,serif" font-size="14.00">2018&#45;04&#45;09</text>
</g>
<!-- n16&#45;&gt;n18 -->
<g id="edge23" class="edge"><title>n16&#45;&gt;n18</title>
<path fill="none" stroke="#00cd00" d="M1673.68,-190.222C1820.81,-188.126 2175.33,-180.723 2471.44,-156 2584.35,-146.573 2616.3,-149.398 2730.44,-122.981"/>
<polygon fill="#00cd00" stroke="#00cd00" points="2731.32,-126.368 2740.26,-120.683 2729.73,-119.552 2731.32,-126.368"/>
<text text-anchor="middle" x="2672.44" y="-144.8" font-family="Times New Roman,serif" font-size="14.00">dateOfIssue</text>
</g>
<!-- n19 -->
<g id="node19" class="node"><title>n19</title>
<g id="a_node19"><a xlink:href="file:///C:/Sadl3Workspace4/RACK-Ontology-7-29/Graphs/DOCUMENT.owl.svg" xlink:title="D:Released">
<ellipse fill="blue" stroke="black" cx="2890.44" cy="-105" rx="51.9908" ry="18"/>
<text text-anchor="middle" x="2890.44" y="-101.3" font-family="Times New Roman,serif" font-size="14.00" fill="white">D:Released</text>
</a>
</g>
</g>
<!-- n16&#45;&gt;n19 -->
<g id="edge26" class="edge"><title>n16&#45;&gt;n19</title>
<path fill="none" stroke="#00cd00" d="M1674.13,-190.968C1884.23,-190.528 2509.36,-186.611 2710.44,-156 2757.48,-148.839 2809.72,-133.465 2845.75,-121.643"/>
<polygon fill="#00cd00" stroke="#00cd00" points="2847.08,-124.889 2855.47,-118.412 2844.87,-118.247 2847.08,-124.889"/>
<text text-anchor="middle" x="2792.94" y="-144.8" font-family="Times New Roman,serif" font-size="14.00">status</text>
</g>
</g>
</svg>
