<?xml version="1.0" encoding="UTF-8" standalone="no"?>
<!DOCTYPE svg PUBLIC "-//W3C//DTD SVG 1.1//EN"
 "http://www.w3.org/Graphics/SVG/1.1/DTD/svg11.dtd">
<!-- Generated by graphviz version 2.38.0 (20140413.2041)
 -->
<!-- Title: gm881D Pages: 1 -->
<svg width="3218pt" height="241pt"
 viewBox="0.00 0.00 3218.44 241.00" xmlns="http://www.w3.org/2000/svg" xmlns:xlink="http://www.w3.org/1999/xlink">
<g id="graph0" class="graph" transform="scale(1 1) rotate(0) translate(4 237)">
<title>gm881D</title>
<polygon fill="white" stroke="none" points="-4,4 -4,-237 3214.44,-237 3214.44,4 -4,4"/>
<text text-anchor="middle" x="97.5" y="-217.8" font-family="Times New Roman,serif" font-size="14.00">Graph of Ontology File: m881D</text>
<!-- n1 -->
<g id="node1" class="node"><title>n1</title>
<ellipse fill="blue" stroke="black" cx="99.4412" cy="-105" rx="99.3824" ry="18"/>
<text text-anchor="middle" x="99.4412" y="-101.3" font-family="Times New Roman,serif" font-size="14.00" fill="white">MIL&#45;STD&#45;881D&#45;AppxD</text>
</g>
<!-- n2 -->
<g id="node2" class="node"><title>n2</title>
<g id="a_node2"><a xlink:href="file:///C:/Users/200001866/Documents/GitHub/RACK/RACK-Ontology/Graphs/DOCUMENT.owl.svg" xlink:title="D:SECTION">
<polygon fill="#00008b" stroke="black" points="1327.94,-36 1238.94,-36 1238.94,-0 1327.94,-0 1327.94,-36"/>
<text text-anchor="middle" x="1283.44" y="-14.3" font-family="Times New Roman,serif" font-size="14.00" fill="white">D:SECTION</text>
</a>
</g>
</g>
<!-- n1&#45;&gt;n2 -->
<g id="edge1" class="edge"><title>n1&#45;&gt;n2</title>
<path fill="none" stroke="black" d="M170.299,-92.3046C182.981,-90.3953 196.088,-88.5409 208.441,-87 597.088,-38.521 1069.33,-23.8516 1228.26,-20.1191"/>
<polygon fill="black" stroke="black" points="1228.8,-23.6077 1238.71,-19.8788 1228.64,-16.6096 1228.8,-23.6077"/>
<text text-anchor="middle" x="541.941" y="-57.8" font-family="Times New Roman,serif" font-size="14.00">is a</text>
</g>
<!-- n3 -->
<g id="node3" class="node"><title>n3</title>
<ellipse fill="blue" stroke="black" cx="313.441" cy="-105" rx="96.3833" ry="18"/>
<text text-anchor="middle" x="313.441" y="-101.3" font-family="Times New Roman,serif" font-size="14.00" fill="white">MIL&#45;STD&#45;881D&#45;AppxI</text>
</g>
<!-- n3&#45;&gt;n2 -->
<g id="edge2" class="edge"><title>n3&#45;&gt;n2</title>
<path fill="none" stroke="black" d="M381.687,-92.2675C393.905,-90.3621 406.534,-88.5187 418.441,-87 723.177,-48.1317 1091.33,-28.0366 1228.48,-21.4707"/>
<polygon fill="black" stroke="black" points="1228.9,-24.9548 1238.72,-20.985 1228.56,-17.9627 1228.9,-24.9548"/>
<text text-anchor="middle" x="736.941" y="-57.8" font-family="Times New Roman,serif" font-size="14.00">is a</text>
</g>
<!-- n4 -->
<g id="node4" class="node"><title>n4</title>
<ellipse fill="blue" stroke="black" cx="526.441" cy="-105" rx="98.5829" ry="18"/>
<text text-anchor="middle" x="526.441" y="-101.3" font-family="Times New Roman,serif" font-size="14.00" fill="white">MIL&#45;STD&#45;881D&#45;AppxB</text>
</g>
<!-- n4&#45;&gt;n2 -->
<g id="edge3" class="edge"><title>n4&#45;&gt;n2</title>
<path fill="none" stroke="black" d="M596.95,-92.3633C609.424,-90.4583 622.302,-88.5902 634.441,-87 854.207,-58.21 1117.12,-33.7092 1228.87,-23.7564"/>
<polygon fill="black" stroke="black" points="1229.24,-27.2377 1238.89,-22.8671 1228.62,-20.2651 1229.24,-27.2377"/>
<text text-anchor="middle" x="911.941" y="-57.8" font-family="Times New Roman,serif" font-size="14.00">is a</text>
</g>
<!-- n5 -->
<g id="node5" class="node"><title>n5</title>
<ellipse fill="blue" stroke="black" cx="743.441" cy="-105" rx="100.182" ry="18"/>
<text text-anchor="middle" x="743.441" y="-101.3" font-family="Times New Roman,serif" font-size="14.00" fill="white">MIL&#45;STD&#45;881D&#45;AppxG</text>
</g>
<!-- n5&#45;&gt;n2 -->
<g id="edge4" class="edge"><title>n5&#45;&gt;n2</title>
<path fill="none" stroke="black" d="M815.988,-92.5807C925.583,-75.3296 1130.93,-43.0056 1228.83,-27.596"/>
<polygon fill="black" stroke="black" points="1229.48,-31.0374 1238.81,-26.0249 1228.39,-24.1225 1229.48,-31.0374"/>
<text text-anchor="middle" x="1055.94" y="-57.8" font-family="Times New Roman,serif" font-size="14.00">is a</text>
</g>
<!-- n6 -->
<g id="node6" class="node"><title>n6</title>
<ellipse fill="blue" stroke="black" cx="960.441" cy="-105" rx="98.5829" ry="18"/>
<text text-anchor="middle" x="960.441" y="-101.3" font-family="Times New Roman,serif" font-size="14.00" fill="white">MIL&#45;STD&#45;881D&#45;AppxL</text>
</g>
<!-- n6&#45;&gt;n2 -->
<g id="edge5" class="edge"><title>n6&#45;&gt;n2</title>
<path fill="none" stroke="black" d="M1014.14,-89.8686C1073.58,-74.2273 1168.87,-49.1516 1228.71,-33.4024"/>
<polygon fill="black" stroke="black" points="1229.95,-36.6961 1238.73,-30.7663 1228.17,-29.9265 1229.95,-36.6961"/>
<text text-anchor="middle" x="1150.94" y="-57.8" font-family="Times New Roman,serif" font-size="14.00">is a</text>
</g>
<!-- n7 -->
<g id="node7" class="node"><title>n7</title>
<ellipse fill="blue" stroke="black" cx="1176.44" cy="-105" rx="98.5829" ry="18"/>
<text text-anchor="middle" x="1176.44" y="-101.3" font-family="Times New Roman,serif" font-size="14.00" fill="white">MIL&#45;STD&#45;881D&#45;AppxE</text>
</g>
<!-- n7&#45;&gt;n2 -->
<g id="edge6" class="edge"><title>n7&#45;&gt;n2</title>
<path fill="none" stroke="black" d="M1197.58,-87.2067C1213.74,-74.3681 1236.21,-56.5162 1254.12,-42.2962"/>
<polygon fill="black" stroke="black" points="1256.33,-45.01 1261.98,-36.0493 1251.97,-39.529 1256.33,-45.01"/>
<text text-anchor="middle" x="1245.94" y="-57.8" font-family="Times New Roman,serif" font-size="14.00">is a</text>
</g>
<!-- n8 -->
<g id="node8" class="node"><title>n8</title>
<ellipse fill="blue" stroke="black" cx="1390.44" cy="-105" rx="96.6831" ry="18"/>
<text text-anchor="middle" x="1390.44" y="-101.3" font-family="Times New Roman,serif" font-size="14.00" fill="white">MIL&#45;STD&#45;881D&#45;AppxJ</text>
</g>
<!-- n8&#45;&gt;n2 -->
<g id="edge7" class="edge"><title>n8&#45;&gt;n2</title>
<path fill="none" stroke="black" d="M1369.56,-87.4094C1353.42,-74.5889 1330.88,-56.6819 1312.9,-42.4046"/>
<polygon fill="black" stroke="black" points="1315.01,-39.6111 1305.01,-36.1315 1310.66,-45.0922 1315.01,-39.6111"/>
<text text-anchor="middle" x="1352.94" y="-57.8" font-family="Times New Roman,serif" font-size="14.00">is a</text>
</g>
<!-- n9 -->
<g id="node9" class="node"><title>n9</title>
<ellipse fill="blue" stroke="black" cx="1604.44" cy="-105" rx="99.3824" ry="18"/>
<text text-anchor="middle" x="1604.44" y="-101.3" font-family="Times New Roman,serif" font-size="14.00" fill="white">MIL&#45;STD&#45;881D&#45;AppxC</text>
</g>
<!-- n9&#45;&gt;n2 -->
<g id="edge8" class="edge"><title>n9&#45;&gt;n2</title>
<path fill="none" stroke="black" d="M1550.71,-89.7729C1491.66,-74.1363 1397.32,-49.1549 1337.96,-33.4357"/>
<polygon fill="black" stroke="black" points="1338.58,-29.9807 1328.02,-30.8042 1336.79,-36.7474 1338.58,-29.9807"/>
<text text-anchor="middle" x="1472.94" y="-57.8" font-family="Times New Roman,serif" font-size="14.00">is a</text>
</g>
<!-- n10 -->
<g id="node10" class="node"><title>n10</title>
<ellipse fill="blue" stroke="black" cx="1821.44" cy="-105" rx="99.3824" ry="18"/>
<text text-anchor="middle" x="1821.44" y="-101.3" font-family="Times New Roman,serif" font-size="14.00" fill="white">MIL&#45;STD&#45;881D&#45;AppxH</text>
</g>
<!-- n10&#45;&gt;n2 -->
<g id="edge9" class="edge"><title>n10&#45;&gt;n2</title>
<path fill="none" stroke="black" d="M1749.16,-92.5807C1640.11,-75.3514 1435.9,-43.0876 1338.22,-27.6546"/>
<polygon fill="black" stroke="black" points="1338.68,-24.1844 1328.26,-26.0808 1337.59,-31.0986 1338.68,-24.1844"/>
<text text-anchor="middle" x="1594.94" y="-57.8" font-family="Times New Roman,serif" font-size="14.00">is a</text>
</g>
<!-- n11 -->
<g id="node11" class="node"><title>n11</title>
<ellipse fill="blue" stroke="black" cx="2038.44" cy="-105" rx="99.3824" ry="18"/>
<text text-anchor="middle" x="2038.44" y="-101.3" font-family="Times New Roman,serif" font-size="14.00" fill="white">MIL&#45;STD&#45;881D&#45;AppxA</text>
</g>
<!-- n11&#45;&gt;n2 -->
<g id="edge10" class="edge"><title>n11&#45;&gt;n2</title>
<path fill="none" stroke="black" d="M1967.28,-92.3778C1954.69,-90.4713 1941.69,-88.5989 1929.44,-87 1710.94,-58.4786 1449.64,-33.8802 1338.17,-23.8326"/>
<polygon fill="black" stroke="black" points="1338.45,-20.3436 1328.17,-22.9345 1337.82,-27.3155 1338.45,-20.3436"/>
<text text-anchor="middle" x="1779.94" y="-57.8" font-family="Times New Roman,serif" font-size="14.00">is a</text>
</g>
<!-- n12 -->
<g id="node12" class="node"><title>n12</title>
<ellipse fill="blue" stroke="black" cx="2254.44" cy="-105" rx="98.5829" ry="18"/>
<text text-anchor="middle" x="2254.44" y="-101.3" font-family="Times New Roman,serif" font-size="14.00" fill="white">MIL&#45;STD&#45;881D&#45;AppxF</text>
</g>
<!-- n12&#45;&gt;n2 -->
<g id="edge11" class="edge"><title>n12&#45;&gt;n2</title>
<path fill="none" stroke="black" d="M2184.24,-92.2933C2171.67,-90.3852 2158.68,-88.5341 2146.44,-87 1842.32,-48.8878 1475.07,-28.3441 1338.27,-21.5645"/>
<polygon fill="black" stroke="black" points="1338.21,-18.0575 1328.05,-21.0626 1337.87,-25.0491 1338.21,-18.0575"/>
<text text-anchor="middle" x="1991.94" y="-57.8" font-family="Times New Roman,serif" font-size="14.00">is a</text>
</g>
<!-- n13 -->
<g id="node13" class="node"><title>n13</title>
<ellipse fill="blue" stroke="black" cx="2470.44" cy="-105" rx="99.3824" ry="18"/>
<text text-anchor="middle" x="2470.44" y="-101.3" font-family="Times New Roman,serif" font-size="14.00" fill="white">MIL&#45;STD&#45;881D&#45;AppxK</text>
</g>
<!-- n13&#45;&gt;n2 -->
<g id="edge12" class="edge"><title>n13&#45;&gt;n2</title>
<path fill="none" stroke="black" d="M2399.95,-92.2387C2387.47,-90.3473 2374.59,-88.516 2362.44,-87 1972.13,-38.2919 1497.8,-23.7616 1338.55,-20.0927"/>
<polygon fill="black" stroke="black" points="1338.15,-16.583 1328.08,-19.8567 1337.99,-23.5812 1338.15,-16.583"/>
<text text-anchor="middle" x="2196.94" y="-57.8" font-family="Times New Roman,serif" font-size="14.00">is a</text>
</g>
<!-- n14 -->
<g id="node14" class="node"><title>n14</title>
<ellipse fill="blue" stroke="black" cx="1604.44" cy="-192" rx="69.5877" ry="18"/>
<text text-anchor="middle" x="1604.44" y="-188.3" font-family="Times New Roman,serif" font-size="14.00" fill="white">MIL&#45;STD&#45;881D</text>
</g>
<!-- n14&#45;&gt;n1 -->
<g id="edge26" class="edge"><title>n14&#45;&gt;n1</title>
<path fill="none" stroke="#00cd00" d="M1535.07,-190.389C1364.35,-188.524 910.295,-181.381 532.441,-156 388.022,-146.299 352,-141.493 208.441,-123 199.444,-121.841 190.044,-120.529 180.699,-119.16"/>
<polygon fill="#00cd00" stroke="#00cd00" points="181.008,-115.668 170.602,-117.657 179.978,-122.591 181.008,-115.668"/>
<text text-anchor="middle" x="553.441" y="-144.8" font-family="Times New Roman,serif" font-size="14.00">content</text>
</g>
<!-- n14&#45;&gt;n3 -->
<g id="edge25" class="edge"><title>n14&#45;&gt;n3</title>
<path fill="none" stroke="#00cd00" d="M1535.43,-189.274C1392.92,-185.45 1055.82,-175.059 773.441,-156 615.343,-145.329 575.631,-143.007 418.441,-123 409.79,-121.899 400.757,-120.625 391.778,-119.281"/>
<polygon fill="#00cd00" stroke="#00cd00" points="392.101,-115.789 381.686,-117.738 391.043,-122.709 392.101,-115.789"/>
<text text-anchor="middle" x="794.441" y="-144.8" font-family="Times New Roman,serif" font-size="14.00">content</text>
</g>
<!-- n14&#45;&gt;n4 -->
<g id="edge15" class="edge"><title>n14&#45;&gt;n4</title>
<path fill="none" stroke="#00cd00" d="M1535.67,-188.867C1376.54,-183.346 970.825,-165.907 634.441,-123 625.523,-121.862 616.207,-120.564 606.947,-119.203"/>
<polygon fill="#00cd00" stroke="#00cd00" points="607.349,-115.724 596.941,-117.706 606.313,-122.647 607.349,-115.724"/>
<text text-anchor="middle" x="975.441" y="-144.8" font-family="Times New Roman,serif" font-size="14.00">content</text>
</g>
<!-- n14&#45;&gt;n5 -->
<g id="edge21" class="edge"><title>n14&#45;&gt;n5</title>
<path fill="none" stroke="#00cd00" d="M1537.59,-186.822C1406.03,-178.187 1104.39,-156.349 852.441,-123 843.517,-121.819 834.196,-120.498 824.925,-119.129"/>
<polygon fill="#00cd00" stroke="#00cd00" points="825.312,-115.649 814.904,-117.63 824.276,-122.571 825.312,-115.649"/>
<text text-anchor="middle" x="1162.44" y="-144.8" font-family="Times New Roman,serif" font-size="14.00">content</text>
</g>
<!-- n14&#45;&gt;n6 -->
<g id="edge20" class="edge"><title>n14&#45;&gt;n6</title>
<path fill="none" stroke="#00cd00" d="M1542.45,-183.839C1442.53,-172.138 1239.73,-147.737 1068.44,-123 1059.84,-121.758 1050.87,-120.417 1041.92,-119.052"/>
<polygon fill="#00cd00" stroke="#00cd00" points="1042.27,-115.565 1031.86,-117.504 1041.21,-122.483 1042.27,-115.565"/>
<text text-anchor="middle" x="1325.44" y="-144.8" font-family="Times New Roman,serif" font-size="14.00">content</text>
</g>
<!-- n14&#45;&gt;n7 -->
<g id="edge13" class="edge"><title>n14&#45;&gt;n7</title>
<path fill="none" stroke="#00cd00" d="M1551.1,-180.407C1475.33,-165.359 1336.25,-137.737 1250.51,-120.711"/>
<polygon fill="#00cd00" stroke="#00cd00" points="1251.08,-117.255 1240.59,-118.74 1249.72,-124.121 1251.08,-117.255"/>
<text text-anchor="middle" x="1437.44" y="-144.8" font-family="Times New Roman,serif" font-size="14.00">content</text>
</g>
<!-- n14&#45;&gt;n8 -->
<g id="edge27" class="edge"><title>n14&#45;&gt;n8</title>
<path fill="none" stroke="#00cd00" d="M1568.14,-176.581C1532.63,-162.477 1478.32,-140.906 1439.09,-125.323"/>
<polygon fill="#00cd00" stroke="#00cd00" points="1440.05,-121.937 1429.46,-121.498 1437.46,-128.443 1440.05,-121.937"/>
<text text-anchor="middle" x="1531.44" y="-144.8" font-family="Times New Roman,serif" font-size="14.00">content</text>
</g>
<!-- n14&#45;&gt;n9 -->
<g id="edge16" class="edge"><title>n14&#45;&gt;n9</title>
<path fill="none" stroke="#00cd00" d="M1604.44,-173.799C1604.44,-162.163 1604.44,-146.548 1604.44,-133.237"/>
<polygon fill="#00cd00" stroke="#00cd00" points="1607.94,-133.175 1604.44,-123.175 1600.94,-133.175 1607.94,-133.175"/>
<text text-anchor="middle" x="1625.44" y="-144.8" font-family="Times New Roman,serif" font-size="14.00">content</text>
</g>
<!-- n14&#45;&gt;n10 -->
<g id="edge14" class="edge"><title>n14&#45;&gt;n10</title>
<path fill="none" stroke="#00cd00" d="M1641.25,-176.581C1677.22,-162.491 1732.22,-140.948 1771.99,-125.369"/>
<polygon fill="#00cd00" stroke="#00cd00" points="1773.47,-128.551 1781.5,-121.644 1770.91,-122.033 1773.47,-128.551"/>
<text text-anchor="middle" x="1747.44" y="-144.8" font-family="Times New Roman,serif" font-size="14.00">content</text>
</g>
<!-- n14&#45;&gt;n11 -->
<g id="edge23" class="edge"><title>n14&#45;&gt;n11</title>
<path fill="none" stroke="#00cd00" d="M1658.09,-180.492C1734.96,-165.437 1876.74,-137.67 1963.8,-120.619"/>
<polygon fill="#00cd00" stroke="#00cd00" points="1964.47,-124.053 1973.61,-118.697 1963.13,-117.184 1964.47,-124.053"/>
<text text-anchor="middle" x="1868.44" y="-144.8" font-family="Times New Roman,serif" font-size="14.00">content</text>
</g>
<!-- n14&#45;&gt;n12 -->
<g id="edge19" class="edge"><title>n14&#45;&gt;n12</title>
<path fill="none" stroke="#00cd00" d="M1666.72,-183.929C1767.62,-172.307 1973.02,-147.955 2146.44,-123 2155.04,-121.763 2164.02,-120.424 2172.96,-119.06"/>
<polygon fill="#00cd00" stroke="#00cd00" points="2173.67,-122.492 2183.03,-117.514 2172.61,-115.574 2173.67,-122.492"/>
<text text-anchor="middle" x="2034.44" y="-144.8" font-family="Times New Roman,serif" font-size="14.00">content</text>
</g>
<!-- n14&#45;&gt;n13 -->
<g id="edge18" class="edge"><title>n14&#45;&gt;n13</title>
<path fill="none" stroke="#00cd00" d="M1671.32,-186.933C1803.67,-178.458 2108.19,-156.836 2362.44,-123 2371.28,-121.823 2380.52,-120.505 2389.71,-119.138"/>
<polygon fill="#00cd00" stroke="#00cd00" points="2390.27,-122.593 2399.64,-117.639 2389.23,-115.671 2390.27,-122.593"/>
<text text-anchor="middle" x="2218.44" y="-144.8" font-family="Times New Roman,serif" font-size="14.00">content</text>
</g>
<!-- n15 -->
<g id="node15" class="node"><title>n15</title>
<g id="a_node15"><a xlink:href="file:///C:/Users/200001866/Documents/GitHub/RACK/RACK-Ontology/Graphs/DOCUMENT.owl.svg" xlink:title="D:SPECIFICATION">
<polygon fill="#00008b" stroke="black" points="2721.44,-123 2587.44,-123 2587.44,-87 2721.44,-87 2721.44,-123"/>
<text text-anchor="middle" x="2654.44" y="-101.3" font-family="Times New Roman,serif" font-size="14.00" fill="white">D:SPECIFICATION</text>
</a>
</g>
</g>
<!-- n14&#45;&gt;n15 -->
<g id="edge17" class="edge"><title>n14&#45;&gt;n15</title>
<path fill="none" stroke="black" d="M1673.71,-190.404C1832.43,-188.126 2234.49,-177.166 2577.51,-123.037"/>
<polygon fill="black" stroke="black" points="2578.07,-126.493 2587.39,-121.464 2576.96,-119.58 2578.07,-126.493"/>
<text text-anchor="middle" x="2456.94" y="-144.8" font-family="Times New Roman,serif" font-size="14.00">is a</text>
</g>
<!-- n16 -->
<g id="node16" class="node"><title>n16</title>
<polygon fill="none" stroke="black" points="2819.44,-123 2739.44,-123 2739.44,-87 2819.44,-87 2819.44,-123"/>
<text text-anchor="middle" x="2779.44" y="-101.3" font-family="Times New Roman,serif" font-size="14.00">2018&#45;04&#45;09</text>
</g>
<!-- n14&#45;&gt;n16 -->
<g id="edge22" class="edge"><title>n14&#45;&gt;n16</title>
<path fill="none" stroke="#00cd00" d="M1673.88,-190.215C1821.01,-188.107 2174.86,-180.686 2470.44,-156 2583.35,-146.571 2615.3,-149.398 2729.44,-122.981"/>
<polygon fill="#00cd00" stroke="#00cd00" points="2730.32,-126.368 2739.26,-120.683 2728.73,-119.552 2730.32,-126.368"/>
<text text-anchor="middle" x="2671.44" y="-144.8" font-family="Times New Roman,serif" font-size="14.00">dateOfIssue</text>
</g>
<!-- n17 -->
<g id="node17" class="node"><title>n17</title>
<g id="a_node17"><a xlink:href="file:///C:/Users/200001866/Documents/GitHub/RACK/RACK-Ontology/Graphs/DOCUMENT.owl.svg" xlink:title="D:Released">
<ellipse fill="blue" stroke="black" cx="2889.44" cy="-105" rx="51.9908" ry="18"/>
<text text-anchor="middle" x="2889.44" y="-101.3" font-family="Times New Roman,serif" font-size="14.00" fill="white">D:Released</text>
</a>
</g>
</g>
<!-- n14&#45;&gt;n17 -->
<g id="edge24" class="edge"><title>n14&#45;&gt;n17</title>
<path fill="none" stroke="#00cd00" d="M1674.07,-190.966C1883.98,-190.52 2508.54,-186.586 2709.44,-156 2756.48,-148.838 2808.72,-133.464 2844.75,-121.642"/>
<polygon fill="#00cd00" stroke="#00cd00" points="2846.08,-124.889 2854.47,-118.412 2843.87,-118.246 2846.08,-124.889"/>
<text text-anchor="middle" x="2791.94" y="-144.8" font-family="Times New Roman,serif" font-size="14.00">status</text>
</g>
<!-- n18 -->
<g id="node18" class="node"><title>n18</title>
<ellipse fill="blue" stroke="black" cx="3034.44" cy="-192" rx="27" ry="18"/>
<text text-anchor="middle" x="3034.44" y="-188.3" font-family="Times New Roman,serif" font-size="14.00" fill="white">wbs</text>
</g>
<!-- n19 -->
<g id="node19" class="node"><title>n19</title>
<g id="a_node19"><a xlink:href="file:///C:/Users/200001866/Documents/GitHub/RACK/RACK-Ontology/Graphs/owl.svg" xlink:title="owl::FunctionalProperty">
<polygon fill="#00008b" stroke="black" points="3109.44,-123 2959.44,-123 2959.44,-87 3109.44,-87 3109.44,-123"/>
<text text-anchor="middle" x="3034.44" y="-101.3" font-family="Times New Roman,serif" font-size="14.00" fill="white">owl::FunctionalProperty</text>
</a>
</g>
</g>
<!-- n18&#45;&gt;n19 -->
<g id="edge28" class="edge"><title>n18&#45;&gt;n19</title>
<path fill="none" stroke="black" d="M3034.44,-173.799C3034.44,-162.163 3034.44,-146.548 3034.44,-133.237"/>
<polygon fill="black" stroke="black" points="3037.94,-133.175 3034.44,-123.175 3030.94,-133.175 3037.94,-133.175"/>
<text text-anchor="middle" x="3043.94" y="-144.8" font-family="Times New Roman,serif" font-size="14.00">is a</text>
</g>
<!-- n20 -->
<g id="node20" class="node"><title>n20</title>
<g id="a_node20"><a xlink:href="file:///C:/Users/200001866/Documents/GitHub/RACK/RACK-Ontology/Graphs/SYSTEM.owl.svg" xlink:title="sys:SYSTEM">
<polygon fill="#00008b" stroke="black" points="3210.44,-210 3116.44,-210 3116.44,-174 3210.44,-174 3210.44,-210"/>
<text text-anchor="middle" x="3163.44" y="-188.3" font-family="Times New Roman,serif" font-size="14.00" fill="white">sys:SYSTEM</text>
</a>
</g>
</g>
<!-- n21 -->
<g id="node21" class="node"><title>n21</title>
<g id="a_node21"><a xlink:href="file:///C:/Users/200001866/Documents/GitHub/RACK/RACK-Ontology/Graphs/XMLSchema.svg" xlink:title="xsd:string">
<polygon fill="#00008b" stroke="black" points="3198.94,-123 3127.94,-123 3127.94,-87 3198.94,-87 3198.94,-123"/>
<text text-anchor="middle" x="3163.44" y="-101.3" font-family="Times New Roman,serif" font-size="14.00" fill="white">xsd:string</text>
</a>
</g>
</g>
<!-- n20&#45;&gt;n21 -->
<g id="edge29" class="edge"><title>n20&#45;&gt;n21</title>
<path fill="none" stroke="#00cd00" d="M3163.44,-173.799C3163.44,-162.163 3163.44,-146.548 3163.44,-133.237"/>
<polygon fill="#00cd00" stroke="#00cd00" points="3166.94,-133.175 3163.44,-123.175 3159.94,-133.175 3166.94,-133.175"/>
<text text-anchor="middle" x="3175.44" y="-144.8" font-family="Times New Roman,serif" font-size="14.00">wbs</text>
</g>
</g>
</svg>
