<?xml version="1.0" encoding="UTF-8" standalone="no"?>
<!DOCTYPE svg PUBLIC "-//W3C//DTD SVG 1.1//EN"
 "http://www.w3.org/Graphics/SVG/1.1/DTD/svg11.dtd">
<!-- Generated by graphviz version 2.38.0 (20140413.2041)
 -->
<!-- Title: gPr Pages: 1 -->
<svg width="175pt" height="241pt"
 viewBox="0.00 0.00 175.00 241.00" xmlns="http://www.w3.org/2000/svg" xmlns:xlink="http://www.w3.org/1999/xlink">
<g id="graph0" class="graph" transform="scale(1 1) rotate(0) translate(4 237)">
<title>gPr</title>
<polygon fill="white" stroke="none" points="-4,4 -4,-237 171,-237 171,4 -4,4"/>
<text text-anchor="middle" x="83.5" y="-217.8" font-family="Times New Roman,serif" font-size="14.00">Graph of Ontology File: Pr</text>
<!-- n1 -->
<g id="node1" class="node"><title>n1</title>
<g id="a_node1"><a xlink:href="file:///C:/Sadl3Workspace4/RACK-Ontology-7-29/Graphs/PROV-S.owl.svg" xlink:title="provs:ENTITY">
<polygon fill="#00008b" stroke="black" points="128.5,-210 26.5,-210 26.5,-174 128.5,-174 128.5,-210"/>
<text text-anchor="middle" x="77.5" y="-188.3" font-family="Times New Roman,serif" font-size="14.00" fill="white">provs:ENTITY</text>
</a>
</g>
</g>
<!-- n2 -->
<g id="node2" class="node"><title>n2</title>
<polygon fill="#00008b" stroke="black" points="123,-123 32,-123 32,-87 123,-87 123,-123"/>
<text text-anchor="middle" x="77.5" y="-101.3" font-family="Times New Roman,serif" font-size="14.00" fill="white">OBJECTIVE</text>
</g>
<!-- n1&#45;&gt;n2 -->
<g id="edge1" class="edge"><title>n1&#45;&gt;n2</title>
<path fill="none" stroke="blue" stroke-dasharray="5,2" d="M77.5,-173.799C77.5,-162.163 77.5,-146.548 77.5,-133.237"/>
<polygon fill="blue" stroke="blue" points="81.0001,-133.175 77.5,-123.175 74.0001,-133.175 81.0001,-133.175"/>
<text text-anchor="middle" x="103.5" y="-144.8" font-family="Times New Roman,serif" font-size="14.00">subClass</text>
</g>
<!-- n3 -->
<g id="node3" class="node"><title>n3</title>
<g id="a_node3"><a xlink:href="file:///C:/Sadl3Workspace4/RACK-Ontology-7-29/Graphs/XMLSchema.svg" xlink:title="xsd:string">
<polygon fill="#00008b" stroke="black" points="113,-36 42,-36 42,-0 113,-0 113,-36"/>
<text text-anchor="middle" x="77.5" y="-14.3" font-family="Times New Roman,serif" font-size="14.00" fill="white">xsd:string</text>
</a>
</g>
</g>
<!-- n2&#45;&gt;n3 -->
<g id="edge2" class="edge"><title>n2&#45;&gt;n3</title>
<path fill="none" stroke="#00cd00" d="M77.5,-86.799C77.5,-75.1626 77.5,-59.5479 77.5,-46.2368"/>
<polygon fill="#00cd00" stroke="#00cd00" points="81.0001,-46.1754 77.5,-36.1754 74.0001,-46.1755 81.0001,-46.1754"/>
<text text-anchor="middle" x="109" y="-57.8" font-family="Times New Roman,serif" font-size="14.00">description</text>
</g>
</g>
</svg>
