<?xml version="1.0" encoding="UTF-8" standalone="no"?>
<!DOCTYPE svg PUBLIC "-//W3C//DTD SVG 1.1//EN"
 "http://www.w3.org/Graphics/SVG/1.1/DTD/svg11.dtd">
<!-- Generated by graphviz version 2.38.0 (20140413.2041)
 -->
<!-- Title: gPr Pages: 1 -->
<svg width="175pt" height="241pt"
 viewBox="0.00 0.00 175.00 241.00" xmlns="http://www.w3.org/2000/svg" xmlns:xlink="http://www.w3.org/1999/xlink">
<g id="graph0" class="graph" transform="scale(1 1) rotate(0) translate(4 237)">
<title>gPr</title>
<polygon fill="white" stroke="none" points="-4,4 -4,-237 171,-237 171,4 -4,4"/>
<text text-anchor="middle" x="83.5" y="-217.8" font-family="Times New Roman,serif" font-size="14.00">Graph of Ontology File: Pr</text>
<!-- n1 -->
<g id="node1" class="node"><title>n1</title>
<g id="a_node1"><a xlink:href="file:///C:/Users/200001866/Documents/GitHub/RACK/RACK-Ontology/Graphs/PROV-S.owl.svg" xlink:title="provs:ENTITY">
<polygon fill="#00008b" stroke="black" points="133,-210 31,-210 31,-174 133,-174 133,-210"/>
<text text-anchor="middle" x="82" y="-188.3" font-family="Times New Roman,serif" font-size="14.00" fill="white">provs:ENTITY</text>
</a>
</g>
</g>
<!-- n2 -->
<g id="node2" class="node"><title>n2</title>
<polygon fill="#00008b" stroke="black" points="127.5,-123 36.5,-123 36.5,-87 127.5,-87 127.5,-123"/>
<text text-anchor="middle" x="82" y="-101.3" font-family="Times New Roman,serif" font-size="14.00" fill="white">OBJECTIVE</text>
</g>
<!-- n1&#45;&gt;n2 -->
<g id="edge1" class="edge"><title>n1&#45;&gt;n2</title>
<path fill="none" stroke="blue" stroke-dasharray="5,2" d="M82,-173.799C82,-162.163 82,-146.548 82,-133.237"/>
<polygon fill="blue" stroke="blue" points="85.5001,-133.175 82,-123.175 78.5001,-133.175 85.5001,-133.175"/>
<text text-anchor="middle" x="108" y="-144.8" font-family="Times New Roman,serif" font-size="14.00">subClass</text>
</g>
<!-- n3 -->
<g id="node3" class="node"><title>n3</title>
<g id="a_node3"><a xlink:href="file:///C:/Users/200001866/Documents/GitHub/RACK/RACK-Ontology/Graphs/PROV-S.owl.svg" xlink:title="provs:ACTIVITY">
<polygon fill="#00008b" stroke="black" points="141,-36 23,-36 23,-0 141,-0 141,-36"/>
<text text-anchor="middle" x="82" y="-14.3" font-family="Times New Roman,serif" font-size="14.00" fill="white">provs:ACTIVITY</text>
</a>
</g>
</g>
<!-- n2&#45;&gt;n3 -->
<g id="edge2" class="edge"><title>n2&#45;&gt;n3</title>
<path fill="none" stroke="#00cd00" d="M82,-86.799C82,-75.1626 82,-59.5479 82,-46.2368"/>
<polygon fill="#00cd00" stroke="#00cd00" points="85.5001,-46.1754 82,-36.1754 78.5001,-46.1755 85.5001,-46.1754"/>
<text text-anchor="middle" x="113" y="-57.8" font-family="Times New Roman,serif" font-size="14.00">satisfiedBy</text>
</g>
</g>
</svg>
