<?xml version="1.0" encoding="UTF-8" standalone="no"?>
<!DOCTYPE svg PUBLIC "-//W3C//DTD SVG 1.1//EN"
 "http://www.w3.org/Graphics/SVG/1.1/DTD/svg11.dtd">
<!-- Generated by graphviz version 2.38.0 (20140413.2041)
 -->
<!-- Title: gProject Pages: 1 -->
<svg width="1008pt" height="718pt"
 viewBox="0.00 0.00 1007.50 718.00" xmlns="http://www.w3.org/2000/svg" xmlns:xlink="http://www.w3.org/1999/xlink">
<g id="graph0" class="graph" transform="scale(1 1) rotate(0) translate(4 714)">
<title>gProject</title>
<polygon fill="white" stroke="none" points="-4,4 -4,-714 1003.5,-714 1003.5,4 -4,4"/>
<text text-anchor="middle" x="112" y="-694.8" font-family="Times New Roman,serif" font-size="14.00">Project RACK&#45;Ontology import map</text>
<!-- n1 -->
<g id="node1" class="node"><title>n1</title>
<g id="a_node1"><a xlink:href="./SadlListModel.owl.svg" xlink:title="file:/C:/sadl/git/RACK/RACK&#45;Ontology/OwlModels/SadlListModel.owl">
<polygon fill="none" stroke="black" points="417,-687 2.84217e-014,-687 2.84217e-014,-651 417,-651 417,-687"/>
<text text-anchor="middle" x="208.5" y="-665.3" font-family="Times New Roman,serif" font-size="14.00">file:/C:/sadl/git/RACK/RACK&#45;Ontology/OwlModels/SadlListModel.owl</text>
</a>
</g>
</g>
<!-- n2 -->
<g id="node2" class="node"><title>n2</title>
<g id="a_node2"><a xlink:href="./SadlImplicitModel.owl.svg" xlink:title="http://sadl.org/sadlimplicitmodel">
<polygon fill="none" stroke="black" points="549.5,-687 435.5,-687 435.5,-651 549.5,-651 549.5,-687"/>
<text text-anchor="middle" x="492.5" y="-665.3" font-family="Times New Roman,serif" font-size="14.00">sadlimplicitmodel</text>
</a>
</g>
</g>
<!-- n3 -->
<g id="node3" class="node"><title>n3</title>
<g id="a_node3"><a xlink:href="./PROV-S.owl.svg" xlink:title="http://arcos.rack/PROV&#45;S">
<polygon fill="none" stroke="black" points="621.5,-600 567.5,-600 567.5,-564 621.5,-564 621.5,-600"/>
<text text-anchor="middle" x="594.5" y="-578.3" font-family="Times New Roman,serif" font-size="14.00">provs</text>
</a>
</g>
</g>
<!-- n4 -->
<g id="node4" class="node"><title>n4</title>
<g id="a_node4"><a xlink:href="./HAZARD.owl.svg" xlink:title="http://arcos.rack/HAZARD">
<polygon fill="none" stroke="black" points="493.5,-459 439.5,-459 439.5,-423 493.5,-423 493.5,-459"/>
<text text-anchor="middle" x="466.5" y="-437.3" font-family="Times New Roman,serif" font-size="14.00">H</text>
</a>
</g>
</g>
<!-- n3&#45;&gt;n4 -->
<g id="edge1" class="edge"><title>n3&#45;&gt;n4</title>
<path fill="none" stroke="black" d="M567.437,-577.287C534.153,-572.108 480.568,-561.565 468.5,-546 451.707,-524.342 454.121,-491.814 458.872,-468.916"/>
<polygon fill="black" stroke="black" points="462.287,-469.68 461.158,-459.146 455.471,-468.085 462.287,-469.68"/>
<text text-anchor="middle" x="503" y="-534.8" font-family="Times New Roman,serif" font-size="14.00">imported by</text>
</g>
<!-- n5 -->
<g id="node5" class="node"><title>n5</title>
<g id="a_node5"><a xlink:href="./SACM-S.owl.svg" xlink:title="http://arcos.rack/SACM&#45;S">
<polygon fill="none" stroke="black" points="391.5,-513 337.5,-513 337.5,-477 391.5,-477 391.5,-513"/>
<text text-anchor="middle" x="364.5" y="-491.3" font-family="Times New Roman,serif" font-size="14.00">sacms</text>
</a>
</g>
</g>
<!-- n3&#45;&gt;n5 -->
<g id="edge2" class="edge"><title>n3&#45;&gt;n5</title>
<path fill="none" stroke="black" d="M567.359,-581.023C512.527,-580.436 391.543,-575.719 365.5,-546 360.109,-539.848 358.55,-531.451 358.734,-523.296"/>
<polygon fill="black" stroke="black" points="362.223,-523.582 359.741,-513.282 355.258,-522.881 362.223,-523.582"/>
<text text-anchor="middle" x="400" y="-534.8" font-family="Times New Roman,serif" font-size="14.00">imported by</text>
</g>
<!-- n6 -->
<g id="node6" class="node"><title>n6</title>
<g id="a_node6"><a xlink:href="./REQUIREMENTS.owl.svg" xlink:title="http://arcos.rack/REQUIREMENTS">
<polygon fill="none" stroke="black" points="575.5,-513 521.5,-513 521.5,-477 575.5,-477 575.5,-513"/>
<text text-anchor="middle" x="548.5" y="-491.3" font-family="Times New Roman,serif" font-size="14.00">Rq</text>
</a>
</g>
</g>
<!-- n3&#45;&gt;n6 -->
<g id="edge15" class="edge"><title>n3&#45;&gt;n6</title>
<path fill="none" stroke="black" d="M567.418,-568.205C558.807,-562.67 550.284,-555.296 545.5,-546 541.944,-539.089 541.236,-530.91 541.822,-523.189"/>
<polygon fill="black" stroke="black" points="545.312,-523.506 543.276,-513.109 538.384,-522.507 545.312,-523.506"/>
<text text-anchor="middle" x="580" y="-534.8" font-family="Times New Roman,serif" font-size="14.00">imported by</text>
</g>
<!-- n8 -->
<g id="node8" class="node"><title>n8</title>
<g id="a_node8"><a xlink:href="./SYSTEM.owl.svg" xlink:title="http://arcos.rack/SYSTEM">
<polygon fill="none" stroke="black" points="202.5,-513 148.5,-513 148.5,-477 202.5,-477 202.5,-513"/>
<text text-anchor="middle" x="175.5" y="-491.3" font-family="Times New Roman,serif" font-size="14.00">sys</text>
</a>
</g>
</g>
<!-- n3&#45;&gt;n8 -->
<g id="edge10" class="edge"><title>n3&#45;&gt;n8</title>
<path fill="none" stroke="black" d="M567.092,-580.755C512.498,-579.647 386.712,-573.979 285.5,-546 259.901,-538.923 232.717,-526.616 211.777,-515.984"/>
<polygon fill="black" stroke="black" points="213.113,-512.734 202.624,-511.241 209.893,-518.949 213.113,-512.734"/>
<text text-anchor="middle" x="320" y="-534.8" font-family="Times New Roman,serif" font-size="14.00">imported by</text>
</g>
<!-- n9 -->
<g id="node9" class="node"><title>n9</title>
<g id="a_node9"><a xlink:href="./ANALYSIS.owl.svg" xlink:title="http://arcos.rack/ANALYSIS">
<polygon fill="none" stroke="black" points="667.5,-513 613.5,-513 613.5,-477 667.5,-477 667.5,-513"/>
<text text-anchor="middle" x="640.5" y="-491.3" font-family="Times New Roman,serif" font-size="14.00">A</text>
</a>
</g>
</g>
<!-- n3&#45;&gt;n9 -->
<g id="edge5" class="edge"><title>n3&#45;&gt;n9</title>
<path fill="none" stroke="black" d="M607.123,-563.962C611.002,-558.378 615.132,-552.052 618.5,-546 622.65,-538.542 626.602,-530.148 629.981,-522.398"/>
<polygon fill="black" stroke="black" points="633.264,-523.619 633.927,-513.044 626.815,-520.897 633.264,-523.619"/>
<text text-anchor="middle" x="660" y="-534.8" font-family="Times New Roman,serif" font-size="14.00">imported by</text>
</g>
<!-- n10 -->
<g id="node10" class="node"><title>n10</title>
<g id="a_node10"><a xlink:href="./REVIEW.owl.svg" xlink:title="http://arcos.rack/REVIEW">
<polygon fill="none" stroke="black" points="759.5,-513 705.5,-513 705.5,-477 759.5,-477 759.5,-513"/>
<text text-anchor="middle" x="732.5" y="-491.3" font-family="Times New Roman,serif" font-size="14.00">Rv</text>
</a>
</g>
</g>
<!-- n3&#45;&gt;n10 -->
<g id="edge6" class="edge"><title>n3&#45;&gt;n10</title>
<path fill="none" stroke="black" d="M621.517,-576.852C643.943,-572.321 675.736,-563.274 698.5,-546 706.817,-539.689 713.803,-530.736 719.237,-522.145"/>
<polygon fill="black" stroke="black" points="722.296,-523.848 724.329,-513.45 716.255,-520.31 722.296,-523.848"/>
<text text-anchor="middle" x="746" y="-534.8" font-family="Times New Roman,serif" font-size="14.00">imported by</text>
</g>
<!-- n15 -->
<g id="node15" class="node"><title>n15</title>
<g id="a_node15"><a xlink:href="./SOFTWARE.owl.svg" xlink:title="http://arcos.rack/SOFTWARE">
<polygon fill="none" stroke="black" points="957.5,-513 903.5,-513 903.5,-477 957.5,-477 957.5,-513"/>
<text text-anchor="middle" x="930.5" y="-491.3" font-family="Times New Roman,serif" font-size="14.00">sw</text>
</a>
</g>
</g>
<!-- n3&#45;&gt;n15 -->
<g id="edge14" class="edge"><title>n3&#45;&gt;n15</title>
<path fill="none" stroke="black" d="M621.664,-579.756C666.226,-577.103 757.222,-569.105 830.5,-546 852.671,-539.009 875.984,-527.616 894.518,-517.47"/>
<polygon fill="black" stroke="black" points="896.455,-520.397 903.474,-512.461 893.038,-514.287 896.455,-520.397"/>
<text text-anchor="middle" x="902" y="-534.8" font-family="Times New Roman,serif" font-size="14.00">imported by</text>
</g>
<!-- n16 -->
<g id="node16" class="node"><title>n16</title>
<g id="a_node16"><a xlink:href="./TESTING.owl.svg" xlink:title="http://arcos.rack/TESTING">
<polygon fill="none" stroke="black" points="843.5,-351 789.5,-351 789.5,-315 843.5,-315 843.5,-351"/>
<text text-anchor="middle" x="816.5" y="-329.3" font-family="Times New Roman,serif" font-size="14.00">tst</text>
</a>
</g>
</g>
<!-- n3&#45;&gt;n16 -->
<g id="edge18" class="edge"><title>n3&#45;&gt;n16</title>
<path fill="none" stroke="black" d="M621.827,-579.764C668.906,-577.04 762.394,-568.833 784.5,-546 832.918,-495.989 827.674,-405.915 821.33,-360.997"/>
<polygon fill="black" stroke="black" points="824.789,-360.461 819.81,-351.108 817.87,-361.524 824.789,-360.461"/>
<text text-anchor="middle" x="853" y="-491.3" font-family="Times New Roman,serif" font-size="14.00">imported by</text>
</g>
<!-- n14 -->
<g id="node14" class="node"><title>n14</title>
<g id="a_node14"><a xlink:href="./HazardAssesment.owl.svg" xlink:title="http://TurnstileSystem/HazardAssesment">
<polygon fill="none" stroke="black" points="569.5,-297 515.5,-297 515.5,-261 569.5,-261 569.5,-297"/>
<text text-anchor="middle" x="542.5" y="-275.3" font-family="Times New Roman,serif" font-size="14.00">ha</text>
</a>
</g>
</g>
<!-- n4&#45;&gt;n14 -->
<g id="edge20" class="edge"><title>n4&#45;&gt;n14</title>
<path fill="none" stroke="black" d="M482.025,-422.977C496.615,-406.008 517.893,-378.567 529.5,-351 535.294,-337.239 538.511,-320.908 540.294,-307.379"/>
<polygon fill="black" stroke="black" points="543.796,-307.563 541.439,-297.233 536.84,-306.778 543.796,-307.563"/>
<text text-anchor="middle" x="554" y="-383.3" font-family="Times New Roman,serif" font-size="14.00">imported by</text>
</g>
<!-- n7 -->
<g id="node7" class="node"><title>n7</title>
<g id="a_node7"><a xlink:href="./Turnstiles.owl.svg" xlink:title="http://TurnstileSystem/TurnStiles">
<polygon fill="none" stroke="black" points="440.5,-405 386.5,-405 386.5,-369 440.5,-369 440.5,-405"/>
<text text-anchor="middle" x="413.5" y="-383.3" font-family="Times New Roman,serif" font-size="14.00">trnstl</text>
</a>
</g>
</g>
<!-- n6&#45;&gt;n7 -->
<g id="edge3" class="edge"><title>n6&#45;&gt;n7</title>
<path fill="none" stroke="black" d="M541.193,-476.906C533.61,-460.992 520.353,-437.594 502.5,-423 487.456,-410.702 467.567,-402.334 450.406,-396.872"/>
<polygon fill="black" stroke="black" points="451.258,-393.474 440.675,-393.984 449.266,-400.185 451.258,-393.474"/>
<text text-anchor="middle" x="565" y="-437.3" font-family="Times New Roman,serif" font-size="14.00">imported by</text>
</g>
<!-- n13 -->
<g id="node13" class="node"><title>n13</title>
<g id="a_node13"><a xlink:href="./CounterApplicationRequirements.owl.svg" xlink:title="http://TurnstileSystem/CounterApplicationRequirements">
<polygon fill="none" stroke="black" points="587,-210 516,-210 516,-174 587,-174 587,-210"/>
<text text-anchor="middle" x="551.5" y="-188.3" font-family="Times New Roman,serif" font-size="14.00">cntrapprq</text>
</a>
</g>
</g>
<!-- n6&#45;&gt;n13 -->
<g id="edge11" class="edge"><title>n6&#45;&gt;n13</title>
<path fill="none" stroke="black" d="M575.503,-483.244C586.028,-477.633 597.085,-469.67 603.5,-459 653.117,-376.47 616.719,-339.223 620.5,-243 620.762,-236.338 623.988,-233.681 620.5,-228 614.854,-218.805 605.958,-211.935 596.406,-206.835"/>
<polygon fill="black" stroke="black" points="597.672,-203.562 587.133,-202.47 594.691,-209.896 597.672,-203.562"/>
<text text-anchor="middle" x="663" y="-329.3" font-family="Times New Roman,serif" font-size="14.00">imported by</text>
</g>
<!-- n19 -->
<g id="node19" class="node"><title>n19</title>
<g id="a_node19"><a xlink:href="./CounterApplicationLLR.owl.svg" xlink:title="http://TurnstileSystem/CounterApplicationLLR">
<polygon fill="none" stroke="black" points="578.5,-123 508.5,-123 508.5,-87 578.5,-87 578.5,-123"/>
<text text-anchor="middle" x="543.5" y="-101.3" font-family="Times New Roman,serif" font-size="14.00">cntrappllr</text>
</a>
</g>
</g>
<!-- n6&#45;&gt;n19 -->
<g id="edge26" class="edge"><title>n6&#45;&gt;n19</title>
<path fill="none" stroke="black" d="M575.595,-483.573C623.813,-464.168 719.5,-421.444 719.5,-388 719.5,-388 719.5,-388 719.5,-191 719.5,-166.35 715.175,-155.849 695.5,-141 657.708,-112.477 636.275,-135.1 590.5,-123 589.776,-122.809 589.048,-122.611 588.317,-122.408"/>
<polygon fill="black" stroke="black" points="589.288,-119.045 578.703,-119.491 587.256,-125.744 589.288,-119.045"/>
<text text-anchor="middle" x="754" y="-275.3" font-family="Times New Roman,serif" font-size="14.00">imported by</text>
</g>
<!-- n20 -->
<g id="node20" class="node"><title>n20</title>
<g id="a_node20"><a xlink:href="./InGateRequirements.owl.svg" xlink:title="http://TurnstileSystem/InGateRequirement">
<polygon fill="none" stroke="black" points="352,-210 291,-210 291,-174 352,-174 352,-210"/>
<text text-anchor="middle" x="321.5" y="-188.3" font-family="Times New Roman,serif" font-size="14.00">ingaterq</text>
</a>
</g>
</g>
<!-- n6&#45;&gt;n20 -->
<g id="edge23" class="edge"><title>n6&#45;&gt;n20</title>
<path fill="none" stroke="black" d="M521.289,-487.504C497.045,-481.349 460.817,-471.237 430.5,-459 382.204,-439.506 249.542,-395.511 222.5,-351 193.236,-302.831 249.575,-247.096 288.611,-216.37"/>
<polygon fill="black" stroke="black" points="290.841,-219.07 296.641,-210.204 286.578,-213.518 290.841,-219.07"/>
<text text-anchor="middle" x="257" y="-329.3" font-family="Times New Roman,serif" font-size="14.00">imported by</text>
</g>
<!-- n11 -->
<g id="node11" class="node"><title>n11</title>
<g id="a_node11"><a xlink:href="./CounterApplication.owl.svg" xlink:title="http://TurnstileSystem/CounterApplication">
<polygon fill="none" stroke="black" points="197,-297 134,-297 134,-261 197,-261 197,-297"/>
<text text-anchor="middle" x="165.5" y="-275.3" font-family="Times New Roman,serif" font-size="14.00">trnstlsys</text>
</a>
</g>
</g>
<!-- n7&#45;&gt;n11 -->
<g id="edge8" class="edge"><title>n7&#45;&gt;n11</title>
<path fill="none" stroke="black" d="M386.183,-380.876C365.812,-375.959 338.218,-366.868 318.5,-351 303.708,-339.096 310.812,-326.226 295.5,-315 269.76,-296.128 234.491,-287.431 207.182,-283.423"/>
<polygon fill="black" stroke="black" points="207.513,-279.937 197.143,-282.105 206.602,-286.877 207.513,-279.937"/>
<text text-anchor="middle" x="353" y="-329.3" font-family="Times New Roman,serif" font-size="14.00">imported by</text>
</g>
<!-- n7&#45;&gt;n13 -->
<g id="edge12" class="edge"><title>n7&#45;&gt;n13</title>
<path fill="none" stroke="black" d="M414.227,-368.818C416.111,-332.344 422.344,-248.814 440.5,-228 456.814,-209.298 483.025,-200.485 505.881,-196.377"/>
<polygon fill="black" stroke="black" points="506.418,-199.835 515.764,-194.845 505.346,-192.918 506.418,-199.835"/>
<text text-anchor="middle" x="461" y="-275.3" font-family="Times New Roman,serif" font-size="14.00">imported by</text>
</g>
<!-- n7&#45;&gt;n14 -->
<g id="edge19" class="edge"><title>n7&#45;&gt;n14</title>
<path fill="none" stroke="black" d="M425.331,-368.986C429.244,-363.294 433.595,-356.898 437.5,-351 447.981,-335.168 446.013,-327.273 460.5,-315 464.374,-311.718 485.821,-302.605 505.808,-294.501"/>
<polygon fill="black" stroke="black" points="507.148,-297.734 515.118,-290.753 504.535,-291.24 507.148,-297.734"/>
<text text-anchor="middle" x="495" y="-329.3" font-family="Times New Roman,serif" font-size="14.00">imported by</text>
</g>
<!-- n7&#45;&gt;n20 -->
<g id="edge24" class="edge"><title>n7&#45;&gt;n20</title>
<path fill="none" stroke="black" d="M411.438,-368.838C408.65,-352.875 402.202,-329.443 387.5,-315 370.053,-297.861 350.986,-315.929 335.5,-297 318.072,-275.697 316.338,-243.319 317.845,-220.355"/>
<polygon fill="black" stroke="black" points="321.345,-220.509 318.755,-210.235 314.373,-219.882 321.345,-220.509"/>
<text text-anchor="middle" x="370" y="-275.3" font-family="Times New Roman,serif" font-size="14.00">imported by</text>
</g>
<!-- n8&#45;&gt;n7 -->
<g id="edge4" class="edge"><title>n8&#45;&gt;n7</title>
<path fill="none" stroke="black" d="M202.802,-481.84C245.638,-462.762 328.697,-425.769 376.744,-404.37"/>
<polygon fill="black" stroke="black" points="378.44,-407.446 386.151,-400.181 375.592,-401.052 378.44,-407.446"/>
<text text-anchor="middle" x="364" y="-437.3" font-family="Times New Roman,serif" font-size="14.00">imported by</text>
</g>
<!-- n8&#45;&gt;n11 -->
<g id="edge7" class="edge"><title>n8&#45;&gt;n11</title>
<path fill="none" stroke="black" d="M173.304,-476.975C171.108,-459.089 167.868,-430.122 166.5,-405 164.681,-371.588 164.69,-333.08 164.985,-307.735"/>
<polygon fill="black" stroke="black" points="168.49,-307.455 165.13,-297.407 161.49,-307.356 168.49,-307.455"/>
<text text-anchor="middle" x="201" y="-383.3" font-family="Times New Roman,serif" font-size="14.00">imported by</text>
</g>
<!-- n11&#45;&gt;n19 -->
<g id="edge28" class="edge"><title>n11&#45;&gt;n19</title>
<path fill="none" stroke="black" d="M168.515,-260.652C173.537,-237.22 185.929,-195.88 213.5,-174 257.133,-139.375 418.483,-118.633 498.253,-110.281"/>
<polygon fill="black" stroke="black" points="498.896,-113.734 508.486,-109.231 498.181,-106.771 498.896,-113.734"/>
<text text-anchor="middle" x="248" y="-188.3" font-family="Times New Roman,serif" font-size="14.00">imported by</text>
</g>
<!-- n12 -->
<g id="node12" class="node"><title>n12</title>
<g id="a_node12"><a xlink:href="./properties.owl.svg" xlink:title="http://arcos.rack/properties">
<polygon fill="none" stroke="black" points="621.5,-687 567.5,-687 567.5,-651 621.5,-651 621.5,-687"/>
<text text-anchor="middle" x="594.5" y="-665.3" font-family="Times New Roman,serif" font-size="14.00">P</text>
</a>
</g>
</g>
<!-- n12&#45;&gt;n3 -->
<g id="edge9" class="edge"><title>n12&#45;&gt;n3</title>
<path fill="none" stroke="black" d="M594.5,-650.799C594.5,-639.163 594.5,-623.548 594.5,-610.237"/>
<polygon fill="black" stroke="black" points="598,-610.175 594.5,-600.175 591,-610.175 598,-610.175"/>
<text text-anchor="middle" x="629" y="-621.8" font-family="Times New Roman,serif" font-size="14.00">imported by</text>
</g>
<!-- n17 -->
<g id="node17" class="node"><title>n17</title>
<g id="a_node17"><a xlink:href="./CounterApplicationTesting.owl.svg" xlink:title="http://TurnstileSystem/CounterApplicationTesting">
<polygon fill="none" stroke="black" points="672,-123 599,-123 599,-87 672,-87 672,-123"/>
<text text-anchor="middle" x="635.5" y="-101.3" font-family="Times New Roman,serif" font-size="14.00">cntrapptst</text>
</a>
</g>
</g>
<!-- n13&#45;&gt;n17 -->
<g id="edge17" class="edge"><title>n13&#45;&gt;n17</title>
<path fill="none" stroke="black" d="M587.127,-175.983C596.593,-170.72 606.2,-164.064 613.5,-156 619.473,-149.402 624.023,-140.922 627.391,-132.827"/>
<polygon fill="black" stroke="black" points="630.73,-133.889 630.929,-123.296 624.167,-131.453 630.73,-133.889"/>
<text text-anchor="middle" x="657" y="-144.8" font-family="Times New Roman,serif" font-size="14.00">imported by</text>
</g>
<!-- n13&#45;&gt;n19 -->
<g id="edge27" class="edge"><title>n13&#45;&gt;n19</title>
<path fill="none" stroke="black" d="M547.397,-173.648C546.244,-168.048 545.132,-161.791 544.5,-156 543.703,-148.693 543.323,-140.751 543.173,-133.393"/>
<polygon fill="black" stroke="black" points="546.671,-133.145 543.094,-123.173 539.671,-133.199 546.671,-133.145"/>
<text text-anchor="middle" x="579" y="-144.8" font-family="Times New Roman,serif" font-size="14.00">imported by</text>
</g>
<!-- n14&#45;&gt;n13 -->
<g id="edge13" class="edge"><title>n14&#45;&gt;n13</title>
<path fill="none" stroke="black" d="M544.321,-260.799C545.553,-249.163 547.207,-233.548 548.616,-220.237"/>
<polygon fill="black" stroke="black" points="552.109,-220.488 549.681,-210.175 545.148,-219.751 552.109,-220.488"/>
<text text-anchor="middle" x="582" y="-231.8" font-family="Times New Roman,serif" font-size="14.00">imported by</text>
</g>
<!-- n14&#45;&gt;n20 -->
<g id="edge25" class="edge"><title>n14&#45;&gt;n20</title>
<path fill="none" stroke="black" d="M515.222,-267.161C510.007,-265.104 504.588,-262.978 499.5,-261 452.292,-242.651 397.883,-221.928 361.772,-208.233"/>
<polygon fill="black" stroke="black" points="362.685,-204.836 352.093,-204.564 360.204,-211.381 362.685,-204.836"/>
<text text-anchor="middle" x="485" y="-231.8" font-family="Times New Roman,serif" font-size="14.00">imported by</text>
</g>
<!-- n22 -->
<g id="node22" class="node"><title>n22</title>
<g id="a_node22"><a xlink:href="./Sample2.owl.svg" xlink:title="http://TurnstileSystem/Sample2">
<polygon fill="none" stroke="black" points="957.5,-405 903.5,-405 903.5,-369 957.5,-369 957.5,-405"/>
<text text-anchor="middle" x="930.5" y="-383.3" font-family="Times New Roman,serif" font-size="14.00">smpl2</text>
</a>
</g>
</g>
<!-- n15&#45;&gt;n22 -->
<g id="edge29" class="edge"><title>n15&#45;&gt;n22</title>
<path fill="none" stroke="black" d="M930.5,-476.969C930.5,-460.378 930.5,-434.883 930.5,-415.431"/>
<polygon fill="black" stroke="black" points="934,-415.341 930.5,-405.341 927,-415.341 934,-415.341"/>
<text text-anchor="middle" x="965" y="-437.3" font-family="Times New Roman,serif" font-size="14.00">imported by</text>
</g>
<!-- n16&#45;&gt;n17 -->
<g id="edge16" class="edge"><title>n16&#45;&gt;n17</title>
<path fill="none" stroke="black" d="M813.973,-314.933C807.563,-277.743 787.19,-188.896 733.5,-141 719.054,-128.113 699.531,-119.882 681.712,-114.667"/>
<polygon fill="black" stroke="black" points="682.597,-111.281 672.032,-112.07 680.783,-118.042 682.597,-111.281"/>
<text text-anchor="middle" x="829" y="-231.8" font-family="Times New Roman,serif" font-size="14.00">imported by</text>
</g>
<!-- n18 -->
<g id="node18" class="node"><title>n18</title>
<g id="a_node18"><a xlink:href="./GenerateCSV.owl.svg" xlink:title="http://TurnstileSystem/GenerateCSV">
<polygon fill="none" stroke="black" points="617.5,-36 561.5,-36 561.5,-0 617.5,-0 617.5,-36"/>
<text text-anchor="middle" x="589.5" y="-14.3" font-family="Times New Roman,serif" font-size="14.00">gencsv</text>
</a>
</g>
</g>
<!-- n17&#45;&gt;n18 -->
<g id="edge21" class="edge"><title>n17&#45;&gt;n18</title>
<path fill="none" stroke="black" d="M628.927,-86.9556C624.903,-77.1074 619.403,-64.6074 613.5,-54 611.764,-50.8795 609.824,-47.6861 607.821,-44.5591"/>
<polygon fill="black" stroke="black" points="610.592,-42.4052 602.123,-36.0383 604.773,-46.2965 610.592,-42.4052"/>
<text text-anchor="middle" x="655" y="-57.8" font-family="Times New Roman,serif" font-size="14.00">imported by</text>
</g>
<!-- n19&#45;&gt;n18 -->
<g id="edge22" class="edge"><title>n19&#45;&gt;n18</title>
<path fill="none" stroke="black" d="M538.276,-86.8912C536.181,-76.7887 535.327,-64.0521 540.5,-54 543.514,-48.1438 548.012,-43.0503 553.081,-38.6987"/>
<polygon fill="black" stroke="black" points="555.487,-41.2692 561.386,-32.4683 551.286,-35.6698 555.487,-41.2692"/>
<text text-anchor="middle" x="575" y="-57.8" font-family="Times New Roman,serif" font-size="14.00">imported by</text>
</g>
<!-- n21 -->
<g id="node21" class="node"><title>n21</title>
<g id="a_node21"><a xlink:href="./SadlBuiltinFunctions.owl.svg" xlink:title="http://sadl.org/builtinfunctions">
<polygon fill="none" stroke="black" points="741.5,-687 639.5,-687 639.5,-651 741.5,-651 741.5,-687"/>
<text text-anchor="middle" x="690.5" y="-665.3" font-family="Times New Roman,serif" font-size="14.00">builtinfunctions</text>
</a>
</g>
</g>
</g>
</svg>
