<?xml version="1.0" encoding="UTF-8" standalone="no"?>
<!DOCTYPE svg PUBLIC "-//W3C//DTD SVG 1.1//EN"
 "http://www.w3.org/Graphics/SVG/1.1/DTD/svg11.dtd">
<!-- Generated by graphviz version 2.38.0 (20140413.2041)
 -->
<!-- Title: gProject Pages: 1 -->
<svg width="1747pt" height="565pt"
 viewBox="0.00 0.00 1746.50 565.00" xmlns="http://www.w3.org/2000/svg" xmlns:xlink="http://www.w3.org/1999/xlink">
<g id="graph0" class="graph" transform="scale(1 1) rotate(0) translate(4 561)">
<title>gProject</title>
<polygon fill="white" stroke="none" points="-4,4 -4,-561 1742.5,-561 1742.5,4 -4,4"/>
<text text-anchor="middle" x="112" y="-541.8" font-family="Times New Roman,serif" font-size="14.00">Project RACK&#45;Ontology import map</text>
<!-- n1 -->
<g id="node1" class="node"><title>n1</title>
<g id="a_node1"><a xlink:href="./PROV-S.owl.svg" xlink:title="http://arcos.rack/PROV&#45;S">
<polygon fill="none" stroke="black" points="1156.5,-534 1102.5,-534 1102.5,-498 1156.5,-498 1156.5,-534"/>
<text text-anchor="middle" x="1129.5" y="-512.3" font-family="Times New Roman,serif" font-size="14.00">provs</text>
</a>
</g>
</g>
<!-- n2 -->
<g id="node2" class="node"><title>n2</title>
<g id="a_node2"><a xlink:href="./AGENTS.owl.svg" xlink:title="http://arcos.rack/AGENTS">
<polygon fill="none" stroke="black" points="1289.5,-447 1235.5,-447 1235.5,-411 1289.5,-411 1289.5,-447"/>
<text text-anchor="middle" x="1262.5" y="-425.3" font-family="Times New Roman,serif" font-size="14.00">Ag</text>
</a>
</g>
</g>
<!-- n1&#45;&gt;n2 -->
<g id="edge1" class="edge"><title>n1&#45;&gt;n2</title>
<path fill="none" stroke="black" d="M1156.56,-500.84C1167.84,-494.714 1180.97,-487.287 1192.5,-480 1205.6,-471.717 1219.59,-461.93 1231.59,-453.221"/>
<polygon fill="black" stroke="black" points="1233.94,-455.841 1239.93,-447.107 1229.8,-450.194 1233.94,-455.841"/>
<text text-anchor="middle" x="1249" y="-468.8" font-family="Times New Roman,serif" font-size="14.00">imported by</text>
</g>
<!-- n3 -->
<g id="node3" class="node"><title>n3</title>
<g id="a_node3"><a xlink:href="./CONFIDENCE.owl.svg" xlink:title="http://arcos.rack/CONFIDENCE">
<polygon fill="none" stroke="black" points="105,-393 0,-393 0,-357 105,-357 105,-393"/>
<text text-anchor="middle" x="52.5" y="-371.3" font-family="Times New Roman,serif" font-size="14.00">CONFIDENCE</text>
</a>
</g>
</g>
<!-- n1&#45;&gt;n3 -->
<g id="edge2" class="edge"><title>n1&#45;&gt;n3</title>
<path fill="none" stroke="black" d="M1102.39,-515.177C938.275,-516.117 83.381,-519.124 45.5,-480 26.0044,-459.865 32.6598,-426.028 40.9598,-402.438"/>
<polygon fill="black" stroke="black" points="44.2564,-403.616 44.5462,-393.025 37.7151,-401.124 44.2564,-403.616"/>
<text text-anchor="middle" x="80" y="-468.8" font-family="Times New Roman,serif" font-size="14.00">imported by</text>
</g>
<!-- n4 -->
<g id="node4" class="node"><title>n4</title>
<g id="a_node4"><a xlink:href="./DOCUMENT.owl.svg" xlink:title="http://arcos.rack/DOCUMENT">
<polygon fill="none" stroke="black" points="447.5,-447 393.5,-447 393.5,-411 447.5,-411 447.5,-447"/>
<text text-anchor="middle" x="420.5" y="-425.3" font-family="Times New Roman,serif" font-size="14.00">D</text>
</a>
</g>
</g>
<!-- n1&#45;&gt;n4 -->
<g id="edge3" class="edge"><title>n1&#45;&gt;n4</title>
<path fill="none" stroke="black" d="M1102.14,-511.72C992.362,-498.559 583.704,-449.566 457.72,-434.462"/>
<polygon fill="black" stroke="black" points="458.123,-430.986 447.778,-433.27 457.29,-437.936 458.123,-430.986"/>
<text text-anchor="middle" x="852" y="-468.8" font-family="Times New Roman,serif" font-size="14.00">imported by</text>
</g>
<!-- n5 -->
<g id="node5" class="node"><title>n5</title>
<g id="a_node5"><a xlink:href="./PROCESS.owl.svg" xlink:title="http://arcos.rack/PROCESS">
<polygon fill="none" stroke="black" points="937.5,-447 883.5,-447 883.5,-411 937.5,-411 937.5,-447"/>
<text text-anchor="middle" x="910.5" y="-425.3" font-family="Times New Roman,serif" font-size="14.00">Pr</text>
</a>
</g>
</g>
<!-- n1&#45;&gt;n5 -->
<g id="edge4" class="edge"><title>n1&#45;&gt;n5</title>
<path fill="none" stroke="black" d="M1102.25,-509.846C1075.28,-504.256 1033.14,-494.192 998.5,-480 980.287,-472.537 961.164,-462.032 945.414,-452.576"/>
<polygon fill="black" stroke="black" points="946.92,-449.394 936.564,-447.161 943.267,-455.365 946.92,-449.394"/>
<text text-anchor="middle" x="1033" y="-468.8" font-family="Times New Roman,serif" font-size="14.00">imported by</text>
</g>
<!-- n6 -->
<g id="node6" class="node"><title>n6</title>
<g id="a_node6"><a xlink:href="./SYSTEM.owl.svg" xlink:title="http://arcos.rack/SYSTEM">
<polygon fill="none" stroke="black" points="1058.5,-339 1004.5,-339 1004.5,-303 1058.5,-303 1058.5,-339"/>
<text text-anchor="middle" x="1031.5" y="-317.3" font-family="Times New Roman,serif" font-size="14.00">sys</text>
</a>
</g>
</g>
<!-- n1&#45;&gt;n6 -->
<g id="edge5" class="edge"><title>n1&#45;&gt;n6</title>
<path fill="none" stroke="black" d="M1119.9,-497.747C1112.6,-484.212 1102.65,-464.755 1095.5,-447 1079.86,-408.138 1089.42,-392.701 1067.5,-357 1065.29,-353.406 1062.64,-349.921 1059.78,-346.631"/>
<polygon fill="black" stroke="black" points="1062.28,-344.186 1052.85,-339.352 1057.21,-349.01 1062.28,-344.186"/>
<text text-anchor="middle" x="1130" y="-425.3" font-family="Times New Roman,serif" font-size="14.00">imported by</text>
</g>
<!-- n7 -->
<g id="node7" class="node"><title>n7</title>
<g id="a_node7"><a xlink:href="./FILE.owl.svg" xlink:title="http://arcos.rack/FILE">
<polygon fill="none" stroke="black" points="1414.5,-447 1360.5,-447 1360.5,-411 1414.5,-411 1414.5,-447"/>
<text text-anchor="middle" x="1387.5" y="-425.3" font-family="Times New Roman,serif" font-size="14.00">file</text>
</a>
</g>
</g>
<!-- n1&#45;&gt;n7 -->
<g id="edge7" class="edge"><title>n1&#45;&gt;n7</title>
<path fill="none" stroke="black" d="M1156.69,-501.146C1159.62,-499.961 1162.59,-498.881 1165.5,-498 1217.96,-482.126 1235.22,-496.462 1287.5,-480 1309.67,-473.018 1332.99,-461.625 1351.52,-451.477"/>
<polygon fill="black" stroke="black" points="1353.46,-454.404 1360.48,-446.467 1350.04,-448.295 1353.46,-454.404"/>
<text text-anchor="middle" x="1360" y="-468.8" font-family="Times New Roman,serif" font-size="14.00">imported by</text>
</g>
<!-- n8 -->
<g id="node8" class="node"><title>n8</title>
<g id="a_node8"><a xlink:href="./REVIEW.owl.svg" xlink:title="http://arcos.rack/REVIEW">
<polygon fill="none" stroke="black" points="192.5,-339 138.5,-339 138.5,-303 192.5,-303 192.5,-339"/>
<text text-anchor="middle" x="165.5" y="-317.3" font-family="Times New Roman,serif" font-size="14.00">Rv</text>
</a>
</g>
</g>
<!-- n1&#45;&gt;n8 -->
<g id="edge8" class="edge"><title>n1&#45;&gt;n8</title>
<path fill="none" stroke="black" d="M1102.47,-514.217C946.17,-509.561 163.746,-484.426 130.5,-447 105.786,-419.178 127.517,-375.24 146.059,-347.552"/>
<polygon fill="black" stroke="black" points="149.052,-349.378 151.904,-339.175 143.311,-345.373 149.052,-349.378"/>
<text text-anchor="middle" x="165" y="-425.3" font-family="Times New Roman,serif" font-size="14.00">imported by</text>
</g>
<!-- n9 -->
<g id="node9" class="node"><title>n9</title>
<g id="a_node9"><a xlink:href="./ANALYSIS.owl.svg" xlink:title="http://arcos.rack/ANALYSIS">
<polygon fill="none" stroke="black" points="284.5,-339 230.5,-339 230.5,-303 284.5,-303 284.5,-339"/>
<text text-anchor="middle" x="257.5" y="-317.3" font-family="Times New Roman,serif" font-size="14.00">An</text>
</a>
</g>
</g>
<!-- n1&#45;&gt;n9 -->
<g id="edge10" class="edge"><title>n1&#45;&gt;n9</title>
<path fill="none" stroke="black" d="M1102.41,-515.332C998.883,-516.057 618.811,-513.744 315.5,-447 298.404,-443.238 177.535,-407.343 167.5,-393 158.328,-379.89 158.466,-370.206 167.5,-357 170.792,-352.187 197.087,-342.268 220.411,-334.215"/>
<polygon fill="black" stroke="black" points="221.811,-337.435 230.149,-330.898 219.554,-330.809 221.811,-337.435"/>
<text text-anchor="middle" x="350" y="-425.3" font-family="Times New Roman,serif" font-size="14.00">imported by</text>
</g>
<!-- n10 -->
<g id="node10" class="node"><title>n10</title>
<g id="a_node10"><a xlink:href="./SACM-S.owl.svg" xlink:title="http://arcos.rack/SACM&#45;S">
<polygon fill="none" stroke="black" points="1597.5,-285 1543.5,-285 1543.5,-249 1597.5,-249 1597.5,-285"/>
<text text-anchor="middle" x="1570.5" y="-263.3" font-family="Times New Roman,serif" font-size="14.00">sacms</text>
</a>
</g>
</g>
<!-- n1&#45;&gt;n10 -->
<g id="edge12" class="edge"><title>n1&#45;&gt;n10</title>
<path fill="none" stroke="black" d="M1156.62,-500.914C1159.56,-499.774 1162.56,-498.768 1165.5,-498 1247.3,-476.652 1486.33,-510.187 1542.5,-447 1580.03,-404.774 1578.68,-333.686 1574.53,-295.022"/>
<polygon fill="black" stroke="black" points="1578,-294.532 1573.32,-285.027 1571.05,-295.376 1578,-294.532"/>
<text text-anchor="middle" x="1599" y="-425.3" font-family="Times New Roman,serif" font-size="14.00">imported by</text>
</g>
<!-- n11 -->
<g id="node11" class="node"><title>n11</title>
<g id="a_node11"><a xlink:href="./HAZARD.owl.svg" xlink:title="http://arcos.rack/HAZARD">
<polygon fill="none" stroke="black" points="1149.5,-231 1095.5,-231 1095.5,-195 1149.5,-195 1149.5,-231"/>
<text text-anchor="middle" x="1122.5" y="-209.3" font-family="Times New Roman,serif" font-size="14.00">H</text>
</a>
</g>
</g>
<!-- n1&#45;&gt;n11 -->
<g id="edge23" class="edge"><title>n1&#45;&gt;n11</title>
<path fill="none" stroke="black" d="M1141.32,-497.735C1149.63,-484.509 1160.03,-465.453 1164.5,-447 1177.39,-393.788 1164.8,-324.575 1140.5,-249 1139.6,-246.195 1138.49,-243.341 1137.27,-240.536"/>
<polygon fill="black" stroke="black" points="1140.32,-238.809 1132.83,-231.32 1134.02,-241.848 1140.32,-238.809"/>
<text text-anchor="middle" x="1205" y="-371.3" font-family="Times New Roman,serif" font-size="14.00">imported by</text>
</g>
<!-- n13 -->
<g id="node13" class="node"><title>n13</title>
<g id="a_node13"><a xlink:href="./SOFTWARE.owl.svg" xlink:title="http://arcos.rack/SOFTWARE">
<polygon fill="none" stroke="black" points="1414.5,-339 1360.5,-339 1360.5,-303 1414.5,-303 1414.5,-339"/>
<text text-anchor="middle" x="1387.5" y="-317.3" font-family="Times New Roman,serif" font-size="14.00">sw</text>
</a>
</g>
</g>
<!-- n1&#45;&gt;n13 -->
<g id="edge14" class="edge"><title>n1&#45;&gt;n13</title>
<path fill="none" stroke="black" d="M1156.63,-500.937C1159.57,-499.793 1162.56,-498.779 1165.5,-498 1215.7,-484.692 1352.92,-504.888 1398.5,-480 1452.23,-450.662 1493.12,-408.807 1460.5,-357 1452.43,-344.175 1438.2,-335.944 1424.44,-330.713"/>
<polygon fill="black" stroke="black" points="1425.19,-327.273 1414.6,-327.411 1422.97,-333.91 1425.19,-327.273"/>
<text text-anchor="middle" x="1504" y="-425.3" font-family="Times New Roman,serif" font-size="14.00">imported by</text>
</g>
<!-- n17 -->
<g id="node17" class="node"><title>n17</title>
<g id="a_node17"><a xlink:href="./TESTING.owl.svg" xlink:title="http://arcos.rack/TESTING">
<polygon fill="none" stroke="black" points="1696.5,-177 1642.5,-177 1642.5,-141 1696.5,-141 1696.5,-177"/>
<text text-anchor="middle" x="1669.5" y="-155.3" font-family="Times New Roman,serif" font-size="14.00">tst</text>
</a>
</g>
</g>
<!-- n1&#45;&gt;n17 -->
<g id="edge24" class="edge"><title>n1&#45;&gt;n17</title>
<path fill="none" stroke="black" d="M1156.61,-500.864C1159.55,-499.734 1162.55,-498.744 1165.5,-498 1312.23,-460.997 1355.85,-502.454 1505.5,-480 1580.86,-468.693 1669.5,-506.201 1669.5,-430 1669.5,-430 1669.5,-430 1669.5,-266 1669.5,-239.237 1669.5,-208.673 1669.5,-187.263"/>
<polygon fill="black" stroke="black" points="1673,-187.258 1669.5,-177.258 1666,-187.258 1673,-187.258"/>
<text text-anchor="middle" x="1704" y="-371.3" font-family="Times New Roman,serif" font-size="14.00">imported by</text>
</g>
<!-- n2&#45;&gt;n13 -->
<g id="edge16" class="edge"><title>n2&#45;&gt;n13</title>
<path fill="none" stroke="black" d="M1271.71,-410.932C1280.86,-395.259 1296.16,-372.224 1314.5,-357 1325.27,-348.058 1338.71,-340.775 1351.12,-335.215"/>
<polygon fill="black" stroke="black" points="1352.5,-338.43 1360.34,-331.3 1349.76,-331.987 1352.5,-338.43"/>
<text text-anchor="middle" x="1349" y="-371.3" font-family="Times New Roman,serif" font-size="14.00">imported by</text>
</g>
<!-- n22 -->
<g id="node22" class="node"><title>n22</title>
<g id="a_node22"><a xlink:href="./GeneratePropInfoCSV.owl.svg" xlink:title="http://arcos.rack/GeneratePropInfoCSV">
<polygon fill="none" stroke="black" points="1198,-36 1113,-36 1113,-0 1198,-0 1198,-36"/>
<text text-anchor="middle" x="1155.5" y="-14.3" font-family="Times New Roman,serif" font-size="14.00">genpropinfo</text>
</a>
</g>
</g>
<!-- n2&#45;&gt;n22 -->
<g id="edge34" class="edge"><title>n2&#45;&gt;n22</title>
<path fill="none" stroke="black" d="M1265.29,-410.864C1275.58,-345.343 1308.64,-111.472 1266.5,-54 1253.04,-35.6421 1229.93,-26.6636 1208.27,-22.3645"/>
<polygon fill="black" stroke="black" points="1208.58,-18.8666 1198.13,-20.6554 1207.41,-25.7692 1208.58,-18.8666"/>
<text text-anchor="middle" x="1322" y="-209.3" font-family="Times New Roman,serif" font-size="14.00">imported by</text>
</g>
<!-- n3&#45;&gt;n22 -->
<g id="edge32" class="edge"><title>n3&#45;&gt;n22</title>
<path fill="none" stroke="black" d="M54.6019,-356.772C56.9722,-335.823 60.5,-299.374 60.5,-268 60.5,-268 60.5,-268 60.5,-104 60.5,-21.3991 157.893,-66.7755 239.5,-54 407.557,-27.6907 933.683,-20.9147 1102.67,-19.3952"/>
<polygon fill="black" stroke="black" points="1102.84,-22.894 1112.81,-19.3065 1102.78,-15.8942 1102.84,-22.894"/>
<text text-anchor="middle" x="95" y="-209.3" font-family="Times New Roman,serif" font-size="14.00">imported by</text>
</g>
<!-- n4&#45;&gt;n6 -->
<g id="edge6" class="edge"><title>n4&#45;&gt;n6</title>
<path fill="none" stroke="black" d="M447.591,-427.229C549.149,-424.2 903.858,-412.326 950.5,-393 963.311,-387.692 988.465,-364.703 1007.36,-346.303"/>
<polygon fill="black" stroke="black" points="1009.84,-348.777 1014.51,-339.269 1004.93,-343.787 1009.84,-348.777"/>
<text text-anchor="middle" x="1030" y="-371.3" font-family="Times New Roman,serif" font-size="14.00">imported by</text>
</g>
<!-- n4&#45;&gt;n8 -->
<g id="edge9" class="edge"><title>n4&#45;&gt;n8</title>
<path fill="none" stroke="black" d="M393.499,-423.973C332.442,-414.861 188.989,-393.415 188.5,-393 175.737,-382.17 169.998,-364.19 167.444,-349.034"/>
<polygon fill="black" stroke="black" points="170.914,-348.572 166.138,-339.115 163.974,-349.486 170.914,-348.572"/>
<text text-anchor="middle" x="223" y="-371.3" font-family="Times New Roman,serif" font-size="14.00">imported by</text>
</g>
<!-- n4&#45;&gt;n9 -->
<g id="edge11" class="edge"><title>n4&#45;&gt;n9</title>
<path fill="none" stroke="black" d="M393.448,-424.481C357.266,-419.252 295.774,-408.369 279.5,-393 267.572,-381.735 262.065,-364.147 259.544,-349.295"/>
<polygon fill="black" stroke="black" points="262.975,-348.544 258.187,-339.093 256.036,-349.468 262.975,-348.544"/>
<text text-anchor="middle" x="314" y="-371.3" font-family="Times New Roman,serif" font-size="14.00">imported by</text>
</g>
<!-- n14 -->
<g id="node14" class="node"><title>n14</title>
<g id="a_node14"><a xlink:href="./ARP-4754A.owl.svg" xlink:title="http://common/ARP&#45;4754A">
<polygon fill="none" stroke="black" points="604.5,-339 518.5,-339 518.5,-303 604.5,-303 604.5,-339"/>
<text text-anchor="middle" x="561.5" y="-317.3" font-family="Times New Roman,serif" font-size="14.00">ARP&#45;4754A</text>
</a>
</g>
</g>
<!-- n4&#45;&gt;n14 -->
<g id="edge17" class="edge"><title>n4&#45;&gt;n14</title>
<path fill="none" stroke="black" d="M415.372,-410.863C411.799,-395.142 409.559,-372.074 421.5,-357 427.117,-349.909 470.953,-339.68 508.098,-332.11"/>
<polygon fill="black" stroke="black" points="509.245,-335.45 518.36,-330.05 507.867,-328.586 509.245,-335.45"/>
<text text-anchor="middle" x="456" y="-371.3" font-family="Times New Roman,serif" font-size="14.00">imported by</text>
</g>
<!-- n16 -->
<g id="node16" class="node"><title>n16</title>
<g id="a_node16"><a xlink:href="./MIL-STD-881D.owl.svg" xlink:title="http://arcos.rack/MIL&#45;STD&#45;881D/MIL&#45;STD&#45;881D">
<polygon fill="none" stroke="black" points="790,-231 733,-231 733,-195 790,-195 790,-231"/>
<text text-anchor="middle" x="761.5" y="-209.3" font-family="Times New Roman,serif" font-size="14.00">m881D</text>
</a>
</g>
</g>
<!-- n4&#45;&gt;n16 -->
<g id="edge20" class="edge"><title>n4&#45;&gt;n16</title>
<path fill="none" stroke="black" d="M413.951,-410.801C412.132,-405.209 410.408,-398.918 409.5,-393 403.083,-351.183 407.08,-328.941 440.5,-303 525.752,-236.827 657.284,-219.836 722.325,-215.487"/>
<polygon fill="black" stroke="black" points="722.778,-218.966 732.549,-214.871 722.357,-211.978 722.778,-218.966"/>
<text text-anchor="middle" x="475" y="-317.3" font-family="Times New Roman,serif" font-size="14.00">imported by</text>
</g>
<!-- n18 -->
<g id="node18" class="node"><title>n18</title>
<g id="a_node18"><a xlink:href="./DO-330.owl.svg" xlink:title="http://common/DO&#45;330">
<polygon fill="none" stroke="black" points="685.5,-339 623.5,-339 623.5,-303 685.5,-303 685.5,-339"/>
<text text-anchor="middle" x="654.5" y="-317.3" font-family="Times New Roman,serif" font-size="14.00">DO&#45;330</text>
</a>
</g>
</g>
<!-- n4&#45;&gt;n18 -->
<g id="edge25" class="edge"><title>n4&#45;&gt;n18</title>
<path fill="none" stroke="black" d="M447.833,-418.387C461.705,-412.56 478.18,-404.091 490.5,-393 504.611,-380.297 497.725,-367.566 513.5,-357 551.02,-331.869 570.17,-351.722 613.5,-339 613.602,-338.97 613.703,-338.94 613.805,-338.91"/>
<polygon fill="black" stroke="black" points="615.035,-342.189 623.41,-335.701 612.816,-335.55 615.035,-342.189"/>
<text text-anchor="middle" x="548" y="-371.3" font-family="Times New Roman,serif" font-size="14.00">imported by</text>
</g>
<!-- n19 -->
<g id="node19" class="node"><title>n19</title>
<g id="a_node19"><a xlink:href="./DO-178C.owl.svg" xlink:title="http://common/DO&#45;178C">
<polygon fill="none" stroke="black" points="775,-339 704,-339 704,-303 775,-303 775,-339"/>
<text text-anchor="middle" x="739.5" y="-317.3" font-family="Times New Roman,serif" font-size="14.00">DO&#45;178C</text>
</a>
</g>
</g>
<!-- n4&#45;&gt;n19 -->
<g id="edge27" class="edge"><title>n4&#45;&gt;n19</title>
<path fill="none" stroke="black" d="M447.709,-427.332C505.532,-425.43 638.315,-418.347 674.5,-393 689.318,-382.62 681.804,-370.802 693.5,-357 696.9,-352.988 700.836,-349.152 704.945,-345.588"/>
<polygon fill="black" stroke="black" points="707.397,-348.106 712.967,-339.094 702.992,-342.665 707.397,-348.106"/>
<text text-anchor="middle" x="728" y="-371.3" font-family="Times New Roman,serif" font-size="14.00">imported by</text>
</g>
<!-- n4&#45;&gt;n22 -->
<g id="edge30" class="edge"><title>n4&#45;&gt;n22</title>
<path fill="none" stroke="black" d="M411.33,-410.85C408.57,-405.26 405.695,-398.959 403.5,-393 379.39,-327.543 286.252,-138.318 333.5,-87 385.599,-30.4132 929.281,-20.9121 1102.68,-19.3198"/>
<polygon fill="black" stroke="black" points="1102.86,-22.8184 1112.83,-19.2318 1102.8,-15.8187 1102.86,-22.8184"/>
<text text-anchor="middle" x="375" y="-209.3" font-family="Times New Roman,serif" font-size="14.00">imported by</text>
</g>
<!-- n5&#45;&gt;n14 -->
<g id="edge18" class="edge"><title>n5&#45;&gt;n14</title>
<path fill="none" stroke="black" d="M883.061,-428.097C816.195,-427.838 646.982,-424.048 601.5,-393 586.558,-382.8 591.38,-372.763 582.5,-357 580.865,-354.098 579.123,-351.082 577.368,-348.092"/>
<polygon fill="black" stroke="black" points="580.279,-346.14 572.158,-339.337 574.264,-349.72 580.279,-346.14"/>
<text text-anchor="middle" x="636" y="-371.3" font-family="Times New Roman,serif" font-size="14.00">imported by</text>
</g>
<!-- n5&#45;&gt;n16 -->
<g id="edge21" class="edge"><title>n5&#45;&gt;n16</title>
<path fill="none" stroke="black" d="M937.685,-424.685C972.485,-419.819 1029.81,-409.489 1042.5,-393 1052.26,-380.319 1052.91,-369.15 1042.5,-357 1008.55,-317.381 974.531,-359.372 926.5,-339 870.01,-315.041 815.475,-267.436 785.416,-238.386"/>
<polygon fill="black" stroke="black" points="787.55,-235.576 777.96,-231.072 782.648,-240.574 787.55,-235.576"/>
<text text-anchor="middle" x="961" y="-317.3" font-family="Times New Roman,serif" font-size="14.00">imported by</text>
</g>
<!-- n5&#45;&gt;n18 -->
<g id="edge26" class="edge"><title>n5&#45;&gt;n18</title>
<path fill="none" stroke="black" d="M883.299,-426.532C855.895,-423.757 813.733,-415.789 785.5,-393 771.422,-381.637 780.736,-368.165 766.5,-357 742.776,-338.394 728.396,-347.522 695.543,-338.805"/>
<polygon fill="black" stroke="black" points="696.349,-335.392 685.764,-335.836 694.315,-342.09 696.349,-335.392"/>
<text text-anchor="middle" x="820" y="-371.3" font-family="Times New Roman,serif" font-size="14.00">imported by</text>
</g>
<!-- n5&#45;&gt;n19 -->
<g id="edge28" class="edge"><title>n5&#45;&gt;n19</title>
<path fill="none" stroke="black" d="M895.61,-410.891C890.943,-405.304 885.871,-398.993 881.5,-393 870.311,-377.661 873.682,-368.402 858.5,-357 837.256,-341.045 808.849,-332.339 785.118,-327.601"/>
<polygon fill="black" stroke="black" points="785.734,-324.156 775.268,-325.804 784.478,-331.042 785.734,-324.156"/>
<text text-anchor="middle" x="916" y="-371.3" font-family="Times New Roman,serif" font-size="14.00">imported by</text>
</g>
<!-- n5&#45;&gt;n22 -->
<g id="edge33" class="edge"><title>n5&#45;&gt;n22</title>
<path fill="none" stroke="black" d="M937.716,-427.377C969.664,-425.43 1023.03,-418.271 1060.5,-393 1092.98,-371.091 1234.98,-135.182 1238.5,-123 1242.94,-107.627 1245.35,-101.461 1238.5,-87 1229.61,-68.2182 1212.7,-52.8928 1196.46,-41.5779"/>
<polygon fill="black" stroke="black" points="1198.34,-38.6271 1188.07,-36.0295 1194.48,-44.4655 1198.34,-38.6271"/>
<text text-anchor="middle" x="1231" y="-209.3" font-family="Times New Roman,serif" font-size="14.00">imported by</text>
</g>
<!-- n6&#45;&gt;n11 -->
<g id="edge22" class="edge"><title>n6&#45;&gt;n11</title>
<path fill="none" stroke="black" d="M1037.17,-302.975C1042.95,-287.548 1053.11,-264.867 1067.5,-249 1073.01,-242.929 1079.8,-237.491 1086.71,-232.815"/>
<polygon fill="black" stroke="black" points="1088.85,-235.605 1095.44,-227.309 1085.11,-229.684 1088.85,-235.605"/>
<text text-anchor="middle" x="1102" y="-263.3" font-family="Times New Roman,serif" font-size="14.00">imported by</text>
</g>
<!-- n6&#45;&gt;n16 -->
<g id="edge19" class="edge"><title>n6&#45;&gt;n16</title>
<path fill="none" stroke="black" d="M1004.47,-309.051C981.142,-299.533 950.831,-286.966 948.5,-285 933.986,-272.759 941.103,-259.819 925.5,-249 888.424,-223.292 836.139,-215.883 800.644,-214.039"/>
<polygon fill="black" stroke="black" points="800.332,-210.524 790.203,-213.631 800.059,-217.519 800.332,-210.524"/>
<text text-anchor="middle" x="983" y="-263.3" font-family="Times New Roman,serif" font-size="14.00">imported by</text>
</g>
<!-- n6&#45;&gt;n22 -->
<g id="edge36" class="edge"><title>n6&#45;&gt;n22</title>
<path fill="none" stroke="black" d="M1027.45,-302.973C1017.33,-255.77 996.464,-122.24 1065.5,-54 1075.86,-43.7575 1089.56,-36.4356 1103.14,-31.2318"/>
<polygon fill="black" stroke="black" points="1104.66,-34.4061 1112.95,-27.8055 1102.36,-27.7973 1104.66,-34.4061"/>
<text text-anchor="middle" x="1057" y="-155.3" font-family="Times New Roman,serif" font-size="14.00">imported by</text>
</g>
<!-- n7&#45;&gt;n13 -->
<g id="edge15" class="edge"><title>n7&#45;&gt;n13</title>
<path fill="none" stroke="black" d="M1387.5,-410.969C1387.5,-394.378 1387.5,-368.883 1387.5,-349.431"/>
<polygon fill="black" stroke="black" points="1391,-349.341 1387.5,-339.341 1384,-349.341 1391,-349.341"/>
<text text-anchor="middle" x="1422" y="-371.3" font-family="Times New Roman,serif" font-size="14.00">imported by</text>
</g>
<!-- n7&#45;&gt;n22 -->
<g id="edge41" class="edge"><title>n7&#45;&gt;n22</title>
<path fill="none" stroke="black" d="M1414.6,-420.877C1429.46,-415.586 1446.96,-406.836 1457.5,-393 1476.99,-367.413 1471.5,-354.163 1471.5,-322 1471.5,-322 1471.5,-322 1471.5,-104 1471.5,-50.1176 1298,-29.4175 1208.12,-22.309"/>
<polygon fill="black" stroke="black" points="1208.35,-18.8166 1198.12,-21.5465 1207.82,-25.7964 1208.35,-18.8166"/>
<text text-anchor="middle" x="1506" y="-209.3" font-family="Times New Roman,serif" font-size="14.00">imported by</text>
</g>
<!-- n8&#45;&gt;n22 -->
<g id="edge40" class="edge"><title>n8&#45;&gt;n22</title>
<path fill="none" stroke="black" d="M161.284,-302.819C154.066,-269.528 142.572,-194.783 169.5,-141 197.562,-84.9515 221.671,-75.633 280.5,-54 357.403,-25.721 925.292,-20.2498 1102.7,-19.2271"/>
<polygon fill="black" stroke="black" points="1102.85,-22.7264 1112.83,-19.1712 1102.81,-15.7266 1102.85,-22.7264"/>
<text text-anchor="middle" x="204" y="-155.3" font-family="Times New Roman,serif" font-size="14.00">imported by</text>
</g>
<!-- n9&#45;&gt;n22 -->
<g id="edge37" class="edge"><title>n9&#45;&gt;n22</title>
<path fill="none" stroke="black" d="M253.291,-302.9C242.166,-253.06 218.184,-108.045 300.5,-54 334.096,-31.942 921.964,-22.165 1102.92,-19.6693"/>
<polygon fill="black" stroke="black" points="1103.04,-23.1681 1113,-19.5321 1102.95,-16.1687 1103.04,-23.1681"/>
<text text-anchor="middle" x="282" y="-155.3" font-family="Times New Roman,serif" font-size="14.00">imported by</text>
</g>
<!-- n10&#45;&gt;n22 -->
<g id="edge42" class="edge"><title>n10&#45;&gt;n22</title>
<path fill="none" stroke="black" d="M1569.41,-248.99C1565.76,-207.731 1550.22,-102.196 1485.5,-54 1442.85,-22.2389 1290.11,-18.0843 1208.23,-18.2373"/>
<polygon fill="black" stroke="black" points="1208.12,-14.7377 1198.13,-18.2788 1208.14,-21.7376 1208.12,-14.7377"/>
<text text-anchor="middle" x="1592" y="-155.3" font-family="Times New Roman,serif" font-size="14.00">imported by</text>
</g>
<!-- n12 -->
<g id="node12" class="node"><title>n12</title>
<g id="a_node12"><a xlink:href="./REQUIREMENTS.owl.svg" xlink:title="http://arcos.rack/REQUIREMENTS">
<polygon fill="none" stroke="black" points="1119.5,-123 1065.5,-123 1065.5,-87 1119.5,-87 1119.5,-123"/>
<text text-anchor="middle" x="1092.5" y="-101.3" font-family="Times New Roman,serif" font-size="14.00">Rq</text>
</a>
</g>
</g>
<!-- n11&#45;&gt;n12 -->
<g id="edge13" class="edge"><title>n11&#45;&gt;n12</title>
<path fill="none" stroke="black" d="M1117.68,-194.969C1112.96,-178.301 1105.7,-152.646 1100.19,-133.161"/>
<polygon fill="black" stroke="black" points="1103.5,-132.01 1097.41,-123.341 1096.76,-133.916 1103.5,-132.01"/>
<text text-anchor="middle" x="1147" y="-155.3" font-family="Times New Roman,serif" font-size="14.00">imported by</text>
</g>
<!-- n11&#45;&gt;n22 -->
<g id="edge39" class="edge"><title>n11&#45;&gt;n22</title>
<path fill="none" stroke="black" d="M1149.58,-200.33C1164.69,-193.2 1181.31,-184.117 1185.5,-177 1193.61,-163.21 1191.19,-155.956 1185.5,-141 1181.7,-130.995 1173.96,-132.728 1169.5,-123 1158.32,-98.6362 1155.37,-67.9222 1154.88,-46.2066"/>
<polygon fill="black" stroke="black" points="1158.38,-46.0219 1154.81,-36.0446 1151.38,-46.0668 1158.38,-46.0219"/>
<text text-anchor="middle" x="1204" y="-101.3" font-family="Times New Roman,serif" font-size="14.00">imported by</text>
</g>
<!-- n12&#45;&gt;n22 -->
<g id="edge35" class="edge"><title>n12&#45;&gt;n22</title>
<path fill="none" stroke="black" d="M1077.85,-86.9457C1071.04,-76.8626 1065.78,-64.1271 1072.5,-54 1079.8,-42.9933 1091.32,-35.4396 1103.48,-30.2585"/>
<polygon fill="black" stroke="black" points="1104.72,-33.5342 1112.85,-26.741 1102.25,-26.9813 1104.72,-33.5342"/>
<text text-anchor="middle" x="1107" y="-57.8" font-family="Times New Roman,serif" font-size="14.00">imported by</text>
</g>
<!-- n13&#45;&gt;n22 -->
<g id="edge31" class="edge"><title>n13&#45;&gt;n22</title>
<path fill="none" stroke="black" d="M1387.94,-302.657C1388.12,-254.635 1381.48,-119.18 1304.5,-54 1277.99,-31.5534 1239.7,-22.9047 1208.58,-19.8154"/>
<polygon fill="black" stroke="black" points="1208.58,-16.3036 1198.32,-18.9689 1208,-23.2799 1208.58,-16.3036"/>
<text text-anchor="middle" x="1408" y="-155.3" font-family="Times New Roman,serif" font-size="14.00">imported by</text>
</g>
<!-- n15 -->
<g id="node15" class="node"><title>n15</title>
<g id="a_node15"><a xlink:href="./SadlImplicitModel.owl.svg" xlink:title="http://sadl.org/sadlimplicitmodel">
<polygon fill="none" stroke="black" points="1288.5,-534 1174.5,-534 1174.5,-498 1288.5,-498 1288.5,-534"/>
<text text-anchor="middle" x="1231.5" y="-512.3" font-family="Times New Roman,serif" font-size="14.00">sadlimplicitmodel</text>
</a>
</g>
</g>
<!-- n21 -->
<g id="node21" class="node"><title>n21</title>
<g id="a_node21"><a xlink:href="./MIL-STD-881D-AppxB.owl.svg" xlink:title="http://arcos.rack/MIL&#45;STD&#45;881D/MIL&#45;STD&#45;881D&#45;AppxB">
<polygon fill="none" stroke="black" points="666.5,-123 514.5,-123 514.5,-87 666.5,-87 666.5,-123"/>
<text text-anchor="middle" x="590.5" y="-101.3" font-family="Times New Roman,serif" font-size="14.00">MIL&#45;STD&#45;881D&#45;AppxB</text>
</a>
</g>
</g>
<!-- n16&#45;&gt;n21 -->
<g id="edge29" class="edge"><title>n16&#45;&gt;n21</title>
<path fill="none" stroke="black" d="M732.803,-199.69C719.092,-193.446 702.63,-185.413 688.5,-177 664.44,-162.675 638.87,-144.022 619.884,-129.43"/>
<polygon fill="black" stroke="black" points="621.96,-126.611 611.914,-123.246 617.669,-132.141 621.96,-126.611"/>
<text text-anchor="middle" x="723" y="-155.3" font-family="Times New Roman,serif" font-size="14.00">imported by</text>
</g>
<!-- n23 -->
<g id="node23" class="node"><title>n23</title>
<g id="a_node23"><a xlink:href="./MIL-STD-881D-AppxA.owl.svg" xlink:title="http://arcos.rack/MIL&#45;STD&#45;881D/MIL&#45;STD&#45;881D&#45;AppxA">
<polygon fill="none" stroke="black" points="838,-123 685,-123 685,-87 838,-87 838,-123"/>
<text text-anchor="middle" x="761.5" y="-101.3" font-family="Times New Roman,serif" font-size="14.00">MIL&#45;STD&#45;881D&#45;AppxA</text>
</a>
</g>
</g>
<!-- n16&#45;&gt;n23 -->
<g id="edge43" class="edge"><title>n16&#45;&gt;n23</title>
<path fill="none" stroke="black" d="M761.5,-194.969C761.5,-178.378 761.5,-152.883 761.5,-133.431"/>
<polygon fill="black" stroke="black" points="765,-133.341 761.5,-123.341 758,-133.341 765,-133.341"/>
<text text-anchor="middle" x="796" y="-155.3" font-family="Times New Roman,serif" font-size="14.00">imported by</text>
</g>
<!-- n24 -->
<g id="node24" class="node"><title>n24</title>
<g id="a_node24"><a xlink:href="./MIL-STD-881D-AppxC.owl.svg" xlink:title="http://arcos.rack/MIL&#45;STD&#45;881D/MIL&#45;STD&#45;881D&#45;AppxC">
<polygon fill="none" stroke="black" points="1009,-123 856,-123 856,-87 1009,-87 1009,-123"/>
<text text-anchor="middle" x="932.5" y="-101.3" font-family="Times New Roman,serif" font-size="14.00">MIL&#45;STD&#45;881D&#45;AppxC</text>
</a>
</g>
</g>
<!-- n16&#45;&gt;n24 -->
<g id="edge44" class="edge"><title>n16&#45;&gt;n24</title>
<path fill="none" stroke="black" d="M790.197,-199.69C803.908,-193.446 820.37,-185.413 834.5,-177 858.56,-162.675 884.13,-144.022 903.116,-129.43"/>
<polygon fill="black" stroke="black" points="905.331,-132.141 911.086,-123.246 901.04,-126.611 905.331,-132.141"/>
<text text-anchor="middle" x="921" y="-155.3" font-family="Times New Roman,serif" font-size="14.00">imported by</text>
</g>
<!-- n25 -->
<g id="node25" class="node"><title>n25</title>
<g id="a_node25"><a xlink:href="./MIL-STD-881D-AppxD.owl.svg" xlink:title="http://arcos.rack/MIL&#45;STD&#45;881D/MIL&#45;STD&#45;881D&#45;AppxD">
<polygon fill="none" stroke="black" points="496,-123 343,-123 343,-87 496,-87 496,-123"/>
<text text-anchor="middle" x="419.5" y="-101.3" font-family="Times New Roman,serif" font-size="14.00">MIL&#45;STD&#45;881D&#45;AppxD</text>
</a>
</g>
</g>
<!-- n16&#45;&gt;n25 -->
<g id="edge45" class="edge"><title>n16&#45;&gt;n25</title>
<path fill="none" stroke="black" d="M732.836,-209.441C693.937,-205.402 622.618,-195.975 564.5,-177 526.392,-164.558 485.606,-143.857 457.03,-128.01"/>
<polygon fill="black" stroke="black" points="458.632,-124.896 448.199,-123.051 455.205,-130.999 458.632,-124.896"/>
<text text-anchor="middle" x="599" y="-155.3" font-family="Times New Roman,serif" font-size="14.00">imported by</text>
</g>
<!-- n17&#45;&gt;n22 -->
<g id="edge38" class="edge"><title>n17&#45;&gt;n22</title>
<path fill="none" stroke="black" d="M1660.78,-140.694C1647.54,-116.506 1619.91,-73.3823 1582.5,-54 1518.63,-20.9143 1307.55,-17.8436 1208.15,-18.3201"/>
<polygon fill="black" stroke="black" points="1208,-14.8208 1198.02,-18.3828 1208.04,-21.8207 1208,-14.8208"/>
<text text-anchor="middle" x="1685" y="-101.3" font-family="Times New Roman,serif" font-size="14.00">imported by</text>
</g>
<!-- n20 -->
<g id="node20" class="node"><title>n20</title>
<g id="a_node20"><a xlink:href="./SadlBuiltinFunctions.owl.svg" xlink:title="http://sadl.org/builtinfunctions">
<polygon fill="none" stroke="black" points="1408.5,-534 1306.5,-534 1306.5,-498 1408.5,-498 1408.5,-534"/>
<text text-anchor="middle" x="1357.5" y="-512.3" font-family="Times New Roman,serif" font-size="14.00">builtinfunctions</text>
</a>
</g>
</g>
</g>
</svg>
