<?xml version="1.0" encoding="UTF-8" standalone="no"?>
<!DOCTYPE svg PUBLIC "-//W3C//DTD SVG 1.1//EN"
 "http://www.w3.org/Graphics/SVG/1.1/DTD/svg11.dtd">
<!-- Generated by graphviz version 2.38.0 (20140413.2041)
 -->
<!-- Title: gProject Pages: 1 -->
<svg width="2265pt" height="610pt"
 viewBox="0.00 0.00 2264.50 610.00" xmlns="http://www.w3.org/2000/svg" xmlns:xlink="http://www.w3.org/1999/xlink">
<g id="graph0" class="graph" transform="scale(1 1) rotate(0) translate(4 606)">
<title>gProject</title>
<polygon fill="white" stroke="none" points="-4,4 -4,-606 2260.5,-606 2260.5,4 -4,4"/>
<text text-anchor="middle" x="112" y="-586.8" font-family="Times New Roman,serif" font-size="14.00">Project RACK&#45;Ontology import map</text>
<!-- n1 -->
<g id="node1" class="node"><title>n1</title>
<g id="a_node1"><a xlink:href="./SYSTEM.owl.svg" xlink:title="http://arcos.rack/SYSTEM">
<polygon fill="none" stroke="black" points="733,-405 679,-405 679,-369 733,-369 733,-405"/>
<text text-anchor="middle" x="706" y="-383.3" font-family="Times New Roman,serif" font-size="14.00">sys</text>
</a>
</g>
</g>
<!-- n2 -->
<g id="node2" class="node"><title>n2</title>
<g id="a_node2"><a xlink:href="./CounterApplication.owl.svg" xlink:title="http://TurnstileSystem/CounterApplication">
<polygon fill="none" stroke="black" points="648.5,-297 585.5,-297 585.5,-261 648.5,-261 648.5,-297"/>
<text text-anchor="middle" x="617" y="-275.3" font-family="Times New Roman,serif" font-size="14.00">trnstlsys</text>
</a>
</g>
</g>
<!-- n1&#45;&gt;n2 -->
<g id="edge1" class="edge"><title>n1&#45;&gt;n2</title>
<path fill="none" stroke="black" d="M678.973,-370.052C671.26,-364.658 663.259,-358.164 657,-351 645.097,-337.376 646.88,-330.763 638,-315 636.365,-312.098 634.623,-309.082 632.868,-306.092"/>
<polygon fill="black" stroke="black" points="635.779,-304.14 627.658,-297.337 629.764,-307.72 635.779,-304.14"/>
<text text-anchor="middle" x="691.5" y="-329.3" font-family="Times New Roman,serif" font-size="14.00">imported by</text>
</g>
<!-- n7 -->
<g id="node7" class="node"><title>n7</title>
<g id="a_node7"><a xlink:href="./Turnstiles.owl.svg" xlink:title="http://TurnstileSystem/TurnStiles">
<polygon fill="none" stroke="black" points="821,-297 767,-297 767,-261 821,-261 821,-297"/>
<text text-anchor="middle" x="794" y="-275.3" font-family="Times New Roman,serif" font-size="14.00">trnstl</text>
</a>
</g>
</g>
<!-- n1&#45;&gt;n7 -->
<g id="edge5" class="edge"><title>n1&#45;&gt;n7</title>
<path fill="none" stroke="black" d="M717.831,-368.986C721.744,-363.294 726.095,-356.898 730,-351 740.481,-335.168 740.533,-329.32 753,-315 756.37,-311.129 760.178,-307.31 764.082,-303.699"/>
<polygon fill="black" stroke="black" points="766.433,-306.291 771.616,-297.051 761.802,-301.043 766.433,-306.291"/>
<text text-anchor="middle" x="787.5" y="-329.3" font-family="Times New Roman,serif" font-size="14.00">imported by</text>
</g>
<!-- n17 -->
<g id="node17" class="node"><title>n17</title>
<g id="a_node17"><a xlink:href="./CounterApplicationLLR.owl.svg" xlink:title="http://TurnstileSystem/CounterApplicationLLR">
<polygon fill="none" stroke="black" points="513,-123 443,-123 443,-87 513,-87 513,-123"/>
<text text-anchor="middle" x="478" y="-101.3" font-family="Times New Roman,serif" font-size="14.00">cntrappllr</text>
</a>
</g>
</g>
<!-- n2&#45;&gt;n17 -->
<g id="edge20" class="edge"><title>n2&#45;&gt;n17</title>
<path fill="none" stroke="black" d="M603.164,-260.879C578.498,-230.357 526.836,-166.43 498.198,-130.993"/>
<polygon fill="black" stroke="black" points="500.788,-128.629 491.78,-123.052 495.343,-133.029 500.788,-128.629"/>
<text text-anchor="middle" x="596.5" y="-188.3" font-family="Times New Roman,serif" font-size="14.00">imported by</text>
</g>
<!-- n3 -->
<g id="node3" class="node"><title>n3</title>
<g id="a_node3"><a xlink:href="./Turnstiles.owl.svg" xlink:title="http://TurnstileSystem/Turnstiles">
<polygon fill="none" stroke="black" points="355.5,-405 158.5,-405 158.5,-369 355.5,-369 355.5,-405"/>
<text text-anchor="middle" x="257" y="-383.3" font-family="Times New Roman,serif" font-size="14.00">http://TurnstileSystem/Turnstiles</text>
</a>
</g>
</g>
<!-- n3&#45;&gt;n2 -->
<g id="edge2" class="edge"><title>n3&#45;&gt;n2</title>
<path fill="none" stroke="black" d="M296.6,-368.935C335.489,-352.813 396.84,-329.064 452,-315 503.832,-301.784 519.2,-310.34 571,-297 572.443,-296.628 573.903,-296.228 575.373,-295.805"/>
<polygon fill="black" stroke="black" points="576.611,-299.084 585.095,-292.738 574.505,-292.409 576.611,-299.084"/>
<text text-anchor="middle" x="486.5" y="-329.3" font-family="Times New Roman,serif" font-size="14.00">imported by</text>
</g>
<!-- n10 -->
<g id="node10" class="node"><title>n10</title>
<g id="a_node10"><a xlink:href="./HazardAssesment.owl.svg" xlink:title="http://TurnstileSystem/HazardAssesment">
<polygon fill="none" stroke="black" points="252,-297 198,-297 198,-261 252,-261 252,-297"/>
<text text-anchor="middle" x="225" y="-275.3" font-family="Times New Roman,serif" font-size="14.00">ha</text>
</a>
</g>
</g>
<!-- n3&#45;&gt;n10 -->
<g id="edge9" class="edge"><title>n3&#45;&gt;n10</title>
<path fill="none" stroke="black" d="M221.261,-368.861C214.725,-364.032 208.784,-358.108 205,-351 197.568,-337.039 201.962,-320.025 208.5,-306.152"/>
<polygon fill="black" stroke="black" points="211.691,-307.605 213.251,-297.125 205.496,-304.345 211.691,-307.605"/>
<text text-anchor="middle" x="239.5" y="-329.3" font-family="Times New Roman,serif" font-size="14.00">imported by</text>
</g>
<!-- n12 -->
<g id="node12" class="node"><title>n12</title>
<g id="a_node12"><a xlink:href="./InGateRequirements.owl.svg" xlink:title="http://TurnstileSystem/InGateRequirement">
<polygon fill="none" stroke="black" points="350.5,-210 289.5,-210 289.5,-174 350.5,-174 350.5,-210"/>
<text text-anchor="middle" x="320" y="-188.3" font-family="Times New Roman,serif" font-size="14.00">ingaterq</text>
</a>
</g>
</g>
<!-- n3&#45;&gt;n12 -->
<g id="edge11" class="edge"><title>n3&#45;&gt;n12</title>
<path fill="none" stroke="black" d="M266.048,-368.803C268.801,-363.211 271.703,-356.92 274,-351 283.304,-327.019 302.279,-258.601 312.716,-220.124"/>
<polygon fill="black" stroke="black" points="316.187,-220.695 315.418,-210.128 309.43,-218.868 316.187,-220.695"/>
<text text-anchor="middle" x="336.5" y="-275.3" font-family="Times New Roman,serif" font-size="14.00">imported by</text>
</g>
<!-- n13 -->
<g id="node13" class="node"><title>n13</title>
<g id="a_node13"><a xlink:href="./CounterApplicationRequirements.owl.svg" xlink:title="http://TurnstileSystem/CounterApplicationRequirements">
<polygon fill="none" stroke="black" points="225.5,-210 154.5,-210 154.5,-174 225.5,-174 225.5,-210"/>
<text text-anchor="middle" x="190" y="-188.3" font-family="Times New Roman,serif" font-size="14.00">cntrapprq</text>
</a>
</g>
</g>
<!-- n3&#45;&gt;n13 -->
<g id="edge14" class="edge"><title>n3&#45;&gt;n13</title>
<path fill="none" stroke="black" d="M227.006,-368.828C217.623,-363.29 207.295,-357.024 198,-351 174.717,-335.91 169.878,-330.696 147,-315 135.108,-306.841 126.805,-309.716 120,-297 104.991,-268.956 117.415,-251.363 139,-228 142.968,-223.705 147.556,-219.654 152.32,-215.937"/>
<polygon fill="black" stroke="black" points="154.417,-218.739 160.425,-210.013 150.286,-213.087 154.417,-218.739"/>
<text text-anchor="middle" x="154.5" y="-275.3" font-family="Times New Roman,serif" font-size="14.00">imported by</text>
</g>
<!-- n4 -->
<g id="node4" class="node"><title>n4</title>
<g id="a_node4"><a xlink:href="./PROV-S.owl.svg" xlink:title="http://arcos.rack/PROV&#45;S">
<polygon fill="none" stroke="black" points="849,-492 795,-492 795,-456 849,-456 849,-492"/>
<text text-anchor="middle" x="822" y="-470.3" font-family="Times New Roman,serif" font-size="14.00">provs</text>
</a>
</g>
</g>
<!-- n4&#45;&gt;n1 -->
<g id="edge27" class="edge"><title>n4&#45;&gt;n1</title>
<path fill="none" stroke="black" d="M794.871,-473.201C767.781,-471.773 727.335,-464.879 707,-438 702.192,-431.645 700.703,-423.42 700.771,-415.483"/>
<polygon fill="black" stroke="black" points="704.269,-415.651 701.61,-405.395 697.293,-415.071 704.269,-415.651"/>
<text text-anchor="middle" x="741.5" y="-426.8" font-family="Times New Roman,serif" font-size="14.00">imported by</text>
</g>
<!-- n5 -->
<g id="node5" class="node"><title>n5</title>
<g id="a_node5"><a xlink:href="./ANALYSIS.owl.svg" xlink:title="http://arcos.rack/ANALYSIS">
<polygon fill="none" stroke="black" points="931,-405 877,-405 877,-369 931,-369 931,-405"/>
<text text-anchor="middle" x="904" y="-383.3" font-family="Times New Roman,serif" font-size="14.00">A</text>
</a>
</g>
</g>
<!-- n4&#45;&gt;n5 -->
<g id="edge3" class="edge"><title>n4&#45;&gt;n5</title>
<path fill="none" stroke="black" d="M831.294,-455.661C837.254,-445.477 845.617,-432.735 855,-423 859.136,-418.708 863.861,-414.592 868.706,-410.786"/>
<polygon fill="black" stroke="black" points="870.957,-413.474 876.892,-404.698 866.779,-407.857 870.957,-413.474"/>
<text text-anchor="middle" x="889.5" y="-426.8" font-family="Times New Roman,serif" font-size="14.00">imported by</text>
</g>
<!-- n6 -->
<g id="node6" class="node"><title>n6</title>
<g id="a_node6"><a xlink:href="./REQUIREMENTS.owl.svg" xlink:title="http://arcos.rack/REQUIREMENTS">
<polygon fill="none" stroke="black" points="562,-405 508,-405 508,-369 562,-369 562,-405"/>
<text text-anchor="middle" x="535" y="-383.3" font-family="Times New Roman,serif" font-size="14.00">Rq</text>
</a>
</g>
</g>
<!-- n4&#45;&gt;n6 -->
<g id="edge26" class="edge"><title>n4&#45;&gt;n6</title>
<path fill="none" stroke="black" d="M794.795,-470.737C756.804,-466.983 686.102,-457.822 629,-438 608.962,-431.044 588.001,-420.278 570.971,-410.515"/>
<polygon fill="black" stroke="black" points="572.342,-407.262 561.945,-405.225 568.803,-413.301 572.342,-407.262"/>
<text text-anchor="middle" x="663.5" y="-426.8" font-family="Times New Roman,serif" font-size="14.00">imported by</text>
</g>
<!-- n4&#45;&gt;n7 -->
<g id="edge6" class="edge"><title>n4&#45;&gt;n7</title>
<path fill="none" stroke="black" d="M814.432,-455.79C808.923,-442.278 801.934,-422.831 799,-405 796.402,-389.212 791.992,-383.384 799,-369 804.685,-357.331 816.315,-362.669 822,-351 829.008,-336.616 827.296,-330.098 822,-315 820.831,-311.668 819.197,-308.418 817.299,-305.325"/>
<polygon fill="black" stroke="black" points="820.079,-303.194 811.42,-297.088 814.381,-307.26 820.079,-303.194"/>
<text text-anchor="middle" x="833.5" y="-383.3" font-family="Times New Roman,serif" font-size="14.00">imported by</text>
</g>
<!-- n9 -->
<g id="node9" class="node"><title>n9</title>
<g id="a_node9"><a xlink:href="./HAZARD.owl.svg" xlink:title="http://arcos.rack/HAZARD">
<polygon fill="none" stroke="black" points="132,-405 78,-405 78,-369 132,-369 132,-405"/>
<text text-anchor="middle" x="105" y="-383.3" font-family="Times New Roman,serif" font-size="14.00">H</text>
</a>
</g>
</g>
<!-- n4&#45;&gt;n9 -->
<g id="edge24" class="edge"><title>n4&#45;&gt;n9</title>
<path fill="none" stroke="black" d="M794.959,-472.848C703.065,-471.789 394.849,-463.783 149,-405 146.561,-404.417 144.076,-403.73 141.59,-402.972"/>
<polygon fill="black" stroke="black" points="142.694,-399.651 132.1,-399.771 140.457,-406.284 142.694,-399.651"/>
<text text-anchor="middle" x="347.5" y="-426.8" font-family="Times New Roman,serif" font-size="14.00">imported by</text>
</g>
<!-- n15 -->
<g id="node15" class="node"><title>n15</title>
<g id="a_node15"><a xlink:href="./TESTING.owl.svg" xlink:title="http://arcos.rack/TESTING">
<polygon fill="none" stroke="black" points="54,-351 0,-351 0,-315 54,-315 54,-351"/>
<text text-anchor="middle" x="27" y="-329.3" font-family="Times New Roman,serif" font-size="14.00">tst</text>
</a>
</g>
</g>
<!-- n4&#45;&gt;n15 -->
<g id="edge28" class="edge"><title>n4&#45;&gt;n15</title>
<path fill="none" stroke="black" d="M794.777,-472.542C686.919,-470.573 289.464,-461.823 166,-438 121.287,-429.372 104.344,-433.714 69,-405 54.6843,-393.37 44.1427,-375.472 37.201,-360.556"/>
<polygon fill="black" stroke="black" points="40.3616,-359.048 33.1557,-351.281 33.9453,-361.846 40.3616,-359.048"/>
<text text-anchor="middle" x="200.5" y="-426.8" font-family="Times New Roman,serif" font-size="14.00">imported by</text>
</g>
<!-- n19 -->
<g id="node19" class="node"><title>n19</title>
<g id="a_node19"><a xlink:href="./SACM-S.owl.svg" xlink:title="http://arcos.rack/SACM&#45;S">
<polygon fill="none" stroke="black" points="1003,-405 949,-405 949,-369 1003,-369 1003,-405"/>
<text text-anchor="middle" x="976" y="-383.3" font-family="Times New Roman,serif" font-size="14.00">sacms</text>
</a>
</g>
</g>
<!-- n4&#45;&gt;n19 -->
<g id="edge23" class="edge"><title>n4&#45;&gt;n19</title>
<path fill="none" stroke="black" d="M849.391,-467.057C870.776,-461.625 900.671,-452.244 924,-438 935.19,-431.167 945.924,-421.562 954.704,-412.593"/>
<polygon fill="black" stroke="black" points="957.278,-414.964 961.586,-405.285 952.182,-410.166 957.278,-414.964"/>
<text text-anchor="middle" x="976.5" y="-426.8" font-family="Times New Roman,serif" font-size="14.00">imported by</text>
</g>
<!-- n22 -->
<g id="node22" class="node"><title>n22</title>
<g id="a_node22"><a xlink:href="./REVIEW.owl.svg" xlink:title="http://arcos.rack/REVIEW">
<polygon fill="none" stroke="black" points="1075,-405 1021,-405 1021,-369 1075,-369 1075,-405"/>
<text text-anchor="middle" x="1048" y="-383.3" font-family="Times New Roman,serif" font-size="14.00">Rv</text>
</a>
</g>
</g>
<!-- n4&#45;&gt;n22 -->
<g id="edge29" class="edge"><title>n4&#45;&gt;n22</title>
<path fill="none" stroke="black" d="M849.221,-470.706C895.745,-466.356 988.143,-455.727 1015,-438 1023.89,-432.132 1030.95,-422.956 1036.22,-414.058"/>
<polygon fill="black" stroke="black" points="1039.42,-415.502 1041.06,-405.037 1033.25,-412.19 1039.42,-415.502"/>
<text text-anchor="middle" x="1064.5" y="-426.8" font-family="Times New Roman,serif" font-size="14.00">imported by</text>
</g>
<!-- n23 -->
<g id="node23" class="node"><title>n23</title>
<g id="a_node23"><a xlink:href="./SOFTWARE.owl.svg" xlink:title="http://arcos.rack/SOFTWARE">
<polygon fill="none" stroke="black" points="1157,-405 1103,-405 1103,-369 1157,-369 1157,-405"/>
<text text-anchor="middle" x="1130" y="-383.3" font-family="Times New Roman,serif" font-size="14.00">sw</text>
</a>
</g>
</g>
<!-- n4&#45;&gt;n23 -->
<g id="edge30" class="edge"><title>n4&#45;&gt;n23</title>
<path fill="none" stroke="black" d="M849.225,-472.718C911.501,-471.588 1062.11,-465.958 1103,-438 1111.25,-432.356 1117.2,-423.345 1121.38,-414.517"/>
<polygon fill="black" stroke="black" points="1124.65,-415.757 1125.24,-405.178 1118.19,-413.082 1124.65,-415.757"/>
<text text-anchor="middle" x="1150.5" y="-426.8" font-family="Times New Roman,serif" font-size="14.00">imported by</text>
</g>
<!-- n6&#45;&gt;n7 -->
<g id="edge4" class="edge"><title>n6&#45;&gt;n7</title>
<path fill="none" stroke="black" d="M540.147,-368.695C546.079,-349.956 556.149,-321.819 565,-315 587.406,-297.738 663.045,-301.303 691,-297 712.865,-293.634 737.296,-289.613 756.875,-286.327"/>
<polygon fill="black" stroke="black" points="757.638,-289.748 766.918,-284.635 756.475,-282.845 757.638,-289.748"/>
<text text-anchor="middle" x="599.5" y="-329.3" font-family="Times New Roman,serif" font-size="14.00">imported by</text>
</g>
<!-- n6&#45;&gt;n12 -->
<g id="edge10" class="edge"><title>n6&#45;&gt;n12</title>
<path fill="none" stroke="black" d="M529.022,-368.712C519.291,-342.648 497.855,-292.946 466,-261 436.872,-231.788 392.827,-213.661 360.732,-203.545"/>
<polygon fill="black" stroke="black" points="361.351,-200.076 350.766,-200.538 359.329,-206.778 361.351,-200.076"/>
<text text-anchor="middle" x="528.5" y="-275.3" font-family="Times New Roman,serif" font-size="14.00">imported by</text>
</g>
<!-- n6&#45;&gt;n13 -->
<g id="edge13" class="edge"><title>n6&#45;&gt;n13</title>
<path fill="none" stroke="black" d="M507.95,-385.417C479.521,-383.401 435.104,-376.08 407,-351 374.857,-322.315 399.656,-293.169 371,-261 350.497,-237.984 338.511,-239.715 310,-228 285.957,-218.122 258.144,-209.825 235.351,-203.793"/>
<polygon fill="black" stroke="black" points="236.149,-200.384 225.591,-201.266 234.394,-207.161 236.149,-200.384"/>
<text text-anchor="middle" x="421.5" y="-275.3" font-family="Times New Roman,serif" font-size="14.00">imported by</text>
</g>
<!-- n6&#45;&gt;n17 -->
<g id="edge18" class="edge"><title>n6&#45;&gt;n17</title>
<path fill="none" stroke="black" d="M533.323,-368.831C532.763,-352.632 534.758,-328.828 549,-315 583.914,-281.103 625.546,-334.13 657,-297 667.342,-284.792 658.976,-276.877 657,-261 652.073,-221.422 660.842,-204.379 635,-174 606.535,-140.537 558.557,-123.043 523.114,-114.235"/>
<polygon fill="black" stroke="black" points="523.55,-110.742 513.015,-111.874 521.956,-117.559 523.55,-110.742"/>
<text text-anchor="middle" x="690.5" y="-231.8" font-family="Times New Roman,serif" font-size="14.00">imported by</text>
</g>
<!-- n8 -->
<g id="node8" class="node"><title>n8</title>
<g id="a_node8"><a xlink:href="./properties.owl.svg" xlink:title="http://arcos.rack/properties">
<polygon fill="none" stroke="black" points="1128,-579 1074,-579 1074,-543 1128,-543 1128,-579"/>
<text text-anchor="middle" x="1101" y="-557.3" font-family="Times New Roman,serif" font-size="14.00">P</text>
</a>
</g>
</g>
<!-- n8&#45;&gt;n4 -->
<g id="edge25" class="edge"><title>n8&#45;&gt;n4</title>
<path fill="none" stroke="black" d="M1073.99,-551.773C1023.68,-536.444 915.559,-503.503 858.686,-486.177"/>
<polygon fill="black" stroke="black" points="859.606,-482.798 849.02,-483.232 857.566,-489.494 859.606,-482.798"/>
<text text-anchor="middle" x="1012.5" y="-513.8" font-family="Times New Roman,serif" font-size="14.00">imported by</text>
</g>
<!-- n8&#45;&gt;n7 -->
<g id="edge7" class="edge"><title>n8&#45;&gt;n7</title>
<path fill="none" stroke="black" d="M1119.12,-542.637C1140.62,-520.654 1175.27,-480.496 1189,-438 1198.94,-407.24 1190.69,-389.861 1166,-369 1115.04,-325.95 914.952,-295.656 831.191,-284.61"/>
<polygon fill="black" stroke="black" points="831.47,-281.117 821.102,-283.299 830.568,-288.059 831.47,-281.117"/>
<text text-anchor="middle" x="1226.5" y="-426.8" font-family="Times New Roman,serif" font-size="14.00">imported by</text>
</g>
<!-- n9&#45;&gt;n10 -->
<g id="edge8" class="edge"><title>n9&#45;&gt;n10</title>
<path fill="none" stroke="black" d="M106.48,-368.807C108.747,-352.822 114.485,-329.375 129,-315 147.275,-296.901 159.881,-305.932 184,-297 185.4,-296.482 186.823,-295.944 188.257,-295.394"/>
<polygon fill="black" stroke="black" points="189.756,-298.565 197.768,-291.633 187.182,-292.055 189.756,-298.565"/>
<text text-anchor="middle" x="163.5" y="-329.3" font-family="Times New Roman,serif" font-size="14.00">imported by</text>
</g>
<!-- n10&#45;&gt;n12 -->
<g id="edge12" class="edge"><title>n10&#45;&gt;n12</title>
<path fill="none" stroke="black" d="M225.305,-260.971C226.335,-250.393 229.26,-237.121 237,-228 247.873,-215.186 264.243,-206.963 279.579,-201.734"/>
<polygon fill="black" stroke="black" points="280.904,-204.989 289.439,-198.712 278.853,-198.296 280.904,-204.989"/>
<text text-anchor="middle" x="271.5" y="-231.8" font-family="Times New Roman,serif" font-size="14.00">imported by</text>
</g>
<!-- n10&#45;&gt;n13 -->
<g id="edge15" class="edge"><title>n10&#45;&gt;n13</title>
<path fill="none" stroke="black" d="M197.844,-266.529C174.962,-256.801 145.804,-244.229 145,-243 139.078,-233.946 143.335,-224.896 151.18,-217.035"/>
<polygon fill="black" stroke="black" points="153.872,-219.338 159.203,-210.182 149.326,-214.015 153.872,-219.338"/>
<text text-anchor="middle" x="179.5" y="-231.8" font-family="Times New Roman,serif" font-size="14.00">imported by</text>
</g>
<!-- n11 -->
<g id="node11" class="node"><title>n11</title>
<g id="a_node11"><a xlink:href="./SadlImplicitModel.owl.svg" xlink:title="http://sadl.org/sadlimplicitmodel">
<polygon fill="none" stroke="black" points="1260,-579 1146,-579 1146,-543 1260,-543 1260,-579"/>
<text text-anchor="middle" x="1203" y="-557.3" font-family="Times New Roman,serif" font-size="14.00">sadlimplicitmodel</text>
</a>
</g>
</g>
<!-- n16 -->
<g id="node16" class="node"><title>n16</title>
<g id="a_node16"><a xlink:href="./CounterApplicationTesting.owl.svg" xlink:title="http://TurnstileSystem/CounterApplicationTesting">
<polygon fill="none" stroke="black" points="226.5,-123 153.5,-123 153.5,-87 226.5,-87 226.5,-123"/>
<text text-anchor="middle" x="190" y="-101.3" font-family="Times New Roman,serif" font-size="14.00">cntrapptst</text>
</a>
</g>
</g>
<!-- n13&#45;&gt;n16 -->
<g id="edge17" class="edge"><title>n13&#45;&gt;n16</title>
<path fill="none" stroke="black" d="M190,-173.799C190,-162.163 190,-146.548 190,-133.237"/>
<polygon fill="black" stroke="black" points="193.5,-133.175 190,-123.175 186.5,-133.175 193.5,-133.175"/>
<text text-anchor="middle" x="224.5" y="-144.8" font-family="Times New Roman,serif" font-size="14.00">imported by</text>
</g>
<!-- n13&#45;&gt;n17 -->
<g id="edge19" class="edge"><title>n13&#45;&gt;n17</title>
<path fill="none" stroke="black" d="M225.603,-180.492C277.991,-165.03 375.812,-136.16 433.071,-119.26"/>
<polygon fill="black" stroke="black" points="434.328,-122.539 442.928,-116.351 432.346,-115.825 434.328,-122.539"/>
<text text-anchor="middle" x="386.5" y="-144.8" font-family="Times New Roman,serif" font-size="14.00">imported by</text>
</g>
<!-- n14 -->
<g id="node14" class="node"><title>n14</title>
<g id="a_node14"><a xlink:href="./SadlBuiltinFunctions.owl.svg" xlink:title="http://sadl.org/builtinfunctions">
<polygon fill="none" stroke="black" points="1380,-579 1278,-579 1278,-543 1380,-543 1380,-579"/>
<text text-anchor="middle" x="1329" y="-557.3" font-family="Times New Roman,serif" font-size="14.00">builtinfunctions</text>
</a>
</g>
</g>
<!-- n15&#45;&gt;n16 -->
<g id="edge16" class="edge"><title>n15&#45;&gt;n16</title>
<path fill="none" stroke="black" d="M28.3825,-314.985C30.7888,-293.37 37.2199,-255.566 54,-228 79.4021,-186.27 123.466,-150.592 154.542,-128.79"/>
<polygon fill="black" stroke="black" points="156.681,-131.566 162.936,-123.015 152.714,-125.799 156.681,-131.566"/>
<text text-anchor="middle" x="88.5" y="-231.8" font-family="Times New Roman,serif" font-size="14.00">imported by</text>
</g>
<!-- n18 -->
<g id="node18" class="node"><title>n18</title>
<g id="a_node18"><a xlink:href="./GenerateCSV.owl.svg" xlink:title="http://TurnstileSystem/GenerateCSV">
<polygon fill="none" stroke="black" points="350,-36 294,-36 294,-0 350,-0 350,-36"/>
<text text-anchor="middle" x="322" y="-14.3" font-family="Times New Roman,serif" font-size="14.00">gencsv</text>
</a>
</g>
</g>
<!-- n16&#45;&gt;n18 -->
<g id="edge21" class="edge"><title>n16&#45;&gt;n18</title>
<path fill="none" stroke="black" d="M216.712,-86.799C236.93,-73.78 264.881,-55.7813 286.903,-41.6003"/>
<polygon fill="black" stroke="black" points="288.815,-44.5322 295.328,-36.1754 285.025,-38.6468 288.815,-44.5322"/>
<text text-anchor="middle" x="298.5" y="-57.8" font-family="Times New Roman,serif" font-size="14.00">imported by</text>
</g>
<!-- n17&#45;&gt;n18 -->
<g id="edge22" class="edge"><title>n17&#45;&gt;n18</title>
<path fill="none" stroke="black" d="M446.431,-86.799C421.185,-73.0431 385.736,-53.7277 359.129,-39.2305"/>
<polygon fill="black" stroke="black" points="360.574,-36.0318 350.118,-34.3206 357.224,-42.1786 360.574,-36.0318"/>
<text text-anchor="middle" x="444.5" y="-57.8" font-family="Times New Roman,serif" font-size="14.00">imported by</text>
</g>
<!-- n20 -->
<g id="node20" class="node"><title>n20</title>
<g id="a_node20"><a xlink:href="./SadlListModel.owl.svg" xlink:title="file:/C:/sadl/git/RACK/RACK&#45;Ontology/OwlModels/SadlListModel.owl">
<polygon fill="none" stroke="black" points="1815.5,-579 1398.5,-579 1398.5,-543 1815.5,-543 1815.5,-579"/>
<text text-anchor="middle" x="1607" y="-557.3" font-family="Times New Roman,serif" font-size="14.00">file:/C:/sadl/git/RACK/RACK&#45;Ontology/OwlModels/SadlListModel.owl</text>
</a>
</g>
</g>
<!-- n21 -->
<g id="node21" class="node"><title>n21</title>
<g id="a_node21"><a xlink:href="./SadlBaseModel.owl.svg" xlink:title="file:/C:/sadl/git/RACK/RACK&#45;Ontology/OwlModels/SadlBaseModel.owl">
<polygon fill="none" stroke="black" points="2256.5,-579 1833.5,-579 1833.5,-543 2256.5,-543 2256.5,-579"/>
<text text-anchor="middle" x="2045" y="-557.3" font-family="Times New Roman,serif" font-size="14.00">file:/C:/sadl/git/RACK/RACK&#45;Ontology/OwlModels/SadlBaseModel.owl</text>
</a>
</g>
</g>
</g>
</svg>
