<?xml version="1.0" encoding="UTF-8" standalone="no"?>
<!DOCTYPE svg PUBLIC "-//W3C//DTD SVG 1.1//EN"
 "http://www.w3.org/Graphics/SVG/1.1/DTD/svg11.dtd">
<!-- Generated by graphviz version 2.38.0 (20140413.2041)
 -->
<!-- Title: gProject Pages: 1 -->
<svg width="1106pt" height="718pt"
 viewBox="0.00 0.00 1105.50 718.00" xmlns="http://www.w3.org/2000/svg" xmlns:xlink="http://www.w3.org/1999/xlink">
<g id="graph0" class="graph" transform="scale(1 1) rotate(0) translate(4 714)">
<title>gProject</title>
<polygon fill="white" stroke="none" points="-4,4 -4,-714 1101.5,-714 1101.5,4 -4,4"/>
<text text-anchor="middle" x="112" y="-694.8" font-family="Times New Roman,serif" font-size="14.00">Project RACK&#45;Ontology import map</text>
<!-- n1 -->
<g id="node1" class="node"><title>n1</title>
<g id="a_node1"><a xlink:href="./properties.owl.svg" xlink:title="http://arcos.rack/properties">
<polygon fill="none" stroke="black" points="737.5,-687 683.5,-687 683.5,-651 737.5,-651 737.5,-687"/>
<text text-anchor="middle" x="710.5" y="-665.3" font-family="Times New Roman,serif" font-size="14.00">P</text>
</a>
</g>
</g>
<!-- n2 -->
<g id="node2" class="node"><title>n2</title>
<g id="a_node2"><a xlink:href="./PROV-S.owl.svg" xlink:title="http://arcos.rack/PROV&#45;S">
<polygon fill="none" stroke="black" points="737.5,-600 683.5,-600 683.5,-564 737.5,-564 737.5,-600"/>
<text text-anchor="middle" x="710.5" y="-578.3" font-family="Times New Roman,serif" font-size="14.00">provs</text>
</a>
</g>
</g>
<!-- n1&#45;&gt;n2 -->
<g id="edge1" class="edge"><title>n1&#45;&gt;n2</title>
<path fill="none" stroke="black" d="M710.5,-650.799C710.5,-639.163 710.5,-623.548 710.5,-610.237"/>
<polygon fill="black" stroke="black" points="714,-610.175 710.5,-600.175 707,-610.175 714,-610.175"/>
<text text-anchor="middle" x="745" y="-621.8" font-family="Times New Roman,serif" font-size="14.00">imported by</text>
</g>
<!-- n3 -->
<g id="node3" class="node"><title>n3</title>
<g id="a_node3"><a xlink:href="./SYSTEM.owl.svg" xlink:title="http://arcos.rack/SYSTEM">
<polygon fill="none" stroke="black" points="86.5,-513 32.5,-513 32.5,-477 86.5,-477 86.5,-513"/>
<text text-anchor="middle" x="59.5" y="-491.3" font-family="Times New Roman,serif" font-size="14.00">sys</text>
</a>
</g>
</g>
<!-- n2&#45;&gt;n3 -->
<g id="edge14" class="edge"><title>n2&#45;&gt;n3</title>
<path fill="none" stroke="black" d="M683.402,-578.513C627.453,-573.286 495.13,-560.441 384.5,-546 280.101,-532.372 157.449,-512.43 97.0258,-502.344"/>
<polygon fill="black" stroke="black" points="97.2734,-498.837 86.8327,-500.637 96.1174,-505.741 97.2734,-498.837"/>
<text text-anchor="middle" x="419" y="-534.8" font-family="Times New Roman,serif" font-size="14.00">imported by</text>
</g>
<!-- n6 -->
<g id="node6" class="node"><title>n6</title>
<g id="a_node6"><a xlink:href="./SACM-S.owl.svg" xlink:title="http://arcos.rack/SACM&#45;S">
<polygon fill="none" stroke="black" points="809.5,-513 755.5,-513 755.5,-477 809.5,-477 809.5,-513"/>
<text text-anchor="middle" x="782.5" y="-491.3" font-family="Times New Roman,serif" font-size="14.00">sacms</text>
</a>
</g>
</g>
<!-- n2&#45;&gt;n6 -->
<g id="edge4" class="edge"><title>n2&#45;&gt;n6</title>
<path fill="none" stroke="black" d="M725.07,-563.799C735.513,-551.471 749.737,-534.679 761.417,-520.89"/>
<polygon fill="black" stroke="black" points="764.159,-523.068 767.951,-513.175 758.817,-518.544 764.159,-523.068"/>
<text text-anchor="middle" x="786" y="-534.8" font-family="Times New Roman,serif" font-size="14.00">imported by</text>
</g>
<!-- n7 -->
<g id="node7" class="node"><title>n7</title>
<g id="a_node7"><a xlink:href="./ANALYSIS.owl.svg" xlink:title="http://arcos.rack/ANALYSIS">
<polygon fill="none" stroke="black" points="881.5,-513 827.5,-513 827.5,-477 881.5,-477 881.5,-513"/>
<text text-anchor="middle" x="854.5" y="-491.3" font-family="Times New Roman,serif" font-size="14.00">A</text>
</a>
</g>
</g>
<!-- n2&#45;&gt;n7 -->
<g id="edge5" class="edge"><title>n2&#45;&gt;n7</title>
<path fill="none" stroke="black" d="M737.797,-577.827C762.101,-573.839 797.566,-565.041 822.5,-546 830.768,-539.686 837.49,-530.578 842.601,-521.861"/>
<polygon fill="black" stroke="black" points="845.685,-523.516 847.341,-513.052 839.521,-520.2 845.685,-523.516"/>
<text text-anchor="middle" x="871" y="-534.8" font-family="Times New Roman,serif" font-size="14.00">imported by</text>
</g>
<!-- n10 -->
<g id="node10" class="node"><title>n10</title>
<g id="a_node10"><a xlink:href="./HAZARD.owl.svg" xlink:title="http://arcos.rack/HAZARD">
<polygon fill="none" stroke="black" points="645.5,-459 591.5,-459 591.5,-423 645.5,-423 645.5,-459"/>
<text text-anchor="middle" x="618.5" y="-437.3" font-family="Times New Roman,serif" font-size="14.00">H</text>
</a>
</g>
</g>
<!-- n2&#45;&gt;n10 -->
<g id="edge8" class="edge"><title>n2&#45;&gt;n10</title>
<path fill="none" stroke="black" d="M683.316,-577.246C650.224,-572.055 597.28,-561.532 585.5,-546 567.916,-522.816 583.316,-490.01 598.447,-467.476"/>
<polygon fill="black" stroke="black" points="601.461,-469.277 604.381,-459.092 595.747,-465.233 601.461,-469.277"/>
<text text-anchor="middle" x="620" y="-534.8" font-family="Times New Roman,serif" font-size="14.00">imported by</text>
</g>
<!-- n11 -->
<g id="node11" class="node"><title>n11</title>
<g id="a_node11"><a xlink:href="./REVIEW.owl.svg" xlink:title="http://arcos.rack/REVIEW">
<polygon fill="none" stroke="black" points="963.5,-513 909.5,-513 909.5,-477 963.5,-477 963.5,-513"/>
<text text-anchor="middle" x="936.5" y="-491.3" font-family="Times New Roman,serif" font-size="14.00">Rv</text>
</a>
</g>
</g>
<!-- n2&#45;&gt;n11 -->
<g id="edge9" class="edge"><title>n2&#45;&gt;n11</title>
<path fill="none" stroke="black" d="M737.594,-579.138C785.438,-575.383 882.401,-565.546 909.5,-546 917.406,-540.297 923.232,-531.548 927.405,-522.953"/>
<polygon fill="black" stroke="black" points="930.738,-524.057 931.437,-513.485 924.298,-521.314 930.738,-524.057"/>
<text text-anchor="middle" x="958" y="-534.8" font-family="Times New Roman,serif" font-size="14.00">imported by</text>
</g>
<!-- n12 -->
<g id="node12" class="node"><title>n12</title>
<g id="a_node12"><a xlink:href="./SOFTWARE.owl.svg" xlink:title="http://arcos.rack/SOFTWARE">
<polygon fill="none" stroke="black" points="1055.5,-513 1001.5,-513 1001.5,-477 1055.5,-477 1055.5,-513"/>
<text text-anchor="middle" x="1028.5" y="-491.3" font-family="Times New Roman,serif" font-size="14.00">sw</text>
</a>
</g>
</g>
<!-- n2&#45;&gt;n12 -->
<g id="edge10" class="edge"><title>n2&#45;&gt;n12</title>
<path fill="none" stroke="black" d="M737.6,-580.577C800.39,-579.143 953.737,-572.907 996.5,-546 1005.43,-540.378 1012.34,-531.252 1017.41,-522.324"/>
<polygon fill="black" stroke="black" points="1020.62,-523.747 1022.04,-513.248 1014.38,-520.566 1020.62,-523.747"/>
<text text-anchor="middle" x="1046" y="-534.8" font-family="Times New Roman,serif" font-size="14.00">imported by</text>
</g>
<!-- n13 -->
<g id="node13" class="node"><title>n13</title>
<g id="a_node13"><a xlink:href="./REQUIREMENTS.owl.svg" xlink:title="http://arcos.rack/REQUIREMENTS">
<polygon fill="none" stroke="black" points="422.5,-513 368.5,-513 368.5,-477 422.5,-477 422.5,-513"/>
<text text-anchor="middle" x="395.5" y="-491.3" font-family="Times New Roman,serif" font-size="14.00">Rq</text>
</a>
</g>
</g>
<!-- n2&#45;&gt;n13 -->
<g id="edge22" class="edge"><title>n2&#45;&gt;n13</title>
<path fill="none" stroke="black" d="M683.479,-579.351C641.794,-576.209 559.698,-567.632 493.5,-546 472.164,-539.028 449.766,-527.921 431.776,-517.944"/>
<polygon fill="black" stroke="black" points="433.226,-514.742 422.8,-512.858 429.775,-520.833 433.226,-514.742"/>
<text text-anchor="middle" x="528" y="-534.8" font-family="Times New Roman,serif" font-size="14.00">imported by</text>
</g>
<!-- n15 -->
<g id="node15" class="node"><title>n15</title>
<g id="a_node15"><a xlink:href="./TESTING.owl.svg" xlink:title="http://arcos.rack/TESTING">
<polygon fill="none" stroke="black" points="704.5,-351 650.5,-351 650.5,-315 704.5,-315 704.5,-351"/>
<text text-anchor="middle" x="677.5" y="-329.3" font-family="Times New Roman,serif" font-size="14.00">tst</text>
</a>
</g>
</g>
<!-- n2&#45;&gt;n15 -->
<g id="edge17" class="edge"><title>n2&#45;&gt;n15</title>
<path fill="none" stroke="black" d="M699.508,-563.917C691.645,-550.63 681.733,-531.416 677.5,-513 665.388,-460.301 669.741,-396.546 673.772,-361.11"/>
<polygon fill="black" stroke="black" points="677.261,-361.415 674.994,-351.066 670.312,-360.57 677.261,-361.415"/>
<text text-anchor="middle" x="712" y="-491.3" font-family="Times New Roman,serif" font-size="14.00">imported by</text>
</g>
<!-- n4 -->
<g id="node4" class="node"><title>n4</title>
<g id="a_node4"><a xlink:href="./CounterApplication.owl.svg" xlink:title="http://TurnstileSystem/CounterApplication">
<polygon fill="none" stroke="black" points="63,-297 0,-297 0,-261 63,-261 63,-297"/>
<text text-anchor="middle" x="31.5" y="-275.3" font-family="Times New Roman,serif" font-size="14.00">trnstlsys</text>
</a>
</g>
</g>
<!-- n3&#45;&gt;n4 -->
<g id="edge2" class="edge"><title>n3&#45;&gt;n4</title>
<path fill="none" stroke="black" d="M57.256,-476.849C52.4126,-439.832 40.9442,-352.181 35.0832,-307.386"/>
<polygon fill="black" stroke="black" points="38.5226,-306.694 33.7547,-297.232 31.5817,-307.602 38.5226,-306.694"/>
<text text-anchor="middle" x="83" y="-383.3" font-family="Times New Roman,serif" font-size="14.00">imported by</text>
</g>
<!-- n5 -->
<g id="node5" class="node"><title>n5</title>
<g id="a_node5"><a xlink:href="./Turnstiles.owl.svg" xlink:title="http://TurnstileSystem/TurnStiles">
<polygon fill="none" stroke="black" points="284.5,-405 230.5,-405 230.5,-369 284.5,-369 284.5,-405"/>
<text text-anchor="middle" x="257.5" y="-383.3" font-family="Times New Roman,serif" font-size="14.00">trnstl</text>
</a>
</g>
</g>
<!-- n3&#45;&gt;n5 -->
<g id="edge16" class="edge"><title>n3&#45;&gt;n5</title>
<path fill="none" stroke="black" d="M86.6159,-479.483C121.62,-460.744 182.639,-428.077 221.5,-407.273"/>
<polygon fill="black" stroke="black" points="223.23,-410.316 230.395,-402.511 219.927,-404.145 223.23,-410.316"/>
<text text-anchor="middle" x="223" y="-437.3" font-family="Times New Roman,serif" font-size="14.00">imported by</text>
</g>
<!-- n21 -->
<g id="node21" class="node"><title>n21</title>
<g id="a_node21"><a xlink:href="./CounterApplicationLLR.owl.svg" xlink:title="http://TurnstileSystem/CounterApplicationLLR">
<polygon fill="none" stroke="black" points="192.5,-123 122.5,-123 122.5,-87 192.5,-87 192.5,-123"/>
<text text-anchor="middle" x="157.5" y="-101.3" font-family="Times New Roman,serif" font-size="14.00">cntrappllr</text>
</a>
</g>
</g>
<!-- n4&#45;&gt;n21 -->
<g id="edge29" class="edge"><title>n4&#45;&gt;n21</title>
<path fill="none" stroke="black" d="M29.5461,-260.989C27.9121,-239.038 28.1415,-200.525 45.5,-174 61.3351,-149.803 89.0618,-132.869 112.965,-121.952"/>
<polygon fill="black" stroke="black" points="114.468,-125.115 122.245,-117.919 111.679,-118.695 114.468,-125.115"/>
<text text-anchor="middle" x="80" y="-188.3" font-family="Times New Roman,serif" font-size="14.00">imported by</text>
</g>
<!-- n5&#45;&gt;n4 -->
<g id="edge3" class="edge"><title>n5&#45;&gt;n4</title>
<path fill="none" stroke="black" d="M230.47,-377.201C211.23,-370.659 184.92,-361.142 162.5,-351 130.032,-336.312 94.5732,-316.872 68.7446,-302.048"/>
<polygon fill="black" stroke="black" points="70.4404,-298.986 60.031,-297.012 66.9378,-305.046 70.4404,-298.986"/>
<text text-anchor="middle" x="197" y="-329.3" font-family="Times New Roman,serif" font-size="14.00">imported by</text>
</g>
<!-- n9 -->
<g id="node9" class="node"><title>n9</title>
<g id="a_node9"><a xlink:href="./HazardAssesment.owl.svg" xlink:title="http://TurnstileSystem/HazardAssesment">
<polygon fill="none" stroke="black" points="517.5,-297 463.5,-297 463.5,-261 517.5,-261 517.5,-297"/>
<text text-anchor="middle" x="490.5" y="-275.3" font-family="Times New Roman,serif" font-size="14.00">ha</text>
</a>
</g>
</g>
<!-- n5&#45;&gt;n9 -->
<g id="edge6" class="edge"><title>n5&#45;&gt;n9</title>
<path fill="none" stroke="black" d="M269.331,-368.986C273.244,-363.294 277.595,-356.898 281.5,-351 291.981,-335.168 288.443,-325.132 304.5,-315 359.42,-280.346 386.715,-313.587 449.5,-297 450.757,-296.668 452.027,-296.306 453.302,-295.919"/>
<polygon fill="black" stroke="black" points="454.745,-299.124 463.062,-292.56 452.467,-292.505 454.745,-299.124"/>
<text text-anchor="middle" x="339" y="-329.3" font-family="Times New Roman,serif" font-size="14.00">imported by</text>
</g>
<!-- n14 -->
<g id="node14" class="node"><title>n14</title>
<g id="a_node14"><a xlink:href="./CounterApplicationRequirements.owl.svg" xlink:title="http://TurnstileSystem/CounterApplicationRequirements">
<polygon fill="none" stroke="black" points="489,-210 418,-210 418,-174 489,-174 489,-210"/>
<text text-anchor="middle" x="453.5" y="-188.3" font-family="Times New Roman,serif" font-size="14.00">cntrapprq</text>
</a>
</g>
</g>
<!-- n5&#45;&gt;n14 -->
<g id="edge12" class="edge"><title>n5&#45;&gt;n14</title>
<path fill="none" stroke="black" d="M260.324,-368.947C263.693,-353.285 270.7,-330.258 284.5,-315 296.499,-301.733 306.316,-307.901 320.5,-297 352.955,-272.057 348.906,-252.761 381.5,-228 389.717,-221.757 399.225,-216.192 408.583,-211.435"/>
<polygon fill="black" stroke="black" points="410.363,-214.462 417.838,-206.954 407.312,-208.162 410.363,-214.462"/>
<text text-anchor="middle" x="386" y="-275.3" font-family="Times New Roman,serif" font-size="14.00">imported by</text>
</g>
<!-- n17 -->
<g id="node17" class="node"><title>n17</title>
<g id="a_node17"><a xlink:href="./InGateRequirements.owl.svg" xlink:title="http://TurnstileSystem/InGateRequirement">
<polygon fill="none" stroke="black" points="361,-210 300,-210 300,-174 361,-174 361,-210"/>
<text text-anchor="middle" x="330.5" y="-188.3" font-family="Times New Roman,serif" font-size="14.00">ingaterq</text>
</a>
</g>
</g>
<!-- n5&#45;&gt;n17 -->
<g id="edge20" class="edge"><title>n5&#45;&gt;n17</title>
<path fill="none" stroke="black" d="M250.945,-368.855C242.487,-343.827 230.73,-296.418 247.5,-261 256.664,-241.645 274.336,-225.96 291.026,-214.553"/>
<polygon fill="black" stroke="black" points="293.13,-217.36 299.614,-208.98 289.32,-211.487 293.13,-217.36"/>
<text text-anchor="middle" x="282" y="-275.3" font-family="Times New Roman,serif" font-size="14.00">imported by</text>
</g>
<!-- n8 -->
<g id="node8" class="node"><title>n8</title>
<g id="a_node8"><a xlink:href="./SadlListModel.owl.svg" xlink:title="http://sadl.org/sadllistmodel">
<polygon fill="none" stroke="black" points="845,-687 756,-687 756,-651 845,-651 845,-687"/>
<text text-anchor="middle" x="800.5" y="-665.3" font-family="Times New Roman,serif" font-size="14.00">sadllistmodel</text>
</a>
</g>
</g>
<!-- n9&#45;&gt;n14 -->
<g id="edge13" class="edge"><title>n9&#45;&gt;n14</title>
<path fill="none" stroke="black" d="M483.951,-260.749C480.183,-251.055 475.264,-238.774 470.5,-228 469.256,-225.187 467.917,-222.267 466.556,-219.368"/>
<polygon fill="black" stroke="black" points="469.702,-217.835 462.222,-210.332 463.391,-220.862 469.702,-217.835"/>
<text text-anchor="middle" x="512" y="-231.8" font-family="Times New Roman,serif" font-size="14.00">imported by</text>
</g>
<!-- n9&#45;&gt;n17 -->
<g id="edge21" class="edge"><title>n9&#45;&gt;n17</title>
<path fill="none" stroke="black" d="M463.244,-266.432C458.674,-264.569 453.966,-262.697 449.5,-261 426.638,-252.312 419.111,-254.449 397.5,-243 383.671,-235.674 369.605,-225.648 357.955,-216.498"/>
<polygon fill="black" stroke="black" points="359.92,-213.587 349.937,-210.04 355.53,-219.039 359.92,-213.587"/>
<text text-anchor="middle" x="432" y="-231.8" font-family="Times New Roman,serif" font-size="14.00">imported by</text>
</g>
<!-- n10&#45;&gt;n9 -->
<g id="edge7" class="edge"><title>n10&#45;&gt;n9</title>
<path fill="none" stroke="black" d="M601.677,-422.887C596.372,-417.299 590.575,-410.989 585.5,-405 557.285,-371.701 527.2,-331.155 508.622,-305.455"/>
<polygon fill="black" stroke="black" points="511.235,-303.093 502.553,-297.02 505.553,-307.181 511.235,-303.093"/>
<text text-anchor="middle" x="620" y="-383.3" font-family="Times New Roman,serif" font-size="14.00">imported by</text>
</g>
<!-- n16 -->
<g id="node16" class="node"><title>n16</title>
<g id="a_node16"><a xlink:href="./Sample2.owl.svg" xlink:title="http://TurnstileSystem/Sample2">
<polygon fill="none" stroke="black" points="1055.5,-405 1001.5,-405 1001.5,-369 1055.5,-369 1055.5,-405"/>
<text text-anchor="middle" x="1028.5" y="-383.3" font-family="Times New Roman,serif" font-size="14.00">smpl2</text>
</a>
</g>
</g>
<!-- n12&#45;&gt;n16 -->
<g id="edge18" class="edge"><title>n12&#45;&gt;n16</title>
<path fill="none" stroke="black" d="M1028.5,-476.969C1028.5,-460.378 1028.5,-434.883 1028.5,-415.431"/>
<polygon fill="black" stroke="black" points="1032,-415.341 1028.5,-405.341 1025,-415.341 1032,-415.341"/>
<text text-anchor="middle" x="1063" y="-437.3" font-family="Times New Roman,serif" font-size="14.00">imported by</text>
</g>
<!-- n13&#45;&gt;n5 -->
<g id="edge15" class="edge"><title>n13&#45;&gt;n5</title>
<path fill="none" stroke="black" d="M368.235,-486.431C351.076,-480.763 329.114,-471.772 312.5,-459 296.53,-446.723 282.672,-428.757 272.861,-413.969"/>
<polygon fill="black" stroke="black" points="275.626,-411.795 267.293,-405.251 269.726,-415.563 275.626,-411.795"/>
<text text-anchor="middle" x="347" y="-437.3" font-family="Times New Roman,serif" font-size="14.00">imported by</text>
</g>
<!-- n13&#45;&gt;n14 -->
<g id="edge11" class="edge"><title>n13&#45;&gt;n14</title>
<path fill="none" stroke="black" d="M422.545,-488.61C461.478,-479.236 531.982,-455.845 562.5,-405 567.954,-395.914 567.598,-250.273 550.5,-228 538.21,-211.99 517.932,-203.293 499.086,-198.573"/>
<polygon fill="black" stroke="black" points="499.635,-195.111 489.118,-196.395 498.14,-201.949 499.635,-195.111"/>
<text text-anchor="middle" x="601" y="-329.3" font-family="Times New Roman,serif" font-size="14.00">imported by</text>
</g>
<!-- n13&#45;&gt;n17 -->
<g id="edge19" class="edge"><title>n13&#45;&gt;n17</title>
<path fill="none" stroke="black" d="M397.98,-476.856C401.959,-442.979 406.301,-366.31 373.5,-315 365.329,-302.219 352.744,-309.734 344.5,-297 329.78,-274.263 327.435,-242.859 328.057,-220.523"/>
<polygon fill="black" stroke="black" points="331.561,-220.525 328.559,-210.365 324.57,-220.18 331.561,-220.525"/>
<text text-anchor="middle" x="425" y="-329.3" font-family="Times New Roman,serif" font-size="14.00">imported by</text>
</g>
<!-- n13&#45;&gt;n21 -->
<g id="edge27" class="edge"><title>n13&#45;&gt;n21</title>
<path fill="none" stroke="black" d="M368.188,-489.014C312.017,-477.047 185.23,-440.741 142.5,-351 107.925,-278.386 132.481,-179.683 147.774,-132.821"/>
<polygon fill="black" stroke="black" points="151.169,-133.706 151.055,-123.112 144.538,-131.465 151.169,-133.706"/>
<text text-anchor="middle" x="162" y="-275.3" font-family="Times New Roman,serif" font-size="14.00">imported by</text>
</g>
<!-- n19 -->
<g id="node19" class="node"><title>n19</title>
<g id="a_node19"><a xlink:href="./CounterApplicationTesting.owl.svg" xlink:title="http://TurnstileSystem/CounterApplicationTesting">
<polygon fill="none" stroke="black" points="490,-123 417,-123 417,-87 490,-87 490,-123"/>
<text text-anchor="middle" x="453.5" y="-101.3" font-family="Times New Roman,serif" font-size="14.00">cntrapptst</text>
</a>
</g>
</g>
<!-- n14&#45;&gt;n19 -->
<g id="edge26" class="edge"><title>n14&#45;&gt;n19</title>
<path fill="none" stroke="black" d="M453.5,-173.799C453.5,-162.163 453.5,-146.548 453.5,-133.237"/>
<polygon fill="black" stroke="black" points="457,-133.175 453.5,-123.175 450,-133.175 457,-133.175"/>
<text text-anchor="middle" x="488" y="-144.8" font-family="Times New Roman,serif" font-size="14.00">imported by</text>
</g>
<!-- n14&#45;&gt;n21 -->
<g id="edge28" class="edge"><title>n14&#45;&gt;n21</title>
<path fill="none" stroke="black" d="M417.795,-180.747C363.869,-165.261 261.689,-135.919 202.663,-118.969"/>
<polygon fill="black" stroke="black" points="203.448,-115.553 192.87,-116.157 201.516,-122.281 203.448,-115.553"/>
<text text-anchor="middle" x="358" y="-144.8" font-family="Times New Roman,serif" font-size="14.00">imported by</text>
</g>
<!-- n15&#45;&gt;n19 -->
<g id="edge25" class="edge"><title>n15&#45;&gt;n19</title>
<path fill="none" stroke="black" d="M667.663,-314.804C646.174,-278.508 591.706,-193.133 526.5,-141 518.431,-134.549 508.978,-128.917 499.601,-124.166"/>
<polygon fill="black" stroke="black" points="500.834,-120.875 490.303,-119.71 497.809,-127.188 500.834,-120.875"/>
<text text-anchor="middle" x="655" y="-231.8" font-family="Times New Roman,serif" font-size="14.00">imported by</text>
</g>
<!-- n18 -->
<g id="node18" class="node"><title>n18</title>
<g id="a_node18"><a xlink:href="./SadlImplicitModel.owl.svg" xlink:title="http://sadl.org/sadlimplicitmodel">
<polygon fill="none" stroke="black" points="977.5,-687 863.5,-687 863.5,-651 977.5,-651 977.5,-687"/>
<text text-anchor="middle" x="920.5" y="-665.3" font-family="Times New Roman,serif" font-size="14.00">sadlimplicitmodel</text>
</a>
</g>
</g>
<!-- n20 -->
<g id="node20" class="node"><title>n20</title>
<g id="a_node20"><a xlink:href="./GenerateCSV.owl.svg" xlink:title="http://TurnstileSystem/GenerateCSV">
<polygon fill="none" stroke="black" points="376.5,-36 320.5,-36 320.5,-0 376.5,-0 376.5,-36"/>
<text text-anchor="middle" x="348.5" y="-14.3" font-family="Times New Roman,serif" font-size="14.00">gencsv</text>
</a>
</g>
</g>
<!-- n19&#45;&gt;n20 -->
<g id="edge23" class="edge"><title>n19&#45;&gt;n20</title>
<path fill="none" stroke="black" d="M432.252,-86.799C416.596,-74.1257 395.112,-56.7335 377.823,-42.7377"/>
<polygon fill="black" stroke="black" points="379.691,-39.7471 369.717,-36.1754 375.287,-45.1878 379.691,-39.7471"/>
<text text-anchor="middle" x="442" y="-57.8" font-family="Times New Roman,serif" font-size="14.00">imported by</text>
</g>
<!-- n21&#45;&gt;n20 -->
<g id="edge24" class="edge"><title>n21&#45;&gt;n20</title>
<path fill="none" stroke="black" d="M192.532,-88.4097C226.101,-73.471 276.601,-50.9969 310.977,-35.6987"/>
<polygon fill="black" stroke="black" points="312.505,-38.8499 320.218,-31.5863 309.659,-32.4546 312.505,-38.8499"/>
<text text-anchor="middle" x="299" y="-57.8" font-family="Times New Roman,serif" font-size="14.00">imported by</text>
</g>
<!-- n22 -->
<g id="node22" class="node"><title>n22</title>
<g id="a_node22"><a xlink:href="./SadlBuiltinFunctions.owl.svg" xlink:title="http://sadl.org/builtinfunctions">
<polygon fill="none" stroke="black" points="1097.5,-687 995.5,-687 995.5,-651 1097.5,-651 1097.5,-687"/>
<text text-anchor="middle" x="1046.5" y="-665.3" font-family="Times New Roman,serif" font-size="14.00">builtinfunctions</text>
</a>
</g>
</g>
</g>
</svg>
