<?xml version="1.0" encoding="UTF-8" standalone="no"?>
<!DOCTYPE svg PUBLIC "-//W3C//DTD SVG 1.1//EN"
 "http://www.w3.org/Graphics/SVG/1.1/DTD/svg11.dtd">
<!-- Generated by graphviz version 2.38.0 (20140413.2041)
 -->
<!-- Title: gProject Pages: 1 -->
<svg width="946pt" height="718pt"
 viewBox="0.00 0.00 946.00 718.00" xmlns="http://www.w3.org/2000/svg" xmlns:xlink="http://www.w3.org/1999/xlink">
<g id="graph0" class="graph" transform="scale(1 1) rotate(0) translate(4 714)">
<title>gProject</title>
<polygon fill="white" stroke="none" points="-4,4 -4,-714 942,-714 942,4 -4,4"/>
<text text-anchor="middle" x="112" y="-694.8" font-family="Times New Roman,serif" font-size="14.00">Project RACK&#45;Ontology import map</text>
<!-- n1 -->
<g id="node1" class="node"><title>n1</title>
<g id="a_node1"><a xlink:href="file:./SYSTEM.owl.svg" xlink:title="http://arcos.rack/SYSTEM">
<polygon fill="none" stroke="black" points="86.5,-513 32.5,-513 32.5,-477 86.5,-477 86.5,-513"/>
<text text-anchor="middle" x="59.5" y="-491.3" font-family="Times New Roman,serif" font-size="14.00">sys</text>
</a>
</g>
</g>
<!-- n2 -->
<g id="node2" class="node"><title>n2</title>
<g id="a_node2"><a xlink:href="file:./CounterApplication.owl.svg" xlink:title="http://TurnstileSystem/CounterApplication">
<polygon fill="none" stroke="black" points="63,-297 0,-297 0,-261 63,-261 63,-297"/>
<text text-anchor="middle" x="31.5" y="-275.3" font-family="Times New Roman,serif" font-size="14.00">trnstlsys</text>
</a>
</g>
</g>
<!-- n1&#45;&gt;n2 -->
<g id="edge1" class="edge"><title>n1&#45;&gt;n2</title>
<path fill="none" stroke="black" d="M57.256,-476.849C52.4126,-439.832 40.9442,-352.181 35.0832,-307.386"/>
<polygon fill="black" stroke="black" points="38.5226,-306.694 33.7547,-297.232 31.5817,-307.602 38.5226,-306.694"/>
<text text-anchor="middle" x="83" y="-383.3" font-family="Times New Roman,serif" font-size="14.00">imported by</text>
</g>
<!-- n3 -->
<g id="node3" class="node"><title>n3</title>
<g id="a_node3"><a xlink:href="file:./Turnstiles.owl.svg" xlink:title="http://TurnstileSystem/TurnStiles">
<polygon fill="none" stroke="black" points="284.5,-405 230.5,-405 230.5,-369 284.5,-369 284.5,-405"/>
<text text-anchor="middle" x="257.5" y="-383.3" font-family="Times New Roman,serif" font-size="14.00">trnstl</text>
</a>
</g>
</g>
<!-- n1&#45;&gt;n3 -->
<g id="edge11" class="edge"><title>n1&#45;&gt;n3</title>
<path fill="none" stroke="black" d="M86.6159,-479.483C121.62,-460.744 182.639,-428.077 221.5,-407.273"/>
<polygon fill="black" stroke="black" points="223.23,-410.316 230.395,-402.511 219.927,-404.145 223.23,-410.316"/>
<text text-anchor="middle" x="223" y="-437.3" font-family="Times New Roman,serif" font-size="14.00">imported by</text>
</g>
<!-- n17 -->
<g id="node17" class="node"><title>n17</title>
<g id="a_node17"><a xlink:href="file:./CounterApplicationLLR.owl.svg" xlink:title="http://TurnstileSystem/CounterApplicationLLR">
<polygon fill="none" stroke="black" points="192.5,-123 122.5,-123 122.5,-87 192.5,-87 192.5,-123"/>
<text text-anchor="middle" x="157.5" y="-101.3" font-family="Times New Roman,serif" font-size="14.00">cntrappllr</text>
</a>
</g>
</g>
<!-- n2&#45;&gt;n17 -->
<g id="edge29" class="edge"><title>n2&#45;&gt;n17</title>
<path fill="none" stroke="black" d="M29.5461,-260.989C27.9121,-239.038 28.1415,-200.525 45.5,-174 61.3351,-149.803 89.0618,-132.869 112.965,-121.952"/>
<polygon fill="black" stroke="black" points="114.468,-125.115 122.245,-117.919 111.679,-118.695 114.468,-125.115"/>
<text text-anchor="middle" x="80" y="-188.3" font-family="Times New Roman,serif" font-size="14.00">imported by</text>
</g>
<!-- n3&#45;&gt;n2 -->
<g id="edge2" class="edge"><title>n3&#45;&gt;n2</title>
<path fill="none" stroke="black" d="M230.47,-377.201C211.23,-370.659 184.92,-361.142 162.5,-351 130.032,-336.312 94.5732,-316.872 68.7446,-302.048"/>
<polygon fill="black" stroke="black" points="70.4404,-298.986 60.031,-297.012 66.9378,-305.046 70.4404,-298.986"/>
<text text-anchor="middle" x="197" y="-329.3" font-family="Times New Roman,serif" font-size="14.00">imported by</text>
</g>
<!-- n4 -->
<g id="node4" class="node"><title>n4</title>
<g id="a_node4"><a xlink:href="file:./HazardAssesment.owl.svg" xlink:title="http://TurnstileSystem/HazardAssesment">
<polygon fill="none" stroke="black" points="517.5,-297 463.5,-297 463.5,-261 517.5,-261 517.5,-297"/>
<text text-anchor="middle" x="490.5" y="-275.3" font-family="Times New Roman,serif" font-size="14.00">ha</text>
</a>
</g>
</g>
<!-- n3&#45;&gt;n4 -->
<g id="edge3" class="edge"><title>n3&#45;&gt;n4</title>
<path fill="none" stroke="black" d="M269.331,-368.986C273.244,-363.294 277.595,-356.898 281.5,-351 291.981,-335.168 288.443,-325.132 304.5,-315 359.42,-280.346 386.715,-313.587 449.5,-297 450.757,-296.668 452.027,-296.306 453.302,-295.919"/>
<polygon fill="black" stroke="black" points="454.745,-299.124 463.062,-292.56 452.467,-292.505 454.745,-299.124"/>
<text text-anchor="middle" x="339" y="-329.3" font-family="Times New Roman,serif" font-size="14.00">imported by</text>
</g>
<!-- n10 -->
<g id="node10" class="node"><title>n10</title>
<g id="a_node10"><a xlink:href="file:./InGateRequirements.owl.svg" xlink:title="http://TurnstileSystem/InGateRequirement">
<polygon fill="none" stroke="black" points="361,-210 300,-210 300,-174 361,-174 361,-210"/>
<text text-anchor="middle" x="330.5" y="-188.3" font-family="Times New Roman,serif" font-size="14.00">ingaterq</text>
</a>
</g>
</g>
<!-- n3&#45;&gt;n10 -->
<g id="edge8" class="edge"><title>n3&#45;&gt;n10</title>
<path fill="none" stroke="black" d="M250.945,-368.855C242.487,-343.827 230.73,-296.418 247.5,-261 256.664,-241.645 274.336,-225.96 291.026,-214.553"/>
<polygon fill="black" stroke="black" points="293.13,-217.36 299.614,-208.98 289.32,-211.487 293.13,-217.36"/>
<text text-anchor="middle" x="282" y="-275.3" font-family="Times New Roman,serif" font-size="14.00">imported by</text>
</g>
<!-- n14 -->
<g id="node14" class="node"><title>n14</title>
<g id="a_node14"><a xlink:href="file:./CounterApplicationRequirements.owl.svg" xlink:title="http://TurnstileSystem/CounterApplicationRequirements">
<polygon fill="none" stroke="black" points="491,-210 420,-210 420,-174 491,-174 491,-210"/>
<text text-anchor="middle" x="455.5" y="-188.3" font-family="Times New Roman,serif" font-size="14.00">cntrapprq</text>
</a>
</g>
</g>
<!-- n3&#45;&gt;n14 -->
<g id="edge17" class="edge"><title>n3&#45;&gt;n14</title>
<path fill="none" stroke="black" d="M260.324,-368.947C263.693,-353.285 270.7,-330.258 284.5,-315 296.499,-301.733 306.146,-307.675 320.5,-297 354.307,-271.858 351.693,-253.142 385.5,-228 393.268,-222.223 402.135,-216.95 410.886,-212.349"/>
<polygon fill="black" stroke="black" points="412.556,-215.427 419.914,-207.804 409.408,-209.175 412.556,-215.427"/>
<text text-anchor="middle" x="389" y="-275.3" font-family="Times New Roman,serif" font-size="14.00">imported by</text>
</g>
<!-- n4&#45;&gt;n10 -->
<g id="edge9" class="edge"><title>n4&#45;&gt;n10</title>
<path fill="none" stroke="black" d="M463.206,-266.53C458.64,-264.655 453.944,-262.754 449.5,-261 428.307,-252.635 421.644,-253.646 401.5,-243 387.096,-235.388 372.201,-225.293 359.797,-216.168"/>
<polygon fill="black" stroke="black" points="361.742,-213.252 351.643,-210.048 357.54,-218.85 361.742,-213.252"/>
<text text-anchor="middle" x="436" y="-231.8" font-family="Times New Roman,serif" font-size="14.00">imported by</text>
</g>
<!-- n4&#45;&gt;n14 -->
<g id="edge18" class="edge"><title>n4&#45;&gt;n14</title>
<path fill="none" stroke="black" d="M485.801,-260.585C482.956,-250.839 479.009,-238.562 474.5,-228 473.264,-225.105 471.866,-222.132 470.404,-219.202"/>
<polygon fill="black" stroke="black" points="473.384,-217.348 465.63,-210.128 467.189,-220.608 473.384,-217.348"/>
<text text-anchor="middle" x="515" y="-231.8" font-family="Times New Roman,serif" font-size="14.00">imported by</text>
</g>
<!-- n5 -->
<g id="node5" class="node"><title>n5</title>
<g id="a_node5"><a xlink:href="file:./HAZARD.owl.svg" xlink:title="http://arcos.rack/HAZARD">
<polygon fill="none" stroke="black" points="649.5,-459 595.5,-459 595.5,-423 649.5,-423 649.5,-459"/>
<text text-anchor="middle" x="622.5" y="-437.3" font-family="Times New Roman,serif" font-size="14.00">H</text>
</a>
</g>
</g>
<!-- n5&#45;&gt;n4 -->
<g id="edge4" class="edge"><title>n5&#45;&gt;n4</title>
<path fill="none" stroke="black" d="M608.374,-422.877C585.075,-394.636 538.478,-338.155 511.371,-305.298"/>
<polygon fill="black" stroke="black" points="513.989,-302.971 504.925,-297.485 508.589,-307.426 513.989,-302.971"/>
<text text-anchor="middle" x="626" y="-383.3" font-family="Times New Roman,serif" font-size="14.00">imported by</text>
</g>
<!-- n6 -->
<g id="node6" class="node"><title>n6</title>
<g id="a_node6"><a xlink:href="file:./properties.owl.svg" xlink:title="http://arcos.rack/properties">
<polygon fill="none" stroke="black" points="578.5,-687 524.5,-687 524.5,-651 578.5,-651 578.5,-687"/>
<text text-anchor="middle" x="551.5" y="-665.3" font-family="Times New Roman,serif" font-size="14.00">P</text>
</a>
</g>
</g>
<!-- n7 -->
<g id="node7" class="node"><title>n7</title>
<g id="a_node7"><a xlink:href="file:./PROV-S.owl.svg" xlink:title="http://arcos.rack/PROV&#45;S">
<polygon fill="none" stroke="black" points="578.5,-600 524.5,-600 524.5,-564 578.5,-564 578.5,-600"/>
<text text-anchor="middle" x="551.5" y="-578.3" font-family="Times New Roman,serif" font-size="14.00">provs</text>
</a>
</g>
</g>
<!-- n6&#45;&gt;n7 -->
<g id="edge5" class="edge"><title>n6&#45;&gt;n7</title>
<path fill="none" stroke="black" d="M551.5,-650.799C551.5,-639.163 551.5,-623.548 551.5,-610.237"/>
<polygon fill="black" stroke="black" points="555,-610.175 551.5,-600.175 548,-610.175 555,-610.175"/>
<text text-anchor="middle" x="586" y="-621.8" font-family="Times New Roman,serif" font-size="14.00">imported by</text>
</g>
<!-- n7&#45;&gt;n1 -->
<g id="edge21" class="edge"><title>n7&#45;&gt;n1</title>
<path fill="none" stroke="black" d="M524.29,-579.018C471.793,-574.924 353.01,-564.349 254.5,-546 198.832,-535.631 135.519,-518.359 96.5369,-507.075"/>
<polygon fill="black" stroke="black" points="97.272,-503.644 86.6919,-504.203 95.3114,-510.364 97.272,-503.644"/>
<text text-anchor="middle" x="289" y="-534.8" font-family="Times New Roman,serif" font-size="14.00">imported by</text>
</g>
<!-- n7&#45;&gt;n5 -->
<g id="edge12" class="edge"><title>n7&#45;&gt;n5</title>
<path fill="none" stroke="black" d="M524.249,-567.912C509.669,-558.906 495.936,-545.905 502.5,-531 516.826,-498.467 532.799,-497.972 561.5,-477 564.073,-475.12 574.69,-468.953 586.364,-462.309"/>
<polygon fill="black" stroke="black" points="588.408,-465.174 595.381,-457.197 584.956,-459.084 588.408,-465.174"/>
<text text-anchor="middle" x="537" y="-534.8" font-family="Times New Roman,serif" font-size="14.00">imported by</text>
</g>
<!-- n8 -->
<g id="node8" class="node"><title>n8</title>
<g id="a_node8"><a xlink:href="file:./ANALYSIS.owl.svg" xlink:title="http://arcos.rack/ANALYSIS">
<polygon fill="none" stroke="black" points="440.5,-513 386.5,-513 386.5,-477 440.5,-477 440.5,-513"/>
<text text-anchor="middle" x="413.5" y="-491.3" font-family="Times New Roman,serif" font-size="14.00">A</text>
</a>
</g>
</g>
<!-- n7&#45;&gt;n8 -->
<g id="edge6" class="edge"><title>n7&#45;&gt;n8</title>
<path fill="none" stroke="black" d="M524.269,-577.922C488.322,-573.239 427.997,-563.024 414.5,-546 409.474,-539.661 407.975,-531.313 408.1,-523.258"/>
<polygon fill="black" stroke="black" points="411.61,-523.31 409.04,-513.032 404.639,-522.669 411.61,-523.31"/>
<text text-anchor="middle" x="449" y="-534.8" font-family="Times New Roman,serif" font-size="14.00">imported by</text>
</g>
<!-- n9 -->
<g id="node9" class="node"><title>n9</title>
<g id="a_node9"><a xlink:href="file:./REQUIREMENTS.owl.svg" xlink:title="http://arcos.rack/REQUIREMENTS">
<polygon fill="none" stroke="black" points="348.5,-513 294.5,-513 294.5,-477 348.5,-477 348.5,-513"/>
<text text-anchor="middle" x="321.5" y="-491.3" font-family="Times New Roman,serif" font-size="14.00">Rq</text>
</a>
</g>
</g>
<!-- n7&#45;&gt;n9 -->
<g id="edge13" class="edge"><title>n7&#45;&gt;n9</title>
<path fill="none" stroke="black" d="M524.23,-580.076C472.762,-577.781 363.999,-570.136 336.5,-546 329.914,-540.22 326.164,-531.673 324.046,-523.275"/>
<polygon fill="black" stroke="black" points="327.46,-522.492 322.192,-513.3 320.578,-523.771 327.46,-522.492"/>
<text text-anchor="middle" x="371" y="-534.8" font-family="Times New Roman,serif" font-size="14.00">imported by</text>
</g>
<!-- n11 -->
<g id="node11" class="node"><title>n11</title>
<g id="a_node11"><a xlink:href="file:./SACM-S.owl.svg" xlink:title="http://arcos.rack/SACM&#45;S">
<polygon fill="none" stroke="black" points="624.5,-513 570.5,-513 570.5,-477 624.5,-477 624.5,-513"/>
<text text-anchor="middle" x="597.5" y="-491.3" font-family="Times New Roman,serif" font-size="14.00">sacms</text>
</a>
</g>
</g>
<!-- n7&#45;&gt;n11 -->
<g id="edge14" class="edge"><title>n7&#45;&gt;n11</title>
<path fill="none" stroke="black" d="M564.123,-563.962C568.002,-558.378 572.132,-552.052 575.5,-546 579.65,-538.542 583.602,-530.148 586.981,-522.398"/>
<polygon fill="black" stroke="black" points="590.264,-523.619 590.927,-513.044 583.815,-520.897 590.264,-523.619"/>
<text text-anchor="middle" x="617" y="-534.8" font-family="Times New Roman,serif" font-size="14.00">imported by</text>
</g>
<!-- n13 -->
<g id="node13" class="node"><title>n13</title>
<g id="a_node13"><a xlink:href="file:./SOFTWARE.owl.svg" xlink:title="http://arcos.rack/SOFTWARE">
<polygon fill="none" stroke="black" points="822.5,-513 768.5,-513 768.5,-477 822.5,-477 822.5,-513"/>
<text text-anchor="middle" x="795.5" y="-491.3" font-family="Times New Roman,serif" font-size="14.00">sw</text>
</a>
</g>
</g>
<!-- n7&#45;&gt;n13 -->
<g id="edge15" class="edge"><title>n7&#45;&gt;n13</title>
<path fill="none" stroke="black" d="M578.575,-576.31C607.925,-570.793 655.879,-560.509 695.5,-546 717.329,-538.006 740.62,-526.548 759.228,-516.617"/>
<polygon fill="black" stroke="black" points="761.105,-519.581 768.228,-511.739 757.769,-513.427 761.105,-519.581"/>
<text text-anchor="middle" x="763" y="-534.8" font-family="Times New Roman,serif" font-size="14.00">imported by</text>
</g>
<!-- n19 -->
<g id="node19" class="node"><title>n19</title>
<g id="a_node19"><a xlink:href="file:./TESTING.owl.svg" xlink:title="http://arcos.rack/TESTING">
<polygon fill="none" stroke="black" points="708.5,-351 654.5,-351 654.5,-315 708.5,-315 708.5,-351"/>
<text text-anchor="middle" x="681.5" y="-329.3" font-family="Times New Roman,serif" font-size="14.00">tst</text>
</a>
</g>
</g>
<!-- n7&#45;&gt;n19 -->
<g id="edge23" class="edge"><title>n7&#45;&gt;n19</title>
<path fill="none" stroke="black" d="M578.577,-579.641C602.65,-576.888 636.839,-568.884 655.5,-546 699.015,-492.637 693.082,-405.148 686.541,-361.115"/>
<polygon fill="black" stroke="black" points="689.982,-360.47 684.938,-351.153 683.071,-361.582 689.982,-360.47"/>
<text text-anchor="middle" x="720" y="-491.3" font-family="Times New Roman,serif" font-size="14.00">imported by</text>
</g>
<!-- n20 -->
<g id="node20" class="node"><title>n20</title>
<g id="a_node20"><a xlink:href="file:./REVIEW.owl.svg" xlink:title="http://arcos.rack/REVIEW">
<polygon fill="none" stroke="black" points="894.5,-513 840.5,-513 840.5,-477 894.5,-477 894.5,-513"/>
<text text-anchor="middle" x="867.5" y="-491.3" font-family="Times New Roman,serif" font-size="14.00">Rv</text>
</a>
</g>
</g>
<!-- n7&#45;&gt;n20 -->
<g id="edge24" class="edge"><title>n7&#45;&gt;n20</title>
<path fill="none" stroke="black" d="M578.565,-581.593C625.723,-581.689 725.208,-577.692 801.5,-546 816.242,-539.876 830.613,-529.657 842.161,-520.048"/>
<polygon fill="black" stroke="black" points="844.77,-522.419 850.036,-513.226 840.186,-517.128 844.77,-522.419"/>
<text text-anchor="middle" x="861" y="-534.8" font-family="Times New Roman,serif" font-size="14.00">imported by</text>
</g>
<!-- n9&#45;&gt;n3 -->
<g id="edge10" class="edge"><title>n9&#45;&gt;n3</title>
<path fill="none" stroke="black" d="M311.217,-476.969C300.968,-459.994 285.091,-433.698 273.252,-414.09"/>
<polygon fill="black" stroke="black" points="276.135,-412.092 267.97,-405.341 270.142,-415.71 276.135,-412.092"/>
<text text-anchor="middle" x="334" y="-437.3" font-family="Times New Roman,serif" font-size="14.00">imported by</text>
</g>
<!-- n9&#45;&gt;n10 -->
<g id="edge7" class="edge"><title>n9&#45;&gt;n10</title>
<path fill="none" stroke="black" d="M348.536,-482.062C357.85,-476.482 367.251,-468.858 372.5,-459 402.581,-402.508 404.613,-370.93 373.5,-315 366.126,-301.743 352.744,-309.734 344.5,-297 329.78,-274.263 327.435,-242.859 328.057,-220.523"/>
<polygon fill="black" stroke="black" points="331.561,-220.525 328.559,-210.365 324.57,-220.18 331.561,-220.525"/>
<text text-anchor="middle" x="425" y="-329.3" font-family="Times New Roman,serif" font-size="14.00">imported by</text>
</g>
<!-- n9&#45;&gt;n14 -->
<g id="edge16" class="edge"><title>n9&#45;&gt;n14</title>
<path fill="none" stroke="black" d="M348.729,-485.04C411.192,-464.361 559.943,-414.358 566.5,-405 572.506,-396.429 572.421,-252.386 553.5,-228 540.957,-211.834 520.331,-203.121 501.229,-198.431"/>
<polygon fill="black" stroke="black" points="501.941,-195.005 491.429,-196.328 500.472,-201.849 501.941,-195.005"/>
<text text-anchor="middle" x="604" y="-329.3" font-family="Times New Roman,serif" font-size="14.00">imported by</text>
</g>
<!-- n9&#45;&gt;n17 -->
<g id="edge27" class="edge"><title>n9&#45;&gt;n17</title>
<path fill="none" stroke="black" d="M294.482,-482.095C252.738,-462.011 174.084,-417.021 142.5,-351 107.793,-278.45 132.411,-179.716 147.746,-132.834"/>
<polygon fill="black" stroke="black" points="151.143,-133.715 151.037,-123.121 144.514,-131.469 151.143,-133.715"/>
<text text-anchor="middle" x="162" y="-275.3" font-family="Times New Roman,serif" font-size="14.00">imported by</text>
</g>
<!-- n12 -->
<g id="node12" class="node"><title>n12</title>
<g id="a_node12"><a xlink:href="file:./SadlImplicitModel.owl.svg" xlink:title="http://sadl.org/sadlimplicitmodel">
<polygon fill="none" stroke="black" points="710.5,-687 596.5,-687 596.5,-651 710.5,-651 710.5,-687"/>
<text text-anchor="middle" x="653.5" y="-665.3" font-family="Times New Roman,serif" font-size="14.00">sadlimplicitmodel</text>
</a>
</g>
</g>
<!-- n18 -->
<g id="node18" class="node"><title>n18</title>
<g id="a_node18"><a xlink:href="file:./Sample2.owl.svg" xlink:title="http://TurnstileSystem/Sample2">
<polygon fill="none" stroke="black" points="822.5,-405 768.5,-405 768.5,-369 822.5,-369 822.5,-405"/>
<text text-anchor="middle" x="795.5" y="-383.3" font-family="Times New Roman,serif" font-size="14.00">smpl2</text>
</a>
</g>
</g>
<!-- n13&#45;&gt;n18 -->
<g id="edge22" class="edge"><title>n13&#45;&gt;n18</title>
<path fill="none" stroke="black" d="M795.5,-476.969C795.5,-460.378 795.5,-434.883 795.5,-415.431"/>
<polygon fill="black" stroke="black" points="799,-415.341 795.5,-405.341 792,-415.341 799,-415.341"/>
<text text-anchor="middle" x="830" y="-437.3" font-family="Times New Roman,serif" font-size="14.00">imported by</text>
</g>
<!-- n15 -->
<g id="node15" class="node"><title>n15</title>
<g id="a_node15"><a xlink:href="file:./CounterApplicationTesting.owl.svg" xlink:title="http://TurnstileSystem/CounterApplicationTesting">
<polygon fill="none" stroke="black" points="492,-123 419,-123 419,-87 492,-87 492,-123"/>
<text text-anchor="middle" x="455.5" y="-101.3" font-family="Times New Roman,serif" font-size="14.00">cntrapptst</text>
</a>
</g>
</g>
<!-- n14&#45;&gt;n15 -->
<g id="edge26" class="edge"><title>n14&#45;&gt;n15</title>
<path fill="none" stroke="black" d="M455.5,-173.799C455.5,-162.163 455.5,-146.548 455.5,-133.237"/>
<polygon fill="black" stroke="black" points="459,-133.175 455.5,-123.175 452,-133.175 459,-133.175"/>
<text text-anchor="middle" x="490" y="-144.8" font-family="Times New Roman,serif" font-size="14.00">imported by</text>
</g>
<!-- n14&#45;&gt;n17 -->
<g id="edge28" class="edge"><title>n14&#45;&gt;n17</title>
<path fill="none" stroke="black" d="M419.85,-180.831C365.523,-165.335 262.063,-135.825 202.59,-118.861"/>
<polygon fill="black" stroke="black" points="203.305,-115.426 192.728,-116.048 201.385,-122.157 203.305,-115.426"/>
<text text-anchor="middle" x="359" y="-144.8" font-family="Times New Roman,serif" font-size="14.00">imported by</text>
</g>
<!-- n16 -->
<g id="node16" class="node"><title>n16</title>
<g id="a_node16"><a xlink:href="file:./GenerateCSV.owl.svg" xlink:title="http://TurnstileSystem/GenerateCSV">
<polygon fill="none" stroke="black" points="377.5,-36 321.5,-36 321.5,-0 377.5,-0 377.5,-36"/>
<text text-anchor="middle" x="349.5" y="-14.3" font-family="Times New Roman,serif" font-size="14.00">gencsv</text>
</a>
</g>
</g>
<!-- n15&#45;&gt;n16 -->
<g id="edge19" class="edge"><title>n15&#45;&gt;n16</title>
<path fill="none" stroke="black" d="M434.049,-86.799C418.245,-74.1257 396.556,-56.7335 379.102,-42.7377"/>
<polygon fill="black" stroke="black" points="380.91,-39.7009 370.919,-36.1754 376.531,-45.1619 380.91,-39.7009"/>
<text text-anchor="middle" x="444" y="-57.8" font-family="Times New Roman,serif" font-size="14.00">imported by</text>
</g>
<!-- n17&#45;&gt;n16 -->
<g id="edge20" class="edge"><title>n17&#45;&gt;n16</title>
<path fill="none" stroke="black" d="M192.716,-88.4097C226.559,-73.4272 277.523,-50.865 312.084,-35.5643"/>
<polygon fill="black" stroke="black" points="313.642,-38.7022 321.369,-31.4536 310.809,-32.3014 313.642,-38.7022"/>
<text text-anchor="middle" x="300" y="-57.8" font-family="Times New Roman,serif" font-size="14.00">imported by</text>
</g>
<!-- n19&#45;&gt;n15 -->
<g id="edge25" class="edge"><title>n19&#45;&gt;n15</title>
<path fill="none" stroke="black" d="M671.476,-314.813C649.594,-278.533 594.207,-193.19 528.5,-141 520.411,-134.575 510.949,-128.954 501.57,-124.205"/>
<polygon fill="black" stroke="black" points="502.802,-120.915 492.272,-119.75 499.777,-127.228 502.802,-120.915"/>
<text text-anchor="middle" x="657" y="-231.8" font-family="Times New Roman,serif" font-size="14.00">imported by</text>
</g>
<!-- n21 -->
<g id="node21" class="node"><title>n21</title>
<g id="a_node21"><a xlink:href="file:./SadlBuiltinFunctions.owl.svg" xlink:title="http://sadl.org/builtinfunctions">
<polygon fill="none" stroke="black" points="830.5,-687 728.5,-687 728.5,-651 830.5,-651 830.5,-687"/>
<text text-anchor="middle" x="779.5" y="-665.3" font-family="Times New Roman,serif" font-size="14.00">builtinfunctions</text>
</a>
</g>
</g>
<!-- n22 -->
<g id="node22" class="node"><title>n22</title>
<g id="a_node22"><a xlink:href="file:./SadlListModel.owl.svg" xlink:title="http://sadl.org/sadllistmodel">
<polygon fill="none" stroke="black" points="938,-687 849,-687 849,-651 938,-651 938,-687"/>
<text text-anchor="middle" x="893.5" y="-665.3" font-family="Times New Roman,serif" font-size="14.00">sadllistmodel</text>
</a>
</g>
</g>
</g>
</svg>
