<?xml version="1.0" encoding="UTF-8" standalone="no"?>
<!DOCTYPE svg PUBLIC "-//W3C//DTD SVG 1.1//EN"
 "http://www.w3.org/Graphics/SVG/1.1/DTD/svg11.dtd">
<!-- Generated by graphviz version 2.38.0 (20140413.2041)
 -->
<!-- Title: gProject Pages: 1 -->
<svg width="2263pt" height="589pt"
 viewBox="0.00 0.00 2262.87 589.00" xmlns="http://www.w3.org/2000/svg" xmlns:xlink="http://www.w3.org/1999/xlink">
<g id="graph0" class="graph" transform="scale(1 1) rotate(0) translate(4 585)">
<title>gProject</title>
<polygon fill="white" stroke="none" points="-4,4 -4,-585 2258.87,-585 2258.87,4 -4,4"/>
<text text-anchor="middle" x="127" y="-565.8" font-family="Times New Roman,serif" font-size="14.00">Project RACK&#45;Ontology&#45;7&#45;29 import map</text>
<!-- n1 -->
<g id="node1" class="node"><title>n1</title>
<g id="a_node1"><a xlink:href="./SadlBaseModel.owl.svg" xlink:title="http://sadl.org/sadlbasemodel">
<polygon fill="none" stroke="black" points="832.374,-558 733.374,-558 733.374,-522 832.374,-522 832.374,-558"/>
<text text-anchor="middle" x="782.874" y="-536.3" font-family="Times New Roman,serif" font-size="14.00">sadlbasemodel</text>
</a>
</g>
</g>
<!-- n2 -->
<g id="node2" class="node"><title>n2</title>
<g id="a_node2"><a xlink:href="./SadlListModel.owl.svg" xlink:title="http://sadl.org/sadllistmodel">
<polygon fill="none" stroke="black" points="939.374,-558 850.374,-558 850.374,-522 939.374,-522 939.374,-558"/>
<text text-anchor="middle" x="894.874" y="-536.3" font-family="Times New Roman,serif" font-size="14.00">sadllistmodel</text>
</a>
</g>
</g>
<!-- n3 -->
<g id="node3" class="node"><title>n3</title>
<g id="a_node3"><a xlink:href="./PROV-S.owl.svg" xlink:title="http://arcos.rack/PROV&#45;S">
<polygon fill="none" stroke="black" points="1011.87,-558 957.874,-558 957.874,-522 1011.87,-522 1011.87,-558"/>
<text text-anchor="middle" x="984.874" y="-536.3" font-family="Times New Roman,serif" font-size="14.00">provs</text>
</a>
</g>
</g>
<!-- n4 -->
<g id="node4" class="node"><title>n4</title>
<g id="a_node4"><a xlink:href="./PROCESS.owl.svg" xlink:title="http://arcos.rack/PROCESS">
<polygon fill="none" stroke="black" points="1653.87,-471 1599.87,-471 1599.87,-435 1653.87,-435 1653.87,-471"/>
<text text-anchor="middle" x="1626.87" y="-449.3" font-family="Times New Roman,serif" font-size="14.00">Pr</text>
</a>
</g>
</g>
<!-- n3&#45;&gt;n4 -->
<g id="edge1" class="edge"><title>n3&#45;&gt;n4</title>
<path fill="none" stroke="black" d="M1011.99,-524.912C1014.94,-523.773 1017.93,-522.767 1020.87,-522 1133.39,-492.668 1166.26,-516.347 1281.87,-504 1394.46,-491.976 1526.74,-470.823 1589.81,-460.305"/>
<polygon fill="black" stroke="black" points="1590.4,-463.756 1599.68,-458.651 1589.24,-456.852 1590.4,-463.756"/>
<text text-anchor="middle" x="1431.37" y="-492.8" font-family="Times New Roman,serif" font-size="14.00">imported by</text>
</g>
<!-- n5 -->
<g id="node5" class="node"><title>n5</title>
<g id="a_node5"><a xlink:href="./REQUIREMENTS.owl.svg" xlink:title="http://arcos.rack/REQUIREMENTS">
<polygon fill="none" stroke="black" points="1171.87,-471 1117.87,-471 1117.87,-435 1171.87,-435 1171.87,-471"/>
<text text-anchor="middle" x="1144.87" y="-449.3" font-family="Times New Roman,serif" font-size="14.00">Rq</text>
</a>
</g>
</g>
<!-- n3&#45;&gt;n5 -->
<g id="edge31" class="edge"><title>n3&#45;&gt;n5</title>
<path fill="none" stroke="black" d="M1012,-526.117C1030.86,-517.136 1053.4,-506.356 1057.87,-504 1074.89,-495.049 1093.4,-484.525 1108.95,-475.447"/>
<polygon fill="black" stroke="black" points="1110.88,-478.372 1117.74,-470.292 1107.34,-472.335 1110.88,-478.372"/>
<text text-anchor="middle" x="1119.37" y="-492.8" font-family="Times New Roman,serif" font-size="14.00">imported by</text>
</g>
<!-- n7 -->
<g id="node7" class="node"><title>n7</title>
<g id="a_node7"><a xlink:href="./SYSTEM.owl.svg" xlink:title="http://arcos.rack/SYSTEM">
<polygon fill="none" stroke="black" points="583.874,-471 529.874,-471 529.874,-435 583.874,-435 583.874,-471"/>
<text text-anchor="middle" x="556.874" y="-449.3" font-family="Times New Roman,serif" font-size="14.00">sys</text>
</a>
</g>
</g>
<!-- n3&#45;&gt;n7 -->
<g id="edge11" class="edge"><title>n3&#45;&gt;n7</title>
<path fill="none" stroke="black" d="M957.787,-525.283C954.507,-524.004 951.155,-522.865 947.874,-522 856.869,-497.995 829.505,-520.667 736.874,-504 686.397,-494.918 629.599,-477.978 593.549,-466.353"/>
<polygon fill="black" stroke="black" points="594.546,-462.997 583.954,-463.226 592.378,-469.652 594.546,-462.997"/>
<text text-anchor="middle" x="771.374" y="-492.8" font-family="Times New Roman,serif" font-size="14.00">imported by</text>
</g>
<!-- n8 -->
<g id="node8" class="node"><title>n8</title>
<g id="a_node8"><a xlink:href="./ANALYSIS.owl.svg" xlink:title="http://arcos.rack/ANALYSIS">
<polygon fill="none" stroke="black" points="420.874,-471 366.874,-471 366.874,-435 420.874,-435 420.874,-471"/>
<text text-anchor="middle" x="393.874" y="-449.3" font-family="Times New Roman,serif" font-size="14.00">A</text>
</a>
</g>
</g>
<!-- n3&#45;&gt;n8 -->
<g id="edge15" class="edge"><title>n3&#45;&gt;n8</title>
<path fill="none" stroke="black" d="M957.815,-525.173C954.53,-523.914 951.169,-522.81 947.874,-522 797.05,-484.913 752.553,-526.501 598.874,-504 539.228,-495.267 471.56,-477.102 430.827,-465.239"/>
<polygon fill="black" stroke="black" points="431.655,-461.834 421.073,-462.368 429.678,-468.549 431.655,-461.834"/>
<text text-anchor="middle" x="633.374" y="-492.8" font-family="Times New Roman,serif" font-size="14.00">imported by</text>
</g>
<!-- n9 -->
<g id="node9" class="node"><title>n9</title>
<g id="a_node9"><a xlink:href="./TESTING.owl.svg" xlink:title="http://arcos.rack/TESTING">
<polygon fill="none" stroke="black" points="1336.87,-471 1282.87,-471 1282.87,-435 1336.87,-435 1336.87,-471"/>
<text text-anchor="middle" x="1309.87" y="-449.3" font-family="Times New Roman,serif" font-size="14.00">tst</text>
</a>
</g>
</g>
<!-- n3&#45;&gt;n9 -->
<g id="edge16" class="edge"><title>n3&#45;&gt;n9</title>
<path fill="none" stroke="black" d="M1012.05,-525.099C1014.98,-523.923 1017.96,-522.858 1020.87,-522 1079.79,-504.68 1098,-517.655 1157.87,-504 1198.03,-494.844 1242.64,-479.525 1273.09,-468.252"/>
<polygon fill="black" stroke="black" points="1274.71,-471.383 1282.85,-464.599 1272.26,-464.828 1274.71,-471.383"/>
<text text-anchor="middle" x="1243.37" y="-492.8" font-family="Times New Roman,serif" font-size="14.00">imported by</text>
</g>
<!-- n10 -->
<g id="node10" class="node"><title>n10</title>
<g id="a_node10"><a xlink:href="./SOFTWARE.owl.svg" xlink:title="http://arcos.rack/SOFTWARE">
<polygon fill="none" stroke="black" points="190.874,-471 136.874,-471 136.874,-435 190.874,-435 190.874,-471"/>
<text text-anchor="middle" x="163.874" y="-449.3" font-family="Times New Roman,serif" font-size="14.00">sw</text>
</a>
</g>
</g>
<!-- n3&#45;&gt;n10 -->
<g id="edge42" class="edge"><title>n3&#45;&gt;n10</title>
<path fill="none" stroke="black" d="M957.827,-525.124C954.539,-523.873 951.175,-522.785 947.874,-522 840.572,-496.481 561.572,-515.459 451.874,-504 361.07,-494.514 255.659,-473.668 201.016,-462.113"/>
<polygon fill="black" stroke="black" points="201.611,-458.661 191.101,-460 200.152,-465.507 201.611,-458.661"/>
<text text-anchor="middle" x="486.374" y="-492.8" font-family="Times New Roman,serif" font-size="14.00">imported by</text>
</g>
<!-- n11 -->
<g id="node11" class="node"><title>n11</title>
<g id="a_node11"><a xlink:href="./HAZARD.owl.svg" xlink:title="http://arcos.rack/HAZARD">
<polygon fill="none" stroke="black" points="1011.87,-471 957.874,-471 957.874,-435 1011.87,-435 1011.87,-471"/>
<text text-anchor="middle" x="984.874" y="-449.3" font-family="Times New Roman,serif" font-size="14.00">H</text>
</a>
</g>
</g>
<!-- n3&#45;&gt;n11 -->
<g id="edge10" class="edge"><title>n3&#45;&gt;n11</title>
<path fill="none" stroke="black" d="M984.874,-521.799C984.874,-510.163 984.874,-494.548 984.874,-481.237"/>
<polygon fill="black" stroke="black" points="988.374,-481.175 984.874,-471.175 981.374,-481.175 988.374,-481.175"/>
<text text-anchor="middle" x="1019.37" y="-492.8" font-family="Times New Roman,serif" font-size="14.00">imported by</text>
</g>
<!-- n12 -->
<g id="node12" class="node"><title>n12</title>
<g id="a_node12"><a xlink:href="./REVIEW.owl.svg" xlink:title="http://arcos.rack/REVIEW">
<polygon fill="none" stroke="black" points="813.874,-471 759.874,-471 759.874,-435 813.874,-435 813.874,-471"/>
<text text-anchor="middle" x="786.874" y="-449.3" font-family="Times New Roman,serif" font-size="14.00">Rv</text>
</a>
</g>
</g>
<!-- n3&#45;&gt;n12 -->
<g id="edge14" class="edge"><title>n3&#45;&gt;n12</title>
<path fill="none" stroke="black" d="M957.731,-525.481C954.461,-524.167 951.127,-522.966 947.874,-522 895.332,-506.401 873.235,-531.586 825.874,-504 815.926,-498.205 807.597,-488.801 801.225,-479.703"/>
<polygon fill="black" stroke="black" points="804.096,-477.698 795.726,-471.202 798.219,-481.5 804.096,-477.698"/>
<text text-anchor="middle" x="860.374" y="-492.8" font-family="Times New Roman,serif" font-size="14.00">imported by</text>
</g>
<!-- n13 -->
<g id="node13" class="node"><title>n13</title>
<g id="a_node13"><a xlink:href="./SACM-S.owl.svg" xlink:title="http://arcos.rack/SACM&#45;S">
<polygon fill="none" stroke="black" points="905.874,-471 851.874,-471 851.874,-435 905.874,-435 905.874,-471"/>
<text text-anchor="middle" x="878.874" y="-449.3" font-family="Times New Roman,serif" font-size="14.00">sacms</text>
</a>
</g>
</g>
<!-- n3&#45;&gt;n13 -->
<g id="edge13" class="edge"><title>n3&#45;&gt;n13</title>
<path fill="none" stroke="black" d="M957.5,-526.291C937.602,-516.986 913.821,-505.698 911.874,-504 904.161,-497.272 897.502,-488.329 892.225,-479.867"/>
<polygon fill="black" stroke="black" points="895.118,-477.879 887.059,-471.002 889.07,-481.404 895.118,-477.879"/>
<text text-anchor="middle" x="946.374" y="-492.8" font-family="Times New Roman,serif" font-size="14.00">imported by</text>
</g>
<!-- n14 -->
<g id="node14" class="node"><title>n14</title>
<g id="a_node14"><a xlink:href="./AGENTS.owl.svg" xlink:title="http://arcos.rack/AGENTS">
<polygon fill="none" stroke="black" points="1927.87,-471 1855.87,-471 1855.87,-435 1927.87,-435 1927.87,-471"/>
<text text-anchor="middle" x="1891.87" y="-449.3" font-family="Times New Roman,serif" font-size="14.00">AGENTS</text>
</a>
</g>
</g>
<!-- n3&#45;&gt;n14 -->
<g id="edge12" class="edge"><title>n3&#45;&gt;n14</title>
<path fill="none" stroke="black" d="M1011.96,-524.788C1014.91,-523.673 1017.92,-522.707 1020.87,-522 1160.34,-488.677 1523.26,-518.903 1665.87,-504 1744.03,-495.833 1766.36,-493.086 1845.74,-471.085"/>
<polygon fill="black" stroke="black" points="1847.02,-474.362 1855.71,-468.304 1845.14,-467.619 1847.02,-474.362"/>
<text text-anchor="middle" x="1807.37" y="-492.8" font-family="Times New Roman,serif" font-size="14.00">imported by</text>
</g>
<!-- n19 -->
<g id="node19" class="node"><title>n19</title>
<g id="a_node19"><a xlink:href="./DOCUMENT.owl.svg" xlink:title="http://arcos.rack/DOCUMENT">
<polygon fill="none" stroke="black" points="1837.87,-471 1783.87,-471 1783.87,-435 1837.87,-435 1837.87,-471"/>
<text text-anchor="middle" x="1810.87" y="-449.3" font-family="Times New Roman,serif" font-size="14.00">D</text>
</a>
</g>
</g>
<!-- n3&#45;&gt;n19 -->
<g id="edge30" class="edge"><title>n3&#45;&gt;n19</title>
<path fill="none" stroke="black" d="M1011.97,-524.825C1014.92,-523.703 1017.92,-522.725 1020.87,-522 1117.86,-498.203 1370.45,-513.256 1469.87,-504 1580.82,-493.671 1710.8,-471.911 1773.41,-460.816"/>
<polygon fill="black" stroke="black" points="1774.36,-464.203 1783.59,-459.002 1773.13,-457.312 1774.36,-464.203"/>
<text text-anchor="middle" x="1627.37" y="-492.8" font-family="Times New Roman,serif" font-size="14.00">imported by</text>
</g>
<!-- n18 -->
<g id="node18" class="node"><title>n18</title>
<g id="a_node18"><a xlink:href="./MIL-STD-881D.owl.svg" xlink:title="http://arcos.rack/MIL&#45;STD&#45;881D/MIL&#45;STD&#45;881D">
<polygon fill="none" stroke="black" points="1747.37,-384 1690.37,-384 1690.37,-348 1747.37,-348 1747.37,-384"/>
<text text-anchor="middle" x="1718.87" y="-362.3" font-family="Times New Roman,serif" font-size="14.00">m881D</text>
</a>
</g>
</g>
<!-- n4&#45;&gt;n18 -->
<g id="edge26" class="edge"><title>n4&#45;&gt;n18</title>
<path fill="none" stroke="black" d="M1599.85,-447.567C1566.25,-440.914 1515.66,-426.45 1535.87,-402 1553.83,-380.285 1632.1,-371.916 1680.27,-368.785"/>
<polygon fill="black" stroke="black" points="1680.59,-372.273 1690.36,-368.177 1680.17,-365.286 1680.59,-372.273"/>
<text text-anchor="middle" x="1570.37" y="-405.8" font-family="Times New Roman,serif" font-size="14.00">imported by</text>
</g>
<!-- n26 -->
<g id="node26" class="node"><title>n26</title>
<g id="a_node26"><a xlink:href="./ARP-4754A.owl.svg" xlink:title="http://common/ARP&#45;4754A">
<polygon fill="none" stroke="black" points="1994.87,-384 1908.87,-384 1908.87,-348 1994.87,-348 1994.87,-384"/>
<text text-anchor="middle" x="1951.87" y="-362.3" font-family="Times New Roman,serif" font-size="14.00">ARP&#45;4754A</text>
</a>
</g>
</g>
<!-- n4&#45;&gt;n26 -->
<g id="edge44" class="edge"><title>n4&#45;&gt;n26</title>
<path fill="none" stroke="black" d="M1654.17,-449.896C1687.37,-446.499 1744.5,-437.92 1788.87,-417 1798.61,-412.412 1798.11,-406.513 1807.87,-402 1844.9,-384.89 1858.36,-394.139 1897.87,-384 1898.2,-383.915 1898.54,-383.83 1898.87,-383.743"/>
<polygon fill="black" stroke="black" points="1899.95,-387.076 1908.67,-381.053 1898.1,-380.326 1899.95,-387.076"/>
<text text-anchor="middle" x="1842.37" y="-405.8" font-family="Times New Roman,serif" font-size="14.00">imported by</text>
</g>
<!-- n27 -->
<g id="node27" class="node"><title>n27</title>
<g id="a_node27"><a xlink:href="./DO-178C.owl.svg" xlink:title="http://common/DO&#45;178C">
<polygon fill="none" stroke="black" points="1888.37,-384 1817.37,-384 1817.37,-348 1888.37,-348 1888.37,-384"/>
<text text-anchor="middle" x="1852.87" y="-362.3" font-family="Times New Roman,serif" font-size="14.00">DO&#45;178C</text>
</a>
</g>
</g>
<!-- n4&#45;&gt;n27 -->
<g id="edge46" class="edge"><title>n4&#45;&gt;n27</title>
<path fill="none" stroke="black" d="M1627.55,-434.686C1628.94,-423.713 1632.59,-410.108 1641.87,-402 1661.19,-385.128 1730.58,-388.214 1755.87,-384 1772.48,-381.235 1790.65,-378.083 1806.74,-375.25"/>
<polygon fill="black" stroke="black" points="1807.73,-378.629 1816.97,-373.442 1806.51,-371.736 1807.73,-378.629"/>
<text text-anchor="middle" x="1676.37" y="-405.8" font-family="Times New Roman,serif" font-size="14.00">imported by</text>
</g>
<!-- n28 -->
<g id="node28" class="node"><title>n28</title>
<g id="a_node28"><a xlink:href="./DO-330.owl.svg" xlink:title="http://common/DO&#45;330">
<polygon fill="none" stroke="black" points="2075.87,-384 2013.87,-384 2013.87,-348 2075.87,-348 2075.87,-384"/>
<text text-anchor="middle" x="2044.87" y="-362.3" font-family="Times New Roman,serif" font-size="14.00">DO&#45;330</text>
</a>
</g>
</g>
<!-- n4&#45;&gt;n28 -->
<g id="edge48" class="edge"><title>n4&#45;&gt;n28</title>
<path fill="none" stroke="black" d="M1654.14,-448.742C1683.82,-445.225 1732.7,-439.519 1774.87,-435 1855.26,-426.387 1878.78,-441.314 1955.87,-417 1975.7,-410.749 1996.04,-399.731 2012.26,-389.626"/>
<polygon fill="black" stroke="black" points="2014.29,-392.484 2020.82,-384.142 2010.51,-386.59 2014.29,-392.484"/>
<text text-anchor="middle" x="2023.37" y="-405.8" font-family="Times New Roman,serif" font-size="14.00">imported by</text>
</g>
<!-- n6 -->
<g id="node6" class="node"><title>n6</title>
<g id="a_node6"><a xlink:href="./GeneratePropInfoCSV.owl.svg" xlink:title="http://arcos.rack/GeneratePropInfoCSV">
<polygon fill="none" stroke="black" points="875.374,-384 790.374,-384 790.374,-348 875.374,-348 875.374,-384"/>
<text text-anchor="middle" x="832.874" y="-362.3" font-family="Times New Roman,serif" font-size="14.00">genpropinfo</text>
</a>
</g>
</g>
<!-- n5&#45;&gt;n6 -->
<g id="edge2" class="edge"><title>n5&#45;&gt;n6</title>
<path fill="none" stroke="black" d="M1117.42,-438.024C1094.33,-426.797 1060.17,-411.401 1028.87,-402 981.367,-387.728 925.53,-378.458 885.632,-373.068"/>
<polygon fill="black" stroke="black" points="885.962,-369.581 875.591,-371.747 885.049,-376.521 885.962,-369.581"/>
<text text-anchor="middle" x="1103.37" y="-405.8" font-family="Times New Roman,serif" font-size="14.00">imported by</text>
</g>
<!-- n15 -->
<g id="node15" class="node"><title>n15</title>
<g id="a_node15"><a xlink:href="./Turnstiles.owl.svg" xlink:title="http://TurnstileSystem/Turnstiles">
<polygon fill="none" stroke="black" points="721.874,-384 667.874,-384 667.874,-348 721.874,-348 721.874,-384"/>
<text text-anchor="middle" x="694.874" y="-362.3" font-family="Times New Roman,serif" font-size="14.00">trnstl</text>
</a>
</g>
</g>
<!-- n5&#45;&gt;n15 -->
<g id="edge17" class="edge"><title>n5&#45;&gt;n15</title>
<path fill="none" stroke="black" d="M1117.85,-447.675C1092.78,-443.809 1054.4,-438.266 1020.87,-435 986.534,-431.654 738.141,-438.142 710.874,-417 703.73,-411.461 699.72,-402.708 697.488,-394.063"/>
<polygon fill="black" stroke="black" points="700.912,-393.333 695.603,-384.164 694.036,-394.642 700.912,-393.333"/>
<text text-anchor="middle" x="745.374" y="-405.8" font-family="Times New Roman,serif" font-size="14.00">imported by</text>
</g>
<!-- n17 -->
<g id="node17" class="node"><title>n17</title>
<g id="a_node17"><a xlink:href="./InGateRequirements.owl.svg" xlink:title="http://TurnstileSystem/InGateRequirement">
<polygon fill="none" stroke="black" points="944.374,-210 883.374,-210 883.374,-174 944.374,-174 944.374,-210"/>
<text text-anchor="middle" x="913.874" y="-188.3" font-family="Times New Roman,serif" font-size="14.00">ingaterq</text>
</a>
</g>
</g>
<!-- n5&#45;&gt;n17 -->
<g id="edge21" class="edge"><title>n5&#45;&gt;n17</title>
<path fill="none" stroke="black" d="M1148.76,-434.688C1150.08,-423.997 1149.62,-410.705 1141.87,-402 1111.56,-367.937 1080.18,-407.109 1040.87,-384 971.163,-343.015 961.765,-315.466 925.874,-243 922.388,-235.96 919.88,-227.852 918.091,-220.242"/>
<polygon fill="black" stroke="black" points="921.495,-219.421 916.071,-210.32 914.636,-220.818 921.495,-219.421"/>
<text text-anchor="middle" x="1008.37" y="-318.8" font-family="Times New Roman,serif" font-size="14.00">imported by</text>
</g>
<!-- n20 -->
<g id="node20" class="node"><title>n20</title>
<g id="a_node20"><a xlink:href="./CounterApplicationRequirements.owl.svg" xlink:title="http://TurnstileSystem/CounterApplicationRequirements">
<polygon fill="none" stroke="black" points="1223.37,-210 1152.37,-210 1152.37,-174 1223.37,-174 1223.37,-210"/>
<text text-anchor="middle" x="1187.87" y="-188.3" font-family="Times New Roman,serif" font-size="14.00">cntrapprq</text>
</a>
</g>
</g>
<!-- n5&#45;&gt;n20 -->
<g id="edge27" class="edge"><title>n5&#45;&gt;n20</title>
<path fill="none" stroke="black" d="M1172.02,-448.387C1235.82,-439.867 1390.07,-419.075 1391.87,-417 1396.25,-411.966 1394.39,-408.175 1391.87,-402 1373.45,-356.755 1267.19,-261.211 1215.75,-216.722"/>
<polygon fill="black" stroke="black" points="1217.85,-213.911 1207.99,-210.036 1213.28,-219.214 1217.85,-213.911"/>
<text text-anchor="middle" x="1370.37" y="-318.8" font-family="Times New Roman,serif" font-size="14.00">imported by</text>
</g>
<!-- n29 -->
<g id="node29" class="node"><title>n29</title>
<g id="a_node29"><a xlink:href="./CounterApplicationLLR.owl.svg" xlink:title="http://TurnstileSystem/CounterApplicationLLR">
<polygon fill="none" stroke="black" points="1095.87,-123 1025.87,-123 1025.87,-87 1095.87,-87 1095.87,-123"/>
<text text-anchor="middle" x="1060.87" y="-101.3" font-family="Times New Roman,serif" font-size="14.00">cntrappllr</text>
</a>
</g>
</g>
<!-- n5&#45;&gt;n29 -->
<g id="edge49" class="edge"><title>n5&#45;&gt;n29</title>
<path fill="none" stroke="black" d="M1172.13,-451.401C1215.8,-449.315 1294.41,-440.293 1271.87,-402 1223.14,-319.181 1136.27,-376.891 1082.87,-297 1065.4,-270.859 1061.73,-179.751 1061.01,-133.455"/>
<polygon fill="black" stroke="black" points="1064.51,-133.199 1060.89,-123.241 1057.51,-133.282 1064.51,-133.199"/>
<text text-anchor="middle" x="1117.37" y="-275.3" font-family="Times New Roman,serif" font-size="14.00">imported by</text>
</g>
<!-- n7&#45;&gt;n6 -->
<g id="edge3" class="edge"><title>n7&#45;&gt;n6</title>
<path fill="none" stroke="black" d="M568.324,-434.749C576.763,-423.509 589.281,-409.571 603.874,-402 654.479,-375.748 674.532,-392.687 730.874,-384 746.885,-381.532 764.281,-378.691 780.097,-376.048"/>
<polygon fill="black" stroke="black" points="780.95,-379.454 790.232,-374.345 779.79,-372.55 780.95,-379.454"/>
<text text-anchor="middle" x="638.374" y="-405.8" font-family="Times New Roman,serif" font-size="14.00">imported by</text>
</g>
<!-- n7&#45;&gt;n15 -->
<g id="edge18" class="edge"><title>n7&#45;&gt;n15</title>
<path fill="none" stroke="black" d="M529.809,-437.409C515.086,-427.587 501.753,-414.24 511.874,-402 521.107,-390.835 607.044,-378.155 657.803,-371.549"/>
<polygon fill="black" stroke="black" points="658.283,-375.017 667.757,-370.273 657.393,-368.073 658.283,-375.017"/>
<text text-anchor="middle" x="546.374" y="-405.8" font-family="Times New Roman,serif" font-size="14.00">imported by</text>
</g>
<!-- n7&#45;&gt;n18 -->
<g id="edge24" class="edge"><title>n7&#45;&gt;n18</title>
<path fill="none" stroke="black" d="M584.149,-449.152C621.663,-445.339 691.311,-438.636 750.874,-435 982.138,-420.882 1040.8,-433.89 1271.87,-417 1423.24,-405.936 1602.42,-382.852 1679.93,-372.376"/>
<polygon fill="black" stroke="black" points="1680.74,-375.798 1690.18,-370.984 1679.8,-368.862 1680.74,-375.798"/>
<text text-anchor="middle" x="1467.37" y="-405.8" font-family="Times New Roman,serif" font-size="14.00">imported by</text>
</g>
<!-- n21 -->
<g id="node21" class="node"><title>n21</title>
<g id="a_node21"><a xlink:href="./CPP.owl.svg" xlink:title="http://CPP/CPP">
<polygon fill="none" stroke="black" points="144.874,-384 90.8744,-384 90.8744,-348 144.874,-348 144.874,-384"/>
<text text-anchor="middle" x="117.874" y="-362.3" font-family="Times New Roman,serif" font-size="14.00">cpp</text>
</a>
</g>
</g>
<!-- n7&#45;&gt;n21 -->
<g id="edge32" class="edge"><title>n7&#45;&gt;n21</title>
<path fill="none" stroke="black" d="M529.672,-447.95C503.989,-444.223 464.377,-438.725 429.874,-435 332.777,-424.518 303.268,-448.642 210.874,-417 199.329,-413.046 198.461,-408.072 187.874,-402 177.209,-395.882 165.337,-389.716 154.444,-384.301"/>
<polygon fill="black" stroke="black" points="155.698,-381.017 145.179,-379.755 152.615,-387.302 155.698,-381.017"/>
<text text-anchor="middle" x="245.374" y="-405.8" font-family="Times New Roman,serif" font-size="14.00">imported by</text>
</g>
<!-- n24 -->
<g id="node24" class="node"><title>n24</title>
<g id="a_node24"><a xlink:href="./CounterApplication.owl.svg" xlink:title="http://TurnstileSystem/CounterApplication">
<polygon fill="none" stroke="black" points="720.374,-297 657.374,-297 657.374,-261 720.374,-261 720.374,-297"/>
<text text-anchor="middle" x="688.874" y="-275.3" font-family="Times New Roman,serif" font-size="14.00">trnstlsys</text>
</a>
</g>
</g>
<!-- n7&#45;&gt;n24 -->
<g id="edge39" class="edge"><title>n7&#45;&gt;n24</title>
<path fill="none" stroke="black" d="M529.765,-440.215C513.145,-431.147 496.522,-417.559 504.874,-402 534.936,-345.998 603.261,-311.356 647.663,-293.901"/>
<polygon fill="black" stroke="black" points="648.926,-297.165 657.025,-290.335 646.435,-290.623 648.926,-297.165"/>
<text text-anchor="middle" x="584.374" y="-362.3" font-family="Times New Roman,serif" font-size="14.00">imported by</text>
</g>
<!-- n8&#45;&gt;n6 -->
<g id="edge4" class="edge"><title>n8&#45;&gt;n6</title>
<path fill="none" stroke="black" d="M403.198,-434.903C410.467,-423.423 421.699,-409.139 435.874,-402 494.533,-372.458 665.616,-391.409 730.874,-384 746.97,-382.173 764.392,-379.521 780.205,-376.854"/>
<polygon fill="black" stroke="black" points="781.074,-380.256 790.334,-375.107 779.884,-373.358 781.074,-380.256"/>
<text text-anchor="middle" x="470.374" y="-405.8" font-family="Times New Roman,serif" font-size="14.00">imported by</text>
</g>
<!-- n8&#45;&gt;n21 -->
<g id="edge33" class="edge"><title>n8&#45;&gt;n21</title>
<path fill="none" stroke="black" d="M366.462,-449.478C298.503,-443.099 127.118,-426.173 118.874,-417 113.406,-410.916 111.828,-402.537 112.016,-394.377"/>
<polygon fill="black" stroke="black" points="115.507,-394.652 113.041,-384.348 108.543,-393.94 115.507,-394.652"/>
<text text-anchor="middle" x="153.374" y="-405.8" font-family="Times New Roman,serif" font-size="14.00">imported by</text>
</g>
<!-- n9&#45;&gt;n6 -->
<g id="edge5" class="edge"><title>n9&#45;&gt;n6</title>
<path fill="none" stroke="black" d="M1282.61,-442.26C1249.68,-430.88 1192.42,-412.3 1141.87,-402 1052.98,-383.886 947.661,-374.472 885.772,-370.141"/>
<polygon fill="black" stroke="black" points="885.694,-366.628 875.479,-369.44 885.218,-373.612 885.694,-366.628"/>
<text text-anchor="middle" x="1233.37" y="-405.8" font-family="Times New Roman,serif" font-size="14.00">imported by</text>
</g>
<!-- n22 -->
<g id="node22" class="node"><title>n22</title>
<g id="a_node22"><a xlink:href="./CounterApplicationUnitTesting.owl.svg" xlink:title="http://TurnstileSystem/CounterApplicationUnitTesting">
<polygon fill="none" stroke="black" points="1354.87,-123 1274.87,-123 1274.87,-87 1354.87,-87 1354.87,-123"/>
<text text-anchor="middle" x="1314.87" y="-101.3" font-family="Times New Roman,serif" font-size="14.00">cntrapputst</text>
</a>
</g>
</g>
<!-- n9&#45;&gt;n22 -->
<g id="edge35" class="edge"><title>n9&#45;&gt;n22</title>
<path fill="none" stroke="black" d="M1336.91,-450.49C1359.95,-447.609 1391.82,-439.503 1407.87,-417 1424.74,-393.364 1392,-153.735 1382.87,-141 1377.93,-134.097 1371.21,-128.458 1363.91,-123.883"/>
<polygon fill="black" stroke="black" points="1365.58,-120.809 1355.14,-118.989 1362.17,-126.921 1365.58,-120.809"/>
<text text-anchor="middle" x="1442.37" y="-275.3" font-family="Times New Roman,serif" font-size="14.00">imported by</text>
</g>
<!-- n23 -->
<g id="node23" class="node"><title>n23</title>
<g id="a_node23"><a xlink:href="./CounterApplicationTesting.owl.svg" xlink:title="http://TurnstileSystem/CounterApplicationTesting">
<polygon fill="none" stroke="black" points="1446.37,-123 1373.37,-123 1373.37,-87 1446.37,-87 1446.37,-123"/>
<text text-anchor="middle" x="1409.87" y="-101.3" font-family="Times New Roman,serif" font-size="14.00">cntrapptst</text>
</a>
</g>
</g>
<!-- n9&#45;&gt;n23 -->
<g id="edge37" class="edge"><title>n9&#45;&gt;n23</title>
<path fill="none" stroke="black" d="M1336.98,-451.943C1389.9,-450.256 1501.87,-438.267 1501.87,-367 1501.87,-367 1501.87,-367 1501.87,-191 1501.87,-162.944 1478.51,-141.578 1455.33,-127.285"/>
<polygon fill="black" stroke="black" points="1456.9,-124.153 1446.5,-122.154 1453.39,-130.205 1456.9,-124.153"/>
<text text-anchor="middle" x="1536.37" y="-275.3" font-family="Times New Roman,serif" font-size="14.00">imported by</text>
</g>
<!-- n10&#45;&gt;n6 -->
<g id="edge6" class="edge"><title>n10&#45;&gt;n6</title>
<path fill="none" stroke="black" d="M191.047,-443.691C233.832,-430.744 315.095,-406.747 344.874,-402 514.475,-374.967 560.094,-402.149 730.874,-384 746.983,-382.288 764.408,-379.671 780.221,-376.999"/>
<polygon fill="black" stroke="black" points="781.093,-380.4 790.349,-375.245 779.898,-373.503 781.093,-380.4"/>
<text text-anchor="middle" x="379.374" y="-405.8" font-family="Times New Roman,serif" font-size="14.00">imported by</text>
</g>
<!-- n10&#45;&gt;n21 -->
<g id="edge34" class="edge"><title>n10&#45;&gt;n21</title>
<path fill="none" stroke="black" d="M136.594,-448.96C100.591,-444.322 40.2004,-434.159 26.8744,-417 22.7851,-411.735 23.1001,-407.495 26.8744,-402 30.2433,-397.095 57.3702,-387.017 81.1371,-378.93"/>
<polygon fill="black" stroke="black" points="82.3328,-382.221 90.6985,-375.72 80.1045,-375.585 82.3328,-382.221"/>
<text text-anchor="middle" x="61.3744" y="-405.8" font-family="Times New Roman,serif" font-size="14.00">imported by</text>
</g>
<!-- n10&#45;&gt;n24 -->
<g id="edge40" class="edge"><title>n10&#45;&gt;n24</title>
<path fill="none" stroke="black" d="M136.613,-448.717C99.8001,-443.734 36.9417,-433.103 20.8744,-417 -0.931486,-395.146 -7.83428,-370.896 12.8744,-348 55.5274,-300.841 505.943,-284.882 646.931,-281.021"/>
<polygon fill="black" stroke="black" points="647.404,-284.51 657.307,-280.744 647.217,-277.513 647.404,-284.51"/>
<text text-anchor="middle" x="47.3744" y="-362.3" font-family="Times New Roman,serif" font-size="14.00">imported by</text>
</g>
<!-- n11&#45;&gt;n6 -->
<g id="edge7" class="edge"><title>n11&#45;&gt;n6</title>
<path fill="none" stroke="black" d="M972.188,-434.617C963.57,-423.898 951.323,-410.602 937.874,-402 921.894,-391.779 902.625,-384.236 884.979,-378.826"/>
<polygon fill="black" stroke="black" points="885.954,-375.465 875.375,-376.036 884.001,-382.187 885.954,-375.465"/>
<text text-anchor="middle" x="990.374" y="-405.8" font-family="Times New Roman,serif" font-size="14.00">imported by</text>
</g>
<!-- n16 -->
<g id="node16" class="node"><title>n16</title>
<g id="a_node16"><a xlink:href="./HazardAssesment.owl.svg" xlink:title="http://TurnstileSystem/HazardAssesment">
<polygon fill="none" stroke="black" points="1046.87,-297 992.874,-297 992.874,-261 1046.87,-261 1046.87,-297"/>
<text text-anchor="middle" x="1019.87" y="-275.3" font-family="Times New Roman,serif" font-size="14.00">ha</text>
</a>
</g>
</g>
<!-- n11&#45;&gt;n16 -->
<g id="edge19" class="edge"><title>n11&#45;&gt;n16</title>
<path fill="none" stroke="black" d="M1012.27,-435.479C1018.68,-430.341 1024.81,-424.124 1028.87,-417 1051.47,-377.341 1053.06,-358.99 1040.87,-315 1040.05,-312.023 1038.9,-309.045 1037.55,-306.152"/>
<polygon fill="black" stroke="black" points="1040.6,-304.439 1032.77,-297.311 1034.45,-307.771 1040.6,-304.439"/>
<text text-anchor="middle" x="1083.37" y="-362.3" font-family="Times New Roman,serif" font-size="14.00">imported by</text>
</g>
<!-- n12&#45;&gt;n6 -->
<g id="edge8" class="edge"><title>n12&#45;&gt;n6</title>
<path fill="none" stroke="black" d="M783.685,-434.918C782.635,-424.825 782.814,-412.089 787.874,-402 789.821,-398.118 792.422,-394.539 795.397,-391.273"/>
<polygon fill="black" stroke="black" points="798.001,-393.628 802.881,-384.224 793.202,-388.532 798.001,-393.628"/>
<text text-anchor="middle" x="822.374" y="-405.8" font-family="Times New Roman,serif" font-size="14.00">imported by</text>
</g>
<!-- n13&#45;&gt;n6 -->
<g id="edge9" class="edge"><title>n13&#45;&gt;n6</title>
<path fill="none" stroke="black" d="M872.301,-434.956C868.277,-425.107 862.777,-412.607 856.874,-402 855.138,-398.88 853.199,-395.686 851.196,-392.559"/>
<polygon fill="black" stroke="black" points="853.966,-390.405 845.497,-384.038 848.147,-394.296 853.966,-390.405"/>
<text text-anchor="middle" x="899.374" y="-405.8" font-family="Times New Roman,serif" font-size="14.00">imported by</text>
</g>
<!-- n15&#45;&gt;n16 -->
<g id="edge20" class="edge"><title>n15&#45;&gt;n16</title>
<path fill="none" stroke="black" d="M721.997,-360.78C750.275,-355.765 795.465,-345.998 831.874,-330 843.047,-325.09 843.603,-319.679 854.874,-315 896.787,-297.602 948.419,-288.442 982.645,-283.922"/>
<polygon fill="black" stroke="black" points="983.192,-287.381 992.679,-282.664 982.321,-280.435 983.192,-287.381"/>
<text text-anchor="middle" x="889.374" y="-318.8" font-family="Times New Roman,serif" font-size="14.00">imported by</text>
</g>
<!-- n15&#45;&gt;n17 -->
<g id="edge22" class="edge"><title>n15&#45;&gt;n17</title>
<path fill="none" stroke="black" d="M722.193,-353.773C735.836,-347.619 752.286,-339.344 765.874,-330 814.868,-296.308 863.989,-247.028 891.508,-217.668"/>
<polygon fill="black" stroke="black" points="894.111,-220.008 898.353,-210.299 888.983,-215.244 894.111,-220.008"/>
<text text-anchor="middle" x="882.374" y="-275.3" font-family="Times New Roman,serif" font-size="14.00">imported by</text>
</g>
<!-- n15&#45;&gt;n20 -->
<g id="edge28" class="edge"><title>n15&#45;&gt;n20</title>
<path fill="none" stroke="black" d="M721.9,-359.154C738.797,-355.624 761.042,-351.204 780.874,-348 844.111,-337.783 862.842,-349.45 923.874,-330 937.325,-325.713 938.346,-319.036 951.874,-315 995.485,-301.99 1120.16,-325.208 1155.87,-297 1178.86,-278.844 1185.74,-244.529 1187.59,-220.29"/>
<polygon fill="black" stroke="black" points="1191.09,-220.447 1188.12,-210.276 1184.1,-220.078 1191.09,-220.447"/>
<text text-anchor="middle" x="1214.37" y="-275.3" font-family="Times New Roman,serif" font-size="14.00">imported by</text>
</g>
<!-- n15&#45;&gt;n24 -->
<g id="edge41" class="edge"><title>n15&#45;&gt;n24</title>
<path fill="none" stroke="black" d="M693.66,-347.799C692.839,-336.163 691.737,-320.548 690.797,-307.237"/>
<polygon fill="black" stroke="black" points="694.282,-306.904 690.087,-297.175 687.3,-307.397 694.282,-306.904"/>
<text text-anchor="middle" x="727.374" y="-318.8" font-family="Times New Roman,serif" font-size="14.00">imported by</text>
</g>
<!-- n32 -->
<g id="node32" class="node"><title>n32</title>
<g id="a_node32"><a xlink:href="./GenerateCSV.owl.svg" xlink:title="http://TurnstileSystem/GenerateCSV">
<polygon fill="none" stroke="black" points="1041.87,-36 985.874,-36 985.874,-0 1041.87,-0 1041.87,-36"/>
<text text-anchor="middle" x="1013.87" y="-14.3" font-family="Times New Roman,serif" font-size="14.00">gencsv</text>
</a>
</g>
</g>
<!-- n15&#45;&gt;n32 -->
<g id="edge54" class="edge"><title>n15&#45;&gt;n32</title>
<path fill="none" stroke="black" d="M667.584,-358.368C604.295,-342.607 452.874,-302.543 452.874,-280 452.874,-280 452.874,-280 452.874,-104 452.874,-51.0029 849.306,-27.0419 975.668,-20.7505"/>
<polygon fill="black" stroke="black" points="975.853,-24.2457 985.67,-20.2615 975.511,-17.2541 975.853,-24.2457"/>
<text text-anchor="middle" x="487.374" y="-188.3" font-family="Times New Roman,serif" font-size="14.00">imported by</text>
</g>
<!-- n16&#45;&gt;n17 -->
<g id="edge23" class="edge"><title>n16&#45;&gt;n17</title>
<path fill="none" stroke="black" d="M992.832,-270.906C976.273,-265.464 955.522,-256.546 940.874,-243 933.823,-236.479 928.23,-227.686 924.005,-219.292"/>
<polygon fill="black" stroke="black" points="927.156,-217.766 919.813,-210.128 920.79,-220.678 927.156,-217.766"/>
<text text-anchor="middle" x="975.374" y="-231.8" font-family="Times New Roman,serif" font-size="14.00">imported by</text>
</g>
<!-- n16&#45;&gt;n20 -->
<g id="edge29" class="edge"><title>n16&#45;&gt;n20</title>
<path fill="none" stroke="black" d="M1046.92,-260.845C1063.38,-250.726 1084.98,-237.988 1104.87,-228 1117.01,-221.904 1130.47,-215.916 1142.95,-210.663"/>
<polygon fill="black" stroke="black" points="1144.37,-213.863 1152.27,-206.801 1141.69,-207.397 1144.37,-213.863"/>
<text text-anchor="middle" x="1139.37" y="-231.8" font-family="Times New Roman,serif" font-size="14.00">imported by</text>
</g>
<!-- n16&#45;&gt;n32 -->
<g id="edge59" class="edge"><title>n16&#45;&gt;n32</title>
<path fill="none" stroke="black" d="M1016.87,-260.781C1015.07,-251.097 1012.6,-238.816 1009.87,-228 1001.69,-195.555 992.817,-189.093 987.874,-156 982.134,-117.571 993.811,-73.4795 1003.32,-45.9298"/>
<polygon fill="black" stroke="black" points="1006.72,-46.8217 1006.82,-36.2273 1000.14,-44.4473 1006.72,-46.8217"/>
<text text-anchor="middle" x="1022.37" y="-144.8" font-family="Times New Roman,serif" font-size="14.00">imported by</text>
</g>
<!-- n17&#45;&gt;n32 -->
<g id="edge56" class="edge"><title>n17&#45;&gt;n32</title>
<path fill="none" stroke="black" d="M906.584,-173.936C898.533,-152.268 888.595,-114.409 903.874,-87 919.239,-59.4387 950.888,-41.6444 976.309,-31.1999"/>
<polygon fill="black" stroke="black" points="977.647,-34.4353 985.701,-27.5518 975.112,-27.9103 977.647,-34.4353"/>
<text text-anchor="middle" x="938.374" y="-101.3" font-family="Times New Roman,serif" font-size="14.00">imported by</text>
</g>
<!-- n31 -->
<g id="node31" class="node"><title>n31</title>
<g id="a_node31"><a xlink:href="./MIL-STD-881D-AppxB.owl.svg" xlink:title="http://arcos.rack/MIL&#45;STD&#45;881D/MIL&#45;STD&#45;881D&#45;AppxB">
<polygon fill="none" stroke="black" points="2254.87,-297 2102.87,-297 2102.87,-261 2254.87,-261 2254.87,-297"/>
<text text-anchor="middle" x="2178.87" y="-275.3" font-family="Times New Roman,serif" font-size="14.00">MIL&#45;STD&#45;881D&#45;AppxB</text>
</a>
</g>
</g>
<!-- n18&#45;&gt;n31 -->
<g id="edge52" class="edge"><title>n18&#45;&gt;n31</title>
<path fill="none" stroke="black" d="M1747.63,-358.869C1765.01,-355.323 1787.64,-350.985 1807.87,-348 1883.91,-336.78 1904.19,-343.399 1979.87,-330 2023.67,-322.248 2072.07,-310.165 2110.18,-299.82"/>
<polygon fill="black" stroke="black" points="2111.42,-303.11 2120.14,-297.092 2109.57,-296.358 2111.42,-303.11"/>
<text text-anchor="middle" x="2080.37" y="-318.8" font-family="Times New Roman,serif" font-size="14.00">imported by</text>
</g>
<!-- n33 -->
<g id="node33" class="node"><title>n33</title>
<g id="a_node33"><a xlink:href="./MIL-STD-881D-AppxA.owl.svg" xlink:title="http://arcos.rack/MIL&#45;STD&#45;881D/MIL&#45;STD&#45;881D&#45;AppxA">
<polygon fill="none" stroke="black" points="1742.37,-297 1589.37,-297 1589.37,-261 1742.37,-261 1742.37,-297"/>
<text text-anchor="middle" x="1665.87" y="-275.3" font-family="Times New Roman,serif" font-size="14.00">MIL&#45;STD&#45;881D&#45;AppxA</text>
</a>
</g>
</g>
<!-- n18&#45;&gt;n33 -->
<g id="edge61" class="edge"><title>n18&#45;&gt;n33</title>
<path fill="none" stroke="black" d="M1708.15,-347.799C1700.61,-335.702 1690.38,-319.305 1681.88,-305.667"/>
<polygon fill="black" stroke="black" points="1684.84,-303.809 1676.58,-297.175 1678.9,-307.513 1684.84,-303.809"/>
<text text-anchor="middle" x="1730.37" y="-318.8" font-family="Times New Roman,serif" font-size="14.00">imported by</text>
</g>
<!-- n34 -->
<g id="node34" class="node"><title>n34</title>
<g id="a_node34"><a xlink:href="./MIL-STD-881D-AppxC.owl.svg" xlink:title="http://arcos.rack/MIL&#45;STD&#45;881D/MIL&#45;STD&#45;881D&#45;AppxC">
<polygon fill="none" stroke="black" points="1913.37,-297 1760.37,-297 1760.37,-261 1913.37,-261 1913.37,-297"/>
<text text-anchor="middle" x="1836.87" y="-275.3" font-family="Times New Roman,serif" font-size="14.00">MIL&#45;STD&#45;881D&#45;AppxC</text>
</a>
</g>
</g>
<!-- n18&#45;&gt;n34 -->
<g id="edge62" class="edge"><title>n18&#45;&gt;n34</title>
<path fill="none" stroke="black" d="M1743.62,-347.845C1751.7,-342.201 1760.7,-335.868 1768.87,-330 1781.04,-321.27 1794.33,-311.542 1805.91,-303.004"/>
<polygon fill="black" stroke="black" points="1808.03,-305.786 1813.99,-297.029 1803.87,-300.157 1808.03,-305.786"/>
<text text-anchor="middle" x="1824.37" y="-318.8" font-family="Times New Roman,serif" font-size="14.00">imported by</text>
</g>
<!-- n35 -->
<g id="node35" class="node"><title>n35</title>
<g id="a_node35"><a xlink:href="./MIL-STD-881D-AppxD.owl.svg" xlink:title="http://arcos.rack/MIL&#45;STD&#45;881D/MIL&#45;STD&#45;881D&#45;AppxD">
<polygon fill="none" stroke="black" points="2084.37,-297 1931.37,-297 1931.37,-261 2084.37,-261 2084.37,-297"/>
<text text-anchor="middle" x="2007.87" y="-275.3" font-family="Times New Roman,serif" font-size="14.00">MIL&#45;STD&#45;881D&#45;AppxD</text>
</a>
</g>
</g>
<!-- n18&#45;&gt;n35 -->
<g id="edge63" class="edge"><title>n18&#45;&gt;n35</title>
<path fill="none" stroke="black" d="M1747.5,-358.873C1776.71,-352.427 1823.25,-341.62 1862.87,-330 1892.69,-321.258 1925.44,-310.099 1952.27,-300.542"/>
<polygon fill="black" stroke="black" points="1953.63,-303.77 1961.86,-297.1 1951.27,-297.181 1953.63,-303.77"/>
<text text-anchor="middle" x="1941.37" y="-318.8" font-family="Times New Roman,serif" font-size="14.00">imported by</text>
</g>
<!-- n19&#45;&gt;n18 -->
<g id="edge25" class="edge"><title>n19&#45;&gt;n18</title>
<path fill="none" stroke="black" d="M1783.63,-449.518C1762.43,-446.001 1734.26,-437.508 1719.87,-417 1715.3,-410.477 1713.87,-402.204 1713.93,-394.275"/>
<polygon fill="black" stroke="black" points="1717.43,-394.468 1714.72,-384.225 1710.45,-393.921 1717.43,-394.468"/>
<text text-anchor="middle" x="1754.37" y="-405.8" font-family="Times New Roman,serif" font-size="14.00">imported by</text>
</g>
<!-- n19&#45;&gt;n26 -->
<g id="edge43" class="edge"><title>n19&#45;&gt;n26</title>
<path fill="none" stroke="black" d="M1838.01,-437.953C1840.95,-436.806 1843.94,-435.787 1846.87,-435 1870.35,-428.71 2048.41,-434.879 2064.87,-417 2069.39,-412.096 2068.85,-407.349 2064.87,-402 2048.26,-379.664 2031.46,-392.252 2004.87,-384 2004.77,-383.969 2004.67,-383.937 2004.57,-383.906"/>
<polygon fill="black" stroke="black" points="2005.54,-380.542 1994.95,-380.892 2003.45,-387.222 2005.54,-380.542"/>
<text text-anchor="middle" x="2102.37" y="-405.8" font-family="Times New Roman,serif" font-size="14.00">imported by</text>
</g>
<!-- n19&#45;&gt;n27 -->
<g id="edge45" class="edge"><title>n19&#45;&gt;n27</title>
<path fill="none" stroke="black" d="M1838.21,-439.147C1857.29,-430.045 1879.58,-419.095 1880.87,-417 1885.71,-409.169 1883.4,-400.467 1878.46,-392.546"/>
<polygon fill="black" stroke="black" points="1881.1,-390.232 1872.3,-384.336 1875.51,-394.435 1881.1,-390.232"/>
<text text-anchor="middle" x="1917.37" y="-405.8" font-family="Times New Roman,serif" font-size="14.00">imported by</text>
</g>
<!-- n19&#45;&gt;n28 -->
<g id="edge47" class="edge"><title>n19&#45;&gt;n28</title>
<path fill="none" stroke="black" d="M1837.99,-437.889C1840.93,-436.754 1843.93,-435.756 1846.87,-435 1878.58,-426.866 2118.45,-440.839 2140.87,-417 2161.09,-395.51 2120.4,-381.573 2085.91,-374.008"/>
<polygon fill="black" stroke="black" points="2086.44,-370.544 2075.94,-371.952 2085.03,-377.399 2086.44,-370.544"/>
<text text-anchor="middle" x="2180.37" y="-405.8" font-family="Times New Roman,serif" font-size="14.00">imported by</text>
</g>
<!-- n20&#45;&gt;n22 -->
<g id="edge36" class="edge"><title>n20&#45;&gt;n22</title>
<path fill="none" stroke="black" d="M1196.15,-173.684C1202.02,-162.991 1210.82,-149.7 1221.87,-141 1229.14,-135.284 1246.61,-128.22 1264.48,-121.939"/>
<polygon fill="black" stroke="black" points="1266.06,-125.098 1274.39,-118.544 1263.79,-118.476 1266.06,-125.098"/>
<text text-anchor="middle" x="1256.37" y="-144.8" font-family="Times New Roman,serif" font-size="14.00">imported by</text>
</g>
<!-- n20&#45;&gt;n23 -->
<g id="edge38" class="edge"><title>n20&#45;&gt;n23</title>
<path fill="none" stroke="black" d="M1223.85,-179.464C1243.73,-172.916 1268.8,-164.375 1290.87,-156 1315.15,-146.789 1341.82,-135.675 1363.76,-126.266"/>
<polygon fill="black" stroke="black" points="1365.36,-129.386 1373.16,-122.213 1362.59,-122.958 1365.36,-129.386"/>
<text text-anchor="middle" x="1362.37" y="-144.8" font-family="Times New Roman,serif" font-size="14.00">imported by</text>
</g>
<!-- n20&#45;&gt;n29 -->
<g id="edge50" class="edge"><title>n20&#45;&gt;n29</title>
<path fill="none" stroke="black" d="M1152.13,-179.951C1136.75,-174.214 1119.09,-166.235 1104.87,-156 1095.35,-149.138 1086.45,-139.853 1079.19,-131.147"/>
<polygon fill="black" stroke="black" points="1081.73,-128.715 1072.76,-123.074 1076.25,-133.077 1081.73,-128.715"/>
<text text-anchor="middle" x="1139.37" y="-144.8" font-family="Times New Roman,serif" font-size="14.00">imported by</text>
</g>
<!-- n20&#45;&gt;n32 -->
<g id="edge55" class="edge"><title>n20&#45;&gt;n32</title>
<path fill="none" stroke="black" d="M1184.55,-173.836C1182.27,-163.947 1178.77,-151.447 1173.87,-141 1153.94,-98.471 1151.21,-82.4954 1113.87,-54 1095.74,-40.1582 1071.7,-31.5129 1051.73,-26.2781"/>
<polygon fill="black" stroke="black" points="1052.56,-22.8764 1042.01,-23.9083 1050.9,-29.6772 1052.56,-22.8764"/>
<text text-anchor="middle" x="1200.37" y="-101.3" font-family="Times New Roman,serif" font-size="14.00">imported by</text>
</g>
<!-- n22&#45;&gt;n32 -->
<g id="edge57" class="edge"><title>n22&#45;&gt;n32</title>
<path fill="none" stroke="black" d="M1281.55,-86.7908C1259.45,-76.0036 1229.54,-62.5675 1201.87,-54 1151.29,-38.3345 1090.76,-28.6029 1052.31,-23.4923"/>
<polygon fill="black" stroke="black" points="1052.44,-19.9807 1042.08,-22.1723 1051.55,-26.9231 1052.44,-19.9807"/>
<text text-anchor="middle" x="1275.37" y="-57.8" font-family="Times New Roman,serif" font-size="14.00">imported by</text>
</g>
<!-- n23&#45;&gt;n32 -->
<g id="edge53" class="edge"><title>n23&#45;&gt;n32</title>
<path fill="none" stroke="black" d="M1383.29,-86.7793C1364.62,-75.5522 1338.66,-61.618 1313.87,-54 1223.04,-26.0851 1110.47,-20.1528 1052.46,-19.0689"/>
<polygon fill="black" stroke="black" points="1052.33,-15.5668 1042.28,-18.9188 1052.23,-22.566 1052.33,-15.5668"/>
<text text-anchor="middle" x="1384.37" y="-57.8" font-family="Times New Roman,serif" font-size="14.00">imported by</text>
</g>
<!-- n24&#45;&gt;n29 -->
<g id="edge51" class="edge"><title>n24&#45;&gt;n29</title>
<path fill="none" stroke="black" d="M703.163,-260.901C723.424,-237.759 762.752,-196.753 804.874,-174 841.189,-154.384 952.446,-128.843 1015.69,-115.331"/>
<polygon fill="black" stroke="black" points="1016.73,-118.689 1025.79,-113.19 1015.28,-111.841 1016.73,-118.689"/>
<text text-anchor="middle" x="839.374" y="-188.3" font-family="Times New Roman,serif" font-size="14.00">imported by</text>
</g>
<!-- n24&#45;&gt;n32 -->
<g id="edge60" class="edge"><title>n24&#45;&gt;n32</title>
<path fill="none" stroke="black" d="M696.336,-260.639C706.39,-238.658 725.937,-200.468 750.874,-174 812.564,-108.524 834.317,-95.9907 913.874,-54 933.545,-43.6179 956.944,-35.2348 976.161,-29.2786"/>
<polygon fill="black" stroke="black" points="977.216,-32.6161 985.787,-26.3873 975.203,-25.912 977.216,-32.6161"/>
<text text-anchor="middle" x="817.374" y="-144.8" font-family="Times New Roman,serif" font-size="14.00">imported by</text>
</g>
<!-- n25 -->
<g id="node25" class="node"><title>n25</title>
<g id="a_node25"><a xlink:href="./SadlImplicitModel.owl.svg" xlink:title="http://sadl.org/sadlimplicitmodel">
<polygon fill="none" stroke="black" points="1143.87,-558 1029.87,-558 1029.87,-522 1143.87,-522 1143.87,-558"/>
<text text-anchor="middle" x="1086.87" y="-536.3" font-family="Times New Roman,serif" font-size="14.00">sadlimplicitmodel</text>
</a>
</g>
</g>
<!-- n29&#45;&gt;n32 -->
<g id="edge58" class="edge"><title>n29&#45;&gt;n32</title>
<path fill="none" stroke="black" d="M1051.36,-86.799C1044.74,-74.8169 1035.78,-58.6168 1028.28,-45.0569"/>
<polygon fill="black" stroke="black" points="1031.27,-43.2331 1023.37,-36.1754 1025.15,-46.6204 1031.27,-43.2331"/>
<text text-anchor="middle" x="1075.37" y="-57.8" font-family="Times New Roman,serif" font-size="14.00">imported by</text>
</g>
<!-- n30 -->
<g id="node30" class="node"><title>n30</title>
<g id="a_node30"><a xlink:href="./SadlBuiltinFunctions.owl.svg" xlink:title="http://sadl.org/builtinfunctions">
<polygon fill="none" stroke="black" points="1263.87,-558 1161.87,-558 1161.87,-522 1263.87,-522 1263.87,-558"/>
<text text-anchor="middle" x="1212.87" y="-536.3" font-family="Times New Roman,serif" font-size="14.00">builtinfunctions</text>
</a>
</g>
</g>
</g>
</svg>
