<?xml version="1.0" encoding="UTF-8" standalone="no"?>
<!DOCTYPE svg PUBLIC "-//W3C//DTD SVG 1.1//EN"
 "http://www.w3.org/Graphics/SVG/1.1/DTD/svg11.dtd">
<!-- Generated by graphviz version 2.38.0 (20140413.2041)
 -->
<!-- Title: gprovs Pages: 1 -->
<svg width="936pt" height="241pt"
 viewBox="0.00 0.00 936.00 241.00" xmlns="http://www.w3.org/2000/svg" xmlns:xlink="http://www.w3.org/1999/xlink">
<g id="graph0" class="graph" transform="scale(1 1) rotate(0) translate(4 237)">
<title>gprovs</title>
<polygon fill="white" stroke="none" points="-4,4 -4,-237 932,-237 932,4 -4,4"/>
<text text-anchor="middle" x="93.5" y="-217.8" font-family="Times New Roman,serif" font-size="14.00">Graph of Ontology File: provs</text>
<!-- n1 -->
<g id="node1" class="node"><title>n1</title>
<polygon fill="#00008b" stroke="black" points="341,-210 274,-210 274,-174 341,-174 341,-210"/>
<text text-anchor="middle" x="307.5" y="-188.3" font-family="Times New Roman,serif" font-size="14.00" fill="white">ENTITY</text>
</g>
<!-- n1&#45;&gt;n1 -->
<g id="edge8" class="edge"><title>n1&#45;&gt;n1</title>
<path fill="none" stroke="#00cd00" d="M341.181,-199.858C351.202,-199.623 359,-197.004 359,-192 359,-188.873 355.954,-186.677 351.223,-185.412"/>
<polygon fill="#00cd00" stroke="#00cd00" points="351.542,-181.925 341.181,-184.142 350.663,-188.869 351.542,-181.925"/>
<text text-anchor="middle" x="407.5" y="-188.3" font-family="Times New Roman,serif" font-size="14.00">wasDerivedFrom</text>
</g>
<!-- n2 -->
<g id="node2" class="node"><title>n2</title>
<polygon fill="#00008b" stroke="black" points="105,-123 0,-123 0,-87 105,-87 105,-123"/>
<text text-anchor="middle" x="52.5" y="-101.3" font-family="Times New Roman,serif" font-size="14.00" fill="white">COLLECTION</text>
</g>
<!-- n1&#45;&gt;n2 -->
<g id="edge1" class="edge"><title>n1&#45;&gt;n2</title>
<path fill="none" stroke="blue" stroke-dasharray="5,2" d="M273.95,-190.514C233.169,-188.729 163.157,-181.755 109.5,-156 96.5776,-149.797 84.3356,-139.825 74.5332,-130.412"/>
<polygon fill="blue" stroke="blue" points="76.7614,-127.689 67.2285,-123.066 71.7976,-132.625 76.7614,-127.689"/>
<text text-anchor="middle" x="135.5" y="-144.8" font-family="Times New Roman,serif" font-size="14.00">subClass</text>
</g>
<!-- n3 -->
<g id="node3" class="node"><title>n3</title>
<polygon fill="#00008b" stroke="black" points="511,-123 428,-123 428,-87 511,-87 511,-123"/>
<text text-anchor="middle" x="469.5" y="-101.3" font-family="Times New Roman,serif" font-size="14.00" fill="white">ACTIVITY</text>
</g>
<!-- n1&#45;&gt;n3 -->
<g id="edge2" class="edge"><title>n1&#45;&gt;n3</title>
<path fill="none" stroke="#00cd00" d="M341.229,-178.514C356.819,-172.348 375.405,-164.429 391.5,-156 406.813,-147.981 423.014,-137.884 436.659,-128.867"/>
<polygon fill="#00cd00" stroke="#00cd00" points="438.863,-131.603 445.222,-123.129 434.966,-125.788 438.863,-131.603"/>
<text text-anchor="middle" x="464" y="-144.8" font-family="Times New Roman,serif" font-size="14.00">wasGeneratedBy</text>
</g>
<!-- n4 -->
<g id="node4" class="node"><title>n4</title>
<g id="a_node4"><a xlink:href="file:///C:/Sadl3Workspace4/RACK-Ontology-7-29/Graphs/XMLSchema.svg" xlink:title="xsd:dateTime">
<polygon fill="#00008b" stroke="black" points="369.5,-36 277.5,-36 277.5,-0 369.5,-0 369.5,-36"/>
<text text-anchor="middle" x="323.5" y="-14.3" font-family="Times New Roman,serif" font-size="14.00" fill="white">xsd:dateTime</text>
</a>
</g>
</g>
<!-- n1&#45;&gt;n4 -->
<g id="edge11" class="edge"><title>n1&#45;&gt;n4</title>
<path fill="none" stroke="#00cd00" d="M273.865,-179.312C230.676,-162.33 164.14,-128.307 189.5,-87 206.607,-59.1356 239.081,-42.2561 267.776,-32.2843"/>
<polygon fill="#00cd00" stroke="#00cd00" points="268.916,-35.594 277.335,-29.1615 266.742,-28.9401 268.916,-35.594"/>
<text text-anchor="middle" x="237.5" y="-101.3" font-family="Times New Roman,serif" font-size="14.00">generatedAtTime</text>
</g>
<!-- n1&#45;&gt;n4 -->
<g id="edge14" class="edge"><title>n1&#45;&gt;n4</title>
<path fill="none" stroke="#00cd00" d="M308.911,-173.695C310.614,-153.048 313.611,-117.491 316.5,-87 317.773,-73.5668 319.295,-58.653 320.595,-46.2233"/>
<polygon fill="#00cd00" stroke="#00cd00" points="324.101,-46.351 321.668,-36.0393 317.14,-45.6175 324.101,-46.351"/>
<text text-anchor="middle" x="367.5" y="-101.3" font-family="Times New Roman,serif" font-size="14.00">invalidatedAtTime</text>
</g>
<!-- n7 -->
<g id="node7" class="node"><title>n7</title>
<polygon fill="#00008b" stroke="black" points="637.5,-36 573.5,-36 573.5,-0 637.5,-0 637.5,-36"/>
<text text-anchor="middle" x="605.5" y="-14.3" font-family="Times New Roman,serif" font-size="14.00" fill="white">AGENT</text>
</g>
<!-- n1&#45;&gt;n7 -->
<g id="edge7" class="edge"><title>n1&#45;&gt;n7</title>
<path fill="none" stroke="#00cd00" d="M341.268,-187.763C414.293,-180.152 583.842,-158.995 627.5,-123 653.035,-101.947 670.784,-83.355 655.5,-54 653.025,-49.2465 649.576,-45.0051 645.635,-41.259"/>
<polygon fill="#00cd00" stroke="#00cd00" points="647.531,-38.2876 637.576,-34.6611 643.097,-43.704 647.531,-38.2876"/>
<text text-anchor="middle" x="707" y="-101.3" font-family="Times New Roman,serif" font-size="14.00">wasAttributedTo</text>
</g>
<!-- n2&#45;&gt;n1 -->
<g id="edge6" class="edge"><title>n2&#45;&gt;n1</title>
<path fill="none" stroke="#00cd00" d="M27.9509,-123.085C16.5568,-133.061 7.3441,-145.677 16.5,-156 32.6037,-174.157 186.314,-184.689 263.593,-188.878"/>
<polygon fill="#00cd00" stroke="#00cd00" points="263.797,-192.393 273.968,-189.427 264.167,-185.403 263.797,-192.393"/>
<text text-anchor="middle" x="50" y="-144.8" font-family="Times New Roman,serif" font-size="14.00">hadMember</text>
</g>
<!-- n3&#45;&gt;n1 -->
<g id="edge12" class="edge"><title>n3&#45;&gt;n1</title>
<path fill="none" stroke="#00cd00" d="M427.847,-118.906C398.397,-128.107 363.612,-139.162 360.5,-141 349.097,-147.735 338.158,-157.322 329.209,-166.304"/>
<polygon fill="#00cd00" stroke="#00cd00" points="326.582,-163.986 322.194,-173.63 331.638,-168.828 326.582,-163.986"/>
<text text-anchor="middle" x="374" y="-144.8" font-family="Times New Roman,serif" font-size="14.00">used</text>
</g>
<!-- n3&#45;&gt;n3 -->
<g id="edge4" class="edge"><title>n3&#45;&gt;n3</title>
<path fill="none" stroke="#00cd00" d="M511.205,-112.752C521.408,-112.178 529,-109.594 529,-105 529,-102.129 526.034,-100.043 521.319,-98.7419"/>
<polygon fill="#00cd00" stroke="#00cd00" points="521.609,-95.2469 511.205,-97.248 520.586,-102.172 521.609,-95.2469"/>
<text text-anchor="middle" x="574" y="-101.3" font-family="Times New Roman,serif" font-size="14.00">wasInformedBy</text>
</g>
<!-- n3&#45;&gt;n4 -->
<g id="edge3" class="edge"><title>n3&#45;&gt;n4</title>
<path fill="none" stroke="#00cd00" d="M427.977,-91.1438C423.107,-89.7104 418.2,-88.3002 413.5,-87 381.709,-78.2065 365.967,-91.1219 341.5,-69 334.883,-63.0174 330.697,-54.4216 328.049,-46.0399"/>
<polygon fill="#00cd00" stroke="#00cd00" points="331.381,-44.94 325.522,-36.1123 324.597,-46.6666 331.381,-44.94"/>
<text text-anchor="middle" x="379.5" y="-57.8" font-family="Times New Roman,serif" font-size="14.00">endedAtTime</text>
</g>
<!-- n3&#45;&gt;n4 -->
<g id="edge13" class="edge"><title>n3&#45;&gt;n4</title>
<path fill="none" stroke="#00cd00" d="M455.008,-86.8411C445.29,-76.2111 431.709,-62.9304 417.5,-54 405.755,-46.6179 392.216,-40.4409 379.139,-35.4339"/>
<polygon fill="#00cd00" stroke="#00cd00" points="380.324,-32.1406 369.73,-31.9943 377.92,-38.715 380.324,-32.1406"/>
<text text-anchor="middle" x="476.5" y="-57.8" font-family="Times New Roman,serif" font-size="14.00">startedAtTime</text>
</g>
<!-- n3&#45;&gt;n7 -->
<g id="edge9" class="edge"><title>n3&#45;&gt;n7</title>
<path fill="none" stroke="#00cd00" d="M494.515,-86.7839C512.087,-74.7507 534.073,-59.8329 543.5,-54 550.373,-49.7473 557.781,-45.3836 565.001,-41.243"/>
<polygon fill="#00cd00" stroke="#00cd00" points="567.02,-44.1212 573.991,-36.1427 563.566,-38.0326 567.02,-44.1212"/>
<text text-anchor="middle" x="599.5" y="-57.8" font-family="Times New Roman,serif" font-size="14.00">wasAssociatedWith</text>
</g>
<!-- n5 -->
<g id="node5" class="node"><title>n5</title>
<polygon fill="#00008b" stroke="black" points="928,-210 709,-210 709,-174 928,-174 928,-210"/>
<text text-anchor="middle" x="818.5" y="-188.3" font-family="Times New Roman,serif" font-size="14.00" fill="white">ENTITY or AGENT or ACTIVITY</text>
</g>
<!-- n6 -->
<g id="node6" class="node"><title>n6</title>
<g id="a_node6"><a xlink:href="file:///C:/Sadl3Workspace4/RACK-Ontology-7-29/Graphs/XMLSchema.svg" xlink:title="xsd:string">
<polygon fill="#00008b" stroke="black" points="854,-123 783,-123 783,-87 854,-87 854,-123"/>
<text text-anchor="middle" x="818.5" y="-101.3" font-family="Times New Roman,serif" font-size="14.00" fill="white">xsd:string</text>
</a>
</g>
</g>
<!-- n5&#45;&gt;n6 -->
<g id="edge5" class="edge"><title>n5&#45;&gt;n6</title>
<path fill="none" stroke="#00cd00" d="M818.5,-173.799C818.5,-162.163 818.5,-146.548 818.5,-133.237"/>
<polygon fill="#00cd00" stroke="#00cd00" points="822,-133.175 818.5,-123.175 815,-133.175 822,-133.175"/>
<text text-anchor="middle" x="862" y="-144.8" font-family="Times New Roman,serif" font-size="14.00">uniqueIdentifier</text>
</g>
<!-- n7&#45;&gt;n7 -->
<g id="edge10" class="edge"><title>n7&#45;&gt;n7</title>
<path fill="none" stroke="#00cd00" d="M637.72,-25.8673C647.679,-25.7084 655.5,-23.0859 655.5,-18 655.5,-14.8213 652.445,-12.6049 647.722,-11.3508"/>
<polygon fill="#00cd00" stroke="#00cd00" points="648.07,-7.86734 637.72,-10.1327 647.224,-14.816 648.07,-7.86734"/>
<text text-anchor="middle" x="704.5" y="-14.3" font-family="Times New Roman,serif" font-size="14.00">actedOnBehalfOf</text>
</g>
</g>
</svg>
