<?xml version="1.0" encoding="UTF-8" standalone="no"?>
<!DOCTYPE svg PUBLIC "-//W3C//DTD SVG 1.1//EN"
 "http://www.w3.org/Graphics/SVG/1.1/DTD/svg11.dtd">
<!-- Generated by graphviz version 2.38.0 (20140413.2041)
 -->
<!-- Title: gprovs Pages: 1 -->
<svg width="1739pt" height="415pt"
 viewBox="0.00 0.00 1739.04 415.00" xmlns="http://www.w3.org/2000/svg" xmlns:xlink="http://www.w3.org/1999/xlink">
<g id="graph0" class="graph" transform="scale(1 1) rotate(0) translate(4 411)">
<title>gprovs</title>
<polygon fill="white" stroke="none" points="-4,4 -4,-411 1735.04,-411 1735.04,4 -4,4"/>
<text text-anchor="middle" x="93.5" y="-391.8" font-family="Times New Roman,serif" font-size="14.00">Graph of Ontology File: provs</text>
<!-- n1 -->
<g id="node1" class="node"><title>n1</title>
<polygon fill="#00008b" stroke="black" points="939.5,-297 879.5,-297 879.5,-261 939.5,-261 939.5,-297"/>
<text text-anchor="middle" x="909.5" y="-275.3" font-family="Times New Roman,serif" font-size="14.00" fill="white">THING</text>
</g>
<!-- n2 -->
<g id="node2" class="node"><title>n2</title>
<polygon fill="#00008b" stroke="black" points="1242.5,-36 1178.5,-36 1178.5,-0 1242.5,-0 1242.5,-36"/>
<text text-anchor="middle" x="1210.5" y="-14.3" font-family="Times New Roman,serif" font-size="14.00" fill="white">AGENT</text>
</g>
<!-- n1&#45;&gt;n2 -->
<g id="edge1" class="edge"><title>n1&#45;&gt;n2</title>
<path fill="none" stroke="blue" stroke-dasharray="5,2" d="M939.74,-274.425C1014.1,-265.626 1199.98,-243.592 1201.5,-243 1224.95,-233.883 1229.54,-227.619 1247.5,-210 1291.64,-166.704 1341.68,-141.514 1312.5,-87 1299.67,-63.0284 1274.25,-46.0479 1251.99,-35.0506"/>
<polygon fill="blue" stroke="blue" points="1253.23,-31.7681 1242.69,-30.7008 1250.27,-38.1086 1253.23,-31.7681"/>
<text text-anchor="middle" x="1341.5" y="-144.8" font-family="Times New Roman,serif" font-size="14.00">subClass</text>
</g>
<!-- n3 -->
<g id="node3" class="node"><title>n3</title>
<polygon fill="#00008b" stroke="black" points="1131,-210 1048,-210 1048,-174 1131,-174 1131,-210"/>
<text text-anchor="middle" x="1089.5" y="-188.3" font-family="Times New Roman,serif" font-size="14.00" fill="white">ACTIVITY</text>
</g>
<!-- n1&#45;&gt;n3 -->
<g id="edge2" class="edge"><title>n1&#45;&gt;n3</title>
<path fill="none" stroke="blue" stroke-dasharray="5,2" d="M939.521,-274.607C979.72,-269.526 1048.22,-258.817 1067.5,-243 1074.67,-237.12 1079.57,-228.44 1082.89,-219.956"/>
<polygon fill="blue" stroke="blue" points="1086.28,-220.86 1086.1,-210.266 1079.63,-218.656 1086.28,-220.86"/>
<text text-anchor="middle" x="1105.5" y="-231.8" font-family="Times New Roman,serif" font-size="14.00">subClass</text>
</g>
<!-- n1&#45;&gt;n3 -->
<g id="edge25" class="edge"><title>n1&#45;&gt;n3</title>
<path fill="none" stroke="#00cd00" d="M929.511,-260.828C942.717,-250.193 960.793,-236.912 978.5,-228 997.175,-218.602 1018.89,-211.083 1038.13,-205.46"/>
<polygon fill="#00cd00" stroke="#00cd00" points="1039.26,-208.777 1047.94,-202.692 1037.36,-202.04 1039.26,-208.777"/>
<text text-anchor="middle" x="1021" y="-231.8" font-family="Times New Roman,serif" font-size="14.00">dataInsertedBy</text>
</g>
<!-- n6 -->
<g id="node6" class="node"><title>n6</title>
<polygon fill="#00008b" stroke="black" points="618,-123 551,-123 551,-87 618,-87 618,-123"/>
<text text-anchor="middle" x="584.5" y="-101.3" font-family="Times New Roman,serif" font-size="14.00" fill="white">ENTITY</text>
</g>
<!-- n1&#45;&gt;n6 -->
<g id="edge5" class="edge"><title>n1&#45;&gt;n6</title>
<path fill="none" stroke="blue" stroke-dasharray="5,2" d="M879.247,-275.479C850.42,-271.904 806.754,-263.345 774.5,-243 740.616,-221.627 747.808,-198.995 716.5,-174 689.468,-152.419 654.51,-134.78 627.361,-122.879"/>
<polygon fill="blue" stroke="blue" points="628.679,-119.636 618.109,-118.912 625.92,-126.07 628.679,-119.636"/>
<text text-anchor="middle" x="771.5" y="-188.3" font-family="Times New Roman,serif" font-size="14.00">subClass</text>
</g>
<!-- n18 -->
<g id="node18" class="node"><title>n18</title>
<g id="a_node18"><a xlink:href="file:///C:/Users/200001866/Documents/GitHub/RACK/RACK-Ontology/Graphs/XMLSchema.svg" xlink:title="xsd:string">
<polygon fill="#00008b" stroke="black" points="885,-210 814,-210 814,-174 885,-174 885,-210"/>
<text text-anchor="middle" x="849.5" y="-188.3" font-family="Times New Roman,serif" font-size="14.00" fill="white">xsd:string</text>
</a>
</g>
</g>
<!-- n1&#45;&gt;n18 -->
<g id="edge16" class="edge"><title>n1&#45;&gt;n18</title>
<path fill="none" stroke="#00cd00" d="M903.967,-260.876C900.23,-250.768 894.668,-238.031 887.5,-228 884.847,-224.288 881.748,-220.668 878.484,-217.252"/>
<polygon fill="#00cd00" stroke="#00cd00" points="880.791,-214.613 871.187,-210.139 875.905,-219.626 880.791,-214.613"/>
<text text-anchor="middle" x="921" y="-231.8" font-family="Times New Roman,serif" font-size="14.00">identifier</text>
</g>
<!-- n1&#45;&gt;n18 -->
<g id="edge26" class="edge"><title>n1&#45;&gt;n18</title>
<path fill="none" stroke="#00cd00" d="M879.291,-273.982C845.311,-268.771 793.311,-258.475 781.5,-243 770.651,-228.786 785.596,-216.761 804.21,-208.069"/>
<polygon fill="#00cd00" stroke="#00cd00" points="805.728,-211.226 813.545,-204.075 802.975,-204.791 805.728,-211.226"/>
<text text-anchor="middle" x="791.5" y="-231.8" font-family="Times New Roman,serif" font-size="14.00">title</text>
</g>
<!-- n1&#45;&gt;n18 -->
<g id="edge27" class="edge"><title>n1&#45;&gt;n18</title>
<path fill="none" stroke="#00cd00" d="M879.301,-274.786C858.978,-270.877 833.588,-262.21 820.5,-243 815.076,-235.039 817.798,-226.017 823.319,-217.85"/>
<polygon fill="#00cd00" stroke="#00cd00" points="826.056,-220.032 829.576,-210.039 820.593,-215.656 826.056,-220.032"/>
<text text-anchor="middle" x="852" y="-231.8" font-family="Times New Roman,serif" font-size="14.00">description</text>
</g>
<!-- n2&#45;&gt;n2 -->
<g id="edge29" class="edge"><title>n2&#45;&gt;n2</title>
<path fill="none" stroke="#00cd00" d="M1242.72,-25.8673C1252.68,-25.7084 1260.5,-23.0859 1260.5,-18 1260.5,-14.8213 1257.45,-12.6049 1252.72,-11.3508"/>
<polygon fill="#00cd00" stroke="#00cd00" points="1253.07,-7.86734 1242.72,-10.1327 1252.22,-14.816 1253.07,-7.86734"/>
<text text-anchor="middle" x="1309.5" y="-14.3" font-family="Times New Roman,serif" font-size="14.00">actedOnBehalfOf</text>
</g>
<!-- n3&#45;&gt;n2 -->
<g id="edge28" class="edge"><title>n3&#45;&gt;n2</title>
<path fill="none" stroke="#00cd00" d="M1120.73,-173.956C1139.92,-162.009 1163.61,-144.381 1178.5,-123 1194.55,-99.9546 1202.75,-68.6003 1206.81,-46.3605"/>
<polygon fill="#00cd00" stroke="#00cd00" points="1210.3,-46.6886 1208.48,-36.2512 1203.39,-45.5454 1210.3,-46.6886"/>
<text text-anchor="middle" x="1252.5" y="-101.3" font-family="Times New Roman,serif" font-size="14.00">wasAssociatedWith</text>
</g>
<!-- n3&#45;&gt;n3 -->
<g id="edge20" class="edge"><title>n3&#45;&gt;n3</title>
<path fill="none" stroke="#00cd00" d="M1131.21,-199.752C1141.41,-199.178 1149,-196.594 1149,-192 1149,-189.129 1146.03,-187.043 1141.32,-185.742"/>
<polygon fill="#00cd00" stroke="#00cd00" points="1141.61,-182.247 1131.21,-184.248 1140.59,-189.172 1141.61,-182.247"/>
<text text-anchor="middle" x="1194" y="-188.3" font-family="Times New Roman,serif" font-size="14.00">wasInformedBy</text>
</g>
<!-- n3&#45;&gt;n6 -->
<g id="edge31" class="edge"><title>n3&#45;&gt;n6</title>
<path fill="none" stroke="#00cd00" d="M1047.78,-183.264C1017.81,-177.195 976.668,-167.805 941.5,-156 925.842,-150.744 923.454,-145.273 907.5,-141 810.157,-114.926 691.362,-108.199 628.471,-106.514"/>
<polygon fill="#00cd00" stroke="#00cd00" points="628.212,-103.007 618.132,-106.269 628.047,-110.005 628.212,-103.007"/>
<text text-anchor="middle" x="955" y="-144.8" font-family="Times New Roman,serif" font-size="14.00">used</text>
</g>
<!-- n19 -->
<g id="node19" class="node"><title>n19</title>
<g id="a_node19"><a xlink:href="file:///C:/Users/200001866/Documents/GitHub/RACK/RACK-Ontology/Graphs/XMLSchema.svg" xlink:title="xsd:dateTime">
<polygon fill="#00008b" stroke="black" points="934.5,-36 842.5,-36 842.5,-0 934.5,-0 934.5,-36"/>
<text text-anchor="middle" x="888.5" y="-14.3" font-family="Times New Roman,serif" font-size="14.00" fill="white">xsd:dateTime</text>
</a>
</g>
</g>
<!-- n3&#45;&gt;n19 -->
<g id="edge19" class="edge"><title>n3&#45;&gt;n19</title>
<path fill="none" stroke="#00cd00" d="M1062.58,-173.767C1043.3,-160.851 1017.19,-142.169 996.5,-123 966.904,-95.5746 967.247,-81.2607 937.5,-54 933.056,-49.9277 928.129,-45.9144 923.161,-42.14"/>
<polygon fill="#00cd00" stroke="#00cd00" points="924.975,-39.1309 914.84,-36.0455 920.839,-44.7781 924.975,-39.1309"/>
<text text-anchor="middle" x="1034.5" y="-101.3" font-family="Times New Roman,serif" font-size="14.00">endedAtTime</text>
</g>
<!-- n3&#45;&gt;n19 -->
<g id="edge32" class="edge"><title>n3&#45;&gt;n19</title>
<path fill="none" stroke="#00cd00" d="M1090.88,-173.822C1093.12,-141.036 1095.88,-71.2593 1080.5,-54 1062.83,-34.1827 994.854,-25.5123 944.776,-21.7677"/>
<polygon fill="#00cd00" stroke="#00cd00" points="944.923,-18.2696 934.703,-21.0619 944.434,-25.2524 944.923,-18.2696"/>
<text text-anchor="middle" x="1133.5" y="-101.3" font-family="Times New Roman,serif" font-size="14.00">startedAtTime</text>
</g>
<!-- n4 -->
<g id="node4" class="node"><title>n4</title>
<polygon fill="none" stroke="red" points="1490.5,-297 1284.5,-297 1284.5,-261 1490.5,-261 1490.5,-297"/>
<text text-anchor="middle" x="1387.5" y="-275.3" font-family="Times New Roman,serif" font-size="14.00">startedAtTime has at most 1 value</text>
</g>
<!-- n4&#45;&gt;n3 -->
<g id="edge3" class="edge"><title>n4&#45;&gt;n3</title>
<path fill="none" stroke="red" d="M1327.55,-260.901C1272.79,-245.28 1192.66,-222.426 1140.79,-207.631"/>
<polygon fill="red" stroke="red" points="1141.71,-204.252 1131.13,-204.875 1139.79,-210.984 1141.71,-204.252"/>
<text text-anchor="middle" x="1279" y="-231.8" font-family="Times New Roman,serif" font-size="14.00">restricts</text>
</g>
<!-- n5 -->
<g id="node5" class="node"><title>n5</title>
<polygon fill="none" stroke="red" points="1266,-297 1063,-297 1063,-261 1266,-261 1266,-297"/>
<text text-anchor="middle" x="1164.5" y="-275.3" font-family="Times New Roman,serif" font-size="14.00">endedAtTime has at most 1 value</text>
</g>
<!-- n5&#45;&gt;n3 -->
<g id="edge4" class="edge"><title>n5&#45;&gt;n3</title>
<path fill="none" stroke="red" d="M1159.7,-260.906C1156.17,-250.562 1150.57,-237.568 1142.5,-228 1138.9,-223.733 1134.65,-219.786 1130.15,-216.197"/>
<polygon fill="red" stroke="red" points="1132,-213.215 1121.87,-210.135 1127.87,-218.865 1132,-213.215"/>
<text text-anchor="middle" x="1175" y="-231.8" font-family="Times New Roman,serif" font-size="14.00">restricts</text>
</g>
<!-- n6&#45;&gt;n2 -->
<g id="edge22" class="edge"><title>n6&#45;&gt;n2</title>
<path fill="none" stroke="#00cd00" d="M618.29,-101.601C681.4,-96.9113 821.393,-85.5234 938.5,-69 1020.29,-57.4599 1114.98,-38.8507 1168.3,-27.8844"/>
<polygon fill="#00cd00" stroke="#00cd00" points="1169.32,-31.2493 1178.4,-25.7974 1167.9,-24.3942 1169.32,-31.2493"/>
<text text-anchor="middle" x="1077" y="-57.8" font-family="Times New Roman,serif" font-size="14.00">wasAttributedTo</text>
</g>
<!-- n6&#45;&gt;n3 -->
<g id="edge18" class="edge"><title>n6&#45;&gt;n3</title>
<path fill="none" stroke="#00cd00" d="M618.133,-112.117C653.099,-118.637 709.348,-129.576 757.5,-141 782.153,-146.849 787.648,-151.066 812.5,-156 890.381,-171.461 982.006,-181.466 1037.9,-186.667"/>
<polygon fill="#00cd00" stroke="#00cd00" points="1037.63,-190.157 1047.91,-187.582 1038.27,-183.186 1037.63,-190.157"/>
<text text-anchor="middle" x="860" y="-144.8" font-family="Times New Roman,serif" font-size="14.00">wasGeneratedBy</text>
</g>
<!-- n6&#45;&gt;n6 -->
<g id="edge17" class="edge"><title>n6&#45;&gt;n6</title>
<path fill="none" stroke="#00cd00" d="M618.181,-107.619C628.202,-107.541 636,-106.668 636,-105 636,-103.958 632.954,-103.226 628.223,-102.804"/>
<polygon fill="#00cd00" stroke="#00cd00" points="628.32,-99.3051 618.181,-102.381 628.025,-106.299 628.32,-99.3051"/>
<text text-anchor="middle" x="681.5" y="-101.3" font-family="Times New Roman,serif" font-size="14.00">wasImpactedBy</text>
</g>
<!-- n6&#45;&gt;n6 -->
<g id="edge23" class="edge"><title>n6&#45;&gt;n6</title>
<path fill="none" stroke="#00cd00" d="M618.244,-109.038C661.612,-111.528 727,-110.182 727,-105 727,-100.213 671.194,-98.6997 628.499,-100.46"/>
<polygon fill="#00cd00" stroke="#00cd00" points="628.061,-96.977 618.244,-100.962 628.403,-103.969 628.061,-96.977"/>
<text text-anchor="middle" x="775.5" y="-101.3" font-family="Times New Roman,serif" font-size="14.00">wasDerivedFrom</text>
</g>
<!-- n6&#45;&gt;n6 -->
<g id="edge24" class="edge"><title>n6&#45;&gt;n6</title>
<path fill="none" stroke="#00cd00" d="M618.415,-109.875C686.479,-115.115 824,-113.49 824,-105 824,-96.9077 699.069,-95.0521 628.423,-99.4331"/>
<polygon fill="#00cd00" stroke="#00cd00" points="628.149,-95.9436 618.415,-100.125 628.632,-102.927 628.149,-95.9436"/>
<text text-anchor="middle" x="867" y="-101.3" font-family="Times New Roman,serif" font-size="14.00">wasRevisionOf</text>
</g>
<!-- n16 -->
<g id="node16" class="node"><title>n16</title>
<polygon fill="#00008b" stroke="black" points="609,-36 504,-36 504,-0 609,-0 609,-36"/>
<text text-anchor="middle" x="556.5" y="-14.3" font-family="Times New Roman,serif" font-size="14.00" fill="white">COLLECTION</text>
</g>
<!-- n6&#45;&gt;n16 -->
<g id="edge14" class="edge"><title>n6&#45;&gt;n16</title>
<path fill="none" stroke="blue" stroke-dasharray="5,2" d="M550.879,-94.0458C538.808,-88.6689 526.467,-80.6635 519.5,-69 514.35,-60.378 517.825,-51.4218 524.338,-43.512"/>
<polygon fill="blue" stroke="blue" points="527.184,-45.6067 531.656,-36.0022 522.17,-40.7211 527.184,-45.6067"/>
<text text-anchor="middle" x="545.5" y="-57.8" font-family="Times New Roman,serif" font-size="14.00">subClass</text>
</g>
<!-- n6&#45;&gt;n19 -->
<g id="edge30" class="edge"><title>n6&#45;&gt;n19</title>
<path fill="none" stroke="#00cd00" d="M618.087,-88.417C642.687,-77.5106 677.116,-63.2857 708.5,-54 749.204,-41.9567 796.338,-32.964 832.162,-27.1111"/>
<polygon fill="#00cd00" stroke="#00cd00" points="833.101,-30.5055 842.423,-25.4698 831.995,-23.5933 833.101,-30.5055"/>
<text text-anchor="middle" x="756.5" y="-57.8" font-family="Times New Roman,serif" font-size="14.00">generatedAtTime</text>
</g>
<!-- n6&#45;&gt;n19 -->
<g id="edge33" class="edge"><title>n6&#45;&gt;n19</title>
<path fill="none" stroke="#00cd00" d="M618.28,-102.578C662.33,-99.8438 741.225,-91.9068 804.5,-69 814.58,-65.351 835.166,-53.1278 853.436,-41.6811"/>
<polygon fill="#00cd00" stroke="#00cd00" points="855.579,-44.4668 862.162,-36.1652 851.839,-38.5498 855.579,-44.4668"/>
<text text-anchor="middle" x="883.5" y="-57.8" font-family="Times New Roman,serif" font-size="14.00">invalidatedAtTime</text>
</g>
<!-- n7 -->
<g id="node7" class="node"><title>n7</title>
<polygon fill="none" stroke="red" points="221,-210 0,-210 0,-174 221,-174 221,-210"/>
<text text-anchor="middle" x="110.5" y="-188.3" font-family="Times New Roman,serif" font-size="14.00">wasGeneratedBy has at most 1 value</text>
</g>
<!-- n7&#45;&gt;n6 -->
<g id="edge6" class="edge"><title>n7&#45;&gt;n6</title>
<path fill="none" stroke="red" d="M205.566,-173.952C307.522,-155.669 464.959,-127.437 540.764,-113.843"/>
<polygon fill="red" stroke="red" points="541.679,-117.235 550.904,-112.025 540.443,-110.345 541.679,-117.235"/>
<text text-anchor="middle" x="399" y="-144.8" font-family="Times New Roman,serif" font-size="14.00">restricts</text>
</g>
<!-- n8 -->
<g id="node8" class="node"><title>n8</title>
<polygon fill="none" stroke="red" points="461.5,-210 239.5,-210 239.5,-174 461.5,-174 461.5,-210"/>
<text text-anchor="middle" x="350.5" y="-188.3" font-family="Times New Roman,serif" font-size="14.00">generatedAtTime has at most 1 value</text>
</g>
<!-- n8&#45;&gt;n6 -->
<g id="edge7" class="edge"><title>n8&#45;&gt;n6</title>
<path fill="none" stroke="red" d="M397.572,-173.901C439.492,-158.674 500.33,-136.575 541.097,-121.766"/>
<polygon fill="red" stroke="red" points="542.546,-124.964 550.75,-118.26 540.156,-118.384 542.546,-124.964"/>
<text text-anchor="middle" x="505" y="-144.8" font-family="Times New Roman,serif" font-size="14.00">restricts</text>
</g>
<!-- n9 -->
<g id="node9" class="node"><title>n9</title>
<polygon fill="none" stroke="red" points="707.5,-210 479.5,-210 479.5,-174 707.5,-174 707.5,-210"/>
<text text-anchor="middle" x="593.5" y="-188.3" font-family="Times New Roman,serif" font-size="14.00">invalidatedAtTime has at most 1 value</text>
</g>
<!-- n9&#45;&gt;n6 -->
<g id="edge8" class="edge"><title>n9&#45;&gt;n6</title>
<path fill="none" stroke="red" d="M591.679,-173.799C590.447,-162.163 588.793,-146.548 587.384,-133.237"/>
<polygon fill="red" stroke="red" points="590.852,-132.751 586.319,-123.175 583.891,-133.488 590.852,-132.751"/>
<text text-anchor="middle" x="613" y="-144.8" font-family="Times New Roman,serif" font-size="14.00">restricts</text>
</g>
<!-- n10 -->
<g id="node10" class="node"><title>n10</title>
<ellipse fill="blue" stroke="black" cx="1507.5" cy="-366" rx="66.0889" ry="18"/>
<text text-anchor="middle" x="1507.5" y="-362.3" font-family="Times New Roman,serif" font-size="14.00" fill="white">wasRevisionOf</text>
</g>
<!-- n11 -->
<g id="node11" class="node"><title>n11</title>
<polygon fill="none" stroke="#00cd00" points="1703.99,-271.544 1703.99,-286.456 1657.43,-297 1591.57,-297 1545.01,-286.456 1545.01,-271.544 1591.57,-261 1657.43,-261 1703.99,-271.544"/>
<text text-anchor="middle" x="1624.5" y="-275.3" font-family="Times New Roman,serif" font-size="14.00">wasDerivedFrom</text>
</g>
<!-- n10&#45;&gt;n11 -->
<g id="edge9" class="edge"><title>n10&#45;&gt;n11</title>
<path fill="none" stroke="#00cd00" d="M1519.54,-348.13C1527.67,-337.615 1539.15,-324.354 1551.5,-315 1558.82,-309.454 1567.17,-304.459 1575.53,-300.095"/>
<polygon fill="#00cd00" stroke="#00cd00" points="1577.16,-303.191 1584.57,-295.61 1574.05,-296.92 1577.16,-303.191"/>
<text text-anchor="middle" x="1594" y="-318.8" font-family="Times New Roman,serif" font-size="14.00">subPropertyOf</text>
</g>
<!-- n12 -->
<g id="node12" class="node"><title>n12</title>
<polygon fill="none" stroke="red" points="744,-384 569,-384 569,-348 744,-348 744,-384"/>
<text text-anchor="middle" x="656.5" y="-362.3" font-family="Times New Roman,serif" font-size="14.00">identifier has at most 1 value</text>
</g>
<!-- n12&#45;&gt;n1 -->
<g id="edge10" class="edge"><title>n12&#45;&gt;n1</title>
<path fill="none" stroke="red" d="M707.394,-347.901C755.185,-331.845 825.718,-308.148 869.572,-293.415"/>
<polygon fill="red" stroke="red" points="870.946,-296.645 879.31,-290.143 868.716,-290.01 870.946,-296.645"/>
<text text-anchor="middle" x="821" y="-318.8" font-family="Times New Roman,serif" font-size="14.00">restricts</text>
</g>
<!-- n13 -->
<g id="node13" class="node"><title>n13</title>
<polygon fill="none" stroke="red" points="908.5,-384 762.5,-384 762.5,-348 908.5,-348 908.5,-384"/>
<text text-anchor="middle" x="835.5" y="-362.3" font-family="Times New Roman,serif" font-size="14.00">title has at most 1 value</text>
</g>
<!-- n13&#45;&gt;n1 -->
<g id="edge11" class="edge"><title>n13&#45;&gt;n1</title>
<path fill="none" stroke="red" d="M850.475,-347.799C861.207,-335.471 875.827,-318.679 887.831,-304.89"/>
<polygon fill="red" stroke="red" points="890.621,-307.016 894.547,-297.175 885.341,-302.42 890.621,-307.016"/>
<text text-anchor="middle" x="900" y="-318.8" font-family="Times New Roman,serif" font-size="14.00">restricts</text>
</g>
<!-- n14 -->
<g id="node14" class="node"><title>n14</title>
<polygon fill="none" stroke="red" points="1116,-384 927,-384 927,-348 1116,-348 1116,-384"/>
<text text-anchor="middle" x="1021.5" y="-362.3" font-family="Times New Roman,serif" font-size="14.00">description has at most 1 value</text>
</g>
<!-- n14&#45;&gt;n1 -->
<g id="edge12" class="edge"><title>n14&#45;&gt;n1</title>
<path fill="none" stroke="red" d="M998.835,-347.799C981.984,-335.01 958.802,-317.417 940.276,-303.357"/>
<polygon fill="red" stroke="red" points="942.213,-300.433 932.131,-297.175 937.981,-306.009 942.213,-300.433"/>
<text text-anchor="middle" x="995" y="-318.8" font-family="Times New Roman,serif" font-size="14.00">restricts</text>
</g>
<!-- n15 -->
<g id="node15" class="node"><title>n15</title>
<polygon fill="none" stroke="red" points="1423,-384 1134,-384 1134,-348 1423,-348 1423,-384"/>
<text text-anchor="middle" x="1278.5" y="-362.3" font-family="Times New Roman,serif" font-size="14.00">some values of dataInsertedBy from ACTIVITY</text>
</g>
<!-- n15&#45;&gt;n1 -->
<g id="edge13" class="edge"><title>n15&#45;&gt;n1</title>
<path fill="none" stroke="red" d="M1204.27,-347.901C1127.48,-330.212 1010.43,-303.248 949.501,-289.214"/>
<polygon fill="red" stroke="red" points="950.04,-285.747 939.51,-286.913 948.469,-292.568 950.04,-285.747"/>
<text text-anchor="middle" x="1139" y="-318.8" font-family="Times New Roman,serif" font-size="14.00">restricts</text>
</g>
<!-- n16&#45;&gt;n6 -->
<g id="edge21" class="edge"><title>n16&#45;&gt;n6</title>
<path fill="none" stroke="#00cd00" d="M564.501,-36.2451C566.932,-41.8396 569.488,-48.1203 571.5,-54 574.015,-61.3512 576.316,-69.4525 578.261,-76.9544"/>
<polygon fill="#00cd00" stroke="#00cd00" points="574.871,-77.8246 580.678,-86.6862 581.664,-76.1374 574.871,-77.8246"/>
<text text-anchor="middle" x="597.5" y="-57.8" font-family="Times New Roman,serif" font-size="14.00">content</text>
</g>
<!-- n17 -->
<g id="node17" class="node"><title>n17</title>
<ellipse fill="blue" stroke="black" cx="1661.5" cy="-366" rx="69.5877" ry="18"/>
<text text-anchor="middle" x="1661.5" y="-362.3" font-family="Times New Roman,serif" font-size="14.00" fill="white">wasImpactedBy</text>
</g>
<!-- n17&#45;&gt;n11 -->
<g id="edge15" class="edge"><title>n17&#45;&gt;n11</title>
<path fill="none" stroke="#00cd00" d="M1654.01,-347.799C1648.85,-335.932 1641.88,-319.928 1636.01,-306.449"/>
<polygon fill="#00cd00" stroke="#00cd00" points="1639.18,-304.947 1631.98,-297.175 1632.76,-307.741 1639.18,-304.947"/>
<text text-anchor="middle" x="1687" y="-318.8" font-family="Times New Roman,serif" font-size="14.00">subPropertyOf</text>
</g>
</g>
</svg>
