<?xml version="1.0" encoding="UTF-8" standalone="no"?>
<!DOCTYPE svg PUBLIC "-//W3C//DTD SVG 1.1//EN"
 "http://www.w3.org/Graphics/SVG/1.1/DTD/svg11.dtd">
<!-- Generated by graphviz version 2.38.0 (20140413.2041)
 -->
<!-- Title: gprovs Pages: 1 -->
<svg width="553pt" height="241pt"
 viewBox="0.00 0.00 553.00 241.00" xmlns="http://www.w3.org/2000/svg" xmlns:xlink="http://www.w3.org/1999/xlink">
<g id="graph0" class="graph" transform="scale(1 1) rotate(0) translate(4 237)">
<title>gprovs</title>
<polygon fill="white" stroke="none" points="-4,4 -4,-237 549,-237 549,4 -4,4"/>
<text text-anchor="middle" x="93.5" y="-217.8" font-family="Times New Roman,serif" font-size="14.00">Graph of Ontology File: provs</text>
<!-- n1 -->
<g id="node1" class="node"><title>n1</title>
<polygon fill="#00008b" stroke="black" points="193,-210 126,-210 126,-174 193,-174 193,-210"/>
<text text-anchor="middle" x="159.5" y="-188.3" font-family="Times New Roman,serif" font-size="14.00" fill="white">ENTITY</text>
</g>
<!-- n1&#45;&gt;n1 -->
<g id="edge4" class="edge"><title>n1&#45;&gt;n1</title>
<path fill="none" stroke="#00cd00" d="M193.181,-199.858C203.202,-199.623 211,-197.004 211,-192 211,-188.873 207.954,-186.677 203.223,-185.412"/>
<polygon fill="#00cd00" stroke="#00cd00" points="203.542,-181.925 193.181,-184.142 202.663,-188.869 203.542,-181.925"/>
<text text-anchor="middle" x="259.5" y="-188.3" font-family="Times New Roman,serif" font-size="14.00">wasDerivedFrom</text>
</g>
<!-- n2 -->
<g id="node2" class="node"><title>n2</title>
<polygon fill="#00008b" stroke="black" points="83,-123 0,-123 0,-87 83,-87 83,-123"/>
<text text-anchor="middle" x="41.5" y="-101.3" font-family="Times New Roman,serif" font-size="14.00" fill="white">ACTIVITY</text>
</g>
<!-- n1&#45;&gt;n2 -->
<g id="edge1" class="edge"><title>n1&#45;&gt;n2</title>
<path fill="none" stroke="#00cd00" d="M125.834,-190.989C98.6087,-188.982 61.7482,-181.317 42.5,-156 37.6771,-149.657 36.1838,-141.435 36.2527,-133.497"/>
<polygon fill="#00cd00" stroke="#00cd00" points="39.7509,-133.663 37.0944,-123.407 32.7751,-133.081 39.7509,-133.663"/>
<text text-anchor="middle" x="90" y="-144.8" font-family="Times New Roman,serif" font-size="14.00">wasGeneratedBy</text>
</g>
<!-- n3 -->
<g id="node3" class="node"><title>n3</title>
<polygon fill="#00008b" stroke="black" points="181.5,-36 117.5,-36 117.5,-0 181.5,-0 181.5,-36"/>
<text text-anchor="middle" x="149.5" y="-14.3" font-family="Times New Roman,serif" font-size="14.00" fill="white">AGENT</text>
</g>
<!-- n1&#45;&gt;n3 -->
<g id="edge2" class="edge"><title>n1&#45;&gt;n3</title>
<path fill="none" stroke="#00cd00" d="M175.989,-173.75C199.514,-146.959 237.36,-94.2436 213.5,-54 208.22,-45.0947 199.786,-38.3078 190.75,-33.1945"/>
<polygon fill="#00cd00" stroke="#00cd00" points="192.118,-29.9654 181.609,-28.6225 188.987,-36.226 192.118,-29.9654"/>
<text text-anchor="middle" x="269" y="-101.3" font-family="Times New Roman,serif" font-size="14.00">wasAttributedTo</text>
</g>
<!-- n2&#45;&gt;n1 -->
<g id="edge7" class="edge"><title>n2&#45;&gt;n1</title>
<path fill="none" stroke="#00cd00" d="M83.24,-113.461C101.73,-118.57 122.614,-127.05 137.5,-141 144.165,-147.246 148.929,-155.869 152.279,-164.197"/>
<polygon fill="#00cd00" stroke="#00cd00" points="148.988,-165.391 155.591,-173.677 155.597,-163.082 148.988,-165.391"/>
<text text-anchor="middle" x="162" y="-144.8" font-family="Times New Roman,serif" font-size="14.00">used</text>
</g>
<!-- n2&#45;&gt;n2 -->
<g id="edge3" class="edge"><title>n2&#45;&gt;n2</title>
<path fill="none" stroke="#00cd00" d="M83.2052,-112.752C93.4076,-112.178 101,-109.594 101,-105 101,-102.129 98.0342,-100.043 93.319,-98.7419"/>
<polygon fill="#00cd00" stroke="#00cd00" points="93.6093,-95.2469 83.2052,-97.248 92.5864,-102.172 93.6093,-95.2469"/>
<text text-anchor="middle" x="146" y="-101.3" font-family="Times New Roman,serif" font-size="14.00">wasInformedBy</text>
</g>
<!-- n2&#45;&gt;n3 -->
<g id="edge5" class="edge"><title>n2&#45;&gt;n3</title>
<path fill="none" stroke="#00cd00" d="M61.5077,-86.7746C73.0485,-76.9788 87.9212,-64.5906 101.5,-54 106.517,-50.0873 111.903,-46.028 117.189,-42.1199"/>
<polygon fill="#00cd00" stroke="#00cd00" points="119.346,-44.8783 125.346,-36.146 115.21,-39.2308 119.346,-44.8783"/>
<text text-anchor="middle" x="157.5" y="-57.8" font-family="Times New Roman,serif" font-size="14.00">wasAssociatedWith</text>
</g>
<!-- n3&#45;&gt;n3 -->
<g id="edge6" class="edge"><title>n3&#45;&gt;n3</title>
<path fill="none" stroke="#00cd00" d="M181.72,-25.8673C191.679,-25.7084 199.5,-23.0859 199.5,-18 199.5,-14.8213 196.445,-12.6049 191.722,-11.3508"/>
<polygon fill="#00cd00" stroke="#00cd00" points="192.07,-7.86734 181.72,-10.1327 191.224,-14.816 192.07,-7.86734"/>
<text text-anchor="middle" x="248.5" y="-14.3" font-family="Times New Roman,serif" font-size="14.00">actedOnBehalfOf</text>
</g>
<!-- n4 -->
<g id="node4" class="node"><title>n4</title>
<polygon fill="#00008b" stroke="black" points="545,-210 326,-210 326,-174 545,-174 545,-210"/>
<text text-anchor="middle" x="435.5" y="-188.3" font-family="Times New Roman,serif" font-size="14.00" fill="white">ENTITY or AGENT or ACTIVITY</text>
</g>
<!-- n5 -->
<g id="node5" class="node"><title>n5</title>
<g id="a_node5"><a xlink:href="file:///C:/sadl/git/RACK/RACK-Ontology/Graphs/XMLSchema.svg" xlink:title="xsd:string">
<polygon fill="#00008b" stroke="black" points="471,-123 400,-123 400,-87 471,-87 471,-123"/>
<text text-anchor="middle" x="435.5" y="-101.3" font-family="Times New Roman,serif" font-size="14.00" fill="white">xsd:string</text>
</a>
</g>
</g>
<!-- n4&#45;&gt;n5 -->
<g id="edge8" class="edge"><title>n4&#45;&gt;n5</title>
<path fill="none" stroke="#00cd00" d="M435.5,-173.799C435.5,-162.163 435.5,-146.548 435.5,-133.237"/>
<polygon fill="#00cd00" stroke="#00cd00" points="439,-133.175 435.5,-123.175 432,-133.175 439,-133.175"/>
<text text-anchor="middle" x="479" y="-144.8" font-family="Times New Roman,serif" font-size="14.00">uniqueIdentifier</text>
</g>
</g>
</svg>
