<?xml version="1.0" encoding="UTF-8" standalone="no"?>
<!DOCTYPE svg PUBLIC "-//W3C//DTD SVG 1.1//EN"
 "http://www.w3.org/Graphics/SVG/1.1/DTD/svg11.dtd">
<!-- Generated by graphviz version 2.38.0 (20140413.2041)
 -->
<!-- Title: gRq Pages: 1 -->
<svg width="1553pt" height="502pt"
 viewBox="0.00 0.00 1553.41 502.00" xmlns="http://www.w3.org/2000/svg" xmlns:xlink="http://www.w3.org/1999/xlink">
<g id="graph0" class="graph" transform="scale(1 1) rotate(0) translate(4 498)">
<title>gRq</title>
<polygon fill="white" stroke="none" points="-4,4 -4,-498 1549.41,-498 1549.41,4 -4,4"/>
<text text-anchor="middle" x="86" y="-478.8" font-family="Times New Roman,serif" font-size="14.00">Graph of Ontology File: Rq</text>
<!-- n1 -->
<g id="node1" class="node"><title>n1</title>
<ellipse fill="blue" stroke="black" cx="48.7457" cy="-453" rx="48.9926" ry="18"/>
<text text-anchor="middle" x="48.7457" y="-449.3" font-family="Times New Roman,serif" font-size="14.00" fill="white">referenced</text>
</g>
<!-- n2 -->
<g id="node2" class="node"><title>n2</title>
<g id="a_node2"><a xlink:href="file:///C:/Users/200001866/Documents/GitHub/RACK/RACK-Ontology/Graphs/PROV-S.owl.svg" xlink:title="provs:used">
<polygon fill="none" stroke="#00cd00" points="163.491,-358.544 163.491,-373.456 131.422,-384 86.0695,-384 54.0005,-373.456 54.0005,-358.544 86.0695,-348 131.422,-348 163.491,-358.544"/>
<text text-anchor="middle" x="108.746" y="-362.3" font-family="Times New Roman,serif" font-size="14.00">provs:used</text>
</a>
</g>
</g>
<!-- n1&#45;&gt;n2 -->
<g id="edge1" class="edge"><title>n1&#45;&gt;n2</title>
<path fill="none" stroke="#00cd00" d="M50.7961,-434.631C52.6535,-424.436 56.1608,-411.694 62.7457,-402 65.847,-397.434 69.739,-393.215 73.9387,-389.404"/>
<polygon fill="#00cd00" stroke="#00cd00" points="76.2267,-392.054 81.7264,-382.998 71.7799,-386.648 76.2267,-392.054"/>
<text text-anchor="middle" x="105.246" y="-405.8" font-family="Times New Roman,serif" font-size="14.00">subPropertyOf</text>
</g>
<!-- n3 -->
<g id="node3" class="node"><title>n3</title>
<ellipse fill="blue" stroke="black" cx="281.746" cy="-453" rx="39.7935" ry="18"/>
<text text-anchor="middle" x="281.746" y="-449.3" font-family="Times New Roman,serif" font-size="14.00" fill="white">satisfies</text>
</g>
<!-- n4 -->
<g id="node4" class="node"><title>n4</title>
<g id="a_node4"><a xlink:href="file:///C:/Users/200001866/Documents/GitHub/RACK/RACK-Ontology/Graphs/PROV-S.owl.svg" xlink:title="provs:wasImpactedBy">
<polygon fill="none" stroke="#00cd00" points="597.538,-358.544 597.538,-373.456 539.081,-384 456.41,-384 397.954,-373.456 397.954,-358.544 456.41,-348 539.081,-348 597.538,-358.544"/>
<text text-anchor="middle" x="497.746" y="-362.3" font-family="Times New Roman,serif" font-size="14.00">provs:wasImpactedBy</text>
</a>
</g>
</g>
<!-- n3&#45;&gt;n4 -->
<g id="edge2" class="edge"><title>n3&#45;&gt;n4</title>
<path fill="none" stroke="#00cd00" d="M286.997,-435.024C291.324,-423.906 298.589,-410.002 309.746,-402 324.945,-391.099 363.188,-383.013 401.243,-377.376"/>
<polygon fill="#00cd00" stroke="#00cd00" points="402.018,-380.801 411.424,-375.924 401.03,-373.871 402.018,-380.801"/>
<text text-anchor="middle" x="352.246" y="-405.8" font-family="Times New Roman,serif" font-size="14.00">subPropertyOf</text>
</g>
<!-- n5 -->
<g id="node5" class="node"><title>n5</title>
<g id="a_node5"><a xlink:href="file:///C:/Users/200001866/Documents/GitHub/RACK/RACK-Ontology/Graphs/PROV-S.owl.svg" xlink:title="provs:ENTITY">
<polygon fill="#00008b" stroke="black" points="959.746,-210 857.746,-210 857.746,-174 959.746,-174 959.746,-210"/>
<text text-anchor="middle" x="908.746" y="-188.3" font-family="Times New Roman,serif" font-size="14.00" fill="white">provs:ENTITY</text>
</a>
</g>
</g>
<!-- n6 -->
<g id="node6" class="node"><title>n6</title>
<polygon fill="#00008b" stroke="black" points="862.746,-123 746.746,-123 746.746,-87 862.746,-87 862.746,-123"/>
<text text-anchor="middle" x="804.746" y="-101.3" font-family="Times New Roman,serif" font-size="14.00" fill="white">REQUIREMENT</text>
</g>
<!-- n5&#45;&gt;n6 -->
<g id="edge3" class="edge"><title>n5&#45;&gt;n6</title>
<path fill="none" stroke="blue" stroke-dasharray="5,2" d="M857.528,-189.979C800.986,-187.641 715.223,-180.098 694.746,-156 677.388,-135.573 704.765,-123.081 736.542,-115.692"/>
<polygon fill="blue" stroke="blue" points="737.455,-119.076 746.501,-113.559 735.99,-112.231 737.455,-119.076"/>
<text text-anchor="middle" x="720.746" y="-144.8" font-family="Times New Roman,serif" font-size="14.00">subClass</text>
</g>
<!-- n13 -->
<g id="node13" class="node"><title>n13</title>
<polygon fill="#00008b" stroke="black" points="1149.75,-123 953.746,-123 953.746,-87 1149.75,-87 1149.75,-123"/>
<text text-anchor="middle" x="1051.75" y="-101.3" font-family="Times New Roman,serif" font-size="14.00" fill="white">DATA_DICTIONARY_TERM</text>
</g>
<!-- n5&#45;&gt;n13 -->
<g id="edge9" class="edge"><title>n5&#45;&gt;n13</title>
<path fill="none" stroke="blue" stroke-dasharray="5,2" d="M930.104,-173.939C943.391,-163.733 961.068,-150.871 977.746,-141 985.739,-136.269 994.475,-131.672 1003.05,-127.449"/>
<polygon fill="blue" stroke="blue" points="1004.76,-130.513 1012.25,-123.026 1001.73,-124.204 1004.76,-130.513"/>
<text text-anchor="middle" x="1003.75" y="-144.8" font-family="Times New Roman,serif" font-size="14.00">subClass</text>
</g>
<!-- n6&#45;&gt;n5 -->
<g id="edge13" class="edge"><title>n6&#45;&gt;n5</title>
<path fill="none" stroke="#00cd00" d="M780.739,-123.208C770.022,-132.998 761.473,-145.386 769.746,-156 779.624,-168.674 814.908,-177.467 847.452,-183.07"/>
<polygon fill="#00cd00" stroke="#00cd00" points="846.998,-186.543 857.432,-184.708 848.131,-179.635 846.998,-186.543"/>
<text text-anchor="middle" x="794.246" y="-144.8" font-family="Times New Roman,serif" font-size="14.00">mitigates</text>
</g>
<!-- n6&#45;&gt;n5 -->
<g id="edge21" class="edge"><title>n6&#45;&gt;n5</title>
<path fill="none" stroke="#00cd00" d="M814.754,-123.307C821.414,-133.731 830.913,-146.735 841.746,-156 847.299,-160.75 853.607,-165.09 860.079,-168.973"/>
<polygon fill="#00cd00" stroke="#00cd00" points="858.52,-172.112 868.949,-173.981 861.961,-166.017 858.52,-172.112"/>
<text text-anchor="middle" x="864.246" y="-144.8" font-family="Times New Roman,serif" font-size="14.00">satisfies</text>
</g>
<!-- n6&#45;&gt;n5 -->
<g id="edge24" class="edge"><title>n6&#45;&gt;n5</title>
<path fill="none" stroke="#00cd00" d="M860.778,-123.138C870.241,-127.835 879.372,-133.708 886.746,-141 893.24,-147.423 897.962,-156.09 901.325,-164.404"/>
<polygon fill="#00cd00" stroke="#00cd00" points="898.033,-165.591 904.675,-173.845 904.63,-163.25 898.033,-165.591"/>
<text text-anchor="middle" x="920.246" y="-144.8" font-family="Times New Roman,serif" font-size="14.00">governs</text>
</g>
<!-- n21 -->
<g id="node21" class="node"><title>n21</title>
<g id="a_node21"><a xlink:href="file:///C:/Users/200001866/Documents/GitHub/RACK/RACK-Ontology/Graphs/XMLSchema.svg" xlink:title="xsd:string">
<polygon fill="#00008b" stroke="black" points="840.246,-36 769.246,-36 769.246,-0 840.246,-0 840.246,-36"/>
<text text-anchor="middle" x="804.746" y="-14.3" font-family="Times New Roman,serif" font-size="14.00" fill="white">xsd:string</text>
</a>
</g>
</g>
<!-- n6&#45;&gt;n21 -->
<g id="edge20" class="edge"><title>n6&#45;&gt;n21</title>
<path fill="none" stroke="#00cd00" d="M752.326,-86.8518C744.94,-82.2051 738.318,-76.352 733.746,-69 723.916,-53.1959 740.077,-41.007 759.448,-32.6218"/>
<polygon fill="#00cd00" stroke="#00cd00" points="760.788,-35.8554 768.802,-28.9248 758.216,-29.3454 760.788,-35.8554"/>
<text text-anchor="middle" x="758.246" y="-57.8" font-family="Times New Roman,serif" font-size="14.00">thenText</text>
</g>
<!-- n6&#45;&gt;n21 -->
<g id="edge22" class="edge"><title>n6&#45;&gt;n21</title>
<path fill="none" stroke="#00cd00" d="M804.746,-86.799C804.746,-75.1626 804.746,-59.5479 804.746,-46.2368"/>
<polygon fill="#00cd00" stroke="#00cd00" points="808.246,-46.1754 804.746,-36.1754 801.246,-46.1755 808.246,-46.1754"/>
<text text-anchor="middle" x="821.746" y="-57.8" font-family="Times New Roman,serif" font-size="14.00">ifText</text>
</g>
<!-- n6&#45;&gt;n21 -->
<g id="edge23" class="edge"><title>n6&#45;&gt;n21</title>
<path fill="none" stroke="#00cd00" d="M828.004,-86.6055C837.225,-77.4678 844.612,-65.7473 839.746,-54 838.278,-50.4571 836.259,-47.0859 833.924,-43.9342"/>
<polygon fill="#00cd00" stroke="#00cd00" points="836.365,-41.4054 827.173,-36.1367 831.073,-45.9876 836.365,-41.4054"/>
<text text-anchor="middle" x="869.246" y="-57.8" font-family="Times New Roman,serif" font-size="14.00">givenText</text>
</g>
<!-- n7 -->
<g id="node7" class="node"><title>n7</title>
<ellipse fill="blue" stroke="black" cx="389.746" cy="-453" rx="39.7935" ry="18"/>
<text text-anchor="middle" x="389.746" y="-449.3" font-family="Times New Roman,serif" font-size="14.00" fill="white">governs</text>
</g>
<!-- n7&#45;&gt;n4 -->
<g id="edge4" class="edge"><title>n7&#45;&gt;n4</title>
<path fill="none" stroke="#00cd00" d="M392.233,-434.788C394.588,-424.136 399.115,-410.852 407.746,-402 414.347,-395.229 422.409,-389.743 430.967,-385.304"/>
<polygon fill="#00cd00" stroke="#00cd00" points="432.463,-388.468 440.024,-381.047 429.485,-382.133 432.463,-388.468"/>
<text text-anchor="middle" x="450.246" y="-405.8" font-family="Times New Roman,serif" font-size="14.00">subPropertyOf</text>
</g>
<!-- n8 -->
<g id="node8" class="node"><title>n8</title>
<ellipse fill="blue" stroke="black" cx="494.746" cy="-453" rx="42.4939" ry="18"/>
<text text-anchor="middle" x="494.746" y="-449.3" font-family="Times New Roman,serif" font-size="14.00" fill="white">mitigates</text>
</g>
<!-- n8&#45;&gt;n4 -->
<g id="edge5" class="edge"><title>n8&#45;&gt;n4</title>
<path fill="none" stroke="#00cd00" d="M495.353,-434.799C495.763,-423.163 496.315,-407.548 496.784,-394.237"/>
<polygon fill="#00cd00" stroke="#00cd00" points="500.284,-394.293 497.139,-384.175 493.289,-394.046 500.284,-394.293"/>
<text text-anchor="middle" x="539.246" y="-405.8" font-family="Times New Roman,serif" font-size="14.00">subPropertyOf</text>
</g>
<!-- n9 -->
<g id="node9" class="node"><title>n9</title>
<g id="a_node9"><a xlink:href="file:///C:/Users/200001866/Documents/GitHub/RACK/RACK-Ontology/Graphs/PROV-S.owl.svg" xlink:title="provs:ACTIVITY">
<polygon fill="#00008b" stroke="black" points="1031.75,-384 913.746,-384 913.746,-348 1031.75,-348 1031.75,-384"/>
<text text-anchor="middle" x="972.746" y="-362.3" font-family="Times New Roman,serif" font-size="14.00" fill="white">provs:ACTIVITY</text>
</a>
</g>
</g>
<!-- n10 -->
<g id="node10" class="node"><title>n10</title>
<polygon fill="#00008b" stroke="black" points="1085.75,-297 859.746,-297 859.746,-261 1085.75,-261 1085.75,-297"/>
<text text-anchor="middle" x="972.746" y="-275.3" font-family="Times New Roman,serif" font-size="14.00" fill="white">REQUIREMENT_DEVELOPMENT</text>
</g>
<!-- n9&#45;&gt;n10 -->
<g id="edge6" class="edge"><title>n9&#45;&gt;n10</title>
<path fill="none" stroke="blue" stroke-dasharray="5,2" d="M972.746,-347.799C972.746,-336.163 972.746,-320.548 972.746,-307.237"/>
<polygon fill="blue" stroke="blue" points="976.246,-307.175 972.746,-297.175 969.246,-307.175 976.246,-307.175"/>
<text text-anchor="middle" x="998.746" y="-318.8" font-family="Times New Roman,serif" font-size="14.00">subClass</text>
</g>
<!-- n10&#45;&gt;n5 -->
<g id="edge16" class="edge"><title>n10&#45;&gt;n5</title>
<path fill="none" stroke="#00cd00" d="M902.617,-260.972C894.817,-256.349 887.857,-250.472 882.746,-243 877.553,-235.409 879.679,-226.651 884.45,-218.607"/>
<polygon fill="#00cd00" stroke="#00cd00" points="887.461,-220.414 890.443,-210.248 881.772,-216.336 887.461,-220.414"/>
<text text-anchor="middle" x="916.746" y="-231.8" font-family="Times New Roman,serif" font-size="14.00">governedBy</text>
</g>
<!-- n10&#45;&gt;n5 -->
<g id="edge18" class="edge"><title>n10&#45;&gt;n5</title>
<path fill="none" stroke="#00cd00" d="M967.392,-260.744C963.718,-250.59 958.161,-237.85 950.746,-228 947.831,-224.128 944.408,-220.408 940.795,-216.934"/>
<polygon fill="#00cd00" stroke="#00cd00" points="943.009,-214.219 933.216,-210.177 938.351,-219.444 943.009,-214.219"/>
<text text-anchor="middle" x="989.246" y="-231.8" font-family="Times New Roman,serif" font-size="14.00">referenced</text>
</g>
<!-- n19 -->
<g id="node19" class="node"><title>n19</title>
<g id="a_node19"><a xlink:href="file:///C:/Users/200001866/Documents/GitHub/RACK/RACK-Ontology/Graphs/PROV-S.owl.svg" xlink:title="provs:AGENT">
<polygon fill="#00008b" stroke="black" points="1104.25,-210 1005.25,-210 1005.25,-174 1104.25,-174 1104.25,-210"/>
<text text-anchor="middle" x="1054.75" y="-188.3" font-family="Times New Roman,serif" font-size="14.00" fill="white">provs:AGENT</text>
</a>
</g>
</g>
<!-- n10&#45;&gt;n19 -->
<g id="edge15" class="edge"><title>n10&#45;&gt;n19</title>
<path fill="none" stroke="#00cd00" d="M1001.26,-260.895C1008.72,-255.683 1016.44,-249.576 1022.75,-243 1029.48,-235.976 1035.61,-227.328 1040.65,-219.212"/>
<polygon fill="#00cd00" stroke="#00cd00" points="1043.79,-220.778 1045.86,-210.388 1037.76,-217.219 1043.79,-220.778"/>
<text text-anchor="middle" x="1052.75" y="-231.8" font-family="Times New Roman,serif" font-size="14.00">author</text>
</g>
<!-- n11 -->
<g id="node11" class="node"><title>n11</title>
<ellipse fill="blue" stroke="black" cx="608.746" cy="-453" rx="53.8905" ry="18"/>
<text text-anchor="middle" x="608.746" y="-449.3" font-family="Times New Roman,serif" font-size="14.00" fill="white">providedBy</text>
</g>
<!-- n11&#45;&gt;n4 -->
<g id="edge7" class="edge"><title>n11&#45;&gt;n4</title>
<path fill="none" stroke="#00cd00" d="M604.382,-434.761C600.9,-424.099 595.034,-410.812 585.746,-402 579.001,-395.601 570.942,-390.321 562.479,-385.978"/>
<polygon fill="#00cd00" stroke="#00cd00" points="563.721,-382.695 553.18,-381.625 560.753,-389.035 563.721,-382.695"/>
<text text-anchor="middle" x="639.246" y="-405.8" font-family="Times New Roman,serif" font-size="14.00">subPropertyOf</text>
</g>
<!-- n12 -->
<g id="node12" class="node"><title>n12</title>
<ellipse fill="blue" stroke="black" cx="169.746" cy="-453" rx="54.6905" ry="18"/>
<text text-anchor="middle" x="169.746" y="-449.3" font-family="Times New Roman,serif" font-size="14.00" fill="white">governedBy</text>
</g>
<!-- n12&#45;&gt;n2 -->
<g id="edge8" class="edge"><title>n12&#45;&gt;n2</title>
<path fill="none" stroke="#00cd00" d="M164.26,-434.842C160.539,-424.722 154.979,-411.984 147.746,-402 145.03,-398.252 141.854,-394.611 138.507,-391.183"/>
<polygon fill="#00cd00" stroke="#00cd00" points="140.678,-388.417 131.02,-384.06 135.852,-393.489 140.678,-388.417"/>
<text text-anchor="middle" x="199.246" y="-405.8" font-family="Times New Roman,serif" font-size="14.00">subPropertyOf</text>
</g>
<!-- n13&#45;&gt;n5 -->
<g id="edge14" class="edge"><title>n13&#45;&gt;n5</title>
<path fill="none" stroke="#00cd00" d="M1048.17,-123.06C1045.05,-133.925 1039.45,-147.506 1029.75,-156 1020.3,-164.264 995.008,-172.153 969.973,-178.342"/>
<polygon fill="#00cd00" stroke="#00cd00" points="968.966,-174.984 960.054,-180.713 970.594,-181.792 968.966,-174.984"/>
<text text-anchor="middle" x="1077.75" y="-144.8" font-family="Times New Roman,serif" font-size="14.00">consumedBy</text>
</g>
<!-- n13&#45;&gt;n5 -->
<g id="edge19" class="edge"><title>n13&#45;&gt;n5</title>
<path fill="none" stroke="#00cd00" d="M1099.82,-123.077C1117.03,-131.802 1129.76,-143.262 1118.75,-156 1100.68,-176.9 1022.98,-169.35 995.746,-174 987.459,-175.415 978.747,-177 970.17,-178.619"/>
<polygon fill="#00cd00" stroke="#00cd00" points="969.36,-175.21 960.195,-180.525 970.675,-182.085 969.36,-175.21"/>
<text text-anchor="middle" x="1157.25" y="-144.8" font-family="Times New Roman,serif" font-size="14.00">providedBy</text>
</g>
<!-- n14 -->
<g id="node14" class="node"><title>n14</title>
<ellipse fill="blue" stroke="black" cx="1195.75" cy="-453" rx="47.3916" ry="18"/>
<text text-anchor="middle" x="1195.75" y="-449.3" font-family="Times New Roman,serif" font-size="14.00" fill="white">createdBy</text>
</g>
<!-- n15 -->
<g id="node15" class="node"><title>n15</title>
<g id="a_node15"><a xlink:href="file:///C:/Users/200001866/Documents/GitHub/RACK/RACK-Ontology/Graphs/PROV-S.owl.svg" xlink:title="provs:wasGeneratedBy">
<polygon fill="none" stroke="#00cd00" points="1298.67,-358.544 1298.67,-373.456 1238.38,-384 1153.11,-384 1092.83,-373.456 1092.83,-358.544 1153.11,-348 1238.38,-348 1298.67,-358.544"/>
<text text-anchor="middle" x="1195.75" y="-362.3" font-family="Times New Roman,serif" font-size="14.00">provs:wasGeneratedBy</text>
</a>
</g>
</g>
<!-- n14&#45;&gt;n15 -->
<g id="edge10" class="edge"><title>n14&#45;&gt;n15</title>
<path fill="none" stroke="#00cd00" d="M1195.75,-434.799C1195.75,-423.163 1195.75,-407.548 1195.75,-394.237"/>
<polygon fill="#00cd00" stroke="#00cd00" points="1199.25,-394.175 1195.75,-384.175 1192.25,-394.175 1199.25,-394.175"/>
<text text-anchor="middle" x="1238.25" y="-405.8" font-family="Times New Roman,serif" font-size="14.00">subPropertyOf</text>
</g>
<!-- n16 -->
<g id="node16" class="node"><title>n16</title>
<ellipse fill="blue" stroke="black" cx="1430.75" cy="-453" rx="33.5952" ry="18"/>
<text text-anchor="middle" x="1430.75" y="-449.3" font-family="Times New Roman,serif" font-size="14.00" fill="white">author</text>
</g>
<!-- n17 -->
<g id="node17" class="node"><title>n17</title>
<g id="a_node17"><a xlink:href="file:///C:/Users/200001866/Documents/GitHub/RACK/RACK-Ontology/Graphs/PROV-S.owl.svg" xlink:title="provs:wasAssociatedWith">
<polygon fill="none" stroke="#00cd00" points="1545.58,-358.544 1545.58,-373.456 1478.31,-384 1383.18,-384 1315.91,-373.456 1315.91,-358.544 1383.18,-348 1478.31,-348 1545.58,-358.544"/>
<text text-anchor="middle" x="1430.75" y="-362.3" font-family="Times New Roman,serif" font-size="14.00">provs:wasAssociatedWith</text>
</a>
</g>
</g>
<!-- n16&#45;&gt;n17 -->
<g id="edge11" class="edge"><title>n16&#45;&gt;n17</title>
<path fill="none" stroke="#00cd00" d="M1430.75,-434.799C1430.75,-423.163 1430.75,-407.548 1430.75,-394.237"/>
<polygon fill="#00cd00" stroke="#00cd00" points="1434.25,-394.175 1430.75,-384.175 1427.25,-394.175 1434.25,-394.175"/>
<text text-anchor="middle" x="1473.25" y="-405.8" font-family="Times New Roman,serif" font-size="14.00">subPropertyOf</text>
</g>
<!-- n18 -->
<g id="node18" class="node"><title>n18</title>
<ellipse fill="blue" stroke="black" cx="738.746" cy="-453" rx="58.4896" ry="18"/>
<text text-anchor="middle" x="738.746" y="-449.3" font-family="Times New Roman,serif" font-size="14.00" fill="white">consumedBy</text>
</g>
<!-- n18&#45;&gt;n4 -->
<g id="edge12" class="edge"><title>n18&#45;&gt;n4</title>
<path fill="none" stroke="#00cd00" d="M725.686,-435.447C715.904,-424.225 701.534,-410.023 685.746,-402 660.704,-389.274 631.679,-381.137 604.039,-375.945"/>
<polygon fill="#00cd00" stroke="#00cd00" points="604.384,-372.452 593.929,-374.163 603.169,-379.346 604.384,-372.452"/>
<text text-anchor="middle" x="750.246" y="-405.8" font-family="Times New Roman,serif" font-size="14.00">subPropertyOf</text>
</g>
<!-- n20 -->
<g id="node20" class="node"><title>n20</title>
<polygon fill="#00008b" stroke="black" points="1130.25,-471 815.246,-471 815.246,-435 1130.25,-435 1130.25,-471"/>
<text text-anchor="middle" x="972.746" y="-449.3" font-family="Times New Roman,serif" font-size="14.00" fill="white">REQUIREMENT or DATA_DICTIONARY_TERM</text>
</g>
<!-- n20&#45;&gt;n9 -->
<g id="edge17" class="edge"><title>n20&#45;&gt;n9</title>
<path fill="none" stroke="#00cd00" d="M972.746,-434.799C972.746,-423.163 972.746,-407.548 972.746,-394.237"/>
<polygon fill="#00cd00" stroke="#00cd00" points="976.246,-394.175 972.746,-384.175 969.246,-394.175 976.246,-394.175"/>
<text text-anchor="middle" x="1001.25" y="-405.8" font-family="Times New Roman,serif" font-size="14.00">createdBy</text>
</g>
</g>
</svg>
