<?xml version="1.0" encoding="UTF-8" standalone="no"?>
<!DOCTYPE svg PUBLIC "-//W3C//DTD SVG 1.1//EN"
 "http://www.w3.org/Graphics/SVG/1.1/DTD/svg11.dtd">
<!-- Generated by graphviz version 2.38.0 (20140413.2041)
 -->
<!-- Title: gRq Pages: 1 -->
<svg width="1553pt" height="415pt"
 viewBox="0.00 0.00 1553.41 415.00" xmlns="http://www.w3.org/2000/svg" xmlns:xlink="http://www.w3.org/1999/xlink">
<g id="graph0" class="graph" transform="scale(1 1) rotate(0) translate(4 411)">
<title>gRq</title>
<polygon fill="white" stroke="none" points="-4,4 -4,-411 1549.41,-411 1549.41,4 -4,4"/>
<text text-anchor="middle" x="86" y="-391.8" font-family="Times New Roman,serif" font-size="14.00">Graph of Ontology File: Rq</text>
<!-- n1 -->
<g id="node1" class="node"><title>n1</title>
<ellipse fill="blue" stroke="black" cx="48.7457" cy="-366" rx="48.9926" ry="18"/>
<text text-anchor="middle" x="48.7457" y="-362.3" font-family="Times New Roman,serif" font-size="14.00" fill="white">referenced</text>
</g>
<!-- n2 -->
<g id="node2" class="node"><title>n2</title>
<g id="a_node2"><a xlink:href="file:///C:/sadl/git/RACK/RACK-Ontology/Graphs/PROV-S.owl.svg" xlink:title="provs:used">
<polygon fill="none" stroke="#00cd00" points="163.491,-271.544 163.491,-286.456 131.422,-297 86.0695,-297 54.0005,-286.456 54.0005,-271.544 86.0695,-261 131.422,-261 163.491,-271.544"/>
<text text-anchor="middle" x="108.746" y="-275.3" font-family="Times New Roman,serif" font-size="14.00">provs:used</text>
</a>
</g>
</g>
<!-- n1&#45;&gt;n2 -->
<g id="edge1" class="edge"><title>n1&#45;&gt;n2</title>
<path fill="none" stroke="#00cd00" d="M50.7961,-347.631C52.6535,-337.436 56.1608,-324.694 62.7457,-315 65.847,-310.434 69.739,-306.215 73.9387,-302.404"/>
<polygon fill="#00cd00" stroke="#00cd00" points="76.2267,-305.054 81.7264,-295.998 71.7799,-299.648 76.2267,-305.054"/>
<text text-anchor="middle" x="105.246" y="-318.8" font-family="Times New Roman,serif" font-size="14.00">subPropertyOf</text>
</g>
<!-- n3 -->
<g id="node3" class="node"><title>n3</title>
<ellipse fill="blue" stroke="black" cx="281.746" cy="-366" rx="39.7935" ry="18"/>
<text text-anchor="middle" x="281.746" y="-362.3" font-family="Times New Roman,serif" font-size="14.00" fill="white">satisfies</text>
</g>
<!-- n4 -->
<g id="node4" class="node"><title>n4</title>
<g id="a_node4"><a xlink:href="file:///C:/sadl/git/RACK/RACK-Ontology/Graphs/PROV-S.owl.svg" xlink:title="provs:wasDerivedFrom">
<polygon fill="none" stroke="#00cd00" points="601.98,-271.544 601.98,-286.456 540.921,-297 454.571,-297 393.512,-286.456 393.512,-271.544 454.571,-261 540.921,-261 601.98,-271.544"/>
<text text-anchor="middle" x="497.746" y="-275.3" font-family="Times New Roman,serif" font-size="14.00">provs:wasDerivedFrom</text>
</a>
</g>
</g>
<!-- n3&#45;&gt;n4 -->
<g id="edge2" class="edge"><title>n3&#45;&gt;n4</title>
<path fill="none" stroke="#00cd00" d="M286.997,-348.024C291.324,-336.906 298.589,-323.002 309.746,-315 324.698,-304.276 361.947,-296.277 399.383,-290.654"/>
<polygon fill="#00cd00" stroke="#00cd00" points="400.012,-294.099 409.407,-289.203 399.009,-287.172 400.012,-294.099"/>
<text text-anchor="middle" x="352.246" y="-318.8" font-family="Times New Roman,serif" font-size="14.00">subPropertyOf</text>
</g>
<!-- n5 -->
<g id="node5" class="node"><title>n5</title>
<g id="a_node5"><a xlink:href="file:///C:/sadl/git/RACK/RACK-Ontology/Graphs/PROV-S.owl.svg" xlink:title="provs:ENTITY">
<polygon fill="#00008b" stroke="black" points="879.746,-123 777.746,-123 777.746,-87 879.746,-87 879.746,-123"/>
<text text-anchor="middle" x="828.746" y="-101.3" font-family="Times New Roman,serif" font-size="14.00" fill="white">provs:ENTITY</text>
</a>
</g>
</g>
<!-- n6 -->
<g id="node6" class="node"><title>n6</title>
<polygon fill="#00008b" stroke="black" points="782.746,-36 666.746,-36 666.746,-0 782.746,-0 782.746,-36"/>
<text text-anchor="middle" x="724.746" y="-14.3" font-family="Times New Roman,serif" font-size="14.00" fill="white">REQUIREMENT</text>
</g>
<!-- n5&#45;&gt;n6 -->
<g id="edge3" class="edge"><title>n5&#45;&gt;n6</title>
<path fill="none" stroke="blue" stroke-dasharray="5,2" d="M777.528,-102.979C720.986,-100.641 635.223,-93.0979 614.746,-69 597.388,-48.5733 624.765,-36.0811 656.542,-28.6917"/>
<polygon fill="blue" stroke="blue" points="657.455,-32.0755 666.501,-26.5591 655.99,-25.2307 657.455,-32.0755"/>
<text text-anchor="middle" x="640.746" y="-57.8" font-family="Times New Roman,serif" font-size="14.00">subClass</text>
</g>
<!-- n13 -->
<g id="node13" class="node"><title>n13</title>
<polygon fill="#00008b" stroke="black" points="1069.75,-36 873.746,-36 873.746,-0 1069.75,-0 1069.75,-36"/>
<text text-anchor="middle" x="971.746" y="-14.3" font-family="Times New Roman,serif" font-size="14.00" fill="white">DATA_DICTIONARY_TERM</text>
</g>
<!-- n5&#45;&gt;n13 -->
<g id="edge9" class="edge"><title>n5&#45;&gt;n13</title>
<path fill="none" stroke="blue" stroke-dasharray="5,2" d="M850.104,-86.9391C863.391,-76.7325 881.068,-63.8711 897.746,-54 905.739,-49.2688 914.475,-44.672 923.052,-40.4494"/>
<polygon fill="blue" stroke="blue" points="924.758,-43.5126 932.255,-36.0257 921.726,-37.2036 924.758,-43.5126"/>
<text text-anchor="middle" x="923.746" y="-57.8" font-family="Times New Roman,serif" font-size="14.00">subClass</text>
</g>
<!-- n6&#45;&gt;n5 -->
<g id="edge13" class="edge"><title>n6&#45;&gt;n5</title>
<path fill="none" stroke="#00cd00" d="M700.739,-36.2078C690.022,-45.9978 681.473,-58.3862 689.746,-69 699.624,-81.6736 734.908,-90.4673 767.452,-96.0705"/>
<polygon fill="#00cd00" stroke="#00cd00" points="766.998,-99.5427 777.432,-97.7077 768.131,-92.635 766.998,-99.5427"/>
<text text-anchor="middle" x="714.246" y="-57.8" font-family="Times New Roman,serif" font-size="14.00">mitigates</text>
</g>
<!-- n6&#45;&gt;n5 -->
<g id="edge21" class="edge"><title>n6&#45;&gt;n5</title>
<path fill="none" stroke="#00cd00" d="M734.754,-36.3072C741.414,-46.7309 750.913,-59.7348 761.746,-69 767.299,-73.7501 773.607,-78.0899 780.079,-81.9729"/>
<polygon fill="#00cd00" stroke="#00cd00" points="778.52,-85.1122 788.949,-86.9807 781.961,-79.0165 778.52,-85.1122"/>
<text text-anchor="middle" x="784.246" y="-57.8" font-family="Times New Roman,serif" font-size="14.00">satisfies</text>
</g>
<!-- n6&#45;&gt;n5 -->
<g id="edge22" class="edge"><title>n6&#45;&gt;n5</title>
<path fill="none" stroke="#00cd00" d="M780.778,-36.1383C790.241,-40.8349 799.372,-46.7076 806.746,-54 813.24,-60.4228 817.962,-69.0899 821.325,-77.4035"/>
<polygon fill="#00cd00" stroke="#00cd00" points="818.033,-78.5907 824.675,-86.845 824.63,-76.2502 818.033,-78.5907"/>
<text text-anchor="middle" x="840.246" y="-57.8" font-family="Times New Roman,serif" font-size="14.00">governs</text>
</g>
<!-- n7 -->
<g id="node7" class="node"><title>n7</title>
<ellipse fill="blue" stroke="black" cx="389.746" cy="-366" rx="39.7935" ry="18"/>
<text text-anchor="middle" x="389.746" y="-362.3" font-family="Times New Roman,serif" font-size="14.00" fill="white">governs</text>
</g>
<!-- n7&#45;&gt;n4 -->
<g id="edge4" class="edge"><title>n7&#45;&gt;n4</title>
<path fill="none" stroke="#00cd00" d="M392.233,-347.788C394.588,-337.136 399.115,-323.852 407.746,-315 414.106,-308.477 421.821,-303.146 430.03,-298.795"/>
<polygon fill="#00cd00" stroke="#00cd00" points="431.588,-301.929 439.091,-294.448 428.56,-295.618 431.588,-301.929"/>
<text text-anchor="middle" x="450.246" y="-318.8" font-family="Times New Roman,serif" font-size="14.00">subPropertyOf</text>
</g>
<!-- n8 -->
<g id="node8" class="node"><title>n8</title>
<ellipse fill="blue" stroke="black" cx="494.746" cy="-366" rx="42.4939" ry="18"/>
<text text-anchor="middle" x="494.746" y="-362.3" font-family="Times New Roman,serif" font-size="14.00" fill="white">mitigates</text>
</g>
<!-- n8&#45;&gt;n4 -->
<g id="edge5" class="edge"><title>n8&#45;&gt;n4</title>
<path fill="none" stroke="#00cd00" d="M495.353,-347.799C495.763,-336.163 496.315,-320.548 496.784,-307.237"/>
<polygon fill="#00cd00" stroke="#00cd00" points="500.284,-307.293 497.139,-297.175 493.289,-307.046 500.284,-307.293"/>
<text text-anchor="middle" x="539.246" y="-318.8" font-family="Times New Roman,serif" font-size="14.00">subPropertyOf</text>
</g>
<!-- n9 -->
<g id="node9" class="node"><title>n9</title>
<g id="a_node9"><a xlink:href="file:///C:/sadl/git/RACK/RACK-Ontology/Graphs/PROV-S.owl.svg" xlink:title="provs:ACTIVITY">
<polygon fill="#00008b" stroke="black" points="951.746,-297 833.746,-297 833.746,-261 951.746,-261 951.746,-297"/>
<text text-anchor="middle" x="892.746" y="-275.3" font-family="Times New Roman,serif" font-size="14.00" fill="white">provs:ACTIVITY</text>
</a>
</g>
</g>
<!-- n10 -->
<g id="node10" class="node"><title>n10</title>
<polygon fill="#00008b" stroke="black" points="1005.75,-210 779.746,-210 779.746,-174 1005.75,-174 1005.75,-210"/>
<text text-anchor="middle" x="892.746" y="-188.3" font-family="Times New Roman,serif" font-size="14.00" fill="white">REQUIREMENT_DEVELOPMENT</text>
</g>
<!-- n9&#45;&gt;n10 -->
<g id="edge6" class="edge"><title>n9&#45;&gt;n10</title>
<path fill="none" stroke="blue" stroke-dasharray="5,2" d="M892.746,-260.799C892.746,-249.163 892.746,-233.548 892.746,-220.237"/>
<polygon fill="blue" stroke="blue" points="896.246,-220.175 892.746,-210.175 889.246,-220.175 896.246,-220.175"/>
<text text-anchor="middle" x="918.746" y="-231.8" font-family="Times New Roman,serif" font-size="14.00">subClass</text>
</g>
<!-- n10&#45;&gt;n5 -->
<g id="edge16" class="edge"><title>n10&#45;&gt;n5</title>
<path fill="none" stroke="#00cd00" d="M822.617,-173.972C814.817,-169.349 807.857,-163.472 802.746,-156 797.553,-148.409 799.679,-139.651 804.45,-131.607"/>
<polygon fill="#00cd00" stroke="#00cd00" points="807.461,-133.414 810.443,-123.248 801.772,-129.336 807.461,-133.414"/>
<text text-anchor="middle" x="836.746" y="-144.8" font-family="Times New Roman,serif" font-size="14.00">governedBy</text>
</g>
<!-- n10&#45;&gt;n5 -->
<g id="edge19" class="edge"><title>n10&#45;&gt;n5</title>
<path fill="none" stroke="#00cd00" d="M887.392,-173.744C883.718,-163.59 878.161,-150.85 870.746,-141 867.831,-137.128 864.408,-133.408 860.795,-129.934"/>
<polygon fill="#00cd00" stroke="#00cd00" points="863.009,-127.219 853.216,-123.177 858.351,-132.444 863.009,-127.219"/>
<text text-anchor="middle" x="909.246" y="-144.8" font-family="Times New Roman,serif" font-size="14.00">referenced</text>
</g>
<!-- n19 -->
<g id="node19" class="node"><title>n19</title>
<g id="a_node19"><a xlink:href="file:///C:/sadl/git/RACK/RACK-Ontology/Graphs/PROV-S.owl.svg" xlink:title="provs:AGENT">
<polygon fill="#00008b" stroke="black" points="1024.25,-123 925.246,-123 925.246,-87 1024.25,-87 1024.25,-123"/>
<text text-anchor="middle" x="974.746" y="-101.3" font-family="Times New Roman,serif" font-size="14.00" fill="white">provs:AGENT</text>
</a>
</g>
</g>
<!-- n10&#45;&gt;n19 -->
<g id="edge15" class="edge"><title>n10&#45;&gt;n19</title>
<path fill="none" stroke="#00cd00" d="M921.263,-173.895C928.724,-168.683 936.437,-162.576 942.746,-156 949.485,-148.976 955.607,-140.328 960.651,-132.212"/>
<polygon fill="#00cd00" stroke="#00cd00" points="963.79,-133.778 965.862,-123.388 957.763,-130.219 963.79,-133.778"/>
<text text-anchor="middle" x="972.746" y="-144.8" font-family="Times New Roman,serif" font-size="14.00">author</text>
</g>
<!-- n11 -->
<g id="node11" class="node"><title>n11</title>
<ellipse fill="blue" stroke="black" cx="608.746" cy="-366" rx="53.8905" ry="18"/>
<text text-anchor="middle" x="608.746" y="-362.3" font-family="Times New Roman,serif" font-size="14.00" fill="white">providedBy</text>
</g>
<!-- n11&#45;&gt;n4 -->
<g id="edge7" class="edge"><title>n11&#45;&gt;n4</title>
<path fill="none" stroke="#00cd00" d="M604.382,-347.761C600.9,-337.099 595.034,-323.812 585.746,-315 579.088,-308.684 571.151,-303.458 562.809,-299.148"/>
<polygon fill="#00cd00" stroke="#00cd00" points="564.176,-295.923 553.638,-294.822 561.189,-302.254 564.176,-295.923"/>
<text text-anchor="middle" x="639.246" y="-318.8" font-family="Times New Roman,serif" font-size="14.00">subPropertyOf</text>
</g>
<!-- n12 -->
<g id="node12" class="node"><title>n12</title>
<ellipse fill="blue" stroke="black" cx="169.746" cy="-366" rx="54.6905" ry="18"/>
<text text-anchor="middle" x="169.746" y="-362.3" font-family="Times New Roman,serif" font-size="14.00" fill="white">governedBy</text>
</g>
<!-- n12&#45;&gt;n2 -->
<g id="edge8" class="edge"><title>n12&#45;&gt;n2</title>
<path fill="none" stroke="#00cd00" d="M164.26,-347.842C160.539,-337.722 154.979,-324.984 147.746,-315 145.03,-311.252 141.854,-307.611 138.507,-304.183"/>
<polygon fill="#00cd00" stroke="#00cd00" points="140.678,-301.417 131.02,-297.06 135.852,-306.489 140.678,-301.417"/>
<text text-anchor="middle" x="199.246" y="-318.8" font-family="Times New Roman,serif" font-size="14.00">subPropertyOf</text>
</g>
<!-- n13&#45;&gt;n5 -->
<g id="edge14" class="edge"><title>n13&#45;&gt;n5</title>
<path fill="none" stroke="#00cd00" d="M968.173,-36.0601C965.054,-46.9253 959.451,-60.5058 949.746,-69 940.303,-77.2642 915.008,-85.1528 889.973,-91.3417"/>
<polygon fill="#00cd00" stroke="#00cd00" points="888.966,-87.9837 880.054,-93.7134 890.594,-94.7918 888.966,-87.9837"/>
<text text-anchor="middle" x="997.746" y="-57.8" font-family="Times New Roman,serif" font-size="14.00">consumedBy</text>
</g>
<!-- n13&#45;&gt;n5 -->
<g id="edge20" class="edge"><title>n13&#45;&gt;n5</title>
<path fill="none" stroke="#00cd00" d="M1019.82,-36.0768C1037.03,-44.802 1049.76,-56.2623 1038.75,-69 1020.68,-89.8999 942.976,-82.3498 915.746,-87 907.459,-88.4151 898.747,-90.0004 890.17,-91.6187"/>
<polygon fill="#00cd00" stroke="#00cd00" points="889.36,-88.21 880.195,-93.5254 890.675,-95.0855 889.36,-88.21"/>
<text text-anchor="middle" x="1077.25" y="-57.8" font-family="Times New Roman,serif" font-size="14.00">providedBy</text>
</g>
<!-- n14 -->
<g id="node14" class="node"><title>n14</title>
<ellipse fill="blue" stroke="black" cx="1195.75" cy="-366" rx="47.3916" ry="18"/>
<text text-anchor="middle" x="1195.75" y="-362.3" font-family="Times New Roman,serif" font-size="14.00" fill="white">createdBy</text>
</g>
<!-- n15 -->
<g id="node15" class="node"><title>n15</title>
<g id="a_node15"><a xlink:href="file:///C:/sadl/git/RACK/RACK-Ontology/Graphs/PROV-S.owl.svg" xlink:title="provs:wasGeneratedBy">
<polygon fill="none" stroke="#00cd00" points="1298.67,-271.544 1298.67,-286.456 1238.38,-297 1153.11,-297 1092.83,-286.456 1092.83,-271.544 1153.11,-261 1238.38,-261 1298.67,-271.544"/>
<text text-anchor="middle" x="1195.75" y="-275.3" font-family="Times New Roman,serif" font-size="14.00">provs:wasGeneratedBy</text>
</a>
</g>
</g>
<!-- n14&#45;&gt;n15 -->
<g id="edge10" class="edge"><title>n14&#45;&gt;n15</title>
<path fill="none" stroke="#00cd00" d="M1195.75,-347.799C1195.75,-336.163 1195.75,-320.548 1195.75,-307.237"/>
<polygon fill="#00cd00" stroke="#00cd00" points="1199.25,-307.175 1195.75,-297.175 1192.25,-307.175 1199.25,-307.175"/>
<text text-anchor="middle" x="1238.25" y="-318.8" font-family="Times New Roman,serif" font-size="14.00">subPropertyOf</text>
</g>
<!-- n16 -->
<g id="node16" class="node"><title>n16</title>
<ellipse fill="blue" stroke="black" cx="1430.75" cy="-366" rx="33.5952" ry="18"/>
<text text-anchor="middle" x="1430.75" y="-362.3" font-family="Times New Roman,serif" font-size="14.00" fill="white">author</text>
</g>
<!-- n17 -->
<g id="node17" class="node"><title>n17</title>
<g id="a_node17"><a xlink:href="file:///C:/sadl/git/RACK/RACK-Ontology/Graphs/PROV-S.owl.svg" xlink:title="provs:wasAssociatedWith">
<polygon fill="none" stroke="#00cd00" points="1545.58,-271.544 1545.58,-286.456 1478.31,-297 1383.18,-297 1315.91,-286.456 1315.91,-271.544 1383.18,-261 1478.31,-261 1545.58,-271.544"/>
<text text-anchor="middle" x="1430.75" y="-275.3" font-family="Times New Roman,serif" font-size="14.00">provs:wasAssociatedWith</text>
</a>
</g>
</g>
<!-- n16&#45;&gt;n17 -->
<g id="edge11" class="edge"><title>n16&#45;&gt;n17</title>
<path fill="none" stroke="#00cd00" d="M1430.75,-347.799C1430.75,-336.163 1430.75,-320.548 1430.75,-307.237"/>
<polygon fill="#00cd00" stroke="#00cd00" points="1434.25,-307.175 1430.75,-297.175 1427.25,-307.175 1434.25,-307.175"/>
<text text-anchor="middle" x="1473.25" y="-318.8" font-family="Times New Roman,serif" font-size="14.00">subPropertyOf</text>
</g>
<!-- n18 -->
<g id="node18" class="node"><title>n18</title>
<ellipse fill="blue" stroke="black" cx="738.746" cy="-366" rx="58.4896" ry="18"/>
<text text-anchor="middle" x="738.746" y="-362.3" font-family="Times New Roman,serif" font-size="14.00" fill="white">consumedBy</text>
</g>
<!-- n18&#45;&gt;n4 -->
<g id="edge12" class="edge"><title>n18&#45;&gt;n4</title>
<path fill="none" stroke="#00cd00" d="M725.686,-348.447C715.904,-337.225 701.534,-323.023 685.746,-315 661.363,-302.609 633.204,-294.568 606.224,-289.361"/>
<polygon fill="#00cd00" stroke="#00cd00" points="606.811,-285.911 596.347,-287.569 605.561,-292.798 606.811,-285.911"/>
<text text-anchor="middle" x="750.246" y="-318.8" font-family="Times New Roman,serif" font-size="14.00">subPropertyOf</text>
</g>
<!-- n20 -->
<g id="node20" class="node"><title>n20</title>
<polygon fill="#00008b" stroke="black" points="1130.25,-384 815.246,-384 815.246,-348 1130.25,-348 1130.25,-384"/>
<text text-anchor="middle" x="972.746" y="-362.3" font-family="Times New Roman,serif" font-size="14.00" fill="white">REQUIREMENT or DATA_DICTIONARY_TERM</text>
</g>
<!-- n20&#45;&gt;n9 -->
<g id="edge17" class="edge"><title>n20&#45;&gt;n9</title>
<path fill="none" stroke="#00cd00" d="M947.165,-347.843C940.156,-342.547 932.822,-336.408 926.746,-330 919.85,-322.727 913.369,-313.925 907.953,-305.746"/>
<polygon fill="#00cd00" stroke="#00cd00" points="910.846,-303.774 902.524,-297.217 904.941,-307.533 910.846,-303.774"/>
<text text-anchor="middle" x="955.246" y="-318.8" font-family="Times New Roman,serif" font-size="14.00">createdBy</text>
</g>
<!-- n21 -->
<g id="node21" class="node"><title>n21</title>
<g id="a_node21"><a xlink:href="file:///C:/sadl/git/RACK/RACK-Ontology/Graphs/XMLSchema.svg" xlink:title="xsd:string">
<polygon fill="#00008b" stroke="black" points="1041.25,-297 970.246,-297 970.246,-261 1041.25,-261 1041.25,-297"/>
<text text-anchor="middle" x="1005.75" y="-275.3" font-family="Times New Roman,serif" font-size="14.00" fill="white">xsd:string</text>
</a>
</g>
</g>
<!-- n20&#45;&gt;n21 -->
<g id="edge18" class="edge"><title>n20&#45;&gt;n21</title>
<path fill="none" stroke="#00cd00" d="M979.424,-347.799C983.986,-336.047 990.124,-320.238 995.325,-306.842"/>
<polygon fill="#00cd00" stroke="#00cd00" points="998.721,-307.764 999.078,-297.175 992.196,-305.231 998.721,-307.764"/>
<text text-anchor="middle" x="1002.25" y="-318.8" font-family="Times New Roman,serif" font-size="14.00">text</text>
</g>
</g>
</svg>
