<?xml version="1.0" encoding="UTF-8" standalone="no"?>
<!DOCTYPE svg PUBLIC "-//W3C//DTD SVG 1.1//EN"
 "http://www.w3.org/Graphics/SVG/1.1/DTD/svg11.dtd">
<!-- Generated by graphviz version 2.38.0 (20140413.2041)
 -->
<!-- Title: gRv Pages: 1 -->
<svg width="1772pt" height="328pt"
 viewBox="0.00 0.00 1772.49 328.00" xmlns="http://www.w3.org/2000/svg" xmlns:xlink="http://www.w3.org/1999/xlink">
<g id="graph0" class="graph" transform="scale(1 1) rotate(0) translate(4 324)">
<title>gRv</title>
<polygon fill="white" stroke="none" points="-4,4 -4,-324 1768.49,-324 1768.49,4 -4,4"/>
<text text-anchor="middle" x="85.5" y="-304.8" font-family="Times New Roman,serif" font-size="14.00">Graph of Ontology File: Rv</text>
<!-- n1 -->
<g id="node1" class="node"><title>n1</title>
<ellipse fill="blue" stroke="black" cx="54.5952" cy="-279" rx="54.6905" ry="18"/>
<text text-anchor="middle" x="54.5952" y="-275.3" font-family="Times New Roman,serif" font-size="14.00" fill="white">governedBy</text>
</g>
<!-- n2 -->
<g id="node2" class="node"><title>n2</title>
<g id="a_node2"><a xlink:href="file:///C:/Users/200001866/Documents/GitHub/RACK/RACK-Ontology/Graphs/PROV-S.owl.svg" xlink:title="provs:used">
<polygon fill="none" stroke="#00cd00" points="179.34,-184.544 179.34,-199.456 147.271,-210 101.919,-210 69.85,-199.456 69.85,-184.544 101.919,-174 147.271,-174 179.34,-184.544"/>
<text text-anchor="middle" x="124.595" y="-188.3" font-family="Times New Roman,serif" font-size="14.00">provs:used</text>
</a>
</g>
</g>
<!-- n1&#45;&gt;n2 -->
<g id="edge1" class="edge"><title>n1&#45;&gt;n2</title>
<path fill="none" stroke="#00cd00" d="M50.3551,-261.032C48.7594,-250.736 48.5712,-237.747 54.5952,-228 59.5262,-220.021 66.8878,-213.801 75.0106,-208.97"/>
<polygon fill="#00cd00" stroke="#00cd00" points="76.7978,-211.985 84.0445,-204.257 73.5597,-205.779 76.7978,-211.985"/>
<text text-anchor="middle" x="97.0952" y="-231.8" font-family="Times New Roman,serif" font-size="14.00">subPropertyOf</text>
</g>
<!-- n3 -->
<g id="node3" class="node"><title>n3</title>
<ellipse fill="blue" stroke="black" cx="169.595" cy="-279" rx="42.7926" ry="18"/>
<text text-anchor="middle" x="169.595" y="-275.3" font-family="Times New Roman,serif" font-size="14.00" fill="white">reviewed</text>
</g>
<!-- n3&#45;&gt;n2 -->
<g id="edge2" class="edge"><title>n3&#45;&gt;n2</title>
<path fill="none" stroke="#00cd00" d="M161.003,-261.294C155.972,-251.559 149.472,-239.059 143.595,-228 142.038,-225.069 140.397,-222.007 138.758,-218.966"/>
<polygon fill="#00cd00" stroke="#00cd00" points="141.773,-217.184 133.934,-210.057 135.617,-220.517 141.773,-217.184"/>
<text text-anchor="middle" x="194.095" y="-231.8" font-family="Times New Roman,serif" font-size="14.00">subPropertyOf</text>
</g>
<!-- n4 -->
<g id="node4" class="node"><title>n4</title>
<ellipse fill="blue" stroke="black" cx="317.595" cy="-279" rx="33.5952" ry="18"/>
<text text-anchor="middle" x="317.595" y="-275.3" font-family="Times New Roman,serif" font-size="14.00" fill="white">author</text>
</g>
<!-- n5 -->
<g id="node5" class="node"><title>n5</title>
<g id="a_node5"><a xlink:href="file:///C:/Users/200001866/Documents/GitHub/RACK/RACK-Ontology/Graphs/PROV-S.owl.svg" xlink:title="provs:wasAssociatedWith">
<polygon fill="none" stroke="#00cd00" points="464.434,-184.544 464.434,-199.456 397.163,-210 302.027,-210 234.756,-199.456 234.756,-184.544 302.027,-174 397.163,-174 464.434,-184.544"/>
<text text-anchor="middle" x="349.595" y="-188.3" font-family="Times New Roman,serif" font-size="14.00">provs:wasAssociatedWith</text>
</a>
</g>
</g>
<!-- n4&#45;&gt;n5 -->
<g id="edge3" class="edge"><title>n4&#45;&gt;n5</title>
<path fill="none" stroke="#00cd00" d="M315.062,-260.764C314.301,-250.851 314.551,-238.351 318.595,-228 319.905,-224.647 321.691,-221.406 323.749,-218.338"/>
<polygon fill="#00cd00" stroke="#00cd00" points="326.706,-220.238 330.101,-210.202 321.188,-215.931 326.706,-220.238"/>
<text text-anchor="middle" x="361.095" y="-231.8" font-family="Times New Roman,serif" font-size="14.00">subPropertyOf</text>
</g>
<!-- n6 -->
<g id="node6" class="node"><title>n6</title>
<g id="a_node6"><a xlink:href="file:///C:/Users/200001866/Documents/GitHub/RACK/RACK-Ontology/Graphs/PROV-S.owl.svg" xlink:title="provs:THING">
<polygon fill="#00008b" stroke="black" points="961.095,-297 866.095,-297 866.095,-261 961.095,-261 961.095,-297"/>
<text text-anchor="middle" x="913.595" y="-275.3" font-family="Times New Roman,serif" font-size="14.00" fill="white">provs:THING</text>
</a>
</g>
</g>
<!-- n7 -->
<g id="node7" class="node"><title>n7</title>
<polygon fill="#00008b" stroke="black" points="976.595,-210 854.595,-210 854.595,-174 976.595,-174 976.595,-210"/>
<text text-anchor="middle" x="915.595" y="-188.3" font-family="Times New Roman,serif" font-size="14.00" fill="white">REVIEW_STATE</text>
</g>
<!-- n6&#45;&gt;n7 -->
<g id="edge4" class="edge"><title>n6&#45;&gt;n7</title>
<path fill="none" stroke="blue" stroke-dasharray="5,2" d="M914,-260.799C914.274,-249.163 914.641,-233.548 914.954,-220.237"/>
<polygon fill="blue" stroke="blue" points="918.455,-220.255 915.191,-210.175 911.457,-220.09 918.455,-220.255"/>
<text text-anchor="middle" x="941.595" y="-231.8" font-family="Times New Roman,serif" font-size="14.00">subClass</text>
</g>
<!-- n8 -->
<g id="node8" class="node"><title>n8</title>
<polygon fill="none" stroke="red" points="1095.1,-123 748.095,-123 748.095,-87 1095.1,-87 1095.1,-123"/>
<text text-anchor="middle" x="921.595" y="-101.3" font-family="Times New Roman,serif" font-size="14.00">one of {Passed,ReviseWithoutReview,ReviseWithReview}</text>
</g>
<!-- n7&#45;&gt;n8 -->
<g id="edge5" class="edge"><title>n7&#45;&gt;n8</title>
<path fill="none" stroke="red" d="M916.809,-173.799C917.631,-162.163 918.733,-146.548 919.673,-133.237"/>
<polygon fill="red" stroke="red" points="923.17,-133.397 920.383,-123.175 916.187,-132.904 923.17,-133.397"/>
<text text-anchor="middle" x="942.095" y="-144.8" font-family="Times New Roman,serif" font-size="14.00">same as</text>
</g>
<!-- n9 -->
<g id="node9" class="node"><title>n9</title>
<ellipse fill="blue" stroke="black" cx="1443.6" cy="-279" rx="42.4939" ry="18"/>
<text text-anchor="middle" x="1443.6" y="-275.3" font-family="Times New Roman,serif" font-size="14.00" fill="white">createBy</text>
</g>
<!-- n10 -->
<g id="node10" class="node"><title>n10</title>
<g id="a_node10"><a xlink:href="file:///C:/Users/200001866/Documents/GitHub/RACK/RACK-Ontology/Graphs/PROV-S.owl.svg" xlink:title="provs:wasGeneratedBy">
<polygon fill="none" stroke="#00cd00" points="1546.52,-184.544 1546.52,-199.456 1486.23,-210 1400.96,-210 1340.67,-199.456 1340.67,-184.544 1400.96,-174 1486.23,-174 1546.52,-184.544"/>
<text text-anchor="middle" x="1443.6" y="-188.3" font-family="Times New Roman,serif" font-size="14.00">provs:wasGeneratedBy</text>
</a>
</g>
</g>
<!-- n9&#45;&gt;n10 -->
<g id="edge6" class="edge"><title>n9&#45;&gt;n10</title>
<path fill="none" stroke="#00cd00" d="M1443.6,-260.799C1443.6,-249.163 1443.6,-233.548 1443.6,-220.237"/>
<polygon fill="#00cd00" stroke="#00cd00" points="1447.1,-220.175 1443.6,-210.175 1440.1,-220.175 1447.1,-220.175"/>
<text text-anchor="middle" x="1486.1" y="-231.8" font-family="Times New Roman,serif" font-size="14.00">subPropertyOf</text>
</g>
<!-- n11 -->
<g id="node11" class="node"><title>n11</title>
<ellipse fill="blue" stroke="black" cx="744.595" cy="-279" rx="36.2938" ry="18"/>
<text text-anchor="middle" x="744.595" y="-275.3" font-family="Times New Roman,serif" font-size="14.00" fill="white">Passed</text>
</g>
<!-- n11&#45;&gt;n7 -->
<g id="edge8" class="edge"><title>n11&#45;&gt;n7</title>
<path fill="none" stroke="black" d="M774.514,-268.734C793.342,-262.45 817.906,-253.41 838.595,-243 854.013,-235.242 870.164,-225.102 883.669,-215.982"/>
<polygon fill="black" stroke="black" points="885.867,-218.719 892.128,-210.172 881.904,-212.949 885.867,-218.719"/>
<text text-anchor="middle" x="875.095" y="-231.8" font-family="Times New Roman,serif" font-size="14.00">is a</text>
</g>
<!-- n11&#45;&gt;n11 -->
<g id="edge7" class="edge"><title>n11&#45;&gt;n11</title>
<path fill="none" stroke="#00cd00" d="M777.524,-286.867C789.35,-287.036 798.992,-284.414 798.992,-279 798.992,-275.278 794.435,-272.875 787.744,-271.792"/>
<polygon fill="#00cd00" stroke="#00cd00" points="787.729,-268.284 777.524,-271.133 787.278,-275.269 787.729,-268.284"/>
<text text-anchor="middle" x="823.492" y="-275.3" font-family="Times New Roman,serif" font-size="14.00">identifier</text>
</g>
<!-- n12 -->
<g id="node12" class="node"><title>n12</title>
<g id="a_node12"><a xlink:href="file:///C:/Users/200001866/Documents/GitHub/RACK/RACK-Ontology/Graphs/PROV-S.owl.svg" xlink:title="provs:ENTITY">
<polygon fill="#00008b" stroke="black" points="658.595,-36 556.595,-36 556.595,-0 658.595,-0 658.595,-36"/>
<text text-anchor="middle" x="607.595" y="-14.3" font-family="Times New Roman,serif" font-size="14.00" fill="white">provs:ENTITY</text>
</a>
</g>
</g>
<!-- n13 -->
<g id="node13" class="node"><title>n13</title>
<polygon fill="#00008b" stroke="black" points="671.095,-297 564.095,-297 564.095,-261 671.095,-261 671.095,-297"/>
<text text-anchor="middle" x="617.595" y="-275.3" font-family="Times New Roman,serif" font-size="14.00" fill="white">REVIEW_LOG</text>
</g>
<!-- n12&#45;&gt;n13 -->
<g id="edge9" class="edge"><title>n12&#45;&gt;n13</title>
<path fill="none" stroke="blue" stroke-dasharray="5,2" d="M608.18,-36.1228C609.331,-69.5516 612.004,-145.845 614.595,-210 615.137,-223.424 615.79,-238.337 616.347,-250.769"/>
<polygon fill="blue" stroke="blue" points="612.86,-251.123 616.808,-260.955 619.852,-250.807 612.86,-251.123"/>
<text text-anchor="middle" x="638.595" y="-144.8" font-family="Times New Roman,serif" font-size="14.00">subClass</text>
</g>
<!-- n13&#45;&gt;n7 -->
<g id="edge21" class="edge"><title>n13&#45;&gt;n7</title>
<path fill="none" stroke="#00cd00" d="M662.911,-260.972C691.305,-250.654 728.8,-237.662 762.595,-228 789.195,-220.395 818.761,-213.317 844.757,-207.545"/>
<polygon fill="#00cd00" stroke="#00cd00" points="845.516,-210.961 854.532,-205.398 844.014,-204.124 845.516,-210.961"/>
<text text-anchor="middle" x="798.595" y="-231.8" font-family="Times New Roman,serif" font-size="14.00">reviewResult</text>
</g>
<!-- n13&#45;&gt;n12 -->
<g id="edge22" class="edge"><title>n13&#45;&gt;n12</title>
<path fill="none" stroke="#00cd00" d="M607.693,-260.944C594.997,-237.993 573.658,-195.478 565.595,-156 557.536,-116.536 576.471,-72.1896 591.479,-44.9229"/>
<polygon fill="#00cd00" stroke="#00cd00" points="594.641,-46.4439 596.573,-36.0266 588.566,-42.9656 594.641,-46.4439"/>
<text text-anchor="middle" x="587.095" y="-144.8" font-family="Times New Roman,serif" font-size="14.00">reviews</text>
</g>
<!-- n14 -->
<g id="node14" class="node"><title>n14</title>
<g id="a_node14"><a xlink:href="file:///C:/Users/200001866/Documents/GitHub/RACK/RACK-Ontology/Graphs/PROV-S.owl.svg" xlink:title="provs:ACTIVITY">
<polygon fill="#00008b" stroke="black" points="741.595,-210 623.595,-210 623.595,-174 741.595,-174 741.595,-210"/>
<text text-anchor="middle" x="682.595" y="-188.3" font-family="Times New Roman,serif" font-size="14.00" fill="white">provs:ACTIVITY</text>
</a>
</g>
</g>
<!-- n13&#45;&gt;n14 -->
<g id="edge20" class="edge"><title>n13&#45;&gt;n14</title>
<path fill="none" stroke="#00cd00" d="M630.749,-260.799C640.088,-248.587 652.778,-231.992 663.265,-218.278"/>
<polygon fill="#00cd00" stroke="#00cd00" points="666.167,-220.245 669.461,-210.175 660.606,-215.993 666.167,-220.245"/>
<text text-anchor="middle" x="679.095" y="-231.8" font-family="Times New Roman,serif" font-size="14.00">createBy</text>
</g>
<!-- n15 -->
<g id="node15" class="node"><title>n15</title>
<polygon fill="#00008b" stroke="black" points="730.095,-123 659.095,-123 659.095,-87 730.095,-87 730.095,-123"/>
<text text-anchor="middle" x="694.595" y="-101.3" font-family="Times New Roman,serif" font-size="14.00" fill="white">REVIEW</text>
</g>
<!-- n14&#45;&gt;n15 -->
<g id="edge10" class="edge"><title>n14&#45;&gt;n15</title>
<path fill="none" stroke="blue" stroke-dasharray="5,2" d="M685.024,-173.799C686.666,-162.163 688.871,-146.548 690.75,-133.237"/>
<polygon fill="blue" stroke="blue" points="694.238,-133.567 692.17,-123.175 687.307,-132.588 694.238,-133.567"/>
<text text-anchor="middle" x="715.595" y="-144.8" font-family="Times New Roman,serif" font-size="14.00">subClass</text>
</g>
<!-- n15&#45;&gt;n12 -->
<g id="edge18" class="edge"><title>n15&#45;&gt;n12</title>
<path fill="none" stroke="#00cd00" d="M658.861,-92.0649C646.961,-86.6105 634.487,-79.0677 625.595,-69 619.927,-62.582 616.002,-54.2456 613.303,-46.2254"/>
<polygon fill="#00cd00" stroke="#00cd00" points="616.61,-45.0589 610.499,-36.4038 609.879,-46.9805 616.61,-45.0589"/>
<text text-anchor="middle" x="650.595" y="-57.8" font-family="Times New Roman,serif" font-size="14.00">reviewed</text>
</g>
<!-- n15&#45;&gt;n12 -->
<g id="edge19" class="edge"><title>n15&#45;&gt;n12</title>
<path fill="none" stroke="#00cd00" d="M691.289,-86.6047C688.559,-76.1477 683.763,-63.1399 675.595,-54 671.357,-49.2571 666.323,-45.0637 660.941,-41.3802"/>
<polygon fill="#00cd00" stroke="#00cd00" points="662.604,-38.2936 652.259,-36.0058 658.92,-44.2454 662.604,-38.2936"/>
<text text-anchor="middle" x="719.595" y="-57.8" font-family="Times New Roman,serif" font-size="14.00">governedBy</text>
</g>
<!-- n23 -->
<g id="node23" class="node"><title>n23</title>
<g id="a_node23"><a xlink:href="file:///C:/Users/200001866/Documents/GitHub/RACK/RACK-Ontology/Graphs/PROV-S.owl.svg" xlink:title="provs:AGENT">
<polygon fill="#00008b" stroke="black" points="873.095,-36 774.095,-36 774.095,-0 873.095,-0 873.095,-36"/>
<text text-anchor="middle" x="823.595" y="-14.3" font-family="Times New Roman,serif" font-size="14.00" fill="white">provs:AGENT</text>
</a>
</g>
</g>
<!-- n15&#45;&gt;n23 -->
<g id="edge17" class="edge"><title>n15&#45;&gt;n23</title>
<path fill="none" stroke="#00cd00" d="M727.486,-86.8727C737.339,-81.4379 748.057,-75.218 757.595,-69 769.974,-60.93 783.054,-51.2789 794.275,-42.6177"/>
<polygon fill="#00cd00" stroke="#00cd00" points="796.726,-45.1445 802.451,-36.2299 792.416,-39.6282 796.726,-45.1445"/>
<text text-anchor="middle" x="802.095" y="-57.8" font-family="Times New Roman,serif" font-size="14.00">reviewer</text>
</g>
<!-- n15&#45;&gt;n23 -->
<g id="edge23" class="edge"><title>n15&#45;&gt;n23</title>
<path fill="none" stroke="#00cd00" d="M730.439,-89.5679C733.181,-88.6436 735.921,-87.7748 738.595,-87 778.195,-75.5276 803.423,-100.856 829.595,-69 834.882,-62.5645 835.404,-53.9946 833.974,-45.7701"/>
<polygon fill="#00cd00" stroke="#00cd00" points="837.357,-44.8723 831.451,-36.0759 830.582,-46.6351 837.357,-44.8723"/>
<text text-anchor="middle" x="853.595" y="-57.8" font-family="Times New Roman,serif" font-size="14.00">author</text>
</g>
<!-- n16 -->
<g id="node16" class="node"><title>n16</title>
<ellipse fill="blue" stroke="black" cx="1069.6" cy="-279" rx="90.9839" ry="18"/>
<text text-anchor="middle" x="1069.6" y="-275.3" font-family="Times New Roman,serif" font-size="14.00" fill="white">ReviseWithoutReview</text>
</g>
<!-- n16&#45;&gt;n7 -->
<g id="edge12" class="edge"><title>n16&#45;&gt;n7</title>
<path fill="none" stroke="black" d="M1040.27,-261.812C1016.22,-248.541 981.954,-229.627 955.428,-214.986"/>
<polygon fill="black" stroke="black" points="956.844,-211.77 946.398,-210.002 953.462,-217.898 956.844,-211.77"/>
<text text-anchor="middle" x="1012.1" y="-231.8" font-family="Times New Roman,serif" font-size="14.00">is a</text>
</g>
<!-- n17 -->
<g id="node17" class="node"><title>n17</title>
<polygon fill="none" stroke="black" points="1143.6,-210 995.595,-210 995.595,-174 1143.6,-174 1143.6,-210"/>
<text text-anchor="middle" x="1069.6" y="-188.3" font-family="Times New Roman,serif" font-size="14.00">Revise Without Review</text>
</g>
<!-- n16&#45;&gt;n17 -->
<g id="edge11" class="edge"><title>n16&#45;&gt;n17</title>
<path fill="none" stroke="#00cd00" d="M1069.6,-260.799C1069.6,-249.163 1069.6,-233.548 1069.6,-220.237"/>
<polygon fill="#00cd00" stroke="#00cd00" points="1073.1,-220.175 1069.6,-210.175 1066.1,-220.175 1073.1,-220.175"/>
<text text-anchor="middle" x="1094.1" y="-231.8" font-family="Times New Roman,serif" font-size="14.00">identifier</text>
</g>
<!-- n18 -->
<g id="node18" class="node"><title>n18</title>
<ellipse fill="blue" stroke="black" cx="1664.6" cy="-279" rx="38.1938" ry="18"/>
<text text-anchor="middle" x="1664.6" y="-275.3" font-family="Times New Roman,serif" font-size="14.00" fill="white">reviews</text>
</g>
<!-- n19 -->
<g id="node19" class="node"><title>n19</title>
<g id="a_node19"><a xlink:href="file:///C:/Users/200001866/Documents/GitHub/RACK/RACK-Ontology/Graphs/PROV-S.owl.svg" xlink:title="provs:wasImpactedBy">
<polygon fill="none" stroke="#00cd00" points="1764.39,-184.544 1764.39,-199.456 1705.93,-210 1623.26,-210 1564.8,-199.456 1564.8,-184.544 1623.26,-174 1705.93,-174 1764.39,-184.544"/>
<text text-anchor="middle" x="1664.6" y="-188.3" font-family="Times New Roman,serif" font-size="14.00">provs:wasImpactedBy</text>
</a>
</g>
</g>
<!-- n18&#45;&gt;n19 -->
<g id="edge13" class="edge"><title>n18&#45;&gt;n19</title>
<path fill="none" stroke="#00cd00" d="M1664.6,-260.799C1664.6,-249.163 1664.6,-233.548 1664.6,-220.237"/>
<polygon fill="#00cd00" stroke="#00cd00" points="1668.1,-220.175 1664.6,-210.175 1661.1,-220.175 1668.1,-220.175"/>
<text text-anchor="middle" x="1707.1" y="-231.8" font-family="Times New Roman,serif" font-size="14.00">subPropertyOf</text>
</g>
<!-- n20 -->
<g id="node20" class="node"><title>n20</title>
<ellipse fill="blue" stroke="black" cx="1257.6" cy="-279" rx="79.0865" ry="18"/>
<text text-anchor="middle" x="1257.6" y="-275.3" font-family="Times New Roman,serif" font-size="14.00" fill="white">ReviseWithReview</text>
</g>
<!-- n20&#45;&gt;n7 -->
<g id="edge15" class="edge"><title>n20&#45;&gt;n7</title>
<path fill="none" stroke="black" d="M1223.02,-262.756C1196.14,-251.505 1157.65,-236.695 1122.6,-228 1063.42,-213.321 1046.55,-221.114 986.595,-210 986.494,-209.981 986.393,-209.962 986.291,-209.944"/>
<polygon fill="black" stroke="black" points="987.188,-206.553 976.7,-208.055 985.836,-213.421 987.188,-206.553"/>
<text text-anchor="middle" x="1182.1" y="-231.8" font-family="Times New Roman,serif" font-size="14.00">is a</text>
</g>
<!-- n21 -->
<g id="node21" class="node"><title>n21</title>
<polygon fill="none" stroke="black" points="1322.6,-210 1192.6,-210 1192.6,-174 1322.6,-174 1322.6,-210"/>
<text text-anchor="middle" x="1257.6" y="-188.3" font-family="Times New Roman,serif" font-size="14.00">Revise With Review</text>
</g>
<!-- n20&#45;&gt;n21 -->
<g id="edge14" class="edge"><title>n20&#45;&gt;n21</title>
<path fill="none" stroke="#00cd00" d="M1257.6,-260.799C1257.6,-249.163 1257.6,-233.548 1257.6,-220.237"/>
<polygon fill="#00cd00" stroke="#00cd00" points="1261.1,-220.175 1257.6,-210.175 1254.1,-220.175 1261.1,-220.175"/>
<text text-anchor="middle" x="1282.1" y="-231.8" font-family="Times New Roman,serif" font-size="14.00">identifier</text>
</g>
<!-- n22 -->
<g id="node22" class="node"><title>n22</title>
<ellipse fill="blue" stroke="black" cx="425.595" cy="-279" rx="40.8928" ry="18"/>
<text text-anchor="middle" x="425.595" y="-275.3" font-family="Times New Roman,serif" font-size="14.00" fill="white">reviewer</text>
</g>
<!-- n22&#45;&gt;n5 -->
<g id="edge16" class="edge"><title>n22&#45;&gt;n5</title>
<path fill="none" stroke="#00cd00" d="M420.821,-260.882C417.304,-250.529 411.709,-237.533 403.595,-228 399.929,-223.693 395.602,-219.721 391.017,-216.119"/>
<polygon fill="#00cd00" stroke="#00cd00" points="392.737,-213.044 382.576,-210.044 388.648,-218.726 392.737,-213.044"/>
<text text-anchor="middle" x="456.095" y="-231.8" font-family="Times New Roman,serif" font-size="14.00">subPropertyOf</text>
</g>
</g>
</svg>
