<?xml version="1.0" encoding="UTF-8" standalone="no"?>
<!DOCTYPE svg PUBLIC "-//W3C//DTD SVG 1.1//EN"
 "http://www.w3.org/Graphics/SVG/1.1/DTD/svg11.dtd">
<!-- Generated by graphviz version 2.38.0 (20140413.2041)
 -->
<!-- Title: gRv Pages: 1 -->
<svg width="1664pt" height="328pt"
 viewBox="0.00 0.00 1663.71 328.00" xmlns="http://www.w3.org/2000/svg" xmlns:xlink="http://www.w3.org/1999/xlink">
<g id="graph0" class="graph" transform="scale(1 1) rotate(0) translate(4 324)">
<title>gRv</title>
<polygon fill="white" stroke="none" points="-4,4 -4,-324 1659.71,-324 1659.71,4 -4,4"/>
<text text-anchor="middle" x="85.5" y="-304.8" font-family="Times New Roman,serif" font-size="14.00">Graph of Ontology File: Rv</text>
<!-- n1 -->
<g id="node1" class="node"><title>n1</title>
<ellipse fill="blue" stroke="black" cx="54.5952" cy="-279" rx="54.6905" ry="18"/>
<text text-anchor="middle" x="54.5952" y="-275.3" font-family="Times New Roman,serif" font-size="14.00" fill="white">governedBy</text>
</g>
<!-- n2 -->
<g id="node2" class="node"><title>n2</title>
<g id="a_node2"><a xlink:href="file:///C:/Sadl3Workspace4/RACK-Ontology-7-29/Graphs/PROV-S.owl.svg" xlink:title="provs:used">
<polygon fill="none" stroke="#00cd00" points="185.34,-184.544 185.34,-199.456 153.271,-210 107.919,-210 75.85,-199.456 75.85,-184.544 107.919,-174 153.271,-174 185.34,-184.544"/>
<text text-anchor="middle" x="130.595" y="-188.3" font-family="Times New Roman,serif" font-size="14.00">provs:used</text>
</a>
</g>
</g>
<!-- n1&#45;&gt;n2 -->
<g id="edge1" class="edge"><title>n1&#45;&gt;n2</title>
<path fill="none" stroke="#00cd00" d="M52.3598,-260.832C51.9096,-250.461 53.0339,-237.463 59.5952,-228 65.1161,-220.037 72.9817,-213.805 81.4817,-208.955"/>
<polygon fill="#00cd00" stroke="#00cd00" points="83.1594,-212.029 90.4974,-204.387 79.9952,-205.785 83.1594,-212.029"/>
<text text-anchor="middle" x="102.095" y="-231.8" font-family="Times New Roman,serif" font-size="14.00">subPropertyOf</text>
</g>
<!-- n3 -->
<g id="node3" class="node"><title>n3</title>
<ellipse fill="blue" stroke="black" cx="169.595" cy="-279" rx="42.7926" ry="18"/>
<text text-anchor="middle" x="169.595" y="-275.3" font-family="Times New Roman,serif" font-size="14.00" fill="white">reviewed</text>
</g>
<!-- n3&#45;&gt;n2 -->
<g id="edge2" class="edge"><title>n3&#45;&gt;n2</title>
<path fill="none" stroke="#00cd00" d="M161.89,-261.207C156.424,-249.293 148.977,-233.063 142.719,-219.424"/>
<polygon fill="#00cd00" stroke="#00cd00" points="145.769,-217.679 138.418,-210.049 139.407,-220.598 145.769,-217.679"/>
<text text-anchor="middle" x="195.095" y="-231.8" font-family="Times New Roman,serif" font-size="14.00">subPropertyOf</text>
</g>
<!-- n4 -->
<g id="node4" class="node"><title>n4</title>
<ellipse fill="blue" stroke="black" cx="317.595" cy="-279" rx="33.5952" ry="18"/>
<text text-anchor="middle" x="317.595" y="-275.3" font-family="Times New Roman,serif" font-size="14.00" fill="white">author</text>
</g>
<!-- n5 -->
<g id="node5" class="node"><title>n5</title>
<g id="a_node5"><a xlink:href="file:///C:/Sadl3Workspace4/RACK-Ontology-7-29/Graphs/PROV-S.owl.svg" xlink:title="provs:wasAssociatedWith">
<polygon fill="none" stroke="#00cd00" points="470.434,-184.544 470.434,-199.456 403.163,-210 308.027,-210 240.756,-199.456 240.756,-184.544 308.027,-174 403.163,-174 470.434,-184.544"/>
<text text-anchor="middle" x="355.595" y="-188.3" font-family="Times New Roman,serif" font-size="14.00">provs:wasAssociatedWith</text>
</a>
</g>
</g>
<!-- n4&#45;&gt;n5 -->
<g id="edge3" class="edge"><title>n4&#45;&gt;n5</title>
<path fill="none" stroke="#00cd00" d="M314.722,-260.622C313.848,-250.663 314.098,-238.163 318.595,-228 320.2,-224.374 322.377,-220.944 324.878,-217.753"/>
<polygon fill="#00cd00" stroke="#00cd00" points="327.482,-220.092 331.618,-210.338 322.302,-215.384 327.482,-220.092"/>
<text text-anchor="middle" x="361.095" y="-231.8" font-family="Times New Roman,serif" font-size="14.00">subPropertyOf</text>
</g>
<!-- n6 -->
<g id="node6" class="node"><title>n6</title>
<polygon fill="#00008b" stroke="black" points="785.595,-210 663.595,-210 663.595,-174 785.595,-174 785.595,-210"/>
<text text-anchor="middle" x="724.595" y="-188.3" font-family="Times New Roman,serif" font-size="14.00" fill="white">REVIEW_STATE</text>
</g>
<!-- n7 -->
<g id="node7" class="node"><title>n7</title>
<polygon fill="none" stroke="red" points="898.095,-123 551.095,-123 551.095,-87 898.095,-87 898.095,-123"/>
<text text-anchor="middle" x="724.595" y="-101.3" font-family="Times New Roman,serif" font-size="14.00">one of {Passed,ReviseWithoutReview,ReviseWithReview}</text>
</g>
<!-- n6&#45;&gt;n7 -->
<g id="edge4" class="edge"><title>n6&#45;&gt;n7</title>
<path fill="none" stroke="red" d="M724.595,-173.799C724.595,-162.163 724.595,-146.548 724.595,-133.237"/>
<polygon fill="red" stroke="red" points="728.095,-133.175 724.595,-123.175 721.095,-133.175 728.095,-133.175"/>
<text text-anchor="middle" x="747.095" y="-144.8" font-family="Times New Roman,serif" font-size="14.00">same as</text>
</g>
<!-- n8 -->
<g id="node8" class="node"><title>n8</title>
<ellipse fill="blue" stroke="black" cx="1326.6" cy="-279" rx="42.4939" ry="18"/>
<text text-anchor="middle" x="1326.6" y="-275.3" font-family="Times New Roman,serif" font-size="14.00" fill="white">createBy</text>
</g>
<!-- n9 -->
<g id="node9" class="node"><title>n9</title>
<g id="a_node9"><a xlink:href="file:///C:/Sadl3Workspace4/RACK-Ontology-7-29/Graphs/PROV-S.owl.svg" xlink:title="provs:wasGeneratedBy">
<polygon fill="none" stroke="#00cd00" points="1429.52,-184.544 1429.52,-199.456 1369.23,-210 1283.96,-210 1223.67,-199.456 1223.67,-184.544 1283.96,-174 1369.23,-174 1429.52,-184.544"/>
<text text-anchor="middle" x="1326.6" y="-188.3" font-family="Times New Roman,serif" font-size="14.00">provs:wasGeneratedBy</text>
</a>
</g>
</g>
<!-- n8&#45;&gt;n9 -->
<g id="edge5" class="edge"><title>n8&#45;&gt;n9</title>
<path fill="none" stroke="#00cd00" d="M1326.6,-260.799C1326.6,-249.163 1326.6,-233.548 1326.6,-220.237"/>
<polygon fill="#00cd00" stroke="#00cd00" points="1330.1,-220.175 1326.6,-210.175 1323.1,-220.175 1330.1,-220.175"/>
<text text-anchor="middle" x="1369.1" y="-231.8" font-family="Times New Roman,serif" font-size="14.00">subPropertyOf</text>
</g>
<!-- n10 -->
<g id="node10" class="node"><title>n10</title>
<ellipse fill="blue" stroke="black" cx="533.595" cy="-279" rx="36.2938" ry="18"/>
<text text-anchor="middle" x="533.595" y="-275.3" font-family="Times New Roman,serif" font-size="14.00" fill="white">Passed</text>
</g>
<!-- n10&#45;&gt;n6 -->
<g id="edge6" class="edge"><title>n10&#45;&gt;n6</title>
<path fill="none" stroke="black" d="M559.752,-266.359C589.764,-253.003 639.599,-230.825 676.633,-214.345"/>
<polygon fill="black" stroke="black" points="678.517,-217.337 686.231,-210.073 675.671,-210.941 678.517,-217.337"/>
<text text-anchor="middle" x="650.095" y="-231.8" font-family="Times New Roman,serif" font-size="14.00">is a</text>
</g>
<!-- n11 -->
<g id="node11" class="node"><title>n11</title>
<g id="a_node11"><a xlink:href="file:///C:/Sadl3Workspace4/RACK-Ontology-7-29/Graphs/PROV-S.owl.svg" xlink:title="provs:ENTITY">
<polygon fill="#00008b" stroke="black" points="1117.6,-36 1015.6,-36 1015.6,-0 1117.6,-0 1117.6,-36"/>
<text text-anchor="middle" x="1066.6" y="-14.3" font-family="Times New Roman,serif" font-size="14.00" fill="white">provs:ENTITY</text>
</a>
</g>
</g>
<!-- n12 -->
<g id="node12" class="node"><title>n12</title>
<polygon fill="#00008b" stroke="black" points="1093.1,-297 986.095,-297 986.095,-261 1093.1,-261 1093.1,-297"/>
<text text-anchor="middle" x="1039.6" y="-275.3" font-family="Times New Roman,serif" font-size="14.00" fill="white">REVIEW_LOG</text>
</g>
<!-- n11&#45;&gt;n12 -->
<g id="edge7" class="edge"><title>n11&#45;&gt;n12</title>
<path fill="none" stroke="blue" stroke-dasharray="5,2" d="M1064.79,-36.3202C1060.2,-80.3788 1048.04,-197.007 1042.46,-250.493"/>
<polygon fill="blue" stroke="blue" points="1038.96,-250.295 1041.41,-260.604 1045.93,-251.021 1038.96,-250.295"/>
<text text-anchor="middle" x="1080.6" y="-144.8" font-family="Times New Roman,serif" font-size="14.00">subClass</text>
</g>
<!-- n12&#45;&gt;n6 -->
<g id="edge17" class="edge"><title>n12&#45;&gt;n6</title>
<path fill="none" stroke="#00cd00" d="M985.913,-265.163C959.548,-258.734 927.345,-250.696 898.595,-243 863.238,-233.535 824.043,-222.335 791.818,-212.936"/>
<polygon fill="#00cd00" stroke="#00cd00" points="792.633,-209.528 782.052,-210.082 790.668,-216.247 792.633,-209.528"/>
<text text-anchor="middle" x="934.595" y="-231.8" font-family="Times New Roman,serif" font-size="14.00">reviewResult</text>
</g>
<!-- n12&#45;&gt;n11 -->
<g id="edge18" class="edge"><title>n12&#45;&gt;n11</title>
<path fill="none" stroke="#00cd00" d="M1029.93,-260.729C1016.62,-234.78 995.404,-184.17 1005.6,-141 1013.99,-105.441 1034.42,-68.4292 1049.33,-44.6322"/>
<polygon fill="#00cd00" stroke="#00cd00" points="1052.3,-46.4979 1054.74,-36.1894 1046.4,-42.7222 1052.3,-46.4979"/>
<text text-anchor="middle" x="1027.1" y="-144.8" font-family="Times New Roman,serif" font-size="14.00">reviews</text>
</g>
<!-- n13 -->
<g id="node13" class="node"><title>n13</title>
<g id="a_node13"><a xlink:href="file:///C:/Sadl3Workspace4/RACK-Ontology-7-29/Graphs/PROV-S.owl.svg" xlink:title="provs:ACTIVITY">
<polygon fill="#00008b" stroke="black" points="1205.6,-210 1087.6,-210 1087.6,-174 1205.6,-174 1205.6,-210"/>
<text text-anchor="middle" x="1146.6" y="-188.3" font-family="Times New Roman,serif" font-size="14.00" fill="white">provs:ACTIVITY</text>
</a>
</g>
</g>
<!-- n12&#45;&gt;n13 -->
<g id="edge16" class="edge"><title>n12&#45;&gt;n13</title>
<path fill="none" stroke="#00cd00" d="M1061.25,-260.799C1077.2,-248.126 1099.1,-230.734 1116.71,-216.738"/>
<polygon fill="#00cd00" stroke="#00cd00" points="1119.32,-219.136 1124.97,-210.175 1114.97,-213.655 1119.32,-219.136"/>
<text text-anchor="middle" x="1124.1" y="-231.8" font-family="Times New Roman,serif" font-size="14.00">createBy</text>
</g>
<!-- n14 -->
<g id="node14" class="node"><title>n14</title>
<polygon fill="#00008b" stroke="black" points="1192.1,-123 1121.1,-123 1121.1,-87 1192.1,-87 1192.1,-123"/>
<text text-anchor="middle" x="1156.6" y="-101.3" font-family="Times New Roman,serif" font-size="14.00" fill="white">REVIEW</text>
</g>
<!-- n13&#45;&gt;n14 -->
<g id="edge8" class="edge"><title>n13&#45;&gt;n14</title>
<path fill="none" stroke="blue" stroke-dasharray="5,2" d="M1148.62,-173.799C1149.99,-162.163 1151.82,-146.548 1153.39,-133.237"/>
<polygon fill="blue" stroke="blue" points="1156.88,-133.516 1154.57,-123.175 1149.93,-132.698 1156.88,-133.516"/>
<text text-anchor="middle" x="1178.6" y="-144.8" font-family="Times New Roman,serif" font-size="14.00">subClass</text>
</g>
<!-- n14&#45;&gt;n11 -->
<g id="edge14" class="edge"><title>n14&#45;&gt;n11</title>
<path fill="none" stroke="#00cd00" d="M1120.81,-93.0078C1107.95,-87.5449 1094.26,-79.7525 1084.6,-69 1078.87,-62.6303 1074.93,-54.3072 1072.24,-46.2843"/>
<polygon fill="#00cd00" stroke="#00cd00" points="1075.54,-45.1158 1069.44,-36.4522 1068.81,-47.0279 1075.54,-45.1158"/>
<text text-anchor="middle" x="1109.6" y="-57.8" font-family="Times New Roman,serif" font-size="14.00">reviewed</text>
</g>
<!-- n14&#45;&gt;n11 -->
<g id="edge15" class="edge"><title>n14&#45;&gt;n11</title>
<path fill="none" stroke="#00cd00" d="M1152.15,-86.5886C1148.75,-76.1256 1143.17,-63.117 1134.6,-54 1130.18,-49.3041 1124.99,-45.1303 1119.48,-41.4495"/>
<polygon fill="#00cd00" stroke="#00cd00" points="1120.99,-38.271 1110.62,-36.0671 1117.35,-44.2524 1120.99,-38.271"/>
<text text-anchor="middle" x="1179.6" y="-57.8" font-family="Times New Roman,serif" font-size="14.00">governedBy</text>
</g>
<!-- n20 -->
<g id="node20" class="node"><title>n20</title>
<g id="a_node20"><a xlink:href="file:///C:/Sadl3Workspace4/RACK-Ontology-7-29/Graphs/PROV-S.owl.svg" xlink:title="provs:AGENT">
<polygon fill="#00008b" stroke="black" points="1332.1,-36 1233.1,-36 1233.1,-0 1332.1,-0 1332.1,-36"/>
<text text-anchor="middle" x="1282.6" y="-14.3" font-family="Times New Roman,serif" font-size="14.00" fill="white">provs:AGENT</text>
</a>
</g>
</g>
<!-- n14&#45;&gt;n20 -->
<g id="edge13" class="edge"><title>n14&#45;&gt;n20</title>
<path fill="none" stroke="#00cd00" d="M1188.12,-86.9868C1197.74,-81.5072 1208.25,-75.2337 1217.6,-69 1229.77,-60.8781 1242.65,-51.2168 1253.7,-42.5619"/>
<polygon fill="#00cd00" stroke="#00cd00" points="1256.09,-45.1345 1261.76,-36.1819 1251.74,-39.6472 1256.09,-45.1345"/>
<text text-anchor="middle" x="1262.1" y="-57.8" font-family="Times New Roman,serif" font-size="14.00">reviewer</text>
</g>
<!-- n14&#45;&gt;n20 -->
<g id="edge19" class="edge"><title>n14&#45;&gt;n20</title>
<path fill="none" stroke="#00cd00" d="M1192.12,-99.5525C1227.35,-94.3256 1277.75,-84.3643 1289.6,-69 1294.56,-62.557 1295.01,-54.2137 1293.56,-46.1949"/>
<polygon fill="#00cd00" stroke="#00cd00" points="1296.89,-45.1189 1290.9,-36.3788 1290.13,-46.9457 1296.89,-45.1189"/>
<text text-anchor="middle" x="1312.6" y="-57.8" font-family="Times New Roman,serif" font-size="14.00">author</text>
</g>
<!-- n15 -->
<g id="node15" class="node"><title>n15</title>
<ellipse fill="blue" stroke="black" cx="678.595" cy="-279" rx="90.9839" ry="18"/>
<text text-anchor="middle" x="678.595" y="-275.3" font-family="Times New Roman,serif" font-size="14.00" fill="white">ReviseWithoutReview</text>
</g>
<!-- n15&#45;&gt;n6 -->
<g id="edge9" class="edge"><title>n15&#45;&gt;n6</title>
<path fill="none" stroke="black" d="M687.904,-260.799C694.388,-248.817 703.155,-232.617 710.494,-219.057"/>
<polygon fill="black" stroke="black" points="713.619,-220.636 715.3,-210.175 707.463,-217.304 713.619,-220.636"/>
<text text-anchor="middle" x="714.095" y="-231.8" font-family="Times New Roman,serif" font-size="14.00">is a</text>
</g>
<!-- n16 -->
<g id="node16" class="node"><title>n16</title>
<ellipse fill="blue" stroke="black" cx="1551.6" cy="-279" rx="38.1938" ry="18"/>
<text text-anchor="middle" x="1551.6" y="-275.3" font-family="Times New Roman,serif" font-size="14.00" fill="white">reviews</text>
</g>
<!-- n17 -->
<g id="node17" class="node"><title>n17</title>
<g id="a_node17"><a xlink:href="file:///C:/Sadl3Workspace4/RACK-Ontology-7-29/Graphs/PROV-S.owl.svg" xlink:title="provs:wasDerivedFrom">
<polygon fill="none" stroke="#00cd00" points="1655.83,-184.544 1655.83,-199.456 1594.77,-210 1508.42,-210 1447.36,-199.456 1447.36,-184.544 1508.42,-174 1594.77,-174 1655.83,-184.544"/>
<text text-anchor="middle" x="1551.6" y="-188.3" font-family="Times New Roman,serif" font-size="14.00">provs:wasDerivedFrom</text>
</a>
</g>
</g>
<!-- n16&#45;&gt;n17 -->
<g id="edge10" class="edge"><title>n16&#45;&gt;n17</title>
<path fill="none" stroke="#00cd00" d="M1551.6,-260.799C1551.6,-249.163 1551.6,-233.548 1551.6,-220.237"/>
<polygon fill="#00cd00" stroke="#00cd00" points="1555.1,-220.175 1551.6,-210.175 1548.1,-220.175 1555.1,-220.175"/>
<text text-anchor="middle" x="1594.1" y="-231.8" font-family="Times New Roman,serif" font-size="14.00">subPropertyOf</text>
</g>
<!-- n18 -->
<g id="node18" class="node"><title>n18</title>
<ellipse fill="blue" stroke="black" cx="866.595" cy="-279" rx="79.0865" ry="18"/>
<text text-anchor="middle" x="866.595" y="-275.3" font-family="Times New Roman,serif" font-size="14.00" fill="white">ReviseWithReview</text>
</g>
<!-- n18&#45;&gt;n6 -->
<g id="edge11" class="edge"><title>n18&#45;&gt;n6</title>
<path fill="none" stroke="black" d="M839.886,-262.012C817.848,-248.82 786.331,-229.954 761.817,-215.281"/>
<polygon fill="black" stroke="black" points="763.511,-212.216 753.134,-210.083 759.916,-218.222 763.511,-212.216"/>
<text text-anchor="middle" x="814.095" y="-231.8" font-family="Times New Roman,serif" font-size="14.00">is a</text>
</g>
<!-- n19 -->
<g id="node19" class="node"><title>n19</title>
<ellipse fill="blue" stroke="black" cx="425.595" cy="-279" rx="40.8928" ry="18"/>
<text text-anchor="middle" x="425.595" y="-275.3" font-family="Times New Roman,serif" font-size="14.00" fill="white">reviewer</text>
</g>
<!-- n19&#45;&gt;n5 -->
<g id="edge12" class="edge"><title>n19&#45;&gt;n5</title>
<path fill="none" stroke="#00cd00" d="M420.635,-261.036C417.047,-250.741 411.444,-237.753 403.595,-228 400.285,-223.887 396.38,-220.02 392.25,-216.464"/>
<polygon fill="#00cd00" stroke="#00cd00" points="394.139,-213.495 384.127,-210.028 389.791,-218.982 394.139,-213.495"/>
<text text-anchor="middle" x="455.095" y="-231.8" font-family="Times New Roman,serif" font-size="14.00">subPropertyOf</text>
</g>
</g>
</svg>
