<?xml version="1.0" encoding="UTF-8" standalone="no"?>
<!DOCTYPE svg PUBLIC "-//W3C//DTD SVG 1.1//EN"
 "http://www.w3.org/Graphics/SVG/1.1/DTD/svg11.dtd">
<!-- Generated by graphviz version 2.38.0 (20140413.2041)
 -->
<!-- Title: gRv Pages: 1 -->
<svg width="1666pt" height="241pt"
 viewBox="0.00 0.00 1665.71 241.00" xmlns="http://www.w3.org/2000/svg" xmlns:xlink="http://www.w3.org/1999/xlink">
<g id="graph0" class="graph" transform="scale(1 1) rotate(0) translate(4 237)">
<title>gRv</title>
<polygon fill="white" stroke="none" points="-4,4 -4,-237 1661.71,-237 1661.71,4 -4,4"/>
<text text-anchor="middle" x="85.5" y="-217.8" font-family="Times New Roman,serif" font-size="14.00">Graph of Ontology File: Rv</text>
<!-- n1 -->
<g id="node1" class="node"><title>n1</title>
<ellipse fill="blue" stroke="black" cx="54.5952" cy="-192" rx="54.6905" ry="18"/>
<text text-anchor="middle" x="54.5952" y="-188.3" font-family="Times New Roman,serif" font-size="14.00" fill="white">governedBy</text>
</g>
<!-- n2 -->
<g id="node2" class="node"><title>n2</title>
<g id="a_node2"><a xlink:href="file:///C:/sadl/git/RACK/RACK-Ontology/Graphs/PROV-S.owl.svg" xlink:title="provs:used">
<polygon fill="none" stroke="#00cd00" points="185.34,-97.5442 185.34,-112.456 153.271,-123 107.919,-123 75.85,-112.456 75.85,-97.5442 107.919,-87 153.271,-87 185.34,-97.5442"/>
<text text-anchor="middle" x="130.595" y="-101.3" font-family="Times New Roman,serif" font-size="14.00">provs:used</text>
</a>
</g>
</g>
<!-- n1&#45;&gt;n2 -->
<g id="edge1" class="edge"><title>n1&#45;&gt;n2</title>
<path fill="none" stroke="#00cd00" d="M52.3598,-173.832C51.9096,-163.461 53.0339,-150.463 59.5952,-141 65.1161,-133.037 72.9817,-126.805 81.4817,-121.955"/>
<polygon fill="#00cd00" stroke="#00cd00" points="83.1594,-125.029 90.4974,-117.387 79.9952,-118.785 83.1594,-125.029"/>
<text text-anchor="middle" x="102.095" y="-144.8" font-family="Times New Roman,serif" font-size="14.00">subPropertyOf</text>
</g>
<!-- n3 -->
<g id="node3" class="node"><title>n3</title>
<ellipse fill="blue" stroke="black" cx="169.595" cy="-192" rx="42.7926" ry="18"/>
<text text-anchor="middle" x="169.595" y="-188.3" font-family="Times New Roman,serif" font-size="14.00" fill="white">reviewed</text>
</g>
<!-- n3&#45;&gt;n2 -->
<g id="edge2" class="edge"><title>n3&#45;&gt;n2</title>
<path fill="none" stroke="#00cd00" d="M161.89,-174.207C156.424,-162.293 148.977,-146.063 142.719,-132.424"/>
<polygon fill="#00cd00" stroke="#00cd00" points="145.769,-130.679 138.418,-123.049 139.407,-133.598 145.769,-130.679"/>
<text text-anchor="middle" x="195.095" y="-144.8" font-family="Times New Roman,serif" font-size="14.00">subPropertyOf</text>
</g>
<!-- n4 -->
<g id="node4" class="node"><title>n4</title>
<ellipse fill="blue" stroke="black" cx="317.595" cy="-192" rx="33.5952" ry="18"/>
<text text-anchor="middle" x="317.595" y="-188.3" font-family="Times New Roman,serif" font-size="14.00" fill="white">author</text>
</g>
<!-- n5 -->
<g id="node5" class="node"><title>n5</title>
<g id="a_node5"><a xlink:href="file:///C:/sadl/git/RACK/RACK-Ontology/Graphs/PROV-S.owl.svg" xlink:title="provs:wasAssociatedWith">
<polygon fill="none" stroke="#00cd00" points="470.434,-97.5442 470.434,-112.456 403.163,-123 308.027,-123 240.756,-112.456 240.756,-97.5442 308.027,-87 403.163,-87 470.434,-97.5442"/>
<text text-anchor="middle" x="355.595" y="-101.3" font-family="Times New Roman,serif" font-size="14.00">provs:wasAssociatedWith</text>
</a>
</g>
</g>
<!-- n4&#45;&gt;n5 -->
<g id="edge3" class="edge"><title>n4&#45;&gt;n5</title>
<path fill="none" stroke="#00cd00" d="M314.722,-173.622C313.848,-163.663 314.098,-151.163 318.595,-141 320.2,-137.374 322.377,-133.944 324.878,-130.753"/>
<polygon fill="#00cd00" stroke="#00cd00" points="327.482,-133.092 331.618,-123.338 322.302,-128.384 327.482,-133.092"/>
<text text-anchor="middle" x="361.095" y="-144.8" font-family="Times New Roman,serif" font-size="14.00">subPropertyOf</text>
</g>
<!-- n6 -->
<g id="node6" class="node"><title>n6</title>
<polygon fill="#00008b" stroke="black" points="829.595,-123 707.595,-123 707.595,-87 829.595,-87 829.595,-123"/>
<text text-anchor="middle" x="768.595" y="-101.3" font-family="Times New Roman,serif" font-size="14.00" fill="white">REVIEW_STATE</text>
</g>
<!-- n7 -->
<g id="node7" class="node"><title>n7</title>
<polygon fill="none" stroke="red" points="803.595,-36 733.595,-36 733.595,-0 803.595,-0 803.595,-36"/>
<text text-anchor="middle" x="768.595" y="-14.3" font-family="Times New Roman,serif" font-size="14.00">one of {}</text>
</g>
<!-- n6&#45;&gt;n7 -->
<g id="edge4" class="edge"><title>n6&#45;&gt;n7</title>
<path fill="none" stroke="red" d="M768.595,-86.799C768.595,-75.1626 768.595,-59.5479 768.595,-46.2368"/>
<polygon fill="red" stroke="red" points="772.095,-46.1754 768.595,-36.1754 765.095,-46.1755 772.095,-46.1754"/>
<text text-anchor="middle" x="791.095" y="-57.8" font-family="Times New Roman,serif" font-size="14.00">same as</text>
</g>
<!-- n8 -->
<g id="node8" class="node"><title>n8</title>
<ellipse fill="blue" stroke="black" cx="1328.6" cy="-192" rx="42.4939" ry="18"/>
<text text-anchor="middle" x="1328.6" y="-188.3" font-family="Times New Roman,serif" font-size="14.00" fill="white">createBy</text>
</g>
<!-- n9 -->
<g id="node9" class="node"><title>n9</title>
<g id="a_node9"><a xlink:href="file:///C:/sadl/git/RACK/RACK-Ontology/Graphs/PROV-S.owl.svg" xlink:title="provs:wasGeneratedBy">
<polygon fill="none" stroke="#00cd00" points="1431.52,-97.5442 1431.52,-112.456 1371.23,-123 1285.96,-123 1225.67,-112.456 1225.67,-97.5442 1285.96,-87 1371.23,-87 1431.52,-97.5442"/>
<text text-anchor="middle" x="1328.6" y="-101.3" font-family="Times New Roman,serif" font-size="14.00">provs:wasGeneratedBy</text>
</a>
</g>
</g>
<!-- n8&#45;&gt;n9 -->
<g id="edge5" class="edge"><title>n8&#45;&gt;n9</title>
<path fill="none" stroke="#00cd00" d="M1328.6,-173.799C1328.6,-162.163 1328.6,-146.548 1328.6,-133.237"/>
<polygon fill="#00cd00" stroke="#00cd00" points="1332.1,-133.175 1328.6,-123.175 1325.1,-133.175 1332.1,-133.175"/>
<text text-anchor="middle" x="1371.1" y="-144.8" font-family="Times New Roman,serif" font-size="14.00">subPropertyOf</text>
</g>
<!-- n10 -->
<g id="node10" class="node"><title>n10</title>
<ellipse fill="blue" stroke="black" cx="533.595" cy="-192" rx="36.2938" ry="18"/>
<text text-anchor="middle" x="533.595" y="-188.3" font-family="Times New Roman,serif" font-size="14.00" fill="white">Passed</text>
</g>
<!-- n10&#45;&gt;n6 -->
<g id="edge6" class="edge"><title>n10&#45;&gt;n6</title>
<path fill="none" stroke="black" d="M561.652,-180.314C567.258,-178.203 573.109,-176.018 578.595,-174 622.664,-157.791 672.666,-139.916 710.31,-126.562"/>
<polygon fill="black" stroke="black" points="711.837,-129.735 720.093,-123.095 709.498,-123.137 711.837,-129.735"/>
<text text-anchor="middle" x="677.095" y="-144.8" font-family="Times New Roman,serif" font-size="14.00">is a</text>
</g>
<!-- n11 -->
<g id="node11" class="node"><title>n11</title>
<g id="a_node11"><a xlink:href="file:///C:/sadl/git/RACK/RACK-Ontology/Graphs/PROV-S.owl.svg" xlink:title="provs:ENTITY">
<polygon fill="#00008b" stroke="black" points="1134.6,-36 1032.6,-36 1032.6,-0 1134.6,-0 1134.6,-36"/>
<text text-anchor="middle" x="1083.6" y="-14.3" font-family="Times New Roman,serif" font-size="14.00" fill="white">provs:ENTITY</text>
</a>
</g>
</g>
<!-- n12 -->
<g id="node12" class="node"><title>n12</title>
<polygon fill="#00008b" stroke="black" points="1087.1,-210 980.095,-210 980.095,-174 1087.1,-174 1087.1,-210"/>
<text text-anchor="middle" x="1033.6" y="-188.3" font-family="Times New Roman,serif" font-size="14.00" fill="white">REVIEW_LOG</text>
</g>
<!-- n11&#45;&gt;n12 -->
<g id="edge7" class="edge"><title>n11&#45;&gt;n12</title>
<path fill="none" stroke="blue" stroke-dasharray="5,2" d="M1078.64,-36.0516C1069.93,-66.0087 1051.82,-128.298 1041.41,-164.106"/>
<polygon fill="blue" stroke="blue" points="1038,-163.3 1038.57,-173.879 1044.72,-165.254 1038,-163.3"/>
<text text-anchor="middle" x="1089.6" y="-101.3" font-family="Times New Roman,serif" font-size="14.00">subClass</text>
</g>
<!-- n12&#45;&gt;n6 -->
<g id="edge17" class="edge"><title>n12&#45;&gt;n6</title>
<path fill="none" stroke="#00cd00" d="M979.934,-178.074C955.823,-171.932 927.114,-164.157 901.595,-156 874.421,-147.314 844.657,-136.272 820.188,-126.775"/>
<polygon fill="#00cd00" stroke="#00cd00" points="821.33,-123.463 810.742,-123.084 818.782,-129.983 821.33,-123.463"/>
<text text-anchor="middle" x="937.595" y="-144.8" font-family="Times New Roman,serif" font-size="14.00">reviewResult</text>
</g>
<!-- n12&#45;&gt;n11 -->
<g id="edge18" class="edge"><title>n12&#45;&gt;n11</title>
<path fill="none" stroke="#00cd00" d="M1022.6,-173.826C1010.57,-152.696 994.605,-116.053 1007.6,-87 1015.7,-68.8622 1031.31,-53.5594 1046.28,-42.0915"/>
<polygon fill="#00cd00" stroke="#00cd00" points="1048.45,-44.837 1054.48,-36.1213 1044.33,-39.1781 1048.45,-44.837"/>
<text text-anchor="middle" x="1029.1" y="-101.3" font-family="Times New Roman,serif" font-size="14.00">reviews</text>
</g>
<!-- n14 -->
<g id="node14" class="node"><title>n14</title>
<polygon fill="#00008b" stroke="black" points="1208.1,-123 1137.1,-123 1137.1,-87 1208.1,-87 1208.1,-123"/>
<text text-anchor="middle" x="1172.6" y="-101.3" font-family="Times New Roman,serif" font-size="14.00" fill="white">REVIEW</text>
</g>
<!-- n12&#45;&gt;n14 -->
<g id="edge16" class="edge"><title>n12&#45;&gt;n14</title>
<path fill="none" stroke="#00cd00" d="M1061.72,-173.799C1083.11,-160.722 1112.71,-142.622 1135.94,-128.412"/>
<polygon fill="#00cd00" stroke="#00cd00" points="1137.8,-131.378 1144.51,-123.175 1134.15,-125.407 1137.8,-131.378"/>
<text text-anchor="middle" x="1136.1" y="-144.8" font-family="Times New Roman,serif" font-size="14.00">createBy</text>
</g>
<!-- n13 -->
<g id="node13" class="node"><title>n13</title>
<g id="a_node13"><a xlink:href="file:///C:/sadl/git/RACK/RACK-Ontology/Graphs/PROV-S.owl.svg" xlink:title="provs:ACTIVITY">
<polygon fill="#00008b" stroke="black" points="1231.6,-210 1113.6,-210 1113.6,-174 1231.6,-174 1231.6,-210"/>
<text text-anchor="middle" x="1172.6" y="-188.3" font-family="Times New Roman,serif" font-size="14.00" fill="white">provs:ACTIVITY</text>
</a>
</g>
</g>
<!-- n13&#45;&gt;n14 -->
<g id="edge8" class="edge"><title>n13&#45;&gt;n14</title>
<path fill="none" stroke="blue" stroke-dasharray="5,2" d="M1172.6,-173.799C1172.6,-162.163 1172.6,-146.548 1172.6,-133.237"/>
<polygon fill="blue" stroke="blue" points="1176.1,-133.175 1172.6,-123.175 1169.1,-133.175 1176.1,-133.175"/>
<text text-anchor="middle" x="1198.6" y="-144.8" font-family="Times New Roman,serif" font-size="14.00">subClass</text>
</g>
<!-- n14&#45;&gt;n11 -->
<g id="edge14" class="edge"><title>n14&#45;&gt;n11</title>
<path fill="none" stroke="#00cd00" d="M1137.07,-93.255C1124.1,-87.7965 1110.25,-79.9423 1100.6,-69 1094.96,-62.6195 1091.18,-54.2934 1088.65,-46.2711"/>
<polygon fill="#00cd00" stroke="#00cd00" points="1091.99,-45.2208 1086.06,-36.4413 1085.22,-47.0029 1091.99,-45.2208"/>
<text text-anchor="middle" x="1125.6" y="-57.8" font-family="Times New Roman,serif" font-size="14.00">reviewed</text>
</g>
<!-- n14&#45;&gt;n11 -->
<g id="edge15" class="edge"><title>n14&#45;&gt;n11</title>
<path fill="none" stroke="#00cd00" d="M1168.13,-86.6068C1164.73,-76.1507 1159.15,-63.1429 1150.6,-54 1146.24,-49.3454 1141.13,-45.1972 1135.7,-41.5309"/>
<polygon fill="#00cd00" stroke="#00cd00" points="1137.33,-38.4227 1126.98,-36.1625 1133.66,-44.3843 1137.33,-38.4227"/>
<text text-anchor="middle" x="1195.6" y="-57.8" font-family="Times New Roman,serif" font-size="14.00">governedBy</text>
</g>
<!-- n20 -->
<g id="node20" class="node"><title>n20</title>
<g id="a_node20"><a xlink:href="file:///C:/sadl/git/RACK/RACK-Ontology/Graphs/PROV-S.owl.svg" xlink:title="provs:AGENT">
<polygon fill="#00008b" stroke="black" points="1348.1,-36 1249.1,-36 1249.1,-0 1348.1,-0 1348.1,-36"/>
<text text-anchor="middle" x="1298.6" y="-14.3" font-family="Times New Roman,serif" font-size="14.00" fill="white">provs:AGENT</text>
</a>
</g>
</g>
<!-- n14&#45;&gt;n20 -->
<g id="edge13" class="edge"><title>n14&#45;&gt;n20</title>
<path fill="none" stroke="#00cd00" d="M1204.12,-86.9868C1213.74,-81.5072 1224.25,-75.2337 1233.6,-69 1245.77,-60.8781 1258.65,-51.2168 1269.7,-42.5619"/>
<polygon fill="#00cd00" stroke="#00cd00" points="1272.09,-45.1345 1277.76,-36.1819 1267.74,-39.6472 1272.09,-45.1345"/>
<text text-anchor="middle" x="1278.1" y="-57.8" font-family="Times New Roman,serif" font-size="14.00">reviewer</text>
</g>
<!-- n14&#45;&gt;n20 -->
<g id="edge19" class="edge"><title>n14&#45;&gt;n20</title>
<path fill="none" stroke="#00cd00" d="M1208.44,-89.5808C1211.18,-88.6535 1213.92,-87.7805 1216.6,-87 1255.33,-75.6874 1280.04,-100.237 1305.6,-69 1310.88,-62.5367 1311.26,-53.9597 1309.66,-45.7372"/>
<polygon fill="#00cd00" stroke="#00cd00" points="1313.01,-44.7163 1306.92,-36.0493 1306.27,-46.6247 1313.01,-44.7163"/>
<text text-anchor="middle" x="1328.6" y="-57.8" font-family="Times New Roman,serif" font-size="14.00">author</text>
</g>
<!-- n15 -->
<g id="node15" class="node"><title>n15</title>
<ellipse fill="blue" stroke="black" cx="678.595" cy="-192" rx="90.9839" ry="18"/>
<text text-anchor="middle" x="678.595" y="-188.3" font-family="Times New Roman,serif" font-size="14.00" fill="white">ReviseWithoutReview</text>
</g>
<!-- n15&#45;&gt;n6 -->
<g id="edge9" class="edge"><title>n15&#45;&gt;n6</title>
<path fill="none" stroke="black" d="M696.376,-174.207C709.725,-161.599 728.193,-144.158 743.111,-130.068"/>
<polygon fill="black" stroke="black" points="745.676,-132.46 750.543,-123.049 740.87,-127.371 745.676,-132.46"/>
<text text-anchor="middle" x="739.095" y="-144.8" font-family="Times New Roman,serif" font-size="14.00">is a</text>
</g>
<!-- n16 -->
<g id="node16" class="node"><title>n16</title>
<ellipse fill="blue" stroke="black" cx="1553.6" cy="-192" rx="38.1938" ry="18"/>
<text text-anchor="middle" x="1553.6" y="-188.3" font-family="Times New Roman,serif" font-size="14.00" fill="white">reviews</text>
</g>
<!-- n17 -->
<g id="node17" class="node"><title>n17</title>
<g id="a_node17"><a xlink:href="file:///C:/sadl/git/RACK/RACK-Ontology/Graphs/PROV-S.owl.svg" xlink:title="provs:wasDerivedFrom">
<polygon fill="none" stroke="#00cd00" points="1657.83,-97.5442 1657.83,-112.456 1596.77,-123 1510.42,-123 1449.36,-112.456 1449.36,-97.5442 1510.42,-87 1596.77,-87 1657.83,-97.5442"/>
<text text-anchor="middle" x="1553.6" y="-101.3" font-family="Times New Roman,serif" font-size="14.00">provs:wasDerivedFrom</text>
</a>
</g>
</g>
<!-- n16&#45;&gt;n17 -->
<g id="edge10" class="edge"><title>n16&#45;&gt;n17</title>
<path fill="none" stroke="#00cd00" d="M1553.6,-173.799C1553.6,-162.163 1553.6,-146.548 1553.6,-133.237"/>
<polygon fill="#00cd00" stroke="#00cd00" points="1557.1,-133.175 1553.6,-123.175 1550.1,-133.175 1557.1,-133.175"/>
<text text-anchor="middle" x="1596.1" y="-144.8" font-family="Times New Roman,serif" font-size="14.00">subPropertyOf</text>
</g>
<!-- n18 -->
<g id="node18" class="node"><title>n18</title>
<ellipse fill="blue" stroke="black" cx="866.595" cy="-192" rx="79.0865" ry="18"/>
<text text-anchor="middle" x="866.595" y="-188.3" font-family="Times New Roman,serif" font-size="14.00" fill="white">ReviseWithReview</text>
</g>
<!-- n18&#45;&gt;n6 -->
<g id="edge11" class="edge"><title>n18&#45;&gt;n6</title>
<path fill="none" stroke="black" d="M847.234,-174.207C832.565,-161.484 812.22,-143.837 795.898,-129.681"/>
<polygon fill="black" stroke="black" points="798.1,-126.958 788.252,-123.049 793.513,-132.246 798.1,-126.958"/>
<text text-anchor="middle" x="833.095" y="-144.8" font-family="Times New Roman,serif" font-size="14.00">is a</text>
</g>
<!-- n19 -->
<g id="node19" class="node"><title>n19</title>
<ellipse fill="blue" stroke="black" cx="425.595" cy="-192" rx="40.8928" ry="18"/>
<text text-anchor="middle" x="425.595" y="-188.3" font-family="Times New Roman,serif" font-size="14.00" fill="white">reviewer</text>
</g>
<!-- n19&#45;&gt;n5 -->
<g id="edge12" class="edge"><title>n19&#45;&gt;n5</title>
<path fill="none" stroke="#00cd00" d="M420.635,-174.036C417.047,-163.741 411.444,-150.753 403.595,-141 400.285,-136.887 396.38,-133.02 392.25,-129.464"/>
<polygon fill="#00cd00" stroke="#00cd00" points="394.139,-126.495 384.127,-123.028 389.791,-131.982 394.139,-126.495"/>
<text text-anchor="middle" x="455.095" y="-144.8" font-family="Times New Roman,serif" font-size="14.00">subPropertyOf</text>
</g>
</g>
</svg>
