<?xml version="1.0" encoding="UTF-8" standalone="no"?>
<!DOCTYPE svg PUBLIC "-//W3C//DTD SVG 1.1//EN"
 "http://www.w3.org/Graphics/SVG/1.1/DTD/svg11.dtd">
<!-- Generated by graphviz version 2.38.0 (20140413.2041)
 -->
<!-- Title: gRv Pages: 1 -->
<svg width="1738pt" height="241pt"
 viewBox="0.00 0.00 1737.71 241.00" xmlns="http://www.w3.org/2000/svg" xmlns:xlink="http://www.w3.org/1999/xlink">
<g id="graph0" class="graph" transform="scale(1 1) rotate(0) translate(4 237)">
<title>gRv</title>
<polygon fill="white" stroke="none" points="-4,4 -4,-237 1733.71,-237 1733.71,4 -4,4"/>
<text text-anchor="middle" x="85.5" y="-217.8" font-family="Times New Roman,serif" font-size="14.00">Graph of Ontology File: Rv</text>
<!-- n1 -->
<g id="node1" class="node"><title>n1</title>
<ellipse fill="blue" stroke="black" cx="54.5952" cy="-192" rx="54.6905" ry="18"/>
<text text-anchor="middle" x="54.5952" y="-188.3" font-family="Times New Roman,serif" font-size="14.00" fill="white">governedBy</text>
</g>
<!-- n2 -->
<g id="node2" class="node"><title>n2</title>
<g id="a_node2"><a xlink:href="file:///C:/sadl/git/RACK/RACK-Ontology/Graphs/PROV-S.owl.svg" xlink:title="provs:used">
<polygon fill="none" stroke="#00cd00" points="185.34,-97.5442 185.34,-112.456 153.271,-123 107.919,-123 75.85,-112.456 75.85,-97.5442 107.919,-87 153.271,-87 185.34,-97.5442"/>
<text text-anchor="middle" x="130.595" y="-101.3" font-family="Times New Roman,serif" font-size="14.00">provs:used</text>
</a>
</g>
</g>
<!-- n1&#45;&gt;n2 -->
<g id="edge1" class="edge"><title>n1&#45;&gt;n2</title>
<path fill="none" stroke="#00cd00" d="M52.3598,-173.832C51.9096,-163.461 53.0339,-150.463 59.5952,-141 65.1161,-133.037 72.9817,-126.805 81.4817,-121.955"/>
<polygon fill="#00cd00" stroke="#00cd00" points="83.1594,-125.029 90.4974,-117.387 79.9952,-118.785 83.1594,-125.029"/>
<text text-anchor="middle" x="102.095" y="-144.8" font-family="Times New Roman,serif" font-size="14.00">subPropertyOf</text>
</g>
<!-- n3 -->
<g id="node3" class="node"><title>n3</title>
<ellipse fill="blue" stroke="black" cx="169.595" cy="-192" rx="42.7926" ry="18"/>
<text text-anchor="middle" x="169.595" y="-188.3" font-family="Times New Roman,serif" font-size="14.00" fill="white">reviewed</text>
</g>
<!-- n3&#45;&gt;n2 -->
<g id="edge2" class="edge"><title>n3&#45;&gt;n2</title>
<path fill="none" stroke="#00cd00" d="M161.89,-174.207C156.424,-162.293 148.977,-146.063 142.719,-132.424"/>
<polygon fill="#00cd00" stroke="#00cd00" points="145.769,-130.679 138.418,-123.049 139.407,-133.598 145.769,-130.679"/>
<text text-anchor="middle" x="195.095" y="-144.8" font-family="Times New Roman,serif" font-size="14.00">subPropertyOf</text>
</g>
<!-- n4 -->
<g id="node4" class="node"><title>n4</title>
<ellipse fill="blue" stroke="black" cx="317.595" cy="-192" rx="33.5952" ry="18"/>
<text text-anchor="middle" x="317.595" y="-188.3" font-family="Times New Roman,serif" font-size="14.00" fill="white">author</text>
</g>
<!-- n5 -->
<g id="node5" class="node"><title>n5</title>
<g id="a_node5"><a xlink:href="file:///C:/sadl/git/RACK/RACK-Ontology/Graphs/PROV-S.owl.svg" xlink:title="provs:wasAssociatedWith">
<polygon fill="none" stroke="#00cd00" points="470.434,-97.5442 470.434,-112.456 403.163,-123 308.027,-123 240.756,-112.456 240.756,-97.5442 308.027,-87 403.163,-87 470.434,-97.5442"/>
<text text-anchor="middle" x="355.595" y="-101.3" font-family="Times New Roman,serif" font-size="14.00">provs:wasAssociatedWith</text>
</a>
</g>
</g>
<!-- n4&#45;&gt;n5 -->
<g id="edge3" class="edge"><title>n4&#45;&gt;n5</title>
<path fill="none" stroke="#00cd00" d="M314.722,-173.622C313.848,-163.663 314.098,-151.163 318.595,-141 320.2,-137.374 322.377,-133.944 324.878,-130.753"/>
<polygon fill="#00cd00" stroke="#00cd00" points="327.482,-133.092 331.618,-123.338 322.302,-128.384 327.482,-133.092"/>
<text text-anchor="middle" x="361.095" y="-144.8" font-family="Times New Roman,serif" font-size="14.00">subPropertyOf</text>
</g>
<!-- n6 -->
<g id="node6" class="node"><title>n6</title>
<polygon fill="#00008b" stroke="black" points="833.595,-123 711.595,-123 711.595,-87 833.595,-87 833.595,-123"/>
<text text-anchor="middle" x="772.595" y="-101.3" font-family="Times New Roman,serif" font-size="14.00" fill="white">REVIEW_STATE</text>
</g>
<!-- n7 -->
<g id="node7" class="node"><title>n7</title>
<polygon fill="none" stroke="red" points="807.595,-36 737.595,-36 737.595,-0 807.595,-0 807.595,-36"/>
<text text-anchor="middle" x="772.595" y="-14.3" font-family="Times New Roman,serif" font-size="14.00">one of {}</text>
</g>
<!-- n6&#45;&gt;n7 -->
<g id="edge4" class="edge"><title>n6&#45;&gt;n7</title>
<path fill="none" stroke="red" d="M772.595,-86.799C772.595,-75.1626 772.595,-59.5479 772.595,-46.2368"/>
<polygon fill="red" stroke="red" points="776.095,-46.1754 772.595,-36.1754 769.095,-46.1755 776.095,-46.1754"/>
<text text-anchor="middle" x="795.095" y="-57.8" font-family="Times New Roman,serif" font-size="14.00">same as</text>
</g>
<!-- n8 -->
<g id="node8" class="node"><title>n8</title>
<ellipse fill="blue" stroke="black" cx="1400.6" cy="-192" rx="42.4939" ry="18"/>
<text text-anchor="middle" x="1400.6" y="-188.3" font-family="Times New Roman,serif" font-size="14.00" fill="white">createBy</text>
</g>
<!-- n9 -->
<g id="node9" class="node"><title>n9</title>
<g id="a_node9"><a xlink:href="file:///C:/sadl/git/RACK/RACK-Ontology/Graphs/PROV-S.owl.svg" xlink:title="provs:wasGeneratedBy">
<polygon fill="none" stroke="#00cd00" points="1503.52,-97.5442 1503.52,-112.456 1443.23,-123 1357.96,-123 1297.67,-112.456 1297.67,-97.5442 1357.96,-87 1443.23,-87 1503.52,-97.5442"/>
<text text-anchor="middle" x="1400.6" y="-101.3" font-family="Times New Roman,serif" font-size="14.00">provs:wasGeneratedBy</text>
</a>
</g>
</g>
<!-- n8&#45;&gt;n9 -->
<g id="edge5" class="edge"><title>n8&#45;&gt;n9</title>
<path fill="none" stroke="#00cd00" d="M1400.6,-173.799C1400.6,-162.163 1400.6,-146.548 1400.6,-133.237"/>
<polygon fill="#00cd00" stroke="#00cd00" points="1404.1,-133.175 1400.6,-123.175 1397.1,-133.175 1404.1,-133.175"/>
<text text-anchor="middle" x="1443.1" y="-144.8" font-family="Times New Roman,serif" font-size="14.00">subPropertyOf</text>
</g>
<!-- n10 -->
<g id="node10" class="node"><title>n10</title>
<ellipse fill="blue" stroke="black" cx="533.595" cy="-192" rx="36.2938" ry="18"/>
<text text-anchor="middle" x="533.595" y="-188.3" font-family="Times New Roman,serif" font-size="14.00" fill="white">Passed</text>
</g>
<!-- n10&#45;&gt;n6 -->
<g id="edge6" class="edge"><title>n10&#45;&gt;n6</title>
<path fill="none" stroke="black" d="M561.642,-180.285C567.248,-178.177 573.102,-176 578.595,-174 623.733,-157.566 675.033,-139.616 713.539,-126.287"/>
<polygon fill="black" stroke="black" points="714.734,-129.577 723.041,-123.001 712.447,-122.961 714.734,-129.577"/>
<text text-anchor="middle" x="679.095" y="-144.8" font-family="Times New Roman,serif" font-size="14.00">is a</text>
</g>
<!-- n11 -->
<g id="node11" class="node"><title>n11</title>
<g id="a_node11"><a xlink:href="file:///C:/sadl/git/RACK/RACK-Ontology/Graphs/PROV-S.owl.svg" xlink:title="provs:ENTITY">
<polygon fill="#00008b" stroke="black" points="1206.6,-36 1104.6,-36 1104.6,-0 1206.6,-0 1206.6,-36"/>
<text text-anchor="middle" x="1155.6" y="-14.3" font-family="Times New Roman,serif" font-size="14.00" fill="white">provs:ENTITY</text>
</a>
</g>
</g>
<!-- n12 -->
<g id="node12" class="node"><title>n12</title>
<polygon fill="#00008b" stroke="black" points="1113.1,-210 1006.1,-210 1006.1,-174 1113.1,-174 1113.1,-210"/>
<text text-anchor="middle" x="1059.6" y="-188.3" font-family="Times New Roman,serif" font-size="14.00" fill="white">REVIEW_LOG</text>
</g>
<!-- n11&#45;&gt;n12 -->
<g id="edge7" class="edge"><title>n11&#45;&gt;n12</title>
<path fill="none" stroke="blue" stroke-dasharray="5,2" d="M1148.61,-36.0009C1139.77,-56.9569 1123.63,-93.4243 1106.6,-123 1098.16,-137.651 1087.53,-153.219 1078.52,-165.757"/>
<polygon fill="blue" stroke="blue" points="1075.64,-163.76 1072.58,-173.904 1081.3,-167.882 1075.64,-163.76"/>
<text text-anchor="middle" x="1151.6" y="-101.3" font-family="Times New Roman,serif" font-size="14.00">subClass</text>
</g>
<!-- n12&#45;&gt;n6 -->
<g id="edge17" class="edge"><title>n12&#45;&gt;n6</title>
<path fill="none" stroke="#00cd00" d="M1005.87,-181.961C961.914,-174.294 903.413,-163.393 880.595,-156 867.828,-151.863 840.209,-139.05 816.098,-127.431"/>
<polygon fill="#00cd00" stroke="#00cd00" points="817.593,-124.266 807.067,-123.057 814.541,-130.566 817.593,-124.266"/>
<text text-anchor="middle" x="916.595" y="-144.8" font-family="Times New Roman,serif" font-size="14.00">reviewResult</text>
</g>
<!-- n12&#45;&gt;n11 -->
<g id="edge18" class="edge"><title>n12&#45;&gt;n11</title>
<path fill="none" stroke="#00cd00" d="M1054.99,-173.666C1050.23,-152.05 1045.33,-114.585 1059.6,-87 1069.75,-67.3556 1088.49,-52.1636 1106.74,-41.1721"/>
<polygon fill="#00cd00" stroke="#00cd00" points="1108.66,-44.1053 1115.62,-36.1126 1105.19,-38.0237 1108.66,-44.1053"/>
<text text-anchor="middle" x="1081.1" y="-101.3" font-family="Times New Roman,serif" font-size="14.00">reviews</text>
</g>
<!-- n14 -->
<g id="node14" class="node"><title>n14</title>
<polygon fill="#00008b" stroke="black" points="1280.1,-123 1209.1,-123 1209.1,-87 1280.1,-87 1280.1,-123"/>
<text text-anchor="middle" x="1244.6" y="-101.3" font-family="Times New Roman,serif" font-size="14.00" fill="white">REVIEW</text>
</g>
<!-- n12&#45;&gt;n14 -->
<g id="edge16" class="edge"><title>n12&#45;&gt;n14</title>
<path fill="none" stroke="#00cd00" d="M1106.73,-173.83C1120.67,-168.442 1135.87,-162.258 1149.6,-156 1168.2,-147.521 1188.3,-137.128 1205.2,-128.019"/>
<polygon fill="#00cd00" stroke="#00cd00" points="1207.12,-130.961 1214.23,-123.111 1203.77,-124.811 1207.12,-130.961"/>
<text text-anchor="middle" x="1204.1" y="-144.8" font-family="Times New Roman,serif" font-size="14.00">createBy</text>
</g>
<!-- n21 -->
<g id="node21" class="node"><title>n21</title>
<g id="a_node21"><a xlink:href="file:///C:/sadl/git/RACK/RACK-Ontology/Graphs/XMLSchema.svg" xlink:title="xsd:string">
<polygon fill="#00008b" stroke="black" points="996.095,-123 925.095,-123 925.095,-87 996.095,-87 996.095,-123"/>
<text text-anchor="middle" x="960.595" y="-101.3" font-family="Times New Roman,serif" font-size="14.00" fill="white">xsd:string</text>
</a>
</g>
</g>
<!-- n12&#45;&gt;n21 -->
<g id="edge20" class="edge"><title>n12&#45;&gt;n21</title>
<path fill="none" stroke="#00cd00" d="M1006.02,-184.034C989.067,-179.039 972.044,-170.516 961.595,-156 956.94,-149.532 955.494,-141.276 955.555,-133.344"/>
<polygon fill="#00cd00" stroke="#00cd00" points="959.051,-133.529 956.359,-123.281 952.073,-132.971 959.051,-133.529"/>
<text text-anchor="middle" x="1003.6" y="-144.8" font-family="Times New Roman,serif" font-size="14.00">uniqueIdentifer</text>
</g>
<!-- n13 -->
<g id="node13" class="node"><title>n13</title>
<g id="a_node13"><a xlink:href="file:///C:/sadl/git/RACK/RACK-Ontology/Graphs/PROV-S.owl.svg" xlink:title="provs:ACTIVITY">
<polygon fill="#00008b" stroke="black" points="1303.6,-210 1185.6,-210 1185.6,-174 1303.6,-174 1303.6,-210"/>
<text text-anchor="middle" x="1244.6" y="-188.3" font-family="Times New Roman,serif" font-size="14.00" fill="white">provs:ACTIVITY</text>
</a>
</g>
</g>
<!-- n13&#45;&gt;n14 -->
<g id="edge8" class="edge"><title>n13&#45;&gt;n14</title>
<path fill="none" stroke="blue" stroke-dasharray="5,2" d="M1244.6,-173.799C1244.6,-162.163 1244.6,-146.548 1244.6,-133.237"/>
<polygon fill="blue" stroke="blue" points="1248.1,-133.175 1244.6,-123.175 1241.1,-133.175 1248.1,-133.175"/>
<text text-anchor="middle" x="1270.6" y="-144.8" font-family="Times New Roman,serif" font-size="14.00">subClass</text>
</g>
<!-- n14&#45;&gt;n11 -->
<g id="edge14" class="edge"><title>n14&#45;&gt;n11</title>
<path fill="none" stroke="#00cd00" d="M1209.07,-93.255C1196.1,-87.7965 1182.25,-79.9423 1172.6,-69 1166.96,-62.6195 1163.18,-54.2934 1160.65,-46.2711"/>
<polygon fill="#00cd00" stroke="#00cd00" points="1163.99,-45.2208 1158.06,-36.4413 1157.22,-47.0029 1163.99,-45.2208"/>
<text text-anchor="middle" x="1197.6" y="-57.8" font-family="Times New Roman,serif" font-size="14.00">reviewed</text>
</g>
<!-- n14&#45;&gt;n11 -->
<g id="edge15" class="edge"><title>n14&#45;&gt;n11</title>
<path fill="none" stroke="#00cd00" d="M1240.13,-86.6068C1236.73,-76.1507 1231.15,-63.1429 1222.6,-54 1218.24,-49.3454 1213.13,-45.1972 1207.7,-41.5309"/>
<polygon fill="#00cd00" stroke="#00cd00" points="1209.33,-38.4227 1198.98,-36.1625 1205.66,-44.3843 1209.33,-38.4227"/>
<text text-anchor="middle" x="1267.6" y="-57.8" font-family="Times New Roman,serif" font-size="14.00">governedBy</text>
</g>
<!-- n20 -->
<g id="node20" class="node"><title>n20</title>
<g id="a_node20"><a xlink:href="file:///C:/sadl/git/RACK/RACK-Ontology/Graphs/PROV-S.owl.svg" xlink:title="provs:AGENT">
<polygon fill="#00008b" stroke="black" points="1414.1,-36 1315.1,-36 1315.1,-0 1414.1,-0 1414.1,-36"/>
<text text-anchor="middle" x="1364.6" y="-14.3" font-family="Times New Roman,serif" font-size="14.00" fill="white">provs:AGENT</text>
</a>
</g>
</g>
<!-- n14&#45;&gt;n20 -->
<g id="edge13" class="edge"><title>n14&#45;&gt;n20</title>
<path fill="none" stroke="#00cd00" d="M1280.45,-89.6155C1283.19,-88.6803 1285.93,-87.7959 1288.6,-87 1325.18,-76.086 1348.59,-98.692 1372.6,-69 1377.86,-62.4872 1378.1,-53.8976 1376.32,-45.6787"/>
<polygon fill="#00cd00" stroke="#00cd00" points="1379.63,-44.539 1373.36,-36.0019 1372.94,-46.5884 1379.63,-44.539"/>
<text text-anchor="middle" x="1401.1" y="-57.8" font-family="Times New Roman,serif" font-size="14.00">reviewer</text>
</g>
<!-- n14&#45;&gt;n20 -->
<g id="edge19" class="edge"><title>n14&#45;&gt;n20</title>
<path fill="none" stroke="#00cd00" d="M1276.93,-86.899C1286.39,-81.5127 1296.6,-75.3127 1305.6,-69 1316.87,-61.0879 1328.58,-51.4887 1338.57,-42.8247"/>
<polygon fill="#00cd00" stroke="#00cd00" points="1340.98,-45.3644 1346.17,-36.1269 1336.35,-40.1126 1340.98,-45.3644"/>
<text text-anchor="middle" x="1342.6" y="-57.8" font-family="Times New Roman,serif" font-size="14.00">author</text>
</g>
<!-- n15 -->
<g id="node15" class="node"><title>n15</title>
<ellipse fill="blue" stroke="black" cx="678.595" cy="-192" rx="90.9839" ry="18"/>
<text text-anchor="middle" x="678.595" y="-188.3" font-family="Times New Roman,serif" font-size="14.00" fill="white">ReviseWithoutReview</text>
</g>
<!-- n15&#45;&gt;n6 -->
<g id="edge9" class="edge"><title>n15&#45;&gt;n6</title>
<path fill="none" stroke="black" d="M697.167,-174.207C711.109,-161.599 730.397,-144.158 745.978,-130.068"/>
<polygon fill="black" stroke="black" points="748.671,-132.352 753.741,-123.049 743.976,-127.16 748.671,-132.352"/>
<text text-anchor="middle" x="741.095" y="-144.8" font-family="Times New Roman,serif" font-size="14.00">is a</text>
</g>
<!-- n16 -->
<g id="node16" class="node"><title>n16</title>
<ellipse fill="blue" stroke="black" cx="1625.6" cy="-192" rx="38.1938" ry="18"/>
<text text-anchor="middle" x="1625.6" y="-188.3" font-family="Times New Roman,serif" font-size="14.00" fill="white">reviews</text>
</g>
<!-- n17 -->
<g id="node17" class="node"><title>n17</title>
<g id="a_node17"><a xlink:href="file:///C:/sadl/git/RACK/RACK-Ontology/Graphs/PROV-S.owl.svg" xlink:title="provs:wasDerivedFrom">
<polygon fill="none" stroke="#00cd00" points="1729.83,-97.5442 1729.83,-112.456 1668.77,-123 1582.42,-123 1521.36,-112.456 1521.36,-97.5442 1582.42,-87 1668.77,-87 1729.83,-97.5442"/>
<text text-anchor="middle" x="1625.6" y="-101.3" font-family="Times New Roman,serif" font-size="14.00">provs:wasDerivedFrom</text>
</a>
</g>
</g>
<!-- n16&#45;&gt;n17 -->
<g id="edge10" class="edge"><title>n16&#45;&gt;n17</title>
<path fill="none" stroke="#00cd00" d="M1625.6,-173.799C1625.6,-162.163 1625.6,-146.548 1625.6,-133.237"/>
<polygon fill="#00cd00" stroke="#00cd00" points="1629.1,-133.175 1625.6,-123.175 1622.1,-133.175 1629.1,-133.175"/>
<text text-anchor="middle" x="1668.1" y="-144.8" font-family="Times New Roman,serif" font-size="14.00">subPropertyOf</text>
</g>
<!-- n18 -->
<g id="node18" class="node"><title>n18</title>
<ellipse fill="blue" stroke="black" cx="866.595" cy="-192" rx="79.0865" ry="18"/>
<text text-anchor="middle" x="866.595" y="-188.3" font-family="Times New Roman,serif" font-size="14.00" fill="white">ReviseWithReview</text>
</g>
<!-- n18&#45;&gt;n6 -->
<g id="edge11" class="edge"><title>n18&#45;&gt;n6</title>
<path fill="none" stroke="black" d="M846.267,-174.551C839.304,-168.788 831.525,-162.205 824.595,-156 815.594,-147.941 805.993,-138.855 797.522,-130.661"/>
<polygon fill="black" stroke="black" points="799.715,-127.912 790.11,-123.442 794.831,-132.927 799.715,-127.912"/>
<text text-anchor="middle" x="834.095" y="-144.8" font-family="Times New Roman,serif" font-size="14.00">is a</text>
</g>
<!-- n19 -->
<g id="node19" class="node"><title>n19</title>
<ellipse fill="blue" stroke="black" cx="425.595" cy="-192" rx="40.8928" ry="18"/>
<text text-anchor="middle" x="425.595" y="-188.3" font-family="Times New Roman,serif" font-size="14.00" fill="white">reviewer</text>
</g>
<!-- n19&#45;&gt;n5 -->
<g id="edge12" class="edge"><title>n19&#45;&gt;n5</title>
<path fill="none" stroke="#00cd00" d="M420.635,-174.036C417.047,-163.741 411.444,-150.753 403.595,-141 400.285,-136.887 396.38,-133.02 392.25,-129.464"/>
<polygon fill="#00cd00" stroke="#00cd00" points="394.139,-126.495 384.127,-123.028 389.791,-131.982 394.139,-126.495"/>
<text text-anchor="middle" x="455.095" y="-144.8" font-family="Times New Roman,serif" font-size="14.00">subPropertyOf</text>
</g>
</g>
</svg>
