<?xml version="1.0" encoding="UTF-8" standalone="no"?>
<!DOCTYPE svg PUBLIC "-//W3C//DTD SVG 1.1//EN"
 "http://www.w3.org/Graphics/SVG/1.1/DTD/svg11.dtd">
<!-- Generated by graphviz version 2.38.0 (20140413.2041)
 -->
<!-- Title: gsacms Pages: 1 -->
<svg width="1171pt" height="241pt"
 viewBox="0.00 0.00 1171.34 241.00" xmlns="http://www.w3.org/2000/svg" xmlns:xlink="http://www.w3.org/1999/xlink">
<g id="graph0" class="graph" transform="scale(1 1) rotate(0) translate(4 237)">
<title>gsacms</title>
<polygon fill="white" stroke="none" points="-4,4 -4,-237 1167.34,-237 1167.34,4 -4,4"/>
<text text-anchor="middle" x="95" y="-217.8" font-family="Times New Roman,serif" font-size="14.00">Graph of Ontology File: sacms</text>
<!-- n1 -->
<g id="node1" class="node"><title>n1</title>
<ellipse fill="blue" stroke="black" cx="90.342" cy="-192" rx="90.1842" ry="18"/>
<text text-anchor="middle" x="90.342" y="-188.3" font-family="Times New Roman,serif" font-size="14.00" fill="white">argumentationElement</text>
</g>
<!-- n2 -->
<g id="node2" class="node"><title>n2</title>
<g id="a_node2"><a xlink:href="file:///C:/Users/200001866/Documents/GitHub/RACK/RACK-Ontology/Graphs/PROV-S.owl.svg" xlink:title="provs:wasDerivedFrom">
<polygon fill="none" stroke="#00cd00" points="402.576,-97.5442 402.576,-112.456 341.517,-123 255.167,-123 194.108,-112.456 194.108,-97.5442 255.167,-87 341.517,-87 402.576,-97.5442"/>
<text text-anchor="middle" x="298.342" y="-101.3" font-family="Times New Roman,serif" font-size="14.00">provs:wasDerivedFrom</text>
</a>
</g>
</g>
<!-- n1&#45;&gt;n2 -->
<g id="edge1" class="edge"><title>n1&#45;&gt;n2</title>
<path fill="none" stroke="#00cd00" d="M106.802,-174.291C118.539,-163.292 135.217,-149.42 152.342,-141 171.036,-131.808 192.288,-124.944 212.678,-119.851"/>
<polygon fill="#00cd00" stroke="#00cd00" points="213.685,-123.209 222.604,-117.49 212.066,-116.399 213.685,-123.209"/>
<text text-anchor="middle" x="194.842" y="-144.8" font-family="Times New Roman,serif" font-size="14.00">subPropertyOf</text>
</g>
<!-- n3 -->
<g id="node3" class="node"><title>n3</title>
<ellipse fill="blue" stroke="black" cx="244.342" cy="-192" rx="45.4919" ry="18"/>
<text text-anchor="middle" x="244.342" y="-188.3" font-family="Times New Roman,serif" font-size="14.00" fill="white">reasoning</text>
</g>
<!-- n3&#45;&gt;n2 -->
<g id="edge2" class="edge"><title>n3&#45;&gt;n2</title>
<path fill="none" stroke="#00cd00" d="M240.872,-173.77C239.723,-163.625 239.895,-150.886 245.342,-141 247.68,-136.757 250.777,-132.939 254.303,-129.525"/>
<polygon fill="#00cd00" stroke="#00cd00" points="256.596,-132.171 262.038,-123.081 252.115,-126.793 256.596,-132.171"/>
<text text-anchor="middle" x="287.842" y="-144.8" font-family="Times New Roman,serif" font-size="14.00">subPropertyOf</text>
</g>
<!-- n4 -->
<g id="node4" class="node"><title>n4</title>
<g id="a_node4"><a xlink:href="file:///C:/Users/200001866/Documents/GitHub/RACK/RACK-Ontology/Graphs/PROV-S.owl.svg" xlink:title="provs:ENTITY">
<polygon fill="#00008b" stroke="black" points="732.342,-123 630.342,-123 630.342,-87 732.342,-87 732.342,-123"/>
<text text-anchor="middle" x="681.342" y="-101.3" font-family="Times New Roman,serif" font-size="14.00" fill="white">provs:ENTITY</text>
</a>
</g>
</g>
<!-- n5 -->
<g id="node5" class="node"><title>n5</title>
<polygon fill="#00008b" stroke="black" points="305.842,-36 144.842,-36 144.842,-0 305.842,-0 305.842,-36"/>
<text text-anchor="middle" x="225.342" y="-14.3" font-family="Times New Roman,serif" font-size="14.00" fill="white">ASSERTED_CONTEXT</text>
</g>
<!-- n4&#45;&gt;n5 -->
<g id="edge3" class="edge"><title>n4&#45;&gt;n5</title>
<path fill="none" stroke="blue" stroke-dasharray="5,2" d="M629.952,-98.8069C577.489,-93.0958 493.837,-82.8567 422.342,-69 379.731,-60.7413 332.585,-48.8753 295.102,-38.7753"/>
<polygon fill="blue" stroke="blue" points="295.862,-35.3551 285.294,-36.1137 294.028,-42.1107 295.862,-35.3551"/>
<text text-anchor="middle" x="448.342" y="-57.8" font-family="Times New Roman,serif" font-size="14.00">subClass</text>
</g>
<!-- n6 -->
<g id="node6" class="node"><title>n6</title>
<polygon fill="#00008b" stroke="black" points="508.342,-36 324.342,-36 324.342,-0 508.342,-0 508.342,-36"/>
<text text-anchor="middle" x="416.342" y="-14.3" font-family="Times New Roman,serif" font-size="14.00" fill="white">ARGUMENT_REASONING</text>
</g>
<!-- n4&#45;&gt;n6 -->
<g id="edge4" class="edge"><title>n4&#45;&gt;n6</title>
<path fill="none" stroke="blue" stroke-dasharray="5,2" d="M630.227,-97.6049C595.44,-92.2898 548.745,-83.2504 509.342,-69 489.561,-61.8459 468.827,-51.0593 451.97,-41.3341"/>
<polygon fill="blue" stroke="blue" points="453.427,-38.1301 443.034,-36.0702 449.874,-44.1615 453.427,-38.1301"/>
<text text-anchor="middle" x="535.342" y="-57.8" font-family="Times New Roman,serif" font-size="14.00">subClass</text>
</g>
<!-- n8 -->
<g id="node8" class="node"><title>n8</title>
<polygon fill="#00008b" stroke="black" points="698.342,-36 526.342,-36 526.342,-0 698.342,-0 698.342,-36"/>
<text text-anchor="middle" x="612.342" y="-14.3" font-family="Times New Roman,serif" font-size="14.00" fill="white">ASSERTED_INFERENCE</text>
</g>
<!-- n4&#45;&gt;n8 -->
<g id="edge6" class="edge"><title>n4&#45;&gt;n8</title>
<path fill="none" stroke="blue" stroke-dasharray="5,2" d="M630.187,-101.357C607.428,-97.3148 582.6,-88.3419 568.342,-69 561.749,-60.056 566.305,-50.7815 574.569,-42.6849"/>
<polygon fill="blue" stroke="blue" points="576.859,-45.3323 582.22,-36.1939 572.33,-39.9945 576.859,-45.3323"/>
<text text-anchor="middle" x="594.342" y="-57.8" font-family="Times New Roman,serif" font-size="14.00">subClass</text>
</g>
<!-- n9 -->
<g id="node9" class="node"><title>n9</title>
<polygon fill="#00008b" stroke="black" points="885.842,-36 716.842,-36 716.842,-0 885.842,-0 885.842,-36"/>
<text text-anchor="middle" x="801.342" y="-14.3" font-family="Times New Roman,serif" font-size="14.00" fill="white">ARGUMENT_PACKAGE</text>
</g>
<!-- n4&#45;&gt;n9 -->
<g id="edge7" class="edge"><title>n4&#45;&gt;n9</title>
<path fill="none" stroke="blue" stroke-dasharray="5,2" d="M691.52,-86.904C698.533,-76.2991 708.671,-63.0227 720.342,-54 726.962,-48.8818 734.445,-44.3543 742.122,-40.3984"/>
<polygon fill="blue" stroke="blue" points="743.703,-43.5213 751.181,-36.016 740.655,-37.2199 743.703,-43.5213"/>
<text text-anchor="middle" x="746.342" y="-57.8" font-family="Times New Roman,serif" font-size="14.00">subClass</text>
</g>
<!-- n10 -->
<g id="node10" class="node"><title>n10</title>
<polygon fill="#00008b" stroke="black" points="970.842,-36 909.842,-36 909.842,-0 970.842,-0 970.842,-36"/>
<text text-anchor="middle" x="940.342" y="-14.3" font-family="Times New Roman,serif" font-size="14.00" fill="white">CLAIM</text>
</g>
<!-- n4&#45;&gt;n10 -->
<g id="edge8" class="edge"><title>n4&#45;&gt;n10</title>
<path fill="none" stroke="blue" stroke-dasharray="5,2" d="M732.436,-101.446C791.427,-97.6159 883.991,-88.6192 912.342,-69 920.633,-63.2625 926.748,-54.2319 931.11,-45.4146"/>
<polygon fill="blue" stroke="blue" points="934.384,-46.6618 935.175,-36.0965 927.968,-43.8624 934.384,-46.6618"/>
<text text-anchor="middle" x="952.342" y="-57.8" font-family="Times New Roman,serif" font-size="14.00">subClass</text>
</g>
<!-- n11 -->
<g id="node11" class="node"><title>n11</title>
<polygon fill="#00008b" stroke="black" points="1163.34,-36 989.342,-36 989.342,-0 1163.34,-0 1163.34,-36"/>
<text text-anchor="middle" x="1076.34" y="-14.3" font-family="Times New Roman,serif" font-size="14.00" fill="white">ARTIFACT_REFERENCE</text>
</g>
<!-- n4&#45;&gt;n11 -->
<g id="edge9" class="edge"><title>n4&#45;&gt;n11</title>
<path fill="none" stroke="blue" stroke-dasharray="5,2" d="M732.596,-103.792C793.474,-102.245 897.465,-95.4703 982.342,-69 1003.08,-62.5328 1024.59,-51.467 1041.79,-41.3872"/>
<polygon fill="blue" stroke="blue" points="1043.59,-44.3857 1050.36,-36.2356 1039.99,-38.3853 1043.59,-44.3857"/>
<text text-anchor="middle" x="1043.34" y="-57.8" font-family="Times New Roman,serif" font-size="14.00">subClass</text>
</g>
<!-- n7 -->
<g id="node7" class="node"><title>n7</title>
<ellipse fill="blue" stroke="black" cx="352.342" cy="-192" rx="30.5947" ry="18"/>
<text text-anchor="middle" x="352.342" y="-188.3" font-family="Times New Roman,serif" font-size="14.00" fill="white">target</text>
</g>
<!-- n7&#45;&gt;n2 -->
<g id="edge5" class="edge"><title>n7&#45;&gt;n2</title>
<path fill="none" stroke="#00cd00" d="M346.492,-174.092C342.642,-164.061 337.073,-151.329 330.342,-141 328.129,-137.605 325.585,-134.222 322.918,-130.971"/>
<polygon fill="#00cd00" stroke="#00cd00" points="325.371,-128.459 316.154,-123.233 320.1,-133.066 325.371,-128.459"/>
<text text-anchor="middle" x="381.842" y="-144.8" font-family="Times New Roman,serif" font-size="14.00">subPropertyOf</text>
</g>
<!-- n8&#45;&gt;n4 -->
<g id="edge11" class="edge"><title>n8&#45;&gt;n4</title>
<path fill="none" stroke="#00cd00" d="M621.595,-36.4425C627.263,-46.4233 635.013,-58.9233 643.342,-69 646.396,-72.6943 649.83,-76.3713 653.353,-79.8773"/>
<polygon fill="#00cd00" stroke="#00cd00" points="650.958,-82.4296 660.617,-86.7844 655.782,-77.357 650.958,-82.4296"/>
<text text-anchor="middle" x="670.342" y="-57.8" font-family="Times New Roman,serif" font-size="14.00">reasoning</text>
</g>
<!-- n9&#45;&gt;n4 -->
<g id="edge14" class="edge"><title>n9&#45;&gt;n4</title>
<path fill="none" stroke="#00cd00" d="M794.831,-36.298C790.039,-46.9835 782.573,-60.2738 772.342,-69 763.477,-76.5613 752.8,-82.5869 741.926,-87.3559"/>
<polygon fill="#00cd00" stroke="#00cd00" points="740.315,-84.2322 732.36,-91.2304 742.943,-90.7202 740.315,-84.2322"/>
<text text-anchor="middle" x="846.842" y="-57.8" font-family="Times New Roman,serif" font-size="14.00">argumentationElement</text>
</g>
<!-- n12 -->
<g id="node12" class="node"><title>n12</title>
<ellipse fill="blue" stroke="black" cx="460.342" cy="-192" rx="35.194" ry="18"/>
<text text-anchor="middle" x="460.342" y="-188.3" font-family="Times New Roman,serif" font-size="14.00" fill="white">source</text>
</g>
<!-- n12&#45;&gt;n2 -->
<g id="edge10" class="edge"><title>n12&#45;&gt;n2</title>
<path fill="none" stroke="#00cd00" d="M453.526,-174.281C448.218,-163.278 439.815,-149.405 428.342,-141 415.891,-131.879 401.213,-125.135 386.286,-120.148"/>
<polygon fill="#00cd00" stroke="#00cd00" points="387.05,-116.721 376.462,-117.117 384.986,-123.409 387.05,-116.721"/>
<text text-anchor="middle" x="484.842" y="-144.8" font-family="Times New Roman,serif" font-size="14.00">subPropertyOf</text>
</g>
<!-- n13 -->
<g id="node13" class="node"><title>n13</title>
<polygon fill="#00008b" stroke="black" points="849.342,-210 513.342,-210 513.342,-174 849.342,-174 849.342,-210"/>
<text text-anchor="middle" x="681.342" y="-188.3" font-family="Times New Roman,serif" font-size="14.00" fill="white">ASSERTED_CONTEXT or ASSERTED_INFERENCE</text>
</g>
<!-- n13&#45;&gt;n4 -->
<g id="edge12" class="edge"><title>n13&#45;&gt;n4</title>
<path fill="none" stroke="#00cd00" d="M664.347,-173.558C657.322,-164.219 651.593,-152.333 655.342,-141 656.388,-137.838 657.842,-134.729 659.534,-131.748"/>
<polygon fill="#00cd00" stroke="#00cd00" points="662.548,-133.536 665.149,-123.265 656.711,-129.672 662.548,-133.536"/>
<text text-anchor="middle" x="670.842" y="-144.8" font-family="Times New Roman,serif" font-size="14.00">target</text>
</g>
<!-- n13&#45;&gt;n4 -->
<g id="edge13" class="edge"><title>n13&#45;&gt;n4</title>
<path fill="none" stroke="#00cd00" d="M684.503,-173.896C685.922,-164.248 687.121,-151.964 686.342,-141 686.159,-138.428 685.902,-135.759 685.599,-133.092"/>
<polygon fill="#00cd00" stroke="#00cd00" points="689.051,-132.493 684.27,-123.038 682.111,-133.41 689.051,-132.493"/>
<text text-anchor="middle" x="706.342" y="-144.8" font-family="Times New Roman,serif" font-size="14.00">source</text>
</g>
</g>
</svg>
