<?xml version="1.0" encoding="UTF-8" standalone="no"?>
<!DOCTYPE svg PUBLIC "-//W3C//DTD SVG 1.1//EN"
 "http://www.w3.org/Graphics/SVG/1.1/DTD/svg11.dtd">
<!-- Generated by graphviz version 2.38.0 (20140413.2041)
 -->
<!-- Title: gsadllistmodel Pages: 1 -->
<svg width="378pt" height="154pt"
 viewBox="0.00 0.00 377.52 154.00" xmlns="http://www.w3.org/2000/svg" xmlns:xlink="http://www.w3.org/1999/xlink">
<g id="graph0" class="graph" transform="scale(1 1) rotate(0) translate(4 150)">
<title>gsadllistmodel</title>
<polygon fill="white" stroke="none" points="-4,4 -4,-150 373.522,-150 373.522,4 -4,4"/>
<text text-anchor="middle" x="113.5" y="-130.8" font-family="Times New Roman,serif" font-size="14.00">Graph of Ontology File: sadllistmodel</text>
<!-- n1 -->
<g id="node1" class="node"><title>n1</title>
<polygon fill="#00008b" stroke="black" points="178.522,-123 124.522,-123 124.522,-87 178.522,-87 178.522,-123"/>
<text text-anchor="middle" x="151.522" y="-101.3" font-family="Times New Roman,serif" font-size="14.00" fill="white">List</text>
</g>
<!-- n1&#45;&gt;n1 -->
<g id="edge3" class="edge"><title>n1&#45;&gt;n1</title>
<path fill="none" stroke="#00cd00" d="M178.763,-112.867C188.546,-113.036 196.522,-110.414 196.522,-105 196.522,-101.701 193.561,-99.4382 189.033,-98.2123"/>
<polygon fill="#00cd00" stroke="#00cd00" points="189.074,-94.6975 178.763,-97.1327 188.342,-101.659 189.074,-94.6975"/>
<text text-anchor="middle" x="207.022" y="-101.3" font-family="Times New Roman,serif" font-size="14.00">rest</text>
</g>
<!-- n2 -->
<g id="node2" class="node"><title>n2</title>
<g id="a_node2"><a xlink:href="file:///C:/Sadl3Workspace4/RACK-Ontology-7-29/Graphs/XMLSchema.svg" xlink:title="xsd:int">
<polygon fill="#00008b" stroke="black" points="178.522,-36 124.522,-36 124.522,-0 178.522,-0 178.522,-36"/>
<text text-anchor="middle" x="151.522" y="-14.3" font-family="Times New Roman,serif" font-size="14.00" fill="white">xsd:int</text>
</a>
</g>
</g>
<!-- n1&#45;&gt;n2 -->
<g id="edge1" class="edge"><title>n1&#45;&gt;n2</title>
<path fill="none" stroke="#00cd00" d="M124.268,-101.384C86.4036,-97.1215 20.9003,-87.2613 6.52246,-69 -23.3745,-31.0279 62.003,-21.766 114.23,-19.5912"/>
<polygon fill="#00cd00" stroke="#00cd00" points="114.631,-23.0796 124.504,-19.2356 114.389,-16.0837 114.631,-23.0796"/>
<text text-anchor="middle" x="68.0225" y="-57.8" font-family="Times New Roman,serif" font-size="14.00">maxLengthRestriction</text>
</g>
<!-- n1&#45;&gt;n2 -->
<g id="edge2" class="edge"><title>n1&#45;&gt;n2</title>
<path fill="none" stroke="#00cd00" d="M151.522,-86.799C151.522,-75.1626 151.522,-59.5479 151.522,-46.2368"/>
<polygon fill="#00cd00" stroke="#00cd00" points="155.023,-46.1754 151.522,-36.1754 148.023,-46.1755 155.023,-46.1754"/>
<text text-anchor="middle" x="198.522" y="-57.8" font-family="Times New Roman,serif" font-size="14.00">lengthRestriction</text>
</g>
<!-- n1&#45;&gt;n2 -->
<g id="edge4" class="edge"><title>n1&#45;&gt;n2</title>
<path fill="none" stroke="#00cd00" d="M178.696,-102.153C201.018,-99.036 231.342,-90.7709 246.522,-69 263.574,-44.546 222.23,-31.1307 188.806,-24.5066"/>
<polygon fill="#00cd00" stroke="#00cd00" points="189.228,-21.0257 178.761,-22.6641 187.965,-27.9108 189.228,-21.0257"/>
<text text-anchor="middle" x="309.522" y="-57.8" font-family="Times New Roman,serif" font-size="14.00">minLengthRestriction</text>
</g>
</g>
</svg>
