<?xml version="1.0" encoding="UTF-8" standalone="no"?>
<!DOCTYPE svg PUBLIC "-//W3C//DTD SVG 1.1//EN"
 "http://www.w3.org/Graphics/SVG/1.1/DTD/svg11.dtd">
<!-- Generated by graphviz version 2.38.0 (20140413.2041)
 -->
<!-- Title: gsadlimplicitmodel Pages: 1 -->
<svg width="3250pt" height="1099pt"
 viewBox="0.00 0.00 3250.40 1099.00" xmlns="http://www.w3.org/2000/svg" xmlns:xlink="http://www.w3.org/1999/xlink">
<g id="graph0" class="graph" transform="scale(1 1) rotate(0) translate(4 1095)">
<title>gsadlimplicitmodel</title>
<polygon fill="white" stroke="none" points="-4,4 -4,-1095 3246.4,-1095 3246.4,4 -4,4"/>
<text text-anchor="middle" x="126" y="-1075.8" font-family="Times New Roman,serif" font-size="14.00">Graph of Ontology File: sadlimplicitmodel</text>
<!-- n1 -->
<g id="node1" class="node"><title>n1</title>
<ellipse fill="blue" stroke="black" cx="340.397" cy="-876" rx="27" ry="18"/>
<text text-anchor="middle" x="340.397" y="-872.3" font-family="Times New Roman,serif" font-size="14.00" fill="white">Java</text>
</g>
<!-- n2 -->
<g id="node2" class="node"><title>n2</title>
<polygon fill="#00008b" stroke="black" points="264.397,-792 194.397,-792 194.397,-756 264.397,-756 264.397,-792"/>
<text text-anchor="middle" x="229.397" y="-770.3" font-family="Times New Roman,serif" font-size="14.00" fill="white">Language</text>
</g>
<!-- n1&#45;&gt;n2 -->
<g id="edge1" class="edge"><title>n1&#45;&gt;n2</title>
<path fill="none" stroke="black" d="M324.963,-861.095C307.136,-845.036 277.502,-818.338 255.952,-798.924"/>
<polygon fill="black" stroke="black" points="258.188,-796.227 248.415,-792.134 253.502,-801.428 258.188,-796.227"/>
<text text-anchor="middle" x="310.897" y="-821.3" font-family="Times New Roman,serif" font-size="14.00">is a</text>
</g>
<!-- n3 -->
<g id="node3" class="node"><title>n3</title>
<ellipse fill="#00008b" stroke="black" cx="3095.4" cy="-585" rx="59.2899" ry="18"/>
<text text-anchor="middle" x="3095.4" y="-581.3" font-family="Times New Roman,serif" font-size="14.00" fill="white">anyDataType</text>
</g>
<!-- n4 -->
<g id="node4" class="node"><title>n4</title>
<g id="a_node4"><a xlink:href="file:///C:/Sadl3Workspace4/RACK-Ontology-7-29/Graphs/rdf-schema.svg" xlink:title="rdfs::Datatype">
<polygon fill="#00008b" stroke="black" points="2856.9,-501 2761.9,-501 2761.9,-465 2856.9,-465 2856.9,-501"/>
<text text-anchor="middle" x="2809.4" y="-479.3" font-family="Times New Roman,serif" font-size="14.00" fill="white">rdfs::Datatype</text>
</a>
</g>
</g>
<!-- n3&#45;&gt;n4 -->
<g id="edge2" class="edge"><title>n3&#45;&gt;n4</title>
<path fill="none" stroke="black" d="M3058.01,-570.927C3009.34,-553.911 2923.81,-524.003 2866.87,-504.095"/>
<polygon fill="black" stroke="black" points="2867.88,-500.742 2857.29,-500.745 2865.57,-507.349 2867.88,-500.742"/>
<text text-anchor="middle" x="3003.9" y="-530.3" font-family="Times New Roman,serif" font-size="14.00">is a</text>
</g>
<!-- n5 -->
<g id="node5" class="node"><title>n5</title>
<polygon fill="#00008b" stroke="black" points="2320.9,-399 2229.9,-399 2229.9,-363 2320.9,-363 2320.9,-399"/>
<text text-anchor="middle" x="2275.4" y="-377.3" font-family="Times New Roman,serif" font-size="14.00" fill="white">GraphPattern</text>
</g>
<!-- n6 -->
<g id="node6" class="node"><title>n6</title>
<polygon fill="#00008b" stroke="black" points="2319.9,-312 2230.9,-312 2230.9,-276 2319.9,-276 2319.9,-312"/>
<text text-anchor="middle" x="2275.4" y="-290.3" font-family="Times New Roman,serif" font-size="14.00" fill="white">TriplePattern</text>
</g>
<!-- n5&#45;&gt;n6 -->
<g id="edge3" class="edge"><title>n5&#45;&gt;n6</title>
<path fill="none" stroke="blue" stroke-dasharray="5,2" d="M2275.4,-362.799C2275.4,-351.163 2275.4,-335.548 2275.4,-322.237"/>
<polygon fill="blue" stroke="blue" points="2278.9,-322.175 2275.4,-312.175 2271.9,-322.175 2278.9,-322.175"/>
<text text-anchor="middle" x="2301.4" y="-333.8" font-family="Times New Roman,serif" font-size="14.00">subClass</text>
</g>
<!-- n20 -->
<g id="node20" class="node"><title>n20</title>
<polygon fill="#00008b" stroke="black" points="2184.9,-312 2079.9,-312 2079.9,-276 2184.9,-276 2184.9,-312"/>
<text text-anchor="middle" x="2132.4" y="-290.3" font-family="Times New Roman,serif" font-size="14.00" fill="white">FunctionPattern</text>
</g>
<!-- n5&#45;&gt;n20 -->
<g id="edge13" class="edge"><title>n5&#45;&gt;n20</title>
<path fill="none" stroke="blue" stroke-dasharray="5,2" d="M2246.46,-362.799C2224.46,-349.722 2194.01,-331.622 2170.1,-317.412"/>
<polygon fill="blue" stroke="blue" points="2171.68,-314.276 2161.29,-312.175 2168.1,-320.294 2171.68,-314.276"/>
<text text-anchor="middle" x="2238.4" y="-333.8" font-family="Times New Roman,serif" font-size="14.00">subClass</text>
</g>
<!-- n7 -->
<g id="node7" class="node"><title>n7</title>
<polygon fill="none" stroke="red" points="498.897,-981 325.897,-981 325.897,-945 498.897,-945 498.897,-981"/>
<text text-anchor="middle" x="412.397" y="-959.3" font-family="Times New Roman,serif" font-size="14.00">language has exactly 1 value</text>
</g>
<!-- n8 -->
<g id="node8" class="node"><title>n8</title>
<polygon fill="#00008b" stroke="black" points="439.397,-894 385.397,-894 385.397,-858 439.397,-858 439.397,-894"/>
<text text-anchor="middle" x="412.397" y="-872.3" font-family="Times New Roman,serif" font-size="14.00" fill="white">Script</text>
</g>
<!-- n7&#45;&gt;n8 -->
<g id="edge4" class="edge"><title>n7&#45;&gt;n8</title>
<path fill="none" stroke="red" d="M412.397,-944.799C412.397,-933.163 412.397,-917.548 412.397,-904.237"/>
<polygon fill="red" stroke="red" points="415.897,-904.175 412.397,-894.175 408.897,-904.175 415.897,-904.175"/>
<text text-anchor="middle" x="434.897" y="-915.8" font-family="Times New Roman,serif" font-size="14.00">restricts</text>
</g>
<!-- n8&#45;&gt;n2 -->
<g id="edge60" class="edge"><title>n8&#45;&gt;n2</title>
<path fill="none" stroke="#00cd00" d="M392.527,-857.752C375.375,-843.515 349.473,-823.524 324.397,-810 308.767,-801.571 290.677,-794.344 274.504,-788.682"/>
<polygon fill="#00cd00" stroke="#00cd00" points="275.315,-785.262 264.721,-785.363 273.066,-791.89 275.315,-785.262"/>
<text text-anchor="middle" x="393.897" y="-821.3" font-family="Times New Roman,serif" font-size="14.00">language</text>
</g>
<!-- n9 -->
<g id="node9" class="node"><title>n9</title>
<polygon fill="none" stroke="red" points="307.397,-981 151.397,-981 151.397,-945 307.397,-945 307.397,-981"/>
<text text-anchor="middle" x="229.397" y="-959.3" font-family="Times New Roman,serif" font-size="14.00">script has exactly 1 value</text>
</g>
<!-- n9&#45;&gt;n8 -->
<g id="edge5" class="edge"><title>n9&#45;&gt;n8</title>
<path fill="none" stroke="red" d="M266.59,-944.894C294.356,-932.101 333.457,-914.039 376.125,-894.112"/>
<polygon fill="red" stroke="red" points="377.703,-897.238 385.281,-889.833 374.739,-890.896 377.703,-897.238"/>
<text text-anchor="middle" x="358.897" y="-915.8" font-family="Times New Roman,serif" font-size="14.00">restricts</text>
</g>
<!-- n10 -->
<g id="node10" class="node"><title>n10</title>
<polygon fill="none" stroke="red" points="1245.4,-894 1003.4,-894 1003.4,-858 1245.4,-858 1245.4,-894"/>
<text text-anchor="middle" x="1124.4" y="-872.3" font-family="Times New Roman,serif" font-size="14.00">localDescriptorName has exactly 1 value</text>
</g>
<!-- n11 -->
<g id="node11" class="node"><title>n11</title>
<polygon fill="#00008b" stroke="black" points="1758.9,-792 1657.9,-792 1657.9,-756 1758.9,-756 1758.9,-792"/>
<text text-anchor="middle" x="1708.4" y="-770.3" font-family="Times New Roman,serif" font-size="14.00" fill="white">DataDescriptor</text>
</g>
<!-- n10&#45;&gt;n11 -->
<g id="edge6" class="edge"><title>n10&#45;&gt;n11</title>
<path fill="none" stroke="red" d="M1191.63,-857.956C1250.37,-843.554 1338.09,-823.216 1415.4,-810 1495.35,-796.33 1588.49,-786.181 1647.92,-780.426"/>
<polygon fill="red" stroke="red" points="1648.26,-783.909 1657.88,-779.472 1647.6,-776.941 1648.26,-783.909"/>
<text text-anchor="middle" x="1437.9" y="-821.3" font-family="Times New Roman,serif" font-size="14.00">restricts</text>
</g>
<!-- n37 -->
<g id="node37" class="node"><title>n37</title>
<polygon fill="#00008b" stroke="black" points="1969.4,-705 1859.4,-705 1859.4,-669 1969.4,-669 1969.4,-705"/>
<text text-anchor="middle" x="1914.4" y="-683.3" font-family="Times New Roman,serif" font-size="14.00" fill="white">AugmentedType</text>
</g>
<!-- n11&#45;&gt;n37 -->
<g id="edge59" class="edge"><title>n11&#45;&gt;n37</title>
<path fill="none" stroke="#00cd00" d="M1750.08,-755.799C1782.86,-742.275 1828.66,-723.377 1863.58,-708.967"/>
<polygon fill="#00cd00" stroke="#00cd00" points="1865.21,-712.08 1873.12,-705.03 1862.54,-705.609 1865.21,-712.08"/>
<text text-anchor="middle" x="1868.4" y="-726.8" font-family="Times New Roman,serif" font-size="14.00">augmentedType</text>
</g>
<!-- n53 -->
<g id="node53" class="node"><title>n53</title>
<polygon fill="#00008b" stroke="black" points="1867.4,-603 1795.4,-603 1795.4,-567 1867.4,-567 1867.4,-603"/>
<text text-anchor="middle" x="1831.4" y="-581.3" font-family="Times New Roman,serif" font-size="14.00" fill="white">string List</text>
</g>
<!-- n11&#45;&gt;n53 -->
<g id="edge53" class="edge"><title>n11&#45;&gt;n53</title>
<path fill="none" stroke="#00cd00" d="M1710.14,-755.958C1712.99,-734.314 1720.18,-696.48 1737.4,-669 1752.37,-645.109 1776.24,-624.15 1796.19,-609.27"/>
<polygon fill="#00cd00" stroke="#00cd00" points="1798.42,-611.978 1804.46,-603.274 1794.31,-606.311 1798.42,-611.978"/>
<text text-anchor="middle" x="1777.4" y="-683.3" font-family="Times New Roman,serif" font-size="14.00">specifiedUnits</text>
</g>
<!-- n12 -->
<g id="node12" class="node"><title>n12</title>
<polygon fill="none" stroke="red" points="1440.9,-894 1263.9,-894 1263.9,-858 1440.9,-858 1440.9,-894"/>
<text text-anchor="middle" x="1352.4" y="-872.3" font-family="Times New Roman,serif" font-size="14.00">dataType has exactly 1 value</text>
</g>
<!-- n12&#45;&gt;n11 -->
<g id="edge7" class="edge"><title>n12&#45;&gt;n11</title>
<path fill="none" stroke="red" d="M1404.59,-857.933C1447.13,-844.262 1508.87,-824.963 1563.4,-810 1591.08,-802.404 1621.97,-794.824 1648.1,-788.671"/>
<polygon fill="red" stroke="red" points="1648.93,-792.072 1657.87,-786.385 1647.34,-785.256 1648.93,-792.072"/>
<text text-anchor="middle" x="1585.9" y="-821.3" font-family="Times New Roman,serif" font-size="14.00">restricts</text>
</g>
<!-- n13 -->
<g id="node13" class="node"><title>n13</title>
<polygon fill="none" stroke="red" points="1663.4,-894 1459.4,-894 1459.4,-858 1663.4,-858 1663.4,-894"/>
<text text-anchor="middle" x="1561.4" y="-872.3" font-family="Times New Roman,serif" font-size="14.00">specifiedUnits has exactly 1 value</text>
</g>
<!-- n13&#45;&gt;n11 -->
<g id="edge8" class="edge"><title>n13&#45;&gt;n11</title>
<path fill="none" stroke="red" d="M1586.67,-857.809C1610.96,-841.282 1647.85,-816.191 1674.65,-797.96"/>
<polygon fill="red" stroke="red" points="1676.66,-800.82 1682.96,-792.301 1672.73,-795.032 1676.66,-800.82"/>
<text text-anchor="middle" x="1678.9" y="-821.3" font-family="Times New Roman,serif" font-size="14.00">restricts</text>
</g>
<!-- n14 -->
<g id="node14" class="node"><title>n14</title>
<polygon fill="none" stroke="red" points="1860.9,-894 1681.9,-894 1681.9,-858 1860.9,-858 1860.9,-894"/>
<text text-anchor="middle" x="1771.4" y="-872.3" font-family="Times New Roman,serif" font-size="14.00">dataType has at most 1 value</text>
</g>
<!-- n14&#45;&gt;n11 -->
<g id="edge9" class="edge"><title>n14&#45;&gt;n11</title>
<path fill="none" stroke="red" d="M1760.42,-857.581C1750.58,-841.951 1735.99,-818.798 1724.77,-800.981"/>
<polygon fill="red" stroke="red" points="1727.54,-798.814 1719.24,-792.219 1721.61,-802.546 1727.54,-798.814"/>
<text text-anchor="middle" x="1770.9" y="-821.3" font-family="Times New Roman,serif" font-size="14.00">restricts</text>
</g>
<!-- n15 -->
<g id="node15" class="node"><title>n15</title>
<polygon fill="none" stroke="red" points="2109.4,-894 1879.4,-894 1879.4,-858 2109.4,-858 2109.4,-894"/>
<text text-anchor="middle" x="1994.4" y="-872.3" font-family="Times New Roman,serif" font-size="14.00">descriptorVariable has at most 1 value</text>
</g>
<!-- n15&#45;&gt;n11 -->
<g id="edge10" class="edge"><title>n15&#45;&gt;n11</title>
<path fill="none" stroke="red" d="M1945.56,-857.923C1895.99,-840.593 1819.26,-813.764 1766.58,-795.344"/>
<polygon fill="red" stroke="red" points="1767.63,-792.003 1757.04,-792.007 1765.32,-798.611 1767.63,-792.003"/>
<text text-anchor="middle" x="1915.9" y="-821.3" font-family="Times New Roman,serif" font-size="14.00">restricts</text>
</g>
<!-- n16 -->
<g id="node16" class="node"><title>n16</title>
<polygon fill="none" stroke="red" points="2751.4,-894 2567.4,-894 2567.4,-858 2751.4,-858 2751.4,-894"/>
<text text-anchor="middle" x="2659.4" y="-872.3" font-family="Times New Roman,serif" font-size="14.00">rowValues has exactly 1 value</text>
</g>
<!-- n17 -->
<g id="node17" class="node"><title>n17</title>
<polygon fill="#00008b" stroke="black" points="2709.9,-792 2608.9,-792 2608.9,-756 2709.9,-756 2709.9,-792"/>
<text text-anchor="middle" x="2659.4" y="-770.3" font-family="Times New Roman,serif" font-size="14.00" fill="white">DataTableRow</text>
</g>
<!-- n16&#45;&gt;n17 -->
<g id="edge11" class="edge"><title>n16&#45;&gt;n17</title>
<path fill="none" stroke="red" d="M2659.4,-857.581C2659.4,-842.382 2659.4,-820.067 2659.4,-802.464"/>
<polygon fill="red" stroke="red" points="2662.9,-802.219 2659.4,-792.219 2655.9,-802.219 2662.9,-802.219"/>
<text text-anchor="middle" x="2681.9" y="-821.3" font-family="Times New Roman,serif" font-size="14.00">restricts</text>
</g>
<!-- n51 -->
<g id="node51" class="node"><title>n51</title>
<polygon fill="#00008b" stroke="black" points="2837.4,-705 2721.4,-705 2721.4,-669 2837.4,-669 2837.4,-705"/>
<text text-anchor="middle" x="2779.4" y="-683.3" font-family="Times New Roman,serif" font-size="14.00" fill="white">anyDataType List</text>
</g>
<!-- n17&#45;&gt;n51 -->
<g id="edge46" class="edge"><title>n17&#45;&gt;n51</title>
<path fill="none" stroke="#00cd00" d="M2672.49,-755.667C2681.02,-745.233 2692.86,-732.228 2705.4,-723 2711.92,-718.203 2719.2,-713.807 2726.58,-709.873"/>
<polygon fill="#00cd00" stroke="#00cd00" points="2728.59,-712.778 2735.93,-705.14 2725.43,-706.532 2728.59,-712.778"/>
<text text-anchor="middle" x="2735.4" y="-726.8" font-family="Times New Roman,serif" font-size="14.00">rowValues</text>
</g>
<!-- n18 -->
<g id="node18" class="node"><title>n18</title>
<polygon fill="#00008b" stroke="black" points="2611.4,-1068 2495.4,-1068 2495.4,-1032 2611.4,-1032 2611.4,-1068"/>
<text text-anchor="middle" x="2553.4" y="-1046.3" font-family="Times New Roman,serif" font-size="14.00" fill="white">ScientificConcept</text>
</g>
<!-- n19 -->
<g id="node19" class="node"><title>n19</title>
<polygon fill="#00008b" stroke="black" points="2605.4,-981 2501.4,-981 2501.4,-945 2605.4,-945 2605.4,-981"/>
<text text-anchor="middle" x="2553.4" y="-959.3" font-family="Times New Roman,serif" font-size="14.00" fill="white">UnittedQuantity</text>
</g>
<!-- n18&#45;&gt;n19 -->
<g id="edge12" class="edge"><title>n18&#45;&gt;n19</title>
<path fill="none" stroke="blue" stroke-dasharray="5,2" d="M2553.4,-1031.8C2553.4,-1020.16 2553.4,-1004.55 2553.4,-991.237"/>
<polygon fill="blue" stroke="blue" points="2556.9,-991.175 2553.4,-981.175 2549.9,-991.175 2556.9,-991.175"/>
<text text-anchor="middle" x="2579.4" y="-1002.8" font-family="Times New Roman,serif" font-size="14.00">subClass</text>
</g>
<!-- n33 -->
<g id="node33" class="node"><title>n33</title>
<polygon fill="#00008b" stroke="black" points="864.397,-981 798.397,-981 798.397,-945 864.397,-945 864.397,-981"/>
<text text-anchor="middle" x="831.397" y="-959.3" font-family="Times New Roman,serif" font-size="14.00" fill="white">Equation</text>
</g>
<!-- n20&#45;&gt;n33 -->
<g id="edge50" class="edge"><title>n20&#45;&gt;n33</title>
<path fill="none" stroke="#00cd00" d="M2079.78,-295.637C1836.39,-298.922 831.397,-316.339 831.397,-380 831.397,-877 831.397,-877 831.397,-877 831.397,-896.247 831.397,-917.946 831.397,-934.603"/>
<polygon fill="#00cd00" stroke="#00cd00" points="827.897,-934.744 831.397,-944.744 834.897,-934.744 827.897,-934.744"/>
<text text-anchor="middle" x="848.397" y="-632.3" font-family="Times New Roman,serif" font-size="14.00">builtin</text>
</g>
<!-- n52 -->
<g id="node52" class="node"><title>n52</title>
<polygon fill="#00008b" stroke="black" points="2954.4,-225 2862.4,-225 2862.4,-189 2954.4,-189 2954.4,-225"/>
<text text-anchor="middle" x="2908.4" y="-203.3" font-family="Times New Roman,serif" font-size="14.00" fill="white">GPAtom List</text>
</g>
<!-- n20&#45;&gt;n52 -->
<g id="edge49" class="edge"><title>n20&#45;&gt;n52</title>
<path fill="none" stroke="#00cd00" d="M2185.09,-282.244C2197.31,-279.974 2210.28,-277.742 2222.4,-276 2454.97,-242.574 2734.28,-220.424 2851.86,-211.913"/>
<polygon fill="#00cd00" stroke="#00cd00" points="2852.33,-215.388 2862.06,-211.18 2851.83,-208.406 2852.33,-215.388"/>
<text text-anchor="middle" x="2512.9" y="-246.8" font-family="Times New Roman,serif" font-size="14.00">argValues</text>
</g>
<!-- n21 -->
<g id="node21" class="node"><title>n21</title>
<polygon fill="none" stroke="red" points="2211.4,-399 2053.4,-399 2053.4,-363 2211.4,-363 2211.4,-399"/>
<text text-anchor="middle" x="2132.4" y="-377.3" font-family="Times New Roman,serif" font-size="14.00">builtin has exactly 1 value</text>
</g>
<!-- n21&#45;&gt;n20 -->
<g id="edge14" class="edge"><title>n21&#45;&gt;n20</title>
<path fill="none" stroke="red" d="M2132.4,-362.799C2132.4,-351.163 2132.4,-335.548 2132.4,-322.237"/>
<polygon fill="red" stroke="red" points="2135.9,-322.175 2132.4,-312.175 2128.9,-322.175 2135.9,-322.175"/>
<text text-anchor="middle" x="2154.9" y="-333.8" font-family="Times New Roman,serif" font-size="14.00">restricts</text>
</g>
<!-- n22 -->
<g id="node22" class="node"><title>n22</title>
<polygon fill="none" stroke="red" points="2034.9,-399 1855.9,-399 1855.9,-363 2034.9,-363 2034.9,-399"/>
<text text-anchor="middle" x="1945.4" y="-377.3" font-family="Times New Roman,serif" font-size="14.00">argValues has exactly 1 value</text>
</g>
<!-- n22&#45;&gt;n20 -->
<g id="edge15" class="edge"><title>n22&#45;&gt;n20</title>
<path fill="none" stroke="red" d="M1983.24,-362.799C2012.74,-349.39 2053.86,-330.7 2085.45,-316.338"/>
<polygon fill="red" stroke="red" points="2087.28,-319.355 2094.93,-312.03 2084.38,-312.982 2087.28,-319.355"/>
<text text-anchor="middle" x="2071.9" y="-333.8" font-family="Times New Roman,serif" font-size="14.00">restricts</text>
</g>
<!-- n23 -->
<g id="node23" class="node"><title>n23</title>
<ellipse fill="blue" stroke="black" cx="36.3968" cy="-876" rx="36.2938" ry="18"/>
<text text-anchor="middle" x="36.3968" y="-872.3" font-family="Times New Roman,serif" font-size="14.00" fill="white">Python</text>
</g>
<!-- n23&#45;&gt;n2 -->
<g id="edge16" class="edge"><title>n23&#45;&gt;n2</title>
<path fill="none" stroke="black" d="M55.7037,-860.437C75.1042,-846.266 106.23,-824.768 135.397,-810 150.964,-802.118 168.747,-795.043 184.625,-789.353"/>
<polygon fill="black" stroke="black" points="185.945,-792.599 194.228,-785.993 183.633,-785.991 185.945,-792.599"/>
<text text-anchor="middle" x="144.897" y="-821.3" font-family="Times New Roman,serif" font-size="14.00">is a</text>
</g>
<!-- n24 -->
<g id="node24" class="node"><title>n24</title>
<polygon fill="none" stroke="red" points="1480.9,-1068 1249.9,-1068 1249.9,-1032 1480.9,-1032 1480.9,-1068"/>
<text text-anchor="middle" x="1365.4" y="-1046.3" font-family="Times New Roman,serif" font-size="14.00">columnDescriptors has exactly 1 value</text>
</g>
<!-- n25 -->
<g id="node25" class="node"><title>n25</title>
<polygon fill="#00008b" stroke="black" points="1632.4,-981 1558.4,-981 1558.4,-945 1632.4,-945 1632.4,-981"/>
<text text-anchor="middle" x="1595.4" y="-959.3" font-family="Times New Roman,serif" font-size="14.00" fill="white">DataTable</text>
</g>
<!-- n24&#45;&gt;n25 -->
<g id="edge17" class="edge"><title>n24&#45;&gt;n25</title>
<path fill="none" stroke="red" d="M1411.66,-1031.9C1451.53,-1017.17 1508.82,-995.997 1548.79,-981.226"/>
<polygon fill="red" stroke="red" points="1550.13,-984.459 1558.3,-977.71 1547.71,-977.893 1550.13,-984.459"/>
<text text-anchor="middle" x="1515.9" y="-1002.8" font-family="Times New Roman,serif" font-size="14.00">restricts</text>
</g>
<!-- n48 -->
<g id="node48" class="node"><title>n48</title>
<polygon fill="#00008b" stroke="black" points="985.397,-894 859.397,-894 859.397,-858 985.397,-858 985.397,-894"/>
<text text-anchor="middle" x="922.397" y="-872.3" font-family="Times New Roman,serif" font-size="14.00" fill="white">DataDescriptor List</text>
</g>
<!-- n25&#45;&gt;n48 -->
<g id="edge54" class="edge"><title>n25&#45;&gt;n48</title>
<path fill="none" stroke="#00cd00" d="M1558.25,-959.346C1465.09,-952.362 1213.97,-931.499 995.571,-894.091"/>
<polygon fill="#00cd00" stroke="#00cd00" points="995.975,-890.609 985.525,-892.355 994.783,-897.507 995.975,-890.609"/>
<text text-anchor="middle" x="1261.9" y="-915.8" font-family="Times New Roman,serif" font-size="14.00">columnDescriptors</text>
</g>
<!-- n50 -->
<g id="node50" class="node"><title>n50</title>
<polygon fill="#00008b" stroke="black" points="2548.9,-894 2423.9,-894 2423.9,-858 2548.9,-858 2548.9,-894"/>
<text text-anchor="middle" x="2486.4" y="-872.3" font-family="Times New Roman,serif" font-size="14.00" fill="white">DataTableRow List</text>
</g>
<!-- n25&#45;&gt;n50 -->
<g id="edge42" class="edge"><title>n25&#45;&gt;n50</title>
<path fill="none" stroke="#00cd00" d="M1632.55,-958.456C1767.35,-945.596 2232.3,-901.24 2413.39,-883.964"/>
<polygon fill="#00cd00" stroke="#00cd00" points="2413.99,-887.423 2423.61,-882.989 2413.33,-880.455 2413.99,-887.423"/>
<text text-anchor="middle" x="2127.4" y="-915.8" font-family="Times New Roman,serif" font-size="14.00">dataContent</text>
</g>
<!-- n26 -->
<g id="node26" class="node"><title>n26</title>
<polygon fill="none" stroke="red" points="1691.4,-1068 1499.4,-1068 1499.4,-1032 1691.4,-1032 1691.4,-1068"/>
<text text-anchor="middle" x="1595.4" y="-1046.3" font-family="Times New Roman,serif" font-size="14.00">dataContent has exactly 1 value</text>
</g>
<!-- n26&#45;&gt;n25 -->
<g id="edge18" class="edge"><title>n26&#45;&gt;n25</title>
<path fill="none" stroke="red" d="M1595.4,-1031.8C1595.4,-1020.16 1595.4,-1004.55 1595.4,-991.237"/>
<polygon fill="red" stroke="red" points="1598.9,-991.175 1595.4,-981.175 1591.9,-991.175 1598.9,-991.175"/>
<text text-anchor="middle" x="1617.9" y="-1002.8" font-family="Times New Roman,serif" font-size="14.00">restricts</text>
</g>
<!-- n27 -->
<g id="node27" class="node"><title>n27</title>
<polygon fill="none" stroke="red" points="1906.9,-1068 1709.9,-1068 1709.9,-1032 1906.9,-1032 1906.9,-1068"/>
<text text-anchor="middle" x="1808.4" y="-1046.3" font-family="Times New Roman,serif" font-size="14.00">dataLocation has exactly 1 value</text>
</g>
<!-- n27&#45;&gt;n25 -->
<g id="edge19" class="edge"><title>n27&#45;&gt;n25</title>
<path fill="none" stroke="red" d="M1765.55,-1031.9C1729.75,-1017.62 1678.8,-997.283 1641.99,-982.595"/>
<polygon fill="red" stroke="red" points="1643.07,-979.257 1632.49,-978.801 1640.48,-985.758 1643.07,-979.257"/>
<text text-anchor="middle" x="1736.9" y="-1002.8" font-family="Times New Roman,serif" font-size="14.00">restricts</text>
</g>
<!-- n28 -->
<g id="node28" class="node"><title>n28</title>
<polygon fill="#00008b" stroke="black" points="2941.9,-123 2874.9,-123 2874.9,-87 2941.9,-87 2941.9,-123"/>
<text text-anchor="middle" x="2908.4" y="-101.3" font-family="Times New Roman,serif" font-size="14.00" fill="white">GPAtom</text>
</g>
<!-- n29 -->
<g id="node29" class="node"><title>n29</title>
<polygon fill="#00008b" stroke="black" points="2814.9,-36 2733.9,-36 2733.9,-0 2814.9,-0 2814.9,-36"/>
<text text-anchor="middle" x="2774.4" y="-14.3" font-family="Times New Roman,serif" font-size="14.00" fill="white">GPVariable</text>
</g>
<!-- n28&#45;&gt;n29 -->
<g id="edge20" class="edge"><title>n28&#45;&gt;n29</title>
<path fill="none" stroke="blue" stroke-dasharray="5,2" d="M2878.8,-86.855C2869.34,-81.2658 2858.87,-74.9629 2849.4,-69 2835.73,-60.3991 2820.9,-50.6083 2808.06,-41.9842"/>
<polygon fill="blue" stroke="blue" points="2809.77,-38.9195 2799.52,-36.2291 2805.86,-44.7228 2809.77,-38.9195"/>
<text text-anchor="middle" x="2875.4" y="-57.8" font-family="Times New Roman,serif" font-size="14.00">subClass</text>
</g>
<!-- n38 -->
<g id="node38" class="node"><title>n38</title>
<polygon fill="#00008b" stroke="black" points="2947.9,-36 2858.9,-36 2858.9,-0 2947.9,-0 2947.9,-36"/>
<text text-anchor="middle" x="2903.4" y="-14.3" font-family="Times New Roman,serif" font-size="14.00" fill="white">GPResource</text>
</g>
<!-- n28&#45;&gt;n38 -->
<g id="edge27" class="edge"><title>n28&#45;&gt;n38</title>
<path fill="none" stroke="blue" stroke-dasharray="5,2" d="M2907.38,-86.799C2906.7,-75.1626 2905.78,-59.5479 2905,-46.2368"/>
<polygon fill="blue" stroke="blue" points="2908.49,-45.9526 2904.41,-36.1754 2901.5,-46.3637 2908.49,-45.9526"/>
<text text-anchor="middle" x="2931.4" y="-57.8" font-family="Times New Roman,serif" font-size="14.00">subClass</text>
</g>
<!-- n39 -->
<g id="node39" class="node"><title>n39</title>
<polygon fill="#00008b" stroke="black" points="3066.9,-36 2965.9,-36 2965.9,-0 3066.9,-0 3066.9,-36"/>
<text text-anchor="middle" x="3016.4" y="-14.3" font-family="Times New Roman,serif" font-size="14.00" fill="white">GPLiteralValue</text>
</g>
<!-- n28&#45;&gt;n39 -->
<g id="edge28" class="edge"><title>n28&#45;&gt;n39</title>
<path fill="none" stroke="blue" stroke-dasharray="5,2" d="M2935.92,-86.9768C2944.29,-81.4968 2953.39,-75.2256 2961.4,-69 2971.59,-61.0806 2982.21,-51.7188 2991.37,-43.25"/>
<polygon fill="blue" stroke="blue" points="2993.78,-45.7899 2998.68,-36.3974 2988.99,-40.6828 2993.78,-45.7899"/>
<text text-anchor="middle" x="3004.4" y="-57.8" font-family="Times New Roman,serif" font-size="14.00">subClass</text>
</g>
<!-- n30 -->
<g id="node30" class="node"><title>n30</title>
<polygon fill="none" stroke="red" points="2856.9,-123 2639.9,-123 2639.9,-87 2856.9,-87 2856.9,-123"/>
<text text-anchor="middle" x="2748.4" y="-101.3" font-family="Times New Roman,serif" font-size="14.00">gpVariableName has exactly 1 value</text>
</g>
<!-- n30&#45;&gt;n29 -->
<g id="edge21" class="edge"><title>n30&#45;&gt;n29</title>
<path fill="none" stroke="red" d="M2750.34,-86.5882C2751.72,-76.8436 2753.95,-64.566 2757.4,-54 2758.35,-51.0757 2759.5,-48.0845 2760.75,-45.1426"/>
<polygon fill="red" stroke="red" points="2763.93,-46.6014 2764.95,-36.0558 2757.58,-43.6631 2763.93,-46.6014"/>
<text text-anchor="middle" x="2779.9" y="-57.8" font-family="Times New Roman,serif" font-size="14.00">restricts</text>
</g>
<!-- n31 -->
<g id="node31" class="node"><title>n31</title>
<ellipse fill="blue" stroke="black" cx="2189.4" cy="-876" rx="62.2891" ry="18"/>
<text text-anchor="middle" x="2189.4" y="-872.3" font-family="Times New Roman,serif" font-size="14.00" fill="white">ThisArgument</text>
</g>
<!-- n31&#45;&gt;n11 -->
<g id="edge22" class="edge"><title>n31&#45;&gt;n11</title>
<path fill="none" stroke="black" d="M2147.77,-862.56C2098.94,-848.313 2015.36,-825.011 1942.4,-810 1933.93,-808.258 1835.39,-793.67 1768.92,-783.885"/>
<polygon fill="black" stroke="black" points="1769.35,-780.412 1758.95,-782.419 1768.34,-787.337 1769.35,-780.412"/>
<text text-anchor="middle" x="2073.9" y="-821.3" font-family="Times New Roman,serif" font-size="14.00">is a</text>
</g>
<!-- n32 -->
<g id="node32" class="node"><title>n32</title>
<polygon fill="none" stroke="red" points="1025.4,-1068 843.397,-1068 843.397,-1032 1025.4,-1032 1025.4,-1068"/>
<text text-anchor="middle" x="934.397" y="-1046.3" font-family="Times New Roman,serif" font-size="14.00">arguments has exactly 1 value</text>
</g>
<!-- n32&#45;&gt;n33 -->
<g id="edge23" class="edge"><title>n32&#45;&gt;n33</title>
<path fill="none" stroke="red" d="M913.553,-1031.8C898.196,-1019.13 877.121,-1001.73 860.161,-987.738"/>
<polygon fill="red" stroke="red" points="862.15,-984.841 852.209,-981.175 857.694,-990.24 862.15,-984.841"/>
<text text-anchor="middle" x="911.897" y="-1002.8" font-family="Times New Roman,serif" font-size="14.00">restricts</text>
</g>
<!-- n33&#45;&gt;n8 -->
<g id="edge55" class="edge"><title>n33&#45;&gt;n8</title>
<path fill="none" stroke="#00cd00" d="M798.155,-958.753C765.983,-954.636 716.482,-945.682 677.397,-927 667.69,-922.36 668.286,-916.237 658.397,-912 588.947,-882.243 499.378,-876.82 449.728,-876.364"/>
<polygon fill="#00cd00" stroke="#00cd00" points="449.477,-872.863 439.468,-876.336 449.458,-879.863 449.477,-872.863"/>
<text text-anchor="middle" x="707.897" y="-915.8" font-family="Times New Roman,serif" font-size="14.00">expression</text>
</g>
<!-- n45 -->
<g id="node45" class="node"><title>n45</title>
<polygon fill="#00008b" stroke="black" points="735.897,-894 624.897,-894 624.897,-858 735.897,-858 735.897,-894"/>
<text text-anchor="middle" x="680.397" y="-872.3" font-family="Times New Roman,serif" font-size="14.00" fill="white">ExternalEquation</text>
</g>
<!-- n33&#45;&gt;n45 -->
<g id="edge34" class="edge"><title>n33&#45;&gt;n45</title>
<path fill="none" stroke="blue" stroke-dasharray="5,2" d="M798.174,-945.13C787.587,-939.556 775.899,-933.192 765.397,-927 754.884,-920.802 752.827,-918.336 742.397,-912 735.415,-907.758 727.905,-903.374 720.606,-899.203"/>
<polygon fill="blue" stroke="blue" points="721.954,-895.945 711.528,-894.061 718.504,-902.035 721.954,-895.945"/>
<text text-anchor="middle" x="791.397" y="-915.8" font-family="Times New Roman,serif" font-size="14.00">subClass</text>
</g>
<!-- n33&#45;&gt;n48 -->
<g id="edge39" class="edge"><title>n33&#45;&gt;n48</title>
<path fill="none" stroke="#00cd00" d="M840.545,-944.906C846.647,-934.562 855.374,-921.568 865.397,-912 870.027,-907.58 875.307,-903.441 880.74,-899.666"/>
<polygon fill="#00cd00" stroke="#00cd00" points="882.881,-902.448 889.336,-894.047 879.051,-896.589 882.881,-902.448"/>
<text text-anchor="middle" x="894.397" y="-915.8" font-family="Times New Roman,serif" font-size="14.00">arguments</text>
</g>
<!-- n33&#45;&gt;n48 -->
<g id="edge43" class="edge"><title>n33&#45;&gt;n48</title>
<path fill="none" stroke="#00cd00" d="M864.85,-958.664C885.433,-954.688 910.301,-945.993 923.397,-927 927.92,-920.44 929.072,-912.156 928.687,-904.229"/>
<polygon fill="#00cd00" stroke="#00cd00" points="932.147,-903.685 927.452,-894.187 925.199,-904.54 932.147,-903.685"/>
<text text-anchor="middle" x="963.397" y="-915.8" font-family="Times New Roman,serif" font-size="14.00">returnTypes</text>
</g>
<!-- n34 -->
<g id="node34" class="node"><title>n34</title>
<polygon fill="none" stroke="red" points="825.397,-1068 633.397,-1068 633.397,-1032 825.397,-1032 825.397,-1068"/>
<text text-anchor="middle" x="729.397" y="-1046.3" font-family="Times New Roman,serif" font-size="14.00">returnTypes has exactly 1 value</text>
</g>
<!-- n34&#45;&gt;n33 -->
<g id="edge24" class="edge"><title>n34&#45;&gt;n33</title>
<path fill="none" stroke="red" d="M750.038,-1031.8C765.246,-1019.13 786.117,-1001.73 802.912,-987.738"/>
<polygon fill="red" stroke="red" points="805.345,-990.266 810.786,-981.175 800.863,-984.889 805.345,-990.266"/>
<text text-anchor="middle" x="809.897" y="-1002.8" font-family="Times New Roman,serif" font-size="14.00">restricts</text>
</g>
<!-- n35 -->
<g id="node35" class="node"><title>n35</title>
<ellipse fill="blue" stroke="black" cx="118.397" cy="-876" rx="27.0966" ry="18"/>
<text text-anchor="middle" x="118.397" y="-872.3" font-family="Times New Roman,serif" font-size="14.00" fill="white">Text</text>
</g>
<!-- n35&#45;&gt;n2 -->
<g id="edge25" class="edge"><title>n35&#45;&gt;n2</title>
<path fill="none" stroke="black" d="M133.831,-861.095C151.657,-845.036 181.292,-818.338 202.841,-798.924"/>
<polygon fill="black" stroke="black" points="205.291,-801.428 210.378,-792.134 200.606,-796.227 205.291,-801.428"/>
<text text-anchor="middle" x="199.897" y="-821.3" font-family="Times New Roman,serif" font-size="14.00">is a</text>
</g>
<!-- n36 -->
<g id="node36" class="node"><title>n36</title>
<polygon fill="none" stroke="red" points="2119.9,-792 1916.9,-792 1916.9,-756 2119.9,-756 2119.9,-792"/>
<text text-anchor="middle" x="2018.4" y="-770.3" font-family="Times New Roman,serif" font-size="14.00">augTypeUnits has exactly 1 value</text>
</g>
<!-- n36&#45;&gt;n37 -->
<g id="edge26" class="edge"><title>n36&#45;&gt;n37</title>
<path fill="none" stroke="red" d="M1997.35,-755.799C1981.84,-743.126 1960.56,-725.734 1943.44,-711.738"/>
<polygon fill="red" stroke="red" points="1945.37,-708.794 1935.41,-705.175 1940.94,-714.214 1945.37,-708.794"/>
<text text-anchor="middle" x="1994.9" y="-726.8" font-family="Times New Roman,serif" font-size="14.00">restricts</text>
</g>
<!-- n40 -->
<g id="node40" class="node"><title>n40</title>
<polygon fill="#00008b" stroke="black" points="2310.9,-603 2213.9,-603 2213.9,-567 2310.9,-567 2310.9,-603"/>
<text text-anchor="middle" x="2262.4" y="-581.3" font-family="Times New Roman,serif" font-size="14.00" fill="white">SemanticType</text>
</g>
<!-- n37&#45;&gt;n40 -->
<g id="edge29" class="edge"><title>n37&#45;&gt;n40</title>
<path fill="none" stroke="blue" stroke-dasharray="5,2" d="M1969.49,-671.274C1990.33,-664.958 2011.04,-657.543 2019.4,-651 2031.83,-641.274 2025.05,-629.421 2038.4,-621 2066.79,-603.086 2155.32,-608.767 2188.4,-603 2193.38,-602.131 2198.54,-601.14 2203.7,-600.084"/>
<polygon fill="blue" stroke="blue" points="2204.53,-603.485 2213.59,-597.986 2203.08,-596.637 2204.53,-603.485"/>
<text text-anchor="middle" x="2064.4" y="-632.3" font-family="Times New Roman,serif" font-size="14.00">subClass</text>
</g>
<!-- n42 -->
<g id="node42" class="node"><title>n42</title>
<polygon fill="#00008b" stroke="black" points="2178.9,-603 2053.9,-603 2053.9,-567 2178.9,-567 2178.9,-603"/>
<text text-anchor="middle" x="2116.4" y="-581.3" font-family="Times New Roman,serif" font-size="14.00" fill="white">SemanticConstraint</text>
</g>
<!-- n37&#45;&gt;n42 -->
<g id="edge31" class="edge"><title>n37&#45;&gt;n42</title>
<path fill="none" stroke="blue" stroke-dasharray="5,2" d="M1929.54,-668.711C1934.36,-663.114 1939.66,-656.843 1944.4,-651 1954.98,-637.95 1953.29,-630.119 1967.4,-621 1989.96,-606.422 2017.93,-597.899 2043.53,-592.923"/>
<polygon fill="blue" stroke="blue" points="2044.35,-596.331 2053.58,-591.123 2043.12,-589.441 2044.35,-596.331"/>
<text text-anchor="middle" x="1993.4" y="-632.3" font-family="Times New Roman,serif" font-size="14.00">subClass</text>
</g>
<!-- n37&#45;&gt;n53 -->
<g id="edge61" class="edge"><title>n37&#45;&gt;n53</title>
<path fill="none" stroke="#00cd00" d="M1885.82,-668.985C1878.59,-663.813 1871.23,-657.703 1865.4,-651 1855.57,-639.706 1847.59,-625.076 1841.85,-612.557"/>
<polygon fill="#00cd00" stroke="#00cd00" points="1844.92,-610.846 1837.72,-603.072 1838.5,-613.639 1844.92,-610.846"/>
<text text-anchor="middle" x="1904.9" y="-632.3" font-family="Times New Roman,serif" font-size="14.00">augTypeUnits</text>
</g>
<!-- n41 -->
<g id="node41" class="node"><title>n41</title>
<polygon fill="none" stroke="red" points="2367.4,-705 2191.4,-705 2191.4,-669 2367.4,-669 2367.4,-705"/>
<text text-anchor="middle" x="2279.4" y="-683.3" font-family="Times New Roman,serif" font-size="14.00">semType has exactly 1 value</text>
</g>
<!-- n41&#45;&gt;n40 -->
<g id="edge30" class="edge"><title>n41&#45;&gt;n40</title>
<path fill="none" stroke="red" d="M2276.44,-668.581C2273.85,-653.382 2270.06,-631.067 2267.07,-613.464"/>
<polygon fill="red" stroke="red" points="2270.45,-612.491 2265.32,-603.219 2263.55,-613.664 2270.45,-612.491"/>
<text text-anchor="middle" x="2295.9" y="-632.3" font-family="Times New Roman,serif" font-size="14.00">restricts</text>
</g>
<!-- n55 -->
<g id="node55" class="node"><title>n55</title>
<polygon fill="#00008b" stroke="black" points="2333.4,-501 2217.4,-501 2217.4,-465 2333.4,-465 2333.4,-501"/>
<text text-anchor="middle" x="2275.4" y="-479.3" font-family="Times New Roman,serif" font-size="14.00" fill="white">GraphPattern List</text>
</g>
<!-- n42&#45;&gt;n55 -->
<g id="edge58" class="edge"><title>n42&#45;&gt;n55</title>
<path fill="none" stroke="#00cd00" d="M2143.73,-566.809C2170.2,-550.16 2210.49,-524.819 2239.53,-506.556"/>
<polygon fill="#00cd00" stroke="#00cd00" points="2241.55,-509.42 2248.15,-501.133 2237.83,-503.495 2241.55,-509.42"/>
<text text-anchor="middle" x="2249.9" y="-530.3" font-family="Times New Roman,serif" font-size="14.00">constraints</text>
</g>
<!-- n43 -->
<g id="node43" class="node"><title>n43</title>
<polygon fill="none" stroke="red" points="2172.9,-705 1987.9,-705 1987.9,-669 2172.9,-669 2172.9,-705"/>
<text text-anchor="middle" x="2080.4" y="-683.3" font-family="Times New Roman,serif" font-size="14.00">constraints has exactly 1 value</text>
</g>
<!-- n43&#45;&gt;n42 -->
<g id="edge32" class="edge"><title>n43&#45;&gt;n42</title>
<path fill="none" stroke="red" d="M2087.42,-668.982C2089.71,-663.29 2092.22,-656.894 2094.4,-651 2098.99,-638.551 2103.75,-624.632 2107.66,-612.877"/>
<polygon fill="red" stroke="red" points="2111.05,-613.789 2110.86,-603.196 2104.4,-611.595 2111.05,-613.789"/>
<text text-anchor="middle" x="2126.9" y="-632.3" font-family="Times New Roman,serif" font-size="14.00">restricts</text>
</g>
<!-- n44 -->
<g id="node44" class="node"><title>n44</title>
<ellipse fill="blue" stroke="black" cx="2699.4" cy="-585" rx="318.443" ry="18"/>
<text text-anchor="middle" x="2699.4" y="-581.3" font-family="Times New Roman,serif" font-size="14.00" fill="white">xsd:decimal or xsd:boolean or xsd:string or xsd:date or xsd:dateTime or xsd:anyURI</text>
</g>
<!-- n44&#45;&gt;n4 -->
<g id="edge33" class="edge"><title>n44&#45;&gt;n4</title>
<path fill="none" stroke="black" d="M2718.56,-566.581C2736.38,-550.378 2763.1,-526.089 2782.95,-508.042"/>
<polygon fill="black" stroke="black" points="2785.41,-510.536 2790.46,-501.219 2780.7,-505.356 2785.41,-510.536"/>
<text text-anchor="middle" x="2779.9" y="-530.3" font-family="Times New Roman,serif" font-size="14.00">is a</text>
</g>
<!-- n46 -->
<g id="node46" class="node"><title>n46</title>
<polygon fill="none" stroke="red" points="707.897,-981 516.897,-981 516.897,-945 707.897,-945 707.897,-981"/>
<text text-anchor="middle" x="612.397" y="-959.3" font-family="Times New Roman,serif" font-size="14.00">externalURI has exactly 1 value</text>
</g>
<!-- n46&#45;&gt;n45 -->
<g id="edge35" class="edge"><title>n46&#45;&gt;n45</title>
<path fill="none" stroke="red" d="M608.565,-944.559C607.287,-934.338 607.452,-921.595 613.397,-912 616.177,-907.513 619.737,-903.573 623.763,-900.117"/>
<polygon fill="red" stroke="red" points="626.021,-902.801 631.999,-894.053 621.871,-897.164 626.021,-902.801"/>
<text text-anchor="middle" x="635.897" y="-915.8" font-family="Times New Roman,serif" font-size="14.00">restricts</text>
</g>
<!-- n47 -->
<g id="node47" class="node"><title>n47</title>
<ellipse fill="blue" stroke="black" cx="229.397" cy="-876" rx="65.7887" ry="18"/>
<text text-anchor="middle" x="229.397" y="-872.3" font-family="Times New Roman,serif" font-size="14.00" fill="white">OtherLanguage</text>
</g>
<!-- n47&#45;&gt;n2 -->
<g id="edge36" class="edge"><title>n47&#45;&gt;n2</title>
<path fill="none" stroke="black" d="M229.397,-857.581C229.397,-842.382 229.397,-820.067 229.397,-802.464"/>
<polygon fill="black" stroke="black" points="232.897,-802.219 229.397,-792.219 225.897,-802.219 232.897,-802.219"/>
<text text-anchor="middle" x="238.897" y="-821.3" font-family="Times New Roman,serif" font-size="14.00">is a</text>
</g>
<!-- n48&#45;&gt;n11 -->
<g id="edge37" class="edge"><title>n48&#45;&gt;n11</title>
<path fill="none" stroke="#008b8b" stroke-dasharray="5,2" d="M985.579,-859.926C988.558,-859.264 991.508,-858.619 994.397,-858 1104.6,-834.379 1131.68,-824.921 1243.4,-810 1387.55,-790.746 1558.36,-781.28 1647.43,-777.345"/>
<polygon fill="#008b8b" stroke="#008b8b" points="1647.79,-780.834 1657.62,-776.904 1647.48,-773.84 1647.79,-780.834"/>
<text text-anchor="middle" x="1255.9" y="-828.8" font-family="Times New Roman,serif" font-size="14.00">list</text>
<text text-anchor="middle" x="1255.9" y="-813.8" font-family="Times New Roman,serif" font-size="14.00">type</text>
</g>
<!-- n49 -->
<g id="node49" class="node"><title>n49</title>
<g id="a_node49"><a xlink:href="file:///C:/Sadl3Workspace4/RACK-Ontology-7-29/Graphs/SadlListModel.owl.svg" xlink:title="sadllistmodel:List">
<polygon fill="#00008b" stroke="black" points="2482.9,-981 2369.9,-981 2369.9,-945 2482.9,-945 2482.9,-981"/>
<text text-anchor="middle" x="2426.4" y="-959.3" font-family="Times New Roman,serif" font-size="14.00" fill="white">sadllistmodel:List</text>
</a>
</g>
</g>
<!-- n49&#45;&gt;n48 -->
<g id="edge38" class="edge"><title>n49&#45;&gt;n48</title>
<path fill="none" stroke="blue" stroke-dasharray="5,2" d="M2369.58,-959.445C2118.26,-948.126 1114.11,-902.717 995.579,-893.545"/>
<polygon fill="blue" stroke="blue" points="995.773,-890.047 985.488,-892.591 995.114,-897.016 995.773,-890.047"/>
<text text-anchor="middle" x="1666.4" y="-915.8" font-family="Times New Roman,serif" font-size="14.00">subClass</text>
</g>
<!-- n49&#45;&gt;n50 -->
<g id="edge41" class="edge"><title>n49&#45;&gt;n50</title>
<path fill="none" stroke="blue" stroke-dasharray="5,2" d="M2438.54,-944.799C2447.08,-932.702 2458.65,-916.305 2468.28,-902.667"/>
<polygon fill="blue" stroke="blue" points="2471.37,-904.364 2474.27,-894.175 2465.65,-900.327 2471.37,-904.364"/>
<text text-anchor="middle" x="2485.4" y="-915.8" font-family="Times New Roman,serif" font-size="14.00">subClass</text>
</g>
<!-- n49&#45;&gt;n51 -->
<g id="edge45" class="edge"><title>n49&#45;&gt;n51</title>
<path fill="none" stroke="blue" stroke-dasharray="5,2" d="M2483.22,-947.117C2486.32,-946.382 2489.39,-945.672 2492.4,-945 2610.72,-918.531 2678.88,-983.754 2760.4,-894 2805.24,-844.632 2795.02,-758.499 2786.03,-714.91"/>
<polygon fill="blue" stroke="blue" points="2789.43,-714.056 2783.86,-705.04 2782.59,-715.558 2789.43,-714.056"/>
<text text-anchor="middle" x="2818.4" y="-821.3" font-family="Times New Roman,serif" font-size="14.00">subClass</text>
</g>
<!-- n49&#45;&gt;n52 -->
<g id="edge48" class="edge"><title>n49&#45;&gt;n52</title>
<path fill="none" stroke="blue" stroke-dasharray="5,2" d="M2483.14,-946.689C2486.26,-946.065 2489.36,-945.495 2492.4,-945 2569.3,-932.465 3190.4,-954.923 3190.4,-877 3190.4,-877 3190.4,-877 3190.4,-293 3190.4,-246.306 3046.87,-222.975 2964.61,-213.437"/>
<polygon fill="blue" stroke="blue" points="2964.98,-209.957 2954.65,-212.315 2964.19,-216.913 2964.98,-209.957"/>
<text text-anchor="middle" x="3216.4" y="-581.3" font-family="Times New Roman,serif" font-size="14.00">subClass</text>
</g>
<!-- n49&#45;&gt;n53 -->
<g id="edge52" class="edge"><title>n49&#45;&gt;n53</title>
<path fill="none" stroke="blue" stroke-dasharray="5,2" d="M2369.72,-957.883C2344.05,-953.493 2314.74,-944.651 2293.4,-927 2267.2,-905.336 2286.45,-879.839 2260.4,-858 2199.25,-806.738 2165.98,-823.83 2087.4,-810 2062.04,-805.538 1874.99,-809.808 1856.4,-792 1831.37,-768.028 1829.84,-663.747 1830.62,-613.4"/>
<polygon fill="blue" stroke="blue" points="1834.13,-613.309 1830.83,-603.241 1827.13,-613.17 1834.13,-613.309"/>
<text text-anchor="middle" x="1882.4" y="-770.3" font-family="Times New Roman,serif" font-size="14.00">subClass</text>
</g>
<!-- n49&#45;&gt;n55 -->
<g id="edge57" class="edge"><title>n49&#45;&gt;n55</title>
<path fill="none" stroke="blue" stroke-dasharray="5,2" d="M2416.07,-944.761C2407.06,-928.044 2395.4,-901.661 2395.4,-877 2395.4,-877 2395.4,-877 2395.4,-729.5 2395.4,-640.993 2331.67,-551.104 2297.09,-508.852"/>
<polygon fill="blue" stroke="blue" points="2299.68,-506.495 2290.59,-501.052 2294.31,-510.975 2299.68,-506.495"/>
<text text-anchor="middle" x="2421.4" y="-726.8" font-family="Times New Roman,serif" font-size="14.00">subClass</text>
</g>
<!-- n50&#45;&gt;n17 -->
<g id="edge40" class="edge"><title>n50&#45;&gt;n17</title>
<path fill="none" stroke="#008b8b" stroke-dasharray="5,2" d="M2516.14,-857.809C2545.06,-841.088 2589.16,-815.601 2620.78,-797.321"/>
<polygon fill="#008b8b" stroke="#008b8b" points="2622.85,-800.168 2629.76,-792.133 2619.35,-794.108 2622.85,-800.168"/>
<text text-anchor="middle" x="2610.9" y="-828.8" font-family="Times New Roman,serif" font-size="14.00">list</text>
<text text-anchor="middle" x="2610.9" y="-813.8" font-family="Times New Roman,serif" font-size="14.00">type</text>
</g>
<!-- n51&#45;&gt;n3 -->
<g id="edge44" class="edge"><title>n51&#45;&gt;n3</title>
<path fill="none" stroke="#008b8b" stroke-dasharray="5,2" d="M2833.36,-668.923C2893.02,-650.045 2988.29,-619.894 3046.04,-601.621"/>
<polygon fill="#008b8b" stroke="#008b8b" points="3047.19,-604.927 3055.67,-598.573 3045.08,-598.253 3047.19,-604.927"/>
<text text-anchor="middle" x="2995.9" y="-639.8" font-family="Times New Roman,serif" font-size="14.00">list</text>
<text text-anchor="middle" x="2995.9" y="-624.8" font-family="Times New Roman,serif" font-size="14.00">type</text>
</g>
<!-- n52&#45;&gt;n28 -->
<g id="edge47" class="edge"><title>n52&#45;&gt;n28</title>
<path fill="none" stroke="#008b8b" stroke-dasharray="5,2" d="M2908.4,-188.581C2908.4,-173.382 2908.4,-151.067 2908.4,-133.464"/>
<polygon fill="#008b8b" stroke="#008b8b" points="2911.9,-133.219 2908.4,-123.219 2904.9,-133.219 2911.9,-133.219"/>
<text text-anchor="middle" x="2920.9" y="-159.8" font-family="Times New Roman,serif" font-size="14.00">list</text>
<text text-anchor="middle" x="2920.9" y="-144.8" font-family="Times New Roman,serif" font-size="14.00">type</text>
</g>
<!-- n54 -->
<g id="node54" class="node"><title>n54</title>
<g id="a_node54"><a xlink:href="file:///C:/Sadl3Workspace4/RACK-Ontology-7-29/Graphs/XMLSchema.svg" xlink:title="xsd:string">
<polygon fill="#00008b" stroke="black" points="1866.9,-501 1795.9,-501 1795.9,-465 1866.9,-465 1866.9,-501"/>
<text text-anchor="middle" x="1831.4" y="-479.3" font-family="Times New Roman,serif" font-size="14.00" fill="white">xsd:string</text>
</a>
</g>
</g>
<!-- n53&#45;&gt;n54 -->
<g id="edge51" class="edge"><title>n53&#45;&gt;n54</title>
<path fill="none" stroke="#008b8b" stroke-dasharray="5,2" d="M1831.4,-566.581C1831.4,-551.382 1831.4,-529.067 1831.4,-511.464"/>
<polygon fill="#008b8b" stroke="#008b8b" points="1834.9,-511.219 1831.4,-501.219 1827.9,-511.219 1834.9,-511.219"/>
<text text-anchor="middle" x="1843.9" y="-537.8" font-family="Times New Roman,serif" font-size="14.00">list</text>
<text text-anchor="middle" x="1843.9" y="-522.8" font-family="Times New Roman,serif" font-size="14.00">type</text>
</g>
<!-- n55&#45;&gt;n5 -->
<g id="edge56" class="edge"><title>n55&#45;&gt;n5</title>
<path fill="none" stroke="#008b8b" stroke-dasharray="5,2" d="M2275.4,-464.581C2275.4,-449.382 2275.4,-427.067 2275.4,-409.464"/>
<polygon fill="#008b8b" stroke="#008b8b" points="2278.9,-409.219 2275.4,-399.219 2271.9,-409.219 2278.9,-409.219"/>
<text text-anchor="middle" x="2287.9" y="-435.8" font-family="Times New Roman,serif" font-size="14.00">list</text>
<text text-anchor="middle" x="2287.9" y="-420.8" font-family="Times New Roman,serif" font-size="14.00">type</text>
</g>
</g>
</svg>
