<?xml version="1.0" encoding="UTF-8" standalone="no"?>
<!DOCTYPE svg PUBLIC "-//W3C//DTD SVG 1.1//EN"
 "http://www.w3.org/Graphics/SVG/1.1/DTD/svg11.dtd">
<!-- Generated by graphviz version 2.38.0 (20140413.2041)
 -->
<!-- Title: gsadlimplicitmodel Pages: 1 -->
<svg width="3250pt" height="1099pt"
 viewBox="0.00 0.00 3250.40 1099.00" xmlns="http://www.w3.org/2000/svg" xmlns:xlink="http://www.w3.org/1999/xlink">
<g id="graph0" class="graph" transform="scale(1 1) rotate(0) translate(4 1095)">
<title>gsadlimplicitmodel</title>
<polygon fill="white" stroke="none" points="-4,4 -4,-1095 3246.4,-1095 3246.4,4 -4,4"/>
<text text-anchor="middle" x="126" y="-1075.8" font-family="Times New Roman,serif" font-size="14.00">Graph of Ontology File: sadlimplicitmodel</text>
<!-- n1 -->
<g id="node1" class="node"><title>n1</title>
<ellipse fill="blue" stroke="black" cx="340.397" cy="-876" rx="27" ry="18"/>
<text text-anchor="middle" x="340.397" y="-872.3" font-family="Times New Roman,serif" font-size="14.00" fill="white">Java</text>
</g>
<!-- n2 -->
<g id="node2" class="node"><title>n2</title>
<polygon fill="#00008b" stroke="black" points="264.397,-792 194.397,-792 194.397,-756 264.397,-756 264.397,-792"/>
<text text-anchor="middle" x="229.397" y="-770.3" font-family="Times New Roman,serif" font-size="14.00" fill="white">Language</text>
</g>
<!-- n1&#45;&gt;n2 -->
<g id="edge1" class="edge"><title>n1&#45;&gt;n2</title>
<path fill="none" stroke="black" d="M324.963,-861.095C307.136,-845.036 277.502,-818.338 255.952,-798.924"/>
<polygon fill="black" stroke="black" points="258.188,-796.227 248.415,-792.134 253.502,-801.428 258.188,-796.227"/>
<text text-anchor="middle" x="310.897" y="-821.3" font-family="Times New Roman,serif" font-size="14.00">is a</text>
</g>
<!-- n3 -->
<g id="node3" class="node"><title>n3</title>
<ellipse fill="#00008b" stroke="black" cx="3095.4" cy="-585" rx="59.2899" ry="18"/>
<text text-anchor="middle" x="3095.4" y="-581.3" font-family="Times New Roman,serif" font-size="14.00" fill="white">anyDataType</text>
</g>
<!-- n4 -->
<g id="node4" class="node"><title>n4</title>
<g id="a_node4"><a xlink:href="file:///C:/Users/200001866/Documents/GitHub/RACK/RACK-Ontology/Graphs/rdf-schema.svg" xlink:title="rdfs::Datatype">
<polygon fill="#00008b" stroke="black" points="2856.9,-501 2761.9,-501 2761.9,-465 2856.9,-465 2856.9,-501"/>
<text text-anchor="middle" x="2809.4" y="-479.3" font-family="Times New Roman,serif" font-size="14.00" fill="white">rdfs::Datatype</text>
</a>
</g>
</g>
<!-- n3&#45;&gt;n4 -->
<g id="edge2" class="edge"><title>n3&#45;&gt;n4</title>
<path fill="none" stroke="black" d="M3058.01,-570.927C3009.34,-553.911 2923.81,-524.003 2866.87,-504.095"/>
<polygon fill="black" stroke="black" points="2867.88,-500.742 2857.29,-500.745 2865.57,-507.349 2867.88,-500.742"/>
<text text-anchor="middle" x="3003.9" y="-530.3" font-family="Times New Roman,serif" font-size="14.00">is a</text>
</g>
<!-- n5 -->
<g id="node5" class="node"><title>n5</title>
<polygon fill="#00008b" stroke="black" points="2280.9,-399 2189.9,-399 2189.9,-363 2280.9,-363 2280.9,-399"/>
<text text-anchor="middle" x="2235.4" y="-377.3" font-family="Times New Roman,serif" font-size="14.00" fill="white">GraphPattern</text>
</g>
<!-- n6 -->
<g id="node6" class="node"><title>n6</title>
<polygon fill="#00008b" stroke="black" points="2279.9,-312 2190.9,-312 2190.9,-276 2279.9,-276 2279.9,-312"/>
<text text-anchor="middle" x="2235.4" y="-290.3" font-family="Times New Roman,serif" font-size="14.00" fill="white">TriplePattern</text>
</g>
<!-- n5&#45;&gt;n6 -->
<g id="edge3" class="edge"><title>n5&#45;&gt;n6</title>
<path fill="none" stroke="blue" stroke-dasharray="5,2" d="M2235.4,-362.799C2235.4,-351.163 2235.4,-335.548 2235.4,-322.237"/>
<polygon fill="blue" stroke="blue" points="2238.9,-322.175 2235.4,-312.175 2231.9,-322.175 2238.9,-322.175"/>
<text text-anchor="middle" x="2261.4" y="-333.8" font-family="Times New Roman,serif" font-size="14.00">subClass</text>
</g>
<!-- n20 -->
<g id="node20" class="node"><title>n20</title>
<polygon fill="#00008b" stroke="black" points="2144.9,-312 2039.9,-312 2039.9,-276 2144.9,-276 2144.9,-312"/>
<text text-anchor="middle" x="2092.4" y="-290.3" font-family="Times New Roman,serif" font-size="14.00" fill="white">FunctionPattern</text>
</g>
<!-- n5&#45;&gt;n20 -->
<g id="edge13" class="edge"><title>n5&#45;&gt;n20</title>
<path fill="none" stroke="blue" stroke-dasharray="5,2" d="M2206.46,-362.799C2184.46,-349.722 2154.01,-331.622 2130.1,-317.412"/>
<polygon fill="blue" stroke="blue" points="2131.68,-314.276 2121.29,-312.175 2128.1,-320.294 2131.68,-314.276"/>
<text text-anchor="middle" x="2198.4" y="-333.8" font-family="Times New Roman,serif" font-size="14.00">subClass</text>
</g>
<!-- n7 -->
<g id="node7" class="node"><title>n7</title>
<polygon fill="none" stroke="red" points="1245.4,-894 1003.4,-894 1003.4,-858 1245.4,-858 1245.4,-894"/>
<text text-anchor="middle" x="1124.4" y="-872.3" font-family="Times New Roman,serif" font-size="14.00">localDescriptorName has exactly 1 value</text>
</g>
<!-- n8 -->
<g id="node8" class="node"><title>n8</title>
<polygon fill="#00008b" stroke="black" points="1758.9,-792 1657.9,-792 1657.9,-756 1758.9,-756 1758.9,-792"/>
<text text-anchor="middle" x="1708.4" y="-770.3" font-family="Times New Roman,serif" font-size="14.00" fill="white">DataDescriptor</text>
</g>
<!-- n7&#45;&gt;n8 -->
<g id="edge4" class="edge"><title>n7&#45;&gt;n8</title>
<path fill="none" stroke="red" d="M1191.87,-857.971C1250.81,-843.579 1338.84,-823.247 1416.4,-810 1495.8,-796.438 1588.25,-786.298 1647.49,-780.514"/>
<polygon fill="red" stroke="red" points="1648.18,-783.964 1657.8,-779.519 1647.51,-776.996 1648.18,-783.964"/>
<text text-anchor="middle" x="1438.9" y="-821.3" font-family="Times New Roman,serif" font-size="14.00">restricts</text>
</g>
<!-- n39 -->
<g id="node39" class="node"><title>n39</title>
<polygon fill="#00008b" stroke="black" points="1969.4,-705 1859.4,-705 1859.4,-669 1969.4,-669 1969.4,-705"/>
<text text-anchor="middle" x="1914.4" y="-683.3" font-family="Times New Roman,serif" font-size="14.00" fill="white">AugmentedType</text>
</g>
<!-- n8&#45;&gt;n39 -->
<g id="edge60" class="edge"><title>n8&#45;&gt;n39</title>
<path fill="none" stroke="#00cd00" d="M1750.08,-755.799C1782.86,-742.275 1828.66,-723.377 1863.58,-708.967"/>
<polygon fill="#00cd00" stroke="#00cd00" points="1865.21,-712.08 1873.12,-705.03 1862.54,-705.609 1865.21,-712.08"/>
<text text-anchor="middle" x="1868.4" y="-726.8" font-family="Times New Roman,serif" font-size="14.00">augmentedType</text>
</g>
<!-- n54 -->
<g id="node54" class="node"><title>n54</title>
<polygon fill="#00008b" stroke="black" points="1867.4,-603 1795.4,-603 1795.4,-567 1867.4,-567 1867.4,-603"/>
<text text-anchor="middle" x="1831.4" y="-581.3" font-family="Times New Roman,serif" font-size="14.00" fill="white">string List</text>
</g>
<!-- n8&#45;&gt;n54 -->
<g id="edge54" class="edge"><title>n8&#45;&gt;n54</title>
<path fill="none" stroke="#00cd00" d="M1710.14,-755.958C1712.99,-734.314 1720.18,-696.48 1737.4,-669 1752.37,-645.109 1776.24,-624.15 1796.19,-609.27"/>
<polygon fill="#00cd00" stroke="#00cd00" points="1798.42,-611.978 1804.46,-603.274 1794.31,-606.311 1798.42,-611.978"/>
<text text-anchor="middle" x="1777.4" y="-683.3" font-family="Times New Roman,serif" font-size="14.00">specifiedUnits</text>
</g>
<!-- n9 -->
<g id="node9" class="node"><title>n9</title>
<polygon fill="none" stroke="red" points="1440.9,-894 1263.9,-894 1263.9,-858 1440.9,-858 1440.9,-894"/>
<text text-anchor="middle" x="1352.4" y="-872.3" font-family="Times New Roman,serif" font-size="14.00">dataType has exactly 1 value</text>
</g>
<!-- n9&#45;&gt;n8 -->
<g id="edge5" class="edge"><title>n9&#45;&gt;n8</title>
<path fill="none" stroke="red" d="M1404.59,-857.933C1447.13,-844.262 1508.87,-824.963 1563.4,-810 1591.08,-802.404 1621.97,-794.824 1648.1,-788.671"/>
<polygon fill="red" stroke="red" points="1648.93,-792.072 1657.87,-786.385 1647.34,-785.256 1648.93,-792.072"/>
<text text-anchor="middle" x="1585.9" y="-821.3" font-family="Times New Roman,serif" font-size="14.00">restricts</text>
</g>
<!-- n10 -->
<g id="node10" class="node"><title>n10</title>
<polygon fill="none" stroke="red" points="1663.4,-894 1459.4,-894 1459.4,-858 1663.4,-858 1663.4,-894"/>
<text text-anchor="middle" x="1561.4" y="-872.3" font-family="Times New Roman,serif" font-size="14.00">specifiedUnits has exactly 1 value</text>
</g>
<!-- n10&#45;&gt;n8 -->
<g id="edge6" class="edge"><title>n10&#45;&gt;n8</title>
<path fill="none" stroke="red" d="M1586.67,-857.809C1610.96,-841.282 1647.85,-816.191 1674.65,-797.96"/>
<polygon fill="red" stroke="red" points="1676.66,-800.82 1682.96,-792.301 1672.73,-795.032 1676.66,-800.82"/>
<text text-anchor="middle" x="1678.9" y="-821.3" font-family="Times New Roman,serif" font-size="14.00">restricts</text>
</g>
<!-- n11 -->
<g id="node11" class="node"><title>n11</title>
<polygon fill="none" stroke="red" points="1860.9,-894 1681.9,-894 1681.9,-858 1860.9,-858 1860.9,-894"/>
<text text-anchor="middle" x="1771.4" y="-872.3" font-family="Times New Roman,serif" font-size="14.00">dataType has at most 1 value</text>
</g>
<!-- n11&#45;&gt;n8 -->
<g id="edge7" class="edge"><title>n11&#45;&gt;n8</title>
<path fill="none" stroke="red" d="M1760.42,-857.581C1750.58,-841.951 1735.99,-818.798 1724.77,-800.981"/>
<polygon fill="red" stroke="red" points="1727.54,-798.814 1719.24,-792.219 1721.61,-802.546 1727.54,-798.814"/>
<text text-anchor="middle" x="1770.9" y="-821.3" font-family="Times New Roman,serif" font-size="14.00">restricts</text>
</g>
<!-- n12 -->
<g id="node12" class="node"><title>n12</title>
<polygon fill="none" stroke="red" points="2109.4,-894 1879.4,-894 1879.4,-858 2109.4,-858 2109.4,-894"/>
<text text-anchor="middle" x="1994.4" y="-872.3" font-family="Times New Roman,serif" font-size="14.00">descriptorVariable has at most 1 value</text>
</g>
<!-- n12&#45;&gt;n8 -->
<g id="edge8" class="edge"><title>n12&#45;&gt;n8</title>
<path fill="none" stroke="red" d="M1945.56,-857.923C1895.99,-840.593 1819.26,-813.764 1766.58,-795.344"/>
<polygon fill="red" stroke="red" points="1767.63,-792.003 1757.04,-792.007 1765.32,-798.611 1767.63,-792.003"/>
<text text-anchor="middle" x="1915.9" y="-821.3" font-family="Times New Roman,serif" font-size="14.00">restricts</text>
</g>
<!-- n13 -->
<g id="node13" class="node"><title>n13</title>
<polygon fill="none" stroke="red" points="498.897,-981 325.897,-981 325.897,-945 498.897,-945 498.897,-981"/>
<text text-anchor="middle" x="412.397" y="-959.3" font-family="Times New Roman,serif" font-size="14.00">language has exactly 1 value</text>
</g>
<!-- n14 -->
<g id="node14" class="node"><title>n14</title>
<polygon fill="#00008b" stroke="black" points="439.397,-894 385.397,-894 385.397,-858 439.397,-858 439.397,-894"/>
<text text-anchor="middle" x="412.397" y="-872.3" font-family="Times New Roman,serif" font-size="14.00" fill="white">Script</text>
</g>
<!-- n13&#45;&gt;n14 -->
<g id="edge9" class="edge"><title>n13&#45;&gt;n14</title>
<path fill="none" stroke="red" d="M412.397,-944.799C412.397,-933.163 412.397,-917.548 412.397,-904.237"/>
<polygon fill="red" stroke="red" points="415.897,-904.175 412.397,-894.175 408.897,-904.175 415.897,-904.175"/>
<text text-anchor="middle" x="434.897" y="-915.8" font-family="Times New Roman,serif" font-size="14.00">restricts</text>
</g>
<!-- n14&#45;&gt;n2 -->
<g id="edge61" class="edge"><title>n14&#45;&gt;n2</title>
<path fill="none" stroke="#00cd00" d="M392.527,-857.752C375.375,-843.515 349.473,-823.524 324.397,-810 308.767,-801.571 290.677,-794.344 274.504,-788.682"/>
<polygon fill="#00cd00" stroke="#00cd00" points="275.315,-785.262 264.721,-785.363 273.066,-791.89 275.315,-785.262"/>
<text text-anchor="middle" x="393.897" y="-821.3" font-family="Times New Roman,serif" font-size="14.00">language</text>
</g>
<!-- n15 -->
<g id="node15" class="node"><title>n15</title>
<polygon fill="none" stroke="red" points="307.397,-981 151.397,-981 151.397,-945 307.397,-945 307.397,-981"/>
<text text-anchor="middle" x="229.397" y="-959.3" font-family="Times New Roman,serif" font-size="14.00">script has exactly 1 value</text>
</g>
<!-- n15&#45;&gt;n14 -->
<g id="edge10" class="edge"><title>n15&#45;&gt;n14</title>
<path fill="none" stroke="red" d="M266.59,-944.894C294.356,-932.101 333.457,-914.039 376.125,-894.112"/>
<polygon fill="red" stroke="red" points="377.703,-897.238 385.281,-889.833 374.739,-890.896 377.703,-897.238"/>
<text text-anchor="middle" x="358.897" y="-915.8" font-family="Times New Roman,serif" font-size="14.00">restricts</text>
</g>
<!-- n16 -->
<g id="node16" class="node"><title>n16</title>
<polygon fill="none" stroke="red" points="2751.4,-894 2567.4,-894 2567.4,-858 2751.4,-858 2751.4,-894"/>
<text text-anchor="middle" x="2659.4" y="-872.3" font-family="Times New Roman,serif" font-size="14.00">rowValues has exactly 1 value</text>
</g>
<!-- n17 -->
<g id="node17" class="node"><title>n17</title>
<polygon fill="#00008b" stroke="black" points="2709.9,-792 2608.9,-792 2608.9,-756 2709.9,-756 2709.9,-792"/>
<text text-anchor="middle" x="2659.4" y="-770.3" font-family="Times New Roman,serif" font-size="14.00" fill="white">DataTableRow</text>
</g>
<!-- n16&#45;&gt;n17 -->
<g id="edge11" class="edge"><title>n16&#45;&gt;n17</title>
<path fill="none" stroke="red" d="M2659.4,-857.581C2659.4,-842.382 2659.4,-820.067 2659.4,-802.464"/>
<polygon fill="red" stroke="red" points="2662.9,-802.219 2659.4,-792.219 2655.9,-802.219 2662.9,-802.219"/>
<text text-anchor="middle" x="2681.9" y="-821.3" font-family="Times New Roman,serif" font-size="14.00">restricts</text>
</g>
<!-- n52 -->
<g id="node52" class="node"><title>n52</title>
<polygon fill="#00008b" stroke="black" points="2837.4,-705 2721.4,-705 2721.4,-669 2837.4,-669 2837.4,-705"/>
<text text-anchor="middle" x="2779.4" y="-683.3" font-family="Times New Roman,serif" font-size="14.00" fill="white">anyDataType List</text>
</g>
<!-- n17&#45;&gt;n52 -->
<g id="edge47" class="edge"><title>n17&#45;&gt;n52</title>
<path fill="none" stroke="#00cd00" d="M2672.49,-755.667C2681.02,-745.233 2692.86,-732.228 2705.4,-723 2711.92,-718.203 2719.2,-713.807 2726.58,-709.873"/>
<polygon fill="#00cd00" stroke="#00cd00" points="2728.59,-712.778 2735.93,-705.14 2725.43,-706.532 2728.59,-712.778"/>
<text text-anchor="middle" x="2735.4" y="-726.8" font-family="Times New Roman,serif" font-size="14.00">rowValues</text>
</g>
<!-- n18 -->
<g id="node18" class="node"><title>n18</title>
<polygon fill="#00008b" stroke="black" points="2584.4,-1068 2468.4,-1068 2468.4,-1032 2584.4,-1032 2584.4,-1068"/>
<text text-anchor="middle" x="2526.4" y="-1046.3" font-family="Times New Roman,serif" font-size="14.00" fill="white">ScientificConcept</text>
</g>
<!-- n19 -->
<g id="node19" class="node"><title>n19</title>
<polygon fill="#00008b" stroke="black" points="2578.4,-981 2474.4,-981 2474.4,-945 2578.4,-945 2578.4,-981"/>
<text text-anchor="middle" x="2526.4" y="-959.3" font-family="Times New Roman,serif" font-size="14.00" fill="white">UnittedQuantity</text>
</g>
<!-- n18&#45;&gt;n19 -->
<g id="edge12" class="edge"><title>n18&#45;&gt;n19</title>
<path fill="none" stroke="blue" stroke-dasharray="5,2" d="M2526.4,-1031.8C2526.4,-1020.16 2526.4,-1004.55 2526.4,-991.237"/>
<polygon fill="blue" stroke="blue" points="2529.9,-991.175 2526.4,-981.175 2522.9,-991.175 2529.9,-991.175"/>
<text text-anchor="middle" x="2552.4" y="-1002.8" font-family="Times New Roman,serif" font-size="14.00">subClass</text>
</g>
<!-- n34 -->
<g id="node34" class="node"><title>n34</title>
<polygon fill="#00008b" stroke="black" points="864.397,-981 798.397,-981 798.397,-945 864.397,-945 864.397,-981"/>
<text text-anchor="middle" x="831.397" y="-959.3" font-family="Times New Roman,serif" font-size="14.00" fill="white">Equation</text>
</g>
<!-- n20&#45;&gt;n34 -->
<g id="edge51" class="edge"><title>n20&#45;&gt;n34</title>
<path fill="none" stroke="#00cd00" d="M2039.82,-295.747C1801.16,-299.478 831.397,-318.425 831.397,-380 831.397,-877 831.397,-877 831.397,-877 831.397,-896.247 831.397,-917.946 831.397,-934.603"/>
<polygon fill="#00cd00" stroke="#00cd00" points="827.897,-934.744 831.397,-944.744 834.897,-934.744 827.897,-934.744"/>
<text text-anchor="middle" x="848.397" y="-632.3" font-family="Times New Roman,serif" font-size="14.00">builtin</text>
</g>
<!-- n53 -->
<g id="node53" class="node"><title>n53</title>
<polygon fill="#00008b" stroke="black" points="2944.4,-225 2852.4,-225 2852.4,-189 2944.4,-189 2944.4,-225"/>
<text text-anchor="middle" x="2898.4" y="-203.3" font-family="Times New Roman,serif" font-size="14.00" fill="white">GPAtom List</text>
</g>
<!-- n20&#45;&gt;n53 -->
<g id="edge50" class="edge"><title>n20&#45;&gt;n53</title>
<path fill="none" stroke="#00cd00" d="M2145.07,-282.05C2157.28,-279.789 2170.26,-277.61 2182.4,-276 2471.21,-237.699 2552.15,-279.228 2842.4,-224.929"/>
<polygon fill="#00cd00" stroke="#00cd00" points="2843.2,-228.34 2852.37,-223.041 2841.9,-221.462 2843.2,-228.34"/>
<text text-anchor="middle" x="2745.9" y="-246.8" font-family="Times New Roman,serif" font-size="14.00">argValues</text>
</g>
<!-- n21 -->
<g id="node21" class="node"><title>n21</title>
<polygon fill="none" stroke="red" points="2171.4,-399 2013.4,-399 2013.4,-363 2171.4,-363 2171.4,-399"/>
<text text-anchor="middle" x="2092.4" y="-377.3" font-family="Times New Roman,serif" font-size="14.00">builtin has exactly 1 value</text>
</g>
<!-- n21&#45;&gt;n20 -->
<g id="edge14" class="edge"><title>n21&#45;&gt;n20</title>
<path fill="none" stroke="red" d="M2092.4,-362.799C2092.4,-351.163 2092.4,-335.548 2092.4,-322.237"/>
<polygon fill="red" stroke="red" points="2095.9,-322.175 2092.4,-312.175 2088.9,-322.175 2095.9,-322.175"/>
<text text-anchor="middle" x="2114.9" y="-333.8" font-family="Times New Roman,serif" font-size="14.00">restricts</text>
</g>
<!-- n22 -->
<g id="node22" class="node"><title>n22</title>
<polygon fill="none" stroke="red" points="1994.9,-399 1815.9,-399 1815.9,-363 1994.9,-363 1994.9,-399"/>
<text text-anchor="middle" x="1905.4" y="-377.3" font-family="Times New Roman,serif" font-size="14.00">argValues has exactly 1 value</text>
</g>
<!-- n22&#45;&gt;n20 -->
<g id="edge15" class="edge"><title>n22&#45;&gt;n20</title>
<path fill="none" stroke="red" d="M1943.24,-362.799C1972.74,-349.39 2013.86,-330.7 2045.45,-316.338"/>
<polygon fill="red" stroke="red" points="2047.28,-319.355 2054.93,-312.03 2044.38,-312.982 2047.28,-319.355"/>
<text text-anchor="middle" x="2031.9" y="-333.8" font-family="Times New Roman,serif" font-size="14.00">restricts</text>
</g>
<!-- n23 -->
<g id="node23" class="node"><title>n23</title>
<ellipse fill="blue" stroke="black" cx="36.3968" cy="-876" rx="36.2938" ry="18"/>
<text text-anchor="middle" x="36.3968" y="-872.3" font-family="Times New Roman,serif" font-size="14.00" fill="white">Python</text>
</g>
<!-- n23&#45;&gt;n2 -->
<g id="edge16" class="edge"><title>n23&#45;&gt;n2</title>
<path fill="none" stroke="black" d="M55.7037,-860.437C75.1042,-846.266 106.23,-824.768 135.397,-810 150.964,-802.118 168.747,-795.043 184.625,-789.353"/>
<polygon fill="black" stroke="black" points="185.945,-792.599 194.228,-785.993 183.633,-785.991 185.945,-792.599"/>
<text text-anchor="middle" x="144.897" y="-821.3" font-family="Times New Roman,serif" font-size="14.00">is a</text>
</g>
<!-- n24 -->
<g id="node24" class="node"><title>n24</title>
<polygon fill="none" stroke="red" points="1527.9,-1068 1296.9,-1068 1296.9,-1032 1527.9,-1032 1527.9,-1068"/>
<text text-anchor="middle" x="1412.4" y="-1046.3" font-family="Times New Roman,serif" font-size="14.00">columnDescriptors has exactly 1 value</text>
</g>
<!-- n25 -->
<g id="node25" class="node"><title>n25</title>
<polygon fill="#00008b" stroke="black" points="1679.4,-981 1605.4,-981 1605.4,-945 1679.4,-945 1679.4,-981"/>
<text text-anchor="middle" x="1642.4" y="-959.3" font-family="Times New Roman,serif" font-size="14.00" fill="white">DataTable</text>
</g>
<!-- n24&#45;&gt;n25 -->
<g id="edge17" class="edge"><title>n24&#45;&gt;n25</title>
<path fill="none" stroke="red" d="M1458.66,-1031.9C1498.53,-1017.17 1555.82,-995.997 1595.79,-981.226"/>
<polygon fill="red" stroke="red" points="1597.13,-984.459 1605.3,-977.71 1594.71,-977.893 1597.13,-984.459"/>
<text text-anchor="middle" x="1562.9" y="-1002.8" font-family="Times New Roman,serif" font-size="14.00">restricts</text>
</g>
<!-- n49 -->
<g id="node49" class="node"><title>n49</title>
<polygon fill="#00008b" stroke="black" points="985.397,-894 859.397,-894 859.397,-858 985.397,-858 985.397,-894"/>
<text text-anchor="middle" x="922.397" y="-872.3" font-family="Times New Roman,serif" font-size="14.00" fill="white">DataDescriptor List</text>
</g>
<!-- n25&#45;&gt;n49 -->
<g id="edge55" class="edge"><title>n25&#45;&gt;n49</title>
<path fill="none" stroke="#00cd00" d="M1605.28,-959.766C1507.18,-953.508 1232.88,-933.725 995.716,-894.104"/>
<polygon fill="#00cd00" stroke="#00cd00" points="995.963,-890.596 985.52,-892.384 994.799,-897.498 995.963,-890.596"/>
<text text-anchor="middle" x="1278.9" y="-915.8" font-family="Times New Roman,serif" font-size="14.00">columnDescriptors</text>
</g>
<!-- n51 -->
<g id="node51" class="node"><title>n51</title>
<polygon fill="#00008b" stroke="black" points="2548.9,-894 2423.9,-894 2423.9,-858 2548.9,-858 2548.9,-894"/>
<text text-anchor="middle" x="2486.4" y="-872.3" font-family="Times New Roman,serif" font-size="14.00" fill="white">DataTableRow List</text>
</g>
<!-- n25&#45;&gt;n51 -->
<g id="edge43" class="edge"><title>n25&#45;&gt;n51</title>
<path fill="none" stroke="#00cd00" d="M1679.42,-960.045C1759.46,-955.647 1954.56,-944.016 2117.4,-927 2220.56,-916.22 2339.37,-899.311 2413.67,-888.191"/>
<polygon fill="#00cd00" stroke="#00cd00" points="2414.49,-891.608 2423.86,-886.661 2413.45,-884.685 2414.49,-891.608"/>
<text text-anchor="middle" x="2273.4" y="-915.8" font-family="Times New Roman,serif" font-size="14.00">dataContent</text>
</g>
<!-- n26 -->
<g id="node26" class="node"><title>n26</title>
<polygon fill="none" stroke="red" points="1738.4,-1068 1546.4,-1068 1546.4,-1032 1738.4,-1032 1738.4,-1068"/>
<text text-anchor="middle" x="1642.4" y="-1046.3" font-family="Times New Roman,serif" font-size="14.00">dataContent has exactly 1 value</text>
</g>
<!-- n26&#45;&gt;n25 -->
<g id="edge18" class="edge"><title>n26&#45;&gt;n25</title>
<path fill="none" stroke="red" d="M1642.4,-1031.8C1642.4,-1020.16 1642.4,-1004.55 1642.4,-991.237"/>
<polygon fill="red" stroke="red" points="1645.9,-991.175 1642.4,-981.175 1638.9,-991.175 1645.9,-991.175"/>
<text text-anchor="middle" x="1664.9" y="-1002.8" font-family="Times New Roman,serif" font-size="14.00">restricts</text>
</g>
<!-- n27 -->
<g id="node27" class="node"><title>n27</title>
<polygon fill="none" stroke="red" points="1953.9,-1068 1756.9,-1068 1756.9,-1032 1953.9,-1032 1953.9,-1068"/>
<text text-anchor="middle" x="1855.4" y="-1046.3" font-family="Times New Roman,serif" font-size="14.00">dataLocation has exactly 1 value</text>
</g>
<!-- n27&#45;&gt;n25 -->
<g id="edge19" class="edge"><title>n27&#45;&gt;n25</title>
<path fill="none" stroke="red" d="M1812.55,-1031.9C1776.75,-1017.62 1725.8,-997.283 1688.99,-982.595"/>
<polygon fill="red" stroke="red" points="1690.07,-979.257 1679.49,-978.801 1687.48,-985.758 1690.07,-979.257"/>
<text text-anchor="middle" x="1783.9" y="-1002.8" font-family="Times New Roman,serif" font-size="14.00">restricts</text>
</g>
<!-- n28 -->
<g id="node28" class="node"><title>n28</title>
<ellipse fill="blue" stroke="black" cx="2807.4" cy="-207" rx="27" ry="18"/>
<text text-anchor="middle" x="2807.4" y="-203.3" font-family="Times New Roman,serif" font-size="14.00" fill="white">Plus</text>
</g>
<!-- n29 -->
<g id="node29" class="node"><title>n29</title>
<polygon fill="#00008b" stroke="black" points="2873.9,-123 2806.9,-123 2806.9,-87 2873.9,-87 2873.9,-123"/>
<text text-anchor="middle" x="2840.4" y="-101.3" font-family="Times New Roman,serif" font-size="14.00" fill="white">GPAtom</text>
</g>
<!-- n28&#45;&gt;n29 -->
<g id="edge20" class="edge"><title>n28&#45;&gt;n29</title>
<path fill="none" stroke="black" d="M2812.99,-189.036C2818.09,-173.593 2825.7,-150.538 2831.61,-132.637"/>
<polygon fill="black" stroke="black" points="2834.96,-133.64 2834.77,-123.047 2828.31,-131.446 2834.96,-133.64"/>
<text text-anchor="middle" x="2837.9" y="-152.3" font-family="Times New Roman,serif" font-size="14.00">is a</text>
</g>
<!-- n30 -->
<g id="node30" class="node"><title>n30</title>
<polygon fill="#00008b" stroke="black" points="2746.9,-36 2665.9,-36 2665.9,-0 2746.9,-0 2746.9,-36"/>
<text text-anchor="middle" x="2706.4" y="-14.3" font-family="Times New Roman,serif" font-size="14.00" fill="white">GPVariable</text>
</g>
<!-- n29&#45;&gt;n30 -->
<g id="edge21" class="edge"><title>n29&#45;&gt;n30</title>
<path fill="none" stroke="blue" stroke-dasharray="5,2" d="M2810.8,-86.855C2801.34,-81.2658 2790.87,-74.9629 2781.4,-69 2767.73,-60.3991 2752.9,-50.6083 2740.06,-41.9842"/>
<polygon fill="blue" stroke="blue" points="2741.77,-38.9195 2731.52,-36.2291 2737.86,-44.7228 2741.77,-38.9195"/>
<text text-anchor="middle" x="2807.4" y="-57.8" font-family="Times New Roman,serif" font-size="14.00">subClass</text>
</g>
<!-- n40 -->
<g id="node40" class="node"><title>n40</title>
<polygon fill="#00008b" stroke="black" points="2879.9,-36 2790.9,-36 2790.9,-0 2879.9,-0 2879.9,-36"/>
<text text-anchor="middle" x="2835.4" y="-14.3" font-family="Times New Roman,serif" font-size="14.00" fill="white">GPResource</text>
</g>
<!-- n29&#45;&gt;n40 -->
<g id="edge29" class="edge"><title>n29&#45;&gt;n40</title>
<path fill="none" stroke="blue" stroke-dasharray="5,2" d="M2839.38,-86.799C2838.7,-75.1626 2837.78,-59.5479 2837,-46.2368"/>
<polygon fill="blue" stroke="blue" points="2840.49,-45.9526 2836.41,-36.1754 2833.5,-46.3637 2840.49,-45.9526"/>
<text text-anchor="middle" x="2863.4" y="-57.8" font-family="Times New Roman,serif" font-size="14.00">subClass</text>
</g>
<!-- n41 -->
<g id="node41" class="node"><title>n41</title>
<polygon fill="#00008b" stroke="black" points="2998.9,-36 2897.9,-36 2897.9,-0 2998.9,-0 2998.9,-36"/>
<text text-anchor="middle" x="2948.4" y="-14.3" font-family="Times New Roman,serif" font-size="14.00" fill="white">GPLiteralValue</text>
</g>
<!-- n29&#45;&gt;n41 -->
<g id="edge30" class="edge"><title>n29&#45;&gt;n41</title>
<path fill="none" stroke="blue" stroke-dasharray="5,2" d="M2867.92,-86.9768C2876.29,-81.4968 2885.39,-75.2256 2893.4,-69 2903.59,-61.0806 2914.21,-51.7188 2923.37,-43.25"/>
<polygon fill="blue" stroke="blue" points="2925.78,-45.7899 2930.68,-36.3974 2920.99,-40.6828 2925.78,-45.7899"/>
<text text-anchor="middle" x="2936.4" y="-57.8" font-family="Times New Roman,serif" font-size="14.00">subClass</text>
</g>
<!-- n31 -->
<g id="node31" class="node"><title>n31</title>
<polygon fill="none" stroke="red" points="2788.9,-123 2571.9,-123 2571.9,-87 2788.9,-87 2788.9,-123"/>
<text text-anchor="middle" x="2680.4" y="-101.3" font-family="Times New Roman,serif" font-size="14.00">gpVariableName has exactly 1 value</text>
</g>
<!-- n31&#45;&gt;n30 -->
<g id="edge22" class="edge"><title>n31&#45;&gt;n30</title>
<path fill="none" stroke="red" d="M2682.34,-86.5882C2683.72,-76.8436 2685.95,-64.566 2689.4,-54 2690.35,-51.0757 2691.5,-48.0845 2692.75,-45.1426"/>
<polygon fill="red" stroke="red" points="2695.93,-46.6014 2696.95,-36.0558 2689.58,-43.6631 2695.93,-46.6014"/>
<text text-anchor="middle" x="2711.9" y="-57.8" font-family="Times New Roman,serif" font-size="14.00">restricts</text>
</g>
<!-- n32 -->
<g id="node32" class="node"><title>n32</title>
<ellipse fill="blue" stroke="black" cx="2189.4" cy="-876" rx="62.2891" ry="18"/>
<text text-anchor="middle" x="2189.4" y="-872.3" font-family="Times New Roman,serif" font-size="14.00" fill="white">ThisArgument</text>
</g>
<!-- n32&#45;&gt;n8 -->
<g id="edge23" class="edge"><title>n32&#45;&gt;n8</title>
<path fill="none" stroke="black" d="M2147.77,-862.56C2098.94,-848.313 2015.36,-825.011 1942.4,-810 1933.93,-808.258 1835.39,-793.67 1768.92,-783.885"/>
<polygon fill="black" stroke="black" points="1769.35,-780.412 1758.95,-782.419 1768.34,-787.337 1769.35,-780.412"/>
<text text-anchor="middle" x="2073.9" y="-821.3" font-family="Times New Roman,serif" font-size="14.00">is a</text>
</g>
<!-- n33 -->
<g id="node33" class="node"><title>n33</title>
<polygon fill="none" stroke="red" points="1025.4,-1068 843.397,-1068 843.397,-1032 1025.4,-1032 1025.4,-1068"/>
<text text-anchor="middle" x="934.397" y="-1046.3" font-family="Times New Roman,serif" font-size="14.00">arguments has exactly 1 value</text>
</g>
<!-- n33&#45;&gt;n34 -->
<g id="edge24" class="edge"><title>n33&#45;&gt;n34</title>
<path fill="none" stroke="red" d="M913.553,-1031.8C898.196,-1019.13 877.121,-1001.73 860.161,-987.738"/>
<polygon fill="red" stroke="red" points="862.15,-984.841 852.209,-981.175 857.694,-990.24 862.15,-984.841"/>
<text text-anchor="middle" x="911.897" y="-1002.8" font-family="Times New Roman,serif" font-size="14.00">restricts</text>
</g>
<!-- n34&#45;&gt;n14 -->
<g id="edge56" class="edge"><title>n34&#45;&gt;n14</title>
<path fill="none" stroke="#00cd00" d="M798.155,-958.753C765.983,-954.636 716.482,-945.682 677.397,-927 667.69,-922.36 668.286,-916.237 658.397,-912 588.947,-882.243 499.378,-876.82 449.728,-876.364"/>
<polygon fill="#00cd00" stroke="#00cd00" points="449.477,-872.863 439.468,-876.336 449.458,-879.863 449.477,-872.863"/>
<text text-anchor="middle" x="707.897" y="-915.8" font-family="Times New Roman,serif" font-size="14.00">expression</text>
</g>
<!-- n47 -->
<g id="node47" class="node"><title>n47</title>
<polygon fill="#00008b" stroke="black" points="735.897,-894 624.897,-894 624.897,-858 735.897,-858 735.897,-894"/>
<text text-anchor="middle" x="680.397" y="-872.3" font-family="Times New Roman,serif" font-size="14.00" fill="white">ExternalEquation</text>
</g>
<!-- n34&#45;&gt;n47 -->
<g id="edge36" class="edge"><title>n34&#45;&gt;n47</title>
<path fill="none" stroke="blue" stroke-dasharray="5,2" d="M798.174,-945.13C787.587,-939.556 775.899,-933.192 765.397,-927 754.884,-920.802 752.827,-918.336 742.397,-912 735.415,-907.758 727.905,-903.374 720.606,-899.203"/>
<polygon fill="blue" stroke="blue" points="721.954,-895.945 711.528,-894.061 718.504,-902.035 721.954,-895.945"/>
<text text-anchor="middle" x="791.397" y="-915.8" font-family="Times New Roman,serif" font-size="14.00">subClass</text>
</g>
<!-- n34&#45;&gt;n49 -->
<g id="edge40" class="edge"><title>n34&#45;&gt;n49</title>
<path fill="none" stroke="#00cd00" d="M840.545,-944.906C846.647,-934.562 855.374,-921.568 865.397,-912 870.027,-907.58 875.307,-903.441 880.74,-899.666"/>
<polygon fill="#00cd00" stroke="#00cd00" points="882.881,-902.448 889.336,-894.047 879.051,-896.589 882.881,-902.448"/>
<text text-anchor="middle" x="894.397" y="-915.8" font-family="Times New Roman,serif" font-size="14.00">arguments</text>
</g>
<!-- n34&#45;&gt;n49 -->
<g id="edge44" class="edge"><title>n34&#45;&gt;n49</title>
<path fill="none" stroke="#00cd00" d="M864.85,-958.664C885.433,-954.688 910.301,-945.993 923.397,-927 927.92,-920.44 929.072,-912.156 928.687,-904.229"/>
<polygon fill="#00cd00" stroke="#00cd00" points="932.147,-903.685 927.452,-894.187 925.199,-904.54 932.147,-903.685"/>
<text text-anchor="middle" x="963.397" y="-915.8" font-family="Times New Roman,serif" font-size="14.00">returnTypes</text>
</g>
<!-- n35 -->
<g id="node35" class="node"><title>n35</title>
<polygon fill="none" stroke="red" points="825.397,-1068 633.397,-1068 633.397,-1032 825.397,-1032 825.397,-1068"/>
<text text-anchor="middle" x="729.397" y="-1046.3" font-family="Times New Roman,serif" font-size="14.00">returnTypes has exactly 1 value</text>
</g>
<!-- n35&#45;&gt;n34 -->
<g id="edge25" class="edge"><title>n35&#45;&gt;n34</title>
<path fill="none" stroke="red" d="M750.038,-1031.8C765.246,-1019.13 786.117,-1001.73 802.912,-987.738"/>
<polygon fill="red" stroke="red" points="805.345,-990.266 810.786,-981.175 800.863,-984.889 805.345,-990.266"/>
<text text-anchor="middle" x="809.897" y="-1002.8" font-family="Times New Roman,serif" font-size="14.00">restricts</text>
</g>
<!-- n36 -->
<g id="node36" class="node"><title>n36</title>
<ellipse fill="blue" stroke="black" cx="2699.4" cy="-585" rx="318.443" ry="18"/>
<text text-anchor="middle" x="2699.4" y="-581.3" font-family="Times New Roman,serif" font-size="14.00" fill="white">xsd:decimal or xsd:boolean or xsd:string or xsd:date or xsd:dateTime or xsd:anyURI</text>
</g>
<!-- n36&#45;&gt;n4 -->
<g id="edge26" class="edge"><title>n36&#45;&gt;n4</title>
<path fill="none" stroke="black" d="M2718.56,-566.581C2736.38,-550.378 2763.1,-526.089 2782.95,-508.042"/>
<polygon fill="black" stroke="black" points="2785.41,-510.536 2790.46,-501.219 2780.7,-505.356 2785.41,-510.536"/>
<text text-anchor="middle" x="2779.9" y="-530.3" font-family="Times New Roman,serif" font-size="14.00">is a</text>
</g>
<!-- n37 -->
<g id="node37" class="node"><title>n37</title>
<ellipse fill="blue" stroke="black" cx="118.397" cy="-876" rx="27.0966" ry="18"/>
<text text-anchor="middle" x="118.397" y="-872.3" font-family="Times New Roman,serif" font-size="14.00" fill="white">Text</text>
</g>
<!-- n37&#45;&gt;n2 -->
<g id="edge27" class="edge"><title>n37&#45;&gt;n2</title>
<path fill="none" stroke="black" d="M133.831,-861.095C151.657,-845.036 181.292,-818.338 202.841,-798.924"/>
<polygon fill="black" stroke="black" points="205.291,-801.428 210.378,-792.134 200.606,-796.227 205.291,-801.428"/>
<text text-anchor="middle" x="199.897" y="-821.3" font-family="Times New Roman,serif" font-size="14.00">is a</text>
</g>
<!-- n38 -->
<g id="node38" class="node"><title>n38</title>
<polygon fill="none" stroke="red" points="2119.9,-792 1916.9,-792 1916.9,-756 2119.9,-756 2119.9,-792"/>
<text text-anchor="middle" x="2018.4" y="-770.3" font-family="Times New Roman,serif" font-size="14.00">augTypeUnits has exactly 1 value</text>
</g>
<!-- n38&#45;&gt;n39 -->
<g id="edge28" class="edge"><title>n38&#45;&gt;n39</title>
<path fill="none" stroke="red" d="M1997.35,-755.799C1981.84,-743.126 1960.56,-725.734 1943.44,-711.738"/>
<polygon fill="red" stroke="red" points="1945.37,-708.794 1935.41,-705.175 1940.94,-714.214 1945.37,-708.794"/>
<text text-anchor="middle" x="1994.9" y="-726.8" font-family="Times New Roman,serif" font-size="14.00">restricts</text>
</g>
<!-- n42 -->
<g id="node42" class="node"><title>n42</title>
<polygon fill="#00008b" stroke="black" points="2310.9,-603 2213.9,-603 2213.9,-567 2310.9,-567 2310.9,-603"/>
<text text-anchor="middle" x="2262.4" y="-581.3" font-family="Times New Roman,serif" font-size="14.00" fill="white">SemanticType</text>
</g>
<!-- n39&#45;&gt;n42 -->
<g id="edge31" class="edge"><title>n39&#45;&gt;n42</title>
<path fill="none" stroke="blue" stroke-dasharray="5,2" d="M1969.49,-671.274C1990.33,-664.958 2011.04,-657.543 2019.4,-651 2031.83,-641.274 2025.05,-629.421 2038.4,-621 2066.79,-603.086 2155.32,-608.767 2188.4,-603 2193.38,-602.131 2198.54,-601.14 2203.7,-600.084"/>
<polygon fill="blue" stroke="blue" points="2204.53,-603.485 2213.59,-597.986 2203.08,-596.637 2204.53,-603.485"/>
<text text-anchor="middle" x="2064.4" y="-632.3" font-family="Times New Roman,serif" font-size="14.00">subClass</text>
</g>
<!-- n44 -->
<g id="node44" class="node"><title>n44</title>
<polygon fill="#00008b" stroke="black" points="2178.9,-603 2053.9,-603 2053.9,-567 2178.9,-567 2178.9,-603"/>
<text text-anchor="middle" x="2116.4" y="-581.3" font-family="Times New Roman,serif" font-size="14.00" fill="white">SemanticConstraint</text>
</g>
<!-- n39&#45;&gt;n44 -->
<g id="edge33" class="edge"><title>n39&#45;&gt;n44</title>
<path fill="none" stroke="blue" stroke-dasharray="5,2" d="M1929.54,-668.711C1934.36,-663.114 1939.66,-656.843 1944.4,-651 1954.98,-637.95 1953.29,-630.119 1967.4,-621 1989.96,-606.422 2017.93,-597.899 2043.53,-592.923"/>
<polygon fill="blue" stroke="blue" points="2044.35,-596.331 2053.58,-591.123 2043.12,-589.441 2044.35,-596.331"/>
<text text-anchor="middle" x="1993.4" y="-632.3" font-family="Times New Roman,serif" font-size="14.00">subClass</text>
</g>
<!-- n39&#45;&gt;n54 -->
<g id="edge62" class="edge"><title>n39&#45;&gt;n54</title>
<path fill="none" stroke="#00cd00" d="M1885.82,-668.985C1878.59,-663.813 1871.23,-657.703 1865.4,-651 1855.57,-639.706 1847.59,-625.076 1841.85,-612.557"/>
<polygon fill="#00cd00" stroke="#00cd00" points="1844.92,-610.846 1837.72,-603.072 1838.5,-613.639 1844.92,-610.846"/>
<text text-anchor="middle" x="1904.9" y="-632.3" font-family="Times New Roman,serif" font-size="14.00">augTypeUnits</text>
</g>
<!-- n43 -->
<g id="node43" class="node"><title>n43</title>
<polygon fill="none" stroke="red" points="2367.4,-705 2191.4,-705 2191.4,-669 2367.4,-669 2367.4,-705"/>
<text text-anchor="middle" x="2279.4" y="-683.3" font-family="Times New Roman,serif" font-size="14.00">semType has exactly 1 value</text>
</g>
<!-- n43&#45;&gt;n42 -->
<g id="edge32" class="edge"><title>n43&#45;&gt;n42</title>
<path fill="none" stroke="red" d="M2276.44,-668.581C2273.85,-653.382 2270.06,-631.067 2267.07,-613.464"/>
<polygon fill="red" stroke="red" points="2270.45,-612.491 2265.32,-603.219 2263.55,-613.664 2270.45,-612.491"/>
<text text-anchor="middle" x="2295.9" y="-632.3" font-family="Times New Roman,serif" font-size="14.00">restricts</text>
</g>
<!-- n56 -->
<g id="node56" class="node"><title>n56</title>
<polygon fill="#00008b" stroke="black" points="2293.4,-501 2177.4,-501 2177.4,-465 2293.4,-465 2293.4,-501"/>
<text text-anchor="middle" x="2235.4" y="-479.3" font-family="Times New Roman,serif" font-size="14.00" fill="white">GraphPattern List</text>
</g>
<!-- n44&#45;&gt;n56 -->
<g id="edge59" class="edge"><title>n44&#45;&gt;n56</title>
<path fill="none" stroke="#00cd00" d="M2136.85,-566.809C2156.18,-550.568 2185.35,-526.057 2206.94,-507.913"/>
<polygon fill="#00cd00" stroke="#00cd00" points="2209.4,-510.414 2214.81,-501.301 2204.9,-505.055 2209.4,-510.414"/>
<text text-anchor="middle" x="2223.9" y="-530.3" font-family="Times New Roman,serif" font-size="14.00">constraints</text>
</g>
<!-- n45 -->
<g id="node45" class="node"><title>n45</title>
<polygon fill="none" stroke="red" points="2172.9,-705 1987.9,-705 1987.9,-669 2172.9,-669 2172.9,-705"/>
<text text-anchor="middle" x="2080.4" y="-683.3" font-family="Times New Roman,serif" font-size="14.00">constraints has exactly 1 value</text>
</g>
<!-- n45&#45;&gt;n44 -->
<g id="edge34" class="edge"><title>n45&#45;&gt;n44</title>
<path fill="none" stroke="red" d="M2087.42,-668.982C2089.71,-663.29 2092.22,-656.894 2094.4,-651 2098.99,-638.551 2103.75,-624.632 2107.66,-612.877"/>
<polygon fill="red" stroke="red" points="2111.05,-613.789 2110.86,-603.196 2104.4,-611.595 2111.05,-613.789"/>
<text text-anchor="middle" x="2126.9" y="-632.3" font-family="Times New Roman,serif" font-size="14.00">restricts</text>
</g>
<!-- n46 -->
<g id="node46" class="node"><title>n46</title>
<ellipse fill="blue" stroke="black" cx="229.397" cy="-876" rx="65.7887" ry="18"/>
<text text-anchor="middle" x="229.397" y="-872.3" font-family="Times New Roman,serif" font-size="14.00" fill="white">OtherLanguage</text>
</g>
<!-- n46&#45;&gt;n2 -->
<g id="edge35" class="edge"><title>n46&#45;&gt;n2</title>
<path fill="none" stroke="black" d="M229.397,-857.581C229.397,-842.382 229.397,-820.067 229.397,-802.464"/>
<polygon fill="black" stroke="black" points="232.897,-802.219 229.397,-792.219 225.897,-802.219 232.897,-802.219"/>
<text text-anchor="middle" x="238.897" y="-821.3" font-family="Times New Roman,serif" font-size="14.00">is a</text>
</g>
<!-- n48 -->
<g id="node48" class="node"><title>n48</title>
<polygon fill="none" stroke="red" points="707.897,-981 516.897,-981 516.897,-945 707.897,-945 707.897,-981"/>
<text text-anchor="middle" x="612.397" y="-959.3" font-family="Times New Roman,serif" font-size="14.00">externalURI has exactly 1 value</text>
</g>
<!-- n48&#45;&gt;n47 -->
<g id="edge37" class="edge"><title>n48&#45;&gt;n47</title>
<path fill="none" stroke="red" d="M608.565,-944.559C607.287,-934.338 607.452,-921.595 613.397,-912 616.177,-907.513 619.737,-903.573 623.763,-900.117"/>
<polygon fill="red" stroke="red" points="626.021,-902.801 631.999,-894.053 621.871,-897.164 626.021,-902.801"/>
<text text-anchor="middle" x="635.897" y="-915.8" font-family="Times New Roman,serif" font-size="14.00">restricts</text>
</g>
<!-- n49&#45;&gt;n8 -->
<g id="edge38" class="edge"><title>n49&#45;&gt;n8</title>
<path fill="none" stroke="#008b8b" stroke-dasharray="5,2" d="M985.579,-859.926C988.558,-859.264 991.508,-858.619 994.397,-858 1104.6,-834.379 1131.68,-824.921 1243.4,-810 1387.55,-790.746 1558.36,-781.28 1647.43,-777.345"/>
<polygon fill="#008b8b" stroke="#008b8b" points="1647.79,-780.834 1657.62,-776.904 1647.48,-773.84 1647.79,-780.834"/>
<text text-anchor="middle" x="1255.9" y="-828.8" font-family="Times New Roman,serif" font-size="14.00">list</text>
<text text-anchor="middle" x="1255.9" y="-813.8" font-family="Times New Roman,serif" font-size="14.00">type</text>
</g>
<!-- n50 -->
<g id="node50" class="node"><title>n50</title>
<g id="a_node50"><a xlink:href="file:///C:/Users/200001866/Documents/GitHub/RACK/RACK-Ontology/Graphs/sadllistmodel.svg" xlink:title="null:List">
<polygon fill="#00008b" stroke="black" points="2456.4,-981 2396.4,-981 2396.4,-945 2456.4,-945 2456.4,-981"/>
<text text-anchor="middle" x="2426.4" y="-959.3" font-family="Times New Roman,serif" font-size="14.00" fill="white">null:List</text>
</a>
</g>
</g>
<!-- n50&#45;&gt;n49 -->
<g id="edge39" class="edge"><title>n50&#45;&gt;n49</title>
<path fill="none" stroke="blue" stroke-dasharray="5,2" d="M2396.32,-960.648C2201.24,-951.874 1119.77,-903.091 995.743,-893.554"/>
<polygon fill="blue" stroke="blue" points="995.771,-890.042 985.488,-892.591 995.117,-897.011 995.771,-890.042"/>
<text text-anchor="middle" x="1666.4" y="-915.8" font-family="Times New Roman,serif" font-size="14.00">subClass</text>
</g>
<!-- n50&#45;&gt;n51 -->
<g id="edge42" class="edge"><title>n50&#45;&gt;n51</title>
<path fill="none" stroke="blue" stroke-dasharray="5,2" d="M2438.54,-944.799C2447.08,-932.702 2458.65,-916.305 2468.28,-902.667"/>
<polygon fill="blue" stroke="blue" points="2471.37,-904.364 2474.27,-894.175 2465.65,-900.327 2471.37,-904.364"/>
<text text-anchor="middle" x="2485.4" y="-915.8" font-family="Times New Roman,serif" font-size="14.00">subClass</text>
</g>
<!-- n50&#45;&gt;n52 -->
<g id="edge46" class="edge"><title>n50&#45;&gt;n52</title>
<path fill="none" stroke="blue" stroke-dasharray="5,2" d="M2456.79,-947.927C2459.67,-946.846 2462.57,-945.848 2465.4,-945 2592.85,-906.809 2670.11,-991.737 2760.4,-894 2805.65,-845.012 2795.25,-758.707 2786.13,-714.996"/>
<polygon fill="blue" stroke="blue" points="2789.51,-714.1 2783.93,-705.097 2782.68,-715.618 2789.51,-714.1"/>
<text text-anchor="middle" x="2818.4" y="-821.3" font-family="Times New Roman,serif" font-size="14.00">subClass</text>
</g>
<!-- n50&#45;&gt;n53 -->
<g id="edge49" class="edge"><title>n50&#45;&gt;n53</title>
<path fill="none" stroke="blue" stroke-dasharray="5,2" d="M2456.71,-947.601C2459.6,-946.589 2462.53,-945.696 2465.4,-945 2586.16,-915.736 2620.62,-937.925 2744.4,-927 2843.74,-918.232 3190.4,-976.732 3190.4,-877 3190.4,-877 3190.4,-877 3190.4,-293 3190.4,-244.42 3039.52,-221.761 2954.67,-212.859"/>
<polygon fill="blue" stroke="blue" points="2954.97,-209.371 2944.67,-211.841 2954.26,-216.335 2954.97,-209.371"/>
<text text-anchor="middle" x="3216.4" y="-581.3" font-family="Times New Roman,serif" font-size="14.00">subClass</text>
</g>
<!-- n50&#45;&gt;n54 -->
<g id="edge53" class="edge"><title>n50&#45;&gt;n54</title>
<path fill="none" stroke="blue" stroke-dasharray="5,2" d="M2396.18,-961.154C2366.87,-958.837 2322.65,-951.195 2293.4,-927 2267.2,-905.336 2286.45,-879.839 2260.4,-858 2199.25,-806.738 2165.98,-823.83 2087.4,-810 2062.04,-805.538 1874.99,-809.808 1856.4,-792 1831.37,-768.028 1829.84,-663.747 1830.62,-613.4"/>
<polygon fill="blue" stroke="blue" points="1834.13,-613.309 1830.83,-603.241 1827.13,-613.17 1834.13,-613.309"/>
<text text-anchor="middle" x="1882.4" y="-770.3" font-family="Times New Roman,serif" font-size="14.00">subClass</text>
</g>
<!-- n50&#45;&gt;n56 -->
<g id="edge58" class="edge"><title>n50&#45;&gt;n56</title>
<path fill="none" stroke="blue" stroke-dasharray="5,2" d="M2416.07,-944.761C2407.06,-928.044 2395.4,-901.661 2395.4,-877 2395.4,-877 2395.4,-877 2395.4,-729.5 2395.4,-634.758 2310.73,-547.942 2264.57,-507.656"/>
<polygon fill="blue" stroke="blue" points="2266.84,-504.992 2256.98,-501.139 2262.29,-510.306 2266.84,-504.992"/>
<text text-anchor="middle" x="2421.4" y="-726.8" font-family="Times New Roman,serif" font-size="14.00">subClass</text>
</g>
<!-- n51&#45;&gt;n17 -->
<g id="edge41" class="edge"><title>n51&#45;&gt;n17</title>
<path fill="none" stroke="#008b8b" stroke-dasharray="5,2" d="M2516.14,-857.809C2545.06,-841.088 2589.16,-815.601 2620.78,-797.321"/>
<polygon fill="#008b8b" stroke="#008b8b" points="2622.85,-800.168 2629.76,-792.133 2619.35,-794.108 2622.85,-800.168"/>
<text text-anchor="middle" x="2610.9" y="-828.8" font-family="Times New Roman,serif" font-size="14.00">list</text>
<text text-anchor="middle" x="2610.9" y="-813.8" font-family="Times New Roman,serif" font-size="14.00">type</text>
</g>
<!-- n52&#45;&gt;n3 -->
<g id="edge45" class="edge"><title>n52&#45;&gt;n3</title>
<path fill="none" stroke="#008b8b" stroke-dasharray="5,2" d="M2833.36,-668.923C2893.02,-650.045 2988.29,-619.894 3046.04,-601.621"/>
<polygon fill="#008b8b" stroke="#008b8b" points="3047.19,-604.927 3055.67,-598.573 3045.08,-598.253 3047.19,-604.927"/>
<text text-anchor="middle" x="2995.9" y="-639.8" font-family="Times New Roman,serif" font-size="14.00">list</text>
<text text-anchor="middle" x="2995.9" y="-624.8" font-family="Times New Roman,serif" font-size="14.00">type</text>
</g>
<!-- n53&#45;&gt;n29 -->
<g id="edge48" class="edge"><title>n53&#45;&gt;n29</title>
<path fill="none" stroke="#008b8b" stroke-dasharray="5,2" d="M2888.29,-188.581C2879.23,-172.951 2865.8,-149.798 2855.47,-131.981"/>
<polygon fill="#008b8b" stroke="#008b8b" points="2858.43,-130.113 2850.38,-123.219 2852.37,-133.625 2858.43,-130.113"/>
<text text-anchor="middle" x="2889.9" y="-159.8" font-family="Times New Roman,serif" font-size="14.00">list</text>
<text text-anchor="middle" x="2889.9" y="-144.8" font-family="Times New Roman,serif" font-size="14.00">type</text>
</g>
<!-- n55 -->
<g id="node55" class="node"><title>n55</title>
<g id="a_node55"><a xlink:href="file:///C:/Users/200001866/Documents/GitHub/RACK/RACK-Ontology/Graphs/XMLSchema.svg" xlink:title="xsd:string">
<polygon fill="#00008b" stroke="black" points="1866.9,-501 1795.9,-501 1795.9,-465 1866.9,-465 1866.9,-501"/>
<text text-anchor="middle" x="1831.4" y="-479.3" font-family="Times New Roman,serif" font-size="14.00" fill="white">xsd:string</text>
</a>
</g>
</g>
<!-- n54&#45;&gt;n55 -->
<g id="edge52" class="edge"><title>n54&#45;&gt;n55</title>
<path fill="none" stroke="#008b8b" stroke-dasharray="5,2" d="M1831.4,-566.581C1831.4,-551.382 1831.4,-529.067 1831.4,-511.464"/>
<polygon fill="#008b8b" stroke="#008b8b" points="1834.9,-511.219 1831.4,-501.219 1827.9,-511.219 1834.9,-511.219"/>
<text text-anchor="middle" x="1843.9" y="-537.8" font-family="Times New Roman,serif" font-size="14.00">list</text>
<text text-anchor="middle" x="1843.9" y="-522.8" font-family="Times New Roman,serif" font-size="14.00">type</text>
</g>
<!-- n56&#45;&gt;n5 -->
<g id="edge57" class="edge"><title>n56&#45;&gt;n5</title>
<path fill="none" stroke="#008b8b" stroke-dasharray="5,2" d="M2235.4,-464.581C2235.4,-449.382 2235.4,-427.067 2235.4,-409.464"/>
<polygon fill="#008b8b" stroke="#008b8b" points="2238.9,-409.219 2235.4,-399.219 2231.9,-409.219 2238.9,-409.219"/>
<text text-anchor="middle" x="2247.9" y="-435.8" font-family="Times New Roman,serif" font-size="14.00">list</text>
<text text-anchor="middle" x="2247.9" y="-420.8" font-family="Times New Roman,serif" font-size="14.00">type</text>
</g>
</g>
</svg>
