<?xml version="1.0" encoding="UTF-8" standalone="no"?>
<!DOCTYPE svg PUBLIC "-//W3C//DTD SVG 1.1//EN"
 "http://www.w3.org/Graphics/SVG/1.1/DTD/svg11.dtd">
<!-- Generated by graphviz version 2.38.0 (20140413.2041)
 -->
<!-- Title: gnull Pages: 1 -->
<svg width="255pt" height="154pt"
 viewBox="0.00 0.00 254.50 154.00" xmlns="http://www.w3.org/2000/svg" xmlns:xlink="http://www.w3.org/1999/xlink">
<g id="graph0" class="graph" transform="scale(1 1) rotate(0) translate(4 150)">
<title>gnull</title>
<polygon fill="white" stroke="none" points="-4,4 -4,-150 250.5,-150 250.5,4 -4,4"/>
<text text-anchor="middle" x="87" y="-130.8" font-family="Times New Roman,serif" font-size="14.00">Graph of Ontology File: null</text>
<!-- n1 -->
<g id="node1" class="node"><title>n1</title>
<polygon fill="#00008b" stroke="black" points="122,-123 11,-123 11,-87 122,-87 122,-123"/>
<text text-anchor="middle" x="66.5" y="-101.3" font-family="Times New Roman,serif" font-size="14.00" fill="white">ExternalEquation</text>
</g>
<!-- n2 -->
<g id="node2" class="node"><title>n2</title>
<g id="a_node2"><a xlink:href="file:///C:/sadl/git/RACK/RACK-Ontology/Graphs/XMLSchema.svg" xlink:title="xsd:anyURI">
<polygon fill="#00008b" stroke="black" points="83,-36 0,-36 0,-0 83,-0 83,-36"/>
<text text-anchor="middle" x="41.5" y="-14.3" font-family="Times New Roman,serif" font-size="14.00" fill="white">xsd:anyURI</text>
</a>
</g>
</g>
<!-- n1&#45;&gt;n2 -->
<g id="edge1" class="edge"><title>n1&#45;&gt;n2</title>
<path fill="none" stroke="#00cd00" d="M51.8691,-86.9003C48.0941,-81.5141 44.5262,-75.3138 42.5,-69 40.1919,-61.8077 39.337,-53.7292 39.2143,-46.1976"/>
<polygon fill="#00cd00" stroke="#00cd00" points="42.7165,-46.1434 39.4531,-36.0637 35.7184,-45.9784 42.7165,-46.1434"/>
<text text-anchor="middle" x="76" y="-57.8" font-family="Times New Roman,serif" font-size="14.00">externalURI</text>
</g>
<!-- n4 -->
<g id="node4" class="node"><title>n4</title>
<g id="a_node4"><a xlink:href="file:///C:/sadl/git/RACK/RACK-Ontology/Graphs/XMLSchema.svg" xlink:title="xsd:string">
<polygon fill="#00008b" stroke="black" points="203,-36 132,-36 132,-0 203,-0 203,-36"/>
<text text-anchor="middle" x="167.5" y="-14.3" font-family="Times New Roman,serif" font-size="14.00" fill="white">xsd:string</text>
</a>
</g>
</g>
<!-- n1&#45;&gt;n4 -->
<g id="edge3" class="edge"><title>n1&#45;&gt;n4</title>
<path fill="none" stroke="#00cd00" d="M88.0324,-86.6717C94.9242,-81.0727 102.564,-74.8104 109.5,-69 119.612,-60.5293 130.597,-51.114 140.261,-42.7587"/>
<polygon fill="#00cd00" stroke="#00cd00" points="142.756,-45.2283 148.019,-36.0336 138.171,-39.9389 142.756,-45.2283"/>
<text text-anchor="middle" x="150" y="-57.8" font-family="Times New Roman,serif" font-size="14.00">location</text>
</g>
<!-- n3 -->
<g id="node3" class="node"><title>n3</title>
<polygon fill="#00008b" stroke="black" points="232.5,-123 166.5,-123 166.5,-87 232.5,-87 232.5,-123"/>
<text text-anchor="middle" x="199.5" y="-101.3" font-family="Times New Roman,serif" font-size="14.00" fill="white">Equation</text>
</g>
<!-- n3&#45;&gt;n4 -->
<g id="edge2" class="edge"><title>n3&#45;&gt;n4</title>
<path fill="none" stroke="#00cd00" d="M193.024,-86.799C188.6,-75.0474 182.649,-59.2383 177.605,-45.8421"/>
<polygon fill="#00cd00" stroke="#00cd00" points="180.765,-44.301 173.966,-36.1754 174.214,-46.7674 180.765,-44.301"/>
<text text-anchor="middle" x="216" y="-57.8" font-family="Times New Roman,serif" font-size="14.00">expression</text>
</g>
</g>
</svg>
