<?xml version="1.0" encoding="UTF-8" standalone="no"?>
<!DOCTYPE svg PUBLIC "-//W3C//DTD SVG 1.1//EN"
 "http://www.w3.org/Graphics/SVG/1.1/DTD/svg11.dtd">
<!-- Generated by graphviz version 2.38.0 (20140413.2041)
 -->
<!-- Title: gsmpl2 Pages: 1 -->
<svg width="1140pt" height="1108pt"
 viewBox="0.00 0.00 1139.74 1108.00" xmlns="http://www.w3.org/2000/svg" xmlns:xlink="http://www.w3.org/1999/xlink">
<g id="graph0" class="graph" transform="scale(1 1) rotate(0) translate(4 1104)">
<title>gsmpl2</title>
<polygon fill="white" stroke="none" points="-4,4 -4,-1104 1135.74,-1104 1135.74,4 -4,4"/>
<text text-anchor="middle" x="94" y="-1084.8" font-family="Times New Roman,serif" font-size="14.00">Graph of Ontology File: smpl2</text>
<!-- n1 -->
<g id="node1" class="node"><title>n1</title>
<ellipse fill="blue" stroke="black" cx="706.745" cy="-777" rx="77.9862" ry="18"/>
<text text-anchor="middle" x="706.745" y="-773.3" font-family="Times New Roman,serif" font-size="14.00" fill="white">sample2Compiling</text>
</g>
<!-- n2 -->
<g id="node2" class="node"><title>n2</title>
<ellipse fill="blue" stroke="black" cx="768.745" cy="-279" rx="27" ry="18"/>
<text text-anchor="middle" x="768.745" y="-275.3" font-family="Times New Roman,serif" font-size="14.00" fill="white">cc</text>
</g>
<!-- n1&#45;&gt;n2 -->
<g id="edge1" class="edge"><title>n1&#45;&gt;n2</title>
<path fill="none" stroke="#00cd00" d="M783.835,-773.691C814.821,-769.472 849.374,-760.267 875.745,-741 904.989,-719.633 915.745,-706.219 915.745,-670 915.745,-670 915.745,-670 915.745,-365 915.745,-339.085 906.768,-330.153 885.745,-315 855.827,-293.437 839.634,-308.947 804.745,-297 802.832,-296.345 800.886,-295.618 798.94,-294.843"/>
<polygon fill="#00cd00" stroke="#00cd00" points="799.925,-291.456 789.357,-290.694 797.143,-297.879 799.925,-291.456"/>
<text text-anchor="middle" x="953.245" y="-513.8" font-family="Times New Roman,serif" font-size="14.00">performedBy</text>
</g>
<!-- n3 -->
<g id="node3" class="node"><title>n3</title>
<ellipse fill="blue" stroke="black" cx="424.745" cy="-615" rx="50.0912" ry="18"/>
<text text-anchor="middle" x="424.745" y="-611.3" font-family="Times New Roman,serif" font-size="14.00" fill="white">sample2_c</text>
</g>
<!-- n1&#45;&gt;n3 -->
<g id="edge2" class="edge"><title>n1&#45;&gt;n3</title>
<path fill="none" stroke="#00cd00" d="M649.7,-764.581C639.726,-762.662 629.44,-760.733 619.745,-759 570.546,-750.207 550.823,-767.967 508.745,-741 472.118,-717.527 447.618,-671.764 434.954,-642.601"/>
<polygon fill="#00cd00" stroke="#00cd00" points="438.047,-640.923 430.967,-633.041 431.586,-643.618 438.047,-640.923"/>
<text text-anchor="middle" x="522.245" y="-719.3" font-family="Times New Roman,serif" font-size="14.00">used</text>
</g>
<!-- n4 -->
<g id="node4" class="node"><title>n4</title>
<ellipse fill="blue" stroke="black" cx="706.745" cy="-669" rx="50.0912" ry="18"/>
<text text-anchor="middle" x="706.745" y="-665.3" font-family="Times New Roman,serif" font-size="14.00" fill="white">libhelper_a</text>
</g>
<!-- n1&#45;&gt;n4 -->
<g id="edge3" class="edge"><title>n1&#45;&gt;n4</title>
<path fill="none" stroke="#00cd00" d="M706.745,-758.969C706.745,-742.378 706.745,-716.883 706.745,-697.431"/>
<polygon fill="#00cd00" stroke="#00cd00" points="710.245,-697.341 706.745,-687.341 703.245,-697.341 710.245,-697.341"/>
<text text-anchor="middle" x="720.245" y="-719.3" font-family="Times New Roman,serif" font-size="14.00">used</text>
</g>
<!-- n5 -->
<g id="node5" class="node"><title>n5</title>
<g id="a_node5"><a xlink:href="file:///C:/sadl/git/RACK/RACK-Ontology/Graphs/SOFTWARE.owl.svg" xlink:title="sw:COMPILE">
<polygon fill="#00008b" stroke="black" points="715.245,-297 618.245,-297 618.245,-261 715.245,-261 715.245,-297"/>
<text text-anchor="middle" x="666.745" y="-275.3" font-family="Times New Roman,serif" font-size="14.00" fill="white">sw:COMPILE</text>
</a>
</g>
</g>
<!-- n1&#45;&gt;n5 -->
<g id="edge4" class="edge"><title>n1&#45;&gt;n5</title>
<path fill="none" stroke="black" d="M690.361,-759.331C660.179,-727.446 596.364,-654.268 568.745,-579 547.518,-521.155 562.071,-363.921 570.745,-348 581.409,-328.425 600.429,-313.182 618.742,-302.134"/>
<polygon fill="black" stroke="black" points="620.692,-305.05 627.635,-297.047 617.217,-298.974 620.692,-305.05"/>
<text text-anchor="middle" x="569.245" y="-513.8" font-family="Times New Roman,serif" font-size="14.00">is a</text>
</g>
<!-- n22 -->
<g id="node22" class="node"><title>n22</title>
<g id="a_node22"><a xlink:href="file:///C:/sadl/git/RACK/RACK-Ontology/Graphs/SOFTWARE.owl.svg" xlink:title="sw:COMPILER">
<polygon fill="#00008b" stroke="black" points="620.245,-210 513.245,-210 513.245,-174 620.245,-174 620.245,-210"/>
<text text-anchor="middle" x="566.745" y="-188.3" font-family="Times New Roman,serif" font-size="14.00" fill="white">sw:COMPILER</text>
</a>
</g>
</g>
<!-- n2&#45;&gt;n22 -->
<g id="edge35" class="edge"><title>n2&#45;&gt;n22</title>
<path fill="none" stroke="black" d="M746.593,-268.66C739.401,-265.891 731.321,-263.054 723.745,-261 677.623,-248.498 660.308,-264.72 617.745,-243 605.837,-236.924 594.914,-227.097 586.257,-217.757"/>
<polygon fill="black" stroke="black" points="588.777,-215.322 579.548,-210.119 583.518,-219.942 588.777,-215.322"/>
<text text-anchor="middle" x="627.245" y="-231.8" font-family="Times New Roman,serif" font-size="14.00">is a</text>
</g>
<!-- n11 -->
<g id="node11" class="node"><title>n11</title>
<g id="a_node11"><a xlink:href="file:///C:/sadl/git/RACK/RACK-Ontology/Graphs/SOFTWARE.owl.svg" xlink:title="sw:CODE_FILE">
<polygon fill="#00008b" stroke="black" points="451.745,-36 341.745,-36 341.745,-0 451.745,-0 451.745,-36"/>
<text text-anchor="middle" x="396.745" y="-14.3" font-family="Times New Roman,serif" font-size="14.00" fill="white">sw:CODE_FILE</text>
</a>
</g>
</g>
<!-- n3&#45;&gt;n11 -->
<g id="edge39" class="edge"><title>n3&#45;&gt;n11</title>
<path fill="none" stroke="black" d="M411.681,-597.432C373.002,-546.657 261.745,-387.483 261.745,-236.5 261.745,-236.5 261.745,-236.5 261.745,-104 261.745,-67.6714 297.186,-46.2556 331.75,-34.008"/>
<polygon fill="black" stroke="black" points="333.056,-37.2624 341.445,-30.7919 330.852,-30.6184 333.056,-37.2624"/>
<text text-anchor="middle" x="283.245" y="-318.8" font-family="Times New Roman,serif" font-size="14.00">is a</text>
</g>
<!-- n12 -->
<g id="node12" class="node"><title>n12</title>
<ellipse fill="blue" stroke="black" cx="808.745" cy="-561" rx="79.0865" ry="18"/>
<text text-anchor="middle" x="808.745" y="-557.3" font-family="Times New Roman,serif" font-size="14.00" fill="white">libhelperCompiling</text>
</g>
<!-- n4&#45;&gt;n12 -->
<g id="edge8" class="edge"><title>n4&#45;&gt;n12</title>
<path fill="none" stroke="#00cd00" d="M720.184,-651.37C732.359,-636.614 751.049,-614.713 768.745,-597 772.657,-593.083 776.934,-589.08 781.187,-585.245"/>
<polygon fill="#00cd00" stroke="#00cd00" points="783.556,-587.823 788.738,-578.582 778.924,-582.575 783.556,-587.823"/>
<text text-anchor="middle" x="816.245" y="-611.3" font-family="Times New Roman,serif" font-size="14.00">wasGeneratedBy</text>
</g>
<!-- n13 -->
<g id="node13" class="node"><title>n13</title>
<g id="a_node13"><a xlink:href="file:///C:/sadl/git/RACK/RACK-Ontology/Graphs/SOFTWARE.owl.svg" xlink:title="sw:LIBRARY">
<polygon fill="#00008b" stroke="black" points="673.745,-579 577.745,-579 577.745,-543 673.745,-543 673.745,-579"/>
<text text-anchor="middle" x="625.745" y="-557.3" font-family="Times New Roman,serif" font-size="14.00" fill="white">sw:LIBRARY</text>
</a>
</g>
</g>
<!-- n4&#45;&gt;n13 -->
<g id="edge9" class="edge"><title>n4&#45;&gt;n13</title>
<path fill="none" stroke="black" d="M694.088,-651.438C680.929,-634.217 660.168,-607.049 644.979,-587.171"/>
<polygon fill="black" stroke="black" points="647.701,-584.969 638.849,-579.149 642.139,-589.219 647.701,-584.969"/>
<text text-anchor="middle" x="688.245" y="-611.3" font-family="Times New Roman,serif" font-size="14.00">is a</text>
</g>
<!-- n6 -->
<g id="node6" class="node"><title>n6</title>
<ellipse fill="blue" stroke="black" cx="575.745" cy="-885" rx="27" ry="18"/>
<text text-anchor="middle" x="575.745" y="-881.3" font-family="Times New Roman,serif" font-size="14.00" fill="white">rmp</text>
</g>
<!-- n7 -->
<g id="node7" class="node"><title>n7</title>
<g id="a_node7"><a xlink:href="file:///C:/sadl/git/RACK/RACK-Ontology/Graphs/SOFTWARE.owl.svg" xlink:title="sw:PACKAGER">
<polygon fill="#00008b" stroke="black" points="468.245,-795 357.245,-795 357.245,-759 468.245,-759 468.245,-795"/>
<text text-anchor="middle" x="412.745" y="-773.3" font-family="Times New Roman,serif" font-size="14.00" fill="white">sw:PACKAGER</text>
</a>
</g>
</g>
<!-- n6&#45;&gt;n7 -->
<g id="edge5" class="edge"><title>n6&#45;&gt;n7</title>
<path fill="none" stroke="black" d="M569.365,-867.474C562.294,-851.292 549.374,-827.077 530.745,-813 528.288,-811.144 504.118,-803.863 478.288,-796.419"/>
<polygon fill="black" stroke="black" points="478.926,-792.96 468.349,-793.568 476.996,-799.689 478.926,-792.96"/>
<text text-anchor="middle" x="569.245" y="-827.3" font-family="Times New Roman,serif" font-size="14.00">is a</text>
</g>
<!-- n8 -->
<g id="node8" class="node"><title>n8</title>
<ellipse fill="blue" stroke="black" cx="455.745" cy="-831" rx="74.187" ry="18"/>
<text text-anchor="middle" x="455.745" y="-827.3" font-family="Times New Roman,serif" font-size="14.00" fill="white">sample2_rpminfo</text>
</g>
<!-- n9 -->
<g id="node9" class="node"><title>n9</title>
<g id="a_node9"><a xlink:href="file:///C:/sadl/git/RACK/RACK-Ontology/Graphs/SOFTWARE.owl.svg" xlink:title="sw:CONFIG_FILE">
<polygon fill="#00008b" stroke="black" points="177.245,-36 52.2445,-36 52.2445,-0 177.245,-0 177.245,-36"/>
<text text-anchor="middle" x="114.745" y="-14.3" font-family="Times New Roman,serif" font-size="14.00" fill="white">sw:CONFIG_FILE</text>
</a>
</g>
</g>
<!-- n8&#45;&gt;n9 -->
<g id="edge6" class="edge"><title>n8&#45;&gt;n9</title>
<path fill="none" stroke="black" d="M403.522,-818.18C380.051,-811.874 355.816,-803.643 347.745,-795 268.951,-710.622 319.177,-653.192 284.745,-543 229.915,-367.534 187.262,-333.315 138.745,-156 128.505,-118.578 121.665,-74.1641 117.99,-46.2757"/>
<polygon fill="black" stroke="black" points="121.429,-45.5758 116.694,-36.0982 114.486,-46.4604 121.429,-45.5758"/>
<text text-anchor="middle" x="257.245" y="-416.3" font-family="Times New Roman,serif" font-size="14.00">is a</text>
</g>
<!-- n10 -->
<g id="node10" class="node"><title>n10</title>
<ellipse fill="blue" stroke="black" cx="450.745" cy="-279" rx="35.194" ry="18"/>
<text text-anchor="middle" x="450.745" y="-275.3" font-family="Times New Roman,serif" font-size="14.00" fill="white">help_h</text>
</g>
<!-- n10&#45;&gt;n11 -->
<g id="edge7" class="edge"><title>n10&#45;&gt;n11</title>
<path fill="none" stroke="black" d="M456.347,-261.138C466.754,-226.876 485.916,-147.268 461.745,-87 454.898,-69.9285 441.495,-54.7167 428.629,-43.0323"/>
<polygon fill="black" stroke="black" points="430.607,-40.116 420.752,-36.2279 426.032,-45.4134 430.607,-40.116"/>
<text text-anchor="middle" x="483.245" y="-144.8" font-family="Times New Roman,serif" font-size="14.00">is a</text>
</g>
<!-- n12&#45;&gt;n5 -->
<g id="edge30" class="edge"><title>n12&#45;&gt;n5</title>
<path fill="none" stroke="black" d="M801.944,-542.998C784.362,-499.27 737.34,-383.827 716.745,-348 708.2,-333.136 697.022,-317.655 687.402,-305.226"/>
<polygon fill="black" stroke="black" points="689.98,-302.843 681.043,-297.154 684.482,-307.175 689.98,-302.843"/>
<text text-anchor="middle" x="768.245" y="-416.3" font-family="Times New Roman,serif" font-size="14.00">is a</text>
</g>
<!-- n21 -->
<g id="node21" class="node"><title>n21</title>
<ellipse fill="blue" stroke="black" cx="509.745" cy="-420" rx="27" ry="18"/>
<text text-anchor="middle" x="509.745" y="-416.3" font-family="Times New Roman,serif" font-size="14.00" fill="white">ar</text>
</g>
<!-- n12&#45;&gt;n21 -->
<g id="edge27" class="edge"><title>n12&#45;&gt;n21</title>
<path fill="none" stroke="#00cd00" d="M737.726,-552.856C706.581,-547.838 670.25,-539.342 639.745,-525 596.317,-504.583 554.538,-466.904 530.536,-442.941"/>
<polygon fill="#00cd00" stroke="#00cd00" points="532.899,-440.352 523.389,-435.683 527.911,-445.264 532.899,-440.352"/>
<text text-anchor="middle" x="677.245" y="-513.8" font-family="Times New Roman,serif" font-size="14.00">performedBy</text>
</g>
<!-- n23 -->
<g id="node23" class="node"><title>n23</title>
<ellipse fill="blue" stroke="black" cx="845.745" cy="-474" rx="40.0939" ry="18"/>
<text text-anchor="middle" x="845.745" y="-470.3" font-family="Times New Roman,serif" font-size="14.00" fill="white">assist_o</text>
</g>
<!-- n12&#45;&gt;n23 -->
<g id="edge29" class="edge"><title>n12&#45;&gt;n23</title>
<path fill="none" stroke="#00cd00" d="M816.232,-542.799C821.432,-530.854 828.456,-514.717 834.347,-501.183"/>
<polygon fill="#00cd00" stroke="#00cd00" points="837.612,-502.451 838.394,-491.885 831.194,-499.657 837.612,-502.451"/>
<text text-anchor="middle" x="843.245" y="-513.8" font-family="Times New Roman,serif" font-size="14.00">used</text>
</g>
<!-- n30 -->
<g id="node30" class="node"><title>n30</title>
<ellipse fill="blue" stroke="black" cx="705.745" cy="-474" rx="35.9954" ry="18"/>
<text text-anchor="middle" x="705.745" y="-470.3" font-family="Times New Roman,serif" font-size="14.00" fill="white">help_o</text>
</g>
<!-- n12&#45;&gt;n30 -->
<g id="edge28" class="edge"><title>n12&#45;&gt;n30</title>
<path fill="none" stroke="#00cd00" d="M762.073,-546.277C750.131,-541.079 738.049,-534.132 728.745,-525 722.177,-518.554 717.295,-509.881 713.761,-501.569"/>
<polygon fill="#00cd00" stroke="#00cd00" points="717.008,-500.26 710.211,-492.133 710.456,-502.725 717.008,-500.26"/>
<text text-anchor="middle" x="742.245" y="-513.8" font-family="Times New Roman,serif" font-size="14.00">used</text>
</g>
<!-- n14 -->
<g id="node14" class="node"><title>n14</title>
<ellipse fill="blue" stroke="black" cx="452.745" cy="-1059" rx="73.387" ry="18"/>
<text text-anchor="middle" x="452.745" y="-1055.3" font-family="Times New Roman,serif" font-size="14.00" fill="white">sample2dist_rpm</text>
</g>
<!-- n15 -->
<g id="node15" class="node"><title>n15</title>
<ellipse fill="blue" stroke="black" cx="570.745" cy="-972" rx="53.8905" ry="18"/>
<text text-anchor="middle" x="570.745" y="-968.3" font-family="Times New Roman,serif" font-size="14.00" fill="white">rpmPacking</text>
</g>
<!-- n14&#45;&gt;n15 -->
<g id="edge10" class="edge"><title>n14&#45;&gt;n15</title>
<path fill="none" stroke="#00cd00" d="M475.217,-1041.81C493.823,-1028.41 520.42,-1009.25 540.826,-994.551"/>
<polygon fill="#00cd00" stroke="#00cd00" points="543.084,-997.239 549.152,-988.554 538.992,-991.559 543.084,-997.239"/>
<text text-anchor="middle" x="567.245" y="-1011.8" font-family="Times New Roman,serif" font-size="14.00">wasGeneratedBy</text>
</g>
<!-- n16 -->
<g id="node16" class="node"><title>n16</title>
<g id="a_node16"><a xlink:href="file:///C:/sadl/git/RACK/RACK-Ontology/Graphs/SOFTWARE.owl.svg" xlink:title="sw:PACKAGE_FILE">
<polygon fill="#00008b" stroke="black" points="203.745,-990 65.7445,-990 65.7445,-954 203.745,-954 203.745,-990"/>
<text text-anchor="middle" x="134.745" y="-968.3" font-family="Times New Roman,serif" font-size="14.00" fill="white">sw:PACKAGE_FILE</text>
</a>
</g>
</g>
<!-- n14&#45;&gt;n16 -->
<g id="edge11" class="edge"><title>n14&#45;&gt;n16</title>
<path fill="none" stroke="black" d="M389.13,-1049.88C335.628,-1042.66 263.548,-1031.9 235.745,-1023 213.905,-1016.01 190.894,-1004.94 172.361,-994.991"/>
<polygon fill="black" stroke="black" points="173.83,-991.806 163.378,-990.07 170.467,-997.945 173.83,-991.806"/>
<text text-anchor="middle" x="245.245" y="-1011.8" font-family="Times New Roman,serif" font-size="14.00">is a</text>
</g>
<!-- n15&#45;&gt;n4 -->
<g id="edge22" class="edge"><title>n15&#45;&gt;n4</title>
<path fill="none" stroke="#00cd00" d="M624.597,-970.332C683.762,-968.321 773.278,-961.082 794.745,-936 797.234,-933.092 820.455,-823.962 793.745,-759 782.334,-731.249 757.703,-707.416 737.552,-691.417"/>
<polygon fill="#00cd00" stroke="#00cd00" points="739.589,-688.569 729.524,-685.26 735.329,-694.123 739.589,-688.569"/>
<text text-anchor="middle" x="820.245" y="-827.3" font-family="Times New Roman,serif" font-size="14.00">used</text>
</g>
<!-- n15&#45;&gt;n6 -->
<g id="edge20" class="edge"><title>n15&#45;&gt;n6</title>
<path fill="none" stroke="#00cd00" d="M570.691,-953.858C570.76,-944.198 571.013,-931.915 571.745,-921 571.916,-918.437 572.139,-915.773 572.392,-913.11"/>
<polygon fill="#00cd00" stroke="#00cd00" points="575.883,-913.377 573.47,-903.061 568.923,-912.63 575.883,-913.377"/>
<text text-anchor="middle" x="609.245" y="-924.8" font-family="Times New Roman,serif" font-size="14.00">performedBy</text>
</g>
<!-- n15&#45;&gt;n8 -->
<g id="edge23" class="edge"><title>n15&#45;&gt;n8</title>
<path fill="none" stroke="#00cd00" d="M555.446,-954.418C550.52,-948.755 545.19,-942.266 540.745,-936 520.235,-907.089 524.053,-893.706 500.745,-867 497.002,-862.712 492.671,-858.585 488.204,-854.762"/>
<polygon fill="#00cd00" stroke="#00cd00" points="490.097,-851.793 480.115,-848.242 485.704,-857.243 490.097,-851.793"/>
<text text-anchor="middle" x="554.245" y="-924.8" font-family="Times New Roman,serif" font-size="14.00">used</text>
</g>
<!-- n26 -->
<g id="node26" class="node"><title>n26</title>
<ellipse fill="blue" stroke="black" cx="664.745" cy="-885" rx="40.0939" ry="18"/>
<text text-anchor="middle" x="664.745" y="-881.3" font-family="Times New Roman,serif" font-size="14.00" fill="white">sample2</text>
</g>
<!-- n15&#45;&gt;n26 -->
<g id="edge21" class="edge"><title>n15&#45;&gt;n26</title>
<path fill="none" stroke="#00cd00" d="M618.987,-963.747C650.346,-957.934 687.128,-948.652 696.745,-936 703.401,-927.242 698.944,-917.096 691.484,-908.241"/>
<polygon fill="#00cd00" stroke="#00cd00" points="693.822,-905.623 684.359,-900.859 688.786,-910.485 693.822,-905.623"/>
<text text-anchor="middle" x="714.245" y="-924.8" font-family="Times New Roman,serif" font-size="14.00">used</text>
</g>
<!-- n27 -->
<g id="node27" class="node"><title>n27</title>
<g id="a_node27"><a xlink:href="file:///C:/sadl/git/RACK/RACK-Ontology/Graphs/SOFTWARE.owl.svg" xlink:title="sw:PACKAGE">
<polygon fill="#00008b" stroke="black" points="492.245,-903 391.245,-903 391.245,-867 492.245,-867 492.245,-903"/>
<text text-anchor="middle" x="441.745" y="-881.3" font-family="Times New Roman,serif" font-size="14.00" fill="white">sw:PACKAGE</text>
</a>
</g>
</g>
<!-- n15&#45;&gt;n27 -->
<g id="edge24" class="edge"><title>n15&#45;&gt;n27</title>
<path fill="none" stroke="black" d="M529.325,-960.438C512.844,-954.921 494.363,-946.977 479.745,-936 470.982,-929.421 463.243,-920.301 457.074,-911.65"/>
<polygon fill="black" stroke="black" points="459.927,-909.62 451.449,-903.267 454.115,-913.521 459.927,-909.62"/>
<text text-anchor="middle" x="489.245" y="-924.8" font-family="Times New Roman,serif" font-size="14.00">is a</text>
</g>
<!-- n17 -->
<g id="node17" class="node"><title>n17</title>
<ellipse fill="blue" stroke="black" cx="853.745" cy="-105" rx="36.2938" ry="18"/>
<text text-anchor="middle" x="853.745" y="-101.3" font-family="Times New Roman,serif" font-size="14.00" fill="white">python</text>
</g>
<!-- n18 -->
<g id="node18" class="node"><title>n18</title>
<g id="a_node18"><a xlink:href="file:///C:/sadl/git/RACK/RACK-Ontology/Graphs/SOFTWARE.owl.svg" xlink:title="sw:CODE_GENERATOR">
<polygon fill="#00008b" stroke="black" points="937.245,-36 770.245,-36 770.245,-0 937.245,-0 937.245,-36"/>
<text text-anchor="middle" x="853.745" y="-14.3" font-family="Times New Roman,serif" font-size="14.00" fill="white">sw:CODE_GENERATOR</text>
</a>
</g>
</g>
<!-- n17&#45;&gt;n18 -->
<g id="edge12" class="edge"><title>n17&#45;&gt;n18</title>
<path fill="none" stroke="black" d="M853.745,-86.799C853.745,-75.1626 853.745,-59.5479 853.745,-46.2368"/>
<polygon fill="black" stroke="black" points="857.245,-46.1754 853.745,-36.1754 850.245,-46.1755 857.245,-46.1754"/>
<text text-anchor="middle" x="863.245" y="-57.8" font-family="Times New Roman,serif" font-size="14.00">is a</text>
</g>
<!-- n19 -->
<g id="node19" class="node"><title>n19</title>
<ellipse fill="blue" stroke="black" cx="1011.74" cy="-366" rx="68.4888" ry="18"/>
<text text-anchor="middle" x="1011.74" y="-362.3" font-family="Times New Roman,serif" font-size="14.00" fill="white">assistCompiling</text>
</g>
<!-- n19&#45;&gt;n2 -->
<g id="edge13" class="edge"><title>n19&#45;&gt;n2</title>
<path fill="none" stroke="#00cd00" d="M980.525,-349.915C969.304,-344.114 956.717,-337.156 945.745,-330 936.733,-324.122 936.623,-319.263 926.745,-315 876.421,-293.284 857.205,-312.874 804.745,-297 802.809,-296.414 800.847,-295.741 798.888,-295.007"/>
<polygon fill="#00cd00" stroke="#00cd00" points="799.846,-291.613 789.271,-290.963 797.132,-298.065 799.846,-291.613"/>
<text text-anchor="middle" x="983.245" y="-318.8" font-family="Times New Roman,serif" font-size="14.00">performedBy</text>
</g>
<!-- n19&#45;&gt;n5 -->
<g id="edge15" class="edge"><title>n19&#45;&gt;n5</title>
<path fill="none" stroke="black" d="M963.06,-353.338C907.346,-339.944 813.384,-317.212 732.745,-297 730.284,-296.383 727.773,-295.751 725.237,-295.109"/>
<polygon fill="black" stroke="black" points="725.939,-291.676 715.385,-292.605 724.215,-298.461 725.939,-291.676"/>
<text text-anchor="middle" x="872.245" y="-318.8" font-family="Times New Roman,serif" font-size="14.00">is a</text>
</g>
<!-- n20 -->
<g id="node20" class="node"><title>n20</title>
<ellipse fill="blue" stroke="black" cx="871.745" cy="-279" rx="57.6901" ry="18"/>
<text text-anchor="middle" x="871.745" y="-275.3" font-family="Times New Roman,serif" font-size="14.00" fill="white">assist_gen_c</text>
</g>
<!-- n19&#45;&gt;n20 -->
<g id="edge14" class="edge"><title>n19&#45;&gt;n20</title>
<path fill="none" stroke="#00cd00" d="M1022.89,-348.16C1028.32,-337.657 1032.24,-324.398 1024.74,-315 1013.49,-300.879 972.878,-291.998 936.324,-286.717"/>
<polygon fill="#00cd00" stroke="#00cd00" points="936.532,-283.213 926.149,-285.321 935.581,-290.148 936.532,-283.213"/>
<text text-anchor="middle" x="1043.24" y="-318.8" font-family="Times New Roman,serif" font-size="14.00">used</text>
</g>
<!-- n20&#45;&gt;n11 -->
<g id="edge34" class="edge"><title>n20&#45;&gt;n11</title>
<path fill="none" stroke="black" d="M833.538,-265.395C798.027,-253.102 744.093,-232.941 699.745,-210 587.079,-151.719 569.584,-119.147 460.745,-54 453.481,-49.6524 445.647,-45.189 438.036,-40.9666"/>
<polygon fill="black" stroke="black" points="439.702,-37.888 429.252,-36.142 436.332,-44.0237 439.702,-37.888"/>
<text text-anchor="middle" x="617.245" y="-144.8" font-family="Times New Roman,serif" font-size="14.00">is a</text>
</g>
<!-- n32 -->
<g id="node32" class="node"><title>n32</title>
<ellipse fill="blue" stroke="black" cx="791.745" cy="-192" rx="83.3857" ry="18"/>
<text text-anchor="middle" x="791.745" y="-188.3" font-family="Times New Roman,serif" font-size="14.00" fill="white">assist_genCodeGen</text>
</g>
<!-- n20&#45;&gt;n32 -->
<g id="edge33" class="edge"><title>n20&#45;&gt;n32</title>
<path fill="none" stroke="#00cd00" d="M856.32,-261.611C844.52,-249.074 828.063,-231.588 814.715,-217.407"/>
<polygon fill="#00cd00" stroke="#00cd00" points="817.072,-214.804 807.67,-209.92 811.975,-219.601 817.072,-214.804"/>
<text text-anchor="middle" x="884.245" y="-231.8" font-family="Times New Roman,serif" font-size="14.00">wasGeneratedBy</text>
</g>
<!-- n21&#45;&gt;n22 -->
<g id="edge16" class="edge"><title>n21&#45;&gt;n22</title>
<path fill="none" stroke="black" d="M509.725,-401.83C510.045,-381.014 511.703,-344.994 518.745,-315 526.745,-280.918 542.459,-243.751 553.73,-219.508"/>
<polygon fill="black" stroke="black" points="556.989,-220.802 558.103,-210.266 550.662,-217.808 556.989,-220.802"/>
<text text-anchor="middle" x="528.245" y="-318.8" font-family="Times New Roman,serif" font-size="14.00">is a</text>
</g>
<!-- n23&#45;&gt;n19 -->
<g id="edge17" class="edge"><title>n23&#45;&gt;n19</title>
<path fill="none" stroke="#00cd00" d="M866.12,-458.33C886.843,-443.591 920.043,-420.476 949.745,-402 957.523,-397.162 965.993,-392.191 974.104,-387.571"/>
<polygon fill="#00cd00" stroke="#00cd00" points="976.058,-390.488 983.051,-382.529 972.621,-384.389 976.058,-390.488"/>
<text text-anchor="middle" x="997.245" y="-416.3" font-family="Times New Roman,serif" font-size="14.00">wasGeneratedBy</text>
</g>
<!-- n24 -->
<g id="node24" class="node"><title>n24</title>
<g id="a_node24"><a xlink:href="file:///C:/sadl/git/RACK/RACK-Ontology/Graphs/SOFTWARE.owl.svg" xlink:title="sw:OBJECT_FILE">
<polygon fill="#00008b" stroke="black" points="887.745,-384 763.745,-384 763.745,-348 887.745,-348 887.745,-384"/>
<text text-anchor="middle" x="825.745" y="-362.3" font-family="Times New Roman,serif" font-size="14.00" fill="white">sw:OBJECT_FILE</text>
</a>
</g>
</g>
<!-- n23&#45;&gt;n24 -->
<g id="edge18" class="edge"><title>n23&#45;&gt;n24</title>
<path fill="none" stroke="black" d="M842.531,-455.969C839.401,-439.378 834.59,-413.883 830.92,-394.431"/>
<polygon fill="black" stroke="black" points="834.31,-393.518 829.016,-384.341 827.431,-394.816 834.31,-393.518"/>
<text text-anchor="middle" x="848.245" y="-416.3" font-family="Times New Roman,serif" font-size="14.00">is a</text>
</g>
<!-- n25 -->
<g id="node25" class="node"><title>n25</title>
<ellipse fill="blue" stroke="black" cx="187.745" cy="-105" rx="44.6926" ry="18"/>
<text text-anchor="middle" x="187.745" y="-101.3" font-family="Times New Roman,serif" font-size="14.00" fill="white">assist_txt</text>
</g>
<!-- n25&#45;&gt;n9 -->
<g id="edge19" class="edge"><title>n25&#45;&gt;n9</title>
<path fill="none" stroke="black" d="M173.669,-87.6111C163.071,-75.2709 148.355,-58.1356 136.281,-44.0766"/>
<polygon fill="black" stroke="black" points="138.699,-41.5197 129.528,-36.2138 133.388,-46.0805 138.699,-41.5197"/>
<text text-anchor="middle" x="165.245" y="-57.8" font-family="Times New Roman,serif" font-size="14.00">is a</text>
</g>
<!-- n26&#45;&gt;n1 -->
<g id="edge31" class="edge"><title>n26&#45;&gt;n1</title>
<path fill="none" stroke="#00cd00" d="M659.249,-866.987C655.423,-851.979 652.355,-829.924 660.745,-813 662.967,-808.516 666.07,-804.45 669.625,-800.811"/>
<polygon fill="#00cd00" stroke="#00cd00" points="672.233,-803.177 677.422,-793.94 667.605,-797.926 672.233,-803.177"/>
<text text-anchor="middle" x="708.245" y="-827.3" font-family="Times New Roman,serif" font-size="14.00">wasGeneratedBy</text>
</g>
<!-- n31 -->
<g id="node31" class="node"><title>n31</title>
<g id="a_node31"><a xlink:href="file:///C:/sadl/git/RACK/RACK-Ontology/Graphs/SOFTWARE.owl.svg" xlink:title="sw:EXECUTABLE">
<polygon fill="#00008b" stroke="black" points="611.245,-795 486.245,-795 486.245,-759 611.245,-759 611.245,-795"/>
<text text-anchor="middle" x="548.745" y="-773.3" font-family="Times New Roman,serif" font-size="14.00" fill="white">sw:EXECUTABLE</text>
</a>
</g>
</g>
<!-- n26&#45;&gt;n31 -->
<g id="edge32" class="edge"><title>n26&#45;&gt;n31</title>
<path fill="none" stroke="black" d="M647.628,-868.359C628.461,-850.844 597.173,-822.253 574.927,-801.926"/>
<polygon fill="black" stroke="black" points="577.214,-799.274 567.471,-795.112 572.492,-804.441 577.214,-799.274"/>
<text text-anchor="middle" x="634.245" y="-827.3" font-family="Times New Roman,serif" font-size="14.00">is a</text>
</g>
<!-- n28 -->
<g id="node28" class="node"><title>n28</title>
<ellipse fill="blue" stroke="black" cx="235.745" cy="-1059" rx="74.187" ry="18"/>
<text text-anchor="middle" x="235.745" y="-1055.3" font-family="Times New Roman,serif" font-size="14.00" fill="white">sample2dist_tbz2</text>
</g>
<!-- n28&#45;&gt;n16 -->
<g id="edge26" class="edge"><title>n28&#45;&gt;n16</title>
<path fill="none" stroke="black" d="M194.461,-1044.04C182.929,-1038.74 171.027,-1031.8 161.745,-1023 154.774,-1016.39 149.2,-1007.58 144.969,-999.192"/>
<polygon fill="black" stroke="black" points="148.12,-997.667 140.76,-990.047 141.761,-1000.59 148.12,-997.667"/>
<text text-anchor="middle" x="171.245" y="-1011.8" font-family="Times New Roman,serif" font-size="14.00">is a</text>
</g>
<!-- n29 -->
<g id="node29" class="node"><title>n29</title>
<ellipse fill="blue" stroke="black" cx="285.745" cy="-972" rx="63.8893" ry="18"/>
<text text-anchor="middle" x="285.745" y="-968.3" font-family="Times New Roman,serif" font-size="14.00" fill="white">tbz2Packaging</text>
</g>
<!-- n28&#45;&gt;n29 -->
<g id="edge25" class="edge"><title>n28&#45;&gt;n29</title>
<path fill="none" stroke="#00cd00" d="M245.863,-1040.8C252.957,-1028.74 262.566,-1012.4 270.574,-998.79"/>
<polygon fill="#00cd00" stroke="#00cd00" points="273.758,-1000.28 275.812,-989.885 267.725,-996.73 273.758,-1000.28"/>
<text text-anchor="middle" x="311.245" y="-1011.8" font-family="Times New Roman,serif" font-size="14.00">wasGeneratedBy</text>
</g>
<!-- n29&#45;&gt;n4 -->
<g id="edge49" class="edge"><title>n29&#45;&gt;n4</title>
<path fill="none" stroke="#00cd00" d="M332.07,-959.472C343.716,-954.265 354.85,-946.765 361.745,-936 365.34,-930.386 362.472,-927.627 361.745,-921 358.168,-888.415 349.321,-881.585 345.745,-849 343.999,-833.096 345.448,-828.997 345.745,-813 346.189,-788.988 331.248,-776.455 347.745,-759 377.179,-727.855 498.199,-751.508 539.745,-741 586.863,-729.082 637.839,-705.744 670.912,-689.078"/>
<polygon fill="#00cd00" stroke="#00cd00" points="672.847,-692.02 680.162,-684.355 669.664,-685.786 672.847,-692.02"/>
<text text-anchor="middle" x="359.245" y="-827.3" font-family="Times New Roman,serif" font-size="14.00">used</text>
</g>
<!-- n29&#45;&gt;n10 -->
<g id="edge51" class="edge"><title>n29&#45;&gt;n10</title>
<path fill="none" stroke="#00cd00" d="M281.325,-953.808C278.026,-940.141 273.755,-920.482 271.745,-903 256.205,-767.855 240.745,-730.902 264.745,-597 279.335,-515.596 309.992,-395.52 384.745,-315 392.649,-306.485 403.103,-299.644 413.354,-294.348"/>
<polygon fill="#00cd00" stroke="#00cd00" points="415.119,-297.384 422.632,-289.914 412.101,-291.068 415.119,-297.384"/>
<text text-anchor="middle" x="278.245" y="-611.3" font-family="Times New Roman,serif" font-size="14.00">used</text>
</g>
<!-- n29&#45;&gt;n25 -->
<g id="edge52" class="edge"><title>n29&#45;&gt;n25</title>
<path fill="none" stroke="#00cd00" d="M238.003,-960.073C220.056,-954.605 200.063,-946.791 183.745,-936 158.807,-919.509 138.745,-915.897 138.745,-886 138.745,-886 138.745,-886 138.745,-560 138.745,-397.457 170.175,-204.06 182.691,-133.494"/>
<polygon fill="#00cd00" stroke="#00cd00" points="186.208,-133.707 184.529,-123.246 179.318,-132.471 186.208,-133.707"/>
<text text-anchor="middle" x="153.245" y="-513.8" font-family="Times New Roman,serif" font-size="14.00">used</text>
</g>
<!-- n29&#45;&gt;n26 -->
<g id="edge48" class="edge"><title>n29&#45;&gt;n26</title>
<path fill="none" stroke="#00cd00" d="M346.178,-965.967C447.418,-957.422 640.881,-940.56 646.745,-936 653.968,-930.383 658.297,-921.612 660.889,-912.975"/>
<polygon fill="#00cd00" stroke="#00cd00" points="664.33,-913.629 663.203,-903.095 657.515,-912.033 664.33,-913.629"/>
<text text-anchor="middle" x="671.245" y="-924.8" font-family="Times New Roman,serif" font-size="14.00">used</text>
</g>
<!-- n29&#45;&gt;n27 -->
<g id="edge55" class="edge"><title>n29&#45;&gt;n27</title>
<path fill="none" stroke="black" d="M332.975,-959.897C351.484,-954.347 372.397,-946.522 389.745,-936 400.955,-929.201 411.692,-919.601 420.469,-910.628"/>
<polygon fill="black" stroke="black" points="423.047,-912.996 427.348,-903.314 417.947,-908.201 423.047,-912.996"/>
<text text-anchor="middle" x="418.245" y="-924.8" font-family="Times New Roman,serif" font-size="14.00">is a</text>
</g>
<!-- n33 -->
<g id="node33" class="node"><title>n33</title>
<ellipse fill="blue" stroke="black" cx="396.745" cy="-105" rx="55.7903" ry="18"/>
<text text-anchor="middle" x="396.745" y="-101.3" font-family="Times New Roman,serif" font-size="14.00" fill="white">mkassist_py</text>
</g>
<!-- n29&#45;&gt;n33 -->
<g id="edge53" class="edge"><title>n29&#45;&gt;n33</title>
<path fill="none" stroke="#00cd00" d="M277.582,-953.808C275.143,-948.216 272.622,-941.924 270.745,-936 258.911,-898.667 261.425,-887.883 256.745,-849 244.861,-750.27 192.378,-491.489 235.745,-402 268.588,-334.227 331.06,-362.206 368.745,-297 398.788,-245.015 400.494,-172.247 398.812,-133.245"/>
<polygon fill="#00cd00" stroke="#00cd00" points="402.303,-132.982 398.268,-123.185 395.313,-133.36 402.303,-132.982"/>
<text text-anchor="middle" x="233.245" y="-513.8" font-family="Times New Roman,serif" font-size="14.00">used</text>
</g>
<!-- n34 -->
<g id="node34" class="node"><title>n34</title>
<ellipse fill="blue" stroke="black" cx="307.745" cy="-885" rx="27" ry="18"/>
<text text-anchor="middle" x="307.745" y="-881.3" font-family="Times New Roman,serif" font-size="14.00" fill="white">tar</text>
</g>
<!-- n29&#45;&gt;n34 -->
<g id="edge47" class="edge"><title>n29&#45;&gt;n34</title>
<path fill="none" stroke="#00cd00" d="M283.916,-953.547C283.43,-943.79 283.719,-931.513 286.745,-921 287.786,-917.382 289.299,-913.759 291.044,-910.288"/>
<polygon fill="#00cd00" stroke="#00cd00" points="294.107,-911.982 296.037,-901.564 288.032,-908.504 294.107,-911.982"/>
<text text-anchor="middle" x="324.245" y="-924.8" font-family="Times New Roman,serif" font-size="14.00">performedBy</text>
</g>
<!-- n35 -->
<g id="node35" class="node"><title>n35</title>
<ellipse fill="blue" stroke="black" cx="61.7445" cy="-723" rx="61.99" ry="18"/>
<text text-anchor="middle" x="61.7445" y="-719.3" font-family="Times New Roman,serif" font-size="14.00" fill="white">LICENSE_txt</text>
</g>
<!-- n29&#45;&gt;n35 -->
<g id="edge54" class="edge"><title>n29&#45;&gt;n35</title>
<path fill="none" stroke="#00cd00" d="M238.664,-959.839C230.051,-957.853 221.135,-955.835 212.745,-954 173.745,-945.472 158.915,-956.642 124.745,-936 62.108,-898.162 57.8168,-799.163 59.7136,-751.041"/>
<polygon fill="#00cd00" stroke="#00cd00" points="63.2094,-751.21 60.2275,-741.043 56.2186,-750.85 63.2094,-751.21"/>
<text text-anchor="middle" x="104.245" y="-881.3" font-family="Times New Roman,serif" font-size="14.00">used</text>
</g>
<!-- n36 -->
<g id="node36" class="node"><title>n36</title>
<ellipse fill="blue" stroke="black" cx="324.745" cy="-279" rx="35.194" ry="18"/>
<text text-anchor="middle" x="324.745" y="-275.3" font-family="Times New Roman,serif" font-size="14.00" fill="white">help_c</text>
</g>
<!-- n29&#45;&gt;n36 -->
<g id="edge50" class="edge"><title>n29&#45;&gt;n36</title>
<path fill="none" stroke="#00cd00" d="M240.25,-959.236C226.312,-953.915 211.766,-946.411 200.745,-936 182.826,-919.073 176.745,-910.65 176.745,-886 176.745,-886 176.745,-886 176.745,-668 176.745,-548.978 165.386,-513.23 207.745,-402 224.461,-358.105 232.95,-346.552 267.745,-315 274.946,-308.469 283.534,-302.467 291.83,-297.346"/>
<polygon fill="#00cd00" stroke="#00cd00" points="293.803,-300.246 300.639,-292.151 290.247,-294.216 293.803,-300.246"/>
<text text-anchor="middle" x="190.245" y="-611.3" font-family="Times New Roman,serif" font-size="14.00">used</text>
</g>
<!-- n30&#45;&gt;n24 -->
<g id="edge42" class="edge"><title>n30&#45;&gt;n24</title>
<path fill="none" stroke="black" d="M735.499,-463.917C750.582,-458.235 768.465,-449.736 781.745,-438 795.65,-425.711 806.648,-407.966 814.17,-393.292"/>
<polygon fill="black" stroke="black" points="817.376,-394.703 818.608,-384.18 811.083,-391.638 817.376,-394.703"/>
<text text-anchor="middle" x="819.245" y="-416.3" font-family="Times New Roman,serif" font-size="14.00">is a</text>
</g>
<!-- n37 -->
<g id="node37" class="node"><title>n37</title>
<ellipse fill="blue" stroke="black" cx="643.745" cy="-366" rx="63.8893" ry="18"/>
<text text-anchor="middle" x="643.745" y="-362.3" font-family="Times New Roman,serif" font-size="14.00" fill="white">helpCompiling</text>
</g>
<!-- n30&#45;&gt;n37 -->
<g id="edge41" class="edge"><title>n30&#45;&gt;n37</title>
<path fill="none" stroke="#00cd00" d="M676.459,-463.568C664.448,-458.103 651.743,-449.89 644.745,-438 637.071,-424.962 636.524,-408.109 638.035,-394.094"/>
<polygon fill="#00cd00" stroke="#00cd00" points="641.522,-394.442 639.508,-384.04 634.596,-393.428 641.522,-394.442"/>
<text text-anchor="middle" x="692.245" y="-416.3" font-family="Times New Roman,serif" font-size="14.00">wasGeneratedBy</text>
</g>
<!-- n32&#45;&gt;n17 -->
<g id="edge43" class="edge"><title>n32&#45;&gt;n17</title>
<path fill="none" stroke="#00cd00" d="M804.291,-173.799C813.375,-161.345 825.782,-144.335 835.897,-130.469"/>
<polygon fill="#00cd00" stroke="#00cd00" points="838.782,-132.452 841.848,-122.31 833.127,-128.327 838.782,-132.452"/>
<text text-anchor="middle" x="864.245" y="-144.8" font-family="Times New Roman,serif" font-size="14.00">performedBy</text>
</g>
<!-- n32&#45;&gt;n25 -->
<g id="edge44" class="edge"><title>n32&#45;&gt;n25</title>
<path fill="none" stroke="#00cd00" d="M720.412,-182.707C691.93,-179.619 658.815,-176.308 628.745,-174 547.773,-167.786 340.944,-181.206 263.745,-156 245.592,-150.073 227.633,-138.592 213.735,-128.125"/>
<polygon fill="#00cd00" stroke="#00cd00" points="215.674,-125.198 205.64,-121.797 211.363,-130.713 215.674,-125.198"/>
<text text-anchor="middle" x="277.245" y="-144.8" font-family="Times New Roman,serif" font-size="14.00">used</text>
</g>
<!-- n32&#45;&gt;n33 -->
<g id="edge45" class="edge"><title>n32&#45;&gt;n33</title>
<path fill="none" stroke="#00cd00" d="M760.471,-175.237C736.717,-163.945 702.928,-149.319 671.745,-141 601.373,-122.227 518.103,-113.419 461.775,-109.354"/>
<polygon fill="#00cd00" stroke="#00cd00" points="461.798,-105.847 451.58,-108.649 461.315,-112.83 461.798,-105.847"/>
<text text-anchor="middle" x="729.245" y="-144.8" font-family="Times New Roman,serif" font-size="14.00">used</text>
</g>
<!-- n38 -->
<g id="node38" class="node"><title>n38</title>
<g id="a_node38"><a xlink:href="file:///C:/sadl/git/RACK/RACK-Ontology/Graphs/SOFTWARE.owl.svg" xlink:title="sw:CODE_GEN">
<polygon fill="#00008b" stroke="black" points="799.745,-123 689.745,-123 689.745,-87 799.745,-87 799.745,-123"/>
<text text-anchor="middle" x="744.745" y="-101.3" font-family="Times New Roman,serif" font-size="14.00" fill="white">sw:CODE_GEN</text>
</a>
</g>
</g>
<!-- n32&#45;&gt;n38 -->
<g id="edge46" class="edge"><title>n32&#45;&gt;n38</title>
<path fill="none" stroke="black" d="M782.233,-173.799C775.608,-161.817 766.65,-145.617 759.152,-132.057"/>
<polygon fill="black" stroke="black" points="762.143,-130.233 754.242,-123.175 756.018,-133.62 762.143,-130.233"/>
<text text-anchor="middle" x="781.245" y="-144.8" font-family="Times New Roman,serif" font-size="14.00">is a</text>
</g>
<!-- n33&#45;&gt;n11 -->
<g id="edge36" class="edge"><title>n33&#45;&gt;n11</title>
<path fill="none" stroke="black" d="M396.745,-86.799C396.745,-75.1626 396.745,-59.5479 396.745,-46.2368"/>
<polygon fill="black" stroke="black" points="400.245,-46.1754 396.745,-36.1754 393.245,-46.1755 400.245,-46.1754"/>
<text text-anchor="middle" x="406.245" y="-57.8" font-family="Times New Roman,serif" font-size="14.00">is a</text>
</g>
<!-- n34&#45;&gt;n7 -->
<g id="edge37" class="edge"><title>n34&#45;&gt;n7</title>
<path fill="none" stroke="black" d="M302.896,-867.075C299.52,-851.504 297.413,-828.538 308.745,-813 318.045,-800.247 332.219,-792.083 347.137,-786.873"/>
<polygon fill="black" stroke="black" points="348.464,-790.128 357.004,-783.858 346.418,-783.433 348.464,-790.128"/>
<text text-anchor="middle" x="318.245" y="-827.3" font-family="Times New Roman,serif" font-size="14.00">is a</text>
</g>
<!-- n35&#45;&gt;n9 -->
<g id="edge38" class="edge"><title>n35&#45;&gt;n9</title>
<path fill="none" stroke="black" d="M63.8464,-704.772C66.2167,-683.823 69.7445,-647.374 69.7445,-616 69.7445,-616 69.7445,-616 69.7445,-104 69.7445,-82.163 81.4887,-60.4539 92.9777,-44.4412"/>
<polygon fill="black" stroke="black" points="96.0002,-46.2482 99.2581,-36.1667 90.4244,-42.0162 96.0002,-46.2482"/>
<text text-anchor="middle" x="79.2445" y="-362.3" font-family="Times New Roman,serif" font-size="14.00">is a</text>
</g>
<!-- n36&#45;&gt;n11 -->
<g id="edge40" class="edge"><title>n36&#45;&gt;n11</title>
<path fill="none" stroke="black" d="M321.503,-261.052C315.729,-226.634 306.498,-146.757 331.745,-87 338.955,-69.9322 352.541,-54.6369 365.435,-42.8953"/>
<polygon fill="black" stroke="black" points="368.053,-45.2577 373.311,-36.0597 363.465,-39.9712 368.053,-45.2577"/>
<text text-anchor="middle" x="327.245" y="-144.8" font-family="Times New Roman,serif" font-size="14.00">is a</text>
</g>
<!-- n37&#45;&gt;n2 -->
<g id="edge56" class="edge"><title>n37&#45;&gt;n2</title>
<path fill="none" stroke="#00cd00" d="M666.963,-349.211C688.28,-334.716 719.849,-313.249 742.167,-298.073"/>
<polygon fill="#00cd00" stroke="#00cd00" points="744.218,-300.911 750.519,-292.393 740.282,-295.122 744.218,-300.911"/>
<text text-anchor="middle" x="751.245" y="-318.8" font-family="Times New Roman,serif" font-size="14.00">performedBy</text>
</g>
<!-- n37&#45;&gt;n5 -->
<g id="edge59" class="edge"><title>n37&#45;&gt;n5</title>
<path fill="none" stroke="black" d="M648.399,-347.799C651.579,-336.047 655.857,-320.238 659.481,-306.842"/>
<polygon fill="black" stroke="black" points="662.864,-307.743 662.097,-297.175 656.107,-305.914 662.864,-307.743"/>
<text text-anchor="middle" x="666.245" y="-318.8" font-family="Times New Roman,serif" font-size="14.00">is a</text>
</g>
<!-- n37&#45;&gt;n10 -->
<g id="edge58" class="edge"><title>n37&#45;&gt;n10</title>
<path fill="none" stroke="#00cd00" d="M583.327,-359.954C538.328,-354.984 481.846,-345.786 464.745,-330 458.34,-324.088 454.777,-315.51 452.821,-307.122"/>
<polygon fill="#00cd00" stroke="#00cd00" points="456.259,-306.46 451.151,-297.178 449.356,-307.619 456.259,-306.46"/>
<text text-anchor="middle" x="478.245" y="-318.8" font-family="Times New Roman,serif" font-size="14.00">used</text>
</g>
<!-- n37&#45;&gt;n36 -->
<g id="edge57" class="edge"><title>n37&#45;&gt;n36</title>
<path fill="none" stroke="#00cd00" d="M583.103,-360.315C538.484,-355.673 476.795,-346.734 424.745,-330 400.448,-322.189 374.73,-309.211 355.459,-298.436"/>
<polygon fill="#00cd00" stroke="#00cd00" points="356.972,-295.269 346.552,-293.355 353.504,-301.35 356.972,-295.269"/>
<text text-anchor="middle" x="438.245" y="-318.8" font-family="Times New Roman,serif" font-size="14.00">used</text>
</g>
<!-- n39 -->
<g id="node39" class="node"><title>n39</title>
<ellipse fill="blue" stroke="black" cx="840.745" cy="-1059" rx="59.5901" ry="18"/>
<text text-anchor="middle" x="840.745" y="-1055.3" font-family="Times New Roman,serif" font-size="14.00" fill="white">sample2Build</text>
</g>
<!-- n39&#45;&gt;n1 -->
<g id="edge60" class="edge"><title>n39&#45;&gt;n1</title>
<path fill="none" stroke="#00cd00" d="M813.172,-1042.75C805.809,-1037.42 798.568,-1030.78 793.745,-1023 743.776,-942.381 806.511,-893.12 755.745,-813 752.737,-808.253 748.832,-803.957 744.54,-800.131"/>
<polygon fill="#00cd00" stroke="#00cd00" points="746.514,-797.23 736.504,-793.757 742.164,-802.714 746.514,-797.23"/>
<text text-anchor="middle" x="786.745" y="-924.8" font-family="Times New Roman,serif" font-size="14.00">step</text>
</g>
<!-- n39&#45;&gt;n12 -->
<g id="edge61" class="edge"><title>n39&#45;&gt;n12</title>
<path fill="none" stroke="#00cd00" d="M869.401,-1042.92C888.185,-1031.27 911.155,-1013.22 921.745,-990 928.383,-975.442 923.032,-969.948 921.745,-954 908.814,-793.774 952.182,-731.233 863.745,-597 860.394,-591.914 856.021,-587.42 851.205,-583.493"/>
<polygon fill="#00cd00" stroke="#00cd00" points="852.94,-580.429 842.782,-577.417 848.844,-586.106 852.94,-580.429"/>
<text text-anchor="middle" x="933.745" y="-827.3" font-family="Times New Roman,serif" font-size="14.00">step</text>
</g>
<!-- n39&#45;&gt;n15 -->
<g id="edge66" class="edge"><title>n39&#45;&gt;n15</title>
<path fill="none" stroke="#00cd00" d="M800.905,-1045.46C752.259,-1030.14 670.071,-1004.27 618.201,-987.94"/>
<polygon fill="#00cd00" stroke="#00cd00" points="619.156,-984.571 608.567,-984.907 617.054,-991.248 619.156,-984.571"/>
<text text-anchor="middle" x="734.745" y="-1011.8" font-family="Times New Roman,serif" font-size="14.00">step</text>
</g>
<!-- n39&#45;&gt;n19 -->
<g id="edge63" class="edge"><title>n39&#45;&gt;n19</title>
<path fill="none" stroke="#00cd00" d="M890.485,-1048.93C954.825,-1035.75 1058.74,-1008.9 1058.74,-973 1058.74,-973 1058.74,-973 1058.74,-473 1058.74,-440.837 1059.46,-430.597 1044.74,-402 1042.81,-398.241 1040.35,-394.6 1037.65,-391.177"/>
<polygon fill="#00cd00" stroke="#00cd00" points="1040.26,-388.848 1031.04,-383.634 1035,-393.462 1040.26,-388.848"/>
<text text-anchor="middle" x="1070.74" y="-719.3" font-family="Times New Roman,serif" font-size="14.00">step</text>
</g>
<!-- n39&#45;&gt;n29 -->
<g id="edge65" class="edge"><title>n39&#45;&gt;n29</title>
<path fill="none" stroke="#00cd00" d="M782.039,-1055.25C709.763,-1051.21 583.473,-1041.97 476.745,-1023 428.726,-1014.46 375.082,-999.97 336.9,-988.779"/>
<polygon fill="#00cd00" stroke="#00cd00" points="337.631,-985.345 327.049,-985.864 335.645,-992.058 337.631,-985.345"/>
<text text-anchor="middle" x="488.745" y="-1011.8" font-family="Times New Roman,serif" font-size="14.00">step</text>
</g>
<!-- n39&#45;&gt;n32 -->
<g id="edge64" class="edge"><title>n39&#45;&gt;n32</title>
<path fill="none" stroke="#00cd00" d="M895.743,-1051.77C973.904,-1041.35 1107.74,-1017.09 1107.74,-973 1107.74,-973 1107.74,-973 1107.74,-278 1107.74,-230.517 973.013,-208.803 879.501,-199.45"/>
<polygon fill="#00cd00" stroke="#00cd00" points="879.743,-195.957 869.452,-198.476 879.067,-202.924 879.743,-195.957"/>
<text text-anchor="middle" x="1119.74" y="-611.3" font-family="Times New Roman,serif" font-size="14.00">step</text>
</g>
<!-- n39&#45;&gt;n37 -->
<g id="edge62" class="edge"><title>n39&#45;&gt;n37</title>
<path fill="none" stroke="#00cd00" d="M836.199,-1040.82C832.831,-1027.16 828.528,-1007.51 826.745,-990 818.759,-911.614 852.902,-890.118 836.745,-813 820.624,-736.059 819.241,-708.601 765.745,-651 754.109,-638.472 743.905,-645.019 731.745,-633 699.353,-600.984 718.763,-570.874 682.745,-543 656.659,-522.813 631.044,-550.999 610.745,-525 580.479,-486.237 607.219,-426.365 627.029,-392.545"/>
<polygon fill="#00cd00" stroke="#00cd00" points="630.18,-394.1 632.38,-383.736 624.197,-390.466 630.18,-394.1"/>
<text text-anchor="middle" x="832.745" y="-719.3" font-family="Times New Roman,serif" font-size="14.00">step</text>
</g>
<!-- n40 -->
<g id="node40" class="node"><title>n40</title>
<g id="a_node40"><a xlink:href="file:///C:/sadl/git/RACK/RACK-Ontology/Graphs/SOFTWARE.owl.svg" xlink:title="sw:BUILD">
<polygon fill="#00008b" stroke="black" points="913.245,-990 836.245,-990 836.245,-954 913.245,-954 913.245,-990"/>
<text text-anchor="middle" x="874.745" y="-968.3" font-family="Times New Roman,serif" font-size="14.00" fill="white">sw:BUILD</text>
</a>
</g>
</g>
<!-- n39&#45;&gt;n40 -->
<g id="edge67" class="edge"><title>n39&#45;&gt;n40</title>
<path fill="none" stroke="black" d="M847.625,-1040.8C852.326,-1029.05 858.649,-1013.24 864.008,-999.842"/>
<polygon fill="black" stroke="black" points="867.41,-1000.76 867.874,-990.175 860.911,-998.16 867.41,-1000.76"/>
<text text-anchor="middle" x="870.245" y="-1011.8" font-family="Times New Roman,serif" font-size="14.00">is a</text>
</g>
</g>
</svg>
