<?xml version="1.0" encoding="UTF-8" standalone="no"?>
<!DOCTYPE svg PUBLIC "-//W3C//DTD SVG 1.1//EN"
 "http://www.w3.org/Graphics/SVG/1.1/DTD/svg11.dtd">
<!-- Generated by graphviz version 2.38.0 (20140413.2041)
 -->
<!-- Title: gsw Pages: 1 -->
<svg width="4682pt" height="415pt"
 viewBox="0.00 0.00 4682.34 415.00" xmlns="http://www.w3.org/2000/svg" xmlns:xlink="http://www.w3.org/1999/xlink">
<g id="graph0" class="graph" transform="scale(1 1) rotate(0) translate(4 411)">
<title>gsw</title>
<polygon fill="white" stroke="none" points="-4,4 -4,-411 4678.34,-411 4678.34,4 -4,4"/>
<text text-anchor="middle" x="85" y="-391.8" font-family="Times New Roman,serif" font-size="14.00">Graph of Ontology File: sw</text>
<!-- n1 -->
<g id="node1" class="node"><title>n1</title>
<ellipse fill="blue" stroke="black" cx="54.5952" cy="-366" rx="54.6905" ry="18"/>
<text text-anchor="middle" x="54.5952" y="-362.3" font-family="Times New Roman,serif" font-size="14.00" fill="white">compiledBy</text>
</g>
<!-- n2 -->
<g id="node2" class="node"><title>n2</title>
<g id="a_node2"><a xlink:href="file:///C:/Users/200001866/Documents/GitHub/RACK/RACK-Ontology/Graphs/PROV-S.owl.svg" xlink:title="provs:wasAssociatedWith">
<polygon fill="none" stroke="#00cd00" points="348.434,-271.544 348.434,-286.456 281.163,-297 186.027,-297 118.756,-286.456 118.756,-271.544 186.027,-261 281.163,-261 348.434,-271.544"/>
<text text-anchor="middle" x="233.595" y="-275.3" font-family="Times New Roman,serif" font-size="14.00">provs:wasAssociatedWith</text>
</a>
</g>
</g>
<!-- n1&#45;&gt;n2 -->
<g id="edge1" class="edge"><title>n1&#45;&gt;n2</title>
<path fill="none" stroke="#00cd00" d="M65.0281,-348.241C72.73,-337.22 84.177,-323.342 97.5952,-315 111.57,-306.312 127.629,-299.773 143.702,-294.853"/>
<polygon fill="#00cd00" stroke="#00cd00" points="145.041,-298.11 153.693,-291.994 143.116,-291.38 145.041,-298.11"/>
<text text-anchor="middle" x="140.095" y="-318.8" font-family="Times New Roman,serif" font-size="14.00">subPropertyOf</text>
</g>
<!-- n3 -->
<g id="node3" class="node"><title>n3</title>
<ellipse fill="blue" stroke="black" cx="513.595" cy="-366" rx="27" ry="18"/>
<text text-anchor="middle" x="513.595" y="-362.3" font-family="Times New Roman,serif" font-size="14.00" fill="white">step</text>
</g>
<!-- n4 -->
<g id="node4" class="node"><title>n4</title>
<g id="a_node4"><a xlink:href="file:///C:/Users/200001866/Documents/GitHub/RACK/RACK-Ontology/Graphs/PROV-S.owl.svg" xlink:title="provs:wasInformedBy">
<polygon fill="none" stroke="#00cd00" points="612.98,-271.544 612.98,-286.456 554.762,-297 472.428,-297 414.21,-286.456 414.21,-271.544 472.428,-261 554.762,-261 612.98,-271.544"/>
<text text-anchor="middle" x="513.595" y="-275.3" font-family="Times New Roman,serif" font-size="14.00">provs:wasInformedBy</text>
</a>
</g>
</g>
<!-- n3&#45;&gt;n4 -->
<g id="edge2" class="edge"><title>n3&#45;&gt;n4</title>
<path fill="none" stroke="#00cd00" d="M513.595,-347.799C513.595,-336.163 513.595,-320.548 513.595,-307.237"/>
<polygon fill="#00cd00" stroke="#00cd00" points="517.095,-307.175 513.595,-297.175 510.095,-307.175 517.095,-307.175"/>
<text text-anchor="middle" x="556.095" y="-318.8" font-family="Times New Roman,serif" font-size="14.00">subPropertyOf</text>
</g>
<!-- n5 -->
<g id="node5" class="node"><title>n5</title>
<ellipse fill="blue" stroke="black" cx="621.595" cy="-366" rx="59.5901" ry="18"/>
<text text-anchor="middle" x="621.595" y="-362.3" font-family="Times New Roman,serif" font-size="14.00" fill="white">packageInput</text>
</g>
<!-- n6 -->
<g id="node6" class="node"><title>n6</title>
<g id="a_node6"><a xlink:href="file:///C:/Users/200001866/Documents/GitHub/RACK/RACK-Ontology/Graphs/PROV-S.owl.svg" xlink:title="provs:used">
<polygon fill="none" stroke="#00cd00" points="877.34,-271.544 877.34,-286.456 845.271,-297 799.919,-297 767.85,-286.456 767.85,-271.544 799.919,-261 845.271,-261 877.34,-271.544"/>
<text text-anchor="middle" x="822.595" y="-275.3" font-family="Times New Roman,serif" font-size="14.00">provs:used</text>
</a>
</g>
</g>
<!-- n5&#45;&gt;n6 -->
<g id="edge3" class="edge"><title>n5&#45;&gt;n6</title>
<path fill="none" stroke="#00cd00" d="M637.831,-348.591C649.595,-337.582 666.395,-323.579 683.595,-315 707.571,-303.041 735.966,-294.951 760.822,-289.59"/>
<polygon fill="#00cd00" stroke="#00cd00" points="761.782,-292.966 770.874,-287.527 760.374,-286.109 761.782,-292.966"/>
<text text-anchor="middle" x="726.095" y="-318.8" font-family="Times New Roman,serif" font-size="14.00">subPropertyOf</text>
</g>
<!-- n7 -->
<g id="node7" class="node"><title>n7</title>
<g id="a_node7"><a xlink:href="file:///C:/Users/200001866/Documents/GitHub/RACK/RACK-Ontology/Graphs/FILE.owl.svg" xlink:title="file:FILE_CREATION">
<polygon fill="#00008b" stroke="black" points="1679.6,-384 1535.6,-384 1535.6,-348 1679.6,-348 1679.6,-384"/>
<text text-anchor="middle" x="1607.6" y="-362.3" font-family="Times New Roman,serif" font-size="14.00" fill="white">file:FILE_CREATION</text>
</a>
</g>
</g>
<!-- n8 -->
<g id="node8" class="node"><title>n8</title>
<polygon fill="#00008b" stroke="black" points="1646.6,-297 1568.6,-297 1568.6,-261 1646.6,-261 1646.6,-297"/>
<text text-anchor="middle" x="1607.6" y="-275.3" font-family="Times New Roman,serif" font-size="14.00" fill="white">COMPILE</text>
</g>
<!-- n7&#45;&gt;n8 -->
<g id="edge4" class="edge"><title>n7&#45;&gt;n8</title>
<path fill="none" stroke="blue" stroke-dasharray="5,2" d="M1607.6,-347.799C1607.6,-336.163 1607.6,-320.548 1607.6,-307.237"/>
<polygon fill="blue" stroke="blue" points="1611.1,-307.175 1607.6,-297.175 1604.1,-307.175 1611.1,-307.175"/>
<text text-anchor="middle" x="1633.6" y="-318.8" font-family="Times New Roman,serif" font-size="14.00">subClass</text>
</g>
<!-- n21 -->
<g id="node21" class="node"><title>n21</title>
<polygon fill="#00008b" stroke="black" points="1967.6,-297 1909.6,-297 1909.6,-261 1967.6,-261 1967.6,-297"/>
<text text-anchor="middle" x="1938.6" y="-275.3" font-family="Times New Roman,serif" font-size="14.00" fill="white">BUILD</text>
</g>
<!-- n7&#45;&gt;n21 -->
<g id="edge21" class="edge"><title>n7&#45;&gt;n21</title>
<path fill="none" stroke="blue" stroke-dasharray="5,2" d="M1674.18,-347.901C1741.71,-330.559 1843.96,-304.302 1899.44,-290.055"/>
<polygon fill="blue" stroke="blue" points="1900.42,-293.416 1909.24,-287.539 1898.68,-286.636 1900.42,-293.416"/>
<text text-anchor="middle" x="1819.6" y="-318.8" font-family="Times New Roman,serif" font-size="14.00">subClass</text>
</g>
<!-- n22 -->
<g id="node22" class="node"><title>n22</title>
<polygon fill="#00008b" stroke="black" points="1385.1,-297 1294.1,-297 1294.1,-261 1385.1,-261 1385.1,-297"/>
<text text-anchor="middle" x="1339.6" y="-275.3" font-family="Times New Roman,serif" font-size="14.00" fill="white">CODE_GEN</text>
</g>
<!-- n7&#45;&gt;n22 -->
<g id="edge22" class="edge"><title>n7&#45;&gt;n22</title>
<path fill="none" stroke="blue" stroke-dasharray="5,2" d="M1535.56,-350.243C1511.5,-344.681 1484.68,-337.79 1460.6,-330 1435.43,-321.86 1408.14,-310.788 1385.85,-301.132"/>
<polygon fill="blue" stroke="blue" points="1387.2,-297.899 1376.63,-297.093 1384.39,-304.311 1387.2,-297.899"/>
<text text-anchor="middle" x="1486.6" y="-318.8" font-family="Times New Roman,serif" font-size="14.00">subClass</text>
</g>
<!-- n26 -->
<g id="node26" class="node"><title>n26</title>
<polygon fill="#00008b" stroke="black" points="1829.6,-297 1665.6,-297 1665.6,-261 1829.6,-261 1829.6,-297"/>
<text text-anchor="middle" x="1747.6" y="-275.3" font-family="Times New Roman,serif" font-size="14.00" fill="white">CODE_DEVELOPMENT</text>
</g>
<!-- n7&#45;&gt;n26 -->
<g id="edge28" class="edge"><title>n7&#45;&gt;n26</title>
<path fill="none" stroke="blue" stroke-dasharray="5,2" d="M1635.93,-347.799C1657.46,-334.722 1687.28,-316.622 1710.68,-302.412"/>
<polygon fill="blue" stroke="blue" points="1712.57,-305.357 1719.31,-297.175 1708.94,-299.374 1712.57,-305.357"/>
<text text-anchor="middle" x="1712.6" y="-318.8" font-family="Times New Roman,serif" font-size="14.00">subClass</text>
</g>
<!-- n31 -->
<g id="node31" class="node"><title>n31</title>
<polygon fill="#00008b" stroke="black" points="1486.1,-297 1403.1,-297 1403.1,-261 1486.1,-261 1486.1,-297"/>
<text text-anchor="middle" x="1444.6" y="-275.3" font-family="Times New Roman,serif" font-size="14.00" fill="white">PACKAGE</text>
</g>
<!-- n7&#45;&gt;n31 -->
<g id="edge35" class="edge"><title>n7&#45;&gt;n31</title>
<path fill="none" stroke="blue" stroke-dasharray="5,2" d="M1574.61,-347.799C1549.12,-334.506 1513.67,-316.021 1486.23,-301.71"/>
<polygon fill="blue" stroke="blue" points="1487.74,-298.551 1477.25,-297.03 1484.5,-304.757 1487.74,-298.551"/>
<text text-anchor="middle" x="1562.6" y="-318.8" font-family="Times New Roman,serif" font-size="14.00">subClass</text>
</g>
<!-- n36 -->
<g id="node36" class="node"><title>n36</title>
<g id="a_node36"><a xlink:href="file:///C:/Users/200001866/Documents/GitHub/RACK/RACK-Ontology/Graphs/FILE.owl.svg" xlink:title="file:FILE">
<polygon fill="#00008b" stroke="black" points="1450.1,-210 1385.1,-210 1385.1,-174 1450.1,-174 1450.1,-210"/>
<text text-anchor="middle" x="1417.6" y="-188.3" font-family="Times New Roman,serif" font-size="14.00" fill="white">file:FILE</text>
</a>
</g>
</g>
<!-- n8&#45;&gt;n36 -->
<g id="edge53" class="edge"><title>n8&#45;&gt;n36</title>
<path fill="none" stroke="#00cd00" d="M1568.55,-261.853C1556.7,-256.409 1543.85,-249.937 1532.6,-243 1523.44,-237.354 1522.99,-233.242 1513.6,-228 1496.89,-218.679 1477.22,-211 1460.06,-205.234"/>
<polygon fill="#00cd00" stroke="#00cd00" points="1460.87,-201.819 1450.28,-202.062 1458.71,-208.477 1460.87,-201.819"/>
<text text-anchor="middle" x="1569.6" y="-231.8" font-family="Times New Roman,serif" font-size="14.00">compileInput</text>
</g>
<!-- n37 -->
<g id="node37" class="node"><title>n37</title>
<g id="a_node37"><a xlink:href="file:///C:/Users/200001866/Documents/GitHub/RACK/RACK-Ontology/Graphs/AGENTS.owl.svg" xlink:title="Ag:TOOL">
<polygon fill="#00008b" stroke="black" points="1635.6,-210 1561.6,-210 1561.6,-174 1635.6,-174 1635.6,-210"/>
<text text-anchor="middle" x="1598.6" y="-188.3" font-family="Times New Roman,serif" font-size="14.00" fill="white">Ag:TOOL</text>
</a>
</g>
</g>
<!-- n8&#45;&gt;n37 -->
<g id="edge47" class="edge"><title>n8&#45;&gt;n37</title>
<path fill="none" stroke="#00cd00" d="M1610.52,-260.775C1611.7,-251.089 1612.4,-238.808 1610.6,-228 1610.15,-225.301 1609.51,-222.532 1608.77,-219.789"/>
<polygon fill="#00cd00" stroke="#00cd00" points="1612.08,-218.64 1605.74,-210.153 1605.4,-220.743 1612.08,-218.64"/>
<text text-anchor="middle" x="1646.6" y="-231.8" font-family="Times New Roman,serif" font-size="14.00">compiledBy</text>
</g>
<!-- n9 -->
<g id="node9" class="node"><title>n9</title>
<ellipse fill="blue" stroke="black" cx="186.595" cy="-366" rx="59.2899" ry="18"/>
<text text-anchor="middle" x="186.595" y="-362.3" font-family="Times New Roman,serif" font-size="14.00" fill="white">performedBy</text>
</g>
<!-- n9&#45;&gt;n2 -->
<g id="edge5" class="edge"><title>n9&#45;&gt;n2</title>
<path fill="none" stroke="#00cd00" d="M184.722,-347.869C184.381,-337.759 185.33,-325.022 190.595,-315 192.61,-311.165 195.245,-307.597 198.22,-304.321"/>
<polygon fill="#00cd00" stroke="#00cd00" points="200.84,-306.658 205.646,-297.216 196.001,-301.6 200.84,-306.658"/>
<text text-anchor="middle" x="233.095" y="-318.8" font-family="Times New Roman,serif" font-size="14.00">subPropertyOf</text>
</g>
<!-- n10 -->
<g id="node10" class="node"><title>n10</title>
<ellipse fill="blue" stroke="black" cx="4284.6" cy="-105" rx="88.2844" ry="18"/>
<text text-anchor="middle" x="4284.6" y="-101.3" font-family="Times New Roman,serif" font-size="14.00" fill="white">BinaryGlobalVariable</text>
</g>
<!-- n10&#45;&gt;n10 -->
<g id="edge6" class="edge"><title>n10&#45;&gt;n10</title>
<path fill="none" stroke="#00cd00" d="M4365.32,-112.471C4380.38,-111.551 4390.99,-109.061 4390.99,-105 4390.99,-101.923 4384.9,-99.7475 4375.39,-98.474"/>
<polygon fill="#00cd00" stroke="#00cd00" points="4375.6,-94.9785 4365.32,-97.5292 4374.95,-101.948 4375.6,-94.9785"/>
<text text-anchor="middle" x="4415.49" y="-101.3" font-family="Times New Roman,serif" font-size="14.00">identifier</text>
</g>
<!-- n11 -->
<g id="node11" class="node"><title>n11</title>
<polygon fill="#00008b" stroke="black" points="3286.1,-36 3139.1,-36 3139.1,-0 3286.1,-0 3286.1,-36"/>
<text text-anchor="middle" x="3212.6" y="-14.3" font-family="Times New Roman,serif" font-size="14.00" fill="white">COMPONENT_TYPE</text>
</g>
<!-- n10&#45;&gt;n11 -->
<g id="edge7" class="edge"><title>n10&#45;&gt;n11</title>
<path fill="none" stroke="black" d="M4221.56,-92.2955C4210.27,-90.3872 4198.6,-88.5355 4187.6,-87 3859.86,-41.2792 3465.65,-25.7558 3296.43,-20.9544"/>
<polygon fill="black" stroke="black" points="3296.43,-17.4533 3286.34,-20.6734 3296.24,-24.4506 3296.43,-17.4533"/>
<text text-anchor="middle" x="4038.1" y="-57.8" font-family="Times New Roman,serif" font-size="14.00">is a</text>
</g>
<!-- n12 -->
<g id="node12" class="node"><title>n12</title>
<ellipse fill="blue" stroke="black" cx="4532.6" cy="-105" rx="74.9875" ry="18"/>
<text text-anchor="middle" x="4532.6" y="-101.3" font-family="Times New Roman,serif" font-size="14.00" fill="white">ClassConstructor</text>
</g>
<!-- n12&#45;&gt;n11 -->
<g id="edge9" class="edge"><title>n12&#45;&gt;n11</title>
<path fill="none" stroke="black" d="M4479.43,-92.2667C4469.23,-90.2924 4458.61,-88.425 4448.6,-87 4273.31,-62.0641 4228.3,-65.0255 4051.6,-54 3775.3,-36.7612 3447.28,-25.8395 3296.28,-21.3481"/>
<polygon fill="black" stroke="black" points="3296.26,-17.8459 3286.16,-21.0487 3296.05,-24.8428 3296.26,-17.8459"/>
<text text-anchor="middle" x="4307.1" y="-57.8" font-family="Times New Roman,serif" font-size="14.00">is a</text>
</g>
<!-- n12&#45;&gt;n12 -->
<g id="edge8" class="edge"><title>n12&#45;&gt;n12</title>
<path fill="none" stroke="#00cd00" d="M4600.53,-112.621C4614.94,-111.847 4625.34,-109.307 4625.34,-105 4625.34,-101.804 4619.61,-99.5803 4610.77,-98.33"/>
<polygon fill="#00cd00" stroke="#00cd00" points="4610.81,-94.8195 4600.53,-97.3793 4610.17,-101.79 4610.81,-94.8195"/>
<text text-anchor="middle" x="4649.84" y="-101.3" font-family="Times New Roman,serif" font-size="14.00">identifier</text>
</g>
<!-- n13 -->
<g id="node13" class="node"><title>n13</title>
<ellipse fill="blue" stroke="black" cx="2170.6" cy="-105" rx="68.7879" ry="18"/>
<text text-anchor="middle" x="2170.6" y="-101.3" font-family="Times New Roman,serif" font-size="14.00" fill="white">SourceFunction</text>
</g>
<!-- n13&#45;&gt;n11 -->
<g id="edge11" class="edge"><title>n13&#45;&gt;n11</title>
<path fill="none" stroke="black" d="M2231.22,-96.43C2257.18,-93.3079 2287.85,-89.7784 2315.6,-87 2614.2,-57.0934 2969.92,-33.771 3128.77,-23.9982"/>
<polygon fill="black" stroke="black" points="3129.18,-27.4798 3138.95,-23.3742 3128.75,-20.4929 3129.18,-27.4798"/>
<text text-anchor="middle" x="2694.1" y="-57.8" font-family="Times New Roman,serif" font-size="14.00">is a</text>
</g>
<!-- n13&#45;&gt;n13 -->
<g id="edge10" class="edge"><title>n13&#45;&gt;n13</title>
<path fill="none" stroke="#00cd00" d="M2233.08,-112.683C2247.18,-111.991 2257.49,-109.43 2257.49,-105 2257.49,-101.712 2251.81,-99.4541 2243.12,-98.2252"/>
<polygon fill="#00cd00" stroke="#00cd00" points="2243.36,-94.7326 2233.08,-97.3173 2242.73,-101.704 2243.36,-94.7326"/>
<text text-anchor="middle" x="2281.99" y="-101.3" font-family="Times New Roman,serif" font-size="14.00">identifier</text>
</g>
<!-- n14 -->
<g id="node14" class="node"><title>n14</title>
<ellipse fill="blue" stroke="black" cx="2415.6" cy="-105" rx="90.9839" ry="18"/>
<text text-anchor="middle" x="2415.6" y="-101.3" font-family="Times New Roman,serif" font-size="14.00" fill="white">ClassMemberVariable</text>
</g>
<!-- n14&#45;&gt;n11 -->
<g id="edge13" class="edge"><title>n14&#45;&gt;n11</title>
<path fill="none" stroke="black" d="M2493.14,-95.4255C2584.39,-85.3652 2740.48,-68.2482 2874.6,-54 2961.22,-44.7965 3060.38,-34.565 3128.78,-27.5538"/>
<polygon fill="black" stroke="black" points="3129.48,-31.001 3139.07,-26.5 3128.76,-24.0375 3129.48,-31.001"/>
<text text-anchor="middle" x="2884.1" y="-57.8" font-family="Times New Roman,serif" font-size="14.00">is a</text>
</g>
<!-- n14&#45;&gt;n14 -->
<g id="edge12" class="edge"><title>n14&#45;&gt;n14</title>
<path fill="none" stroke="#00cd00" d="M2498.76,-112.442C2513.94,-111.5 2524.59,-109.02 2524.59,-105 2524.59,-101.954 2518.47,-99.7916 2508.9,-98.5128"/>
<polygon fill="#00cd00" stroke="#00cd00" points="2509.04,-95.0104 2498.76,-97.5576 2508.38,-101.98 2509.04,-95.0104"/>
<text text-anchor="middle" x="2549.09" y="-101.3" font-family="Times New Roman,serif" font-size="14.00">identifier</text>
</g>
<!-- n15 -->
<g id="node15" class="node"><title>n15</title>
<ellipse fill="blue" stroke="black" cx="2650.6" cy="-105" rx="59.2899" ry="18"/>
<text text-anchor="middle" x="2650.6" y="-101.3" font-family="Times New Roman,serif" font-size="14.00" fill="white">ClassMethod</text>
</g>
<!-- n15&#45;&gt;n11 -->
<g id="edge15" class="edge"><title>n15&#45;&gt;n11</title>
<path fill="none" stroke="black" d="M2702.46,-96.1558C2799.89,-81.4199 3011.04,-49.4849 3128.85,-31.6663"/>
<polygon fill="black" stroke="black" points="3129.54,-35.1012 3138.91,-30.145 3128.5,-28.1799 3129.54,-35.1012"/>
<text text-anchor="middle" x="2974.1" y="-57.8" font-family="Times New Roman,serif" font-size="14.00">is a</text>
</g>
<!-- n15&#45;&gt;n15 -->
<g id="edge14" class="edge"><title>n15&#45;&gt;n15</title>
<path fill="none" stroke="#00cd00" d="M2703.96,-112.781C2717.54,-112.269 2727.74,-109.676 2727.74,-105 2727.74,-101.566 2722.24,-99.2554 2713.94,-98.0675"/>
<polygon fill="#00cd00" stroke="#00cd00" points="2714.22,-94.5787 2703.96,-97.2192 2713.62,-101.554 2714.22,-94.5787"/>
<text text-anchor="middle" x="2752.24" y="-101.3" font-family="Times New Roman,serif" font-size="14.00">identifier</text>
</g>
<!-- n16 -->
<g id="node16" class="node"><title>n16</title>
<g id="a_node16"><a xlink:href="file:///C:/Users/200001866/Documents/GitHub/RACK/RACK-Ontology/Graphs/PROV-S.owl.svg" xlink:title="provs:ENTITY">
<polygon fill="#00008b" stroke="black" points="1801.6,-210 1699.6,-210 1699.6,-174 1801.6,-174 1801.6,-210"/>
<text text-anchor="middle" x="1750.6" y="-188.3" font-family="Times New Roman,serif" font-size="14.00" fill="white">provs:ENTITY</text>
</a>
</g>
</g>
<!-- n17 -->
<g id="node17" class="node"><title>n17</title>
<polygon fill="#00008b" stroke="black" points="1897.6,-123 1771.6,-123 1771.6,-87 1897.6,-87 1897.6,-123"/>
<text text-anchor="middle" x="1834.6" y="-101.3" font-family="Times New Roman,serif" font-size="14.00" fill="white">SWCOMPONENT</text>
</g>
<!-- n16&#45;&gt;n17 -->
<g id="edge16" class="edge"><title>n16&#45;&gt;n17</title>
<path fill="none" stroke="blue" stroke-dasharray="5,2" d="M1789.77,-173.944C1798.05,-169.034 1806.21,-163.056 1812.6,-156 1818.57,-149.402 1823.12,-140.922 1826.49,-132.827"/>
<polygon fill="blue" stroke="blue" points="1829.83,-133.889 1830.02,-123.296 1823.26,-131.453 1829.83,-133.889"/>
<text text-anchor="middle" x="1848.6" y="-144.8" font-family="Times New Roman,serif" font-size="14.00">subClass</text>
</g>
<!-- n17&#45;&gt;n11 -->
<g id="edge46" class="edge"><title>n17&#45;&gt;n11</title>
<path fill="none" stroke="#00cd00" d="M1897.72,-97.6936C2004.34,-87.2384 2226.93,-66.2556 2415.6,-54 2675.41,-37.1227 2983.42,-26.159 3128.74,-21.5248"/>
<polygon fill="#00cd00" stroke="#00cd00" points="3129.04,-25.0173 3138.92,-21.202 3128.81,-18.0208 3129.04,-25.0173"/>
<text text-anchor="middle" x="2462.1" y="-57.8" font-family="Times New Roman,serif" font-size="14.00">componentType</text>
</g>
<!-- n17&#45;&gt;n16 -->
<g id="edge44" class="edge"><title>n17&#45;&gt;n16</title>
<path fill="none" stroke="#00cd00" d="M1771.47,-120.733C1762.04,-125.659 1753.52,-132.231 1747.6,-141 1743.13,-147.614 1742.25,-155.912 1742.96,-163.837"/>
<polygon fill="#00cd00" stroke="#00cd00" points="1739.54,-164.583 1744.64,-173.866 1746.44,-163.425 1739.54,-164.583"/>
<text text-anchor="middle" x="1778.1" y="-144.8" font-family="Times New Roman,serif" font-size="14.00">instantiates</text>
</g>
<!-- n17&#45;&gt;n17 -->
<g id="edge43" class="edge"><title>n17&#45;&gt;n17</title>
<path fill="none" stroke="#00cd00" d="M1897.76,-108.66C1908.31,-108.148 1915.6,-106.928 1915.6,-105 1915.6,-103.795 1912.75,-102.867 1908.04,-102.215"/>
<polygon fill="#00cd00" stroke="#00cd00" points="1908.02,-98.7009 1897.76,-101.34 1907.43,-105.676 1908.02,-98.7009"/>
<text text-anchor="middle" x="1965.1" y="-101.3" font-family="Times New Roman,serif" font-size="14.00">subcomponentOf</text>
</g>
<!-- n17&#45;&gt;n17 -->
<g id="edge50" class="edge"><title>n17&#45;&gt;n17</title>
<path fill="none" stroke="#00cd00" d="M1897.97,-112.087C1950.91,-114.273 2014.6,-111.911 2014.6,-105 2014.6,-98.5208 1958.62,-96.0397 1908,-97.5567"/>
<polygon fill="#00cd00" stroke="#00cd00" points="1907.83,-94.0603 1897.97,-97.9134 1908.08,-101.056 1907.83,-94.0603"/>
<text text-anchor="middle" x="2040.1" y="-101.3" font-family="Times New Roman,serif" font-size="14.00">mentions</text>
</g>
<!-- n38 -->
<g id="node38" class="node"><title>n38</title>
<g id="a_node38"><a xlink:href="file:///C:/Users/200001866/Documents/GitHub/RACK/RACK-Ontology/Graphs/XMLSchema.svg" xlink:title="xsd:string">
<polygon fill="#00008b" stroke="black" points="1870.1,-36 1799.1,-36 1799.1,-0 1870.1,-0 1870.1,-36"/>
<text text-anchor="middle" x="1834.6" y="-14.3" font-family="Times New Roman,serif" font-size="14.00" fill="white">xsd:string</text>
</a>
</g>
</g>
<!-- n17&#45;&gt;n38 -->
<g id="edge48" class="edge"><title>n17&#45;&gt;n38</title>
<path fill="none" stroke="#00cd00" d="M1834.6,-86.799C1834.6,-75.1626 1834.6,-59.5479 1834.6,-46.2368"/>
<polygon fill="#00cd00" stroke="#00cd00" points="1838.1,-46.1754 1834.6,-36.1754 1831.1,-46.1755 1838.1,-46.1754"/>
<text text-anchor="middle" x="1863.6" y="-57.8" font-family="Times New Roman,serif" font-size="14.00">valueType</text>
</g>
<!-- n18 -->
<g id="node18" class="node"><title>n18</title>
<polygon fill="none" stroke="red" points="2154.1,-210 1937.1,-210 1937.1,-174 2154.1,-174 2154.1,-210"/>
<text text-anchor="middle" x="2045.6" y="-188.3" font-family="Times New Roman,serif" font-size="14.00">componentType has exactly 1 value</text>
</g>
<!-- n18&#45;&gt;n17 -->
<g id="edge17" class="edge"><title>n18&#45;&gt;n17</title>
<path fill="none" stroke="red" d="M2003.15,-173.901C1969.46,-160.328 1922.21,-141.295 1886.31,-126.832"/>
<polygon fill="red" stroke="red" points="1887.56,-123.562 1876.97,-123.071 1884.94,-130.055 1887.56,-123.562"/>
<text text-anchor="middle" x="1976.1" y="-144.8" font-family="Times New Roman,serif" font-size="14.00">restricts</text>
</g>
<!-- n19 -->
<g id="node19" class="node"><title>n19</title>
<ellipse fill="blue" stroke="black" cx="2885.6" cy="-105" rx="90.9839" ry="18"/>
<text text-anchor="middle" x="2885.6" y="-101.3" font-family="Times New Roman,serif" font-size="14.00" fill="white">SourceGlobalVariable</text>
</g>
<!-- n19&#45;&gt;n11 -->
<g id="edge19" class="edge"><title>n19&#45;&gt;n11</title>
<path fill="none" stroke="black" d="M2938.5,-90.2488C2992.35,-76.251 3076.33,-54.4203 3137.15,-38.6114"/>
<polygon fill="black" stroke="black" points="3138.28,-41.9328 3147.08,-36.0295 3136.52,-35.1579 3138.28,-41.9328"/>
<text text-anchor="middle" x="3078.1" y="-57.8" font-family="Times New Roman,serif" font-size="14.00">is a</text>
</g>
<!-- n19&#45;&gt;n19 -->
<g id="edge18" class="edge"><title>n19&#45;&gt;n19</title>
<path fill="none" stroke="#00cd00" d="M2968.76,-112.442C2983.94,-111.5 2994.59,-109.02 2994.59,-105 2994.59,-101.954 2988.47,-99.7916 2978.9,-98.5128"/>
<polygon fill="#00cd00" stroke="#00cd00" points="2979.04,-95.0104 2968.76,-97.5576 2978.38,-101.98 2979.04,-95.0104"/>
<text text-anchor="middle" x="3019.09" y="-101.3" font-family="Times New Roman,serif" font-size="14.00">identifier</text>
</g>
<!-- n20 -->
<g id="node20" class="node"><title>n20</title>
<ellipse fill="blue" stroke="black" cx="297.595" cy="-366" rx="33.5952" ry="18"/>
<text text-anchor="middle" x="297.595" y="-362.3" font-family="Times New Roman,serif" font-size="14.00" fill="white">author</text>
</g>
<!-- n20&#45;&gt;n2 -->
<g id="edge20" class="edge"><title>n20&#45;&gt;n2</title>
<path fill="none" stroke="#00cd00" d="M292.41,-348.211C288.738,-337.982 283.124,-325.001 275.595,-315 272.68,-311.128 269.257,-307.408 265.645,-303.934"/>
<polygon fill="#00cd00" stroke="#00cd00" points="267.859,-301.219 258.065,-297.177 263.201,-306.444 267.859,-301.219"/>
<text text-anchor="middle" x="327.095" y="-318.8" font-family="Times New Roman,serif" font-size="14.00">subPropertyOf</text>
</g>
<!-- n39 -->
<g id="node39" class="node"><title>n39</title>
<g id="a_node39"><a xlink:href="file:///C:/Users/200001866/Documents/GitHub/RACK/RACK-Ontology/Graphs/PROV-S.owl.svg" xlink:title="provs:ACTIVITY">
<polygon fill="#00008b" stroke="black" points="2290.6,-210 2172.6,-210 2172.6,-174 2290.6,-174 2290.6,-210"/>
<text text-anchor="middle" x="2231.6" y="-188.3" font-family="Times New Roman,serif" font-size="14.00" fill="white">provs:ACTIVITY</text>
</a>
</g>
</g>
<!-- n21&#45;&gt;n39 -->
<g id="edge49" class="edge"><title>n21&#45;&gt;n39</title>
<path fill="none" stroke="#00cd00" d="M1967.76,-269.539C2012.96,-256.425 2101.18,-230.834 2163.12,-212.865"/>
<polygon fill="#00cd00" stroke="#00cd00" points="2164.2,-216.197 2172.83,-210.049 2162.25,-209.474 2164.2,-216.197"/>
<text text-anchor="middle" x="2115.6" y="-231.8" font-family="Times New Roman,serif" font-size="14.00">step</text>
</g>
<!-- n23 -->
<g id="node23" class="node"><title>n23</title>
<g id="a_node23"><a xlink:href="file:///C:/Users/200001866/Documents/GitHub/RACK/RACK-Ontology/Graphs/PROV-S.owl.svg" xlink:title="provs:THING">
<polygon fill="#00008b" stroke="black" points="3156.1,-123 3061.1,-123 3061.1,-87 3156.1,-87 3156.1,-123"/>
<text text-anchor="middle" x="3108.6" y="-101.3" font-family="Times New Roman,serif" font-size="14.00" fill="white">provs:THING</text>
</a>
</g>
</g>
<!-- n23&#45;&gt;n11 -->
<g id="edge23" class="edge"><title>n23&#45;&gt;n11</title>
<path fill="none" stroke="blue" stroke-dasharray="5,2" d="M3123.21,-86.7538C3132.26,-76.6026 3144.45,-63.863 3156.6,-54 3161.92,-49.6775 3167.81,-45.4647 3173.71,-41.5462"/>
<polygon fill="blue" stroke="blue" points="3175.78,-44.3803 3182.31,-36.0372 3172,-38.4871 3175.78,-44.3803"/>
<text text-anchor="middle" x="3182.6" y="-57.8" font-family="Times New Roman,serif" font-size="14.00">subClass</text>
</g>
<!-- n24 -->
<g id="node24" class="node"><title>n24</title>
<ellipse fill="blue" stroke="black" cx="3212.6" cy="-105" rx="38.1938" ry="18"/>
<text text-anchor="middle" x="3212.6" y="-101.3" font-family="Times New Roman,serif" font-size="14.00" fill="white">Module</text>
</g>
<!-- n24&#45;&gt;n11 -->
<g id="edge25" class="edge"><title>n24&#45;&gt;n11</title>
<path fill="none" stroke="black" d="M3212.6,-86.799C3212.6,-75.1626 3212.6,-59.5479 3212.6,-46.2368"/>
<polygon fill="black" stroke="black" points="3216.1,-46.1754 3212.6,-36.1754 3209.1,-46.1755 3216.1,-46.1754"/>
<text text-anchor="middle" x="3222.1" y="-57.8" font-family="Times New Roman,serif" font-size="14.00">is a</text>
</g>
<!-- n24&#45;&gt;n24 -->
<g id="edge24" class="edge"><title>n24&#45;&gt;n24</title>
<path fill="none" stroke="#00cd00" d="M3247.26,-112.873C3259.25,-112.956 3268.94,-110.332 3268.94,-105 3268.94,-101.334 3264.36,-98.9483 3257.6,-97.8421"/>
<polygon fill="#00cd00" stroke="#00cd00" points="3257.48,-94.3251 3247.26,-97.1269 3256.99,-101.308 3257.48,-94.3251"/>
<text text-anchor="middle" x="3293.44" y="-101.3" font-family="Times New Roman,serif" font-size="14.00">identifier</text>
</g>
<!-- n25 -->
<g id="node25" class="node"><title>n25</title>
<ellipse fill="blue" stroke="black" cx="3402.6" cy="-105" rx="66.0889" ry="18"/>
<text text-anchor="middle" x="3402.6" y="-101.3" font-family="Times New Roman,serif" font-size="14.00" fill="white">BinaryFunction</text>
</g>
<!-- n25&#45;&gt;n11 -->
<g id="edge27" class="edge"><title>n25&#45;&gt;n11</title>
<path fill="none" stroke="black" d="M3369.5,-89.1941C3339.28,-75.6728 3294.24,-55.5273 3260.17,-40.2817"/>
<polygon fill="black" stroke="black" points="3261.42,-37.01 3250.87,-36.1211 3258.56,-43.3997 3261.42,-37.01"/>
<text text-anchor="middle" x="3328.1" y="-57.8" font-family="Times New Roman,serif" font-size="14.00">is a</text>
</g>
<!-- n25&#45;&gt;n25 -->
<g id="edge26" class="edge"><title>n25&#45;&gt;n25</title>
<path fill="none" stroke="#00cd00" d="M3462.83,-112.701C3476.7,-112.038 3486.89,-109.471 3486.89,-105 3486.89,-101.717 3481.39,-99.4602 3472.98,-98.2303"/>
<polygon fill="#00cd00" stroke="#00cd00" points="3473.11,-94.7273 3462.83,-97.2985 3472.47,-101.698 3473.11,-94.7273"/>
<text text-anchor="middle" x="3511.39" y="-101.3" font-family="Times New Roman,serif" font-size="14.00">identifier</text>
</g>
<!-- n26&#45;&gt;n16 -->
<g id="edge42" class="edge"><title>n26&#45;&gt;n16</title>
<path fill="none" stroke="#00cd00" d="M1770.65,-260.966C1775.89,-255.832 1780.75,-249.745 1783.6,-243 1787.22,-234.416 1784.27,-225.717 1778.9,-218.033"/>
<polygon fill="#00cd00" stroke="#00cd00" points="1781.41,-215.583 1772.31,-210.149 1776.04,-220.069 1781.41,-215.583"/>
<text text-anchor="middle" x="1819.6" y="-231.8" font-family="Times New Roman,serif" font-size="14.00">governedBy</text>
</g>
<!-- n26&#45;&gt;n16 -->
<g id="edge45" class="edge"><title>n26&#45;&gt;n16</title>
<path fill="none" stroke="#00cd00" d="M1730.08,-260.98C1722.55,-251.563 1716.35,-239.473 1720.6,-228 1721.83,-224.672 1723.53,-221.446 1725.51,-218.388"/>
<polygon fill="#00cd00" stroke="#00cd00" points="1728.41,-220.356 1731.64,-210.264 1722.82,-216.14 1728.41,-220.356"/>
<text text-anchor="middle" x="1750.1" y="-231.8" font-family="Times New Roman,serif" font-size="14.00">referenced</text>
</g>
<!-- n41 -->
<g id="node41" class="node"><title>n41</title>
<g id="a_node41"><a xlink:href="file:///C:/Users/200001866/Documents/GitHub/RACK/RACK-Ontology/Graphs/PROV-S.owl.svg" xlink:title="provs:AGENT">
<polygon fill="#00008b" stroke="black" points="1919.1,-210 1820.1,-210 1820.1,-174 1919.1,-174 1919.1,-210"/>
<text text-anchor="middle" x="1869.6" y="-188.3" font-family="Times New Roman,serif" font-size="14.00" fill="white">provs:AGENT</text>
</a>
</g>
</g>
<!-- n26&#45;&gt;n41 -->
<g id="edge54" class="edge"><title>n26&#45;&gt;n41</title>
<path fill="none" stroke="#00cd00" d="M1829.84,-262.468C1840.22,-257.628 1849.88,-251.291 1857.6,-243 1863.32,-236.841 1866.46,-228.443 1868.14,-220.288"/>
<polygon fill="#00cd00" stroke="#00cd00" points="1871.62,-220.67 1869.57,-210.275 1864.69,-219.68 1871.62,-220.67"/>
<text text-anchor="middle" x="1884.6" y="-231.8" font-family="Times New Roman,serif" font-size="14.00">author</text>
</g>
<!-- n27 -->
<g id="node27" class="node"><title>n27</title>
<ellipse fill="blue" stroke="black" cx="3629.6" cy="-105" rx="75.2868" ry="18"/>
<text text-anchor="middle" x="3629.6" y="-101.3" font-family="Times New Roman,serif" font-size="14.00" fill="white">BinaryBasicBlock</text>
</g>
<!-- n27&#45;&gt;n11 -->
<g id="edge30" class="edge"><title>n27&#45;&gt;n11</title>
<path fill="none" stroke="black" d="M3574.22,-92.7127C3503.01,-78.1969 3378.68,-52.8545 3296,-36.0006"/>
<polygon fill="black" stroke="black" points="3296.63,-32.5565 3286.13,-33.9886 3295.23,-39.4155 3296.63,-32.5565"/>
<text text-anchor="middle" x="3455.1" y="-57.8" font-family="Times New Roman,serif" font-size="14.00">is a</text>
</g>
<!-- n27&#45;&gt;n27 -->
<g id="edge29" class="edge"><title>n27&#45;&gt;n27</title>
<path fill="none" stroke="#00cd00" d="M3698.01,-112.621C3712.51,-111.847 3722.99,-109.307 3722.99,-105 3722.99,-101.77 3717.1,-99.5336 3708.03,-98.2909"/>
<polygon fill="#00cd00" stroke="#00cd00" points="3708.29,-94.7996 3698.01,-97.3793 3707.65,-101.771 3708.29,-94.7996"/>
<text text-anchor="middle" x="3747.49" y="-101.3" font-family="Times New Roman,serif" font-size="14.00">identifier</text>
</g>
<!-- n28 -->
<g id="node28" class="node"><title>n28</title>
<ellipse fill="blue" stroke="black" cx="3842.6" cy="-105" rx="52.7911" ry="18"/>
<text text-anchor="middle" x="3842.6" y="-101.3" font-family="Times New Roman,serif" font-size="14.00" fill="white">Namespace</text>
</g>
<!-- n28&#45;&gt;n11 -->
<g id="edge32" class="edge"><title>n28&#45;&gt;n11</title>
<path fill="none" stroke="black" d="M3804.44,-92.5835C3796.6,-90.5087 3788.37,-88.5229 3780.6,-87 3610.23,-53.6381 3407.71,-34.1329 3296.37,-25.1153"/>
<polygon fill="black" stroke="black" points="3296.46,-21.6114 3286.21,-24.3013 3295.9,-28.589 3296.46,-21.6114"/>
<text text-anchor="middle" x="3682.1" y="-57.8" font-family="Times New Roman,serif" font-size="14.00">is a</text>
</g>
<!-- n28&#45;&gt;n28 -->
<g id="edge31" class="edge"><title>n28&#45;&gt;n28</title>
<path fill="none" stroke="#00cd00" d="M3890.14,-112.827C3903.23,-112.449 3913.24,-109.84 3913.24,-105 3913.24,-101.521 3908.07,-99.1952 3900.3,-98.0215"/>
<polygon fill="#00cd00" stroke="#00cd00" points="3900.4,-94.5173 3890.14,-97.1731 3899.81,-101.493 3900.4,-94.5173"/>
<text text-anchor="middle" x="3937.74" y="-101.3" font-family="Times New Roman,serif" font-size="14.00">identifier</text>
</g>
<!-- n29 -->
<g id="node29" class="node"><title>n29</title>
<ellipse fill="blue" stroke="black" cx="757.595" cy="-366" rx="58.4896" ry="18"/>
<text text-anchor="middle" x="757.595" y="-362.3" font-family="Times New Roman,serif" font-size="14.00" fill="white">compileInput</text>
</g>
<!-- n29&#45;&gt;n6 -->
<g id="edge33" class="edge"><title>n29&#45;&gt;n6</title>
<path fill="none" stroke="#00cd00" d="M763.766,-347.795C767.892,-337.659 773.962,-324.92 781.595,-315 784.577,-311.125 788.05,-307.373 791.689,-303.856"/>
<polygon fill="#00cd00" stroke="#00cd00" points="794.206,-306.3 799.288,-297.003 789.518,-301.101 794.206,-306.3"/>
<text text-anchor="middle" x="824.095" y="-318.8" font-family="Times New Roman,serif" font-size="14.00">subPropertyOf</text>
</g>
<!-- n30 -->
<g id="node30" class="node"><title>n30</title>
<ellipse fill="blue" stroke="black" cx="888.595" cy="-366" rx="54.6905" ry="18"/>
<text text-anchor="middle" x="888.595" y="-362.3" font-family="Times New Roman,serif" font-size="14.00" fill="white">governedBy</text>
</g>
<!-- n30&#45;&gt;n6 -->
<g id="edge34" class="edge"><title>n30&#45;&gt;n6</title>
<path fill="none" stroke="#00cd00" d="M883.323,-347.682C879.677,-337.506 874.122,-324.765 866.595,-315 863.4,-310.854 859.612,-306.91 855.621,-303.264"/>
<polygon fill="#00cd00" stroke="#00cd00" points="857.693,-300.432 847.797,-296.646 853.172,-305.776 857.693,-300.432"/>
<text text-anchor="middle" x="918.095" y="-318.8" font-family="Times New Roman,serif" font-size="14.00">subPropertyOf</text>
</g>
<!-- n31&#45;&gt;n36 -->
<g id="edge41" class="edge"><title>n31&#45;&gt;n36</title>
<path fill="none" stroke="#00cd00" d="M1403.04,-264.054C1375.99,-254.88 1345.54,-244.327 1344.6,-243 1332.7,-226.227 1353.21,-213.324 1375.48,-204.829"/>
<polygon fill="#00cd00" stroke="#00cd00" points="1376.78,-208.083 1385.05,-201.46 1374.45,-201.481 1376.78,-208.083"/>
<text text-anchor="middle" x="1382.6" y="-231.8" font-family="Times New Roman,serif" font-size="14.00">packageInput</text>
</g>
<!-- n31&#45;&gt;n37 -->
<g id="edge51" class="edge"><title>n31&#45;&gt;n37</title>
<path fill="none" stroke="#00cd00" d="M1439.18,-260.948C1436.95,-250.361 1436.33,-237.088 1443.6,-228 1456.93,-211.313 1510.86,-202.007 1551.39,-197.258"/>
<polygon fill="#00cd00" stroke="#00cd00" points="1551.82,-200.732 1561.37,-196.147 1551.04,-193.775 1551.82,-200.732"/>
<text text-anchor="middle" x="1478.6" y="-231.8" font-family="Times New Roman,serif" font-size="14.00">packagedBy</text>
</g>
<!-- n32 -->
<g id="node32" class="node"><title>n32</title>
<polygon fill="none" stroke="red" points="1516.6,-384 1076.6,-384 1076.6,-348 1516.6,-348 1516.6,-384"/>
<text text-anchor="middle" x="1296.6" y="-362.3" font-family="Times New Roman,serif" font-size="14.00">some values of performedBy from (one of {PERSON,ORGANIZATION})</text>
</g>
<!-- n32&#45;&gt;n31 -->
<g id="edge36" class="edge"><title>n32&#45;&gt;n31</title>
<path fill="none" stroke="red" d="M1291.94,-347.805C1290.15,-337.161 1290.08,-323.878 1297.6,-315 1323.79,-284.074 1348.12,-304.695 1393.07,-296.581"/>
<polygon fill="red" stroke="red" points="1393.98,-299.965 1402.99,-294.384 1392.46,-293.13 1393.98,-299.965"/>
<text text-anchor="middle" x="1320.1" y="-318.8" font-family="Times New Roman,serif" font-size="14.00">restricts</text>
</g>
<!-- n33 -->
<g id="node33" class="node"><title>n33</title>
<ellipse fill="blue" stroke="black" cx="4045.6" cy="-105" rx="65.7887" ry="18"/>
<text text-anchor="middle" x="4045.6" y="-101.3" font-family="Times New Roman,serif" font-size="14.00" fill="white">ClassDefinition</text>
</g>
<!-- n33&#45;&gt;n11 -->
<g id="edge38" class="edge"><title>n33&#45;&gt;n11</title>
<path fill="none" stroke="black" d="M3998.38,-92.3613C3989.51,-90.4016 3980.3,-88.5151 3971.6,-87 3728.57,-44.6808 3436.91,-27.9344 3296.39,-21.9589"/>
<polygon fill="black" stroke="black" points="3296.26,-18.4507 3286.13,-21.5303 3295.97,-25.4446 3296.26,-18.4507"/>
<text text-anchor="middle" x="3857.1" y="-57.8" font-family="Times New Roman,serif" font-size="14.00">is a</text>
</g>
<!-- n33&#45;&gt;n33 -->
<g id="edge37" class="edge"><title>n33&#45;&gt;n33</title>
<path fill="none" stroke="#00cd00" d="M4104.99,-112.719C4118.94,-112.085 4129.24,-109.512 4129.24,-105 4129.24,-101.687 4123.69,-99.4189 4115.21,-98.1967"/>
<polygon fill="#00cd00" stroke="#00cd00" points="4115.26,-94.6873 4104.99,-97.2807 4114.64,-101.659 4115.26,-94.6873"/>
<text text-anchor="middle" x="4153.74" y="-101.3" font-family="Times New Roman,serif" font-size="14.00">identifier</text>
</g>
<!-- n34 -->
<g id="node34" class="node"><title>n34</title>
<ellipse fill="blue" stroke="black" cx="1009.6" cy="-366" rx="48.9926" ry="18"/>
<text text-anchor="middle" x="1009.6" y="-362.3" font-family="Times New Roman,serif" font-size="14.00" fill="white">referenced</text>
</g>
<!-- n34&#45;&gt;n6 -->
<g id="edge39" class="edge"><title>n34&#45;&gt;n6</title>
<path fill="none" stroke="#00cd00" d="M998.538,-348.204C990.416,-337.166 978.42,-323.284 964.595,-315 941.33,-301.06 912.756,-292.659 887.355,-287.602"/>
<polygon fill="#00cd00" stroke="#00cd00" points="887.898,-284.143 877.427,-285.76 886.621,-291.026 887.898,-284.143"/>
<text text-anchor="middle" x="1026.1" y="-318.8" font-family="Times New Roman,serif" font-size="14.00">subPropertyOf</text>
</g>
<!-- n35 -->
<g id="node35" class="node"><title>n35</title>
<ellipse fill="blue" stroke="black" cx="405.595" cy="-366" rx="55.7903" ry="18"/>
<text text-anchor="middle" x="405.595" y="-362.3" font-family="Times New Roman,serif" font-size="14.00" fill="white">packagedBy</text>
</g>
<!-- n35&#45;&gt;n2 -->
<g id="edge40" class="edge"><title>n35&#45;&gt;n2</title>
<path fill="none" stroke="#00cd00" d="M398.595,-347.733C393.296,-336.781 384.976,-323.181 373.595,-315 360.623,-305.676 345.427,-298.825 329.92,-293.794"/>
<polygon fill="#00cd00" stroke="#00cd00" points="330.826,-290.412 320.242,-290.891 328.815,-297.117 330.826,-290.412"/>
<text text-anchor="middle" x="431.095" y="-318.8" font-family="Times New Roman,serif" font-size="14.00">subPropertyOf</text>
</g>
<!-- n40 -->
<g id="node40" class="node"><title>n40</title>
<polygon fill="#00008b" stroke="black" points="2368.1,-297 2111.1,-297 2111.1,-261 2368.1,-261 2368.1,-297"/>
<text text-anchor="middle" x="2239.6" y="-275.3" font-family="Times New Roman,serif" font-size="14.00" fill="white">CODE_GEN or COMPILE or PACKAGE</text>
</g>
<!-- n40&#45;&gt;n41 -->
<g id="edge52" class="edge"><title>n40&#45;&gt;n41</title>
<path fill="none" stroke="#00cd00" d="M2209.93,-260.855C2188.8,-249.51 2159.34,-235.405 2131.6,-228 2046.75,-205.356 2018.98,-225.367 1929.18,-210.032"/>
<polygon fill="#00cd00" stroke="#00cd00" points="1929.58,-206.547 1919.11,-208.211 1928.33,-213.435 1929.58,-206.547"/>
<text text-anchor="middle" x="2209.1" y="-231.8" font-family="Times New Roman,serif" font-size="14.00">performedBy</text>
</g>
</g>
</svg>
