<?xml version="1.0" encoding="UTF-8" standalone="no"?>
<!DOCTYPE svg PUBLIC "-//W3C//DTD SVG 1.1//EN"
 "http://www.w3.org/Graphics/SVG/1.1/DTD/svg11.dtd">
<!-- Generated by graphviz version 2.38.0 (20140413.2041)
 -->
<!-- Title: gsw Pages: 1 -->
<svg width="5593pt" height="589pt"
 viewBox="0.00 0.00 5592.50 589.00" xmlns="http://www.w3.org/2000/svg" xmlns:xlink="http://www.w3.org/1999/xlink">
<g id="graph0" class="graph" transform="scale(1 1) rotate(0) translate(4 585)">
<title>gsw</title>
<polygon fill="white" stroke="none" points="-4,4 -4,-585 5588.5,-585 5588.5,4 -4,4"/>
<text text-anchor="middle" x="85" y="-565.8" font-family="Times New Roman,serif" font-size="14.00">Graph of Ontology File: sw</text>
<!-- n1 -->
<g id="node1" class="node"><title>n1</title>
<ellipse fill="blue" stroke="black" cx="3783.5" cy="-540" rx="39.7935" ry="18"/>
<text text-anchor="middle" x="3783.5" y="-536.3" font-family="Times New Roman,serif" font-size="14.00" fill="white">satisfies</text>
</g>
<!-- n2 -->
<g id="node2" class="node"><title>n2</title>
<g id="a_node2"><a xlink:href="file:///C:/Sadl3Workspace4/RACK-Ontology-7-29/Graphs/PROV-S.owl.svg" xlink:title="provs:wasDerivedFrom">
<polygon fill="none" stroke="#00cd00" points="3941.73,-445.544 3941.73,-460.456 3880.68,-471 3794.32,-471 3733.27,-460.456 3733.27,-445.544 3794.32,-435 3880.68,-435 3941.73,-445.544"/>
<text text-anchor="middle" x="3837.5" y="-449.3" font-family="Times New Roman,serif" font-size="14.00">provs:wasDerivedFrom</text>
</a>
</g>
</g>
<!-- n1&#45;&gt;n2 -->
<g id="edge1" class="edge"><title>n1&#45;&gt;n2</title>
<path fill="none" stroke="#00cd00" d="M3780.03,-521.77C3778.88,-511.625 3779.05,-498.886 3784.5,-489 3786.84,-484.757 3789.93,-480.939 3793.46,-477.525"/>
<polygon fill="#00cd00" stroke="#00cd00" points="3795.75,-480.171 3801.2,-471.081 3791.27,-474.793 3795.75,-480.171"/>
<text text-anchor="middle" x="3827" y="-492.8" font-family="Times New Roman,serif" font-size="14.00">subPropertyOf</text>
</g>
<!-- n3 -->
<g id="node3" class="node"><title>n3</title>
<ellipse fill="blue" stroke="black" cx="4058.5" cy="-540" rx="27" ry="18"/>
<text text-anchor="middle" x="4058.5" y="-536.3" font-family="Times New Roman,serif" font-size="14.00" fill="white">step</text>
</g>
<!-- n4 -->
<g id="node4" class="node"><title>n4</title>
<g id="a_node4"><a xlink:href="file:///C:/Sadl3Workspace4/RACK-Ontology-7-29/Graphs/PROV-S.owl.svg" xlink:title="provs:wasInformedBy">
<polygon fill="none" stroke="#00cd00" points="4157.89,-445.544 4157.89,-460.456 4099.67,-471 4017.33,-471 3959.11,-460.456 3959.11,-445.544 4017.33,-435 4099.67,-435 4157.89,-445.544"/>
<text text-anchor="middle" x="4058.5" y="-449.3" font-family="Times New Roman,serif" font-size="14.00">provs:wasInformedBy</text>
</a>
</g>
</g>
<!-- n3&#45;&gt;n4 -->
<g id="edge2" class="edge"><title>n3&#45;&gt;n4</title>
<path fill="none" stroke="#00cd00" d="M4058.5,-521.799C4058.5,-510.163 4058.5,-494.548 4058.5,-481.237"/>
<polygon fill="#00cd00" stroke="#00cd00" points="4062,-481.175 4058.5,-471.175 4055,-481.175 4062,-481.175"/>
<text text-anchor="middle" x="4101" y="-492.8" font-family="Times New Roman,serif" font-size="14.00">subPropertyOf</text>
</g>
<!-- n5 -->
<g id="node5" class="node"><title>n5</title>
<g id="a_node5"><a xlink:href="file:///C:/Sadl3Workspace4/RACK-Ontology-7-29/Graphs/PROV-S.owl.svg" xlink:title="provs:ACTIVITY">
<polygon fill="#00008b" stroke="black" points="4412.5,-471 4294.5,-471 4294.5,-435 4412.5,-435 4412.5,-471"/>
<text text-anchor="middle" x="4353.5" y="-449.3" font-family="Times New Roman,serif" font-size="14.00" fill="white">provs:ACTIVITY</text>
</a>
</g>
</g>
<!-- n6 -->
<g id="node6" class="node"><title>n6</title>
<polygon fill="#00008b" stroke="black" points="4218.5,-384 4140.5,-384 4140.5,-348 4218.5,-348 4218.5,-384"/>
<text text-anchor="middle" x="4179.5" y="-362.3" font-family="Times New Roman,serif" font-size="14.00" fill="white">COMPILE</text>
</g>
<!-- n5&#45;&gt;n6 -->
<g id="edge3" class="edge"><title>n5&#45;&gt;n6</title>
<path fill="none" stroke="blue" stroke-dasharray="5,2" d="M4294.15,-444.872C4255.99,-439.165 4210.95,-429.96 4196.5,-417 4189.9,-411.08 4185.86,-402.5 4183.39,-394.113"/>
<polygon fill="blue" stroke="blue" points="4186.75,-393.122 4181.09,-384.171 4179.93,-394.703 4186.75,-393.122"/>
<text text-anchor="middle" x="4222.5" y="-405.8" font-family="Times New Roman,serif" font-size="14.00">subClass</text>
</g>
<!-- n20 -->
<g id="node20" class="node"><title>n20</title>
<polygon fill="#00008b" stroke="black" points="4303.5,-384 4245.5,-384 4245.5,-348 4303.5,-348 4303.5,-384"/>
<text text-anchor="middle" x="4274.5" y="-362.3" font-family="Times New Roman,serif" font-size="14.00" fill="white">BUILD</text>
</g>
<!-- n5&#45;&gt;n20 -->
<g id="edge18" class="edge"><title>n5&#45;&gt;n20</title>
<path fill="none" stroke="blue" stroke-dasharray="5,2" d="M4294.37,-443.442C4279.26,-438.285 4264.71,-430.069 4255.5,-417 4250.45,-409.83 4251.71,-401.145 4255.31,-393.038"/>
<polygon fill="blue" stroke="blue" points="4258.4,-394.689 4260.17,-384.243 4252.27,-391.307 4258.4,-394.689"/>
<text text-anchor="middle" x="4281.5" y="-405.8" font-family="Times New Roman,serif" font-size="14.00">subClass</text>
</g>
<!-- n26 -->
<g id="node26" class="node"><title>n26</title>
<polygon fill="#00008b" stroke="black" points="4417,-384 4326,-384 4326,-348 4417,-348 4417,-384"/>
<text text-anchor="middle" x="4371.5" y="-362.3" font-family="Times New Roman,serif" font-size="14.00" fill="white">CODE_GEN</text>
</g>
<!-- n5&#45;&gt;n26 -->
<g id="edge23" class="edge"><title>n5&#45;&gt;n26</title>
<path fill="none" stroke="blue" stroke-dasharray="5,2" d="M4357.14,-434.799C4359.61,-423.163 4362.91,-407.548 4365.73,-394.237"/>
<polygon fill="blue" stroke="blue" points="4369.22,-394.684 4367.86,-384.175 4362.37,-393.233 4369.22,-394.684"/>
<text text-anchor="middle" x="4390.5" y="-405.8" font-family="Times New Roman,serif" font-size="14.00">subClass</text>
</g>
<!-- n30 -->
<g id="node30" class="node"><title>n30</title>
<polygon fill="#00008b" stroke="black" points="4599.5,-384 4435.5,-384 4435.5,-348 4599.5,-348 4599.5,-384"/>
<text text-anchor="middle" x="4517.5" y="-362.3" font-family="Times New Roman,serif" font-size="14.00" fill="white">CODE_DEVELOPMENT</text>
</g>
<!-- n5&#45;&gt;n30 -->
<g id="edge28" class="edge"><title>n5&#45;&gt;n30</title>
<path fill="none" stroke="blue" stroke-dasharray="5,2" d="M4386.69,-434.799C4412.34,-421.506 4448,-403.021 4475.61,-388.71"/>
<polygon fill="blue" stroke="blue" points="4477.37,-391.739 4484.64,-384.03 4474.15,-385.524 4477.37,-391.739"/>
<text text-anchor="middle" x="4471.5" y="-405.8" font-family="Times New Roman,serif" font-size="14.00">subClass</text>
</g>
<!-- n37 -->
<g id="node37" class="node"><title>n37</title>
<polygon fill="#00008b" stroke="black" points="5245,-384 5162,-384 5162,-348 5245,-348 5245,-384"/>
<text text-anchor="middle" x="5203.5" y="-362.3" font-family="Times New Roman,serif" font-size="14.00" fill="white">PACKAGE</text>
</g>
<!-- n5&#45;&gt;n37 -->
<g id="edge35" class="edge"><title>n5&#45;&gt;n37</title>
<path fill="none" stroke="blue" stroke-dasharray="5,2" d="M4412.52,-447.788C4578.95,-435.802 5046.17,-401.36 5151.89,-383.607"/>
<polygon fill="blue" stroke="blue" points="5152.78,-387.001 5161.97,-381.734 5151.5,-380.119 5152.78,-387.001"/>
<text text-anchor="middle" x="5007.5" y="-405.8" font-family="Times New Roman,serif" font-size="14.00">subClass</text>
</g>
<!-- n7 -->
<g id="node7" class="node"><title>n7</title>
<ellipse fill="blue" stroke="black" cx="4680.5" cy="-540" rx="59.2899" ry="18"/>
<text text-anchor="middle" x="4680.5" y="-536.3" font-family="Times New Roman,serif" font-size="14.00" fill="white">performedBy</text>
</g>
<!-- n8 -->
<g id="node8" class="node"><title>n8</title>
<g id="a_node8"><a xlink:href="file:///C:/Sadl3Workspace4/RACK-Ontology-7-29/Graphs/PROV-S.owl.svg" xlink:title="provs:wasAssociatedWith">
<polygon fill="none" stroke="#00cd00" points="4850.34,-445.544 4850.34,-460.456 4783.07,-471 4687.93,-471 4620.66,-460.456 4620.66,-445.544 4687.93,-435 4783.07,-435 4850.34,-445.544"/>
<text text-anchor="middle" x="4735.5" y="-449.3" font-family="Times New Roman,serif" font-size="14.00">provs:wasAssociatedWith</text>
</a>
</g>
</g>
<!-- n7&#45;&gt;n8 -->
<g id="edge4" class="edge"><title>n7&#45;&gt;n8</title>
<path fill="none" stroke="#00cd00" d="M4678.33,-521.707C4677.89,-511.539 4678.83,-498.798 4684.5,-489 4686.93,-484.806 4690.08,-481.003 4693.64,-477.583"/>
<polygon fill="#00cd00" stroke="#00cd00" points="4695.96,-480.204 4701.38,-471.101 4691.46,-474.837 4695.96,-480.204"/>
<text text-anchor="middle" x="4727" y="-492.8" font-family="Times New Roman,serif" font-size="14.00">subPropertyOf</text>
</g>
<!-- n9 -->
<g id="node9" class="node"><title>n9</title>
<ellipse fill="blue" stroke="black" cx="4068.5" cy="-192" rx="83.3857" ry="18"/>
<text text-anchor="middle" x="4068.5" y="-188.3" font-family="Times New Roman,serif" font-size="14.00" fill="white">CLASS_METHOD</text>
</g>
<!-- n9&#45;&gt;n9 -->
<g id="edge5" class="edge"><title>n9&#45;&gt;n9</title>
<path fill="none" stroke="#00cd00" d="M4144.4,-199.525C4159.19,-198.651 4169.69,-196.143 4169.69,-192 4169.69,-188.893 4163.79,-186.705 4154.59,-185.437"/>
<polygon fill="#00cd00" stroke="#00cd00" points="4154.69,-181.931 4144.4,-184.475 4154.03,-188.9 4154.69,-181.931"/>
<text text-anchor="middle" x="4213.19" y="-188.3" font-family="Times New Roman,serif" font-size="14.00">identifier</text>
</g>
<!-- n10 -->
<g id="node10" class="node"><title>n10</title>
<polygon fill="#00008b" stroke="black" points="3060,-123 2913,-123 2913,-87 3060,-87 3060,-123"/>
<text text-anchor="middle" x="2986.5" y="-101.3" font-family="Times New Roman,serif" font-size="14.00" fill="white">COMPONENT_TYPE</text>
</g>
<!-- n9&#45;&gt;n10 -->
<g id="edge6" class="edge"><title>n9&#45;&gt;n10</title>
<path fill="none" stroke="black" d="M4009.76,-179.114C3998.74,-177.178 3987.3,-175.364 3976.5,-174 3642.34,-131.79 3241.17,-114.391 3070.24,-108.526"/>
<polygon fill="black" stroke="black" points="3070.17,-105.021 3060.05,-108.181 3069.93,-112.017 3070.17,-105.021"/>
<text text-anchor="middle" x="3825" y="-144.8" font-family="Times New Roman,serif" font-size="14.00">is a</text>
</g>
<!-- n11 -->
<g id="node11" class="node"><title>n11</title>
<g id="a_node11"><a xlink:href="file:///C:/Sadl3Workspace4/RACK-Ontology-7-29/Graphs/PROV-S.owl.svg" xlink:title="provs:AGENT">
<polygon fill="#00008b" stroke="black" points="5316,-297 5217,-297 5217,-261 5316,-261 5316,-297"/>
<text text-anchor="middle" x="5266.5" y="-275.3" font-family="Times New Roman,serif" font-size="14.00" fill="white">provs:AGENT</text>
</a>
</g>
</g>
<!-- n12 -->
<g id="node12" class="node"><title>n12</title>
<polygon fill="#00008b" stroke="black" points="5478.5,-210 5330.5,-210 5330.5,-174 5478.5,-174 5478.5,-210"/>
<text text-anchor="middle" x="5404.5" y="-188.3" font-family="Times New Roman,serif" font-size="14.00" fill="white">CODE_GENERATOR</text>
</g>
<!-- n11&#45;&gt;n12 -->
<g id="edge7" class="edge"><title>n11&#45;&gt;n12</title>
<path fill="none" stroke="blue" stroke-dasharray="5,2" d="M5294.43,-260.799C5315.56,-247.78 5344.78,-229.781 5367.81,-215.6"/>
<polygon fill="blue" stroke="blue" points="5369.94,-218.4 5376.62,-210.175 5366.27,-212.44 5369.94,-218.4"/>
<text text-anchor="middle" x="5369.5" y="-231.8" font-family="Times New Roman,serif" font-size="14.00">subClass</text>
</g>
<!-- n27 -->
<g id="node27" class="node"><title>n27</title>
<polygon fill="#00008b" stroke="black" points="5584.5,-210 5496.5,-210 5496.5,-174 5584.5,-174 5584.5,-210"/>
<text text-anchor="middle" x="5540.5" y="-188.3" font-family="Times New Roman,serif" font-size="14.00" fill="white">COMPILER</text>
</g>
<!-- n11&#45;&gt;n27 -->
<g id="edge24" class="edge"><title>n11&#45;&gt;n27</title>
<path fill="none" stroke="blue" stroke-dasharray="5,2" d="M5316.04,-266.008C5341.19,-259.659 5372.12,-251.441 5399.5,-243 5428.55,-234.044 5460.51,-222.825 5486.65,-213.285"/>
<polygon fill="blue" stroke="blue" points="5488.18,-216.451 5496.36,-209.719 5485.77,-209.88 5488.18,-216.451"/>
<text text-anchor="middle" x="5467.5" y="-231.8" font-family="Times New Roman,serif" font-size="14.00">subClass</text>
</g>
<!-- n45 -->
<g id="node45" class="node"><title>n45</title>
<polygon fill="#00008b" stroke="black" points="5312.5,-210 5220.5,-210 5220.5,-174 5312.5,-174 5312.5,-210"/>
<text text-anchor="middle" x="5266.5" y="-188.3" font-family="Times New Roman,serif" font-size="14.00" fill="white">PACKAGER</text>
</g>
<!-- n11&#45;&gt;n45 -->
<g id="edge47" class="edge"><title>n11&#45;&gt;n45</title>
<path fill="none" stroke="blue" stroke-dasharray="5,2" d="M5266.5,-260.799C5266.5,-249.163 5266.5,-233.548 5266.5,-220.237"/>
<polygon fill="blue" stroke="blue" points="5270,-220.175 5266.5,-210.175 5263,-220.175 5270,-220.175"/>
<text text-anchor="middle" x="5292.5" y="-231.8" font-family="Times New Roman,serif" font-size="14.00">subClass</text>
</g>
<!-- n13 -->
<g id="node13" class="node"><title>n13</title>
<ellipse fill="blue" stroke="black" cx="4387.5" cy="-192" rx="112.38" ry="18"/>
<text text-anchor="middle" x="4387.5" y="-188.3" font-family="Times New Roman,serif" font-size="14.00" fill="white">BINARY_BASIC_BLOCK</text>
</g>
<!-- n13&#45;&gt;n10 -->
<g id="edge9" class="edge"><title>n13&#45;&gt;n10</title>
<path fill="none" stroke="black" d="M4308.18,-179.229C4293.99,-177.327 4279.32,-175.495 4265.5,-174 3816.57,-125.42 3275.06,-111.124 3070.34,-107.289"/>
<polygon fill="black" stroke="black" points="3070.32,-103.788 3060.26,-107.103 3070.19,-110.787 3070.32,-103.788"/>
<text text-anchor="middle" x="4067" y="-144.8" font-family="Times New Roman,serif" font-size="14.00">is a</text>
</g>
<!-- n13&#45;&gt;n13 -->
<g id="edge8" class="edge"><title>n13&#45;&gt;n13</title>
<path fill="none" stroke="#00cd00" d="M4490.57,-199.235C4506.83,-198.164 4517.94,-195.753 4517.94,-192 4517.94,-189.097 4511.29,-186.997 4500.76,-185.699"/>
<polygon fill="#00cd00" stroke="#00cd00" points="4500.85,-182.193 4490.57,-184.765 4500.21,-189.163 4500.85,-182.193"/>
<text text-anchor="middle" x="4561.44" y="-188.3" font-family="Times New Roman,serif" font-size="14.00">identifier</text>
</g>
<!-- n14 -->
<g id="node14" class="node"><title>n14</title>
<ellipse fill="blue" stroke="black" cx="4761.5" cy="-192" rx="138.375" ry="18"/>
<text text-anchor="middle" x="4761.5" y="-188.3" font-family="Times New Roman,serif" font-size="14.00" fill="white">SOURCE_GLOBAL_VARIABLE</text>
</g>
<!-- n14&#45;&gt;n10 -->
<g id="edge11" class="edge"><title>n14&#45;&gt;n10</title>
<path fill="none" stroke="black" d="M4664.45,-179.114C4647.48,-177.247 4629.99,-175.456 4613.5,-174 4023.89,-121.921 3310.45,-109.544 3070.1,-106.763"/>
<polygon fill="black" stroke="black" points="3070.07,-103.262 3060.04,-106.649 3070,-110.262 3070.07,-103.262"/>
<text text-anchor="middle" x="4358" y="-144.8" font-family="Times New Roman,serif" font-size="14.00">is a</text>
</g>
<!-- n14&#45;&gt;n14 -->
<g id="edge10" class="edge"><title>n14&#45;&gt;n14</title>
<path fill="none" stroke="#00cd00" d="M4889.17,-198.986C4906.44,-197.815 4917.94,-195.486 4917.94,-192 4917.94,-189.249 4910.78,-187.219 4899.28,-185.909"/>
<polygon fill="#00cd00" stroke="#00cd00" points="4899.44,-182.41 4889.17,-185.014 4898.82,-189.383 4899.44,-182.41"/>
<text text-anchor="middle" x="4961.44" y="-188.3" font-family="Times New Roman,serif" font-size="14.00">identifier</text>
</g>
<!-- n15 -->
<g id="node15" class="node"><title>n15</title>
<g id="a_node15"><a xlink:href="file:///C:/Sadl3Workspace4/RACK-Ontology-7-29/Graphs/PROV-S.owl.svg" xlink:title="provs:ENTITY">
<polygon fill="#00008b" stroke="black" points="915.5,-297 813.5,-297 813.5,-261 915.5,-261 915.5,-297"/>
<text text-anchor="middle" x="864.5" y="-275.3" font-family="Times New Roman,serif" font-size="14.00" fill="white">provs:ENTITY</text>
</a>
</g>
</g>
<!-- n16 -->
<g id="node16" class="node"><title>n16</title>
<polygon fill="#00008b" stroke="black" points="5087,-123 4994,-123 4994,-87 5087,-87 5087,-123"/>
<text text-anchor="middle" x="5040.5" y="-101.3" font-family="Times New Roman,serif" font-size="14.00" fill="white">LANGUAGE</text>
</g>
<!-- n15&#45;&gt;n16 -->
<g id="edge12" class="edge"><title>n15&#45;&gt;n16</title>
<path fill="none" stroke="blue" stroke-dasharray="5,2" d="M915.84,-278.02C1386.01,-278.106 4928.92,-276.537 5013.5,-210 5036.23,-192.116 5041.33,-157.744 5041.82,-133.417"/>
<polygon fill="blue" stroke="blue" points="5045.32,-133.348 5041.78,-123.363 5038.32,-133.379 5045.32,-133.348"/>
<text text-anchor="middle" x="5062.5" y="-188.3" font-family="Times New Roman,serif" font-size="14.00">subClass</text>
</g>
<!-- n21 -->
<g id="node21" class="node"><title>n21</title>
<polygon fill="#00008b" stroke="black" points="790,-210 671,-210 671,-174 790,-174 790,-210"/>
<text text-anchor="middle" x="730.5" y="-188.3" font-family="Times New Roman,serif" font-size="14.00" fill="white">PACKAGE_FILE</text>
</g>
<!-- n15&#45;&gt;n21 -->
<g id="edge19" class="edge"><title>n15&#45;&gt;n21</title>
<path fill="none" stroke="blue" stroke-dasharray="5,2" d="M830.046,-260.947C819.723,-255.515 808.495,-249.277 798.5,-243 785.519,-234.847 771.792,-225.008 760.097,-216.223"/>
<polygon fill="blue" stroke="blue" points="762.058,-213.317 751.98,-210.051 757.822,-218.889 762.058,-213.317"/>
<text text-anchor="middle" x="824.5" y="-231.8" font-family="Times New Roman,serif" font-size="14.00">subClass</text>
</g>
<!-- n22 -->
<g id="node22" class="node"><title>n22</title>
<polygon fill="#00008b" stroke="black" points="271.5,-210 167.5,-210 167.5,-174 271.5,-174 271.5,-210"/>
<text text-anchor="middle" x="219.5" y="-188.3" font-family="Times New Roman,serif" font-size="14.00" fill="white">COMPONENT</text>
</g>
<!-- n15&#45;&gt;n22 -->
<g id="edge20" class="edge"><title>n15&#45;&gt;n22</title>
<path fill="none" stroke="blue" stroke-dasharray="5,2" d="M813.255,-277.812C700.061,-276.867 431.984,-271.583 346.5,-243 334.926,-239.13 334.482,-233.322 323.5,-228 310.198,-221.553 295.405,-215.799 281.247,-210.91"/>
<polygon fill="blue" stroke="blue" points="282.167,-207.527 271.573,-207.666 279.941,-214.164 282.167,-207.527"/>
<text text-anchor="middle" x="372.5" y="-231.8" font-family="Times New Roman,serif" font-size="14.00">subClass</text>
</g>
<!-- n32 -->
<g id="node32" class="node"><title>n32</title>
<polygon fill="#00008b" stroke="black" points="885,-210 808,-210 808,-174 885,-174 885,-210"/>
<text text-anchor="middle" x="846.5" y="-188.3" font-family="Times New Roman,serif" font-size="14.00" fill="white">LIBRARY</text>
</g>
<!-- n15&#45;&gt;n32 -->
<g id="edge31" class="edge"><title>n15&#45;&gt;n32</title>
<path fill="none" stroke="blue" stroke-dasharray="5,2" d="M860.857,-260.799C858.393,-249.163 855.087,-233.548 852.268,-220.237"/>
<polygon fill="blue" stroke="blue" points="855.633,-219.233 850.137,-210.175 848.785,-220.684 855.633,-219.233"/>
<text text-anchor="middle" x="883.5" y="-231.8" font-family="Times New Roman,serif" font-size="14.00">subClass</text>
</g>
<!-- n33 -->
<g id="node33" class="node"><title>n33</title>
<polygon fill="#00008b" stroke="black" points="1010,-210 903,-210 903,-174 1010,-174 1010,-210"/>
<text text-anchor="middle" x="956.5" y="-188.3" font-family="Times New Roman,serif" font-size="14.00" fill="white">EXECUTABLE</text>
</g>
<!-- n15&#45;&gt;n33 -->
<g id="edge32" class="edge"><title>n15&#45;&gt;n33</title>
<path fill="none" stroke="blue" stroke-dasharray="5,2" d="M890.828,-260.942C898.436,-255.557 906.554,-249.347 913.5,-243 921.741,-235.47 929.941,-226.423 936.938,-218.107"/>
<polygon fill="blue" stroke="blue" points="939.854,-220.069 943.489,-210.117 934.442,-215.631 939.854,-220.069"/>
<text text-anchor="middle" x="954.5" y="-231.8" font-family="Times New Roman,serif" font-size="14.00">subClass</text>
</g>
<!-- n36 -->
<g id="node36" class="node"><title>n36</title>
<polygon fill="#00008b" stroke="black" points="5202.5,-210 5110.5,-210 5110.5,-174 5202.5,-174 5202.5,-210"/>
<text text-anchor="middle" x="5156.5" y="-188.3" font-family="Times New Roman,serif" font-size="14.00" fill="white">CODE_FILE</text>
</g>
<!-- n15&#45;&gt;n36 -->
<g id="edge34" class="edge"><title>n15&#45;&gt;n36</title>
<path fill="none" stroke="blue" stroke-dasharray="5,2" d="M915.856,-277.923C1395.77,-277.166 5078.46,-270.462 5126.5,-243 5135.63,-237.78 5142.29,-228.56 5146.98,-219.448"/>
<polygon fill="blue" stroke="blue" points="5150.25,-220.716 5151.18,-210.162 5143.87,-217.833 5150.25,-220.716"/>
<text text-anchor="middle" x="5167.5" y="-231.8" font-family="Times New Roman,serif" font-size="14.00">subClass</text>
</g>
<!-- n39 -->
<g id="node39" class="node"><title>n39</title>
<polygon fill="#00008b" stroke="black" points="1133,-210 1028,-210 1028,-174 1133,-174 1133,-210"/>
<text text-anchor="middle" x="1080.5" y="-188.3" font-family="Times New Roman,serif" font-size="14.00" fill="white">OBJECT_FILE</text>
</g>
<!-- n15&#45;&gt;n39 -->
<g id="edge38" class="edge"><title>n15&#45;&gt;n39</title>
<path fill="none" stroke="blue" stroke-dasharray="5,2" d="M915.754,-265.435C937.308,-259.542 962.45,-251.858 984.5,-243 1004.07,-235.139 1024.93,-224.562 1042.19,-215.161"/>
<polygon fill="blue" stroke="blue" points="1044.31,-217.984 1051.37,-210.084 1040.93,-211.858 1044.31,-217.984"/>
<text text-anchor="middle" x="1043.5" y="-231.8" font-family="Times New Roman,serif" font-size="14.00">subClass</text>
</g>
<!-- n41 -->
<g id="node41" class="node"><title>n41</title>
<polygon fill="#00008b" stroke="black" points="1258,-210 1151,-210 1151,-174 1258,-174 1258,-210"/>
<text text-anchor="middle" x="1204.5" y="-188.3" font-family="Times New Roman,serif" font-size="14.00" fill="white">CONFIG_FILE</text>
</g>
<!-- n15&#45;&gt;n41 -->
<g id="edge41" class="edge"><title>n15&#45;&gt;n41</title>
<path fill="none" stroke="blue" stroke-dasharray="5,2" d="M915.79,-272.3C958.478,-266.87 1020.6,-257.371 1073.5,-243 1101.6,-235.366 1132.04,-223.949 1156.5,-213.951"/>
<polygon fill="blue" stroke="blue" points="1158.01,-217.117 1165.91,-210.057 1155.33,-210.649 1158.01,-217.117"/>
<text text-anchor="middle" x="1144.5" y="-231.8" font-family="Times New Roman,serif" font-size="14.00">subClass</text>
</g>
<!-- n47 -->
<g id="node47" class="node"><title>n47</title>
<g id="a_node47"><a xlink:href="file:///C:/Sadl3Workspace4/RACK-Ontology-7-29/Graphs/XMLSchema.svg" xlink:title="xsd:string">
<polygon fill="#00008b" stroke="black" points="349,-36 278,-36 278,-0 349,-0 349,-36"/>
<text text-anchor="middle" x="313.5" y="-14.3" font-family="Times New Roman,serif" font-size="14.00" fill="white">xsd:string</text>
</a>
</g>
</g>
<!-- n16&#45;&gt;n47 -->
<g id="edge58" class="edge"><title>n16&#45;&gt;n47</title>
<path fill="none" stroke="#00cd00" d="M4993.72,-103.159C4533.02,-94.8746 815.493,-28.0267 359.329,-19.8241"/>
<polygon fill="#00cd00" stroke="#00cd00" points="359.224,-16.3217 349.163,-19.6413 359.098,-23.3206 359.224,-16.3217"/>
<text text-anchor="middle" x="2981" y="-57.8" font-family="Times New Roman,serif" font-size="14.00">version</text>
</g>
<!-- n17 -->
<g id="node17" class="node"><title>n17</title>
<ellipse fill="blue" stroke="black" cx="1389.5" cy="-192" rx="113.18" ry="18"/>
<text text-anchor="middle" x="1389.5" y="-188.3" font-family="Times New Roman,serif" font-size="14.00" fill="white">CLASS_CONSTRUCTOR</text>
</g>
<!-- n17&#45;&gt;n10 -->
<g id="edge14" class="edge"><title>n17&#45;&gt;n10</title>
<path fill="none" stroke="black" d="M1488.07,-183.112C1527.93,-180.054 1574.4,-176.657 1616.5,-174 2103.47,-143.274 2688.54,-118.172 2902.73,-109.374"/>
<polygon fill="black" stroke="black" points="2903.1,-112.862 2912.95,-108.955 2902.81,-105.868 2903.1,-112.862"/>
<text text-anchor="middle" x="2191" y="-144.8" font-family="Times New Roman,serif" font-size="14.00">is a</text>
</g>
<!-- n17&#45;&gt;n17 -->
<g id="edge13" class="edge"><title>n17&#45;&gt;n17</title>
<path fill="none" stroke="#00cd00" d="M1493.08,-199.235C1509.43,-198.164 1520.59,-195.753 1520.59,-192 1520.59,-189.097 1513.91,-186.997 1503.32,-185.699"/>
<polygon fill="#00cd00" stroke="#00cd00" points="1503.36,-182.188 1493.08,-184.765 1502.72,-189.159 1503.36,-182.188"/>
<text text-anchor="middle" x="1564.09" y="-188.3" font-family="Times New Roman,serif" font-size="14.00">identifier</text>
</g>
<!-- n18 -->
<g id="node18" class="node"><title>n18</title>
<ellipse fill="blue" stroke="black" cx="4791.5" cy="-540" rx="33.5952" ry="18"/>
<text text-anchor="middle" x="4791.5" y="-536.3" font-family="Times New Roman,serif" font-size="14.00" fill="white">author</text>
</g>
<!-- n18&#45;&gt;n8 -->
<g id="edge15" class="edge"><title>n18&#45;&gt;n8</title>
<path fill="none" stroke="#00cd00" d="M4785.76,-522.018C4781.95,-511.96 4776.39,-499.226 4769.5,-489 4767.1,-485.443 4764.33,-481.924 4761.41,-478.567"/>
<polygon fill="#00cd00" stroke="#00cd00" points="4763.84,-476.04 4754.48,-471.087 4758.71,-480.8 4763.84,-476.04"/>
<text text-anchor="middle" x="4821" y="-492.8" font-family="Times New Roman,serif" font-size="14.00">subPropertyOf</text>
</g>
<!-- n19 -->
<g id="node19" class="node"><title>n19</title>
<ellipse fill="blue" stroke="black" cx="1761.5" cy="-192" rx="135.676" ry="18"/>
<text text-anchor="middle" x="1761.5" y="-188.3" font-family="Times New Roman,serif" font-size="14.00" fill="white">BINARY_GLOBAL_VARIABLE</text>
</g>
<!-- n19&#45;&gt;n10 -->
<g id="edge17" class="edge"><title>n19&#45;&gt;n10</title>
<path fill="none" stroke="black" d="M1878.55,-182.807C2020.5,-172.879 2267.03,-155.658 2478.5,-141 2627.92,-130.642 2802.08,-118.664 2902.78,-111.747"/>
<polygon fill="black" stroke="black" points="2903.15,-115.23 2912.89,-111.052 2902.67,-108.246 2903.15,-115.23"/>
<text text-anchor="middle" x="2488" y="-144.8" font-family="Times New Roman,serif" font-size="14.00">is a</text>
</g>
<!-- n19&#45;&gt;n19 -->
<g id="edge16" class="edge"><title>n19&#45;&gt;n19</title>
<path fill="none" stroke="#00cd00" d="M1886.75,-199.007C1903.9,-197.842 1915.34,-195.507 1915.34,-192 1915.34,-189.233 1908.22,-187.195 1896.79,-185.886"/>
<polygon fill="#00cd00" stroke="#00cd00" points="1897.02,-182.394 1886.75,-184.993 1896.4,-189.366 1897.02,-182.394"/>
<text text-anchor="middle" x="1958.84" y="-188.3" font-family="Times New Roman,serif" font-size="14.00">identifier</text>
</g>
<!-- n20&#45;&gt;n5 -->
<g id="edge62" class="edge"><title>n20&#45;&gt;n5</title>
<path fill="none" stroke="#00cd00" d="M4290.66,-384.051C4296.03,-389.745 4302.04,-396.133 4307.5,-402 4315.1,-410.157 4323.35,-419.105 4330.75,-427.148"/>
<polygon fill="#00cd00" stroke="#00cd00" points="4328.46,-429.828 4337.8,-434.828 4333.61,-425.094 4328.46,-429.828"/>
<text text-anchor="middle" x="4332.5" y="-405.8" font-family="Times New Roman,serif" font-size="14.00">step</text>
</g>
<!-- n22&#45;&gt;n10 -->
<g id="edge59" class="edge"><title>n22&#45;&gt;n10</title>
<path fill="none" stroke="#00cd00" d="M271.547,-188.843C354.18,-185.453 520.474,-178.774 661.5,-174 1537.92,-144.33 2600.45,-116.066 2902.7,-108.172"/>
<polygon fill="#00cd00" stroke="#00cd00" points="2902.8,-111.671 2912.7,-107.911 2902.62,-104.673 2902.8,-111.671"/>
<text text-anchor="middle" x="1729" y="-144.8" font-family="Times New Roman,serif" font-size="14.00">componentType</text>
</g>
<!-- n22&#45;&gt;n15 -->
<g id="edge51" class="edge"><title>n22&#45;&gt;n15</title>
<path fill="none" stroke="#00cd00" d="M271.541,-197.828C308.094,-202.49 357.569,-211.39 398.5,-228 409.808,-232.589 409.948,-239.064 421.5,-243 490.407,-266.477 698.457,-274.361 803.06,-276.883"/>
<polygon fill="#00cd00" stroke="#00cd00" points="803.078,-280.384 813.157,-277.117 803.241,-273.386 803.078,-280.384"/>
<text text-anchor="middle" x="471" y="-231.8" font-family="Times New Roman,serif" font-size="14.00">subcomponentOf</text>
</g>
<!-- n22&#45;&gt;n15 -->
<g id="edge52" class="edge"><title>n22&#45;&gt;n15</title>
<path fill="none" stroke="#00cd00" d="M271.561,-196.167C345.251,-201.14 475.971,-211.905 520.5,-228 531.977,-232.148 532.008,-238.893 543.5,-243 589.853,-259.567 723.67,-269.875 803.137,-274.715"/>
<polygon fill="#00cd00" stroke="#00cd00" points="803.309,-278.231 813.5,-275.334 803.726,-271.244 803.309,-278.231"/>
<text text-anchor="middle" x="574" y="-231.8" font-family="Times New Roman,serif" font-size="14.00">instantiates</text>
</g>
<!-- n22&#45;&gt;n15 -->
<g id="edge56" class="edge"><title>n22&#45;&gt;n15</title>
<path fill="none" stroke="#00cd00" d="M271.78,-194.635C362.331,-197.982 544.428,-207.136 604.5,-228 616.028,-232.004 616.088,-238.675 627.5,-243 684.688,-264.674 754.37,-272.996 803.326,-276.155"/>
<polygon fill="#00cd00" stroke="#00cd00" points="803.257,-279.657 813.446,-276.753 803.67,-272.669 803.257,-279.657"/>
<text text-anchor="middle" x="654" y="-231.8" font-family="Times New Roman,serif" font-size="14.00">definedIn</text>
</g>
<!-- n22&#45;&gt;n15 -->
<g id="edge60" class="edge"><title>n22&#45;&gt;n15</title>
<path fill="none" stroke="#00cd00" d="M271.527,-194.339C375.386,-197.439 604.926,-206.549 680.5,-228 694.46,-231.962 695.867,-238.028 709.5,-243 739.639,-253.992 774.38,-262.22 803.324,-267.926"/>
<polygon fill="#00cd00" stroke="#00cd00" points="802.822,-271.394 813.302,-269.84 804.14,-264.519 802.822,-271.394"/>
<text text-anchor="middle" x="741.5" y="-231.8" font-family="Times New Roman,serif" font-size="14.00">annotations</text>
</g>
<!-- n22&#45;&gt;n15 -->
<g id="edge63" class="edge"><title>n22&#45;&gt;n15</title>
<path fill="none" stroke="#00cd00" d="M191.003,-210.111C178.004,-219.981 167.504,-232.481 177.5,-243 198.871,-265.487 638.254,-274.53 802.911,-277.137"/>
<polygon fill="#00cd00" stroke="#00cd00" points="803.298,-280.643 813.351,-277.299 803.407,-273.644 803.298,-280.643"/>
<text text-anchor="middle" x="213.5" y="-231.8" font-family="Times New Roman,serif" font-size="14.00">requirements</text>
</g>
<!-- n22&#45;&gt;n15 -->
<g id="edge65" class="edge"><title>n22&#45;&gt;n15</title>
<path fill="none" stroke="#00cd00" d="M233.934,-210.199C245.216,-223.145 260.314,-239.275 268.5,-243 316.187,-264.702 660.327,-273.956 802.893,-276.887"/>
<polygon fill="#00cd00" stroke="#00cd00" points="803.141,-280.393 813.21,-277.096 803.283,-273.395 803.141,-280.393"/>
<text text-anchor="middle" x="294" y="-231.8" font-family="Times New Roman,serif" font-size="14.00">mentions</text>
</g>
<!-- n22&#45;&gt;n22 -->
<g id="edge54" class="edge"><title>n22&#45;&gt;n22</title>
<path fill="none" stroke="#00cd00" d="M271.702,-195.775C282.092,-195.35 289.5,-194.092 289.5,-192 289.5,-190.693 286.606,-189.711 281.899,-189.055"/>
<polygon fill="#00cd00" stroke="#00cd00" points="281.953,-185.548 271.702,-188.225 281.386,-192.524 281.953,-185.548"/>
<text text-anchor="middle" x="372.5" y="-188.3" font-family="Times New Roman,serif" font-size="14.00">controlFlowsToConditionally</text>
</g>
<!-- n22&#45;&gt;n22 -->
<g id="edge68" class="edge"><title>n22&#45;&gt;n22</title>
<path fill="none" stroke="#00cd00" d="M271.527,-198.057C342.258,-201.791 455.5,-199.772 455.5,-192 455.5,-184.592 352.625,-182.41 281.738,-185.456"/>
<polygon fill="#00cd00" stroke="#00cd00" points="281.349,-181.97 271.527,-185.943 281.682,-188.962 281.349,-181.97"/>
<text text-anchor="middle" x="545" y="-188.3" font-family="Times New Roman,serif" font-size="14.00">controlFlowsToUnconditionally</text>
</g>
<!-- n22&#45;&gt;n47 -->
<g id="edge53" class="edge"><title>n22&#45;&gt;n47</title>
<path fill="none" stroke="#00cd00" d="M239.321,-173.731C252.906,-160.938 270.408,-142.422 281.5,-123 295.348,-98.7523 303.872,-67.8338 308.605,-46.0315"/>
<polygon fill="#00cd00" stroke="#00cd00" points="312.055,-46.6286 310.63,-36.1301 305.197,-45.2259 312.055,-46.6286"/>
<text text-anchor="middle" x="312.5" y="-101.3" font-family="Times New Roman,serif" font-size="14.00">name</text>
</g>
<!-- n22&#45;&gt;n47 -->
<g id="edge61" class="edge"><title>n22&#45;&gt;n47</title>
<path fill="none" stroke="#00cd00" d="M214.937,-173.689C210.229,-152.097 205.373,-114.656 219.5,-87 230.02,-66.4052 250.012,-50.6056 268.864,-39.4425"/>
<polygon fill="#00cd00" stroke="#00cd00" points="270.685,-42.4339 277.692,-34.4871 267.259,-36.3297 270.685,-42.4339"/>
<text text-anchor="middle" x="248.5" y="-101.3" font-family="Times New Roman,serif" font-size="14.00">valueType</text>
</g>
<!-- n23 -->
<g id="node23" class="node"><title>n23</title>
<polygon fill="none" stroke="red" points="217,-297 0,-297 0,-261 217,-261 217,-297"/>
<text text-anchor="middle" x="108.5" y="-275.3" font-family="Times New Roman,serif" font-size="14.00">componentType has exactly 1 value</text>
</g>
<!-- n23&#45;&gt;n22 -->
<g id="edge21" class="edge"><title>n23&#45;&gt;n22</title>
<path fill="none" stroke="red" d="M104.15,-260.635C102.592,-250.19 102.643,-237.183 109.5,-228 120.934,-212.687 139.113,-203.925 157.426,-198.96"/>
<polygon fill="red" stroke="red" points="158.346,-202.339 167.274,-196.634 156.737,-195.526 158.346,-202.339"/>
<text text-anchor="middle" x="132" y="-231.8" font-family="Times New Roman,serif" font-size="14.00">restricts</text>
</g>
<!-- n24 -->
<g id="node24" class="node"><title>n24</title>
<ellipse fill="blue" stroke="black" cx="4970.5" cy="-540" rx="42.4939" ry="18"/>
<text text-anchor="middle" x="4970.5" y="-536.3" font-family="Times New Roman,serif" font-size="14.00" fill="white">createBy</text>
</g>
<!-- n25 -->
<g id="node25" class="node"><title>n25</title>
<g id="a_node25"><a xlink:href="file:///C:/Sadl3Workspace4/RACK-Ontology-7-29/Graphs/PROV-S.owl.svg" xlink:title="provs:wasGeneratedBy">
<polygon fill="none" stroke="#00cd00" points="5073.42,-445.544 5073.42,-460.456 5013.13,-471 4927.87,-471 4867.58,-460.456 4867.58,-445.544 4927.87,-435 5013.13,-435 5073.42,-445.544"/>
<text text-anchor="middle" x="4970.5" y="-449.3" font-family="Times New Roman,serif" font-size="14.00">provs:wasGeneratedBy</text>
</a>
</g>
</g>
<!-- n24&#45;&gt;n25 -->
<g id="edge22" class="edge"><title>n24&#45;&gt;n25</title>
<path fill="none" stroke="#00cd00" d="M4970.5,-521.799C4970.5,-510.163 4970.5,-494.548 4970.5,-481.237"/>
<polygon fill="#00cd00" stroke="#00cd00" points="4974,-481.175 4970.5,-471.175 4967,-481.175 4974,-481.175"/>
<text text-anchor="middle" x="5013" y="-492.8" font-family="Times New Roman,serif" font-size="14.00">subPropertyOf</text>
</g>
<!-- n28 -->
<g id="node28" class="node"><title>n28</title>
<ellipse fill="blue" stroke="black" cx="2119.5" cy="-192" rx="98.5829" ry="18"/>
<text text-anchor="middle" x="2119.5" y="-188.3" font-family="Times New Roman,serif" font-size="14.00" fill="white">SOURCE_FUNCTION</text>
</g>
<!-- n28&#45;&gt;n10 -->
<g id="edge26" class="edge"><title>n28&#45;&gt;n10</title>
<path fill="none" stroke="black" d="M2204.21,-182.695C2370.42,-166.4 2737.46,-130.416 2902.83,-114.203"/>
<polygon fill="black" stroke="black" points="2903.34,-117.67 2912.95,-113.211 2902.65,-110.704 2903.34,-117.67"/>
<text text-anchor="middle" x="2615" y="-144.8" font-family="Times New Roman,serif" font-size="14.00">is a</text>
</g>
<!-- n28&#45;&gt;n28 -->
<g id="edge25" class="edge"><title>n28&#45;&gt;n28</title>
<path fill="none" stroke="#00cd00" d="M2209.6,-199.383C2225.34,-198.398 2236.29,-195.938 2236.29,-192 2236.29,-188.985 2229.87,-186.836 2219.8,-185.553"/>
<polygon fill="#00cd00" stroke="#00cd00" points="2219.88,-182.045 2209.6,-184.617 2219.24,-189.016 2219.88,-182.045"/>
<text text-anchor="middle" x="2279.79" y="-188.3" font-family="Times New Roman,serif" font-size="14.00">identifier</text>
</g>
<!-- n29 -->
<g id="node29" class="node"><title>n29</title>
<polygon fill="none" stroke="red" points="2587.5,-210 2341.5,-210 2341.5,-174 2587.5,-174 2587.5,-210"/>
<text text-anchor="middle" x="2464.5" y="-188.3" font-family="Times New Roman,serif" font-size="14.00">provs:identifier has exactly 1 value</text>
</g>
<!-- n29&#45;&gt;n10 -->
<g id="edge27" class="edge"><title>n29&#45;&gt;n10</title>
<path fill="none" stroke="red" d="M2569.19,-173.952C2667.3,-157.977 2812.06,-134.405 2902.73,-119.64"/>
<polygon fill="red" stroke="red" points="2903.39,-123.079 2912.7,-118.018 2902.27,-116.17 2903.39,-123.079"/>
<text text-anchor="middle" x="2780" y="-144.8" font-family="Times New Roman,serif" font-size="14.00">restricts</text>
</g>
<!-- n30&#45;&gt;n11 -->
<g id="edge67" class="edge"><title>n30&#45;&gt;n11</title>
<path fill="none" stroke="#00cd00" d="M4599.8,-355.66C4751.84,-338.407 5073.35,-301.92 5206.65,-286.792"/>
<polygon fill="#00cd00" stroke="#00cd00" points="5207.14,-290.26 5216.68,-285.654 5206.35,-283.304 5207.14,-290.26"/>
<text text-anchor="middle" x="4955.5" y="-318.8" font-family="Times New Roman,serif" font-size="14.00">author</text>
</g>
<!-- n30&#45;&gt;n15 -->
<g id="edge49" class="edge"><title>n30&#45;&gt;n15</title>
<path fill="none" stroke="#00cd00" d="M4435.34,-349.087C4432.02,-348.676 4428.73,-348.311 4425.5,-348 4198.65,-326.212 2602.35,-334.771 2374.5,-330 1811.62,-318.213 1131.11,-291.042 925.923,-282.57"/>
<polygon fill="#00cd00" stroke="#00cd00" points="925.79,-279.062 915.654,-282.146 925.501,-286.056 925.79,-279.062"/>
<text text-anchor="middle" x="2408.5" y="-318.8" font-family="Times New Roman,serif" font-size="14.00">governedBy</text>
</g>
<!-- n30&#45;&gt;n15 -->
<g id="edge55" class="edge"><title>n30&#45;&gt;n15</title>
<path fill="none" stroke="#00cd00" d="M4435.34,-349.129C4432.02,-348.707 4428.73,-348.327 4425.5,-348 3707.49,-275.3 1338.2,-278.642 925.937,-279.797"/>
<polygon fill="#00cd00" stroke="#00cd00" points="925.705,-276.298 915.716,-279.826 925.726,-283.298 925.705,-276.298"/>
<text text-anchor="middle" x="4164" y="-318.8" font-family="Times New Roman,serif" font-size="14.00">referenced</text>
</g>
<!-- n31 -->
<g id="node31" class="node"><title>n31</title>
<ellipse fill="blue" stroke="black" cx="2701.5" cy="-192" rx="96.3833" ry="18"/>
<text text-anchor="middle" x="2701.5" y="-188.3" font-family="Times New Roman,serif" font-size="14.00" fill="white">BINARY_FUNCTION</text>
</g>
<!-- n31&#45;&gt;n10 -->
<g id="edge30" class="edge"><title>n31&#45;&gt;n10</title>
<path fill="none" stroke="black" d="M2750.49,-176.388C2797.14,-162.475 2867.73,-141.424 2919.55,-125.966"/>
<polygon fill="black" stroke="black" points="2920.75,-129.263 2929.33,-123.051 2918.75,-122.555 2920.75,-129.263"/>
<text text-anchor="middle" x="2871" y="-144.8" font-family="Times New Roman,serif" font-size="14.00">is a</text>
</g>
<!-- n31&#45;&gt;n31 -->
<g id="edge29" class="edge"><title>n31&#45;&gt;n31</title>
<path fill="none" stroke="#00cd00" d="M2789.6,-199.383C2804.99,-198.398 2815.69,-195.938 2815.69,-192 2815.69,-188.985 2809.42,-186.836 2799.57,-185.553"/>
<polygon fill="#00cd00" stroke="#00cd00" points="2799.88,-182.067 2789.6,-184.617 2799.23,-189.036 2799.88,-182.067"/>
<text text-anchor="middle" x="2859.19" y="-188.3" font-family="Times New Roman,serif" font-size="14.00">identifier</text>
</g>
<!-- n34 -->
<g id="node34" class="node"><title>n34</title>
<ellipse fill="blue" stroke="black" cx="5115.5" cy="-540" rx="54.6905" ry="18"/>
<text text-anchor="middle" x="5115.5" y="-536.3" font-family="Times New Roman,serif" font-size="14.00" fill="white">governedBy</text>
</g>
<!-- n35 -->
<g id="node35" class="node"><title>n35</title>
<g id="a_node35"><a xlink:href="file:///C:/Sadl3Workspace4/RACK-Ontology-7-29/Graphs/PROV-S.owl.svg" xlink:title="provs:used">
<polygon fill="none" stroke="#00cd00" points="5246.25,-445.544 5246.25,-460.456 5214.18,-471 5168.82,-471 5136.75,-460.456 5136.75,-445.544 5168.82,-435 5214.18,-435 5246.25,-445.544"/>
<text text-anchor="middle" x="5191.5" y="-449.3" font-family="Times New Roman,serif" font-size="14.00">provs:used</text>
</a>
</g>
</g>
<!-- n34&#45;&gt;n35 -->
<g id="edge33" class="edge"><title>n34&#45;&gt;n35</title>
<path fill="none" stroke="#00cd00" d="M5114.1,-521.798C5114.12,-511.414 5115.78,-498.415 5122.5,-489 5127.95,-481.374 5135.55,-475.306 5143.73,-470.512"/>
<polygon fill="#00cd00" stroke="#00cd00" points="5145.51,-473.529 5152.75,-465.797 5142.27,-467.324 5145.51,-473.529"/>
<text text-anchor="middle" x="5165" y="-492.8" font-family="Times New Roman,serif" font-size="14.00">subPropertyOf</text>
</g>
<!-- n36&#45;&gt;n15 -->
<g id="edge50" class="edge"><title>n36&#45;&gt;n15</title>
<path fill="none" stroke="#00cd00" d="M5114.48,-210.117C5102.36,-215.457 5089.23,-221.629 5077.5,-228 5066.78,-233.824 5066.18,-239.474 5054.5,-243 4951.16,-274.192 1435.39,-277.632 925.823,-277.967"/>
<polygon fill="#00cd00" stroke="#00cd00" points="925.728,-274.467 915.731,-277.973 925.733,-281.467 925.728,-274.467"/>
<text text-anchor="middle" x="5100" y="-231.8" font-family="Times New Roman,serif" font-size="14.00">satisfies</text>
</g>
<!-- n36&#45;&gt;n16 -->
<g id="edge57" class="edge"><title>n36&#45;&gt;n16</title>
<path fill="none" stroke="#00cd00" d="M5133.03,-173.799C5115.49,-160.953 5091.35,-143.258 5072.12,-129.167"/>
<polygon fill="#00cd00" stroke="#00cd00" points="5074.07,-126.263 5063.94,-123.175 5069.94,-131.909 5074.07,-126.263"/>
<text text-anchor="middle" x="5130" y="-144.8" font-family="Times New Roman,serif" font-size="14.00">language</text>
</g>
<!-- n38 -->
<g id="node38" class="node"><title>n38</title>
<ellipse fill="blue" stroke="black" cx="2986.5" cy="-192" rx="65.7887" ry="18"/>
<text text-anchor="middle" x="2986.5" y="-188.3" font-family="Times New Roman,serif" font-size="14.00" fill="white">NAMESPACE</text>
</g>
<!-- n38&#45;&gt;n10 -->
<g id="edge37" class="edge"><title>n38&#45;&gt;n10</title>
<path fill="none" stroke="black" d="M2986.5,-173.799C2986.5,-162.163 2986.5,-146.548 2986.5,-133.237"/>
<polygon fill="black" stroke="black" points="2990,-133.175 2986.5,-123.175 2983,-133.175 2990,-133.175"/>
<text text-anchor="middle" x="2996" y="-144.8" font-family="Times New Roman,serif" font-size="14.00">is a</text>
</g>
<!-- n38&#45;&gt;n38 -->
<g id="edge36" class="edge"><title>n38&#45;&gt;n38</title>
<path fill="none" stroke="#00cd00" d="M3045.89,-199.719C3059.85,-199.085 3070.14,-196.512 3070.14,-192 3070.14,-188.687 3064.59,-186.419 3056.11,-185.197"/>
<polygon fill="#00cd00" stroke="#00cd00" points="3056.17,-181.687 3045.89,-184.281 3055.54,-188.659 3056.17,-181.687"/>
<text text-anchor="middle" x="3113.64" y="-188.3" font-family="Times New Roman,serif" font-size="14.00">identifier</text>
</g>
<!-- n40 -->
<g id="node40" class="node"><title>n40</title>
<ellipse fill="blue" stroke="black" cx="3214.5" cy="-192" rx="39.7935" ry="18"/>
<text text-anchor="middle" x="3214.5" y="-188.3" font-family="Times New Roman,serif" font-size="14.00" fill="white">CLASS</text>
</g>
<!-- n40&#45;&gt;n10 -->
<g id="edge40" class="edge"><title>n40&#45;&gt;n10</title>
<path fill="none" stroke="black" d="M3184.69,-179.888C3148.59,-166.43 3087.05,-143.485 3042.1,-126.728"/>
<polygon fill="black" stroke="black" points="3043.08,-123.359 3032.49,-123.145 3040.64,-129.918 3043.08,-123.359"/>
<text text-anchor="middle" x="3124" y="-144.8" font-family="Times New Roman,serif" font-size="14.00">is a</text>
</g>
<!-- n40&#45;&gt;n40 -->
<g id="edge39" class="edge"><title>n40&#45;&gt;n40</title>
<path fill="none" stroke="#00cd00" d="M3250.25,-199.875C3262.39,-199.916 3272.15,-197.291 3272.15,-192 3272.15,-188.28 3267.32,-185.878 3260.24,-184.794"/>
<polygon fill="#00cd00" stroke="#00cd00" points="3260.46,-181.301 3250.25,-184.125 3259.99,-188.285 3260.46,-181.301"/>
<text text-anchor="middle" x="3315.65" y="-188.3" font-family="Times New Roman,serif" font-size="14.00">identifier</text>
</g>
<!-- n42 -->
<g id="node42" class="node"><title>n42</title>
<ellipse fill="blue" stroke="black" cx="3425.5" cy="-192" rx="48.9926" ry="18"/>
<text text-anchor="middle" x="3425.5" y="-188.3" font-family="Times New Roman,serif" font-size="14.00" fill="white">MODULE</text>
</g>
<!-- n42&#45;&gt;n10 -->
<g id="edge43" class="edge"><title>n42&#45;&gt;n10</title>
<path fill="none" stroke="black" d="M3389.79,-179.673C3382.77,-177.639 3375.43,-175.645 3368.5,-174 3266.88,-149.885 3148.24,-130.038 3070.47,-118.135"/>
<polygon fill="black" stroke="black" points="3070.65,-114.623 3060.24,-116.58 3069.6,-121.544 3070.65,-114.623"/>
<text text-anchor="middle" x="3295" y="-144.8" font-family="Times New Roman,serif" font-size="14.00">is a</text>
</g>
<!-- n42&#45;&gt;n42 -->
<g id="edge42" class="edge"><title>n42&#45;&gt;n42</title>
<path fill="none" stroke="#00cd00" d="M3469.47,-199.851C3482.3,-199.58 3492.25,-196.963 3492.25,-192 3492.25,-188.433 3487.11,-186.078 3479.46,-184.934"/>
<polygon fill="#00cd00" stroke="#00cd00" points="3479.71,-181.444 3469.47,-184.149 3479.17,-188.422 3479.71,-181.444"/>
<text text-anchor="middle" x="3535.75" y="-188.3" font-family="Times New Roman,serif" font-size="14.00">identifier</text>
</g>
<!-- n43 -->
<g id="node43" class="node"><title>n43</title>
<ellipse fill="blue" stroke="black" cx="3729.5" cy="-192" rx="132.677" ry="18"/>
<text text-anchor="middle" x="3729.5" y="-188.3" font-family="Times New Roman,serif" font-size="14.00" fill="white">CLASS_MEMBER_VARIABLE</text>
</g>
<!-- n43&#45;&gt;n10 -->
<g id="edge45" class="edge"><title>n43&#45;&gt;n10</title>
<path fill="none" stroke="black" d="M3633.94,-179.443C3618.74,-177.615 3603.19,-175.751 3588.5,-174 3464.08,-159.167 3433.01,-155.104 3308.5,-141 3227.62,-131.838 3135.25,-121.847 3070.25,-114.893"/>
<polygon fill="black" stroke="black" points="3070.37,-111.387 3060.06,-113.804 3069.63,-118.347 3070.37,-111.387"/>
<text text-anchor="middle" x="3444" y="-144.8" font-family="Times New Roman,serif" font-size="14.00">is a</text>
</g>
<!-- n43&#45;&gt;n43 -->
<g id="edge44" class="edge"><title>n43&#45;&gt;n43</title>
<path fill="none" stroke="#00cd00" d="M3851.51,-199.047C3868.63,-197.897 3880.09,-195.548 3880.09,-192 3880.09,-189.201 3872.95,-187.147 3861.53,-185.841"/>
<polygon fill="#00cd00" stroke="#00cd00" points="3861.78,-182.349 3851.51,-184.953 3861.16,-189.322 3861.78,-182.349"/>
<text text-anchor="middle" x="3923.59" y="-188.3" font-family="Times New Roman,serif" font-size="14.00">identifier</text>
</g>
<!-- n44 -->
<g id="node44" class="node"><title>n44</title>
<ellipse fill="blue" stroke="black" cx="5236.5" cy="-540" rx="48.9926" ry="18"/>
<text text-anchor="middle" x="5236.5" y="-536.3" font-family="Times New Roman,serif" font-size="14.00" fill="white">referenced</text>
</g>
<!-- n44&#45;&gt;n35 -->
<g id="edge46" class="edge"><title>n44&#45;&gt;n35</title>
<path fill="none" stroke="#00cd00" d="M5227.61,-522.207C5221.24,-510.178 5212.54,-493.748 5205.28,-480.028"/>
<polygon fill="#00cd00" stroke="#00cd00" points="5208.3,-478.25 5200.53,-471.049 5202.11,-481.525 5208.3,-478.25"/>
<text text-anchor="middle" x="5260" y="-492.8" font-family="Times New Roman,serif" font-size="14.00">subPropertyOf</text>
</g>
<!-- n46 -->
<g id="node46" class="node"><title>n46</title>
<ellipse fill="blue" stroke="black" cx="3891.5" cy="-540" rx="42.4939" ry="18"/>
<text text-anchor="middle" x="3891.5" y="-536.3" font-family="Times New Roman,serif" font-size="14.00" fill="white">language</text>
</g>
<!-- n46&#45;&gt;n2 -->
<g id="edge48" class="edge"><title>n46&#45;&gt;n2</title>
<path fill="none" stroke="#00cd00" d="M3885.65,-522.092C3881.8,-512.061 3876.23,-499.329 3869.5,-489 3867.29,-485.605 3864.74,-482.222 3862.08,-478.971"/>
<polygon fill="#00cd00" stroke="#00cd00" points="3864.53,-476.459 3855.31,-471.233 3859.26,-481.066 3864.53,-476.459"/>
<text text-anchor="middle" x="3921" y="-492.8" font-family="Times New Roman,serif" font-size="14.00">subPropertyOf</text>
</g>
<!-- n48 -->
<g id="node48" class="node"><title>n48</title>
<polygon fill="#00008b" stroke="black" points="4603,-558 4104,-558 4104,-522 4603,-522 4603,-558"/>
<text text-anchor="middle" x="4353.5" y="-536.3" font-family="Times New Roman,serif" font-size="14.00" fill="white">CODE_FILE or CONFIG_FILE or OBJECT_FILE or LIBRARY or EXECUTABLE</text>
</g>
<!-- n48&#45;&gt;n5 -->
<g id="edge64" class="edge"><title>n48&#45;&gt;n5</title>
<path fill="none" stroke="#00cd00" d="M4353.5,-521.799C4353.5,-510.163 4353.5,-494.548 4353.5,-481.237"/>
<polygon fill="#00cd00" stroke="#00cd00" points="4357,-481.175 4353.5,-471.175 4350,-481.175 4357,-481.175"/>
<text text-anchor="middle" x="4378" y="-492.8" font-family="Times New Roman,serif" font-size="14.00">createBy</text>
</g>
<!-- n49 -->
<g id="node49" class="node"><title>n49</title>
<polygon fill="#00008b" stroke="black" points="5144,-384 4887,-384 4887,-348 5144,-348 5144,-384"/>
<text text-anchor="middle" x="5015.5" y="-362.3" font-family="Times New Roman,serif" font-size="14.00" fill="white">CODE_GEN or COMPILE or PACKAGE</text>
</g>
<!-- n49&#45;&gt;n11 -->
<g id="edge66" class="edge"><title>n49&#45;&gt;n11</title>
<path fill="none" stroke="#00cd00" d="M5065.99,-347.901C5106.85,-334.065 5164.46,-314.554 5207.46,-299.995"/>
<polygon fill="#00cd00" stroke="#00cd00" points="5208.6,-303.304 5216.95,-296.782 5206.35,-296.674 5208.6,-303.304"/>
<text text-anchor="middle" x="5194" y="-318.8" font-family="Times New Roman,serif" font-size="14.00">performedBy</text>
</g>
</g>
</svg>
