<?xml version="1.0" encoding="UTF-8" standalone="no"?>
<!DOCTYPE svg PUBLIC "-//W3C//DTD SVG 1.1//EN"
 "http://www.w3.org/Graphics/SVG/1.1/DTD/svg11.dtd">
<!-- Generated by graphviz version 2.38.0 (20140413.2041)
 -->
<!-- Title: gsw Pages: 1 -->
<svg width="1897pt" height="589pt"
 viewBox="0.00 0.00 1896.71 589.00" xmlns="http://www.w3.org/2000/svg" xmlns:xlink="http://www.w3.org/1999/xlink">
<g id="graph0" class="graph" transform="scale(1 1) rotate(0) translate(4 585)">
<title>gsw</title>
<polygon fill="white" stroke="none" points="-4,4 -4,-585 1892.71,-585 1892.71,4 -4,4"/>
<text text-anchor="middle" x="85" y="-565.8" font-family="Times New Roman,serif" font-size="14.00">Graph of Ontology File: sw</text>
<!-- n1 -->
<g id="node1" class="node"><title>n1</title>
<g id="a_node1"><a xlink:href="file:///C:/sadl/git/RACK/RACK-Ontology/Graphs/PROV-S.owl.svg" xlink:title="provs:ENTITY">
<polygon fill="#00008b" stroke="black" points="833,-297 731,-297 731,-261 833,-261 833,-297"/>
<text text-anchor="middle" x="782" y="-275.3" font-family="Times New Roman,serif" font-size="14.00" fill="white">provs:ENTITY</text>
</a>
</g>
</g>
<!-- n2 -->
<g id="node2" class="node"><title>n2</title>
<polygon fill="#00008b" stroke="black" points="482.5,-210 405.5,-210 405.5,-174 482.5,-174 482.5,-210"/>
<text text-anchor="middle" x="444" y="-188.3" font-family="Times New Roman,serif" font-size="14.00" fill="white">LIBRARY</text>
</g>
<!-- n1&#45;&gt;n2 -->
<g id="edge1" class="edge"><title>n1&#45;&gt;n2</title>
<path fill="none" stroke="blue" stroke-dasharray="5,2" d="M730.966,-275.894C643.625,-271.808 472.923,-261.536 453,-243 446.825,-237.255 444.007,-228.825 442.901,-220.519"/>
<polygon fill="blue" stroke="blue" points="446.379,-220.047 442.29,-210.273 439.391,-220.464 446.379,-220.047"/>
<text text-anchor="middle" x="479" y="-231.8" font-family="Times New Roman,serif" font-size="14.00">subClass</text>
</g>
<!-- n3 -->
<g id="node3" class="node"><title>n3</title>
<polygon fill="#00008b" stroke="black" points="668.5,-123 575.5,-123 575.5,-87 668.5,-87 668.5,-123"/>
<text text-anchor="middle" x="622" y="-101.3" font-family="Times New Roman,serif" font-size="14.00" fill="white">LANGUAGE</text>
</g>
<!-- n1&#45;&gt;n3 -->
<g id="edge2" class="edge"><title>n1&#45;&gt;n3</title>
<path fill="none" stroke="blue" stroke-dasharray="5,2" d="M730.824,-271.646C663.972,-262.173 552.528,-241.959 528,-210 505.216,-180.314 543.712,-148.77 578.094,-128.31"/>
<polygon fill="blue" stroke="blue" points="580.238,-131.115 587.166,-123.099 576.752,-125.045 580.238,-131.115"/>
<text text-anchor="middle" x="554" y="-188.3" font-family="Times New Roman,serif" font-size="14.00">subClass</text>
</g>
<!-- n18 -->
<g id="node18" class="node"><title>n18</title>
<polygon fill="#00008b" stroke="black" points="708.5,-210 589.5,-210 589.5,-174 708.5,-174 708.5,-210"/>
<text text-anchor="middle" x="649" y="-188.3" font-family="Times New Roman,serif" font-size="14.00" fill="white">PACKAGE_FILE</text>
</g>
<!-- n1&#45;&gt;n18 -->
<g id="edge12" class="edge"><title>n1&#45;&gt;n18</title>
<path fill="none" stroke="blue" stroke-dasharray="5,2" d="M753.769,-260.905C744.559,-255.264 734.31,-248.919 725,-243 711.247,-234.256 696.233,-224.438 683.209,-215.832"/>
<polygon fill="blue" stroke="blue" points="684.82,-212.701 674.551,-210.095 680.954,-218.536 684.82,-212.701"/>
<text text-anchor="middle" x="751" y="-231.8" font-family="Times New Roman,serif" font-size="14.00">subClass</text>
</g>
<!-- n19 -->
<g id="node19" class="node"><title>n19</title>
<polygon fill="#00008b" stroke="black" points="833.5,-210 726.5,-210 726.5,-174 833.5,-174 833.5,-210"/>
<text text-anchor="middle" x="780" y="-188.3" font-family="Times New Roman,serif" font-size="14.00" fill="white">EXECUTABLE</text>
</g>
<!-- n1&#45;&gt;n19 -->
<g id="edge13" class="edge"><title>n1&#45;&gt;n19</title>
<path fill="none" stroke="blue" stroke-dasharray="5,2" d="M781.482,-260.911C781.318,-255.214 781.142,-248.834 781,-243 780.822,-235.652 780.652,-227.696 780.504,-220.338"/>
<polygon fill="blue" stroke="blue" points="784,-220.055 780.306,-210.125 777.001,-220.191 784,-220.055"/>
<text text-anchor="middle" x="807" y="-231.8" font-family="Times New Roman,serif" font-size="14.00">subClass</text>
</g>
<!-- n25 -->
<g id="node25" class="node"><title>n25</title>
<polygon fill="#00008b" stroke="black" points="944,-210 852,-210 852,-174 944,-174 944,-210"/>
<text text-anchor="middle" x="898" y="-188.3" font-family="Times New Roman,serif" font-size="14.00" fill="white">CODE_FILE</text>
</g>
<!-- n1&#45;&gt;n25 -->
<g id="edge18" class="edge"><title>n1&#45;&gt;n25</title>
<path fill="none" stroke="blue" stroke-dasharray="5,2" d="M807.612,-260.822C815.79,-255.231 824.835,-248.935 833,-243 844.655,-234.528 857.253,-224.94 868.227,-216.443"/>
<polygon fill="blue" stroke="blue" points="870.516,-219.097 876.26,-210.194 866.218,-213.572 870.516,-219.097"/>
<text text-anchor="middle" x="879" y="-231.8" font-family="Times New Roman,serif" font-size="14.00">subClass</text>
</g>
<!-- n28 -->
<g id="node28" class="node"><title>n28</title>
<polygon fill="#00008b" stroke="black" points="1069.5,-210 962.5,-210 962.5,-174 1069.5,-174 1069.5,-210"/>
<text text-anchor="middle" x="1016" y="-188.3" font-family="Times New Roman,serif" font-size="14.00" fill="white">CONFIG_FILE</text>
</g>
<!-- n1&#45;&gt;n28 -->
<g id="edge21" class="edge"><title>n1&#45;&gt;n28</title>
<path fill="none" stroke="blue" stroke-dasharray="5,2" d="M833.31,-275.527C870.713,-271.985 921.685,-263.453 962,-243 974.106,-236.858 985.465,-227.201 994.612,-218.006"/>
<polygon fill="blue" stroke="blue" points="997.407,-220.144 1001.74,-210.477 992.325,-215.331 997.407,-220.144"/>
<text text-anchor="middle" x="1010" y="-231.8" font-family="Times New Roman,serif" font-size="14.00">subClass</text>
</g>
<!-- n29 -->
<g id="node29" class="node"><title>n29</title>
<polygon fill="#00008b" stroke="black" points="1192.5,-210 1087.5,-210 1087.5,-174 1192.5,-174 1192.5,-210"/>
<text text-anchor="middle" x="1140" y="-188.3" font-family="Times New Roman,serif" font-size="14.00" fill="white">OBJECT_FILE</text>
</g>
<!-- n1&#45;&gt;n29 -->
<g id="edge22" class="edge"><title>n1&#45;&gt;n29</title>
<path fill="none" stroke="blue" stroke-dasharray="5,2" d="M833.489,-275.981C886.343,-272.766 970.459,-264.454 1040,-243 1061.9,-236.245 1084.86,-225.087 1103.26,-215.024"/>
<polygon fill="blue" stroke="blue" points="1105.14,-217.979 1112.16,-210.043 1101.73,-211.87 1105.14,-217.979"/>
<text text-anchor="middle" x="1104" y="-231.8" font-family="Times New Roman,serif" font-size="14.00">subClass</text>
</g>
<!-- n33 -->
<g id="node33" class="node"><title>n33</title>
<g id="a_node33"><a xlink:href="file:///C:/sadl/git/RACK/RACK-Ontology/Graphs/XMLSchema.svg" xlink:title="xsd:string">
<polygon fill="#00008b" stroke="black" points="657.5,-36 586.5,-36 586.5,-0 657.5,-0 657.5,-36"/>
<text text-anchor="middle" x="622" y="-14.3" font-family="Times New Roman,serif" font-size="14.00" fill="white">xsd:string</text>
</a>
</g>
</g>
<!-- n3&#45;&gt;n33 -->
<g id="edge30" class="edge"><title>n3&#45;&gt;n33</title>
<path fill="none" stroke="#00cd00" d="M622,-86.799C622,-75.1626 622,-59.5479 622,-46.2368"/>
<polygon fill="#00cd00" stroke="#00cd00" points="625.5,-46.1754 622,-36.1754 618.5,-46.1755 625.5,-46.1754"/>
<text text-anchor="middle" x="642.5" y="-57.8" font-family="Times New Roman,serif" font-size="14.00">version</text>
</g>
<!-- n4 -->
<g id="node4" class="node"><title>n4</title>
<ellipse fill="blue" stroke="black" cx="809" cy="-540" rx="33.5952" ry="18"/>
<text text-anchor="middle" x="809" y="-536.3" font-family="Times New Roman,serif" font-size="14.00" fill="white">author</text>
</g>
<!-- n5 -->
<g id="node5" class="node"><title>n5</title>
<g id="a_node5"><a xlink:href="file:///C:/sadl/git/RACK/RACK-Ontology/Graphs/PROV-S.owl.svg" xlink:title="provs:wasAssociatedWith">
<polygon fill="none" stroke="#00cd00" points="1013.84,-445.544 1013.84,-460.456 946.568,-471 851.432,-471 784.161,-460.456 784.161,-445.544 851.432,-435 946.568,-435 1013.84,-445.544"/>
<text text-anchor="middle" x="899" y="-449.3" font-family="Times New Roman,serif" font-size="14.00">provs:wasAssociatedWith</text>
</a>
</g>
</g>
<!-- n4&#45;&gt;n5 -->
<g id="edge3" class="edge"><title>n4&#45;&gt;n5</title>
<path fill="none" stroke="#00cd00" d="M809.017,-521.566C809.883,-511.094 812.576,-498.085 820,-489 824.337,-483.693 829.642,-479.166 835.432,-475.308"/>
<polygon fill="#00cd00" stroke="#00cd00" points="837.376,-478.225 844.204,-470.124 833.814,-472.199 837.376,-478.225"/>
<text text-anchor="middle" x="862.5" y="-492.8" font-family="Times New Roman,serif" font-size="14.00">subPropertyOf</text>
</g>
<!-- n6 -->
<g id="node6" class="node"><title>n6</title>
<ellipse fill="blue" stroke="black" cx="920" cy="-540" rx="59.2899" ry="18"/>
<text text-anchor="middle" x="920" y="-536.3" font-family="Times New Roman,serif" font-size="14.00" fill="white">performedBy</text>
</g>
<!-- n6&#45;&gt;n5 -->
<g id="edge4" class="edge"><title>n6&#45;&gt;n5</title>
<path fill="none" stroke="#00cd00" d="M915.75,-521.799C912.875,-510.163 909.018,-494.548 905.729,-481.237"/>
<polygon fill="#00cd00" stroke="#00cd00" points="909.04,-480.044 903.243,-471.175 902.244,-481.723 909.04,-480.044"/>
<text text-anchor="middle" x="953.5" y="-492.8" font-family="Times New Roman,serif" font-size="14.00">subPropertyOf</text>
</g>
<!-- n7 -->
<g id="node7" class="node"><title>n7</title>
<ellipse fill="blue" stroke="black" cx="1093" cy="-540" rx="54.6905" ry="18"/>
<text text-anchor="middle" x="1093" y="-536.3" font-family="Times New Roman,serif" font-size="14.00" fill="white">governedBy</text>
</g>
<!-- n8 -->
<g id="node8" class="node"><title>n8</title>
<g id="a_node8"><a xlink:href="file:///C:/sadl/git/RACK/RACK-Ontology/Graphs/PROV-S.owl.svg" xlink:title="provs:used">
<polygon fill="none" stroke="#00cd00" points="1195.75,-445.544 1195.75,-460.456 1163.68,-471 1118.32,-471 1086.25,-460.456 1086.25,-445.544 1118.32,-435 1163.68,-435 1195.75,-445.544"/>
<text text-anchor="middle" x="1141" y="-449.3" font-family="Times New Roman,serif" font-size="14.00">provs:used</text>
</a>
</g>
</g>
<!-- n7&#45;&gt;n8 -->
<g id="edge5" class="edge"><title>n7&#45;&gt;n8</title>
<path fill="none" stroke="#00cd00" d="M1095.59,-521.968C1097.64,-511.893 1101.16,-499.158 1107,-489 1109.03,-485.466 1111.5,-482.024 1114.17,-478.764"/>
<polygon fill="#00cd00" stroke="#00cd00" points="1117,-480.858 1121.09,-471.087 1111.8,-476.172 1117,-480.858"/>
<text text-anchor="middle" x="1149.5" y="-492.8" font-family="Times New Roman,serif" font-size="14.00">subPropertyOf</text>
</g>
<!-- n9 -->
<g id="node9" class="node"><title>n9</title>
<g id="a_node9"><a xlink:href="file:///C:/sadl/git/RACK/RACK-Ontology/Graphs/PROV-S.owl.svg" xlink:title="provs:ACTIVITY">
<polygon fill="#00008b" stroke="black" points="567,-471 449,-471 449,-435 567,-435 567,-471"/>
<text text-anchor="middle" x="508" y="-449.3" font-family="Times New Roman,serif" font-size="14.00" fill="white">provs:ACTIVITY</text>
</a>
</g>
</g>
<!-- n10 -->
<g id="node10" class="node"><title>n10</title>
<polygon fill="#00008b" stroke="black" points="374,-384 296,-384 296,-348 374,-348 374,-384"/>
<text text-anchor="middle" x="335" y="-362.3" font-family="Times New Roman,serif" font-size="14.00" fill="white">COMPILE</text>
</g>
<!-- n9&#45;&gt;n10 -->
<g id="edge6" class="edge"><title>n9&#45;&gt;n10</title>
<path fill="none" stroke="blue" stroke-dasharray="5,2" d="M448.613,-444.767C410.787,-439.036 366.299,-429.845 352,-417 345.405,-411.076 341.367,-402.494 338.895,-394.108"/>
<polygon fill="blue" stroke="blue" points="342.258,-393.117 336.59,-384.166 335.439,-394.699 342.258,-393.117"/>
<text text-anchor="middle" x="378" y="-405.8" font-family="Times New Roman,serif" font-size="14.00">subClass</text>
</g>
<!-- n11 -->
<g id="node11" class="node"><title>n11</title>
<polygon fill="#00008b" stroke="black" points="450,-384 392,-384 392,-348 450,-348 450,-384"/>
<text text-anchor="middle" x="421" y="-362.3" font-family="Times New Roman,serif" font-size="14.00" fill="white">BUILD</text>
</g>
<!-- n9&#45;&gt;n11 -->
<g id="edge7" class="edge"><title>n9&#45;&gt;n11</title>
<path fill="none" stroke="blue" stroke-dasharray="5,2" d="M448.951,-443.133C434.184,-437.965 420.003,-429.82 411,-417 406.226,-410.202 406.295,-401.668 408.299,-393.586"/>
<polygon fill="blue" stroke="blue" points="411.62,-394.692 411.507,-384.098 404.989,-392.45 411.62,-394.692"/>
<text text-anchor="middle" x="437" y="-405.8" font-family="Times New Roman,serif" font-size="14.00">subClass</text>
</g>
<!-- n17 -->
<g id="node17" class="node"><title>n17</title>
<polygon fill="#00008b" stroke="black" points="551.5,-384 468.5,-384 468.5,-348 551.5,-348 551.5,-384"/>
<text text-anchor="middle" x="510" y="-362.3" font-family="Times New Roman,serif" font-size="14.00" fill="white">PACKAGE</text>
</g>
<!-- n9&#45;&gt;n17 -->
<g id="edge11" class="edge"><title>n9&#45;&gt;n17</title>
<path fill="none" stroke="blue" stroke-dasharray="5,2" d="M509.172,-434.919C509.51,-429.222 509.833,-422.84 510,-417 510.21,-409.654 510.281,-401.699 510.282,-394.341"/>
<polygon fill="blue" stroke="blue" points="513.781,-394.114 510.241,-384.128 506.781,-394.142 513.781,-394.114"/>
<text text-anchor="middle" x="537" y="-405.8" font-family="Times New Roman,serif" font-size="14.00">subClass</text>
</g>
<!-- n24 -->
<g id="node24" class="node"><title>n24</title>
<polygon fill="#00008b" stroke="black" points="660.5,-384 569.5,-384 569.5,-348 660.5,-348 660.5,-384"/>
<text text-anchor="middle" x="615" y="-362.3" font-family="Times New Roman,serif" font-size="14.00" fill="white">CODE_GEN</text>
</g>
<!-- n9&#45;&gt;n24 -->
<g id="edge17" class="edge"><title>n9&#45;&gt;n24</title>
<path fill="none" stroke="blue" stroke-dasharray="5,2" d="M540.27,-434.979C549.251,-429.684 558.789,-423.513 567,-417 576.383,-409.557 585.726,-400.343 593.641,-391.861"/>
<polygon fill="blue" stroke="blue" points="596.333,-394.103 600.469,-384.349 591.153,-389.395 596.333,-394.103"/>
<text text-anchor="middle" x="609" y="-405.8" font-family="Times New Roman,serif" font-size="14.00">subClass</text>
</g>
<!-- n27 -->
<g id="node27" class="node"><title>n27</title>
<polygon fill="#00008b" stroke="black" points="843,-384 679,-384 679,-348 843,-348 843,-384"/>
<text text-anchor="middle" x="761" y="-362.3" font-family="Times New Roman,serif" font-size="14.00" fill="white">CODE_DEVELOPMENT</text>
</g>
<!-- n9&#45;&gt;n27 -->
<g id="edge20" class="edge"><title>n9&#45;&gt;n27</title>
<path fill="none" stroke="blue" stroke-dasharray="5,2" d="M567.169,-437.904C589.829,-432.06 615.799,-424.818 639,-417 664.054,-408.558 691.335,-397.555 713.733,-388.022"/>
<polygon fill="blue" stroke="blue" points="715.204,-391.199 723.012,-384.037 712.443,-384.767 715.204,-391.199"/>
<text text-anchor="middle" x="703" y="-405.8" font-family="Times New Roman,serif" font-size="14.00">subClass</text>
</g>
<!-- n11&#45;&gt;n9 -->
<g id="edge27" class="edge"><title>n11&#45;&gt;n9</title>
<path fill="none" stroke="#00cd00" d="M442.88,-384.232C449.515,-389.72 456.709,-395.944 463,-402 471.161,-409.856 479.598,-418.937 486.931,-427.187"/>
<polygon fill="#00cd00" stroke="#00cd00" points="484.355,-429.559 493.577,-434.775 489.621,-424.947 484.355,-429.559"/>
<text text-anchor="middle" x="490" y="-405.8" font-family="Times New Roman,serif" font-size="14.00">step</text>
</g>
<!-- n12 -->
<g id="node12" class="node"><title>n12</title>
<g id="a_node12"><a xlink:href="file:///C:/sadl/git/RACK/RACK-Ontology/Graphs/PROV-S.owl.svg" xlink:title="provs:AGENT">
<polygon fill="#00008b" stroke="black" points="201.5,-297 102.5,-297 102.5,-261 201.5,-261 201.5,-297"/>
<text text-anchor="middle" x="152" y="-275.3" font-family="Times New Roman,serif" font-size="14.00" fill="white">provs:AGENT</text>
</a>
</g>
</g>
<!-- n13 -->
<g id="node13" class="node"><title>n13</title>
<polygon fill="#00008b" stroke="black" points="88,-210 0,-210 0,-174 88,-174 88,-210"/>
<text text-anchor="middle" x="44" y="-188.3" font-family="Times New Roman,serif" font-size="14.00" fill="white">COMPILER</text>
</g>
<!-- n12&#45;&gt;n13 -->
<g id="edge8" class="edge"><title>n12&#45;&gt;n13</title>
<path fill="none" stroke="blue" stroke-dasharray="5,2" d="M122.162,-260.939C113.475,-255.554 104.138,-249.344 96,-243 86.0689,-235.257 75.9174,-225.884 67.2505,-217.355"/>
<polygon fill="blue" stroke="blue" points="69.5973,-214.751 60.0591,-210.139 64.6392,-219.693 69.5973,-214.751"/>
<text text-anchor="middle" x="122" y="-231.8" font-family="Times New Roman,serif" font-size="14.00">subClass</text>
</g>
<!-- n20 -->
<g id="node20" class="node"><title>n20</title>
<polygon fill="#00008b" stroke="black" points="198,-210 106,-210 106,-174 198,-174 198,-210"/>
<text text-anchor="middle" x="152" y="-188.3" font-family="Times New Roman,serif" font-size="14.00" fill="white">PACKAGER</text>
</g>
<!-- n12&#45;&gt;n20 -->
<g id="edge14" class="edge"><title>n12&#45;&gt;n20</title>
<path fill="none" stroke="blue" stroke-dasharray="5,2" d="M152,-260.799C152,-249.163 152,-233.548 152,-220.237"/>
<polygon fill="blue" stroke="blue" points="155.5,-220.175 152,-210.175 148.5,-220.175 155.5,-220.175"/>
<text text-anchor="middle" x="178" y="-231.8" font-family="Times New Roman,serif" font-size="14.00">subClass</text>
</g>
<!-- n26 -->
<g id="node26" class="node"><title>n26</title>
<polygon fill="#00008b" stroke="black" points="364,-210 216,-210 216,-174 364,-174 364,-210"/>
<text text-anchor="middle" x="290" y="-188.3" font-family="Times New Roman,serif" font-size="14.00" fill="white">CODE_GENERATOR</text>
</g>
<!-- n12&#45;&gt;n26 -->
<g id="edge19" class="edge"><title>n12&#45;&gt;n26</title>
<path fill="none" stroke="blue" stroke-dasharray="5,2" d="M179.926,-260.799C201.063,-247.78 230.284,-229.781 253.308,-215.6"/>
<polygon fill="blue" stroke="blue" points="255.436,-218.4 262.115,-210.175 251.765,-212.44 255.436,-218.4"/>
<text text-anchor="middle" x="256" y="-231.8" font-family="Times New Roman,serif" font-size="14.00">subClass</text>
</g>
<!-- n14 -->
<g id="node14" class="node"><title>n14</title>
<ellipse fill="blue" stroke="black" cx="1324" cy="-540" rx="39.7935" ry="18"/>
<text text-anchor="middle" x="1324" y="-536.3" font-family="Times New Roman,serif" font-size="14.00" fill="white">satisfies</text>
</g>
<!-- n15 -->
<g id="node15" class="node"><title>n15</title>
<g id="a_node15"><a xlink:href="file:///C:/sadl/git/RACK/RACK-Ontology/Graphs/PROV-S.owl.svg" xlink:title="provs:wasDerivedFrom">
<polygon fill="none" stroke="#00cd00" points="1449.23,-445.544 1449.23,-460.456 1388.18,-471 1301.82,-471 1240.77,-460.456 1240.77,-445.544 1301.82,-435 1388.18,-435 1449.23,-445.544"/>
<text text-anchor="middle" x="1345" y="-449.3" font-family="Times New Roman,serif" font-size="14.00">provs:wasDerivedFrom</text>
</a>
</g>
</g>
<!-- n14&#45;&gt;n15 -->
<g id="edge9" class="edge"><title>n14&#45;&gt;n15</title>
<path fill="none" stroke="#00cd00" d="M1322.26,-521.572C1321.8,-511.822 1322.09,-499.545 1325,-489 1325.83,-485.994 1326.98,-482.974 1328.31,-480.036"/>
<polygon fill="#00cd00" stroke="#00cd00" points="1331.47,-481.531 1333,-471.047 1325.27,-478.289 1331.47,-481.531"/>
<text text-anchor="middle" x="1367.5" y="-492.8" font-family="Times New Roman,serif" font-size="14.00">subPropertyOf</text>
</g>
<!-- n16 -->
<g id="node16" class="node"><title>n16</title>
<ellipse fill="blue" stroke="black" cx="1432" cy="-540" rx="42.4939" ry="18"/>
<text text-anchor="middle" x="1432" y="-536.3" font-family="Times New Roman,serif" font-size="14.00" fill="white">language</text>
</g>
<!-- n16&#45;&gt;n15 -->
<g id="edge10" class="edge"><title>n16&#45;&gt;n15</title>
<path fill="none" stroke="#00cd00" d="M1427.49,-521.644C1424.08,-511.202 1418.49,-498.196 1410,-489 1405.72,-484.366 1400.68,-480.22 1395.34,-476.546"/>
<polygon fill="#00cd00" stroke="#00cd00" points="1397.08,-473.508 1386.75,-471.158 1393.36,-479.437 1397.08,-473.508"/>
<text text-anchor="middle" x="1463.5" y="-492.8" font-family="Times New Roman,serif" font-size="14.00">subPropertyOf</text>
</g>
<!-- n21 -->
<g id="node21" class="node"><title>n21</title>
<ellipse fill="blue" stroke="black" cx="1214" cy="-540" rx="48.9926" ry="18"/>
<text text-anchor="middle" x="1214" y="-536.3" font-family="Times New Roman,serif" font-size="14.00" fill="white">referenced</text>
</g>
<!-- n21&#45;&gt;n8 -->
<g id="edge15" class="edge"><title>n21&#45;&gt;n8</title>
<path fill="none" stroke="#00cd00" d="M1209.14,-521.956C1205.59,-511.632 1199.99,-498.639 1192,-489 1187.86,-484.008 1182.84,-479.423 1177.58,-475.332"/>
<polygon fill="#00cd00" stroke="#00cd00" points="1179.38,-472.313 1169.21,-469.322 1175.29,-477.998 1179.38,-472.313"/>
<text text-anchor="middle" x="1243.5" y="-492.8" font-family="Times New Roman,serif" font-size="14.00">subPropertyOf</text>
</g>
<!-- n22 -->
<g id="node22" class="node"><title>n22</title>
<ellipse fill="blue" stroke="black" cx="1566" cy="-540" rx="27" ry="18"/>
<text text-anchor="middle" x="1566" y="-536.3" font-family="Times New Roman,serif" font-size="14.00" fill="white">step</text>
</g>
<!-- n23 -->
<g id="node23" class="node"><title>n23</title>
<g id="a_node23"><a xlink:href="file:///C:/sadl/git/RACK/RACK-Ontology/Graphs/PROV-S.owl.svg" xlink:title="provs:wasInformedBy">
<polygon fill="none" stroke="#00cd00" points="1665.39,-445.544 1665.39,-460.456 1607.17,-471 1524.83,-471 1466.61,-460.456 1466.61,-445.544 1524.83,-435 1607.17,-435 1665.39,-445.544"/>
<text text-anchor="middle" x="1566" y="-449.3" font-family="Times New Roman,serif" font-size="14.00">provs:wasInformedBy</text>
</a>
</g>
</g>
<!-- n22&#45;&gt;n23 -->
<g id="edge16" class="edge"><title>n22&#45;&gt;n23</title>
<path fill="none" stroke="#00cd00" d="M1566,-521.799C1566,-510.163 1566,-494.548 1566,-481.237"/>
<polygon fill="#00cd00" stroke="#00cd00" points="1569.5,-481.175 1566,-471.175 1562.5,-481.175 1569.5,-481.175"/>
<text text-anchor="middle" x="1608.5" y="-492.8" font-family="Times New Roman,serif" font-size="14.00">subPropertyOf</text>
</g>
<!-- n25&#45;&gt;n1 -->
<g id="edge25" class="edge"><title>n25&#45;&gt;n1</title>
<path fill="none" stroke="#00cd00" d="M907.743,-210.281C912.191,-220.694 915.071,-233.697 908,-243 899.71,-253.906 871.236,-262.308 843.45,-268.142"/>
<polygon fill="#00cd00" stroke="#00cd00" points="842.402,-264.783 833.283,-270.176 843.775,-271.647 842.402,-264.783"/>
<text text-anchor="middle" x="935.5" y="-231.8" font-family="Times New Roman,serif" font-size="14.00">satisfies</text>
</g>
<!-- n25&#45;&gt;n3 -->
<g id="edge28" class="edge"><title>n25&#45;&gt;n3</title>
<path fill="none" stroke="#00cd00" d="M851.804,-176.773C804.085,-162.077 729.563,-139.126 678.397,-123.369"/>
<polygon fill="#00cd00" stroke="#00cd00" points="679.396,-120.014 668.809,-120.416 677.336,-126.704 679.396,-120.014"/>
<text text-anchor="middle" x="801.5" y="-144.8" font-family="Times New Roman,serif" font-size="14.00">language</text>
</g>
<!-- n27&#45;&gt;n1 -->
<g id="edge24" class="edge"><title>n27&#45;&gt;n1</title>
<path fill="none" stroke="#00cd00" d="M745.773,-347.763C739.118,-338.073 733.869,-325.792 739,-315 740.86,-311.088 743.395,-307.47 746.309,-304.163"/>
<polygon fill="#00cd00" stroke="#00cd00" points="748.928,-306.499 753.662,-297.021 744.05,-301.478 748.928,-306.499"/>
<text text-anchor="middle" x="773" y="-318.8" font-family="Times New Roman,serif" font-size="14.00">governedBy</text>
</g>
<!-- n27&#45;&gt;n1 -->
<g id="edge26" class="edge"><title>n27&#45;&gt;n1</title>
<path fill="none" stroke="#00cd00" d="M791.749,-347.939C797.896,-343.002 803.524,-337.013 807,-330 810.946,-322.04 808.873,-313.378 804.58,-305.536"/>
<polygon fill="#00cd00" stroke="#00cd00" points="807.437,-303.511 798.994,-297.11 801.603,-307.379 807.437,-303.511"/>
<text text-anchor="middle" x="839.5" y="-318.8" font-family="Times New Roman,serif" font-size="14.00">referenced</text>
</g>
<!-- n27&#45;&gt;n12 -->
<g id="edge32" class="edge"><title>n27&#45;&gt;n12</title>
<path fill="none" stroke="#00cd00" d="M678.778,-349.588C675.478,-349.039 672.209,-348.507 669,-348 503.996,-321.922 308.251,-298.108 211.811,-286.844"/>
<polygon fill="#00cd00" stroke="#00cd00" points="212.008,-283.343 201.67,-285.663 211.198,-290.296 212.008,-283.343"/>
<text text-anchor="middle" x="560" y="-318.8" font-family="Times New Roman,serif" font-size="14.00">author</text>
</g>
<!-- n30 -->
<g id="node30" class="node"><title>n30</title>
<ellipse fill="blue" stroke="black" cx="1786" cy="-540" rx="42.4939" ry="18"/>
<text text-anchor="middle" x="1786" y="-536.3" font-family="Times New Roman,serif" font-size="14.00" fill="white">createBy</text>
</g>
<!-- n31 -->
<g id="node31" class="node"><title>n31</title>
<g id="a_node31"><a xlink:href="file:///C:/sadl/git/RACK/RACK-Ontology/Graphs/PROV-S.owl.svg" xlink:title="provs:wasGeneratedBy">
<polygon fill="none" stroke="#00cd00" points="1888.92,-445.544 1888.92,-460.456 1828.63,-471 1743.37,-471 1683.08,-460.456 1683.08,-445.544 1743.37,-435 1828.63,-435 1888.92,-445.544"/>
<text text-anchor="middle" x="1786" y="-449.3" font-family="Times New Roman,serif" font-size="14.00">provs:wasGeneratedBy</text>
</a>
</g>
</g>
<!-- n30&#45;&gt;n31 -->
<g id="edge23" class="edge"><title>n30&#45;&gt;n31</title>
<path fill="none" stroke="#00cd00" d="M1786,-521.799C1786,-510.163 1786,-494.548 1786,-481.237"/>
<polygon fill="#00cd00" stroke="#00cd00" points="1789.5,-481.175 1786,-471.175 1782.5,-481.175 1789.5,-481.175"/>
<text text-anchor="middle" x="1828.5" y="-492.8" font-family="Times New Roman,serif" font-size="14.00">subPropertyOf</text>
</g>
<!-- n32 -->
<g id="node32" class="node"><title>n32</title>
<polygon fill="#00008b" stroke="black" points="757.5,-558 258.5,-558 258.5,-522 757.5,-522 757.5,-558"/>
<text text-anchor="middle" x="508" y="-536.3" font-family="Times New Roman,serif" font-size="14.00" fill="white">CODE_FILE or CONFIG_FILE or OBJECT_FILE or LIBRARY or EXECUTABLE</text>
</g>
<!-- n32&#45;&gt;n9 -->
<g id="edge29" class="edge"><title>n32&#45;&gt;n9</title>
<path fill="none" stroke="#00cd00" d="M508,-521.799C508,-510.163 508,-494.548 508,-481.237"/>
<polygon fill="#00cd00" stroke="#00cd00" points="511.5,-481.175 508,-471.175 504.5,-481.175 511.5,-481.175"/>
<text text-anchor="middle" x="532.5" y="-492.8" font-family="Times New Roman,serif" font-size="14.00">createBy</text>
</g>
<!-- n34 -->
<g id="node34" class="node"><title>n34</title>
<polygon fill="#00008b" stroke="black" points="277.5,-384 20.5,-384 20.5,-348 277.5,-348 277.5,-384"/>
<text text-anchor="middle" x="149" y="-362.3" font-family="Times New Roman,serif" font-size="14.00" fill="white">CODE_GEN or COMPILE or PACKAGE</text>
</g>
<!-- n34&#45;&gt;n12 -->
<g id="edge31" class="edge"><title>n34&#45;&gt;n12</title>
<path fill="none" stroke="#00cd00" d="M149.607,-347.799C150.018,-336.163 150.569,-320.548 151.039,-307.237"/>
<polygon fill="#00cd00" stroke="#00cd00" points="154.539,-307.293 151.394,-297.175 147.543,-307.046 154.539,-307.293"/>
<text text-anchor="middle" x="188.5" y="-318.8" font-family="Times New Roman,serif" font-size="14.00">performedBy</text>
</g>
</g>
</svg>
