<?xml version="1.0" encoding="UTF-8" standalone="no"?>
<!DOCTYPE svg PUBLIC "-//W3C//DTD SVG 1.1//EN"
 "http://www.w3.org/Graphics/SVG/1.1/DTD/svg11.dtd">
<!-- Generated by graphviz version 2.38.0 (20140413.2041)
 -->
<!-- Title: gsys Pages: 1 -->
<svg width="1253pt" height="415pt"
 viewBox="0.00 0.00 1253.45 415.00" xmlns="http://www.w3.org/2000/svg" xmlns:xlink="http://www.w3.org/1999/xlink">
<g id="graph0" class="graph" transform="scale(1 1) rotate(0) translate(4 411)">
<title>gsys</title>
<polygon fill="white" stroke="none" points="-4,4 -4,-411 1249.45,-411 1249.45,4 -4,4"/>
<text text-anchor="middle" x="86.5" y="-391.8" font-family="Times New Roman,serif" font-size="14.00">Graph of Ontology File: sys</text>
<!-- n1 -->
<g id="node1" class="node"><title>n1</title>
<ellipse fill="blue" stroke="black" cx="34.4469" cy="-366" rx="34.394" ry="18"/>
<text text-anchor="middle" x="34.4469" y="-362.3" font-family="Times New Roman,serif" font-size="14.00" fill="white">partOf</text>
</g>
<!-- n2 -->
<g id="node2" class="node"><title>n2</title>
<g id="a_node2"><a xlink:href="file:///C:/Sadl3Workspace4/RACK-Ontology-7-29/Graphs/PROV-S.owl.svg" xlink:title="provs:wasDerivedFrom">
<polygon fill="none" stroke="#00cd00" points="354.681,-271.544 354.681,-286.456 293.622,-297 207.272,-297 146.213,-286.456 146.213,-271.544 207.272,-261 293.622,-261 354.681,-271.544"/>
<text text-anchor="middle" x="250.447" y="-275.3" font-family="Times New Roman,serif" font-size="14.00">provs:wasDerivedFrom</text>
</a>
</g>
</g>
<!-- n1&#45;&gt;n2 -->
<g id="edge1" class="edge"><title>n1&#45;&gt;n2</title>
<path fill="none" stroke="#00cd00" d="M40.0423,-348.017C44.5935,-336.896 52.137,-322.991 63.4469,-315 78.3971,-304.437 115.459,-296.459 152.682,-290.809"/>
<polygon fill="#00cd00" stroke="#00cd00" points="153.262,-294.261 162.649,-289.349 152.247,-287.335 153.262,-294.261"/>
<text text-anchor="middle" x="105.947" y="-318.8" font-family="Times New Roman,serif" font-size="14.00">subPropertyOf</text>
</g>
<!-- n3 -->
<g id="node3" class="node"><title>n3</title>
<ellipse fill="blue" stroke="black" cx="575.447" cy="-366" rx="55.7903" ry="18"/>
<text text-anchor="middle" x="575.447" y="-362.3" font-family="Times New Roman,serif" font-size="14.00" fill="white">producedBy</text>
</g>
<!-- n4 -->
<g id="node4" class="node"><title>n4</title>
<g id="a_node4"><a xlink:href="file:///C:/Sadl3Workspace4/RACK-Ontology-7-29/Graphs/PROV-S.owl.svg" xlink:title="provs:wasGeneratedBy">
<polygon fill="none" stroke="#00cd00" points="742.367,-271.544 742.367,-286.456 682.078,-297 596.816,-297 536.527,-286.456 536.527,-271.544 596.816,-261 682.078,-261 742.367,-271.544"/>
<text text-anchor="middle" x="639.447" y="-275.3" font-family="Times New Roman,serif" font-size="14.00">provs:wasGeneratedBy</text>
</a>
</g>
</g>
<!-- n3&#45;&gt;n4 -->
<g id="edge2" class="edge"><title>n3&#45;&gt;n4</title>
<path fill="none" stroke="#00cd00" d="M580.37,-347.707C583.811,-337.539 589.112,-324.798 596.447,-315 599.393,-311.065 602.874,-307.308 606.56,-303.813"/>
<polygon fill="#00cd00" stroke="#00cd00" points="609.084,-306.255 614.308,-297.037 604.476,-300.986 609.084,-306.255"/>
<text text-anchor="middle" x="638.947" y="-318.8" font-family="Times New Roman,serif" font-size="14.00">subPropertyOf</text>
</g>
<!-- n5 -->
<g id="node5" class="node"><title>n5</title>
<ellipse fill="blue" stroke="black" cx="142.447" cy="-366" rx="50.0912" ry="18"/>
<text text-anchor="middle" x="142.447" y="-362.3" font-family="Times New Roman,serif" font-size="14.00" fill="white">destination</text>
</g>
<!-- n5&#45;&gt;n2 -->
<g id="edge3" class="edge"><title>n5&#45;&gt;n2</title>
<path fill="none" stroke="#00cd00" d="M145.319,-347.786C147.903,-337.134 152.699,-323.849 161.447,-315 167.723,-308.651 175.288,-303.426 183.325,-299.131"/>
<polygon fill="#00cd00" stroke="#00cd00" points="185.075,-302.172 192.555,-294.668 182.028,-295.871 185.075,-302.172"/>
<text text-anchor="middle" x="203.947" y="-318.8" font-family="Times New Roman,serif" font-size="14.00">subPropertyOf</text>
</g>
<!-- n6 -->
<g id="node6" class="node"><title>n6</title>
<ellipse fill="blue" stroke="black" cx="250.447" cy="-366" rx="39.7935" ry="18"/>
<text text-anchor="middle" x="250.447" y="-362.3" font-family="Times New Roman,serif" font-size="14.00" fill="white">requires</text>
</g>
<!-- n6&#45;&gt;n2 -->
<g id="edge4" class="edge"><title>n6&#45;&gt;n2</title>
<path fill="none" stroke="#00cd00" d="M250.447,-347.799C250.447,-336.163 250.447,-320.548 250.447,-307.237"/>
<polygon fill="#00cd00" stroke="#00cd00" points="253.947,-307.175 250.447,-297.175 246.947,-307.175 253.947,-307.175"/>
<text text-anchor="middle" x="292.947" y="-318.8" font-family="Times New Roman,serif" font-size="14.00">subPropertyOf</text>
</g>
<!-- n7 -->
<g id="node7" class="node"><title>n7</title>
<g id="a_node7"><a xlink:href="file:///C:/Sadl3Workspace4/RACK-Ontology-7-29/Graphs/PROV-S.owl.svg" xlink:title="provs:ENTITY">
<polygon fill="#00008b" stroke="black" points="1069.45,-384 967.447,-384 967.447,-348 1069.45,-348 1069.45,-384"/>
<text text-anchor="middle" x="1018.45" y="-362.3" font-family="Times New Roman,serif" font-size="14.00" fill="white">provs:ENTITY</text>
</a>
</g>
</g>
<!-- n8 -->
<g id="node8" class="node"><title>n8</title>
<polygon fill="#00008b" stroke="black" points="994.447,-297 922.447,-297 922.447,-261 994.447,-261 994.447,-297"/>
<text text-anchor="middle" x="958.447" y="-275.3" font-family="Times New Roman,serif" font-size="14.00" fill="white">SYSTEM</text>
</g>
<!-- n7&#45;&gt;n8 -->
<g id="edge5" class="edge"><title>n7&#45;&gt;n8</title>
<path fill="none" stroke="blue" stroke-dasharray="5,2" d="M967.169,-363.594C912.723,-360.892 831.873,-353.005 812.447,-330 782.71,-294.785 858.87,-284.319 912.031,-281.243"/>
<polygon fill="blue" stroke="blue" points="912.508,-284.723 922.318,-280.721 912.153,-277.732 912.508,-284.723"/>
<text text-anchor="middle" x="838.447" y="-318.8" font-family="Times New Roman,serif" font-size="14.00">subClass</text>
</g>
<!-- n9 -->
<g id="node9" class="node"><title>n9</title>
<polygon fill="#00008b" stroke="black" points="1170.45,-297 1076.45,-297 1076.45,-261 1170.45,-261 1170.45,-297"/>
<text text-anchor="middle" x="1123.45" y="-275.3" font-family="Times New Roman,serif" font-size="14.00" fill="white">INTERFACE</text>
</g>
<!-- n7&#45;&gt;n9 -->
<g id="edge6" class="edge"><title>n7&#45;&gt;n9</title>
<path fill="none" stroke="blue" stroke-dasharray="5,2" d="M1039.7,-347.799C1055.35,-335.126 1076.83,-317.734 1094.12,-303.738"/>
<polygon fill="blue" stroke="blue" points="1096.66,-306.188 1102.23,-297.175 1092.26,-300.747 1096.66,-306.188"/>
<text text-anchor="middle" x="1103.45" y="-318.8" font-family="Times New Roman,serif" font-size="14.00">subClass</text>
</g>
<!-- n8&#45;&gt;n7 -->
<g id="edge11" class="edge"><title>n8&#45;&gt;n7</title>
<path fill="none" stroke="#00cd00" d="M921.976,-290.45C898.342,-299.113 874.225,-312.781 887.447,-330 896.367,-341.616 927.566,-350.209 957.278,-355.973"/>
<polygon fill="#00cd00" stroke="#00cd00" points="956.794,-359.443 967.263,-357.82 958.067,-352.56 956.794,-359.443"/>
<text text-anchor="middle" x="911.947" y="-318.8" font-family="Times New Roman,serif" font-size="14.00">provides</text>
</g>
<!-- n8&#45;&gt;n7 -->
<g id="edge12" class="edge"><title>n8&#45;&gt;n7</title>
<path fill="none" stroke="#00cd00" d="M954.805,-297.327C953.594,-307.507 953.764,-320.248 959.447,-330 961.939,-334.277 965.178,-338.087 968.854,-341.47"/>
<polygon fill="#00cd00" stroke="#00cd00" points="966.897,-344.384 976.917,-347.826 971.23,-338.887 966.897,-344.384"/>
<text text-anchor="middle" x="977.947" y="-318.8" font-family="Times New Roman,serif" font-size="14.00">partOf</text>
</g>
<!-- n8&#45;&gt;n7 -->
<g id="edge15" class="edge"><title>n8&#45;&gt;n7</title>
<path fill="none" stroke="#00cd00" d="M980.134,-297.139C985.933,-302.436 991.858,-308.578 996.447,-315 1001.54,-322.131 1005.83,-330.63 1009.22,-338.58"/>
<polygon fill="#00cd00" stroke="#00cd00" points="1005.97,-339.875 1012.91,-347.876 1012.47,-337.29 1005.97,-339.875"/>
<text text-anchor="middle" x="1027.95" y="-318.8" font-family="Times New Roman,serif" font-size="14.00">requires</text>
</g>
<!-- n10 -->
<g id="node10" class="node"><title>n10</title>
<g id="a_node10"><a xlink:href="file:///C:/Sadl3Workspace4/RACK-Ontology-7-29/Graphs/PROV-S.owl.svg" xlink:title="provs:ACTIVITY">
<polygon fill="#00008b" stroke="black" points="1108.45,-210 990.447,-210 990.447,-174 1108.45,-174 1108.45,-210"/>
<text text-anchor="middle" x="1049.45" y="-188.3" font-family="Times New Roman,serif" font-size="14.00" fill="white">provs:ACTIVITY</text>
</a>
</g>
</g>
<!-- n8&#45;&gt;n10 -->
<g id="edge14" class="edge"><title>n8&#45;&gt;n10</title>
<path fill="none" stroke="#00cd00" d="M974.792,-260.999C984.407,-251.165 996.907,-238.665 1008.45,-228 1012.48,-224.268 1016.83,-220.406 1021.13,-216.67"/>
<polygon fill="#00cd00" stroke="#00cd00" points="1023.43,-219.306 1028.73,-210.136 1018.87,-213.996 1023.43,-219.306"/>
<text text-anchor="middle" x="1043.45" y="-231.8" font-family="Times New Roman,serif" font-size="14.00">producedBy</text>
</g>
<!-- n9&#45;&gt;n7 -->
<g id="edge13" class="edge"><title>n9&#45;&gt;n7</title>
<path fill="none" stroke="#00cd00" d="M1133.11,-297.22C1137.53,-307.611 1140.4,-320.611 1133.45,-330 1120.79,-347.076 1100.01,-356.105 1079.57,-360.787"/>
<polygon fill="#00cd00" stroke="#00cd00" points="1078.73,-357.385 1069.59,-362.752 1080.08,-364.252 1078.73,-357.385"/>
<text text-anchor="middle" x="1157.45" y="-318.8" font-family="Times New Roman,serif" font-size="14.00">source</text>
</g>
<!-- n9&#45;&gt;n7 -->
<g id="edge18" class="edge"><title>n9&#45;&gt;n7</title>
<path fill="none" stroke="#00cd00" d="M1163.4,-297.159C1178.66,-306.149 1190.28,-317.81 1180.45,-330 1167.74,-345.74 1120.14,-354.747 1079.79,-359.67"/>
<polygon fill="#00cd00" stroke="#00cd00" points="1079.25,-356.21 1069.72,-360.835 1080.05,-363.163 1079.25,-356.21"/>
<text text-anchor="middle" x="1214.95" y="-318.8" font-family="Times New Roman,serif" font-size="14.00">destination</text>
</g>
<!-- n9&#45;&gt;n10 -->
<g id="edge17" class="edge"><title>n9&#45;&gt;n10</title>
<path fill="none" stroke="#00cd00" d="M1108.47,-260.799C1097.74,-248.471 1083.12,-231.679 1071.12,-217.89"/>
<polygon fill="#00cd00" stroke="#00cd00" points="1073.61,-215.42 1064.4,-210.175 1068.33,-220.016 1073.61,-215.42"/>
<text text-anchor="middle" x="1124.95" y="-231.8" font-family="Times New Roman,serif" font-size="14.00">identifiedBy</text>
</g>
<!-- n11 -->
<g id="node11" class="node"><title>n11</title>
<polygon fill="#00008b" stroke="black" points="1140.45,-123 958.447,-123 958.447,-87 1140.45,-87 1140.45,-123"/>
<text text-anchor="middle" x="1049.45" y="-101.3" font-family="Times New Roman,serif" font-size="14.00" fill="white">SYSTEM_DEVELOPMENT</text>
</g>
<!-- n10&#45;&gt;n11 -->
<g id="edge7" class="edge"><title>n10&#45;&gt;n11</title>
<path fill="none" stroke="blue" stroke-dasharray="5,2" d="M1049.45,-173.799C1049.45,-162.163 1049.45,-146.548 1049.45,-133.237"/>
<polygon fill="blue" stroke="blue" points="1052.95,-133.175 1049.45,-123.175 1045.95,-133.175 1052.95,-133.175"/>
<text text-anchor="middle" x="1075.45" y="-144.8" font-family="Times New Roman,serif" font-size="14.00">subClass</text>
</g>
<!-- n15 -->
<g id="node15" class="node"><title>n15</title>
<g id="a_node15"><a xlink:href="file:///C:/Sadl3Workspace4/RACK-Ontology-7-29/Graphs/PROV-S.owl.svg" xlink:title="provs:AGENT">
<polygon fill="#00008b" stroke="black" points="1098.95,-36 999.947,-36 999.947,-0 1098.95,-0 1098.95,-36"/>
<text text-anchor="middle" x="1049.45" y="-14.3" font-family="Times New Roman,serif" font-size="14.00" fill="white">provs:AGENT</text>
</a>
</g>
</g>
<!-- n11&#45;&gt;n15 -->
<g id="edge16" class="edge"><title>n11&#45;&gt;n15</title>
<path fill="none" stroke="#00cd00" d="M1049.45,-86.799C1049.45,-75.1626 1049.45,-59.5479 1049.45,-46.2368"/>
<polygon fill="#00cd00" stroke="#00cd00" points="1052.95,-46.1754 1049.45,-36.1754 1045.95,-46.1755 1052.95,-46.1754"/>
<text text-anchor="middle" x="1086.45" y="-57.8" font-family="Times New Roman,serif" font-size="14.00">developedBy</text>
</g>
<!-- n12 -->
<g id="node12" class="node"><title>n12</title>
<ellipse fill="blue" stroke="black" cx="703.447" cy="-366" rx="53.8905" ry="18"/>
<text text-anchor="middle" x="703.447" y="-362.3" font-family="Times New Roman,serif" font-size="14.00" fill="white">identifiedBy</text>
</g>
<!-- n12&#45;&gt;n4 -->
<g id="edge8" class="edge"><title>n12&#45;&gt;n4</title>
<path fill="none" stroke="#00cd00" d="M698.093,-347.744C694.419,-337.59 688.862,-324.85 681.447,-315 678.532,-311.128 675.109,-307.408 671.496,-303.934"/>
<polygon fill="#00cd00" stroke="#00cd00" points="673.711,-301.219 663.917,-297.177 669.053,-306.444 673.711,-301.219"/>
<text text-anchor="middle" x="732.947" y="-318.8" font-family="Times New Roman,serif" font-size="14.00">subPropertyOf</text>
</g>
<!-- n13 -->
<g id="node13" class="node"><title>n13</title>
<ellipse fill="blue" stroke="black" cx="358.447" cy="-366" rx="42.4939" ry="18"/>
<text text-anchor="middle" x="358.447" y="-362.3" font-family="Times New Roman,serif" font-size="14.00" fill="white">provides</text>
</g>
<!-- n13&#45;&gt;n2 -->
<g id="edge9" class="edge"><title>n13&#45;&gt;n2</title>
<path fill="none" stroke="#00cd00" d="M354.427,-347.793C351.159,-337.143 345.558,-323.859 336.447,-315 330.149,-308.876 322.636,-303.774 314.71,-299.535"/>
<polygon fill="#00cd00" stroke="#00cd00" points="316.152,-296.344 305.629,-295.108 313.084,-302.636 316.152,-296.344"/>
<text text-anchor="middle" x="389.947" y="-318.8" font-family="Times New Roman,serif" font-size="14.00">subPropertyOf</text>
</g>
<!-- n14 -->
<g id="node14" class="node"><title>n14</title>
<ellipse fill="blue" stroke="black" cx="466.447" cy="-366" rx="35.194" ry="18"/>
<text text-anchor="middle" x="466.447" y="-362.3" font-family="Times New Roman,serif" font-size="14.00" fill="white">source</text>
</g>
<!-- n14&#45;&gt;n2 -->
<g id="edge10" class="edge"><title>n14&#45;&gt;n2</title>
<path fill="none" stroke="#00cd00" d="M460.509,-348.011C455.734,-336.888 447.912,-322.982 436.447,-315 421.471,-304.573 384.475,-296.605 347.387,-290.926"/>
<polygon fill="#00cd00" stroke="#00cd00" points="347.862,-287.458 337.457,-289.458 346.838,-294.383 347.862,-287.458"/>
<text text-anchor="middle" x="493.947" y="-318.8" font-family="Times New Roman,serif" font-size="14.00">subPropertyOf</text>
</g>
</g>
</svg>
