<?xml version="1.0" encoding="UTF-8" standalone="no"?>
<!DOCTYPE svg PUBLIC "-//W3C//DTD SVG 1.1//EN"
 "http://www.w3.org/Graphics/SVG/1.1/DTD/svg11.dtd">
<!-- Generated by graphviz version 2.38.0 (20140413.2041)
 -->
<!-- Title: gsys Pages: 1 -->
<svg width="1152pt" height="415pt"
 viewBox="0.00 0.00 1152.45 415.00" xmlns="http://www.w3.org/2000/svg" xmlns:xlink="http://www.w3.org/1999/xlink">
<g id="graph0" class="graph" transform="scale(1 1) rotate(0) translate(4 411)">
<title>gsys</title>
<polygon fill="white" stroke="none" points="-4,4 -4,-411 1148.45,-411 1148.45,4 -4,4"/>
<text text-anchor="middle" x="86.5" y="-391.8" font-family="Times New Roman,serif" font-size="14.00">Graph of Ontology File: sys</text>
<!-- n1 -->
<g id="node1" class="node"><title>n1</title>
<ellipse fill="blue" stroke="black" cx="34.4469" cy="-366" rx="34.394" ry="18"/>
<text text-anchor="middle" x="34.4469" y="-362.3" font-family="Times New Roman,serif" font-size="14.00" fill="white">partOf</text>
</g>
<!-- n2 -->
<g id="node2" class="node"><title>n2</title>
<g id="a_node2"><a xlink:href="file:///C:/sadl/git/RACK/RACK-Ontology/Graphs/PROV-S.owl.svg" xlink:title="provs:wasDerivedFrom">
<polygon fill="none" stroke="#00cd00" points="354.681,-271.544 354.681,-286.456 293.622,-297 207.272,-297 146.213,-286.456 146.213,-271.544 207.272,-261 293.622,-261 354.681,-271.544"/>
<text text-anchor="middle" x="250.447" y="-275.3" font-family="Times New Roman,serif" font-size="14.00">provs:wasDerivedFrom</text>
</a>
</g>
</g>
<!-- n1&#45;&gt;n2 -->
<g id="edge1" class="edge"><title>n1&#45;&gt;n2</title>
<path fill="none" stroke="#00cd00" d="M40.0423,-348.017C44.5935,-336.896 52.137,-322.991 63.4469,-315 78.3971,-304.437 115.459,-296.459 152.682,-290.809"/>
<polygon fill="#00cd00" stroke="#00cd00" points="153.262,-294.261 162.649,-289.349 152.247,-287.335 153.262,-294.261"/>
<text text-anchor="middle" x="105.947" y="-318.8" font-family="Times New Roman,serif" font-size="14.00">subPropertyOf</text>
</g>
<!-- n3 -->
<g id="node3" class="node"><title>n3</title>
<ellipse fill="blue" stroke="black" cx="575.447" cy="-366" rx="55.7903" ry="18"/>
<text text-anchor="middle" x="575.447" y="-362.3" font-family="Times New Roman,serif" font-size="14.00" fill="white">producedBy</text>
</g>
<!-- n4 -->
<g id="node4" class="node"><title>n4</title>
<g id="a_node4"><a xlink:href="file:///C:/sadl/git/RACK/RACK-Ontology/Graphs/PROV-S.owl.svg" xlink:title="provs:wasGeneratedBy">
<polygon fill="none" stroke="#00cd00" points="742.367,-271.544 742.367,-286.456 682.078,-297 596.816,-297 536.527,-286.456 536.527,-271.544 596.816,-261 682.078,-261 742.367,-271.544"/>
<text text-anchor="middle" x="639.447" y="-275.3" font-family="Times New Roman,serif" font-size="14.00">provs:wasGeneratedBy</text>
</a>
</g>
</g>
<!-- n3&#45;&gt;n4 -->
<g id="edge2" class="edge"><title>n3&#45;&gt;n4</title>
<path fill="none" stroke="#00cd00" d="M580.37,-347.707C583.811,-337.539 589.112,-324.798 596.447,-315 599.393,-311.065 602.874,-307.308 606.56,-303.813"/>
<polygon fill="#00cd00" stroke="#00cd00" points="609.084,-306.255 614.308,-297.037 604.476,-300.986 609.084,-306.255"/>
<text text-anchor="middle" x="638.947" y="-318.8" font-family="Times New Roman,serif" font-size="14.00">subPropertyOf</text>
</g>
<!-- n5 -->
<g id="node5" class="node"><title>n5</title>
<ellipse fill="blue" stroke="black" cx="142.447" cy="-366" rx="50.0912" ry="18"/>
<text text-anchor="middle" x="142.447" y="-362.3" font-family="Times New Roman,serif" font-size="14.00" fill="white">destination</text>
</g>
<!-- n5&#45;&gt;n2 -->
<g id="edge3" class="edge"><title>n5&#45;&gt;n2</title>
<path fill="none" stroke="#00cd00" d="M145.319,-347.786C147.903,-337.134 152.699,-323.849 161.447,-315 167.723,-308.651 175.288,-303.426 183.325,-299.131"/>
<polygon fill="#00cd00" stroke="#00cd00" points="185.075,-302.172 192.555,-294.668 182.028,-295.871 185.075,-302.172"/>
<text text-anchor="middle" x="203.947" y="-318.8" font-family="Times New Roman,serif" font-size="14.00">subPropertyOf</text>
</g>
<!-- n6 -->
<g id="node6" class="node"><title>n6</title>
<g id="a_node6"><a xlink:href="file:///C:/sadl/git/RACK/RACK-Ontology/Graphs/PROV-S.owl.svg" xlink:title="provs:ACTIVITY">
<polygon fill="#00008b" stroke="black" points="898.447,-210 780.447,-210 780.447,-174 898.447,-174 898.447,-210"/>
<text text-anchor="middle" x="839.447" y="-188.3" font-family="Times New Roman,serif" font-size="14.00" fill="white">provs:ACTIVITY</text>
</a>
</g>
</g>
<!-- n7 -->
<g id="node7" class="node"><title>n7</title>
<polygon fill="#00008b" stroke="black" points="1058.45,-123 868.447,-123 868.447,-87 1058.45,-87 1058.45,-123"/>
<text text-anchor="middle" x="963.447" y="-101.3" font-family="Times New Roman,serif" font-size="14.00" fill="white">SYSTEM_DEVELOPEMENT</text>
</g>
<!-- n6&#45;&gt;n7 -->
<g id="edge4" class="edge"><title>n6&#45;&gt;n7</title>
<path fill="none" stroke="blue" stroke-dasharray="5,2" d="M861.807,-173.9C874.928,-164.033 891.928,-151.533 907.447,-141 913.577,-136.839 920.181,-132.548 926.629,-128.459"/>
<polygon fill="blue" stroke="blue" points="928.657,-131.319 935.266,-123.038 924.935,-125.39 928.657,-131.319"/>
<text text-anchor="middle" x="933.447" y="-144.8" font-family="Times New Roman,serif" font-size="14.00">subClass</text>
</g>
<!-- n15 -->
<g id="node15" class="node"><title>n15</title>
<g id="a_node15"><a xlink:href="file:///C:/sadl/git/RACK/RACK-Ontology/Graphs/PROV-S.owl.svg" xlink:title="provs:AGENT">
<polygon fill="#00008b" stroke="black" points="1012.95,-36 913.947,-36 913.947,-0 1012.95,-0 1012.95,-36"/>
<text text-anchor="middle" x="963.447" y="-14.3" font-family="Times New Roman,serif" font-size="14.00" fill="white">provs:AGENT</text>
</a>
</g>
</g>
<!-- n7&#45;&gt;n15 -->
<g id="edge16" class="edge"><title>n7&#45;&gt;n15</title>
<path fill="none" stroke="#00cd00" d="M963.447,-86.799C963.447,-75.1626 963.447,-59.5479 963.447,-46.2368"/>
<polygon fill="#00cd00" stroke="#00cd00" points="966.947,-46.1754 963.447,-36.1754 959.947,-46.1755 966.947,-46.1754"/>
<text text-anchor="middle" x="1000.45" y="-57.8" font-family="Times New Roman,serif" font-size="14.00">developedBy</text>
</g>
<!-- n8 -->
<g id="node8" class="node"><title>n8</title>
<ellipse fill="blue" stroke="black" cx="250.447" cy="-366" rx="39.7935" ry="18"/>
<text text-anchor="middle" x="250.447" y="-362.3" font-family="Times New Roman,serif" font-size="14.00" fill="white">requires</text>
</g>
<!-- n8&#45;&gt;n2 -->
<g id="edge5" class="edge"><title>n8&#45;&gt;n2</title>
<path fill="none" stroke="#00cd00" d="M250.447,-347.799C250.447,-336.163 250.447,-320.548 250.447,-307.237"/>
<polygon fill="#00cd00" stroke="#00cd00" points="253.947,-307.175 250.447,-297.175 246.947,-307.175 253.947,-307.175"/>
<text text-anchor="middle" x="292.947" y="-318.8" font-family="Times New Roman,serif" font-size="14.00">subPropertyOf</text>
</g>
<!-- n9 -->
<g id="node9" class="node"><title>n9</title>
<g id="a_node9"><a xlink:href="file:///C:/sadl/git/RACK/RACK-Ontology/Graphs/PROV-S.owl.svg" xlink:title="provs:ENTITY">
<polygon fill="#00008b" stroke="black" points="984.447,-297 882.447,-297 882.447,-261 984.447,-261 984.447,-297"/>
<text text-anchor="middle" x="933.447" y="-275.3" font-family="Times New Roman,serif" font-size="14.00" fill="white">provs:ENTITY</text>
</a>
</g>
</g>
<!-- n10 -->
<g id="node10" class="node"><title>n10</title>
<polygon fill="#00008b" stroke="black" points="990.447,-384 918.447,-384 918.447,-348 990.447,-348 990.447,-384"/>
<text text-anchor="middle" x="954.447" y="-362.3" font-family="Times New Roman,serif" font-size="14.00" fill="white">SYSTEM</text>
</g>
<!-- n9&#45;&gt;n10 -->
<g id="edge6" class="edge"><title>n9&#45;&gt;n10</title>
<path fill="none" stroke="blue" stroke-dasharray="5,2" d="M896.536,-297.156C882.919,-305.977 872.529,-317.496 880.447,-330 887.04,-340.412 897.658,-347.786 908.817,-352.986"/>
<polygon fill="blue" stroke="blue" points="907.662,-356.295 918.242,-356.861 910.324,-349.821 907.662,-356.295"/>
<text text-anchor="middle" x="906.447" y="-318.8" font-family="Times New Roman,serif" font-size="14.00">subClass</text>
</g>
<!-- n11 -->
<g id="node11" class="node"><title>n11</title>
<polygon fill="#00008b" stroke="black" points="1010.45,-210 916.447,-210 916.447,-174 1010.45,-174 1010.45,-210"/>
<text text-anchor="middle" x="963.447" y="-188.3" font-family="Times New Roman,serif" font-size="14.00" fill="white">INTERFACE</text>
</g>
<!-- n9&#45;&gt;n11 -->
<g id="edge7" class="edge"><title>n9&#45;&gt;n11</title>
<path fill="none" stroke="blue" stroke-dasharray="5,2" d="M882.327,-262.815C863.408,-254.442 848.861,-242.732 859.447,-228 861.084,-225.722 883.226,-218.133 906.66,-210.601"/>
<polygon fill="blue" stroke="blue" points="907.905,-213.877 916.369,-207.505 905.779,-207.208 907.905,-213.877"/>
<text text-anchor="middle" x="885.447" y="-231.8" font-family="Times New Roman,serif" font-size="14.00">subClass</text>
</g>
<!-- n10&#45;&gt;n7 -->
<g id="edge14" class="edge"><title>n10&#45;&gt;n7</title>
<path fill="none" stroke="#00cd00" d="M990.48,-360.352C1009.32,-355.89 1030.82,-347.143 1042.45,-330 1089.65,-260.426 1081.28,-210.823 1034.45,-141 1031.46,-136.549 1027.74,-132.642 1023.57,-129.216"/>
<polygon fill="#00cd00" stroke="#00cd00" points="1025.27,-126.13 1015.09,-123.205 1021.22,-131.842 1025.27,-126.13"/>
<text text-anchor="middle" x="1109.45" y="-231.8" font-family="Times New Roman,serif" font-size="14.00">producedBy</text>
</g>
<!-- n10&#45;&gt;n9 -->
<g id="edge11" class="edge"><title>n10&#45;&gt;n9</title>
<path fill="none" stroke="#00cd00" d="M950.197,-347.799C947.322,-336.163 943.465,-320.548 940.176,-307.237"/>
<polygon fill="#00cd00" stroke="#00cd00" points="943.487,-306.044 937.69,-297.175 936.691,-307.723 943.487,-306.044"/>
<text text-anchor="middle" x="969.947" y="-318.8" font-family="Times New Roman,serif" font-size="14.00">provides</text>
</g>
<!-- n10&#45;&gt;n9 -->
<g id="edge12" class="edge"><title>n10&#45;&gt;n9</title>
<path fill="none" stroke="#00cd00" d="M984.235,-347.972C996.184,-338.839 1005.62,-327.012 998.447,-315 995.764,-310.508 992.283,-306.558 988.327,-303.092"/>
<polygon fill="#00cd00" stroke="#00cd00" points="990.319,-300.211 980.22,-297.008 986.118,-305.81 990.319,-300.211"/>
<text text-anchor="middle" x="1019.95" y="-318.8" font-family="Times New Roman,serif" font-size="14.00">partOf</text>
</g>
<!-- n10&#45;&gt;n9 -->
<g id="edge15" class="edge"><title>n10&#45;&gt;n9</title>
<path fill="none" stroke="#00cd00" d="M918.247,-359.776C885.299,-354.193 840.206,-344.185 829.447,-330 813.552,-309.043 841.315,-296.431 872.136,-289.116"/>
<polygon fill="#00cd00" stroke="#00cd00" points="873.173,-292.473 882.199,-286.924 871.683,-285.633 873.173,-292.473"/>
<text text-anchor="middle" x="851.947" y="-318.8" font-family="Times New Roman,serif" font-size="14.00">requires</text>
</g>
<!-- n11&#45;&gt;n7 -->
<g id="edge17" class="edge"><title>n11&#45;&gt;n7</title>
<path fill="none" stroke="#00cd00" d="M963.447,-173.799C963.447,-162.163 963.447,-146.548 963.447,-133.237"/>
<polygon fill="#00cd00" stroke="#00cd00" points="966.947,-133.175 963.447,-123.175 959.947,-133.175 966.947,-133.175"/>
<text text-anchor="middle" x="996.947" y="-144.8" font-family="Times New Roman,serif" font-size="14.00">identifiedBy</text>
</g>
<!-- n11&#45;&gt;n9 -->
<g id="edge13" class="edge"><title>n11&#45;&gt;n9</title>
<path fill="none" stroke="#00cd00" d="M945.498,-210.027C941.05,-215.321 936.867,-221.491 934.447,-228 931.815,-235.08 930.856,-243.123 930.737,-250.656"/>
<polygon fill="#00cd00" stroke="#00cd00" points="927.244,-250.922 931.042,-260.813 934.241,-250.712 927.244,-250.922"/>
<text text-anchor="middle" x="953.447" y="-231.8" font-family="Times New Roman,serif" font-size="14.00">source</text>
</g>
<!-- n11&#45;&gt;n9 -->
<g id="edge18" class="edge"><title>n11&#45;&gt;n9</title>
<path fill="none" stroke="#00cd00" d="M971.397,-210.268C974.797,-220.19 977.047,-232.69 972.447,-243 970.785,-246.726 968.508,-250.22 965.883,-253.45"/>
<polygon fill="#00cd00" stroke="#00cd00" points="963.142,-251.253 958.793,-260.914 968.218,-256.074 963.142,-251.253"/>
<text text-anchor="middle" x="1005.95" y="-231.8" font-family="Times New Roman,serif" font-size="14.00">destination</text>
</g>
<!-- n12 -->
<g id="node12" class="node"><title>n12</title>
<ellipse fill="blue" stroke="black" cx="703.447" cy="-366" rx="53.8905" ry="18"/>
<text text-anchor="middle" x="703.447" y="-362.3" font-family="Times New Roman,serif" font-size="14.00" fill="white">identifiedBy</text>
</g>
<!-- n12&#45;&gt;n4 -->
<g id="edge8" class="edge"><title>n12&#45;&gt;n4</title>
<path fill="none" stroke="#00cd00" d="M698.093,-347.744C694.419,-337.59 688.862,-324.85 681.447,-315 678.532,-311.128 675.109,-307.408 671.496,-303.934"/>
<polygon fill="#00cd00" stroke="#00cd00" points="673.711,-301.219 663.917,-297.177 669.053,-306.444 673.711,-301.219"/>
<text text-anchor="middle" x="732.947" y="-318.8" font-family="Times New Roman,serif" font-size="14.00">subPropertyOf</text>
</g>
<!-- n13 -->
<g id="node13" class="node"><title>n13</title>
<ellipse fill="blue" stroke="black" cx="358.447" cy="-366" rx="42.4939" ry="18"/>
<text text-anchor="middle" x="358.447" y="-362.3" font-family="Times New Roman,serif" font-size="14.00" fill="white">provides</text>
</g>
<!-- n13&#45;&gt;n2 -->
<g id="edge9" class="edge"><title>n13&#45;&gt;n2</title>
<path fill="none" stroke="#00cd00" d="M354.427,-347.793C351.159,-337.143 345.558,-323.859 336.447,-315 330.149,-308.876 322.636,-303.774 314.71,-299.535"/>
<polygon fill="#00cd00" stroke="#00cd00" points="316.152,-296.344 305.629,-295.108 313.084,-302.636 316.152,-296.344"/>
<text text-anchor="middle" x="389.947" y="-318.8" font-family="Times New Roman,serif" font-size="14.00">subPropertyOf</text>
</g>
<!-- n14 -->
<g id="node14" class="node"><title>n14</title>
<ellipse fill="blue" stroke="black" cx="466.447" cy="-366" rx="35.194" ry="18"/>
<text text-anchor="middle" x="466.447" y="-362.3" font-family="Times New Roman,serif" font-size="14.00" fill="white">source</text>
</g>
<!-- n14&#45;&gt;n2 -->
<g id="edge10" class="edge"><title>n14&#45;&gt;n2</title>
<path fill="none" stroke="#00cd00" d="M460.509,-348.011C455.734,-336.888 447.912,-322.982 436.447,-315 421.471,-304.573 384.475,-296.605 347.387,-290.926"/>
<polygon fill="#00cd00" stroke="#00cd00" points="347.862,-287.458 337.457,-289.458 346.838,-294.383 347.862,-287.458"/>
<text text-anchor="middle" x="493.947" y="-318.8" font-family="Times New Roman,serif" font-size="14.00">subPropertyOf</text>
</g>
</g>
</svg>
