<?xml version="1.0" encoding="UTF-8" standalone="no"?>
<!DOCTYPE svg PUBLIC "-//W3C//DTD SVG 1.1//EN"
 "http://www.w3.org/Graphics/SVG/1.1/DTD/svg11.dtd">
<!-- Generated by graphviz version 2.38.0 (20140413.2041)
 -->
<!-- Title: gsys Pages: 1 -->
<svg width="1517pt" height="502pt"
 viewBox="0.00 0.00 1516.55 502.00" xmlns="http://www.w3.org/2000/svg" xmlns:xlink="http://www.w3.org/1999/xlink">
<g id="graph0" class="graph" transform="scale(1 1) rotate(0) translate(4 498)">
<title>gsys</title>
<polygon fill="white" stroke="none" points="-4,4 -4,-498 1512.55,-498 1512.55,4 -4,4"/>
<text text-anchor="middle" x="86.5" y="-478.8" font-family="Times New Roman,serif" font-size="14.00">Graph of Ontology File: sys</text>
<!-- n1 -->
<g id="node1" class="node"><title>n1</title>
<ellipse fill="blue" stroke="black" cx="50.0456" cy="-453" rx="50.0912" ry="18"/>
<text text-anchor="middle" x="50.0456" y="-449.3" font-family="Times New Roman,serif" font-size="14.00" fill="white">destination</text>
</g>
<!-- n2 -->
<g id="node2" class="node"><title>n2</title>
<g id="a_node2"><a xlink:href="file:///C:/Users/200001866/Documents/GitHub/RACK/RACK-Ontology/Graphs/PROV-S.owl.svg" xlink:title="provs:wasImpactedBy">
<polygon fill="none" stroke="#00cd00" points="257.838,-358.544 257.838,-373.456 199.381,-384 116.71,-384 58.2536,-373.456 58.2536,-358.544 116.71,-348 199.381,-348 257.838,-358.544"/>
<text text-anchor="middle" x="158.046" y="-362.3" font-family="Times New Roman,serif" font-size="14.00">provs:wasImpactedBy</text>
</a>
</g>
</g>
<!-- n1&#45;&gt;n2 -->
<g id="edge1" class="edge"><title>n1&#45;&gt;n2</title>
<path fill="none" stroke="#00cd00" d="M52.9178,-434.786C55.5019,-424.134 60.2976,-410.849 69.0456,-402 75.5602,-395.41 83.4645,-390.03 91.843,-385.645"/>
<polygon fill="#00cd00" stroke="#00cd00" points="93.5402,-388.714 101.077,-381.268 90.5418,-382.388 93.5402,-388.714"/>
<text text-anchor="middle" x="111.546" y="-405.8" font-family="Times New Roman,serif" font-size="14.00">subPropertyOf</text>
</g>
<!-- n3 -->
<g id="node3" class="node"><title>n3</title>
<g id="a_node3"><a xlink:href="file:///C:/Users/200001866/Documents/GitHub/RACK/RACK-Ontology/Graphs/PROV-S.owl.svg" xlink:title="provs:ENTITY">
<polygon fill="#00008b" stroke="black" points="765.046,-471 663.046,-471 663.046,-435 765.046,-435 765.046,-471"/>
<text text-anchor="middle" x="714.046" y="-449.3" font-family="Times New Roman,serif" font-size="14.00" fill="white">provs:ENTITY</text>
</a>
</g>
</g>
<!-- n4 -->
<g id="node4" class="node"><title>n4</title>
<polygon fill="#00008b" stroke="black" points="700.046,-210 612.046,-210 612.046,-174 700.046,-174 700.046,-210"/>
<text text-anchor="middle" x="656.046" y="-188.3" font-family="Times New Roman,serif" font-size="14.00" fill="white">FUNCTION</text>
</g>
<!-- n3&#45;&gt;n4 -->
<g id="edge2" class="edge"><title>n3&#45;&gt;n4</title>
<path fill="none" stroke="blue" stroke-dasharray="5,2" d="M736.656,-434.81C750.938,-422.448 768.138,-404.409 776.046,-384 781.826,-369.081 780.77,-363.287 776.046,-348 759.443,-294.275 714.28,-245.33 684.342,-217.376"/>
<polygon fill="blue" stroke="blue" points="686.453,-214.564 676.712,-210.397 681.729,-219.729 686.453,-214.564"/>
<text text-anchor="middle" x="795.046" y="-318.8" font-family="Times New Roman,serif" font-size="14.00">subClass</text>
</g>
<!-- n6 -->
<g id="node6" class="node"><title>n6</title>
<polygon fill="#00008b" stroke="black" points="462.046,-384 368.046,-384 368.046,-348 462.046,-348 462.046,-384"/>
<text text-anchor="middle" x="415.046" y="-362.3" font-family="Times New Roman,serif" font-size="14.00" fill="white">INTERFACE</text>
</g>
<!-- n3&#45;&gt;n6 -->
<g id="edge4" class="edge"><title>n3&#45;&gt;n6</title>
<path fill="none" stroke="blue" stroke-dasharray="5,2" d="M662.754,-437.997C615.625,-425.052 543.592,-405.067 471.75,-384.177"/>
<polygon fill="blue" stroke="blue" points="472.657,-380.796 462.077,-381.359 470.699,-387.517 472.657,-380.796"/>
<text text-anchor="middle" x="611.046" y="-405.8" font-family="Times New Roman,serif" font-size="14.00">subClass</text>
</g>
<!-- n16 -->
<g id="node16" class="node"><title>n16</title>
<polygon fill="#00008b" stroke="black" points="549.046,-297 477.046,-297 477.046,-261 549.046,-261 549.046,-297"/>
<text text-anchor="middle" x="513.046" y="-275.3" font-family="Times New Roman,serif" font-size="14.00" fill="white">SYSTEM</text>
</g>
<!-- n3&#45;&gt;n16 -->
<g id="edge11" class="edge"><title>n3&#45;&gt;n16</title>
<path fill="none" stroke="blue" stroke-dasharray="5,2" d="M717.386,-434.605C721.847,-405.658 725.958,-347.569 695.046,-315 692.678,-312.506 612.287,-297.731 559.15,-288.192"/>
<polygon fill="blue" stroke="blue" points="559.705,-284.735 549.244,-286.417 558.471,-291.626 559.705,-284.735"/>
<text text-anchor="middle" x="746.046" y="-362.3" font-family="Times New Roman,serif" font-size="14.00">subClass</text>
</g>
<!-- n4&#45;&gt;n4 -->
<g id="edge21" class="edge"><title>n4&#45;&gt;n4</title>
<path fill="none" stroke="#00cd00" d="M700.07,-199.719C710.414,-199.085 718.046,-196.512 718.046,-192 718.046,-189.18 715.065,-187.118 710.303,-185.812"/>
<polygon fill="#00cd00" stroke="#00cd00" points="710.478,-182.3 700.07,-184.281 709.442,-189.222 710.478,-182.3"/>
<text text-anchor="middle" x="760.546" y="-188.3" font-family="Times New Roman,serif" font-size="14.00">parentFunction</text>
</g>
<!-- n5 -->
<g id="node5" class="node"><title>n5</title>
<polygon fill="none" stroke="red" points="1031.55,-297 822.546,-297 822.546,-261 1031.55,-261 1031.55,-297"/>
<text text-anchor="middle" x="927.046" y="-275.3" font-family="Times New Roman,serif" font-size="14.00">parentFunction has exactly 1 value</text>
</g>
<!-- n5&#45;&gt;n4 -->
<g id="edge3" class="edge"><title>n5&#45;&gt;n4</title>
<path fill="none" stroke="red" d="M890.936,-260.919C867.655,-250.387 836.517,-237.184 808.046,-228 776.116,-217.7 739.491,-209.172 710.194,-203.113"/>
<polygon fill="red" stroke="red" points="710.653,-199.635 700.156,-201.075 709.26,-206.495 710.653,-199.635"/>
<text text-anchor="middle" x="870.546" y="-231.8" font-family="Times New Roman,serif" font-size="14.00">restricts</text>
</g>
<!-- n6&#45;&gt;n16 -->
<g id="edge18" class="edge"><title>n6&#45;&gt;n16</title>
<path fill="none" stroke="#00cd00" d="M458.41,-347.824C467.532,-342.947 476.627,-337.013 484.046,-330 491.039,-323.388 496.863,-314.713 501.412,-306.448"/>
<polygon fill="#00cd00" stroke="#00cd00" points="504.588,-307.924 506,-297.424 498.348,-304.751 504.588,-307.924"/>
<text text-anchor="middle" x="515.046" y="-318.8" font-family="Times New Roman,serif" font-size="14.00">source</text>
</g>
<!-- n6&#45;&gt;n16 -->
<g id="edge25" class="edge"><title>n6&#45;&gt;n16</title>
<path fill="none" stroke="#00cd00" d="M412.074,-347.627C411.269,-337.178 412.116,-324.171 419.046,-315 422.338,-310.643 444.972,-302.153 467.203,-294.626"/>
<polygon fill="#00cd00" stroke="#00cd00" points="468.604,-297.848 476.982,-291.364 466.389,-291.208 468.604,-297.848"/>
<text text-anchor="middle" x="449.546" y="-318.8" font-family="Times New Roman,serif" font-size="14.00">destination</text>
</g>
<!-- n20 -->
<g id="node20" class="node"><title>n20</title>
<g id="a_node20"><a xlink:href="file:///C:/Users/200001866/Documents/GitHub/RACK/RACK-Ontology/Graphs/PROV-S.owl.svg" xlink:title="provs:ACTIVITY">
<polygon fill="#00008b" stroke="black" points="465.046,-210 347.046,-210 347.046,-174 465.046,-174 465.046,-210"/>
<text text-anchor="middle" x="406.046" y="-188.3" font-family="Times New Roman,serif" font-size="14.00" fill="white">provs:ACTIVITY</text>
</a>
</g>
</g>
<!-- n6&#45;&gt;n20 -->
<g id="edge23" class="edge"><title>n6&#45;&gt;n20</title>
<path fill="none" stroke="#00cd00" d="M410.5,-347.822C407.132,-334.163 402.829,-314.507 401.046,-297 398.409,-271.119 400.317,-241.47 402.493,-220.468"/>
<polygon fill="#00cd00" stroke="#00cd00" points="405.993,-220.669 403.633,-210.34 399.037,-219.886 405.993,-220.669"/>
<text text-anchor="middle" x="434.546" y="-275.3" font-family="Times New Roman,serif" font-size="14.00">identifiedBy</text>
</g>
<!-- n22 -->
<g id="node22" class="node"><title>n22</title>
<g id="a_node22"><a xlink:href="file:///C:/Users/200001866/Documents/GitHub/RACK/RACK-Ontology/Graphs/XMLSchema.svg" xlink:title="xsd:string">
<polygon fill="#00008b" stroke="black" points="693.546,-297 622.546,-297 622.546,-261 693.546,-261 693.546,-297"/>
<text text-anchor="middle" x="658.046" y="-275.3" font-family="Times New Roman,serif" font-size="14.00" fill="white">xsd:string</text>
</a>
</g>
</g>
<!-- n6&#45;&gt;n22 -->
<g id="edge22" class="edge"><title>n6&#45;&gt;n22</title>
<path fill="none" stroke="#00cd00" d="M462.261,-350.082C465.221,-349.329 468.166,-348.626 471.046,-348 529.764,-335.231 550.805,-355.861 605.046,-330 617.356,-324.131 628.698,-314.337 637.703,-304.965"/>
<polygon fill="#00cd00" stroke="#00cd00" points="640.547,-307.04 644.688,-297.288 635.37,-302.329 640.547,-307.04"/>
<text text-anchor="middle" x="659.046" y="-318.8" font-family="Times New Roman,serif" font-size="14.00">commodity</text>
</g>
<!-- n7 -->
<g id="node7" class="node"><title>n7</title>
<polygon fill="none" stroke="red" points="510.546,-471 319.546,-471 319.546,-435 510.546,-435 510.546,-471"/>
<text text-anchor="middle" x="415.046" y="-449.3" font-family="Times New Roman,serif" font-size="14.00">commodity has at most 1 value</text>
</g>
<!-- n7&#45;&gt;n6 -->
<g id="edge5" class="edge"><title>n7&#45;&gt;n6</title>
<path fill="none" stroke="red" d="M415.046,-434.799C415.046,-423.163 415.046,-407.548 415.046,-394.237"/>
<polygon fill="red" stroke="red" points="418.546,-394.175 415.046,-384.175 411.546,-394.175 418.546,-394.175"/>
<text text-anchor="middle" x="437.546" y="-405.8" font-family="Times New Roman,serif" font-size="14.00">restricts</text>
</g>
<!-- n8 -->
<g id="node8" class="node"><title>n8</title>
<ellipse fill="blue" stroke="black" cx="925.046" cy="-453" rx="55.7903" ry="18"/>
<text text-anchor="middle" x="925.046" y="-449.3" font-family="Times New Roman,serif" font-size="14.00" fill="white">producedBy</text>
</g>
<!-- n9 -->
<g id="node9" class="node"><title>n9</title>
<g id="a_node9"><a xlink:href="file:///C:/Users/200001866/Documents/GitHub/RACK/RACK-Ontology/Graphs/PROV-S.owl.svg" xlink:title="provs:wasGeneratedBy">
<polygon fill="none" stroke="#00cd00" points="1027.97,-358.544 1027.97,-373.456 967.677,-384 882.415,-384 822.125,-373.456 822.125,-358.544 882.415,-348 967.677,-348 1027.97,-358.544"/>
<text text-anchor="middle" x="925.046" y="-362.3" font-family="Times New Roman,serif" font-size="14.00">provs:wasGeneratedBy</text>
</a>
</g>
</g>
<!-- n8&#45;&gt;n9 -->
<g id="edge6" class="edge"><title>n8&#45;&gt;n9</title>
<path fill="none" stroke="#00cd00" d="M925.046,-434.799C925.046,-423.163 925.046,-407.548 925.046,-394.237"/>
<polygon fill="#00cd00" stroke="#00cd00" points="928.546,-394.175 925.046,-384.175 921.546,-394.175 928.546,-394.175"/>
<text text-anchor="middle" x="967.546" y="-405.8" font-family="Times New Roman,serif" font-size="14.00">subPropertyOf</text>
</g>
<!-- n10 -->
<g id="node10" class="node"><title>n10</title>
<g id="a_node10"><a xlink:href="file:///C:/Users/200001866/Documents/GitHub/RACK/RACK-Ontology/Graphs/PROV-S.owl.svg" xlink:title="provs:THING">
<polygon fill="#00008b" stroke="black" points="1128.55,-471 1033.55,-471 1033.55,-435 1128.55,-435 1128.55,-471"/>
<text text-anchor="middle" x="1081.05" y="-449.3" font-family="Times New Roman,serif" font-size="14.00" fill="white">provs:THING</text>
</a>
</g>
</g>
<!-- n11 -->
<g id="node11" class="node"><title>n11</title>
<polygon fill="#00008b" stroke="black" points="1116.55,-384 1045.55,-384 1045.55,-348 1116.55,-348 1116.55,-384"/>
<text text-anchor="middle" x="1081.05" y="-362.3" font-family="Times New Roman,serif" font-size="14.00" fill="white">OP_ENV</text>
</g>
<!-- n10&#45;&gt;n11 -->
<g id="edge7" class="edge"><title>n10&#45;&gt;n11</title>
<path fill="none" stroke="blue" stroke-dasharray="5,2" d="M1081.05,-434.799C1081.05,-423.163 1081.05,-407.548 1081.05,-394.237"/>
<polygon fill="blue" stroke="blue" points="1084.55,-394.175 1081.05,-384.175 1077.55,-394.175 1084.55,-394.175"/>
<text text-anchor="middle" x="1107.05" y="-405.8" font-family="Times New Roman,serif" font-size="14.00">subClass</text>
</g>
<!-- n12 -->
<g id="node12" class="node"><title>n12</title>
<ellipse fill="blue" stroke="black" cx="158.046" cy="-453" rx="40.0939" ry="18"/>
<text text-anchor="middle" x="158.046" y="-449.3" font-family="Times New Roman,serif" font-size="14.00" fill="white">function</text>
</g>
<!-- n12&#45;&gt;n2 -->
<g id="edge8" class="edge"><title>n12&#45;&gt;n2</title>
<path fill="none" stroke="#00cd00" d="M158.046,-434.799C158.046,-423.163 158.046,-407.548 158.046,-394.237"/>
<polygon fill="#00cd00" stroke="#00cd00" points="161.546,-394.175 158.046,-384.175 154.546,-394.175 161.546,-394.175"/>
<text text-anchor="middle" x="200.546" y="-405.8" font-family="Times New Roman,serif" font-size="14.00">subPropertyOf</text>
</g>
<!-- n13 -->
<g id="node13" class="node"><title>n13</title>
<ellipse fill="blue" stroke="black" cx="266.046" cy="-453" rx="35.194" ry="18"/>
<text text-anchor="middle" x="266.046" y="-449.3" font-family="Times New Roman,serif" font-size="14.00" fill="white">source</text>
</g>
<!-- n13&#45;&gt;n2 -->
<g id="edge9" class="edge"><title>n13&#45;&gt;n2</title>
<path fill="none" stroke="#00cd00" d="M262.026,-434.793C258.757,-424.143 253.156,-410.859 244.046,-402 237.511,-395.645 229.667,-390.391 221.411,-386.059"/>
<polygon fill="#00cd00" stroke="#00cd00" points="222.864,-382.875 212.333,-381.714 219.842,-389.189 222.864,-382.875"/>
<text text-anchor="middle" x="297.546" y="-405.8" font-family="Times New Roman,serif" font-size="14.00">subPropertyOf</text>
</g>
<!-- n14 -->
<g id="node14" class="node"><title>n14</title>
<ellipse fill="blue" stroke="black" cx="1249.05" cy="-453" rx="58.4896" ry="18"/>
<text text-anchor="middle" x="1249.05" y="-449.3" font-family="Times New Roman,serif" font-size="14.00" fill="white">developedBy</text>
</g>
<!-- n15 -->
<g id="node15" class="node"><title>n15</title>
<g id="a_node15"><a xlink:href="file:///C:/Users/200001866/Documents/GitHub/RACK/RACK-Ontology/Graphs/PROV-S.owl.svg" xlink:title="provs:wasAssociatedWith">
<polygon fill="none" stroke="#00cd00" points="1363.88,-358.544 1363.88,-373.456 1296.61,-384 1201.48,-384 1134.21,-373.456 1134.21,-358.544 1201.48,-348 1296.61,-348 1363.88,-358.544"/>
<text text-anchor="middle" x="1249.05" y="-362.3" font-family="Times New Roman,serif" font-size="14.00">provs:wasAssociatedWith</text>
</a>
</g>
</g>
<!-- n14&#45;&gt;n15 -->
<g id="edge10" class="edge"><title>n14&#45;&gt;n15</title>
<path fill="none" stroke="#00cd00" d="M1249.05,-434.799C1249.05,-423.163 1249.05,-407.548 1249.05,-394.237"/>
<polygon fill="#00cd00" stroke="#00cd00" points="1252.55,-394.175 1249.05,-384.175 1245.55,-394.175 1252.55,-394.175"/>
<text text-anchor="middle" x="1291.55" y="-405.8" font-family="Times New Roman,serif" font-size="14.00">subPropertyOf</text>
</g>
<!-- n16&#45;&gt;n4 -->
<g id="edge15" class="edge"><title>n16&#45;&gt;n4</title>
<path fill="none" stroke="#00cd00" d="M509.369,-260.865C508.129,-250.245 508.602,-236.966 516.046,-228 527.152,-214.622 567.369,-205.462 601.866,-199.879"/>
<polygon fill="#00cd00" stroke="#00cd00" points="602.534,-203.317 611.881,-198.329 601.464,-196.4 602.534,-203.317"/>
<text text-anchor="middle" x="540.546" y="-231.8" font-family="Times New Roman,serif" font-size="14.00">provides</text>
</g>
<!-- n16&#45;&gt;n4 -->
<g id="edge17" class="edge"><title>n16&#45;&gt;n4</title>
<path fill="none" stroke="#00cd00" d="M538.371,-260.912C558.107,-247.63 582.987,-230.975 588.046,-228 595.696,-223.5 603.987,-218.964 612.063,-214.718"/>
<polygon fill="#00cd00" stroke="#00cd00" points="613.775,-217.772 621.044,-210.063 610.555,-211.557 613.775,-217.772"/>
<text text-anchor="middle" x="611.046" y="-231.8" font-family="Times New Roman,serif" font-size="14.00">function</text>
</g>
<!-- n16&#45;&gt;n4 -->
<g id="edge20" class="edge"><title>n16&#45;&gt;n4</title>
<path fill="none" stroke="#00cd00" d="M549.205,-275.6C575.516,-272.102 610.514,-263.595 634.046,-243 641.022,-236.895 645.878,-228.162 649.216,-219.698"/>
<polygon fill="#00cd00" stroke="#00cd00" points="652.587,-220.654 652.473,-210.06 645.956,-218.413 652.587,-220.654"/>
<text text-anchor="middle" x="667.546" y="-231.8" font-family="Times New Roman,serif" font-size="14.00">requires</text>
</g>
<!-- n16&#45;&gt;n16 -->
<g id="edge16" class="edge"><title>n16&#45;&gt;n16</title>
<path fill="none" stroke="#00cd00" d="M549.133,-286.836C559.267,-286.493 567.046,-283.881 567.046,-279 567.046,-275.949 564.007,-273.785 559.254,-272.507"/>
<polygon fill="#00cd00" stroke="#00cd00" points="559.506,-269.01 549.133,-271.164 558.585,-275.949 559.506,-269.01"/>
<text text-anchor="middle" x="585.546" y="-275.3" font-family="Times New Roman,serif" font-size="14.00">partOf</text>
</g>
<!-- n16&#45;&gt;n20 -->
<g id="edge19" class="edge"><title>n16&#45;&gt;n20</title>
<path fill="none" stroke="#00cd00" d="M476.855,-265.564C453.64,-257.308 427.104,-247.238 423.046,-243 417.004,-236.692 413.105,-228.155 410.59,-219.921"/>
<polygon fill="#00cd00" stroke="#00cd00" points="413.98,-219.05 408.158,-210.198 407.189,-220.749 413.98,-219.05"/>
<text text-anchor="middle" x="458.046" y="-231.8" font-family="Times New Roman,serif" font-size="14.00">producedBy</text>
</g>
<!-- n17 -->
<g id="node17" class="node"><title>n17</title>
<polygon fill="none" stroke="red" points="677.546,-384 480.546,-384 480.546,-348 677.546,-348 677.546,-384"/>
<text text-anchor="middle" x="579.046" y="-362.3" font-family="Times New Roman,serif" font-size="14.00">producedBy has at most 1 value</text>
</g>
<!-- n17&#45;&gt;n16 -->
<g id="edge12" class="edge"><title>n17&#45;&gt;n16</title>
<path fill="none" stroke="red" d="M568.295,-347.906C561.878,-338.041 553.378,-325.541 545.046,-315 542.346,-311.585 539.396,-308.087 536.415,-304.687"/>
<polygon fill="red" stroke="red" points="538.798,-302.103 529.505,-297.015 533.597,-306.788 538.798,-302.103"/>
<text text-anchor="middle" x="578.546" y="-318.8" font-family="Times New Roman,serif" font-size="14.00">restricts</text>
</g>
<!-- n18 -->
<g id="node18" class="node"><title>n18</title>
<g id="a_node18"><a xlink:href="file:///C:/Users/200001866/Documents/GitHub/RACK/RACK-Ontology/Graphs/DOCUMENT.owl.svg" xlink:title="D:PROCEDURE">
<polygon fill="#00008b" stroke="black" points="1501.55,-471 1388.55,-471 1388.55,-435 1501.55,-435 1501.55,-471"/>
<text text-anchor="middle" x="1445.05" y="-449.3" font-family="Times New Roman,serif" font-size="14.00" fill="white">D:PROCEDURE</text>
</a>
</g>
</g>
<!-- n19 -->
<g id="node19" class="node"><title>n19</title>
<polygon fill="#00008b" stroke="black" points="1508.55,-384 1381.55,-384 1381.55,-348 1508.55,-348 1508.55,-384"/>
<text text-anchor="middle" x="1445.05" y="-362.3" font-family="Times New Roman,serif" font-size="14.00" fill="white">OP_PROCEDURE</text>
</g>
<!-- n18&#45;&gt;n19 -->
<g id="edge13" class="edge"><title>n18&#45;&gt;n19</title>
<path fill="none" stroke="blue" stroke-dasharray="5,2" d="M1445.05,-434.799C1445.05,-423.163 1445.05,-407.548 1445.05,-394.237"/>
<polygon fill="blue" stroke="blue" points="1448.55,-394.175 1445.05,-384.175 1441.55,-394.175 1448.55,-394.175"/>
<text text-anchor="middle" x="1471.05" y="-405.8" font-family="Times New Roman,serif" font-size="14.00">subClass</text>
</g>
<!-- n21 -->
<g id="node21" class="node"><title>n21</title>
<polygon fill="#00008b" stroke="black" points="497.046,-123 315.046,-123 315.046,-87 497.046,-87 497.046,-123"/>
<text text-anchor="middle" x="406.046" y="-101.3" font-family="Times New Roman,serif" font-size="14.00" fill="white">SYSTEM_DEVELOPMENT</text>
</g>
<!-- n20&#45;&gt;n21 -->
<g id="edge14" class="edge"><title>n20&#45;&gt;n21</title>
<path fill="none" stroke="blue" stroke-dasharray="5,2" d="M406.046,-173.799C406.046,-162.163 406.046,-146.548 406.046,-133.237"/>
<polygon fill="blue" stroke="blue" points="409.546,-133.175 406.046,-123.175 402.546,-133.175 409.546,-133.175"/>
<text text-anchor="middle" x="432.046" y="-144.8" font-family="Times New Roman,serif" font-size="14.00">subClass</text>
</g>
<!-- n23 -->
<g id="node23" class="node"><title>n23</title>
<g id="a_node23"><a xlink:href="file:///C:/Users/200001866/Documents/GitHub/RACK/RACK-Ontology/Graphs/PROV-S.owl.svg" xlink:title="provs:AGENT">
<polygon fill="#00008b" stroke="black" points="455.546,-36 356.546,-36 356.546,-0 455.546,-0 455.546,-36"/>
<text text-anchor="middle" x="406.046" y="-14.3" font-family="Times New Roman,serif" font-size="14.00" fill="white">provs:AGENT</text>
</a>
</g>
</g>
<!-- n21&#45;&gt;n23 -->
<g id="edge24" class="edge"><title>n21&#45;&gt;n23</title>
<path fill="none" stroke="#00cd00" d="M406.046,-86.799C406.046,-75.1626 406.046,-59.5479 406.046,-46.2368"/>
<polygon fill="#00cd00" stroke="#00cd00" points="409.546,-46.1754 406.046,-36.1754 402.546,-46.1755 409.546,-46.1754"/>
<text text-anchor="middle" x="443.046" y="-57.8" font-family="Times New Roman,serif" font-size="14.00">developedBy</text>
</g>
</g>
</svg>
