<?xml version="1.0" encoding="UTF-8" standalone="no"?>
<!DOCTYPE svg PUBLIC "-//W3C//DTD SVG 1.1//EN"
 "http://www.w3.org/Graphics/SVG/1.1/DTD/svg11.dtd">
<!-- Generated by graphviz version 2.38.0 (20140413.2041)
 -->
<!-- Title: gtrnstl Pages: 1 -->
<svg width="2402pt" height="328pt"
 viewBox="0.00 0.00 2402.12 328.00" xmlns="http://www.w3.org/2000/svg" xmlns:xlink="http://www.w3.org/1999/xlink">
<g id="graph0" class="graph" transform="scale(1 1) rotate(0) translate(4 324)">
<title>gtrnstl</title>
<polygon fill="white" stroke="none" points="-4,4 -4,-324 2398.12,-324 2398.12,4 -4,4"/>
<text text-anchor="middle" x="91" y="-304.8" font-family="Times New Roman,serif" font-size="14.00">Graph of Ontology File: trnstl</text>
<!-- n1 -->
<g id="node1" class="node"><title>n1</title>
<ellipse fill="blue" stroke="black" cx="611.623" cy="-279" rx="38.1938" ry="18"/>
<text text-anchor="middle" x="611.623" y="-275.3" font-family="Times New Roman,serif" font-size="14.00" fill="white">outflow</text>
</g>
<!-- n1&#45;&gt;n1 -->
<g id="edge1" class="edge"><title>n1&#45;&gt;n1</title>
<path fill="none" stroke="#00cd00" d="M646.288,-286.873C658.283,-286.956 667.97,-284.332 667.97,-279 667.97,-275.334 663.391,-272.948 656.632,-271.842"/>
<polygon fill="#00cd00" stroke="#00cd00" points="656.506,-268.325 646.288,-271.127 656.023,-275.308 656.506,-268.325"/>
<text text-anchor="middle" x="711.47" y="-275.3" font-family="Times New Roman,serif" font-size="14.00">identifier</text>
</g>
<!-- n2 -->
<g id="node2" class="node"><title>n2</title>
<ellipse fill="blue" stroke="black" cx="693.623" cy="-192" rx="38.9931" ry="18"/>
<text text-anchor="middle" x="693.623" y="-188.3" font-family="Times New Roman,serif" font-size="14.00" fill="white">Outgate</text>
</g>
<!-- n1&#45;&gt;n2 -->
<g id="edge2" class="edge"><title>n1&#45;&gt;n2</title>
<path fill="none" stroke="#00cd00" d="M626.663,-262.41C639.184,-249.431 657.191,-230.765 671.379,-216.058"/>
<polygon fill="#00cd00" stroke="#00cd00" points="673.977,-218.406 678.401,-208.779 668.939,-213.546 673.977,-218.406"/>
<text text-anchor="middle" x="676.623" y="-231.8" font-family="Times New Roman,serif" font-size="14.00">source</text>
</g>
<!-- n3 -->
<g id="node3" class="node"><title>n3</title>
<ellipse fill="blue" stroke="black" cx="211.623" cy="-192" rx="81.7856" ry="18"/>
<text text-anchor="middle" x="211.623" y="-188.3" font-family="Times New Roman,serif" font-size="14.00" fill="white">CounterApplication</text>
</g>
<!-- n1&#45;&gt;n3 -->
<g id="edge3" class="edge"><title>n1&#45;&gt;n3</title>
<path fill="none" stroke="#00cd00" d="M582.225,-267.091C566.079,-260.733 545.885,-252.174 528.623,-243 517.847,-237.273 517.147,-232.017 505.623,-228 424.275,-199.64 398.048,-221.157 312.623,-210 302.904,-208.731 292.687,-207.22 282.638,-205.63"/>
<polygon fill="#00cd00" stroke="#00cd00" points="283.099,-202.159 272.669,-204.02 281.983,-209.07 283.099,-202.159"/>
<text text-anchor="middle" x="559.123" y="-231.8" font-family="Times New Roman,serif" font-size="14.00">destination</text>
</g>
<!-- n4 -->
<g id="node4" class="node"><title>n4</title>
<g id="a_node4"><a xlink:href="file:///C:/Sadl3Workspace4/RACK-Ontology-7-29/Graphs/SYSTEM.owl.svg" xlink:title="sys:INTERFACE">
<polygon fill="#00008b" stroke="black" points="636.623,-210 520.623,-210 520.623,-174 636.623,-174 636.623,-210"/>
<text text-anchor="middle" x="578.623" y="-188.3" font-family="Times New Roman,serif" font-size="14.00" fill="white">sys:INTERFACE</text>
</a>
</g>
</g>
<!-- n1&#45;&gt;n4 -->
<g id="edge4" class="edge"><title>n1&#45;&gt;n4</title>
<path fill="none" stroke="black" d="M605.104,-261.207C600.478,-249.293 594.177,-233.063 588.882,-219.424"/>
<polygon fill="black" stroke="black" points="592.124,-218.105 585.242,-210.049 585.599,-220.638 592.124,-218.105"/>
<text text-anchor="middle" x="607.123" y="-231.8" font-family="Times New Roman,serif" font-size="14.00">is a</text>
</g>
<!-- n5 -->
<g id="node5" class="node"><title>n5</title>
<ellipse fill="blue" stroke="black" cx="497.623" cy="-105" rx="46.2923" ry="18"/>
<text text-anchor="middle" x="497.623" y="-101.3" font-family="Times New Roman,serif" font-size="14.00" fill="white">Turnstiles</text>
</g>
<!-- n2&#45;&gt;n5 -->
<g id="edge28" class="edge"><title>n2&#45;&gt;n5</title>
<path fill="none" stroke="#00cd00" d="M664.993,-179.712C658.689,-177.551 651.991,-175.499 645.623,-174 613.588,-166.461 520.68,-180.426 498.623,-156 493.141,-149.929 491.558,-141.554 491.748,-133.393"/>
<polygon fill="#00cd00" stroke="#00cd00" points="495.238,-133.665 492.776,-123.36 488.275,-132.952 495.238,-133.665"/>
<text text-anchor="middle" x="517.123" y="-144.8" font-family="Times New Roman,serif" font-size="14.00">partOf</text>
</g>
<!-- n7 -->
<g id="node7" class="node"><title>n7</title>
<g id="a_node7"><a xlink:href="file:///C:/Sadl3Workspace4/RACK-Ontology-7-29/Graphs/SYSTEM.owl.svg" xlink:title="sys:SYSTEM">
<polygon fill="#00008b" stroke="black" points="437.623,-36 343.623,-36 343.623,-0 437.623,-0 437.623,-36"/>
<text text-anchor="middle" x="390.623" y="-14.3" font-family="Times New Roman,serif" font-size="14.00" fill="white">sys:SYSTEM</text>
</a>
</g>
</g>
<!-- n2&#45;&gt;n7 -->
<g id="edge29" class="edge"><title>n2&#45;&gt;n7</title>
<path fill="none" stroke="black" d="M730.555,-186.137C749.173,-181.61 770.177,-172.871 781.623,-156 802.301,-125.522 769.256,-107.177 736.623,-87 628.033,-19.8573 577.202,-60.7902 447.701,-35.9566"/>
<polygon fill="black" stroke="black" points="448.323,-32.5117 437.828,-33.966 446.939,-39.3736 448.323,-32.5117"/>
<text text-anchor="middle" x="793.123" y="-101.3" font-family="Times New Roman,serif" font-size="14.00">is a</text>
</g>
<!-- n18 -->
<g id="node18" class="node"><title>n18</title>
<polygon fill="none" stroke="black" points="727.623,-123 659.623,-123 659.623,-87 727.623,-87 727.623,-123"/>
<text text-anchor="middle" x="693.623" y="-101.3" font-family="Times New Roman,serif" font-size="14.00">Out Gate</text>
</g>
<!-- n2&#45;&gt;n18 -->
<g id="edge27" class="edge"><title>n2&#45;&gt;n18</title>
<path fill="none" stroke="#00cd00" d="M693.623,-173.799C693.623,-162.163 693.623,-146.548 693.623,-133.237"/>
<polygon fill="#00cd00" stroke="#00cd00" points="697.123,-133.175 693.623,-123.175 690.123,-133.175 697.123,-133.175"/>
<text text-anchor="middle" x="737.123" y="-144.8" font-family="Times New Roman,serif" font-size="14.00">identifier</text>
</g>
<!-- n3&#45;&gt;n5 -->
<g id="edge25" class="edge"><title>n3&#45;&gt;n5</title>
<path fill="none" stroke="#00cd00" d="M259.823,-177.328C281.525,-171.043 307.429,-163.361 330.623,-156 350.316,-149.75 354.903,-147.163 374.623,-141 399.728,-133.155 427.939,-125.075 451.004,-118.658"/>
<polygon fill="#00cd00" stroke="#00cd00" points="452.175,-121.966 460.879,-115.925 450.308,-115.219 452.175,-121.966"/>
<text text-anchor="middle" x="393.123" y="-144.8" font-family="Times New Roman,serif" font-size="14.00">partOf</text>
</g>
<!-- n3&#45;&gt;n7 -->
<g id="edge26" class="edge"><title>n3&#45;&gt;n7</title>
<path fill="none" stroke="black" d="M191.895,-174.141C169.199,-152.69 137.607,-115.061 158.623,-87 179.627,-58.9561 271.911,-38.5688 333.567,-27.7791"/>
<polygon fill="black" stroke="black" points="334.297,-31.2052 343.562,-26.0667 333.115,-24.3057 334.297,-31.2052"/>
<text text-anchor="middle" x="168.123" y="-101.3" font-family="Times New Roman,serif" font-size="14.00">is a</text>
</g>
<!-- n17 -->
<g id="node17" class="node"><title>n17</title>
<polygon fill="none" stroke="black" points="316.623,-123 186.623,-123 186.623,-87 316.623,-87 316.623,-123"/>
<text text-anchor="middle" x="251.623" y="-101.3" font-family="Times New Roman,serif" font-size="14.00">Counter Application</text>
</g>
<!-- n3&#45;&gt;n17 -->
<g id="edge24" class="edge"><title>n3&#45;&gt;n17</title>
<path fill="none" stroke="#00cd00" d="M192.65,-174.154C183.992,-164.372 176.992,-151.872 183.623,-141 186.362,-136.51 189.881,-132.572 193.874,-129.122"/>
<polygon fill="#00cd00" stroke="#00cd00" points="196.095,-131.832 202.054,-123.073 191.933,-126.204 196.095,-131.832"/>
<text text-anchor="middle" x="227.123" y="-144.8" font-family="Times New Roman,serif" font-size="14.00">identifier</text>
</g>
<!-- n6 -->
<g id="node6" class="node"><title>n6</title>
<polygon fill="none" stroke="black" points="565.123,-36 456.123,-36 456.123,-0 565.123,-0 565.123,-36"/>
<text text-anchor="middle" x="510.623" y="-14.3" font-family="Times New Roman,serif" font-size="14.00">TurnStileSystem</text>
</g>
<!-- n5&#45;&gt;n6 -->
<g id="edge5" class="edge"><title>n5&#45;&gt;n6</title>
<path fill="none" stroke="#00cd00" d="M500.254,-86.799C502.034,-75.1626 504.422,-59.5479 506.458,-46.2368"/>
<polygon fill="#00cd00" stroke="#00cd00" points="509.944,-46.5897 507.996,-36.1754 503.025,-45.5313 509.944,-46.5897"/>
<text text-anchor="middle" x="549.123" y="-57.8" font-family="Times New Roman,serif" font-size="14.00">identifier</text>
</g>
<!-- n5&#45;&gt;n7 -->
<g id="edge6" class="edge"><title>n5&#45;&gt;n7</title>
<path fill="none" stroke="black" d="M477.998,-88.4097C461.884,-75.6086 438.804,-57.2744 420.412,-42.6636"/>
<polygon fill="black" stroke="black" points="422.34,-39.7255 412.333,-36.2458 417.986,-45.2065 422.34,-39.7255"/>
<text text-anchor="middle" x="460.123" y="-57.8" font-family="Times New Roman,serif" font-size="14.00">is a</text>
</g>
<!-- n8 -->
<g id="node8" class="node"><title>n8</title>
<ellipse fill="blue" stroke="black" cx="1031.62" cy="-192" rx="31.6951" ry="18"/>
<text text-anchor="middle" x="1031.62" y="-188.3" font-family="Times New Roman,serif" font-size="14.00" fill="white">Sys&#45;3</text>
</g>
<!-- n8&#45;&gt;n5 -->
<g id="edge9" class="edge"><title>n8&#45;&gt;n5</title>
<path fill="none" stroke="#00cd00" d="M999.979,-189.185C897.345,-183.229 579.124,-164.194 558.623,-156 550.492,-152.75 535.26,-140.267 522.051,-128.588"/>
<polygon fill="#00cd00" stroke="#00cd00" points="524.358,-125.955 514.577,-121.881 519.682,-131.165 524.358,-125.955"/>
<text text-anchor="middle" x="581.123" y="-144.8" font-family="Times New Roman,serif" font-size="14.00">governs</text>
</g>
<!-- n8&#45;&gt;n8 -->
<g id="edge7" class="edge"><title>n8&#45;&gt;n8</title>
<path fill="none" stroke="#00cd00" d="M1060.31,-199.827C1071.81,-200.269 1081.47,-197.66 1081.47,-192 1081.47,-188.109 1076.91,-185.659 1070.31,-184.652"/>
<polygon fill="#00cd00" stroke="#00cd00" points="1070.46,-181.156 1060.31,-184.173 1070.13,-188.148 1070.46,-181.156"/>
<text text-anchor="middle" x="1124.97" y="-188.3" font-family="Times New Roman,serif" font-size="14.00">identifier</text>
</g>
<!-- n9 -->
<g id="node9" class="node"><title>n9</title>
<polygon fill="none" stroke="black" points="1246.62,-123 816.623,-123 816.623,-87 1246.62,-87 1246.62,-123"/>
<text text-anchor="middle" x="1031.62" y="-101.3" font-family="Times New Roman,serif" font-size="14.00">Turnstile system shall track the number of people are currently in the park.</text>
</g>
<!-- n8&#45;&gt;n9 -->
<g id="edge8" class="edge"><title>n8&#45;&gt;n9</title>
<path fill="none" stroke="#00cd00" d="M1031.62,-173.799C1031.62,-162.163 1031.62,-146.548 1031.62,-133.237"/>
<polygon fill="#00cd00" stroke="#00cd00" points="1035.12,-133.175 1031.62,-123.175 1028.12,-133.175 1035.12,-133.175"/>
<text text-anchor="middle" x="1042.12" y="-144.8" font-family="Times New Roman,serif" font-size="14.00">text</text>
</g>
<!-- n10 -->
<g id="node10" class="node"><title>n10</title>
<g id="a_node10"><a xlink:href="file:///C:/Sadl3Workspace4/RACK-Ontology-7-29/Graphs/REQUIREMENTS.owl.svg" xlink:title="Rq:REQUIREMENT">
<polygon fill="#00008b" stroke="black" points="1402.12,-123 1265.12,-123 1265.12,-87 1402.12,-87 1402.12,-123"/>
<text text-anchor="middle" x="1333.62" y="-101.3" font-family="Times New Roman,serif" font-size="14.00" fill="white">Rq:REQUIREMENT</text>
</a>
</g>
</g>
<!-- n8&#45;&gt;n10 -->
<g id="edge10" class="edge"><title>n8&#45;&gt;n10</title>
<path fill="none" stroke="black" d="M1059.49,-183.156C1105.47,-170.216 1198.56,-144.016 1263.43,-125.756"/>
<polygon fill="black" stroke="black" points="1264.51,-129.088 1273.19,-123.009 1262.62,-122.35 1264.51,-129.088"/>
<text text-anchor="middle" x="1211.12" y="-144.8" font-family="Times New Roman,serif" font-size="14.00">is a</text>
</g>
<!-- n11 -->
<g id="node11" class="node"><title>n11</title>
<ellipse fill="blue" stroke="black" cx="341.623" cy="-279" rx="35.9954" ry="18"/>
<text text-anchor="middle" x="341.623" y="-275.3" font-family="Times New Roman,serif" font-size="14.00" fill="white">census</text>
</g>
<!-- n11&#45;&gt;n3 -->
<g id="edge12" class="edge"><title>n11&#45;&gt;n3</title>
<path fill="none" stroke="#00cd00" d="M323.985,-263.18C311.223,-252.774 293.352,-238.837 276.623,-228 268.882,-222.985 260.356,-218.024 252.098,-213.482"/>
<polygon fill="#00cd00" stroke="#00cd00" points="253.756,-210.4 243.293,-208.736 250.435,-216.562 253.756,-210.4"/>
<text text-anchor="middle" x="316.623" y="-231.8" font-family="Times New Roman,serif" font-size="14.00">source</text>
</g>
<!-- n11&#45;&gt;n4 -->
<g id="edge15" class="edge"><title>n11&#45;&gt;n4</title>
<path fill="none" stroke="black" d="M374.152,-271.456C399.283,-265.745 434.563,-256.28 463.623,-243 474.723,-237.928 475.747,-233.535 486.623,-228 496.636,-222.905 507.574,-218.118 518.3,-213.818"/>
<polygon fill="black" stroke="black" points="519.603,-217.067 527.644,-210.169 517.056,-210.547 519.603,-217.067"/>
<text text-anchor="middle" x="496.123" y="-231.8" font-family="Times New Roman,serif" font-size="14.00">is a</text>
</g>
<!-- n11&#45;&gt;n11 -->
<g id="edge11" class="edge"><title>n11&#45;&gt;n11</title>
<path fill="none" stroke="#00cd00" d="M373.893,-286.863C385.699,-287.076 395.37,-284.455 395.37,-279 395.37,-275.25 390.799,-272.839 384.106,-271.768"/>
<polygon fill="#00cd00" stroke="#00cd00" points="384.09,-268.26 373.893,-271.137 383.658,-275.247 384.09,-268.26"/>
<text text-anchor="middle" x="438.87" y="-275.3" font-family="Times New Roman,serif" font-size="14.00">identifier</text>
</g>
<!-- n12 -->
<g id="node12" class="node"><title>n12</title>
<ellipse fill="blue" stroke="black" cx="359.623" cy="-192" rx="38.1938" ry="18"/>
<text text-anchor="middle" x="359.623" y="-188.3" font-family="Times New Roman,serif" font-size="14.00" fill="white">Display</text>
</g>
<!-- n11&#45;&gt;n12 -->
<g id="edge13" class="edge"><title>n11&#45;&gt;n12</title>
<path fill="none" stroke="#00cd00" d="M345.266,-260.799C347.73,-249.163 351.037,-233.548 353.855,-220.237"/>
<polygon fill="#00cd00" stroke="#00cd00" points="357.338,-220.684 355.986,-210.175 350.49,-219.233 357.338,-220.684"/>
<text text-anchor="middle" x="383.123" y="-231.8" font-family="Times New Roman,serif" font-size="14.00">destination</text>
</g>
<!-- n13 -->
<g id="node13" class="node"><title>n13</title>
<ellipse fill="blue" stroke="black" cx="69.6233" cy="-192" rx="32.4942" ry="18"/>
<text text-anchor="middle" x="69.6233" y="-188.3" font-family="Times New Roman,serif" font-size="14.00" fill="white">Ingate</text>
</g>
<!-- n11&#45;&gt;n13 -->
<g id="edge14" class="edge"><title>n11&#45;&gt;n13</title>
<path fill="none" stroke="#00cd00" d="M310.831,-269.791C272.751,-259.627 212.762,-243.572 211.623,-243 202.01,-238.169 202.28,-232.744 192.623,-228 163.018,-213.456 152.293,-219.222 120.623,-210 115.941,-208.637 111.046,-207.122 106.219,-205.574"/>
<polygon fill="#00cd00" stroke="#00cd00" points="107.092,-202.176 96.4992,-202.388 104.912,-208.828 107.092,-202.176"/>
<text text-anchor="middle" x="242.123" y="-231.8" font-family="Times New Roman,serif" font-size="14.00">destination</text>
</g>
<!-- n12&#45;&gt;n5 -->
<g id="edge31" class="edge"><title>n12&#45;&gt;n5</title>
<path fill="none" stroke="#00cd00" d="M381.761,-177.301C392.081,-170.879 404.511,-163.095 415.623,-156 425.909,-149.432 428.262,-147.448 438.623,-141 446.792,-135.917 455.68,-130.557 464.02,-125.6"/>
<polygon fill="#00cd00" stroke="#00cd00" points="465.968,-128.515 472.795,-120.413 462.406,-122.489 465.968,-128.515"/>
<text text-anchor="middle" x="457.123" y="-144.8" font-family="Times New Roman,serif" font-size="14.00">partOf</text>
</g>
<!-- n12&#45;&gt;n7 -->
<g id="edge32" class="edge"><title>n12&#45;&gt;n7</title>
<path fill="none" stroke="black" d="M377.25,-175.96C382.599,-170.31 387.803,-163.438 390.623,-156 404.307,-119.912 400.644,-74.5292 396.126,-46.1346"/>
<polygon fill="black" stroke="black" points="399.55,-45.391 394.388,-36.1387 392.653,-46.5906 399.55,-45.391"/>
<text text-anchor="middle" x="410.123" y="-101.3" font-family="Times New Roman,serif" font-size="14.00">is a</text>
</g>
<!-- n12&#45;&gt;n12 -->
<g id="edge30" class="edge"><title>n12&#45;&gt;n12</title>
<path fill="none" stroke="#00cd00" d="M394.288,-199.873C406.283,-199.956 415.97,-197.332 415.97,-192 415.97,-188.334 411.391,-185.948 404.632,-184.842"/>
<polygon fill="#00cd00" stroke="#00cd00" points="404.506,-181.325 394.288,-184.127 404.023,-188.308 404.506,-181.325"/>
<text text-anchor="middle" x="459.47" y="-188.3" font-family="Times New Roman,serif" font-size="14.00">identifier</text>
</g>
<!-- n13&#45;&gt;n5 -->
<g id="edge38" class="edge"><title>n13&#45;&gt;n5</title>
<path fill="none" stroke="#00cd00" d="M95.8063,-181.144C103.69,-178.485 112.427,-175.838 120.623,-174 186.141,-159.308 208.619,-181.767 270.623,-156 280.558,-151.871 279.71,-145.18 289.623,-141 346.618,-116.971 366.814,-134.315 427.623,-123 435.061,-121.616 442.892,-119.937 450.515,-118.179"/>
<polygon fill="#00cd00" stroke="#00cd00" points="451.445,-121.556 460.367,-115.842 449.829,-114.745 451.445,-121.556"/>
<text text-anchor="middle" x="308.123" y="-144.8" font-family="Times New Roman,serif" font-size="14.00">partOf</text>
</g>
<!-- n13&#45;&gt;n7 -->
<g id="edge39" class="edge"><title>n13&#45;&gt;n7</title>
<path fill="none" stroke="black" d="M50.5321,-177C24.4063,-156.166 -16.6291,-116.316 7.62329,-87 48.2227,-37.9241 236.927,-24.251 333.44,-20.4531"/>
<polygon fill="black" stroke="black" points="333.748,-23.9442 343.611,-20.0761 333.489,-16.949 333.748,-23.9442"/>
<text text-anchor="middle" x="17.1233" y="-101.3" font-family="Times New Roman,serif" font-size="14.00">is a</text>
</g>
<!-- n21 -->
<g id="node21" class="node"><title>n21</title>
<polygon fill="none" stroke="black" points="93.6233,-123 35.6233,-123 35.6233,-87 93.6233,-87 93.6233,-123"/>
<text text-anchor="middle" x="64.6233" y="-101.3" font-family="Times New Roman,serif" font-size="14.00">In Gate</text>
</g>
<!-- n13&#45;&gt;n21 -->
<g id="edge37" class="edge"><title>n13&#45;&gt;n21</title>
<path fill="none" stroke="#00cd00" d="M57.6178,-175.108C53.9889,-169.39 50.477,-162.693 48.6233,-156 46.4919,-148.305 47.6932,-140.021 50.1957,-132.452"/>
<polygon fill="#00cd00" stroke="#00cd00" points="53.5061,-133.604 54.0643,-123.024 47.0301,-130.947 53.5061,-133.604"/>
<text text-anchor="middle" x="92.1233" y="-144.8" font-family="Times New Roman,serif" font-size="14.00">identifier</text>
</g>
<!-- n14 -->
<g id="node14" class="node"><title>n14</title>
<ellipse fill="blue" stroke="black" cx="130.623" cy="-279" rx="33.2948" ry="18"/>
<text text-anchor="middle" x="130.623" y="-275.3" font-family="Times New Roman,serif" font-size="14.00" fill="white">inflow</text>
</g>
<!-- n14&#45;&gt;n3 -->
<g id="edge18" class="edge"><title>n14&#45;&gt;n3</title>
<path fill="none" stroke="#00cd00" d="M126.617,-260.878C125.188,-250.524 125.255,-237.528 131.623,-228 136.346,-220.934 142.837,-215.284 150.095,-210.769"/>
<polygon fill="#00cd00" stroke="#00cd00" points="151.797,-213.828 158.908,-205.974 148.451,-207.679 151.797,-213.828"/>
<text text-anchor="middle" x="162.123" y="-231.8" font-family="Times New Roman,serif" font-size="14.00">destination</text>
</g>
<!-- n14&#45;&gt;n4 -->
<g id="edge19" class="edge"><title>n14&#45;&gt;n4</title>
<path fill="none" stroke="black" d="M162.955,-274.891C232.945,-268.041 394.103,-251.576 417.623,-243 429.089,-238.82 429.446,-232.899 440.623,-228 467.877,-216.054 478.264,-217.594 510.741,-210.112"/>
<polygon fill="black" stroke="black" points="511.624,-213.499 520.519,-207.744 509.976,-206.696 511.624,-213.499"/>
<text text-anchor="middle" x="450.123" y="-231.8" font-family="Times New Roman,serif" font-size="14.00">is a</text>
</g>
<!-- n14&#45;&gt;n13 -->
<g id="edge17" class="edge"><title>n14&#45;&gt;n13</title>
<path fill="none" stroke="#00cd00" d="M102.777,-268.867C90.6954,-263.377 77.7116,-255.06 70.6233,-243 66.6914,-236.31 65.383,-228.197 65.3455,-220.47"/>
<polygon fill="#00cd00" stroke="#00cd00" points="68.8479,-220.535 65.9552,-210.342 61.8605,-220.114 68.8479,-220.535"/>
<text text-anchor="middle" x="89.6233" y="-231.8" font-family="Times New Roman,serif" font-size="14.00">source</text>
</g>
<!-- n14&#45;&gt;n14 -->
<g id="edge16" class="edge"><title>n14&#45;&gt;n14</title>
<path fill="none" stroke="#00cd00" d="M160.569,-286.844C172.147,-287.193 181.77,-284.578 181.77,-279 181.77,-275.165 177.222,-272.731 170.617,-271.697"/>
<polygon fill="#00cd00" stroke="#00cd00" points="170.743,-268.199 160.569,-271.156 170.366,-275.189 170.743,-268.199"/>
<text text-anchor="middle" x="225.27" y="-275.3" font-family="Times New Roman,serif" font-size="14.00">identifier</text>
</g>
<!-- n15 -->
<g id="node15" class="node"><title>n15</title>
<ellipse fill="blue" stroke="black" cx="1333.62" cy="-192" rx="31.6951" ry="18"/>
<text text-anchor="middle" x="1333.62" y="-188.3" font-family="Times New Roman,serif" font-size="14.00" fill="white">Sys&#45;1</text>
</g>
<!-- n15&#45;&gt;n5 -->
<g id="edge22" class="edge"><title>n15&#45;&gt;n5</title>
<path fill="none" stroke="#00cd00" d="M1302.9,-186.966C1271.48,-183.001 1221.24,-177.109 1177.62,-174 1059.41,-165.575 760.952,-178.643 644.623,-156 625.577,-152.293 621.949,-147.376 603.623,-141 583.36,-133.95 560.8,-126.452 541.719,-120.213"/>
<polygon fill="#00cd00" stroke="#00cd00" points="542.681,-116.845 532.088,-117.073 540.511,-123.5 542.681,-116.845"/>
<text text-anchor="middle" x="667.123" y="-144.8" font-family="Times New Roman,serif" font-size="14.00">governs</text>
</g>
<!-- n15&#45;&gt;n10 -->
<g id="edge23" class="edge"><title>n15&#45;&gt;n10</title>
<path fill="none" stroke="black" d="M1333.62,-173.799C1333.62,-162.163 1333.62,-146.548 1333.62,-133.237"/>
<polygon fill="black" stroke="black" points="1337.12,-133.175 1333.62,-123.175 1330.12,-133.175 1337.12,-133.175"/>
<text text-anchor="middle" x="1343.12" y="-144.8" font-family="Times New Roman,serif" font-size="14.00">is a</text>
</g>
<!-- n15&#45;&gt;n15 -->
<g id="edge20" class="edge"><title>n15&#45;&gt;n15</title>
<path fill="none" stroke="#00cd00" d="M1362.31,-199.827C1373.81,-200.269 1383.47,-197.66 1383.47,-192 1383.47,-188.109 1378.91,-185.659 1372.31,-184.652"/>
<polygon fill="#00cd00" stroke="#00cd00" points="1372.46,-181.156 1362.31,-184.173 1372.13,-188.148 1372.46,-181.156"/>
<text text-anchor="middle" x="1426.97" y="-188.3" font-family="Times New Roman,serif" font-size="14.00">identifier</text>
</g>
<!-- n16 -->
<g id="node16" class="node"><title>n16</title>
<polygon fill="none" stroke="black" points="1879.12,-123 1420.12,-123 1420.12,-87 1879.12,-87 1879.12,-123"/>
<text text-anchor="middle" x="1649.62" y="-101.3" font-family="Times New Roman,serif" font-size="14.00">Turnstile system shall track the number of people that travel through the in gate.</text>
</g>
<!-- n15&#45;&gt;n16 -->
<g id="edge21" class="edge"><title>n15&#45;&gt;n16</title>
<path fill="none" stroke="#00cd00" d="M1364.8,-187.901C1403.64,-183.47 1471.7,-173.817 1527.62,-156 1542.59,-151.232 1545.18,-147.183 1559.62,-141 1570.82,-136.205 1582.91,-131.312 1594.49,-126.764"/>
<polygon fill="#00cd00" stroke="#00cd00" points="1596.01,-129.926 1604.06,-123.034 1593.47,-123.404 1596.01,-129.926"/>
<text text-anchor="middle" x="1570.12" y="-144.8" font-family="Times New Roman,serif" font-size="14.00">text</text>
</g>
<!-- n19 -->
<g id="node19" class="node"><title>n19</title>
<ellipse fill="blue" stroke="black" cx="1606.62" cy="-192" rx="31.6951" ry="18"/>
<text text-anchor="middle" x="1606.62" y="-188.3" font-family="Times New Roman,serif" font-size="14.00" fill="white">Sys&#45;2</text>
</g>
<!-- n19&#45;&gt;n5 -->
<g id="edge35" class="edge"><title>n19&#45;&gt;n5</title>
<path fill="none" stroke="#00cd00" d="M1578,-183.603C1531.81,-172.044 1437.78,-150.082 1356.62,-141 1044.69,-106.093 963.776,-144.35 650.623,-123 617.35,-120.731 580.161,-116.635 550.78,-113.032"/>
<polygon fill="#00cd00" stroke="#00cd00" points="551.087,-109.543 540.732,-111.782 550.223,-116.49 551.087,-109.543"/>
<text text-anchor="middle" x="1469.12" y="-144.8" font-family="Times New Roman,serif" font-size="14.00">governs</text>
</g>
<!-- n19&#45;&gt;n10 -->
<g id="edge36" class="edge"><title>n19&#45;&gt;n10</title>
<path fill="none" stroke="black" d="M1603.65,-173.838C1600.77,-162.637 1595.2,-148.71 1584.62,-141 1555.47,-119.741 1463.23,-127.826 1412.59,-122.735"/>
<polygon fill="black" stroke="black" points="1412.81,-119.236 1402.45,-121.434 1411.92,-126.179 1412.81,-119.236"/>
<text text-anchor="middle" x="1606.12" y="-144.8" font-family="Times New Roman,serif" font-size="14.00">is a</text>
</g>
<!-- n19&#45;&gt;n19 -->
<g id="edge33" class="edge"><title>n19&#45;&gt;n19</title>
<path fill="none" stroke="#00cd00" d="M1635.31,-199.827C1646.81,-200.269 1656.47,-197.66 1656.47,-192 1656.47,-188.109 1651.91,-185.659 1645.31,-184.652"/>
<polygon fill="#00cd00" stroke="#00cd00" points="1645.46,-181.156 1635.31,-184.173 1645.13,-188.148 1645.46,-181.156"/>
<text text-anchor="middle" x="1699.97" y="-188.3" font-family="Times New Roman,serif" font-size="14.00">identifier</text>
</g>
<!-- n20 -->
<g id="node20" class="node"><title>n20</title>
<polygon fill="none" stroke="black" points="2394.12,-123 1897.12,-123 1897.12,-87 2394.12,-87 2394.12,-123"/>
<text text-anchor="middle" x="2145.62" y="-101.3" font-family="Times New Roman,serif" font-size="14.00">Turnstile system shall track the number of people that travel through the out gate.	</text>
</g>
<!-- n19&#45;&gt;n20 -->
<g id="edge34" class="edge"><title>n19&#45;&gt;n20</title>
<path fill="none" stroke="#00cd00" d="M1637.15,-186.186C1710.87,-174.561 1901.82,-144.448 2027.59,-124.614"/>
<polygon fill="#00cd00" stroke="#00cd00" points="2028.33,-128.041 2037.66,-123.025 2027.24,-121.126 2028.33,-128.041"/>
<text text-anchor="middle" x="1918.12" y="-144.8" font-family="Times New Roman,serif" font-size="14.00">text</text>
</g>
</g>
</svg>
