<?xml version="1.0" encoding="UTF-8" standalone="no"?>
<!DOCTYPE svg PUBLIC "-//W3C//DTD SVG 1.1//EN"
 "http://www.w3.org/Graphics/SVG/1.1/DTD/svg11.dtd">
<!-- Generated by graphviz version 2.38.0 (20140413.2041)
 -->
<!-- Title: gtrnstl Pages: 1 -->
<svg width="2260pt" height="328pt"
 viewBox="0.00 0.00 2260.35 328.00" xmlns="http://www.w3.org/2000/svg" xmlns:xlink="http://www.w3.org/1999/xlink">
<g id="graph0" class="graph" transform="scale(1 1) rotate(0) translate(4 324)">
<title>gtrnstl</title>
<polygon fill="white" stroke="none" points="-4,4 -4,-324 2256.35,-324 2256.35,4 -4,4"/>
<text text-anchor="middle" x="91" y="-304.8" font-family="Times New Roman,serif" font-size="14.00">Graph of Ontology File: trnstl</text>
<!-- n1 -->
<g id="node1" class="node"><title>n1</title>
<ellipse fill="blue" stroke="black" cx="38.3466" cy="-192" rx="38.1938" ry="18"/>
<text text-anchor="middle" x="38.3466" y="-188.3" font-family="Times New Roman,serif" font-size="14.00" fill="white">Display</text>
</g>
<!-- n1&#45;&gt;n1 -->
<g id="edge1" class="edge"><title>n1&#45;&gt;n1</title>
<path fill="none" stroke="#00cd00" d="M73.0113,-199.873C85.0063,-199.956 94.6932,-197.332 94.6932,-192 94.6932,-188.334 90.1146,-185.948 83.3552,-184.842"/>
<polygon fill="#00cd00" stroke="#00cd00" points="83.2289,-181.325 73.0113,-184.127 82.746,-188.308 83.2289,-181.325"/>
<text text-anchor="middle" x="138.193" y="-188.3" font-family="Times New Roman,serif" font-size="14.00">uniqueIdentifier</text>
</g>
<!-- n2 -->
<g id="node2" class="node"><title>n2</title>
<ellipse fill="blue" stroke="black" cx="482.347" cy="-105" rx="46.2923" ry="18"/>
<text text-anchor="middle" x="482.347" y="-101.3" font-family="Times New Roman,serif" font-size="14.00" fill="white">Turnstiles</text>
</g>
<!-- n1&#45;&gt;n2 -->
<g id="edge2" class="edge"><title>n1&#45;&gt;n2</title>
<path fill="none" stroke="#00cd00" d="M60.5046,-177.227C80.9248,-165.31 112.497,-148.801 142.347,-141 265.142,-108.91 302.511,-145.9 427.347,-123 431.271,-122.28 435.309,-121.371 439.33,-120.35"/>
<polygon fill="#00cd00" stroke="#00cd00" points="440.505,-123.657 449.214,-117.623 438.643,-116.909 440.505,-123.657"/>
<text text-anchor="middle" x="160.847" y="-144.8" font-family="Times New Roman,serif" font-size="14.00">partOf</text>
</g>
<!-- n3 -->
<g id="node3" class="node"><title>n3</title>
<g id="a_node3"><a xlink:href="file:///C:/sadl/git/RACK/RACK-Ontology/Graphs/SYSTEM.owl.svg" xlink:title="sys:SYSTEM">
<polygon fill="#00008b" stroke="black" points="298.347,-36 204.347,-36 204.347,-0 298.347,-0 298.347,-36"/>
<text text-anchor="middle" x="251.347" y="-14.3" font-family="Times New Roman,serif" font-size="14.00" fill="white">sys:SYSTEM</text>
</a>
</g>
</g>
<!-- n1&#45;&gt;n3 -->
<g id="edge3" class="edge"><title>n1&#45;&gt;n3</title>
<path fill="none" stroke="black" d="M43.0411,-174.079C49.9064,-151.877 64.5241,-112.722 88.3466,-87 116.127,-57.0037 159.189,-39.8072 194.076,-30.2145"/>
<polygon fill="black" stroke="black" points="195.351,-33.4991 204.146,-27.591 193.586,-26.7252 195.351,-33.4991"/>
<text text-anchor="middle" x="97.8466" y="-101.3" font-family="Times New Roman,serif" font-size="14.00">is a</text>
</g>
<!-- n2&#45;&gt;n3 -->
<g id="edge25" class="edge"><title>n2&#45;&gt;n3</title>
<path fill="none" stroke="black" d="M449.74,-92.0019C412.779,-78.4016 351.882,-55.9936 307.29,-39.5852"/>
<polygon fill="black" stroke="black" points="308.347,-36.2447 297.753,-36.076 305.929,-42.8141 308.347,-36.2447"/>
<text text-anchor="middle" x="390.847" y="-57.8" font-family="Times New Roman,serif" font-size="14.00">is a</text>
</g>
<!-- n16 -->
<g id="node16" class="node"><title>n16</title>
<polygon fill="none" stroke="black" points="536.847,-36 427.847,-36 427.847,-0 536.847,-0 536.847,-36"/>
<text text-anchor="middle" x="482.347" y="-14.3" font-family="Times New Roman,serif" font-size="14.00">TurnStileSystem</text>
</g>
<!-- n2&#45;&gt;n16 -->
<g id="edge24" class="edge"><title>n2&#45;&gt;n16</title>
<path fill="none" stroke="#00cd00" d="M482.347,-86.799C482.347,-75.1626 482.347,-59.5479 482.347,-46.2368"/>
<polygon fill="#00cd00" stroke="#00cd00" points="485.847,-46.1754 482.347,-36.1754 478.847,-46.1755 485.847,-46.1754"/>
<text text-anchor="middle" x="525.847" y="-57.8" font-family="Times New Roman,serif" font-size="14.00">uniqueIdentifier</text>
</g>
<!-- n4 -->
<g id="node4" class="node"><title>n4</title>
<ellipse fill="blue" stroke="black" cx="201.347" cy="-279" rx="35.9954" ry="18"/>
<text text-anchor="middle" x="201.347" y="-275.3" font-family="Times New Roman,serif" font-size="14.00" fill="white">census</text>
</g>
<!-- n4&#45;&gt;n1 -->
<g id="edge6" class="edge"><title>n4&#45;&gt;n1</title>
<path fill="none" stroke="#00cd00" d="M171.238,-269.098C152.337,-262.956 127.763,-253.936 107.347,-243 92.3009,-234.941 76.8019,-223.99 64.3142,-214.391"/>
<polygon fill="#00cd00" stroke="#00cd00" points="66.2192,-211.437 56.1926,-208.014 61.8961,-216.943 66.2192,-211.437"/>
<text text-anchor="middle" x="137.847" y="-231.8" font-family="Times New Roman,serif" font-size="14.00">destination</text>
</g>
<!-- n4&#45;&gt;n4 -->
<g id="edge4" class="edge"><title>n4&#45;&gt;n4</title>
<path fill="none" stroke="#00cd00" d="M233.616,-286.863C245.422,-287.076 255.093,-284.455 255.093,-279 255.093,-275.25 250.522,-272.839 243.829,-271.768"/>
<polygon fill="#00cd00" stroke="#00cd00" points="243.813,-268.26 233.616,-271.137 243.382,-275.247 243.813,-268.26"/>
<text text-anchor="middle" x="298.593" y="-275.3" font-family="Times New Roman,serif" font-size="14.00">uniqueIdentifier</text>
</g>
<!-- n5 -->
<g id="node5" class="node"><title>n5</title>
<ellipse fill="blue" stroke="black" cx="364.347" cy="-192" rx="81.7856" ry="18"/>
<text text-anchor="middle" x="364.347" y="-188.3" font-family="Times New Roman,serif" font-size="14.00" fill="white">CounterApplication</text>
</g>
<!-- n4&#45;&gt;n5 -->
<g id="edge5" class="edge"><title>n4&#45;&gt;n5</title>
<path fill="none" stroke="#00cd00" d="M215.996,-262.141C226.802,-251.245 242.349,-237.149 258.347,-228 271.802,-220.305 287.196,-214.002 302.005,-208.972"/>
<polygon fill="#00cd00" stroke="#00cd00" points="303.194,-212.266 311.625,-205.849 301.033,-205.608 303.194,-212.266"/>
<text text-anchor="middle" x="277.347" y="-231.8" font-family="Times New Roman,serif" font-size="14.00">source</text>
</g>
<!-- n6 -->
<g id="node6" class="node"><title>n6</title>
<ellipse fill="blue" stroke="black" cx="232.347" cy="-192" rx="32.4942" ry="18"/>
<text text-anchor="middle" x="232.347" y="-188.3" font-family="Times New Roman,serif" font-size="14.00" fill="white">Ingate</text>
</g>
<!-- n4&#45;&gt;n6 -->
<g id="edge7" class="edge"><title>n4&#45;&gt;n6</title>
<path fill="none" stroke="#00cd00" d="M184.763,-263.042C175.783,-253.065 167.751,-239.684 174.347,-228 179.324,-219.183 187.514,-212.337 196.192,-207.135"/>
<polygon fill="#00cd00" stroke="#00cd00" points="198.111,-210.079 205.298,-202.295 194.825,-203.898 198.111,-210.079"/>
<text text-anchor="middle" x="204.847" y="-231.8" font-family="Times New Roman,serif" font-size="14.00">destination</text>
</g>
<!-- n7 -->
<g id="node7" class="node"><title>n7</title>
<g id="a_node7"><a xlink:href="file:///C:/sadl/git/RACK/RACK-Ontology/Graphs/SYSTEM.owl.svg" xlink:title="sys:INTERFACE">
<polygon fill="#00008b" stroke="black" points="580.347,-210 464.347,-210 464.347,-174 580.347,-174 580.347,-210"/>
<text text-anchor="middle" x="522.347" y="-188.3" font-family="Times New Roman,serif" font-size="14.00" fill="white">sys:INTERFACE</text>
</a>
</g>
</g>
<!-- n4&#45;&gt;n7 -->
<g id="edge8" class="edge"><title>n4&#45;&gt;n7</title>
<path fill="none" stroke="black" d="M231.94,-269.437C251.107,-263.426 275.952,-254.425 296.347,-243 305.733,-237.742 305.429,-232.171 315.347,-228 370.352,-204.869 391.625,-220.074 454.341,-209.943"/>
<polygon fill="black" stroke="black" points="455.101,-213.363 464.338,-208.174 453.881,-206.471 455.101,-213.363"/>
<text text-anchor="middle" x="324.847" y="-231.8" font-family="Times New Roman,serif" font-size="14.00">is a</text>
</g>
<!-- n5&#45;&gt;n2 -->
<g id="edge38" class="edge"><title>n5&#45;&gt;n2</title>
<path fill="none" stroke="#00cd00" d="M423.443,-179.402C458.163,-171.988 496.246,-162.568 501.347,-156 506.952,-148.783 505.44,-139.726 501.455,-131.31"/>
<polygon fill="#00cd00" stroke="#00cd00" points="504.42,-129.447 496.379,-122.548 498.363,-132.955 504.42,-129.447"/>
<text text-anchor="middle" x="523.847" y="-144.8" font-family="Times New Roman,serif" font-size="14.00">partOf</text>
</g>
<!-- n5&#45;&gt;n3 -->
<g id="edge39" class="edge"><title>n5&#45;&gt;n3</title>
<path fill="none" stroke="black" d="M325.591,-176.044C302.569,-165.016 275.074,-147.623 260.347,-123 246.516,-99.8765 245.715,-68.5348 247.473,-46.3193"/>
<polygon fill="black" stroke="black" points="250.97,-46.5245 248.496,-36.2225 244.006,-45.8187 250.97,-46.5245"/>
<text text-anchor="middle" x="269.847" y="-101.3" font-family="Times New Roman,serif" font-size="14.00">is a</text>
</g>
<!-- n21 -->
<g id="node21" class="node"><title>n21</title>
<polygon fill="none" stroke="black" points="418.347,-123 288.347,-123 288.347,-87 418.347,-87 418.347,-123"/>
<text text-anchor="middle" x="353.347" y="-101.3" font-family="Times New Roman,serif" font-size="14.00">Counter Application</text>
</g>
<!-- n5&#45;&gt;n21 -->
<g id="edge37" class="edge"><title>n5&#45;&gt;n21</title>
<path fill="none" stroke="#00cd00" d="M358.462,-173.749C356.812,-168.154 355.229,-161.874 354.347,-156 353.254,-148.731 352.775,-140.802 352.623,-133.445"/>
<polygon fill="#00cd00" stroke="#00cd00" points="356.123,-133.209 352.601,-123.217 349.123,-133.224 356.123,-133.209"/>
<text text-anchor="middle" x="397.847" y="-144.8" font-family="Times New Roman,serif" font-size="14.00">uniqueIdentifier</text>
</g>
<!-- n6&#45;&gt;n2 -->
<g id="edge10" class="edge"><title>n6&#45;&gt;n2</title>
<path fill="none" stroke="#00cd00" d="M256.236,-179.753C261.753,-177.535 267.672,-175.448 273.347,-174 346.108,-155.429 375.279,-191.696 441.347,-156 451.933,-150.28 460.842,-140.585 467.622,-131.245"/>
<polygon fill="#00cd00" stroke="#00cd00" points="470.563,-133.145 473.238,-122.893 464.754,-129.239 470.563,-133.145"/>
<text text-anchor="middle" x="477.847" y="-144.8" font-family="Times New Roman,serif" font-size="14.00">partOf</text>
</g>
<!-- n6&#45;&gt;n3 -->
<g id="edge11" class="edge"><title>n6&#45;&gt;n3</title>
<path fill="none" stroke="black" d="M207.727,-180.218C202.082,-177.975 196.06,-175.761 190.347,-174 154.276,-162.878 131.041,-185.383 107.347,-156 103.162,-150.81 106.065,-147.542 107.347,-141 112.328,-115.568 112.169,-106.405 129.347,-87 147.146,-66.8931 172.376,-51.4572 195.276,-40.4137"/>
<polygon fill="black" stroke="black" points="196.984,-43.4801 204.584,-36.0985 194.039,-37.1294 196.984,-43.4801"/>
<text text-anchor="middle" x="138.847" y="-101.3" font-family="Times New Roman,serif" font-size="14.00">is a</text>
</g>
<!-- n8 -->
<g id="node8" class="node"><title>n8</title>
<polygon fill="none" stroke="black" points="215.347,-123 157.347,-123 157.347,-87 215.347,-87 215.347,-123"/>
<text text-anchor="middle" x="186.347" y="-101.3" font-family="Times New Roman,serif" font-size="14.00">In Gate</text>
</g>
<!-- n6&#45;&gt;n8 -->
<g id="edge9" class="edge"><title>n6&#45;&gt;n8</title>
<path fill="none" stroke="#00cd00" d="M209.421,-179.012C200.896,-173.277 192.139,-165.555 187.347,-156 183.868,-149.064 182.696,-140.876 182.645,-133.157"/>
<polygon fill="#00cd00" stroke="#00cd00" points="186.145,-133.247 183.157,-123.082 179.154,-132.891 186.145,-133.247"/>
<text text-anchor="middle" x="230.847" y="-144.8" font-family="Times New Roman,serif" font-size="14.00">uniqueIdentifier</text>
</g>
<!-- n9 -->
<g id="node9" class="node"><title>n9</title>
<ellipse fill="blue" stroke="black" cx="761.347" cy="-192" rx="31.6951" ry="18"/>
<text text-anchor="middle" x="761.347" y="-188.3" font-family="Times New Roman,serif" font-size="14.00" fill="white">Sys&#45;3</text>
</g>
<!-- n9&#45;&gt;n2 -->
<g id="edge14" class="edge"><title>n9&#45;&gt;n2</title>
<path fill="none" stroke="#00cd00" d="M733.745,-182.67C691.45,-169.894 608.07,-144.665 537.347,-123 533.996,-121.974 530.532,-120.909 527.047,-119.837"/>
<polygon fill="#00cd00" stroke="#00cd00" points="527.84,-116.419 517.253,-116.818 525.778,-123.109 527.84,-116.419"/>
<text text-anchor="middle" x="664.847" y="-144.8" font-family="Times New Roman,serif" font-size="14.00">governs</text>
</g>
<!-- n9&#45;&gt;n9 -->
<g id="edge12" class="edge"><title>n9&#45;&gt;n9</title>
<path fill="none" stroke="#00cd00" d="M790.032,-199.827C801.537,-200.269 811.194,-197.66 811.194,-192 811.194,-188.109 806.629,-185.659 800.038,-184.652"/>
<polygon fill="#00cd00" stroke="#00cd00" points="800.188,-181.156 790.032,-184.173 799.853,-188.148 800.188,-181.156"/>
<text text-anchor="middle" x="854.694" y="-188.3" font-family="Times New Roman,serif" font-size="14.00">uniqueIdentifier</text>
</g>
<!-- n10 -->
<g id="node10" class="node"><title>n10</title>
<polygon fill="none" stroke="black" points="976.347,-123 546.347,-123 546.347,-87 976.347,-87 976.347,-123"/>
<text text-anchor="middle" x="761.347" y="-101.3" font-family="Times New Roman,serif" font-size="14.00">Turnstile system shall track the number of people are currently in the park.</text>
</g>
<!-- n9&#45;&gt;n10 -->
<g id="edge13" class="edge"><title>n9&#45;&gt;n10</title>
<path fill="none" stroke="#00cd00" d="M761.347,-173.799C761.347,-162.163 761.347,-146.548 761.347,-133.237"/>
<polygon fill="#00cd00" stroke="#00cd00" points="764.847,-133.175 761.347,-123.175 757.847,-133.175 764.847,-133.175"/>
<text text-anchor="middle" x="771.847" y="-144.8" font-family="Times New Roman,serif" font-size="14.00">text</text>
</g>
<!-- n11 -->
<g id="node11" class="node"><title>n11</title>
<g id="a_node11"><a xlink:href="file:///C:/sadl/git/RACK/RACK-Ontology/Graphs/REQUIREMENTS.owl.svg" xlink:title="Rq:REQUIREMENT">
<polygon fill="#00008b" stroke="black" points="1608.85,-123 1471.85,-123 1471.85,-87 1608.85,-87 1608.85,-123"/>
<text text-anchor="middle" x="1540.35" y="-101.3" font-family="Times New Roman,serif" font-size="14.00" fill="white">Rq:REQUIREMENT</text>
</a>
</g>
</g>
<!-- n9&#45;&gt;n11 -->
<g id="edge15" class="edge"><title>n9&#45;&gt;n11</title>
<path fill="none" stroke="black" d="M791.971,-187.047C863.518,-177.915 1047.26,-155.061 1201.35,-141 1313.97,-130.722 1345.53,-138.947 1461.55,-122.971"/>
<polygon fill="black" stroke="black" points="1462.13,-126.425 1471.54,-121.565 1461.15,-119.493 1462.13,-126.425"/>
<text text-anchor="middle" x="1210.85" y="-144.8" font-family="Times New Roman,serif" font-size="14.00">is a</text>
</g>
<!-- n12 -->
<g id="node12" class="node"><title>n12</title>
<ellipse fill="blue" stroke="black" cx="631.347" cy="-279" rx="38.1938" ry="18"/>
<text text-anchor="middle" x="631.347" y="-275.3" font-family="Times New Roman,serif" font-size="14.00" fill="white">outflow</text>
</g>
<!-- n12&#45;&gt;n5 -->
<g id="edge18" class="edge"><title>n12&#45;&gt;n5</title>
<path fill="none" stroke="#00cd00" d="M602.575,-266.892C585.545,-260.201 563.605,-251.38 544.347,-243 529.944,-236.733 527.179,-233.168 512.347,-228 487.474,-219.334 459.513,-212.107 434.647,-206.514"/>
<polygon fill="#00cd00" stroke="#00cd00" points="435.08,-203.025 424.562,-204.295 433.576,-209.862 435.08,-203.025"/>
<text text-anchor="middle" x="574.847" y="-231.8" font-family="Times New Roman,serif" font-size="14.00">destination</text>
</g>
<!-- n12&#45;&gt;n7 -->
<g id="edge19" class="edge"><title>n12&#45;&gt;n7</title>
<path fill="none" stroke="black" d="M627.339,-260.78C624.075,-250.126 618.475,-236.841 609.347,-228 603.59,-222.425 596.832,-217.7 589.669,-213.705"/>
<polygon fill="black" stroke="black" points="590.927,-210.419 580.425,-209.024 587.765,-216.664 590.927,-210.419"/>
<text text-anchor="middle" x="629.847" y="-231.8" font-family="Times New Roman,serif" font-size="14.00">is a</text>
</g>
<!-- n12&#45;&gt;n12 -->
<g id="edge16" class="edge"><title>n12&#45;&gt;n12</title>
<path fill="none" stroke="#00cd00" d="M666.011,-286.873C678.006,-286.956 687.693,-284.332 687.693,-279 687.693,-275.334 683.115,-272.948 676.355,-271.842"/>
<polygon fill="#00cd00" stroke="#00cd00" points="676.229,-268.325 666.011,-271.127 675.746,-275.308 676.229,-268.325"/>
<text text-anchor="middle" x="731.193" y="-275.3" font-family="Times New Roman,serif" font-size="14.00">uniqueIdentifier</text>
</g>
<!-- n13 -->
<g id="node13" class="node"><title>n13</title>
<ellipse fill="blue" stroke="black" cx="1939.35" cy="-192" rx="38.9931" ry="18"/>
<text text-anchor="middle" x="1939.35" y="-188.3" font-family="Times New Roman,serif" font-size="14.00" fill="white">Outgate</text>
</g>
<!-- n12&#45;&gt;n13 -->
<g id="edge17" class="edge"><title>n12&#45;&gt;n13</title>
<path fill="none" stroke="#00cd00" d="M669.197,-275.598C806.107,-266.901 1288.47,-236.19 1686.35,-210 1757.44,-205.32 1839.77,-199.763 1890.71,-196.308"/>
<polygon fill="#00cd00" stroke="#00cd00" points="1891.03,-199.794 1900.77,-195.625 1890.56,-192.81 1891.03,-199.794"/>
<text text-anchor="middle" x="1416.35" y="-231.8" font-family="Times New Roman,serif" font-size="14.00">source</text>
</g>
<!-- n13&#45;&gt;n2 -->
<g id="edge35" class="edge"><title>n13&#45;&gt;n2</title>
<path fill="none" stroke="#00cd00" d="M1900.82,-188.523C1808.49,-182.489 1576.48,-166.743 1499.35,-156 1465.68,-151.311 1458.14,-144.693 1424.35,-141 1228.36,-119.584 731.979,-154.416 537.347,-123 533.24,-122.337 529.014,-121.44 524.817,-120.403"/>
<polygon fill="#00cd00" stroke="#00cd00" points="525.714,-117.02 515.146,-117.773 523.877,-123.775 525.714,-117.02"/>
<text text-anchor="middle" x="1517.85" y="-144.8" font-family="Times New Roman,serif" font-size="14.00">partOf</text>
</g>
<!-- n13&#45;&gt;n3 -->
<g id="edge36" class="edge"><title>n13&#45;&gt;n3</title>
<path fill="none" stroke="black" d="M1978.1,-189.279C2070.96,-183.908 2293.17,-162.946 2219.35,-87 2149.58,-15.2269 518.232,-42.4895 418.347,-36 381.74,-33.6217 340.756,-29.472 308.55,-25.868"/>
<polygon fill="black" stroke="black" points="308.75,-22.3683 298.419,-24.72 307.961,-29.3238 308.75,-22.3683"/>
<text text-anchor="middle" x="2242.85" y="-101.3" font-family="Times New Roman,serif" font-size="14.00">is a</text>
</g>
<!-- n20 -->
<g id="node20" class="node"><title>n20</title>
<polygon fill="none" stroke="black" points="2210.35,-123 2142.35,-123 2142.35,-87 2210.35,-87 2210.35,-123"/>
<text text-anchor="middle" x="2176.35" y="-101.3" font-family="Times New Roman,serif" font-size="14.00">Out Gate</text>
</g>
<!-- n13&#45;&gt;n20 -->
<g id="edge34" class="edge"><title>n13&#45;&gt;n20</title>
<path fill="none" stroke="#00cd00" d="M1970.06,-180.653C2006.55,-168.267 2069.46,-146.626 2132.43,-123.278"/>
<polygon fill="#00cd00" stroke="#00cd00" points="2133.97,-126.438 2142.13,-119.67 2131.53,-119.878 2133.97,-126.438"/>
<text text-anchor="middle" x="2122.85" y="-144.8" font-family="Times New Roman,serif" font-size="14.00">uniqueIdentifier</text>
</g>
<!-- n14 -->
<g id="node14" class="node"><title>n14</title>
<ellipse fill="blue" stroke="black" cx="1224.35" cy="-192" rx="31.6951" ry="18"/>
<text text-anchor="middle" x="1224.35" y="-188.3" font-family="Times New Roman,serif" font-size="14.00" fill="white">Sys&#45;1</text>
</g>
<!-- n14&#45;&gt;n2 -->
<g id="edge22" class="edge"><title>n14&#45;&gt;n2</title>
<path fill="none" stroke="#00cd00" d="M1193.59,-187.044C1122.18,-177.956 939.519,-155.273 786.347,-141 675.87,-130.706 646.389,-143.516 537.347,-123 533.425,-122.262 529.39,-121.341 525.371,-120.312"/>
<polygon fill="#00cd00" stroke="#00cd00" points="526.06,-116.871 515.489,-117.573 524.191,-123.617 526.06,-116.871"/>
<text text-anchor="middle" x="953.847" y="-144.8" font-family="Times New Roman,serif" font-size="14.00">governs</text>
</g>
<!-- n14&#45;&gt;n11 -->
<g id="edge23" class="edge"><title>n14&#45;&gt;n11</title>
<path fill="none" stroke="black" d="M1252.39,-183.457C1300.12,-170.619 1398.6,-144.129 1467.02,-125.725"/>
<polygon fill="black" stroke="black" points="1468.14,-129.048 1476.88,-123.07 1466.32,-122.288 1468.14,-129.048"/>
<text text-anchor="middle" x="1410.85" y="-144.8" font-family="Times New Roman,serif" font-size="14.00">is a</text>
</g>
<!-- n14&#45;&gt;n14 -->
<g id="edge20" class="edge"><title>n14&#45;&gt;n14</title>
<path fill="none" stroke="#00cd00" d="M1253.03,-199.827C1264.54,-200.269 1274.19,-197.66 1274.19,-192 1274.19,-188.109 1269.63,-185.659 1263.04,-184.652"/>
<polygon fill="#00cd00" stroke="#00cd00" points="1263.19,-181.156 1253.03,-184.173 1262.85,-188.148 1263.19,-181.156"/>
<text text-anchor="middle" x="1317.69" y="-188.3" font-family="Times New Roman,serif" font-size="14.00">uniqueIdentifier</text>
</g>
<!-- n15 -->
<g id="node15" class="node"><title>n15</title>
<polygon fill="none" stroke="black" points="1453.85,-123 994.847,-123 994.847,-87 1453.85,-87 1453.85,-123"/>
<text text-anchor="middle" x="1224.35" y="-101.3" font-family="Times New Roman,serif" font-size="14.00">Turnstile system shall track the number of people that travel through the in gate.</text>
</g>
<!-- n14&#45;&gt;n15 -->
<g id="edge21" class="edge"><title>n14&#45;&gt;n15</title>
<path fill="none" stroke="#00cd00" d="M1224.35,-173.799C1224.35,-162.163 1224.35,-146.548 1224.35,-133.237"/>
<polygon fill="#00cd00" stroke="#00cd00" points="1227.85,-133.175 1224.35,-123.175 1220.85,-133.175 1227.85,-133.175"/>
<text text-anchor="middle" x="1234.85" y="-144.8" font-family="Times New Roman,serif" font-size="14.00">text</text>
</g>
<!-- n17 -->
<g id="node17" class="node"><title>n17</title>
<ellipse fill="blue" stroke="black" cx="421.347" cy="-279" rx="33.2948" ry="18"/>
<text text-anchor="middle" x="421.347" y="-275.3" font-family="Times New Roman,serif" font-size="14.00" fill="white">inflow</text>
</g>
<!-- n17&#45;&gt;n5 -->
<g id="edge28" class="edge"><title>n17&#45;&gt;n5</title>
<path fill="none" stroke="#00cd00" d="M415.663,-260.981C411.872,-250.91 406.307,-238.176 399.347,-228 396.766,-224.228 393.747,-220.512 390.583,-216.992"/>
<polygon fill="#00cd00" stroke="#00cd00" points="392.989,-214.445 383.539,-209.654 387.939,-219.292 392.989,-214.445"/>
<text text-anchor="middle" x="438.847" y="-231.8" font-family="Times New Roman,serif" font-size="14.00">destination</text>
</g>
<!-- n17&#45;&gt;n6 -->
<g id="edge27" class="edge"><title>n17&#45;&gt;n6</title>
<path fill="none" stroke="#00cd00" d="M397.69,-266.276C385.372,-259.872 370.233,-251.523 357.347,-243 348.373,-237.065 347.943,-232.865 338.347,-228 311.61,-214.445 301.69,-219.759 273.347,-210 271.215,-209.266 269.036,-208.478 266.847,-207.658"/>
<polygon fill="#00cd00" stroke="#00cd00" points="267.899,-204.311 257.311,-203.923 265.346,-210.829 267.899,-204.311"/>
<text text-anchor="middle" x="376.347" y="-231.8" font-family="Times New Roman,serif" font-size="14.00">source</text>
</g>
<!-- n17&#45;&gt;n7 -->
<g id="edge29" class="edge"><title>n17&#45;&gt;n7</title>
<path fill="none" stroke="black" d="M442.539,-265.128C452.256,-258.88 463.726,-251.004 473.347,-243 482.646,-235.263 492.121,-225.984 500.23,-217.532"/>
<polygon fill="black" stroke="black" points="502.946,-219.752 507.248,-210.07 497.847,-214.956 502.946,-219.752"/>
<text text-anchor="middle" x="498.847" y="-231.8" font-family="Times New Roman,serif" font-size="14.00">is a</text>
</g>
<!-- n17&#45;&gt;n17 -->
<g id="edge26" class="edge"><title>n17&#45;&gt;n17</title>
<path fill="none" stroke="#00cd00" d="M451.292,-286.844C462.87,-287.193 472.494,-284.578 472.494,-279 472.494,-275.165 467.945,-272.731 461.34,-271.697"/>
<polygon fill="#00cd00" stroke="#00cd00" points="461.466,-268.199 451.292,-271.156 461.089,-275.189 461.466,-268.199"/>
<text text-anchor="middle" x="515.994" y="-275.3" font-family="Times New Roman,serif" font-size="14.00">uniqueIdentifier</text>
</g>
<!-- n18 -->
<g id="node18" class="node"><title>n18</title>
<ellipse fill="blue" stroke="black" cx="1540.35" cy="-192" rx="31.6951" ry="18"/>
<text text-anchor="middle" x="1540.35" y="-188.3" font-family="Times New Roman,serif" font-size="14.00" fill="white">Sys&#45;2</text>
</g>
<!-- n18&#45;&gt;n2 -->
<g id="edge32" class="edge"><title>n18&#45;&gt;n2</title>
<path fill="none" stroke="#00cd00" d="M1509.66,-186.912C1466.24,-180.973 1384.46,-169.213 1315.35,-156 1285.8,-150.351 1279.2,-144.732 1249.35,-141 1092.3,-121.365 693.534,-148.61 537.347,-123 533.241,-122.327 529.017,-121.423 524.821,-120.382"/>
<polygon fill="#00cd00" stroke="#00cd00" points="525.719,-116.999 515.15,-117.745 523.877,-123.752 525.719,-116.999"/>
<text text-anchor="middle" x="1337.85" y="-144.8" font-family="Times New Roman,serif" font-size="14.00">governs</text>
</g>
<!-- n18&#45;&gt;n11 -->
<g id="edge33" class="edge"><title>n18&#45;&gt;n11</title>
<path fill="none" stroke="black" d="M1540.35,-173.799C1540.35,-162.163 1540.35,-146.548 1540.35,-133.237"/>
<polygon fill="black" stroke="black" points="1543.85,-133.175 1540.35,-123.175 1536.85,-133.175 1543.85,-133.175"/>
<text text-anchor="middle" x="1549.85" y="-144.8" font-family="Times New Roman,serif" font-size="14.00">is a</text>
</g>
<!-- n18&#45;&gt;n18 -->
<g id="edge30" class="edge"><title>n18&#45;&gt;n18</title>
<path fill="none" stroke="#00cd00" d="M1569.03,-199.827C1580.54,-200.269 1590.19,-197.66 1590.19,-192 1590.19,-188.109 1585.63,-185.659 1579.04,-184.652"/>
<polygon fill="#00cd00" stroke="#00cd00" points="1579.19,-181.156 1569.03,-184.173 1578.85,-188.148 1579.19,-181.156"/>
<text text-anchor="middle" x="1633.69" y="-188.3" font-family="Times New Roman,serif" font-size="14.00">uniqueIdentifier</text>
</g>
<!-- n19 -->
<g id="node19" class="node"><title>n19</title>
<polygon fill="none" stroke="black" points="2123.85,-123 1626.85,-123 1626.85,-87 2123.85,-87 2123.85,-123"/>
<text text-anchor="middle" x="1875.35" y="-101.3" font-family="Times New Roman,serif" font-size="14.00">Turnstile system shall track the number of people that travel through the out gate.	</text>
</g>
<!-- n18&#45;&gt;n19 -->
<g id="edge31" class="edge"><title>n18&#45;&gt;n19</title>
<path fill="none" stroke="#00cd00" d="M1568.91,-183.753C1619.16,-171.004 1724.96,-144.158 1798.07,-125.607"/>
<polygon fill="#00cd00" stroke="#00cd00" points="1799.33,-128.899 1808.16,-123.047 1797.61,-122.114 1799.33,-128.899"/>
<text text-anchor="middle" x="1738.85" y="-144.8" font-family="Times New Roman,serif" font-size="14.00">text</text>
</g>
</g>
</svg>
