<?xml version="1.0" encoding="UTF-8" standalone="no"?>
<!DOCTYPE svg PUBLIC "-//W3C//DTD SVG 1.1//EN"
 "http://www.w3.org/Graphics/SVG/1.1/DTD/svg11.dtd">
<!-- Generated by graphviz version 2.38.0 (20140413.2041)
 -->
<!-- Title: gtrnstl Pages: 1 -->
<svg width="2743pt" height="328pt"
 viewBox="0.00 0.00 2743.00 328.00" xmlns="http://www.w3.org/2000/svg" xmlns:xlink="http://www.w3.org/1999/xlink">
<g id="graph0" class="graph" transform="scale(1 1) rotate(0) translate(4 324)">
<title>gtrnstl</title>
<polygon fill="white" stroke="none" points="-4,4 -4,-324 2739,-324 2739,4 -4,4"/>
<text text-anchor="middle" x="91" y="-304.8" font-family="Times New Roman,serif" font-size="14.00">Graph of Ontology File: trnstl</text>
<!-- n1 -->
<g id="node1" class="node"><title>n1</title>
<g id="a_node1"><a xlink:href="file:///C:/sadl/git/RACK/RACK-Ontology/Graphs/Turnstiles.owl.svg" xlink:title="null:outflow">
<ellipse fill="blue" stroke="black" cx="181.5" cy="-279" rx="53.0913" ry="18"/>
<text text-anchor="middle" x="181.5" y="-275.3" font-family="Times New Roman,serif" font-size="14.00" fill="white">null:outflow</text>
</a>
</g>
</g>
<!-- n2 -->
<g id="node2" class="node"><title>n2</title>
<polygon fill="none" stroke="black" points="59,-210 0,-210 0,-174 59,-174 59,-210"/>
<text text-anchor="middle" x="29.5" y="-188.3" font-family="Times New Roman,serif" font-size="14.00">outflow</text>
</g>
<!-- n1&#45;&gt;n2 -->
<g id="edge1" class="edge"><title>n1&#45;&gt;n2</title>
<path fill="none" stroke="#00cd00" d="M131.034,-273.158C106.41,-268.631 77.6241,-259.885 56.5,-243 48.8855,-236.913 43.1266,-228.076 38.9252,-219.519"/>
<polygon fill="#00cd00" stroke="#00cd00" points="42.0377,-217.9 34.8277,-210.137 35.6229,-220.702 42.0377,-217.9"/>
<text text-anchor="middle" x="100" y="-231.8" font-family="Times New Roman,serif" font-size="14.00">uniqueIdentifier</text>
</g>
<!-- n3 -->
<g id="node3" class="node"><title>n3</title>
<g id="a_node3"><a xlink:href="file:///C:/sadl/git/RACK/RACK-Ontology/Graphs/Turnstiles.owl.svg" xlink:title="null:Outgate">
<ellipse fill="blue" stroke="black" cx="130.5" cy="-192" rx="53.8905" ry="18"/>
<text text-anchor="middle" x="130.5" y="-188.3" font-family="Times New Roman,serif" font-size="14.00" fill="white">null:Outgate</text>
</a>
</g>
</g>
<!-- n1&#45;&gt;n3 -->
<g id="edge2" class="edge"><title>n1&#45;&gt;n3</title>
<path fill="none" stroke="#00cd00" d="M168.187,-261.328C163.914,-255.66 159.306,-249.19 155.5,-243 150.874,-235.477 146.378,-226.984 142.504,-219.162"/>
<polygon fill="#00cd00" stroke="#00cd00" points="145.614,-217.553 138.12,-210.063 139.308,-220.591 145.614,-217.553"/>
<text text-anchor="middle" x="174.5" y="-231.8" font-family="Times New Roman,serif" font-size="14.00">source</text>
</g>
<!-- n4 -->
<g id="node4" class="node"><title>n4</title>
<g id="a_node4"><a xlink:href="file:///C:/sadl/git/RACK/RACK-Ontology/Graphs/Turnstiles.owl.svg" xlink:title="null:CounterApplication">
<ellipse fill="blue" stroke="black" cx="557.5" cy="-192" rx="96.6831" ry="18"/>
<text text-anchor="middle" x="557.5" y="-188.3" font-family="Times New Roman,serif" font-size="14.00" fill="white">null:CounterApplication</text>
</a>
</g>
</g>
<!-- n1&#45;&gt;n4 -->
<g id="edge3" class="edge"><title>n1&#45;&gt;n4</title>
<path fill="none" stroke="#00cd00" d="M232.207,-273.261C277.845,-268.238 346.457,-258.803 404.5,-243 422.019,-238.23 425.356,-233.982 442.5,-228 460.206,-221.822 479.652,-215.669 497.433,-210.284"/>
<polygon fill="#00cd00" stroke="#00cd00" points="498.548,-213.604 507.119,-207.377 496.535,-206.9 498.548,-213.604"/>
<text text-anchor="middle" x="473" y="-231.8" font-family="Times New Roman,serif" font-size="14.00">destination</text>
</g>
<!-- n5 -->
<g id="node5" class="node"><title>n5</title>
<g id="a_node5"><a xlink:href="file:///C:/sadl/git/RACK/RACK-Ontology/Graphs/SYSTEM.owl.svg" xlink:title="sys:INTERFACE">
<polygon fill="#00008b" stroke="black" points="442.5,-210 326.5,-210 326.5,-174 442.5,-174 442.5,-210"/>
<text text-anchor="middle" x="384.5" y="-188.3" font-family="Times New Roman,serif" font-size="14.00" fill="white">sys:INTERFACE</text>
</a>
</g>
</g>
<!-- n1&#45;&gt;n5 -->
<g id="edge4" class="edge"><title>n1&#45;&gt;n5</title>
<path fill="none" stroke="black" d="M198.086,-261.839C210.283,-250.801 227.76,-236.659 245.5,-228 272.595,-214.775 283.589,-217.419 316.502,-210.104"/>
<polygon fill="black" stroke="black" points="317.477,-213.47 326.398,-207.755 315.861,-206.659 317.477,-213.47"/>
<text text-anchor="middle" x="255" y="-231.8" font-family="Times New Roman,serif" font-size="14.00">is a</text>
</g>
<!-- n6 -->
<g id="node6" class="node"><title>n6</title>
<g id="a_node6"><a xlink:href="file:///C:/sadl/git/RACK/RACK-Ontology/Graphs/Turnstiles.owl.svg" xlink:title="null:Turnstiles">
<ellipse fill="blue" stroke="black" cx="861.5" cy="-105" rx="61.1893" ry="18"/>
<text text-anchor="middle" x="861.5" y="-101.3" font-family="Times New Roman,serif" font-size="14.00" fill="white">null:Turnstiles</text>
</a>
</g>
</g>
<!-- n3&#45;&gt;n6 -->
<g id="edge28" class="edge"><title>n3&#45;&gt;n6</title>
<path fill="none" stroke="#00cd00" d="M168.866,-179.246C176.934,-177.171 185.443,-175.27 193.5,-174 354.377,-148.64 400.012,-188.987 559.5,-156 578.093,-152.154 580.997,-145.257 599.5,-141 683.026,-121.784 706.969,-137.15 791.5,-123 796.819,-122.11 802.333,-121.037 807.824,-119.868"/>
<polygon fill="#00cd00" stroke="#00cd00" points="808.639,-123.272 817.638,-117.68 807.116,-116.44 808.639,-123.272"/>
<text text-anchor="middle" x="618" y="-144.8" font-family="Times New Roman,serif" font-size="14.00">partOf</text>
</g>
<!-- n8 -->
<g id="node8" class="node"><title>n8</title>
<g id="a_node8"><a xlink:href="file:///C:/sadl/git/RACK/RACK-Ontology/Graphs/SYSTEM.owl.svg" xlink:title="sys:SYSTEM">
<polygon fill="#00008b" stroke="black" points="413.5,-36 319.5,-36 319.5,-0 413.5,-0 413.5,-36"/>
<text text-anchor="middle" x="366.5" y="-14.3" font-family="Times New Roman,serif" font-size="14.00" fill="white">sys:SYSTEM</text>
</a>
</g>
</g>
<!-- n3&#45;&gt;n8 -->
<g id="edge29" class="edge"><title>n3&#45;&gt;n8</title>
<path fill="none" stroke="black" d="M146.266,-174.663C151.593,-168.909 157.463,-162.303 162.5,-156 200.06,-109 198.318,-82.1329 251.5,-54 269.487,-44.485 290.455,-37.1408 309.524,-31.694"/>
<polygon fill="black" stroke="black" points="310.576,-35.0346 319.297,-29.0172 308.727,-28.2833 310.576,-35.0346"/>
<text text-anchor="middle" x="219" y="-101.3" font-family="Times New Roman,serif" font-size="14.00">is a</text>
</g>
<!-- n23 -->
<g id="node23" class="node"><title>n23</title>
<polygon fill="none" stroke="black" points="108.5,-123 40.5,-123 40.5,-87 108.5,-87 108.5,-123"/>
<text text-anchor="middle" x="74.5" y="-101.3" font-family="Times New Roman,serif" font-size="14.00">Out Gate</text>
</g>
<!-- n3&#45;&gt;n23 -->
<g id="edge27" class="edge"><title>n3&#45;&gt;n23</title>
<path fill="none" stroke="#00cd00" d="M97.9855,-177.488C89.1398,-172.15 80.6017,-165.077 75.5,-156 71.6981,-149.235 70.4289,-141.1 70.3875,-133.375"/>
<polygon fill="#00cd00" stroke="#00cd00" points="73.889,-133.448 70.9693,-123.263 66.9006,-133.046 73.889,-133.448"/>
<text text-anchor="middle" x="119" y="-144.8" font-family="Times New Roman,serif" font-size="14.00">uniqueIdentifier</text>
</g>
<!-- n4&#45;&gt;n6 -->
<g id="edge25" class="edge"><title>n4&#45;&gt;n6</title>
<path fill="none" stroke="#00cd00" d="M621.769,-178.487C646.723,-172.799 675.307,-165.249 700.5,-156 714.494,-150.863 716.561,-146.284 730.5,-141 744.541,-135.677 777.122,-126.967 806.277,-119.568"/>
<polygon fill="#00cd00" stroke="#00cd00" points="807.16,-122.955 816.001,-117.116 805.449,-116.167 807.16,-122.955"/>
<text text-anchor="middle" x="749" y="-144.8" font-family="Times New Roman,serif" font-size="14.00">partOf</text>
</g>
<!-- n4&#45;&gt;n8 -->
<g id="edge26" class="edge"><title>n4&#45;&gt;n8</title>
<path fill="none" stroke="black" d="M478.95,-181.387C441.568,-172.542 399.819,-155.568 375.5,-123 359.119,-101.062 358.937,-68.7979 361.541,-46.0354"/>
<polygon fill="black" stroke="black" points="365.023,-46.4009 362.934,-36.0142 358.09,-45.437 365.023,-46.4009"/>
<text text-anchor="middle" x="385" y="-101.3" font-family="Times New Roman,serif" font-size="14.00">is a</text>
</g>
<!-- n22 -->
<g id="node22" class="node"><title>n22</title>
<polygon fill="none" stroke="black" points="533.5,-123 403.5,-123 403.5,-87 533.5,-87 533.5,-123"/>
<text text-anchor="middle" x="468.5" y="-101.3" font-family="Times New Roman,serif" font-size="14.00">Counter Application</text>
</g>
<!-- n4&#45;&gt;n22 -->
<g id="edge24" class="edge"><title>n4&#45;&gt;n22</title>
<path fill="none" stroke="#00cd00" d="M496.091,-178.06C485.215,-172.97 475.231,-165.879 468.5,-156 464.014,-149.416 462.745,-141.126 462.962,-133.2"/>
<polygon fill="#00cd00" stroke="#00cd00" points="466.454,-133.46 463.959,-123.163 459.488,-132.768 466.454,-133.46"/>
<text text-anchor="middle" x="512" y="-144.8" font-family="Times New Roman,serif" font-size="14.00">uniqueIdentifier</text>
</g>
<!-- n7 -->
<g id="node7" class="node"><title>n7</title>
<polygon fill="none" stroke="black" points="916,-36 807,-36 807,-0 916,-0 916,-36"/>
<text text-anchor="middle" x="861.5" y="-14.3" font-family="Times New Roman,serif" font-size="14.00">TurnStileSystem</text>
</g>
<!-- n6&#45;&gt;n7 -->
<g id="edge5" class="edge"><title>n6&#45;&gt;n7</title>
<path fill="none" stroke="#00cd00" d="M861.5,-86.799C861.5,-75.1626 861.5,-59.5479 861.5,-46.2368"/>
<polygon fill="#00cd00" stroke="#00cd00" points="865,-46.1754 861.5,-36.1754 858,-46.1755 865,-46.1754"/>
<text text-anchor="middle" x="905" y="-57.8" font-family="Times New Roman,serif" font-size="14.00">uniqueIdentifier</text>
</g>
<!-- n6&#45;&gt;n8 -->
<g id="edge6" class="edge"><title>n6&#45;&gt;n8</title>
<path fill="none" stroke="black" d="M816.807,-92.585C808.424,-90.6036 799.715,-88.6519 791.5,-87 660.656,-60.6876 505.508,-37.9902 423.663,-26.6719"/>
<polygon fill="black" stroke="black" points="423.955,-23.1792 413.571,-25.2827 423.001,-30.1138 423.955,-23.1792"/>
<text text-anchor="middle" x="697" y="-57.8" font-family="Times New Roman,serif" font-size="14.00">is a</text>
</g>
<!-- n9 -->
<g id="node9" class="node"><title>n9</title>
<g id="a_node9"><a xlink:href="file:///C:/sadl/git/RACK/RACK-Ontology/Graphs/Turnstiles.owl.svg" xlink:title="null:Sys&#45;3">
<ellipse fill="blue" stroke="black" cx="1158.5" cy="-192" rx="46.2923" ry="18"/>
<text text-anchor="middle" x="1158.5" y="-188.3" font-family="Times New Roman,serif" font-size="14.00" fill="white">null:Sys&#45;3</text>
</a>
</g>
</g>
<!-- n9&#45;&gt;n6 -->
<g id="edge9" class="edge"><title>n9&#45;&gt;n6</title>
<path fill="none" stroke="#00cd00" d="M1113.46,-187.59C1071.2,-183.4 1006.72,-174.436 953.5,-156 932.775,-148.821 911.149,-137.302 894.075,-127.129"/>
<polygon fill="#00cd00" stroke="#00cd00" points="895.453,-123.87 885.093,-121.652 891.809,-129.847 895.453,-123.87"/>
<text text-anchor="middle" x="976" y="-144.8" font-family="Times New Roman,serif" font-size="14.00">governs</text>
</g>
<!-- n10 -->
<g id="node10" class="node"><title>n10</title>
<polygon fill="none" stroke="black" points="994.5,-123 940.5,-123 940.5,-87 994.5,-87 994.5,-123"/>
<text text-anchor="middle" x="967.5" y="-101.3" font-family="Times New Roman,serif" font-size="14.00">Sys&#45;3</text>
</g>
<!-- n9&#45;&gt;n10 -->
<g id="edge7" class="edge"><title>n9&#45;&gt;n10</title>
<path fill="none" stroke="#00cd00" d="M1133.79,-176.773C1111.32,-163.982 1079.71,-146.4 1066.5,-141 1042.07,-131.014 1032.56,-132.764 1004.25,-122.917"/>
<polygon fill="#00cd00" stroke="#00cd00" points="1005.41,-119.617 994.819,-119.463 1003,-126.19 1005.41,-119.617"/>
<text text-anchor="middle" x="1140" y="-144.8" font-family="Times New Roman,serif" font-size="14.00">uniqueIdentifier</text>
</g>
<!-- n11 -->
<g id="node11" class="node"><title>n11</title>
<polygon fill="none" stroke="black" points="1442.5,-123 1012.5,-123 1012.5,-87 1442.5,-87 1442.5,-123"/>
<text text-anchor="middle" x="1227.5" y="-101.3" font-family="Times New Roman,serif" font-size="14.00">Turnstile system shall track the number of people are currently in the park.</text>
</g>
<!-- n9&#45;&gt;n11 -->
<g id="edge8" class="edge"><title>n9&#45;&gt;n11</title>
<path fill="none" stroke="#00cd00" d="M1171.8,-174.611C1181.82,-162.271 1195.73,-145.136 1207.14,-131.077"/>
<polygon fill="#00cd00" stroke="#00cd00" points="1209.94,-133.184 1213.53,-123.214 1204.51,-128.772 1209.94,-133.184"/>
<text text-anchor="middle" x="1208" y="-144.8" font-family="Times New Roman,serif" font-size="14.00">text</text>
</g>
<!-- n12 -->
<g id="node12" class="node"><title>n12</title>
<g id="a_node12"><a xlink:href="file:///C:/sadl/git/RACK/RACK-Ontology/Graphs/REQUIREMENTS.owl.svg" xlink:title="Rq:REQUIREMENT">
<polygon fill="#00008b" stroke="black" points="2147,-123 2010,-123 2010,-87 2147,-87 2147,-123"/>
<text text-anchor="middle" x="2078.5" y="-101.3" font-family="Times New Roman,serif" font-size="14.00" fill="white">Rq:REQUIREMENT</text>
</a>
</g>
</g>
<!-- n9&#45;&gt;n12 -->
<g id="edge10" class="edge"><title>n9&#45;&gt;n12</title>
<path fill="none" stroke="black" d="M1204.22,-189.112C1300.8,-184.919 1532.68,-173.774 1726.5,-156 1781.34,-150.971 1794.82,-147.572 1849.5,-141 1913.88,-133.263 1932.69,-134.231 1999.5,-123.25"/>
<polygon fill="black" stroke="black" points="2000.43,-126.643 2009.72,-121.541 1999.28,-119.739 2000.43,-126.643"/>
<text text-anchor="middle" x="1859" y="-144.8" font-family="Times New Roman,serif" font-size="14.00">is a</text>
</g>
<!-- n13 -->
<g id="node13" class="node"><title>n13</title>
<g id="a_node13"><a xlink:href="file:///C:/sadl/git/RACK/RACK-Ontology/Graphs/Turnstiles.owl.svg" xlink:title="null:census">
<ellipse fill="blue" stroke="black" cx="510.5" cy="-279" rx="50.0912" ry="18"/>
<text text-anchor="middle" x="510.5" y="-275.3" font-family="Times New Roman,serif" font-size="14.00" fill="white">null:census</text>
</a>
</g>
</g>
<!-- n13&#45;&gt;n4 -->
<g id="edge12" class="edge"><title>n13&#45;&gt;n4</title>
<path fill="none" stroke="#00cd00" d="M507.272,-260.899C506.208,-250.799 506.386,-238.062 511.5,-228 513.714,-223.644 516.749,-219.68 520.214,-216.114"/>
<polygon fill="#00cd00" stroke="#00cd00" points="522.659,-218.623 527.802,-209.361 518.005,-213.394 522.659,-218.623"/>
<text text-anchor="middle" x="530.5" y="-231.8" font-family="Times New Roman,serif" font-size="14.00">source</text>
</g>
<!-- n13&#45;&gt;n5 -->
<g id="edge15" class="edge"><title>n13&#45;&gt;n5</title>
<path fill="none" stroke="black" d="M465.362,-271.131C433.743,-265.3 395.434,-255.829 385.5,-243 380.621,-236.699 379.112,-228.49 379.184,-220.55"/>
<polygon fill="black" stroke="black" points="382.683,-220.71 380.038,-210.45 375.708,-220.12 382.683,-220.71"/>
<text text-anchor="middle" x="395" y="-231.8" font-family="Times New Roman,serif" font-size="14.00">is a</text>
</g>
<!-- n14 -->
<g id="node14" class="node"><title>n14</title>
<polygon fill="none" stroke="black" points="727,-210 672,-210 672,-174 727,-174 727,-210"/>
<text text-anchor="middle" x="699.5" y="-188.3" font-family="Times New Roman,serif" font-size="14.00">census</text>
</g>
<!-- n13&#45;&gt;n14 -->
<g id="edge11" class="edge"><title>n13&#45;&gt;n14</title>
<path fill="none" stroke="#00cd00" d="M543.417,-265.268C558.37,-259.108 576.115,-251.263 591.5,-243 602.251,-237.225 603.592,-233.472 614.5,-228 632.807,-218.816 640.301,-218.804 662.173,-210.302"/>
<polygon fill="#00cd00" stroke="#00cd00" points="663.758,-213.436 671.702,-206.427 661.121,-206.952 663.758,-213.436"/>
<text text-anchor="middle" x="658" y="-231.8" font-family="Times New Roman,serif" font-size="14.00">uniqueIdentifier</text>
</g>
<!-- n15 -->
<g id="node15" class="node"><title>n15</title>
<g id="a_node15"><a xlink:href="file:///C:/sadl/git/RACK/RACK-Ontology/Graphs/Turnstiles.owl.svg" xlink:title="null:Display">
<ellipse fill="blue" stroke="black" cx="255.5" cy="-192" rx="52.7911" ry="18"/>
<text text-anchor="middle" x="255.5" y="-188.3" font-family="Times New Roman,serif" font-size="14.00" fill="white">null:Display</text>
</a>
</g>
</g>
<!-- n13&#45;&gt;n15 -->
<g id="edge13" class="edge"><title>n13&#45;&gt;n15</title>
<path fill="none" stroke="#00cd00" d="M460.713,-276.083C419.996,-272.9 361.795,-264.578 315.5,-243 301.789,-236.609 288.633,-226.293 278.153,-216.686"/>
<polygon fill="#00cd00" stroke="#00cd00" points="280.342,-213.936 270.695,-209.555 275.504,-218.995 280.342,-213.936"/>
<text text-anchor="middle" x="346" y="-231.8" font-family="Times New Roman,serif" font-size="14.00">destination</text>
</g>
<!-- n16 -->
<g id="node16" class="node"><title>n16</title>
<g id="a_node16"><a xlink:href="file:///C:/sadl/git/RACK/RACK-Ontology/Graphs/Turnstiles.owl.svg" xlink:title="null:Ingate">
<ellipse fill="blue" stroke="black" cx="792.5" cy="-192" rx="47.3916" ry="18"/>
<text text-anchor="middle" x="792.5" y="-188.3" font-family="Times New Roman,serif" font-size="14.00" fill="white">null:Ingate</text>
</a>
</g>
</g>
<!-- n13&#45;&gt;n16 -->
<g id="edge14" class="edge"><title>n13&#45;&gt;n16</title>
<path fill="none" stroke="#00cd00" d="M559.056,-274.439C598.561,-270.296 655.158,-261.487 701.5,-243 712.835,-238.478 713.95,-234.134 724.5,-228 734.343,-222.277 745.221,-216.462 755.337,-211.257"/>
<polygon fill="#00cd00" stroke="#00cd00" points="757.033,-214.321 764.361,-206.669 753.861,-208.081 757.033,-214.321"/>
<text text-anchor="middle" x="755" y="-231.8" font-family="Times New Roman,serif" font-size="14.00">destination</text>
</g>
<!-- n15&#45;&gt;n6 -->
<g id="edge31" class="edge"><title>n15&#45;&gt;n6</title>
<path fill="none" stroke="#00cd00" d="M293.254,-179.282C301.194,-177.204 309.569,-175.293 317.5,-174 388.452,-162.43 573.269,-181.458 640.5,-156 650.562,-152.19 649.598,-145.209 659.5,-141 713.992,-117.839 733.321,-134.001 791.5,-123 796.592,-122.037 801.87,-120.941 807.139,-119.779"/>
<polygon fill="#00cd00" stroke="#00cd00" points="808.241,-123.118 817.212,-117.482 806.685,-116.293 808.241,-123.118"/>
<text text-anchor="middle" x="678" y="-144.8" font-family="Times New Roman,serif" font-size="14.00">partOf</text>
</g>
<!-- n15&#45;&gt;n8 -->
<g id="edge32" class="edge"><title>n15&#45;&gt;n8</title>
<path fill="none" stroke="black" d="M246.863,-174.215C237.011,-152.508 224.236,-114.259 240.5,-87 255.643,-61.6194 283.9,-45.1464 309.822,-34.7815"/>
<polygon fill="black" stroke="black" points="311.114,-38.035 319.238,-31.2341 308.646,-31.4844 311.114,-38.035"/>
<text text-anchor="middle" x="250" y="-101.3" font-family="Times New Roman,serif" font-size="14.00">is a</text>
</g>
<!-- n24 -->
<g id="node24" class="node"><title>n24</title>
<polygon fill="none" stroke="black" points="328,-123 269,-123 269,-87 328,-87 328,-123"/>
<text text-anchor="middle" x="298.5" y="-101.3" font-family="Times New Roman,serif" font-size="14.00">Display</text>
</g>
<!-- n15&#45;&gt;n24 -->
<g id="edge30" class="edge"><title>n15&#45;&gt;n24</title>
<path fill="none" stroke="#00cd00" d="M256.601,-173.551C257.801,-163.568 260.301,-151.068 265.5,-141 267.251,-137.61 269.428,-134.315 271.823,-131.189"/>
<polygon fill="#00cd00" stroke="#00cd00" points="274.681,-133.233 278.53,-123.362 269.366,-128.678 274.681,-133.233"/>
<text text-anchor="middle" x="309" y="-144.8" font-family="Times New Roman,serif" font-size="14.00">uniqueIdentifier</text>
</g>
<!-- n16&#45;&gt;n6 -->
<g id="edge38" class="edge"><title>n16&#45;&gt;n6</title>
<path fill="none" stroke="#00cd00" d="M831.81,-181.691C845.16,-176.448 858.669,-168.367 866.5,-156 870.784,-149.235 871.353,-140.894 870.321,-132.977"/>
<polygon fill="#00cd00" stroke="#00cd00" points="873.702,-132.047 868.219,-122.981 866.852,-133.487 873.702,-132.047"/>
<text text-anchor="middle" x="890" y="-144.8" font-family="Times New Roman,serif" font-size="14.00">partOf</text>
</g>
<!-- n16&#45;&gt;n8 -->
<g id="edge39" class="edge"><title>n16&#45;&gt;n8</title>
<path fill="none" stroke="black" d="M757.775,-179.611C750.475,-177.509 742.781,-175.505 735.5,-174 702.191,-167.114 612.021,-174.534 583.5,-156 553.589,-136.563 569.745,-110.026 542.5,-87 508.28,-58.0792 460.386,-40.651 423.197,-30.6904"/>
<polygon fill="black" stroke="black" points="424.058,-27.298 413.501,-28.1962 422.314,-34.0773 424.058,-27.298"/>
<text text-anchor="middle" x="572" y="-101.3" font-family="Times New Roman,serif" font-size="14.00">is a</text>
</g>
<!-- n28 -->
<g id="node28" class="node"><title>n28</title>
<polygon fill="none" stroke="black" points="782.5,-123 724.5,-123 724.5,-87 782.5,-87 782.5,-123"/>
<text text-anchor="middle" x="753.5" y="-101.3" font-family="Times New Roman,serif" font-size="14.00">In Gate</text>
</g>
<!-- n16&#45;&gt;n28 -->
<g id="edge37" class="edge"><title>n16&#45;&gt;n28</title>
<path fill="none" stroke="#00cd00" d="M784.795,-174.207C779.329,-162.293 771.882,-146.063 765.624,-132.424"/>
<polygon fill="#00cd00" stroke="#00cd00" points="768.674,-130.679 761.323,-123.049 762.312,-133.598 768.674,-130.679"/>
<text text-anchor="middle" x="819" y="-144.8" font-family="Times New Roman,serif" font-size="14.00">uniqueIdentifier</text>
</g>
<!-- n17 -->
<g id="node17" class="node"><title>n17</title>
<g id="a_node17"><a xlink:href="file:///C:/sadl/git/RACK/RACK-Ontology/Graphs/Turnstiles.owl.svg" xlink:title="null:inflow">
<ellipse fill="blue" stroke="black" cx="849.5" cy="-279" rx="48.1917" ry="18"/>
<text text-anchor="middle" x="849.5" y="-275.3" font-family="Times New Roman,serif" font-size="14.00" fill="white">null:inflow</text>
</a>
</g>
</g>
<!-- n17&#45;&gt;n4 -->
<g id="edge18" class="edge"><title>n17&#45;&gt;n4</title>
<path fill="none" stroke="#00cd00" d="M829.315,-262.35C821.548,-256.316 812.602,-249.349 804.5,-243 796.031,-236.364 795.381,-232.257 785.5,-228 734.76,-206.14 717.104,-218.415 662.5,-210 654.367,-208.747 645.884,-207.414 637.419,-206.069"/>
<polygon fill="#00cd00" stroke="#00cd00" points="637.939,-202.608 627.512,-204.487 636.835,-209.52 637.939,-202.608"/>
<text text-anchor="middle" x="835" y="-231.8" font-family="Times New Roman,serif" font-size="14.00">destination</text>
</g>
<!-- n17&#45;&gt;n5 -->
<g id="edge19" class="edge"><title>n17&#45;&gt;n5</title>
<path fill="none" stroke="black" d="M802.415,-275.206C733.703,-270.612 609.66,-260.213 568.5,-243 558.574,-238.849 559.302,-232.436 549.5,-228 511.834,-210.954 496.79,-218.285 452.469,-210"/>
<polygon fill="black" stroke="black" points="453.046,-206.546 442.548,-207.981 451.649,-213.406 453.046,-206.546"/>
<text text-anchor="middle" x="578" y="-231.8" font-family="Times New Roman,serif" font-size="14.00">is a</text>
</g>
<!-- n17&#45;&gt;n16 -->
<g id="edge17" class="edge"><title>n17&#45;&gt;n16</title>
<path fill="none" stroke="#00cd00" d="M863.734,-261.475C870.655,-251.345 876.181,-238.376 869.5,-228 863.105,-218.069 853.127,-210.923 842.449,-205.793"/>
<polygon fill="#00cd00" stroke="#00cd00" points="843.531,-202.451 832.957,-201.784 840.807,-208.899 843.531,-202.451"/>
<text text-anchor="middle" x="892.5" y="-231.8" font-family="Times New Roman,serif" font-size="14.00">source</text>
</g>
<!-- n18 -->
<g id="node18" class="node"><title>n18</title>
<polygon fill="none" stroke="black" points="979.5,-210 925.5,-210 925.5,-174 979.5,-174 979.5,-210"/>
<text text-anchor="middle" x="952.5" y="-188.3" font-family="Times New Roman,serif" font-size="14.00">inflow</text>
</g>
<!-- n17&#45;&gt;n18 -->
<g id="edge16" class="edge"><title>n17&#45;&gt;n18</title>
<path fill="none" stroke="#00cd00" d="M880.526,-265.106C892.221,-259.368 905.178,-251.884 915.5,-243 923.519,-236.099 930.819,-227.157 936.776,-218.747"/>
<polygon fill="#00cd00" stroke="#00cd00" points="939.792,-220.534 942.471,-210.284 933.984,-216.626 939.792,-220.534"/>
<text text-anchor="middle" x="974" y="-231.8" font-family="Times New Roman,serif" font-size="14.00">uniqueIdentifier</text>
</g>
<!-- n19 -->
<g id="node19" class="node"><title>n19</title>
<g id="a_node19"><a xlink:href="file:///C:/sadl/git/RACK/RACK-Ontology/Graphs/Turnstiles.owl.svg" xlink:title="null:Sys&#45;1">
<ellipse fill="blue" stroke="black" cx="1625.5" cy="-192" rx="46.2923" ry="18"/>
<text text-anchor="middle" x="1625.5" y="-188.3" font-family="Times New Roman,serif" font-size="14.00" fill="white">null:Sys&#45;1</text>
</a>
</g>
</g>
<!-- n19&#45;&gt;n6 -->
<g id="edge22" class="edge"><title>n19&#45;&gt;n6</title>
<path fill="none" stroke="#00cd00" d="M1579.63,-189.115C1442.52,-183.38 1043.66,-165.934 1017.5,-156 1007.44,-152.181 1008.14,-145.769 998.5,-141 994.615,-139.079 953.325,-128.626 917.081,-119.64"/>
<polygon fill="#00cd00" stroke="#00cd00" points="917.575,-116.156 907.027,-117.152 915.894,-122.952 917.575,-116.156"/>
<text text-anchor="middle" x="1040" y="-144.8" font-family="Times New Roman,serif" font-size="14.00">governs</text>
</g>
<!-- n19&#45;&gt;n12 -->
<g id="edge23" class="edge"><title>n19&#45;&gt;n12</title>
<path fill="none" stroke="black" d="M1669.44,-186.084C1719,-180.236 1801.89,-169.538 1872.5,-156 1916.98,-147.471 1966.31,-135.587 2005.53,-125.545"/>
<polygon fill="black" stroke="black" points="2006.47,-128.918 2015.28,-123.034 2004.72,-122.139 2006.47,-128.918"/>
<text text-anchor="middle" x="1950" y="-144.8" font-family="Times New Roman,serif" font-size="14.00">is a</text>
</g>
<!-- n20 -->
<g id="node20" class="node"><title>n20</title>
<polygon fill="none" stroke="black" points="1514.5,-123 1460.5,-123 1460.5,-87 1514.5,-87 1514.5,-123"/>
<text text-anchor="middle" x="1487.5" y="-101.3" font-family="Times New Roman,serif" font-size="14.00">Sys&#45;1</text>
</g>
<!-- n19&#45;&gt;n20 -->
<g id="edge20" class="edge"><title>n19&#45;&gt;n20</title>
<path fill="none" stroke="#00cd00" d="M1601.78,-176.388C1580.23,-163.114 1548.12,-143.341 1523.43,-128.129"/>
<polygon fill="#00cd00" stroke="#00cd00" points="1525.05,-125.016 1514.7,-122.751 1521.38,-130.976 1525.05,-125.016"/>
<text text-anchor="middle" x="1608" y="-144.8" font-family="Times New Roman,serif" font-size="14.00">uniqueIdentifier</text>
</g>
<!-- n21 -->
<g id="node21" class="node"><title>n21</title>
<polygon fill="none" stroke="black" points="1992,-123 1533,-123 1533,-87 1992,-87 1992,-123"/>
<text text-anchor="middle" x="1762.5" y="-101.3" font-family="Times New Roman,serif" font-size="14.00">Turnstile system shall track the number of people that travel through the in gate.</text>
</g>
<!-- n19&#45;&gt;n21 -->
<g id="edge21" class="edge"><title>n19&#45;&gt;n21</title>
<path fill="none" stroke="#00cd00" d="M1649.05,-176.388C1670.31,-163.198 1701.91,-143.593 1726.36,-128.42"/>
<polygon fill="#00cd00" stroke="#00cd00" points="1728.37,-131.297 1735.02,-123.051 1724.68,-125.349 1728.37,-131.297"/>
<text text-anchor="middle" x="1712" y="-144.8" font-family="Times New Roman,serif" font-size="14.00">text</text>
</g>
<!-- n25 -->
<g id="node25" class="node"><title>n25</title>
<g id="a_node25"><a xlink:href="file:///C:/sadl/git/RACK/RACK-Ontology/Graphs/Turnstiles.owl.svg" xlink:title="null:Sys&#45;2">
<ellipse fill="blue" stroke="black" cx="2135.5" cy="-192" rx="46.2923" ry="18"/>
<text text-anchor="middle" x="2135.5" y="-188.3" font-family="Times New Roman,serif" font-size="14.00" fill="white">null:Sys&#45;2</text>
</a>
</g>
</g>
<!-- n25&#45;&gt;n6 -->
<g id="edge35" class="edge"><title>n25&#45;&gt;n6</title>
<path fill="none" stroke="#00cd00" d="M2103.42,-178.888C2069.3,-166.669 2013.46,-148.56 1963.5,-141 1736.71,-106.685 1159,-152.243 931.5,-123 925.779,-122.265 919.847,-121.242 913.965,-120.06"/>
<polygon fill="#00cd00" stroke="#00cd00" points="914.676,-116.633 904.162,-117.943 913.198,-123.475 914.676,-116.633"/>
<text text-anchor="middle" x="2053" y="-144.8" font-family="Times New Roman,serif" font-size="14.00">governs</text>
</g>
<!-- n25&#45;&gt;n12 -->
<g id="edge36" class="edge"><title>n25&#45;&gt;n12</title>
<path fill="none" stroke="black" d="M2124.24,-174.207C2116.09,-162.062 2104.94,-145.431 2095.69,-131.633"/>
<polygon fill="black" stroke="black" points="2098.41,-129.405 2089.93,-123.049 2092.6,-133.304 2098.41,-129.405"/>
<text text-anchor="middle" x="2119" y="-144.8" font-family="Times New Roman,serif" font-size="14.00">is a</text>
</g>
<!-- n26 -->
<g id="node26" class="node"><title>n26</title>
<polygon fill="none" stroke="black" points="2219.5,-123 2165.5,-123 2165.5,-87 2219.5,-87 2219.5,-123"/>
<text text-anchor="middle" x="2192.5" y="-101.3" font-family="Times New Roman,serif" font-size="14.00">Sys&#45;2</text>
</g>
<!-- n25&#45;&gt;n26 -->
<g id="edge33" class="edge"><title>n25&#45;&gt;n26</title>
<path fill="none" stroke="#00cd00" d="M2146.76,-174.207C2154.91,-162.062 2166.06,-145.431 2175.31,-131.633"/>
<polygon fill="#00cd00" stroke="#00cd00" points="2178.4,-133.304 2181.07,-123.049 2172.59,-129.405 2178.4,-133.304"/>
<text text-anchor="middle" x="2210" y="-144.8" font-family="Times New Roman,serif" font-size="14.00">uniqueIdentifier</text>
</g>
<!-- n27 -->
<g id="node27" class="node"><title>n27</title>
<polygon fill="none" stroke="black" points="2735,-123 2238,-123 2238,-87 2735,-87 2735,-123"/>
<text text-anchor="middle" x="2486.5" y="-101.3" font-family="Times New Roman,serif" font-size="14.00">Turnstile system shall track the number of people that travel through the out gate.	</text>
</g>
<!-- n25&#45;&gt;n27 -->
<g id="edge34" class="edge"><title>n25&#45;&gt;n27</title>
<path fill="none" stroke="#00cd00" d="M2173.73,-181.742C2229.22,-168.304 2333.39,-143.078 2406.2,-125.445"/>
<polygon fill="#00cd00" stroke="#00cd00" points="2407.37,-128.764 2416.26,-123.009 2405.72,-121.961 2407.37,-128.764"/>
<text text-anchor="middle" x="2342" y="-144.8" font-family="Times New Roman,serif" font-size="14.00">text</text>
</g>
</g>
</svg>
